<svg xmlns="http://www.w3.org/2000/svg" width="1600" height="1800" viewBox="0 0 1600 1800"><style>text{font-family:monospace;fill:#111}.small{font-size:14px}.axis{stroke:#444;stroke-width:1}.grid{stroke:#ddd;stroke-width:1}</style><rect x="0" y="0" width="1600" height="1800" fill="white"/><text x="800.0" y="40" text-anchor="middle" font-size="24">mem_bw_stress aggregate throughput vs threads (1MiB)</text><text x="800.0" y="70" text-anchor="middle" font-size="16">threads per process on X axis</text><line x1="1320" y1="30" x2="1348" y2="30" stroke="#1f77b4" stroke-width="3"/><text x="1356" y="35" font-size="14">1302</text><line x1="1320" y1="54" x2="1348" y2="54" stroke="#d62728" stroke-width="3"/><text x="1356" y="59" font-size="14">1306</text><line x1="1320" y1="78" x2="1348" y2="78" stroke="#2ca02c" stroke-width="3"/><text x="1356" y="83" font-size="14">1308</text><text x="432.5" y="110.0" text-anchor="middle" font-size="18">local numa0</text><line class="grid" x1="145.0" y1="135.0" x2="760.0" y2="135.0"/><text class="small" x="137.0" y="139.0" text-anchor="end">275</text><line class="grid" x1="145.0" y1="189.5" x2="760.0" y2="189.5"/><text class="small" x="137.0" y="193.5" text-anchor="end">220</text><line class="grid" x1="145.0" y1="244.0" x2="760.0" y2="244.0"/><text class="small" x="137.0" y="248.0" text-anchor="end">165</text><line class="grid" x1="145.0" y1="298.5" x2="760.0" y2="298.5"/><text class="small" x="137.0" y="302.5" text-anchor="end">110</text><line class="grid" x1="145.0" y1="353.0" x2="760.0" y2="353.0"/><text class="small" x="137.0" y="357.0" text-anchor="end">55</text><line class="grid" x1="145.0" y1="407.5" x2="760.0" y2="407.5"/><text class="small" x="137.0" y="411.5" text-anchor="end">0</text><line class="axis" x1="145.0" y1="407.5" x2="760.0" y2="407.5"/><line class="axis" x1="145.0" y1="135.0" x2="145.0" y2="407.5"/><line class="grid" x1="145.0" y1="407.5" x2="145.0" y2="412.5"/><text class="small" x="145.0" y="427.5" text-anchor="middle">1</text><line class="grid" x1="151.47368421052633" y1="407.5" x2="151.47368421052633" y2="412.5"/><text class="small" x="151.47368421052633" y="427.5" text-anchor="middle">2</text><line class="grid" x1="164.42105263157896" y1="407.5" x2="164.42105263157896" y2="412.5"/><text class="small" x="164.42105263157896" y="427.5" text-anchor="middle">4</text><line class="grid" x1="190.31578947368422" y1="407.5" x2="190.31578947368422" y2="412.5"/><text class="small" x="190.31578947368422" y="427.5" text-anchor="middle">8</text><line class="grid" x1="216.21052631578948" y1="407.5" x2="216.21052631578948" y2="412.5"/><text class="small" x="216.21052631578948" y="427.5" text-anchor="middle">12</text><line class="grid" x1="242.10526315789474" y1="407.5" x2="242.10526315789474" y2="412.5"/><text class="small" x="242.10526315789474" y="427.5" text-anchor="middle">16</text><line class="grid" x1="293.89473684210526" y1="407.5" x2="293.89473684210526" y2="412.5"/><text class="small" x="293.89473684210526" y="427.5" text-anchor="middle">24</text><line class="grid" x1="345.6842105263158" y1="407.5" x2="345.6842105263158" y2="412.5"/><text class="small" x="345.6842105263158" y="427.5" text-anchor="middle">32</text><line class="grid" x1="449.2631578947368" y1="407.5" x2="449.2631578947368" y2="412.5"/><text class="small" x="449.2631578947368" y="427.5" text-anchor="middle">48</text><line class="grid" x1="552.8421052631579" y1="407.5" x2="552.8421052631579" y2="412.5"/><text class="small" x="552.8421052631579" y="427.5" text-anchor="middle">64</text><line class="grid" x1="760.0" y1="407.5" x2="760.0" y2="412.5"/><text class="small" x="760.0" y="427.5" text-anchor="middle">96</text><polyline fill="none" stroke="#1f77b4" stroke-width="2.5" points="145.0,370.0 151.5,332.1 164.4,278.7 190.3,214.3 216.2,185.4 242.1,188.1 293.9,190.4 345.7,193.6 449.3,194.9 552.8,195.5 760.0,196.0"/><circle cx="145.0" cy="370.0" r="2.8" fill="#1f77b4"/><circle cx="151.5" cy="332.1" r="2.8" fill="#1f77b4"/><circle cx="164.4" cy="278.7" r="2.8" fill="#1f77b4"/><circle cx="190.3" cy="214.3" r="2.8" fill="#1f77b4"/><circle cx="216.2" cy="185.4" r="2.8" fill="#1f77b4"/><circle cx="242.1" cy="188.1" r="2.8" fill="#1f77b4"/><circle cx="293.9" cy="190.4" r="2.8" fill="#1f77b4"/><circle cx="345.7" cy="193.6" r="2.8" fill="#1f77b4"/><circle cx="449.3" cy="194.9" r="2.8" fill="#1f77b4"/><circle cx="552.8" cy="195.5" r="2.8" fill="#1f77b4"/><circle cx="760.0" cy="196.0" r="2.8" fill="#1f77b4"/><polyline fill="none" stroke="#d62728" stroke-width="2.5" points="145.0,369.6 151.5,332.9 164.4,278.2 190.3,216.4 216.2,185.7 242.1,186.1 293.9,190.7 345.7,193.0 449.3,194.8 552.8,195.4 760.0,195.5"/><circle cx="145.0" cy="369.6" r="2.8" fill="#d62728"/><circle cx="151.5" cy="332.9" r="2.8" fill="#d62728"/><circle cx="164.4" cy="278.2" r="2.8" fill="#d62728"/><circle cx="190.3" cy="216.4" r="2.8" fill="#d62728"/><circle cx="216.2" cy="185.7" r="2.8" fill="#d62728"/><circle cx="242.1" cy="186.1" r="2.8" fill="#d62728"/><circle cx="293.9" cy="190.7" r="2.8" fill="#d62728"/><circle cx="345.7" cy="193.0" r="2.8" fill="#d62728"/><circle cx="449.3" cy="194.8" r="2.8" fill="#d62728"/><circle cx="552.8" cy="195.4" r="2.8" fill="#d62728"/><circle cx="760.0" cy="195.5" r="2.8" fill="#d62728"/><polyline fill="none" stroke="#2ca02c" stroke-width="2.5" points="145.0,369.4 151.5,332.6 164.4,276.3 190.3,217.0 216.2,185.8 242.1,186.7 293.9,191.3 345.7,193.6 449.3,194.9 552.8,195.6 760.0,196.0"/><circle cx="145.0" cy="369.4" r="2.8" fill="#2ca02c"/><circle cx="151.5" cy="332.6" r="2.8" fill="#2ca02c"/><circle cx="164.4" cy="276.3" r="2.8" fill="#2ca02c"/><circle cx="190.3" cy="217.0" r="2.8" fill="#2ca02c"/><circle cx="216.2" cy="185.8" r="2.8" fill="#2ca02c"/><circle cx="242.1" cy="186.7" r="2.8" fill="#2ca02c"/><circle cx="293.9" cy="191.3" r="2.8" fill="#2ca02c"/><circle cx="345.7" cy="193.6" r="2.8" fill="#2ca02c"/><circle cx="449.3" cy="194.9" r="2.8" fill="#2ca02c"/><circle cx="552.8" cy="195.6" r="2.8" fill="#2ca02c"/><circle cx="760.0" cy="196.0" r="2.8" fill="#2ca02c"/><text class="small" x="100.0" y="276.25" transform="rotate(-90 100.0,276.25)" text-anchor="middle">bench traffic GB/s</text><text x="1177.5" y="110.0" text-anchor="middle" font-size="18">local numa1</text><line class="grid" x1="890.0" y1="135.0" x2="1505.0" y2="135.0"/><text class="small" x="882.0" y="139.0" text-anchor="end">275</text><line class="grid" x1="890.0" y1="189.5" x2="1505.0" y2="189.5"/><text class="small" x="882.0" y="193.5" text-anchor="end">220</text><line class="grid" x1="890.0" y1="244.0" x2="1505.0" y2="244.0"/><text class="small" x="882.0" y="248.0" text-anchor="end">165</text><line class="grid" x1="890.0" y1="298.5" x2="1505.0" y2="298.5"/><text class="small" x="882.0" y="302.5" text-anchor="end">110</text><line class="grid" x1="890.0" y1="353.0" x2="1505.0" y2="353.0"/><text class="small" x="882.0" y="357.0" text-anchor="end">55</text><line class="grid" x1="890.0" y1="407.5" x2="1505.0" y2="407.5"/><text class="small" x="882.0" y="411.5" text-anchor="end">0</text><line class="axis" x1="890.0" y1="407.5" x2="1505.0" y2="407.5"/><line class="axis" x1="890.0" y1="135.0" x2="890.0" y2="407.5"/><line class="grid" x1="890.0" y1="407.5" x2="890.0" y2="412.5"/><text class="small" x="890.0" y="427.5" text-anchor="middle">1</text><line class="grid" x1="896.4736842105264" y1="407.5" x2="896.4736842105264" y2="412.5"/><text class="small" x="896.4736842105264" y="427.5" text-anchor="middle">2</text><line class="grid" x1="909.421052631579" y1="407.5" x2="909.421052631579" y2="412.5"/><text class="small" x="909.421052631579" y="427.5" text-anchor="middle">4</text><line class="grid" x1="935.3157894736842" y1="407.5" x2="935.3157894736842" y2="412.5"/><text class="small" x="935.3157894736842" y="427.5" text-anchor="middle">8</text><line class="grid" x1="961.2105263157895" y1="407.5" x2="961.2105263157895" y2="412.5"/><text class="small" x="961.2105263157895" y="427.5" text-anchor="middle">12</text><line class="grid" x1="987.1052631578948" y1="407.5" x2="987.1052631578948" y2="412.5"/><text class="small" x="987.1052631578948" y="427.5" text-anchor="middle">16</text><line class="grid" x1="1038.8947368421052" y1="407.5" x2="1038.8947368421052" y2="412.5"/><text class="small" x="1038.8947368421052" y="427.5" text-anchor="middle">24</text><line class="grid" x1="1090.6842105263158" y1="407.5" x2="1090.6842105263158" y2="412.5"/><text class="small" x="1090.6842105263158" y="427.5" text-anchor="middle">32</text><line class="grid" x1="1194.2631578947369" y1="407.5" x2="1194.2631578947369" y2="412.5"/><text class="small" x="1194.2631578947369" y="427.5" text-anchor="middle">48</text><line class="grid" x1="1297.842105263158" y1="407.5" x2="1297.842105263158" y2="412.5"/><text class="small" x="1297.842105263158" y="427.5" text-anchor="middle">64</text><line class="grid" x1="1505.0" y1="407.5" x2="1505.0" y2="412.5"/><text class="small" x="1505.0" y="427.5" text-anchor="middle">96</text><polyline fill="none" stroke="#1f77b4" stroke-width="2.5" points="890.0,369.6 896.5,333.4 909.4,279.0 935.3,216.2 961.2,183.9 987.1,186.0 1038.9,189.8 1090.7,193.4 1194.3,195.1 1297.8,196.0 1505.0,196.0"/><circle cx="890.0" cy="369.6" r="2.8" fill="#1f77b4"/><circle cx="896.5" cy="333.4" r="2.8" fill="#1f77b4"/><circle cx="909.4" cy="279.0" r="2.8" fill="#1f77b4"/><circle cx="935.3" cy="216.2" r="2.8" fill="#1f77b4"/><circle cx="961.2" cy="183.9" r="2.8" fill="#1f77b4"/><circle cx="987.1" cy="186.0" r="2.8" fill="#1f77b4"/><circle cx="1038.9" cy="189.8" r="2.8" fill="#1f77b4"/><circle cx="1090.7" cy="193.4" r="2.8" fill="#1f77b4"/><circle cx="1194.3" cy="195.1" r="2.8" fill="#1f77b4"/><circle cx="1297.8" cy="196.0" r="2.8" fill="#1f77b4"/><circle cx="1505.0" cy="196.0" r="2.8" fill="#1f77b4"/><polyline fill="none" stroke="#d62728" stroke-width="2.5" points="890.0,369.5 896.5,331.6 909.4,281.6 935.3,216.0 961.2,184.7 987.1,187.3 1038.9,191.6 1090.7,193.2 1194.3,195.0 1297.8,196.4 1505.0,196.2"/><circle cx="890.0" cy="369.5" r="2.8" fill="#d62728"/><circle cx="896.5" cy="331.6" r="2.8" fill="#d62728"/><circle cx="909.4" cy="281.6" r="2.8" fill="#d62728"/><circle cx="935.3" cy="216.0" r="2.8" fill="#d62728"/><circle cx="961.2" cy="184.7" r="2.8" fill="#d62728"/><circle cx="987.1" cy="187.3" r="2.8" fill="#d62728"/><circle cx="1038.9" cy="191.6" r="2.8" fill="#d62728"/><circle cx="1090.7" cy="193.2" r="2.8" fill="#d62728"/><circle cx="1194.3" cy="195.0" r="2.8" fill="#d62728"/><circle cx="1297.8" cy="196.4" r="2.8" fill="#d62728"/><circle cx="1505.0" cy="196.2" r="2.8" fill="#d62728"/><polyline fill="none" stroke="#2ca02c" stroke-width="2.5" points="890.0,370.0 896.5,332.8 909.4,278.4 935.3,214.5 961.2,185.1 987.1,187.9 1038.9,190.4 1090.7,193.7 1194.3,195.0 1297.8,196.4 1505.0,196.0"/><circle cx="890.0" cy="370.0" r="2.8" fill="#2ca02c"/><circle cx="896.5" cy="332.8" r="2.8" fill="#2ca02c"/><circle cx="909.4" cy="278.4" r="2.8" fill="#2ca02c"/><circle cx="935.3" cy="214.5" r="2.8" fill="#2ca02c"/><circle cx="961.2" cy="185.1" r="2.8" fill="#2ca02c"/><circle cx="987.1" cy="187.9" r="2.8" fill="#2ca02c"/><circle cx="1038.9" cy="190.4" r="2.8" fill="#2ca02c"/><circle cx="1090.7" cy="193.7" r="2.8" fill="#2ca02c"/><circle cx="1194.3" cy="195.0" r="2.8" fill="#2ca02c"/><circle cx="1297.8" cy="196.4" r="2.8" fill="#2ca02c"/><circle cx="1505.0" cy="196.0" r="2.8" fill="#2ca02c"/><text class="small" x="845.0" y="276.25" transform="rotate(-90 845.0,276.25)" text-anchor="middle">bench traffic GB/s</text><text x="432.5" y="522.5" text-anchor="middle" font-size="18">remote 0-&gt;1</text><line class="grid" x1="145.0" y1="547.5" x2="760.0" y2="547.5"/><text class="small" x="137.0" y="551.5" text-anchor="end">150</text><line class="grid" x1="145.0" y1="602.0" x2="760.0" y2="602.0"/><text class="small" x="137.0" y="606.0" text-anchor="end">120</text><line class="grid" x1="145.0" y1="656.5" x2="760.0" y2="656.5"/><text class="small" x="137.0" y="660.5" text-anchor="end">90</text><line class="grid" x1="145.0" y1="711.0" x2="760.0" y2="711.0"/><text class="small" x="137.0" y="715.0" text-anchor="end">60</text><line class="grid" x1="145.0" y1="765.5" x2="760.0" y2="765.5"/><text class="small" x="137.0" y="769.5" text-anchor="end">30</text><line class="grid" x1="145.0" y1="820.0" x2="760.0" y2="820.0"/><text class="small" x="137.0" y="824.0" text-anchor="end">0</text><line class="axis" x1="145.0" y1="820.0" x2="760.0" y2="820.0"/><line class="axis" x1="145.0" y1="547.5" x2="145.0" y2="820.0"/><line class="grid" x1="145.0" y1="820.0" x2="145.0" y2="825.0"/><text class="small" x="145.0" y="840.0" text-anchor="middle">1</text><line class="grid" x1="151.47368421052633" y1="820.0" x2="151.47368421052633" y2="825.0"/><text class="small" x="151.47368421052633" y="840.0" text-anchor="middle">2</text><line class="grid" x1="164.42105263157896" y1="820.0" x2="164.42105263157896" y2="825.0"/><text class="small" x="164.42105263157896" y="840.0" text-anchor="middle">4</text><line class="grid" x1="190.31578947368422" y1="820.0" x2="190.31578947368422" y2="825.0"/><text class="small" x="190.31578947368422" y="840.0" text-anchor="middle">8</text><line class="grid" x1="216.21052631578948" y1="820.0" x2="216.21052631578948" y2="825.0"/><text class="small" x="216.21052631578948" y="840.0" text-anchor="middle">12</text><line class="grid" x1="242.10526315789474" y1="820.0" x2="242.10526315789474" y2="825.0"/><text class="small" x="242.10526315789474" y="840.0" text-anchor="middle">16</text><line class="grid" x1="293.89473684210526" y1="820.0" x2="293.89473684210526" y2="825.0"/><text class="small" x="293.89473684210526" y="840.0" text-anchor="middle">24</text><line class="grid" x1="345.6842105263158" y1="820.0" x2="345.6842105263158" y2="825.0"/><text class="small" x="345.6842105263158" y="840.0" text-anchor="middle">32</text><line class="grid" x1="449.2631578947368" y1="820.0" x2="449.2631578947368" y2="825.0"/><text class="small" x="449.2631578947368" y="840.0" text-anchor="middle">48</text><line class="grid" x1="552.8421052631579" y1="820.0" x2="552.8421052631579" y2="825.0"/><text class="small" x="552.8421052631579" y="840.0" text-anchor="middle">64</text><line class="grid" x1="760.0" y1="820.0" x2="760.0" y2="825.0"/><text class="small" x="760.0" y="840.0" text-anchor="middle">96</text><polyline fill="none" stroke="#1f77b4" stroke-width="2.5" points="145.0,780.4 151.5,742.3 164.4,680.4 190.3,611.3 216.2,603.8 242.1,609.4 293.9,618.5 345.7,621.3 449.3,621.4 552.8,621.0 760.0,620.1"/><circle cx="145.0" cy="780.4" r="2.8" fill="#1f77b4"/><circle cx="151.5" cy="742.3" r="2.8" fill="#1f77b4"/><circle cx="164.4" cy="680.4" r="2.8" fill="#1f77b4"/><circle cx="190.3" cy="611.3" r="2.8" fill="#1f77b4"/><circle cx="216.2" cy="603.8" r="2.8" fill="#1f77b4"/><circle cx="242.1" cy="609.4" r="2.8" fill="#1f77b4"/><circle cx="293.9" cy="618.5" r="2.8" fill="#1f77b4"/><circle cx="345.7" cy="621.3" r="2.8" fill="#1f77b4"/><circle cx="449.3" cy="621.4" r="2.8" fill="#1f77b4"/><circle cx="552.8" cy="621.0" r="2.8" fill="#1f77b4"/><circle cx="760.0" cy="620.1" r="2.8" fill="#1f77b4"/><polyline fill="none" stroke="#d62728" stroke-width="2.5" points="145.0,780.2 151.5,741.0 164.4,677.7 190.3,612.3 216.2,605.8 242.1,609.6 293.9,618.4 345.7,620.4 449.3,621.4 552.8,621.1 760.0,620.6"/><circle cx="145.0" cy="780.2" r="2.8" fill="#d62728"/><circle cx="151.5" cy="741.0" r="2.8" fill="#d62728"/><circle cx="164.4" cy="677.7" r="2.8" fill="#d62728"/><circle cx="190.3" cy="612.3" r="2.8" fill="#d62728"/><circle cx="216.2" cy="605.8" r="2.8" fill="#d62728"/><circle cx="242.1" cy="609.6" r="2.8" fill="#d62728"/><circle cx="293.9" cy="618.4" r="2.8" fill="#d62728"/><circle cx="345.7" cy="620.4" r="2.8" fill="#d62728"/><circle cx="449.3" cy="621.4" r="2.8" fill="#d62728"/><circle cx="552.8" cy="621.1" r="2.8" fill="#d62728"/><circle cx="760.0" cy="620.6" r="2.8" fill="#d62728"/><polyline fill="none" stroke="#2ca02c" stroke-width="2.5" points="145.0,780.0 151.5,741.1 164.4,677.9 190.3,611.3 216.2,603.8 242.1,609.4 293.9,618.6 345.7,621.1 449.3,621.6 552.8,620.7 760.0,619.6"/><circle cx="145.0" cy="780.0" r="2.8" fill="#2ca02c"/><circle cx="151.5" cy="741.1" r="2.8" fill="#2ca02c"/><circle cx="164.4" cy="677.9" r="2.8" fill="#2ca02c"/><circle cx="190.3" cy="611.3" r="2.8" fill="#2ca02c"/><circle cx="216.2" cy="603.8" r="2.8" fill="#2ca02c"/><circle cx="242.1" cy="609.4" r="2.8" fill="#2ca02c"/><circle cx="293.9" cy="618.6" r="2.8" fill="#2ca02c"/><circle cx="345.7" cy="621.1" r="2.8" fill="#2ca02c"/><circle cx="449.3" cy="621.6" r="2.8" fill="#2ca02c"/><circle cx="552.8" cy="620.7" r="2.8" fill="#2ca02c"/><circle cx="760.0" cy="619.6" r="2.8" fill="#2ca02c"/><text class="small" x="100.0" y="688.75" transform="rotate(-90 100.0,688.75)" text-anchor="middle">bench traffic GB/s</text><text x="1177.5" y="522.5" text-anchor="middle" font-size="18">remote 1-&gt;0</text><line class="grid" x1="890.0" y1="547.5" x2="1505.0" y2="547.5"/><text class="small" x="882.0" y="551.5" text-anchor="end">150</text><line class="grid" x1="890.0" y1="602.0" x2="1505.0" y2="602.0"/><text class="small" x="882.0" y="606.0" text-anchor="end">120</text><line class="grid" x1="890.0" y1="656.5" x2="1505.0" y2="656.5"/><text class="small" x="882.0" y="660.5" text-anchor="end">90</text><line class="grid" x1="890.0" y1="711.0" x2="1505.0" y2="711.0"/><text class="small" x="882.0" y="715.0" text-anchor="end">60</text><line class="grid" x1="890.0" y1="765.5" x2="1505.0" y2="765.5"/><text class="small" x="882.0" y="769.5" text-anchor="end">30</text><line class="grid" x1="890.0" y1="820.0" x2="1505.0" y2="820.0"/><text class="small" x="882.0" y="824.0" text-anchor="end">0</text><line class="axis" x1="890.0" y1="820.0" x2="1505.0" y2="820.0"/><line class="axis" x1="890.0" y1="547.5" x2="890.0" y2="820.0"/><line class="grid" x1="890.0" y1="820.0" x2="890.0" y2="825.0"/><text class="small" x="890.0" y="840.0" text-anchor="middle">1</text><line class="grid" x1="896.4736842105264" y1="820.0" x2="896.4736842105264" y2="825.0"/><text class="small" x="896.4736842105264" y="840.0" text-anchor="middle">2</text><line class="grid" x1="909.421052631579" y1="820.0" x2="909.421052631579" y2="825.0"/><text class="small" x="909.421052631579" y="840.0" text-anchor="middle">4</text><line class="grid" x1="935.3157894736842" y1="820.0" x2="935.3157894736842" y2="825.0"/><text class="small" x="935.3157894736842" y="840.0" text-anchor="middle">8</text><line class="grid" x1="961.2105263157895" y1="820.0" x2="961.2105263157895" y2="825.0"/><text class="small" x="961.2105263157895" y="840.0" text-anchor="middle">12</text><line class="grid" x1="987.1052631578948" y1="820.0" x2="987.1052631578948" y2="825.0"/><text class="small" x="987.1052631578948" y="840.0" text-anchor="middle">16</text><line class="grid" x1="1038.8947368421052" y1="820.0" x2="1038.8947368421052" y2="825.0"/><text class="small" x="1038.8947368421052" y="840.0" text-anchor="middle">24</text><line class="grid" x1="1090.6842105263158" y1="820.0" x2="1090.6842105263158" y2="825.0"/><text class="small" x="1090.6842105263158" y="840.0" text-anchor="middle">32</text><line class="grid" x1="1194.2631578947369" y1="820.0" x2="1194.2631578947369" y2="825.0"/><text class="small" x="1194.2631578947369" y="840.0" text-anchor="middle">48</text><line class="grid" x1="1297.842105263158" y1="820.0" x2="1297.842105263158" y2="825.0"/><text class="small" x="1297.842105263158" y="840.0" text-anchor="middle">64</text><line class="grid" x1="1505.0" y1="820.0" x2="1505.0" y2="825.0"/><text class="small" x="1505.0" y="840.0" text-anchor="middle">96</text><polyline fill="none" stroke="#1f77b4" stroke-width="2.5" points="890.0,779.4 896.5,740.0 909.4,675.9 935.3,612.8 961.2,606.5 987.1,611.8 1038.9,619.6 1090.7,621.6 1194.3,622.6 1297.8,621.9 1505.0,620.8"/><circle cx="890.0" cy="779.4" r="2.8" fill="#1f77b4"/><circle cx="896.5" cy="740.0" r="2.8" fill="#1f77b4"/><circle cx="909.4" cy="675.9" r="2.8" fill="#1f77b4"/><circle cx="935.3" cy="612.8" r="2.8" fill="#1f77b4"/><circle cx="961.2" cy="606.5" r="2.8" fill="#1f77b4"/><circle cx="987.1" cy="611.8" r="2.8" fill="#1f77b4"/><circle cx="1038.9" cy="619.6" r="2.8" fill="#1f77b4"/><circle cx="1090.7" cy="621.6" r="2.8" fill="#1f77b4"/><circle cx="1194.3" cy="622.6" r="2.8" fill="#1f77b4"/><circle cx="1297.8" cy="621.9" r="2.8" fill="#1f77b4"/><circle cx="1505.0" cy="620.8" r="2.8" fill="#1f77b4"/><polyline fill="none" stroke="#d62728" stroke-width="2.5" points="890.0,779.9 896.5,741.8 909.4,676.8 935.3,613.1 961.2,606.0 987.1,612.6 1038.9,619.4 1090.7,621.7 1194.3,622.5 1297.8,622.1 1505.0,622.0"/><circle cx="890.0" cy="779.9" r="2.8" fill="#d62728"/><circle cx="896.5" cy="741.8" r="2.8" fill="#d62728"/><circle cx="909.4" cy="676.8" r="2.8" fill="#d62728"/><circle cx="935.3" cy="613.1" r="2.8" fill="#d62728"/><circle cx="961.2" cy="606.0" r="2.8" fill="#d62728"/><circle cx="987.1" cy="612.6" r="2.8" fill="#d62728"/><circle cx="1038.9" cy="619.4" r="2.8" fill="#d62728"/><circle cx="1090.7" cy="621.7" r="2.8" fill="#d62728"/><circle cx="1194.3" cy="622.5" r="2.8" fill="#d62728"/><circle cx="1297.8" cy="622.1" r="2.8" fill="#d62728"/><circle cx="1505.0" cy="622.0" r="2.8" fill="#d62728"/><polyline fill="none" stroke="#2ca02c" stroke-width="2.5" points="890.0,779.2 896.5,742.1 909.4,677.1 935.3,612.2 961.2,606.6 987.1,611.8 1038.9,620.1 1090.7,622.3 1194.3,622.7 1297.8,621.5 1505.0,620.5"/><circle cx="890.0" cy="779.2" r="2.8" fill="#2ca02c"/><circle cx="896.5" cy="742.1" r="2.8" fill="#2ca02c"/><circle cx="909.4" cy="677.1" r="2.8" fill="#2ca02c"/><circle cx="935.3" cy="612.2" r="2.8" fill="#2ca02c"/><circle cx="961.2" cy="606.6" r="2.8" fill="#2ca02c"/><circle cx="987.1" cy="611.8" r="2.8" fill="#2ca02c"/><circle cx="1038.9" cy="620.1" r="2.8" fill="#2ca02c"/><circle cx="1090.7" cy="622.3" r="2.8" fill="#2ca02c"/><circle cx="1194.3" cy="622.7" r="2.8" fill="#2ca02c"/><circle cx="1297.8" cy="621.5" r="2.8" fill="#2ca02c"/><circle cx="1505.0" cy="620.5" r="2.8" fill="#2ca02c"/><text class="small" x="845.0" y="688.75" transform="rotate(-90 845.0,688.75)" text-anchor="middle">bench traffic GB/s</text><text x="432.5" y="935.0" text-anchor="middle" font-size="18">dual local</text><line class="grid" x1="145.0" y1="960.0" x2="760.0" y2="960.0"/><text class="small" x="137.0" y="964.0" text-anchor="end">550</text><line class="grid" x1="145.0" y1="1014.5" x2="760.0" y2="1014.5"/><text class="small" x="137.0" y="1018.5" text-anchor="end">440</text><line class="grid" x1="145.0" y1="1069.0" x2="760.0" y2="1069.0"/><text class="small" x="137.0" y="1073.0" text-anchor="end">330</text><line class="grid" x1="145.0" y1="1123.5" x2="760.0" y2="1123.5"/><text class="small" x="137.0" y="1127.5" text-anchor="end">220</text><line class="grid" x1="145.0" y1="1178.0" x2="760.0" y2="1178.0"/><text class="small" x="137.0" y="1182.0" text-anchor="end">110</text><line class="grid" x1="145.0" y1="1232.5" x2="760.0" y2="1232.5"/><text class="small" x="137.0" y="1236.5" text-anchor="end">0</text><line class="axis" x1="145.0" y1="1232.5" x2="760.0" y2="1232.5"/><line class="axis" x1="145.0" y1="960.0" x2="145.0" y2="1232.5"/><line class="grid" x1="145.0" y1="1232.5" x2="145.0" y2="1237.5"/><text class="small" x="145.0" y="1252.5" text-anchor="middle">1</text><line class="grid" x1="151.47368421052633" y1="1232.5" x2="151.47368421052633" y2="1237.5"/><text class="small" x="151.47368421052633" y="1252.5" text-anchor="middle">2</text><line class="grid" x1="164.42105263157896" y1="1232.5" x2="164.42105263157896" y2="1237.5"/><text class="small" x="164.42105263157896" y="1252.5" text-anchor="middle">4</text><line class="grid" x1="190.31578947368422" y1="1232.5" x2="190.31578947368422" y2="1237.5"/><text class="small" x="190.31578947368422" y="1252.5" text-anchor="middle">8</text><line class="grid" x1="216.21052631578948" y1="1232.5" x2="216.21052631578948" y2="1237.5"/><text class="small" x="216.21052631578948" y="1252.5" text-anchor="middle">12</text><line class="grid" x1="242.10526315789474" y1="1232.5" x2="242.10526315789474" y2="1237.5"/><text class="small" x="242.10526315789474" y="1252.5" text-anchor="middle">16</text><line class="grid" x1="293.89473684210526" y1="1232.5" x2="293.89473684210526" y2="1237.5"/><text class="small" x="293.89473684210526" y="1252.5" text-anchor="middle">24</text><line class="grid" x1="345.6842105263158" y1="1232.5" x2="345.6842105263158" y2="1237.5"/><text class="small" x="345.6842105263158" y="1252.5" text-anchor="middle">32</text><line class="grid" x1="449.2631578947368" y1="1232.5" x2="449.2631578947368" y2="1237.5"/><text class="small" x="449.2631578947368" y="1252.5" text-anchor="middle">48</text><line class="grid" x1="552.8421052631579" y1="1232.5" x2="552.8421052631579" y2="1237.5"/><text class="small" x="552.8421052631579" y="1252.5" text-anchor="middle">64</text><line class="grid" x1="760.0" y1="1232.5" x2="760.0" y2="1237.5"/><text class="small" x="760.0" y="1252.5" text-anchor="middle">96</text><polyline fill="none" stroke="#1f77b4" stroke-width="2.5" points="145.0,1194.6 151.5,1159.0 164.4,1108.1 190.3,1045.7 216.2,1010.5 242.1,1011.3 293.9,1015.6 345.7,1018.2 449.3,1019.9 552.8,1020.8 760.0,1022.7"/><circle cx="145.0" cy="1194.6" r="2.8" fill="#1f77b4"/><circle cx="151.5" cy="1159.0" r="2.8" fill="#1f77b4"/><circle cx="164.4" cy="1108.1" r="2.8" fill="#1f77b4"/><circle cx="190.3" cy="1045.7" r="2.8" fill="#1f77b4"/><circle cx="216.2" cy="1010.5" r="2.8" fill="#1f77b4"/><circle cx="242.1" cy="1011.3" r="2.8" fill="#1f77b4"/><circle cx="293.9" cy="1015.6" r="2.8" fill="#1f77b4"/><circle cx="345.7" cy="1018.2" r="2.8" fill="#1f77b4"/><circle cx="449.3" cy="1019.9" r="2.8" fill="#1f77b4"/><circle cx="552.8" cy="1020.8" r="2.8" fill="#1f77b4"/><circle cx="760.0" cy="1022.7" r="2.8" fill="#1f77b4"/><polyline fill="none" stroke="#d62728" stroke-width="2.5" points="145.0,1194.9 151.5,1157.8 164.4,1105.6 190.3,1040.3 216.2,1011.4 242.1,1012.0 293.9,1015.7 345.7,1018.4 449.3,1019.9 552.8,1020.9 760.0,1022.6"/><circle cx="145.0" cy="1194.9" r="2.8" fill="#d62728"/><circle cx="151.5" cy="1157.8" r="2.8" fill="#d62728"/><circle cx="164.4" cy="1105.6" r="2.8" fill="#d62728"/><circle cx="190.3" cy="1040.3" r="2.8" fill="#d62728"/><circle cx="216.2" cy="1011.4" r="2.8" fill="#d62728"/><circle cx="242.1" cy="1012.0" r="2.8" fill="#d62728"/><circle cx="293.9" cy="1015.7" r="2.8" fill="#d62728"/><circle cx="345.7" cy="1018.4" r="2.8" fill="#d62728"/><circle cx="449.3" cy="1019.9" r="2.8" fill="#d62728"/><circle cx="552.8" cy="1020.9" r="2.8" fill="#d62728"/><circle cx="760.0" cy="1022.6" r="2.8" fill="#d62728"/><polyline fill="none" stroke="#2ca02c" stroke-width="2.5" points="145.0,1194.6 151.5,1157.8 164.4,1109.7 190.3,1044.0 216.2,1010.5 242.1,1010.8 293.9,1015.5 345.7,1018.9 449.3,1020.0 552.8,1021.0 760.0,1022.6"/><circle cx="145.0" cy="1194.6" r="2.8" fill="#2ca02c"/><circle cx="151.5" cy="1157.8" r="2.8" fill="#2ca02c"/><circle cx="164.4" cy="1109.7" r="2.8" fill="#2ca02c"/><circle cx="190.3" cy="1044.0" r="2.8" fill="#2ca02c"/><circle cx="216.2" cy="1010.5" r="2.8" fill="#2ca02c"/><circle cx="242.1" cy="1010.8" r="2.8" fill="#2ca02c"/><circle cx="293.9" cy="1015.5" r="2.8" fill="#2ca02c"/><circle cx="345.7" cy="1018.9" r="2.8" fill="#2ca02c"/><circle cx="449.3" cy="1020.0" r="2.8" fill="#2ca02c"/><circle cx="552.8" cy="1021.0" r="2.8" fill="#2ca02c"/><circle cx="760.0" cy="1022.6" r="2.8" fill="#2ca02c"/><text class="small" x="100.0" y="1101.25" transform="rotate(-90 100.0,1101.25)" text-anchor="middle">bench traffic GB/s</text><text x="1177.5" y="935.0" text-anchor="middle" font-size="18">dual cross</text><line class="grid" x1="890.0" y1="960.0" x2="1505.0" y2="960.0"/><text class="small" x="882.0" y="964.0" text-anchor="end">200</text><line class="grid" x1="890.0" y1="1014.5" x2="1505.0" y2="1014.5"/><text class="small" x="882.0" y="1018.5" text-anchor="end">160</text><line class="grid" x1="890.0" y1="1069.0" x2="1505.0" y2="1069.0"/><text class="small" x="882.0" y="1073.0" text-anchor="end">120</text><line class="grid" x1="890.0" y1="1123.5" x2="1505.0" y2="1123.5"/><text class="small" x="882.0" y="1127.5" text-anchor="end">80</text><line class="grid" x1="890.0" y1="1178.0" x2="1505.0" y2="1178.0"/><text class="small" x="882.0" y="1182.0" text-anchor="end">40</text><line class="grid" x1="890.0" y1="1232.5" x2="1505.0" y2="1232.5"/><text class="small" x="882.0" y="1236.5" text-anchor="end">0</text><line class="axis" x1="890.0" y1="1232.5" x2="1505.0" y2="1232.5"/><line class="axis" x1="890.0" y1="960.0" x2="890.0" y2="1232.5"/><line class="grid" x1="890.0" y1="1232.5" x2="890.0" y2="1237.5"/><text class="small" x="890.0" y="1252.5" text-anchor="middle">1</text><line class="grid" x1="896.4736842105264" y1="1232.5" x2="896.4736842105264" y2="1237.5"/><text class="small" x="896.4736842105264" y="1252.5" text-anchor="middle">2</text><line class="grid" x1="909.421052631579" y1="1232.5" x2="909.421052631579" y2="1237.5"/><text class="small" x="909.421052631579" y="1252.5" text-anchor="middle">4</text><line class="grid" x1="935.3157894736842" y1="1232.5" x2="935.3157894736842" y2="1237.5"/><text class="small" x="935.3157894736842" y="1252.5" text-anchor="middle">8</text><line class="grid" x1="961.2105263157895" y1="1232.5" x2="961.2105263157895" y2="1237.5"/><text class="small" x="961.2105263157895" y="1252.5" text-anchor="middle">12</text><line class="grid" x1="987.1052631578948" y1="1232.5" x2="987.1052631578948" y2="1237.5"/><text class="small" x="987.1052631578948" y="1252.5" text-anchor="middle">16</text><line class="grid" x1="1038.8947368421052" y1="1232.5" x2="1038.8947368421052" y2="1237.5"/><text class="small" x="1038.8947368421052" y="1252.5" text-anchor="middle">24</text><line class="grid" x1="1090.6842105263158" y1="1232.5" x2="1090.6842105263158" y2="1237.5"/><text class="small" x="1090.6842105263158" y="1252.5" text-anchor="middle">32</text><line class="grid" x1="1194.2631578947369" y1="1232.5" x2="1194.2631578947369" y2="1237.5"/><text class="small" x="1194.2631578947369" y="1252.5" text-anchor="middle">48</text><line class="grid" x1="1297.842105263158" y1="1232.5" x2="1297.842105263158" y2="1237.5"/><text class="small" x="1297.842105263158" y="1252.5" text-anchor="middle">64</text><line class="grid" x1="1505.0" y1="1232.5" x2="1505.0" y2="1237.5"/><text class="small" x="1505.0" y="1252.5" text-anchor="middle">96</text><polyline fill="none" stroke="#1f77b4" stroke-width="2.5" points="890.0,1172.9 896.5,1118.7 909.4,1045.4 935.3,1031.5 961.2,1030.0 987.1,1033.3 1038.9,1043.2 1090.7,1045.4 1194.3,1045.9 1297.8,1046.1 1505.0,1044.5"/><circle cx="890.0" cy="1172.9" r="2.8" fill="#1f77b4"/><circle cx="896.5" cy="1118.7" r="2.8" fill="#1f77b4"/><circle cx="909.4" cy="1045.4" r="2.8" fill="#1f77b4"/><circle cx="935.3" cy="1031.5" r="2.8" fill="#1f77b4"/><circle cx="961.2" cy="1030.0" r="2.8" fill="#1f77b4"/><circle cx="987.1" cy="1033.3" r="2.8" fill="#1f77b4"/><circle cx="1038.9" cy="1043.2" r="2.8" fill="#1f77b4"/><circle cx="1090.7" cy="1045.4" r="2.8" fill="#1f77b4"/><circle cx="1194.3" cy="1045.9" r="2.8" fill="#1f77b4"/><circle cx="1297.8" cy="1046.1" r="2.8" fill="#1f77b4"/><circle cx="1505.0" cy="1044.5" r="2.8" fill="#1f77b4"/><polyline fill="none" stroke="#d62728" stroke-width="2.5" points="890.0,1173.4 896.5,1117.2 909.4,1045.2 935.3,1033.2 961.2,1030.1 987.1,1033.3 1038.9,1042.9 1090.7,1045.1 1194.3,1047.2 1297.8,1044.9 1505.0,1044.0"/><circle cx="890.0" cy="1173.4" r="2.8" fill="#d62728"/><circle cx="896.5" cy="1117.2" r="2.8" fill="#d62728"/><circle cx="909.4" cy="1045.2" r="2.8" fill="#d62728"/><circle cx="935.3" cy="1033.2" r="2.8" fill="#d62728"/><circle cx="961.2" cy="1030.1" r="2.8" fill="#d62728"/><circle cx="987.1" cy="1033.3" r="2.8" fill="#d62728"/><circle cx="1038.9" cy="1042.9" r="2.8" fill="#d62728"/><circle cx="1090.7" cy="1045.1" r="2.8" fill="#d62728"/><circle cx="1194.3" cy="1047.2" r="2.8" fill="#d62728"/><circle cx="1297.8" cy="1044.9" r="2.8" fill="#d62728"/><circle cx="1505.0" cy="1044.0" r="2.8" fill="#d62728"/><polyline fill="none" stroke="#2ca02c" stroke-width="2.5" points="890.0,1173.3 896.5,1117.5 909.4,1045.4 935.3,1031.2 961.2,1029.1 987.1,1033.3 1038.9,1042.4 1090.7,1044.8 1194.3,1047.1 1297.8,1046.1 1505.0,1044.4"/><circle cx="890.0" cy="1173.3" r="2.8" fill="#2ca02c"/><circle cx="896.5" cy="1117.5" r="2.8" fill="#2ca02c"/><circle cx="909.4" cy="1045.4" r="2.8" fill="#2ca02c"/><circle cx="935.3" cy="1031.2" r="2.8" fill="#2ca02c"/><circle cx="961.2" cy="1029.1" r="2.8" fill="#2ca02c"/><circle cx="987.1" cy="1033.3" r="2.8" fill="#2ca02c"/><circle cx="1038.9" cy="1042.4" r="2.8" fill="#2ca02c"/><circle cx="1090.7" cy="1044.8" r="2.8" fill="#2ca02c"/><circle cx="1194.3" cy="1047.1" r="2.8" fill="#2ca02c"/><circle cx="1297.8" cy="1046.1" r="2.8" fill="#2ca02c"/><circle cx="1505.0" cy="1044.4" r="2.8" fill="#2ca02c"/><text class="small" x="845.0" y="1101.25" transform="rotate(-90 845.0,1101.25)" text-anchor="middle">bench traffic GB/s</text><text x="432.5" y="1347.5" text-anchor="middle" font-size="18">mixed target0</text><line class="grid" x1="145.0" y1="1372.5" x2="760.0" y2="1372.5"/><text class="small" x="137.0" y="1376.5" text-anchor="end">350</text><line class="grid" x1="145.0" y1="1427.0" x2="760.0" y2="1427.0"/><text class="small" x="137.0" y="1431.0" text-anchor="end">280</text><line class="grid" x1="145.0" y1="1481.5" x2="760.0" y2="1481.5"/><text class="small" x="137.0" y="1485.5" text-anchor="end">210</text><line class="grid" x1="145.0" y1="1536.0" x2="760.0" y2="1536.0"/><text class="small" x="137.0" y="1540.0" text-anchor="end">140</text><line class="grid" x1="145.0" y1="1590.5" x2="760.0" y2="1590.5"/><text class="small" x="137.0" y="1594.5" text-anchor="end">70</text><line class="grid" x1="145.0" y1="1645.0" x2="760.0" y2="1645.0"/><text class="small" x="137.0" y="1649.0" text-anchor="end">0</text><line class="axis" x1="145.0" y1="1645.0" x2="760.0" y2="1645.0"/><line class="axis" x1="145.0" y1="1372.5" x2="145.0" y2="1645.0"/><line class="grid" x1="145.0" y1="1645.0" x2="145.0" y2="1650.0"/><text class="small" x="145.0" y="1665.0" text-anchor="middle">1</text><line class="grid" x1="151.47368421052633" y1="1645.0" x2="151.47368421052633" y2="1650.0"/><text class="small" x="151.47368421052633" y="1665.0" text-anchor="middle">2</text><line class="grid" x1="164.42105263157896" y1="1645.0" x2="164.42105263157896" y2="1650.0"/><text class="small" x="164.42105263157896" y="1665.0" text-anchor="middle">4</text><line class="grid" x1="190.31578947368422" y1="1645.0" x2="190.31578947368422" y2="1650.0"/><text class="small" x="190.31578947368422" y="1665.0" text-anchor="middle">8</text><line class="grid" x1="216.21052631578948" y1="1645.0" x2="216.21052631578948" y2="1650.0"/><text class="small" x="216.21052631578948" y="1665.0" text-anchor="middle">12</text><line class="grid" x1="242.10526315789474" y1="1645.0" x2="242.10526315789474" y2="1650.0"/><text class="small" x="242.10526315789474" y="1665.0" text-anchor="middle">16</text><line class="grid" x1="293.89473684210526" y1="1645.0" x2="293.89473684210526" y2="1650.0"/><text class="small" x="293.89473684210526" y="1665.0" text-anchor="middle">24</text><line class="grid" x1="345.6842105263158" y1="1645.0" x2="345.6842105263158" y2="1650.0"/><text class="small" x="345.6842105263158" y="1665.0" text-anchor="middle">32</text><line class="grid" x1="449.2631578947368" y1="1645.0" x2="449.2631578947368" y2="1650.0"/><text class="small" x="449.2631578947368" y="1665.0" text-anchor="middle">48</text><line class="grid" x1="552.8421052631579" y1="1645.0" x2="552.8421052631579" y2="1650.0"/><text class="small" x="552.8421052631579" y="1665.0" text-anchor="middle">64</text><line class="grid" x1="760.0" y1="1645.0" x2="760.0" y2="1650.0"/><text class="small" x="760.0" y="1665.0" text-anchor="middle">96</text><polyline fill="none" stroke="#1f77b4" stroke-width="2.5" points="145.0,1598.5 151.5,1560.2 164.4,1508.4 190.3,1465.8 216.2,1460.8 242.1,1466.3 293.9,1475.1 345.7,1477.3 449.3,1477.7 552.8,1476.1 760.0,1475.2"/><circle cx="145.0" cy="1598.5" r="2.8" fill="#1f77b4"/><circle cx="151.5" cy="1560.2" r="2.8" fill="#1f77b4"/><circle cx="164.4" cy="1508.4" r="2.8" fill="#1f77b4"/><circle cx="190.3" cy="1465.8" r="2.8" fill="#1f77b4"/><circle cx="216.2" cy="1460.8" r="2.8" fill="#1f77b4"/><circle cx="242.1" cy="1466.3" r="2.8" fill="#1f77b4"/><circle cx="293.9" cy="1475.1" r="2.8" fill="#1f77b4"/><circle cx="345.7" cy="1477.3" r="2.8" fill="#1f77b4"/><circle cx="449.3" cy="1477.7" r="2.8" fill="#1f77b4"/><circle cx="552.8" cy="1476.1" r="2.8" fill="#1f77b4"/><circle cx="760.0" cy="1475.2" r="2.8" fill="#1f77b4"/><polyline fill="none" stroke="#d62728" stroke-width="2.5" points="145.0,1598.5 151.5,1559.5 164.4,1509.4 190.3,1464.8 216.2,1459.3 242.1,1466.5 293.9,1474.6 345.7,1477.4 449.3,1477.3 552.8,1476.9 760.0,1475.8"/><circle cx="145.0" cy="1598.5" r="2.8" fill="#d62728"/><circle cx="151.5" cy="1559.5" r="2.8" fill="#d62728"/><circle cx="164.4" cy="1509.4" r="2.8" fill="#d62728"/><circle cx="190.3" cy="1464.8" r="2.8" fill="#d62728"/><circle cx="216.2" cy="1459.3" r="2.8" fill="#d62728"/><circle cx="242.1" cy="1466.5" r="2.8" fill="#d62728"/><circle cx="293.9" cy="1474.6" r="2.8" fill="#d62728"/><circle cx="345.7" cy="1477.4" r="2.8" fill="#d62728"/><circle cx="449.3" cy="1477.3" r="2.8" fill="#d62728"/><circle cx="552.8" cy="1476.9" r="2.8" fill="#d62728"/><circle cx="760.0" cy="1475.8" r="2.8" fill="#d62728"/><polyline fill="none" stroke="#2ca02c" stroke-width="2.5" points="145.0,1598.2 151.5,1557.3 164.4,1508.1 190.3,1463.1 216.2,1461.6 242.1,1466.5 293.9,1474.7 345.7,1477.1 449.3,1477.1 552.8,1476.1 760.0,1475.9"/><circle cx="145.0" cy="1598.2" r="2.8" fill="#2ca02c"/><circle cx="151.5" cy="1557.3" r="2.8" fill="#2ca02c"/><circle cx="164.4" cy="1508.1" r="2.8" fill="#2ca02c"/><circle cx="190.3" cy="1463.1" r="2.8" fill="#2ca02c"/><circle cx="216.2" cy="1461.6" r="2.8" fill="#2ca02c"/><circle cx="242.1" cy="1466.5" r="2.8" fill="#2ca02c"/><circle cx="293.9" cy="1474.7" r="2.8" fill="#2ca02c"/><circle cx="345.7" cy="1477.1" r="2.8" fill="#2ca02c"/><circle cx="449.3" cy="1477.1" r="2.8" fill="#2ca02c"/><circle cx="552.8" cy="1476.1" r="2.8" fill="#2ca02c"/><circle cx="760.0" cy="1475.9" r="2.8" fill="#2ca02c"/><text class="small" x="100.0" y="1513.75" transform="rotate(-90 100.0,1513.75)" text-anchor="middle">bench traffic GB/s</text><text x="1177.5" y="1347.5" text-anchor="middle" font-size="18">mixed target1</text><line class="grid" x1="890.0" y1="1372.5" x2="1505.0" y2="1372.5"/><text class="small" x="882.0" y="1376.5" text-anchor="end">275</text><line class="grid" x1="890.0" y1="1427.0" x2="1505.0" y2="1427.0"/><text class="small" x="882.0" y="1431.0" text-anchor="end">220</text><line class="grid" x1="890.0" y1="1481.5" x2="1505.0" y2="1481.5"/><text class="small" x="882.0" y="1485.5" text-anchor="end">165</text><line class="grid" x1="890.0" y1="1536.0" x2="1505.0" y2="1536.0"/><text class="small" x="882.0" y="1540.0" text-anchor="end">110</text><line class="grid" x1="890.0" y1="1590.5" x2="1505.0" y2="1590.5"/><text class="small" x="882.0" y="1594.5" text-anchor="end">55</text><line class="grid" x1="890.0" y1="1645.0" x2="1505.0" y2="1645.0"/><text class="small" x="882.0" y="1649.0" text-anchor="end">0</text><line class="axis" x1="890.0" y1="1645.0" x2="1505.0" y2="1645.0"/><line class="axis" x1="890.0" y1="1372.5" x2="890.0" y2="1645.0"/><line class="grid" x1="890.0" y1="1645.0" x2="890.0" y2="1650.0"/><text class="small" x="890.0" y="1665.0" text-anchor="middle">1</text><line class="grid" x1="896.4736842105264" y1="1645.0" x2="896.4736842105264" y2="1650.0"/><text class="small" x="896.4736842105264" y="1665.0" text-anchor="middle">2</text><line class="grid" x1="909.421052631579" y1="1645.0" x2="909.421052631579" y2="1650.0"/><text class="small" x="909.421052631579" y="1665.0" text-anchor="middle">4</text><line class="grid" x1="935.3157894736842" y1="1645.0" x2="935.3157894736842" y2="1650.0"/><text class="small" x="935.3157894736842" y="1665.0" text-anchor="middle">8</text><line class="grid" x1="961.2105263157895" y1="1645.0" x2="961.2105263157895" y2="1650.0"/><text class="small" x="961.2105263157895" y="1665.0" text-anchor="middle">12</text><line class="grid" x1="987.1052631578948" y1="1645.0" x2="987.1052631578948" y2="1650.0"/><text class="small" x="987.1052631578948" y="1665.0" text-anchor="middle">16</text><line class="grid" x1="1038.8947368421052" y1="1645.0" x2="1038.8947368421052" y2="1650.0"/><text class="small" x="1038.8947368421052" y="1665.0" text-anchor="middle">24</text><line class="grid" x1="1090.6842105263158" y1="1645.0" x2="1090.6842105263158" y2="1650.0"/><text class="small" x="1090.6842105263158" y="1665.0" text-anchor="middle">32</text><line class="grid" x1="1194.2631578947369" y1="1645.0" x2="1194.2631578947369" y2="1650.0"/><text class="small" x="1194.2631578947369" y="1665.0" text-anchor="middle">48</text><line class="grid" x1="1297.842105263158" y1="1645.0" x2="1297.842105263158" y2="1650.0"/><text class="small" x="1297.842105263158" y="1665.0" text-anchor="middle">64</text><line class="grid" x1="1505.0" y1="1645.0" x2="1505.0" y2="1650.0"/><text class="small" x="1505.0" y="1665.0" text-anchor="middle">96</text><polyline fill="none" stroke="#1f77b4" stroke-width="2.5" points="890.0,1586.1 896.5,1536.2 909.4,1473.2 935.3,1418.3 961.2,1411.0 987.1,1418.4 1038.9,1429.2 1090.7,1432.0 1194.3,1433.3 1297.8,1431.6 1505.0,1430.0"/><circle cx="890.0" cy="1586.1" r="2.8" fill="#1f77b4"/><circle cx="896.5" cy="1536.2" r="2.8" fill="#1f77b4"/><circle cx="909.4" cy="1473.2" r="2.8" fill="#1f77b4"/><circle cx="935.3" cy="1418.3" r="2.8" fill="#1f77b4"/><circle cx="961.2" cy="1411.0" r="2.8" fill="#1f77b4"/><circle cx="987.1" cy="1418.4" r="2.8" fill="#1f77b4"/><circle cx="1038.9" cy="1429.2" r="2.8" fill="#1f77b4"/><circle cx="1090.7" cy="1432.0" r="2.8" fill="#1f77b4"/><circle cx="1194.3" cy="1433.3" r="2.8" fill="#1f77b4"/><circle cx="1297.8" cy="1431.6" r="2.8" fill="#1f77b4"/><circle cx="1505.0" cy="1430.0" r="2.8" fill="#1f77b4"/><polyline fill="none" stroke="#d62728" stroke-width="2.5" points="890.0,1586.0 896.5,1533.9 909.4,1473.5 935.3,1419.2 961.2,1413.1 987.1,1418.2 1038.9,1429.4 1090.7,1432.2 1194.3,1432.7 1297.8,1431.1 1505.0,1429.6"/><circle cx="890.0" cy="1586.0" r="2.8" fill="#d62728"/><circle cx="896.5" cy="1533.9" r="2.8" fill="#d62728"/><circle cx="909.4" cy="1473.5" r="2.8" fill="#d62728"/><circle cx="935.3" cy="1419.2" r="2.8" fill="#d62728"/><circle cx="961.2" cy="1413.1" r="2.8" fill="#d62728"/><circle cx="987.1" cy="1418.2" r="2.8" fill="#d62728"/><circle cx="1038.9" cy="1429.4" r="2.8" fill="#d62728"/><circle cx="1090.7" cy="1432.2" r="2.8" fill="#d62728"/><circle cx="1194.3" cy="1432.7" r="2.8" fill="#d62728"/><circle cx="1297.8" cy="1431.1" r="2.8" fill="#d62728"/><circle cx="1505.0" cy="1429.6" r="2.8" fill="#d62728"/><polyline fill="none" stroke="#2ca02c" stroke-width="2.5" points="890.0,1586.1 896.5,1534.3 909.4,1471.0 935.3,1415.9 961.2,1410.2 987.1,1418.6 1038.9,1429.3 1090.7,1432.8 1194.3,1432.9 1297.8,1431.1 1505.0,1430.2"/><circle cx="890.0" cy="1586.1" r="2.8" fill="#2ca02c"/><circle cx="896.5" cy="1534.3" r="2.8" fill="#2ca02c"/><circle cx="909.4" cy="1471.0" r="2.8" fill="#2ca02c"/><circle cx="935.3" cy="1415.9" r="2.8" fill="#2ca02c"/><circle cx="961.2" cy="1410.2" r="2.8" fill="#2ca02c"/><circle cx="987.1" cy="1418.6" r="2.8" fill="#2ca02c"/><circle cx="1038.9" cy="1429.3" r="2.8" fill="#2ca02c"/><circle cx="1090.7" cy="1432.8" r="2.8" fill="#2ca02c"/><circle cx="1194.3" cy="1432.9" r="2.8" fill="#2ca02c"/><circle cx="1297.8" cy="1431.1" r="2.8" fill="#2ca02c"/><circle cx="1505.0" cy="1430.2" r="2.8" fill="#2ca02c"/><text class="small" x="845.0" y="1513.75" transform="rotate(-90 845.0,1513.75)" text-anchor="middle">bench traffic GB/s</text></svg>