<svg xmlns="http://www.w3.org/2000/svg" width="1600" height="1800" viewBox="0 0 1600 1800"><style>text{font-family:monospace;fill:#111}.small{font-size:14px}.axis{stroke:#444;stroke-width:1}.grid{stroke:#ddd;stroke-width:1}</style><rect x="0" y="0" width="1600" height="1800" fill="white"/><text x="800.0" y="40" text-anchor="middle" font-size="24">uProf memory bandwidth per thread vs threads (4KiB)</text><text x="800.0" y="70" text-anchor="middle" font-size="16">threads per process on X axis</text><line x1="1320" y1="30" x2="1348" y2="30" stroke="#1f77b4" stroke-width="3"/><text x="1356" y="35" font-size="14">1302</text><line x1="1320" y1="54" x2="1348" y2="54" stroke="#d62728" stroke-width="3"/><text x="1356" y="59" font-size="14">1306</text><line x1="1320" y1="78" x2="1348" y2="78" stroke="#2ca02c" stroke-width="3"/><text x="1356" y="83" font-size="14">1308</text><text x="432.5" y="110.0" text-anchor="middle" font-size="18">local numa0</text><line class="grid" x1="145.0" y1="135.0" x2="760.0" y2="135.0"/><text class="small" x="137.0" y="139.0" text-anchor="end">55</text><line class="grid" x1="145.0" y1="189.5" x2="760.0" y2="189.5"/><text class="small" x="137.0" y="193.5" text-anchor="end">44</text><line class="grid" x1="145.0" y1="244.0" x2="760.0" y2="244.0"/><text class="small" x="137.0" y="248.0" text-anchor="end">33</text><line class="grid" x1="145.0" y1="298.5" x2="760.0" y2="298.5"/><text class="small" x="137.0" y="302.5" text-anchor="end">22</text><line class="grid" x1="145.0" y1="353.0" x2="760.0" y2="353.0"/><text class="small" x="137.0" y="357.0" text-anchor="end">11</text><line class="grid" x1="145.0" y1="407.5" x2="760.0" y2="407.5"/><text class="small" x="137.0" y="411.5" text-anchor="end">0</text><line class="axis" x1="145.0" y1="407.5" x2="760.0" y2="407.5"/><line class="axis" x1="145.0" y1="135.0" x2="145.0" y2="407.5"/><line class="grid" x1="145.0" y1="407.5" x2="145.0" y2="412.5"/><text class="small" x="145.0" y="427.5" text-anchor="middle">1</text><line class="grid" x1="151.47368421052633" y1="407.5" x2="151.47368421052633" y2="412.5"/><text class="small" x="151.47368421052633" y="427.5" text-anchor="middle">2</text><line class="grid" x1="164.42105263157896" y1="407.5" x2="164.42105263157896" y2="412.5"/><text class="small" x="164.42105263157896" y="427.5" text-anchor="middle">4</text><line class="grid" x1="190.31578947368422" y1="407.5" x2="190.31578947368422" y2="412.5"/><text class="small" x="190.31578947368422" y="427.5" text-anchor="middle">8</text><line class="grid" x1="216.21052631578948" y1="407.5" x2="216.21052631578948" y2="412.5"/><text class="small" x="216.21052631578948" y="427.5" text-anchor="middle">12</text><line class="grid" x1="242.10526315789474" y1="407.5" x2="242.10526315789474" y2="412.5"/><text class="small" x="242.10526315789474" y="427.5" text-anchor="middle">16</text><line class="grid" x1="293.89473684210526" y1="407.5" x2="293.89473684210526" y2="412.5"/><text class="small" x="293.89473684210526" y="427.5" text-anchor="middle">24</text><line class="grid" x1="345.6842105263158" y1="407.5" x2="345.6842105263158" y2="412.5"/><text class="small" x="345.6842105263158" y="427.5" text-anchor="middle">32</text><line class="grid" x1="449.2631578947368" y1="407.5" x2="449.2631578947368" y2="412.5"/><text class="small" x="449.2631578947368" y="427.5" text-anchor="middle">48</text><line class="grid" x1="552.8421052631579" y1="407.5" x2="552.8421052631579" y2="412.5"/><text class="small" x="552.8421052631579" y="427.5" text-anchor="middle">64</text><line class="grid" x1="760.0" y1="407.5" x2="760.0" y2="412.5"/><text class="small" x="760.0" y="427.5" text-anchor="middle">96</text><polyline fill="none" stroke="#1f77b4" stroke-width="2.5" points="145.0,187.3 151.5,209.6 164.4,242.7 190.3,319.5 216.2,349.5 242.1,346.3 293.9,348.3 345.7,360.7 449.3,373.9 552.8,381.5 760.0,389.6"/><circle cx="145.0" cy="187.3" r="2.8" fill="#1f77b4"/><circle cx="151.5" cy="209.6" r="2.8" fill="#1f77b4"/><circle cx="164.4" cy="242.7" r="2.8" fill="#1f77b4"/><circle cx="190.3" cy="319.5" r="2.8" fill="#1f77b4"/><circle cx="216.2" cy="349.5" r="2.8" fill="#1f77b4"/><circle cx="242.1" cy="346.3" r="2.8" fill="#1f77b4"/><circle cx="293.9" cy="348.3" r="2.8" fill="#1f77b4"/><circle cx="345.7" cy="360.7" r="2.8" fill="#1f77b4"/><circle cx="449.3" cy="373.9" r="2.8" fill="#1f77b4"/><circle cx="552.8" cy="381.5" r="2.8" fill="#1f77b4"/><circle cx="760.0" cy="389.6" r="2.8" fill="#1f77b4"/><polyline fill="none" stroke="#d62728" stroke-width="2.5" points="145.0,191.7 151.5,208.3 164.4,236.7 190.3,319.9 216.2,346.6 242.1,346.8 293.9,347.6 345.7,360.1 449.3,374.1 552.8,381.4 760.0,389.8"/><circle cx="145.0" cy="191.7" r="2.8" fill="#d62728"/><circle cx="151.5" cy="208.3" r="2.8" fill="#d62728"/><circle cx="164.4" cy="236.7" r="2.8" fill="#d62728"/><circle cx="190.3" cy="319.9" r="2.8" fill="#d62728"/><circle cx="216.2" cy="346.6" r="2.8" fill="#d62728"/><circle cx="242.1" cy="346.8" r="2.8" fill="#d62728"/><circle cx="293.9" cy="347.6" r="2.8" fill="#d62728"/><circle cx="345.7" cy="360.1" r="2.8" fill="#d62728"/><circle cx="449.3" cy="374.1" r="2.8" fill="#d62728"/><circle cx="552.8" cy="381.4" r="2.8" fill="#d62728"/><circle cx="760.0" cy="389.8" r="2.8" fill="#d62728"/><polyline fill="none" stroke="#2ca02c" stroke-width="2.5" points="145.0,186.1 151.5,211.3 164.4,255.3 190.3,325.4 216.2,352.1 242.1,348.4 293.9,348.1 345.7,360.8 449.3,374.3 552.8,381.2 760.0,390.0"/><circle cx="145.0" cy="186.1" r="2.8" fill="#2ca02c"/><circle cx="151.5" cy="211.3" r="2.8" fill="#2ca02c"/><circle cx="164.4" cy="255.3" r="2.8" fill="#2ca02c"/><circle cx="190.3" cy="325.4" r="2.8" fill="#2ca02c"/><circle cx="216.2" cy="352.1" r="2.8" fill="#2ca02c"/><circle cx="242.1" cy="348.4" r="2.8" fill="#2ca02c"/><circle cx="293.9" cy="348.1" r="2.8" fill="#2ca02c"/><circle cx="345.7" cy="360.8" r="2.8" fill="#2ca02c"/><circle cx="449.3" cy="374.3" r="2.8" fill="#2ca02c"/><circle cx="552.8" cy="381.2" r="2.8" fill="#2ca02c"/><circle cx="760.0" cy="390.0" r="2.8" fill="#2ca02c"/><text class="small" x="100.0" y="276.25" transform="rotate(-90 100.0,276.25)" text-anchor="middle">uProf GB/s per thread</text><text x="1177.5" y="110.0" text-anchor="middle" font-size="18">local numa1</text><line class="grid" x1="890.0" y1="135.0" x2="1505.0" y2="135.0"/><text class="small" x="882.0" y="139.0" text-anchor="end">55</text><line class="grid" x1="890.0" y1="189.5" x2="1505.0" y2="189.5"/><text class="small" x="882.0" y="193.5" text-anchor="end">44</text><line class="grid" x1="890.0" y1="244.0" x2="1505.0" y2="244.0"/><text class="small" x="882.0" y="248.0" text-anchor="end">33</text><line class="grid" x1="890.0" y1="298.5" x2="1505.0" y2="298.5"/><text class="small" x="882.0" y="302.5" text-anchor="end">22</text><line class="grid" x1="890.0" y1="353.0" x2="1505.0" y2="353.0"/><text class="small" x="882.0" y="357.0" text-anchor="end">11</text><line class="grid" x1="890.0" y1="407.5" x2="1505.0" y2="407.5"/><text class="small" x="882.0" y="411.5" text-anchor="end">0</text><line class="axis" x1="890.0" y1="407.5" x2="1505.0" y2="407.5"/><line class="axis" x1="890.0" y1="135.0" x2="890.0" y2="407.5"/><line class="grid" x1="890.0" y1="407.5" x2="890.0" y2="412.5"/><text class="small" x="890.0" y="427.5" text-anchor="middle">1</text><line class="grid" x1="896.4736842105264" y1="407.5" x2="896.4736842105264" y2="412.5"/><text class="small" x="896.4736842105264" y="427.5" text-anchor="middle">2</text><line class="grid" x1="909.421052631579" y1="407.5" x2="909.421052631579" y2="412.5"/><text class="small" x="909.421052631579" y="427.5" text-anchor="middle">4</text><line class="grid" x1="935.3157894736842" y1="407.5" x2="935.3157894736842" y2="412.5"/><text class="small" x="935.3157894736842" y="427.5" text-anchor="middle">8</text><line class="grid" x1="961.2105263157895" y1="407.5" x2="961.2105263157895" y2="412.5"/><text class="small" x="961.2105263157895" y="427.5" text-anchor="middle">12</text><line class="grid" x1="987.1052631578948" y1="407.5" x2="987.1052631578948" y2="412.5"/><text class="small" x="987.1052631578948" y="427.5" text-anchor="middle">16</text><line class="grid" x1="1038.8947368421052" y1="407.5" x2="1038.8947368421052" y2="412.5"/><text class="small" x="1038.8947368421052" y="427.5" text-anchor="middle">24</text><line class="grid" x1="1090.6842105263158" y1="407.5" x2="1090.6842105263158" y2="412.5"/><text class="small" x="1090.6842105263158" y="427.5" text-anchor="middle">32</text><line class="grid" x1="1194.2631578947369" y1="407.5" x2="1194.2631578947369" y2="412.5"/><text class="small" x="1194.2631578947369" y="427.5" text-anchor="middle">48</text><line class="grid" x1="1297.842105263158" y1="407.5" x2="1297.842105263158" y2="412.5"/><text class="small" x="1297.842105263158" y="427.5" text-anchor="middle">64</text><line class="grid" x1="1505.0" y1="407.5" x2="1505.0" y2="412.5"/><text class="small" x="1505.0" y="427.5" text-anchor="middle">96</text><polyline fill="none" stroke="#1f77b4" stroke-width="2.5" points="890.0,182.9 896.5,200.2 909.4,249.7 935.3,317.3 961.2,349.3 987.1,346.1 1038.9,347.6 1090.7,360.7 1194.3,374.8 1297.8,381.6 1505.0,389.9"/><circle cx="890.0" cy="182.9" r="2.8" fill="#1f77b4"/><circle cx="896.5" cy="200.2" r="2.8" fill="#1f77b4"/><circle cx="909.4" cy="249.7" r="2.8" fill="#1f77b4"/><circle cx="935.3" cy="317.3" r="2.8" fill="#1f77b4"/><circle cx="961.2" cy="349.3" r="2.8" fill="#1f77b4"/><circle cx="987.1" cy="346.1" r="2.8" fill="#1f77b4"/><circle cx="1038.9" cy="347.6" r="2.8" fill="#1f77b4"/><circle cx="1090.7" cy="360.7" r="2.8" fill="#1f77b4"/><circle cx="1194.3" cy="374.8" r="2.8" fill="#1f77b4"/><circle cx="1297.8" cy="381.6" r="2.8" fill="#1f77b4"/><circle cx="1505.0" cy="389.9" r="2.8" fill="#1f77b4"/><polyline fill="none" stroke="#d62728" stroke-width="2.5" points="890.0,189.8 896.5,207.2 909.4,241.3 935.3,321.8 961.2,347.9 987.1,349.3 1038.9,346.5 1090.7,360.7 1194.3,374.6 1297.8,381.5 1505.0,390.3"/><circle cx="890.0" cy="189.8" r="2.8" fill="#d62728"/><circle cx="896.5" cy="207.2" r="2.8" fill="#d62728"/><circle cx="909.4" cy="241.3" r="2.8" fill="#d62728"/><circle cx="935.3" cy="321.8" r="2.8" fill="#d62728"/><circle cx="961.2" cy="347.9" r="2.8" fill="#d62728"/><circle cx="987.1" cy="349.3" r="2.8" fill="#d62728"/><circle cx="1038.9" cy="346.5" r="2.8" fill="#d62728"/><circle cx="1090.7" cy="360.7" r="2.8" fill="#d62728"/><circle cx="1194.3" cy="374.6" r="2.8" fill="#d62728"/><circle cx="1297.8" cy="381.5" r="2.8" fill="#d62728"/><circle cx="1505.0" cy="390.3" r="2.8" fill="#d62728"/><polyline fill="none" stroke="#2ca02c" stroke-width="2.5" points="890.0,187.1 896.5,203.5 909.4,236.2 935.3,320.0 961.2,347.4 987.1,345.8 1038.9,347.4 1090.7,360.7 1194.3,374.1 1297.8,381.6 1505.0,389.9"/><circle cx="890.0" cy="187.1" r="2.8" fill="#2ca02c"/><circle cx="896.5" cy="203.5" r="2.8" fill="#2ca02c"/><circle cx="909.4" cy="236.2" r="2.8" fill="#2ca02c"/><circle cx="935.3" cy="320.0" r="2.8" fill="#2ca02c"/><circle cx="961.2" cy="347.4" r="2.8" fill="#2ca02c"/><circle cx="987.1" cy="345.8" r="2.8" fill="#2ca02c"/><circle cx="1038.9" cy="347.4" r="2.8" fill="#2ca02c"/><circle cx="1090.7" cy="360.7" r="2.8" fill="#2ca02c"/><circle cx="1194.3" cy="374.1" r="2.8" fill="#2ca02c"/><circle cx="1297.8" cy="381.6" r="2.8" fill="#2ca02c"/><circle cx="1505.0" cy="389.9" r="2.8" fill="#2ca02c"/><text class="small" x="845.0" y="276.25" transform="rotate(-90 845.0,276.25)" text-anchor="middle">uProf GB/s per thread</text><text x="432.5" y="522.5" text-anchor="middle" font-size="18">remote 0-&gt;1</text><line class="grid" x1="145.0" y1="547.5" x2="760.0" y2="547.5"/><text class="small" x="137.0" y="551.5" text-anchor="end">35</text><line class="grid" x1="145.0" y1="602.0" x2="760.0" y2="602.0"/><text class="small" x="137.0" y="606.0" text-anchor="end">28</text><line class="grid" x1="145.0" y1="656.5" x2="760.0" y2="656.5"/><text class="small" x="137.0" y="660.5" text-anchor="end">21</text><line class="grid" x1="145.0" y1="711.0" x2="760.0" y2="711.0"/><text class="small" x="137.0" y="715.0" text-anchor="end">14</text><line class="grid" x1="145.0" y1="765.5" x2="760.0" y2="765.5"/><text class="small" x="137.0" y="769.5" text-anchor="end">7</text><line class="grid" x1="145.0" y1="820.0" x2="760.0" y2="820.0"/><text class="small" x="137.0" y="824.0" text-anchor="end">0</text><line class="axis" x1="145.0" y1="820.0" x2="760.0" y2="820.0"/><line class="axis" x1="145.0" y1="547.5" x2="145.0" y2="820.0"/><line class="grid" x1="145.0" y1="820.0" x2="145.0" y2="825.0"/><text class="small" x="145.0" y="840.0" text-anchor="middle">1</text><line class="grid" x1="151.47368421052633" y1="820.0" x2="151.47368421052633" y2="825.0"/><text class="small" x="151.47368421052633" y="840.0" text-anchor="middle">2</text><line class="grid" x1="164.42105263157896" y1="820.0" x2="164.42105263157896" y2="825.0"/><text class="small" x="164.42105263157896" y="840.0" text-anchor="middle">4</text><line class="grid" x1="190.31578947368422" y1="820.0" x2="190.31578947368422" y2="825.0"/><text class="small" x="190.31578947368422" y="840.0" text-anchor="middle">8</text><line class="grid" x1="216.21052631578948" y1="820.0" x2="216.21052631578948" y2="825.0"/><text class="small" x="216.21052631578948" y="840.0" text-anchor="middle">12</text><line class="grid" x1="242.10526315789474" y1="820.0" x2="242.10526315789474" y2="825.0"/><text class="small" x="242.10526315789474" y="840.0" text-anchor="middle">16</text><line class="grid" x1="293.89473684210526" y1="820.0" x2="293.89473684210526" y2="825.0"/><text class="small" x="293.89473684210526" y="840.0" text-anchor="middle">24</text><line class="grid" x1="345.6842105263158" y1="820.0" x2="345.6842105263158" y2="825.0"/><text class="small" x="345.6842105263158" y="840.0" text-anchor="middle">32</text><line class="grid" x1="449.2631578947368" y1="820.0" x2="449.2631578947368" y2="825.0"/><text class="small" x="449.2631578947368" y="840.0" text-anchor="middle">48</text><line class="grid" x1="552.8421052631579" y1="820.0" x2="552.8421052631579" y2="825.0"/><text class="small" x="552.8421052631579" y="840.0" text-anchor="middle">64</text><line class="grid" x1="760.0" y1="820.0" x2="760.0" y2="825.0"/><text class="small" x="760.0" y="840.0" text-anchor="middle">96</text><polyline fill="none" stroke="#1f77b4" stroke-width="2.5" points="145.0,600.5 151.5,615.4 164.4,658.0 190.3,733.7 216.2,758.8 242.1,762.1 293.9,770.4 345.7,782.4 449.3,794.0 552.8,799.2 760.0,804.9"/><circle cx="145.0" cy="600.5" r="2.8" fill="#1f77b4"/><circle cx="151.5" cy="615.4" r="2.8" fill="#1f77b4"/><circle cx="164.4" cy="658.0" r="2.8" fill="#1f77b4"/><circle cx="190.3" cy="733.7" r="2.8" fill="#1f77b4"/><circle cx="216.2" cy="758.8" r="2.8" fill="#1f77b4"/><circle cx="242.1" cy="762.1" r="2.8" fill="#1f77b4"/><circle cx="293.9" cy="770.4" r="2.8" fill="#1f77b4"/><circle cx="345.7" cy="782.4" r="2.8" fill="#1f77b4"/><circle cx="449.3" cy="794.0" r="2.8" fill="#1f77b4"/><circle cx="552.8" cy="799.2" r="2.8" fill="#1f77b4"/><circle cx="760.0" cy="804.9" r="2.8" fill="#1f77b4"/><polyline fill="none" stroke="#d62728" stroke-width="2.5" points="145.0,599.1 151.5,616.1 164.4,662.3 190.3,727.0 216.2,759.8 242.1,761.4 293.9,770.3 345.7,782.5 449.3,793.5 552.8,799.2 760.0,805.6"/><circle cx="145.0" cy="599.1" r="2.8" fill="#d62728"/><circle cx="151.5" cy="616.1" r="2.8" fill="#d62728"/><circle cx="164.4" cy="662.3" r="2.8" fill="#d62728"/><circle cx="190.3" cy="727.0" r="2.8" fill="#d62728"/><circle cx="216.2" cy="759.8" r="2.8" fill="#d62728"/><circle cx="242.1" cy="761.4" r="2.8" fill="#d62728"/><circle cx="293.9" cy="770.3" r="2.8" fill="#d62728"/><circle cx="345.7" cy="782.5" r="2.8" fill="#d62728"/><circle cx="449.3" cy="793.5" r="2.8" fill="#d62728"/><circle cx="552.8" cy="799.2" r="2.8" fill="#d62728"/><circle cx="760.0" cy="805.6" r="2.8" fill="#d62728"/><polyline fill="none" stroke="#2ca02c" stroke-width="2.5" points="145.0,598.6 151.5,616.1 164.4,670.9 190.3,730.6 216.2,757.9 242.1,761.7 293.9,770.7 345.7,782.2 449.3,793.6 552.8,799.1 760.0,805.0"/><circle cx="145.0" cy="598.6" r="2.8" fill="#2ca02c"/><circle cx="151.5" cy="616.1" r="2.8" fill="#2ca02c"/><circle cx="164.4" cy="670.9" r="2.8" fill="#2ca02c"/><circle cx="190.3" cy="730.6" r="2.8" fill="#2ca02c"/><circle cx="216.2" cy="757.9" r="2.8" fill="#2ca02c"/><circle cx="242.1" cy="761.7" r="2.8" fill="#2ca02c"/><circle cx="293.9" cy="770.7" r="2.8" fill="#2ca02c"/><circle cx="345.7" cy="782.2" r="2.8" fill="#2ca02c"/><circle cx="449.3" cy="793.6" r="2.8" fill="#2ca02c"/><circle cx="552.8" cy="799.1" r="2.8" fill="#2ca02c"/><circle cx="760.0" cy="805.0" r="2.8" fill="#2ca02c"/><text class="small" x="100.0" y="688.75" transform="rotate(-90 100.0,688.75)" text-anchor="middle">uProf GB/s per thread</text><text x="1177.5" y="522.5" text-anchor="middle" font-size="18">remote 1-&gt;0</text><line class="grid" x1="890.0" y1="547.5" x2="1505.0" y2="547.5"/><text class="small" x="882.0" y="551.5" text-anchor="end">40</text><line class="grid" x1="890.0" y1="602.0" x2="1505.0" y2="602.0"/><text class="small" x="882.0" y="606.0" text-anchor="end">32</text><line class="grid" x1="890.0" y1="656.5" x2="1505.0" y2="656.5"/><text class="small" x="882.0" y="660.5" text-anchor="end">24</text><line class="grid" x1="890.0" y1="711.0" x2="1505.0" y2="711.0"/><text class="small" x="882.0" y="715.0" text-anchor="end">16</text><line class="grid" x1="890.0" y1="765.5" x2="1505.0" y2="765.5"/><text class="small" x="882.0" y="769.5" text-anchor="end">8</text><line class="grid" x1="890.0" y1="820.0" x2="1505.0" y2="820.0"/><text class="small" x="882.0" y="824.0" text-anchor="end">0</text><line class="axis" x1="890.0" y1="820.0" x2="1505.0" y2="820.0"/><line class="axis" x1="890.0" y1="547.5" x2="890.0" y2="820.0"/><line class="grid" x1="890.0" y1="820.0" x2="890.0" y2="825.0"/><text class="small" x="890.0" y="840.0" text-anchor="middle">1</text><line class="grid" x1="896.4736842105264" y1="820.0" x2="896.4736842105264" y2="825.0"/><text class="small" x="896.4736842105264" y="840.0" text-anchor="middle">2</text><line class="grid" x1="909.421052631579" y1="820.0" x2="909.421052631579" y2="825.0"/><text class="small" x="909.421052631579" y="840.0" text-anchor="middle">4</text><line class="grid" x1="935.3157894736842" y1="820.0" x2="935.3157894736842" y2="825.0"/><text class="small" x="935.3157894736842" y="840.0" text-anchor="middle">8</text><line class="grid" x1="961.2105263157895" y1="820.0" x2="961.2105263157895" y2="825.0"/><text class="small" x="961.2105263157895" y="840.0" text-anchor="middle">12</text><line class="grid" x1="987.1052631578948" y1="820.0" x2="987.1052631578948" y2="825.0"/><text class="small" x="987.1052631578948" y="840.0" text-anchor="middle">16</text><line class="grid" x1="1038.8947368421052" y1="820.0" x2="1038.8947368421052" y2="825.0"/><text class="small" x="1038.8947368421052" y="840.0" text-anchor="middle">24</text><line class="grid" x1="1090.6842105263158" y1="820.0" x2="1090.6842105263158" y2="825.0"/><text class="small" x="1090.6842105263158" y="840.0" text-anchor="middle">32</text><line class="grid" x1="1194.2631578947369" y1="820.0" x2="1194.2631578947369" y2="825.0"/><text class="small" x="1194.2631578947369" y="840.0" text-anchor="middle">48</text><line class="grid" x1="1297.842105263158" y1="820.0" x2="1297.842105263158" y2="825.0"/><text class="small" x="1297.842105263158" y="840.0" text-anchor="middle">64</text><line class="grid" x1="1505.0" y1="820.0" x2="1505.0" y2="825.0"/><text class="small" x="1505.0" y="840.0" text-anchor="middle">96</text><polyline fill="none" stroke="#1f77b4" stroke-width="2.5" points="890.0,625.2 896.5,636.8 909.4,685.9 935.3,742.7 961.2,765.1 987.1,769.8 1038.9,776.9 1090.7,787.3 1194.3,797.3 1297.8,803.0 1505.0,807.4"/><circle cx="890.0" cy="625.2" r="2.8" fill="#1f77b4"/><circle cx="896.5" cy="636.8" r="2.8" fill="#1f77b4"/><circle cx="909.4" cy="685.9" r="2.8" fill="#1f77b4"/><circle cx="935.3" cy="742.7" r="2.8" fill="#1f77b4"/><circle cx="961.2" cy="765.1" r="2.8" fill="#1f77b4"/><circle cx="987.1" cy="769.8" r="2.8" fill="#1f77b4"/><circle cx="1038.9" cy="776.9" r="2.8" fill="#1f77b4"/><circle cx="1090.7" cy="787.3" r="2.8" fill="#1f77b4"/><circle cx="1194.3" cy="797.3" r="2.8" fill="#1f77b4"/><circle cx="1297.8" cy="803.0" r="2.8" fill="#1f77b4"/><circle cx="1505.0" cy="807.4" r="2.8" fill="#1f77b4"/><polyline fill="none" stroke="#d62728" stroke-width="2.5" points="890.0,624.5 896.5,641.4 909.4,684.4 935.3,740.4 961.2,766.9 987.1,770.4 1038.9,776.3 1090.7,787.3 1194.3,796.9 1297.8,803.0 1505.0,808.1"/><circle cx="890.0" cy="624.5" r="2.8" fill="#d62728"/><circle cx="896.5" cy="641.4" r="2.8" fill="#d62728"/><circle cx="909.4" cy="684.4" r="2.8" fill="#d62728"/><circle cx="935.3" cy="740.4" r="2.8" fill="#d62728"/><circle cx="961.2" cy="766.9" r="2.8" fill="#d62728"/><circle cx="987.1" cy="770.4" r="2.8" fill="#d62728"/><circle cx="1038.9" cy="776.3" r="2.8" fill="#d62728"/><circle cx="1090.7" cy="787.3" r="2.8" fill="#d62728"/><circle cx="1194.3" cy="796.9" r="2.8" fill="#d62728"/><circle cx="1297.8" cy="803.0" r="2.8" fill="#d62728"/><circle cx="1505.0" cy="808.1" r="2.8" fill="#d62728"/><polyline fill="none" stroke="#2ca02c" stroke-width="2.5" points="890.0,624.2 896.5,636.7 909.4,682.5 935.3,739.9 961.2,768.7 987.1,767.3 1038.9,776.5 1090.7,787.1 1194.3,796.8 1297.8,803.0 1505.0,807.6"/><circle cx="890.0" cy="624.2" r="2.8" fill="#2ca02c"/><circle cx="896.5" cy="636.7" r="2.8" fill="#2ca02c"/><circle cx="909.4" cy="682.5" r="2.8" fill="#2ca02c"/><circle cx="935.3" cy="739.9" r="2.8" fill="#2ca02c"/><circle cx="961.2" cy="768.7" r="2.8" fill="#2ca02c"/><circle cx="987.1" cy="767.3" r="2.8" fill="#2ca02c"/><circle cx="1038.9" cy="776.5" r="2.8" fill="#2ca02c"/><circle cx="1090.7" cy="787.1" r="2.8" fill="#2ca02c"/><circle cx="1194.3" cy="796.8" r="2.8" fill="#2ca02c"/><circle cx="1297.8" cy="803.0" r="2.8" fill="#2ca02c"/><circle cx="1505.0" cy="807.6" r="2.8" fill="#2ca02c"/><text class="small" x="845.0" y="688.75" transform="rotate(-90 845.0,688.75)" text-anchor="middle">uProf GB/s per thread</text><text x="432.5" y="935.0" text-anchor="middle" font-size="18">dual local</text><line class="grid" x1="145.0" y1="960.0" x2="760.0" y2="960.0"/><text class="small" x="137.0" y="964.0" text-anchor="end">50</text><line class="grid" x1="145.0" y1="1014.5" x2="760.0" y2="1014.5"/><text class="small" x="137.0" y="1018.5" text-anchor="end">40</text><line class="grid" x1="145.0" y1="1069.0" x2="760.0" y2="1069.0"/><text class="small" x="137.0" y="1073.0" text-anchor="end">30</text><line class="grid" x1="145.0" y1="1123.5" x2="760.0" y2="1123.5"/><text class="small" x="137.0" y="1127.5" text-anchor="end">20</text><line class="grid" x1="145.0" y1="1178.0" x2="760.0" y2="1178.0"/><text class="small" x="137.0" y="1182.0" text-anchor="end">10</text><line class="grid" x1="145.0" y1="1232.5" x2="760.0" y2="1232.5"/><text class="small" x="137.0" y="1236.5" text-anchor="end">0</text><line class="axis" x1="145.0" y1="1232.5" x2="760.0" y2="1232.5"/><line class="axis" x1="145.0" y1="960.0" x2="145.0" y2="1232.5"/><line class="grid" x1="145.0" y1="1232.5" x2="145.0" y2="1237.5"/><text class="small" x="145.0" y="1252.5" text-anchor="middle">1</text><line class="grid" x1="151.47368421052633" y1="1232.5" x2="151.47368421052633" y2="1237.5"/><text class="small" x="151.47368421052633" y="1252.5" text-anchor="middle">2</text><line class="grid" x1="164.42105263157896" y1="1232.5" x2="164.42105263157896" y2="1237.5"/><text class="small" x="164.42105263157896" y="1252.5" text-anchor="middle">4</text><line class="grid" x1="190.31578947368422" y1="1232.5" x2="190.31578947368422" y2="1237.5"/><text class="small" x="190.31578947368422" y="1252.5" text-anchor="middle">8</text><line class="grid" x1="216.21052631578948" y1="1232.5" x2="216.21052631578948" y2="1237.5"/><text class="small" x="216.21052631578948" y="1252.5" text-anchor="middle">12</text><line class="grid" x1="242.10526315789474" y1="1232.5" x2="242.10526315789474" y2="1237.5"/><text class="small" x="242.10526315789474" y="1252.5" text-anchor="middle">16</text><line class="grid" x1="293.89473684210526" y1="1232.5" x2="293.89473684210526" y2="1237.5"/><text class="small" x="293.89473684210526" y="1252.5" text-anchor="middle">24</text><line class="grid" x1="345.6842105263158" y1="1232.5" x2="345.6842105263158" y2="1237.5"/><text class="small" x="345.6842105263158" y="1252.5" text-anchor="middle">32</text><line class="grid" x1="449.2631578947368" y1="1232.5" x2="449.2631578947368" y2="1237.5"/><text class="small" x="449.2631578947368" y="1252.5" text-anchor="middle">48</text><line class="grid" x1="552.8421052631579" y1="1232.5" x2="552.8421052631579" y2="1237.5"/><text class="small" x="552.8421052631579" y="1252.5" text-anchor="middle">64</text><line class="grid" x1="760.0" y1="1232.5" x2="760.0" y2="1237.5"/><text class="small" x="760.0" y="1252.5" text-anchor="middle">96</text><polyline fill="none" stroke="#1f77b4" stroke-width="2.5" points="145.0,1006.5 151.5,1025.2 164.4,1062.3 190.3,1145.6 216.2,1173.4 242.1,1172.3 293.9,1172.9 345.7,1186.4 449.3,1201.0 552.8,1209.5 760.0,1217.8"/><circle cx="145.0" cy="1006.5" r="2.8" fill="#1f77b4"/><circle cx="151.5" cy="1025.2" r="2.8" fill="#1f77b4"/><circle cx="164.4" cy="1062.3" r="2.8" fill="#1f77b4"/><circle cx="190.3" cy="1145.6" r="2.8" fill="#1f77b4"/><circle cx="216.2" cy="1173.4" r="2.8" fill="#1f77b4"/><circle cx="242.1" cy="1172.3" r="2.8" fill="#1f77b4"/><circle cx="293.9" cy="1172.9" r="2.8" fill="#1f77b4"/><circle cx="345.7" cy="1186.4" r="2.8" fill="#1f77b4"/><circle cx="449.3" cy="1201.0" r="2.8" fill="#1f77b4"/><circle cx="552.8" cy="1209.5" r="2.8" fill="#1f77b4"/><circle cx="760.0" cy="1217.8" r="2.8" fill="#1f77b4"/><polyline fill="none" stroke="#d62728" stroke-width="2.5" points="145.0,1002.9 151.5,1023.6 164.4,1067.0 190.3,1141.1 216.2,1172.6 242.1,1170.7 293.9,1171.6 345.7,1186.3 449.3,1201.0 552.8,1209.5 760.0,1217.8"/><circle cx="145.0" cy="1002.9" r="2.8" fill="#d62728"/><circle cx="151.5" cy="1023.6" r="2.8" fill="#d62728"/><circle cx="164.4" cy="1067.0" r="2.8" fill="#d62728"/><circle cx="190.3" cy="1141.1" r="2.8" fill="#d62728"/><circle cx="216.2" cy="1172.6" r="2.8" fill="#d62728"/><circle cx="242.1" cy="1170.7" r="2.8" fill="#d62728"/><circle cx="293.9" cy="1171.6" r="2.8" fill="#d62728"/><circle cx="345.7" cy="1186.3" r="2.8" fill="#d62728"/><circle cx="449.3" cy="1201.0" r="2.8" fill="#d62728"/><circle cx="552.8" cy="1209.5" r="2.8" fill="#d62728"/><circle cx="760.0" cy="1217.8" r="2.8" fill="#d62728"/><polyline fill="none" stroke="#2ca02c" stroke-width="2.5" points="145.0,1002.6 151.5,1029.2 164.4,1057.3 190.3,1145.6 216.2,1172.3 242.1,1171.2 293.9,1172.1 345.7,1186.4 449.3,1201.1 552.8,1209.4 760.0,1217.7"/><circle cx="145.0" cy="1002.6" r="2.8" fill="#2ca02c"/><circle cx="151.5" cy="1029.2" r="2.8" fill="#2ca02c"/><circle cx="164.4" cy="1057.3" r="2.8" fill="#2ca02c"/><circle cx="190.3" cy="1145.6" r="2.8" fill="#2ca02c"/><circle cx="216.2" cy="1172.3" r="2.8" fill="#2ca02c"/><circle cx="242.1" cy="1171.2" r="2.8" fill="#2ca02c"/><circle cx="293.9" cy="1172.1" r="2.8" fill="#2ca02c"/><circle cx="345.7" cy="1186.4" r="2.8" fill="#2ca02c"/><circle cx="449.3" cy="1201.1" r="2.8" fill="#2ca02c"/><circle cx="552.8" cy="1209.4" r="2.8" fill="#2ca02c"/><circle cx="760.0" cy="1217.7" r="2.8" fill="#2ca02c"/><text class="small" x="100.0" y="1101.25" transform="rotate(-90 100.0,1101.25)" text-anchor="middle">uProf GB/s per thread</text><text x="1177.5" y="935.0" text-anchor="middle" font-size="18">dual cross</text><line class="grid" x1="890.0" y1="960.0" x2="1505.0" y2="960.0"/><text class="small" x="882.0" y="964.0" text-anchor="end">35</text><line class="grid" x1="890.0" y1="1014.5" x2="1505.0" y2="1014.5"/><text class="small" x="882.0" y="1018.5" text-anchor="end">28</text><line class="grid" x1="890.0" y1="1069.0" x2="1505.0" y2="1069.0"/><text class="small" x="882.0" y="1073.0" text-anchor="end">21</text><line class="grid" x1="890.0" y1="1123.5" x2="1505.0" y2="1123.5"/><text class="small" x="882.0" y="1127.5" text-anchor="end">14</text><line class="grid" x1="890.0" y1="1178.0" x2="1505.0" y2="1178.0"/><text class="small" x="882.0" y="1182.0" text-anchor="end">7</text><line class="grid" x1="890.0" y1="1232.5" x2="1505.0" y2="1232.5"/><text class="small" x="882.0" y="1236.5" text-anchor="end">0</text><line class="axis" x1="890.0" y1="1232.5" x2="1505.0" y2="1232.5"/><line class="axis" x1="890.0" y1="960.0" x2="890.0" y2="1232.5"/><line class="grid" x1="890.0" y1="1232.5" x2="890.0" y2="1237.5"/><text class="small" x="890.0" y="1252.5" text-anchor="middle">1</text><line class="grid" x1="896.4736842105264" y1="1232.5" x2="896.4736842105264" y2="1237.5"/><text class="small" x="896.4736842105264" y="1252.5" text-anchor="middle">2</text><line class="grid" x1="909.421052631579" y1="1232.5" x2="909.421052631579" y2="1237.5"/><text class="small" x="909.421052631579" y="1252.5" text-anchor="middle">4</text><line class="grid" x1="935.3157894736842" y1="1232.5" x2="935.3157894736842" y2="1237.5"/><text class="small" x="935.3157894736842" y="1252.5" text-anchor="middle">8</text><line class="grid" x1="961.2105263157895" y1="1232.5" x2="961.2105263157895" y2="1237.5"/><text class="small" x="961.2105263157895" y="1252.5" text-anchor="middle">12</text><line class="grid" x1="987.1052631578948" y1="1232.5" x2="987.1052631578948" y2="1237.5"/><text class="small" x="987.1052631578948" y="1252.5" text-anchor="middle">16</text><line class="grid" x1="1038.8947368421052" y1="1232.5" x2="1038.8947368421052" y2="1237.5"/><text class="small" x="1038.8947368421052" y="1252.5" text-anchor="middle">24</text><line class="grid" x1="1090.6842105263158" y1="1232.5" x2="1090.6842105263158" y2="1237.5"/><text class="small" x="1090.6842105263158" y="1252.5" text-anchor="middle">32</text><line class="grid" x1="1194.2631578947369" y1="1232.5" x2="1194.2631578947369" y2="1237.5"/><text class="small" x="1194.2631578947369" y="1252.5" text-anchor="middle">48</text><line class="grid" x1="1297.842105263158" y1="1232.5" x2="1297.842105263158" y2="1237.5"/><text class="small" x="1297.842105263158" y="1252.5" text-anchor="middle">64</text><line class="grid" x1="1505.0" y1="1232.5" x2="1505.0" y2="1237.5"/><text class="small" x="1505.0" y="1252.5" text-anchor="middle">96</text><polyline fill="none" stroke="#1f77b4" stroke-width="2.5" points="890.0,1019.0 896.5,1037.0 909.4,1094.0 935.3,1153.1 961.2,1178.6 987.1,1186.3 1038.9,1200.2 1090.7,1207.8 1194.3,1215.8 1297.8,1220.4 1505.0,1224.2"/><circle cx="890.0" cy="1019.0" r="2.8" fill="#1f77b4"/><circle cx="896.5" cy="1037.0" r="2.8" fill="#1f77b4"/><circle cx="909.4" cy="1094.0" r="2.8" fill="#1f77b4"/><circle cx="935.3" cy="1153.1" r="2.8" fill="#1f77b4"/><circle cx="961.2" cy="1178.6" r="2.8" fill="#1f77b4"/><circle cx="987.1" cy="1186.3" r="2.8" fill="#1f77b4"/><circle cx="1038.9" cy="1200.2" r="2.8" fill="#1f77b4"/><circle cx="1090.7" cy="1207.8" r="2.8" fill="#1f77b4"/><circle cx="1194.3" cy="1215.8" r="2.8" fill="#1f77b4"/><circle cx="1297.8" cy="1220.4" r="2.8" fill="#1f77b4"/><circle cx="1505.0" cy="1224.2" r="2.8" fill="#1f77b4"/><polyline fill="none" stroke="#d62728" stroke-width="2.5" points="890.0,1020.7 896.5,1036.4 909.4,1090.6 935.3,1153.7 961.2,1178.1 987.1,1186.5 1038.9,1200.1 1090.7,1207.7 1194.3,1215.5 1297.8,1220.2 1505.0,1224.0"/><circle cx="890.0" cy="1020.7" r="2.8" fill="#d62728"/><circle cx="896.5" cy="1036.4" r="2.8" fill="#d62728"/><circle cx="909.4" cy="1090.6" r="2.8" fill="#d62728"/><circle cx="935.3" cy="1153.7" r="2.8" fill="#d62728"/><circle cx="961.2" cy="1178.1" r="2.8" fill="#d62728"/><circle cx="987.1" cy="1186.5" r="2.8" fill="#d62728"/><circle cx="1038.9" cy="1200.1" r="2.8" fill="#d62728"/><circle cx="1090.7" cy="1207.7" r="2.8" fill="#d62728"/><circle cx="1194.3" cy="1215.5" r="2.8" fill="#d62728"/><circle cx="1297.8" cy="1220.2" r="2.8" fill="#d62728"/><circle cx="1505.0" cy="1224.0" r="2.8" fill="#d62728"/><polyline fill="none" stroke="#2ca02c" stroke-width="2.5" points="890.0,1019.2 896.5,1039.9 909.4,1090.1 935.3,1152.4 961.2,1178.9 987.1,1186.5 1038.9,1200.0 1090.7,1208.0 1194.3,1215.9 1297.8,1220.3 1505.0,1224.1"/><circle cx="890.0" cy="1019.2" r="2.8" fill="#2ca02c"/><circle cx="896.5" cy="1039.9" r="2.8" fill="#2ca02c"/><circle cx="909.4" cy="1090.1" r="2.8" fill="#2ca02c"/><circle cx="935.3" cy="1152.4" r="2.8" fill="#2ca02c"/><circle cx="961.2" cy="1178.9" r="2.8" fill="#2ca02c"/><circle cx="987.1" cy="1186.5" r="2.8" fill="#2ca02c"/><circle cx="1038.9" cy="1200.0" r="2.8" fill="#2ca02c"/><circle cx="1090.7" cy="1208.0" r="2.8" fill="#2ca02c"/><circle cx="1194.3" cy="1215.9" r="2.8" fill="#2ca02c"/><circle cx="1297.8" cy="1220.3" r="2.8" fill="#2ca02c"/><circle cx="1505.0" cy="1224.1" r="2.8" fill="#2ca02c"/><text class="small" x="845.0" y="1101.25" transform="rotate(-90 845.0,1101.25)" text-anchor="middle">uProf GB/s per thread</text><text x="432.5" y="1347.5" text-anchor="middle" font-size="18">mixed target0</text><line class="grid" x1="145.0" y1="1372.5" x2="760.0" y2="1372.5"/><text class="small" x="137.0" y="1376.5" text-anchor="end">40</text><line class="grid" x1="145.0" y1="1427.0" x2="760.0" y2="1427.0"/><text class="small" x="137.0" y="1431.0" text-anchor="end">32</text><line class="grid" x1="145.0" y1="1481.5" x2="760.0" y2="1481.5"/><text class="small" x="137.0" y="1485.5" text-anchor="end">24</text><line class="grid" x1="145.0" y1="1536.0" x2="760.0" y2="1536.0"/><text class="small" x="137.0" y="1540.0" text-anchor="end">16</text><line class="grid" x1="145.0" y1="1590.5" x2="760.0" y2="1590.5"/><text class="small" x="137.0" y="1594.5" text-anchor="end">8</text><line class="grid" x1="145.0" y1="1645.0" x2="760.0" y2="1645.0"/><text class="small" x="137.0" y="1649.0" text-anchor="end">0</text><line class="axis" x1="145.0" y1="1645.0" x2="760.0" y2="1645.0"/><line class="axis" x1="145.0" y1="1372.5" x2="145.0" y2="1645.0"/><line class="grid" x1="145.0" y1="1645.0" x2="145.0" y2="1650.0"/><text class="small" x="145.0" y="1665.0" text-anchor="middle">1</text><line class="grid" x1="151.47368421052633" y1="1645.0" x2="151.47368421052633" y2="1650.0"/><text class="small" x="151.47368421052633" y="1665.0" text-anchor="middle">2</text><line class="grid" x1="164.42105263157896" y1="1645.0" x2="164.42105263157896" y2="1650.0"/><text class="small" x="164.42105263157896" y="1665.0" text-anchor="middle">4</text><line class="grid" x1="190.31578947368422" y1="1645.0" x2="190.31578947368422" y2="1650.0"/><text class="small" x="190.31578947368422" y="1665.0" text-anchor="middle">8</text><line class="grid" x1="216.21052631578948" y1="1645.0" x2="216.21052631578948" y2="1650.0"/><text class="small" x="216.21052631578948" y="1665.0" text-anchor="middle">12</text><line class="grid" x1="242.10526315789474" y1="1645.0" x2="242.10526315789474" y2="1650.0"/><text class="small" x="242.10526315789474" y="1665.0" text-anchor="middle">16</text><line class="grid" x1="293.89473684210526" y1="1645.0" x2="293.89473684210526" y2="1650.0"/><text class="small" x="293.89473684210526" y="1665.0" text-anchor="middle">24</text><line class="grid" x1="345.6842105263158" y1="1645.0" x2="345.6842105263158" y2="1650.0"/><text class="small" x="345.6842105263158" y="1665.0" text-anchor="middle">32</text><line class="grid" x1="449.2631578947368" y1="1645.0" x2="449.2631578947368" y2="1650.0"/><text class="small" x="449.2631578947368" y="1665.0" text-anchor="middle">48</text><line class="grid" x1="552.8421052631579" y1="1645.0" x2="552.8421052631579" y2="1650.0"/><text class="small" x="552.8421052631579" y="1665.0" text-anchor="middle">64</text><line class="grid" x1="760.0" y1="1645.0" x2="760.0" y2="1650.0"/><text class="small" x="760.0" y="1665.0" text-anchor="middle">96</text><polyline fill="none" stroke="#1f77b4" stroke-width="2.5" points="145.0,1422.2 151.5,1445.5 164.4,1488.4 190.3,1557.5 216.2,1586.8 242.1,1587.1 293.9,1604.1 345.7,1614.7 449.3,1623.6 552.8,1630.0 760.0,1634.8"/><circle cx="145.0" cy="1422.2" r="2.8" fill="#1f77b4"/><circle cx="151.5" cy="1445.5" r="2.8" fill="#1f77b4"/><circle cx="164.4" cy="1488.4" r="2.8" fill="#1f77b4"/><circle cx="190.3" cy="1557.5" r="2.8" fill="#1f77b4"/><circle cx="216.2" cy="1586.8" r="2.8" fill="#1f77b4"/><circle cx="242.1" cy="1587.1" r="2.8" fill="#1f77b4"/><circle cx="293.9" cy="1604.1" r="2.8" fill="#1f77b4"/><circle cx="345.7" cy="1614.7" r="2.8" fill="#1f77b4"/><circle cx="449.3" cy="1623.6" r="2.8" fill="#1f77b4"/><circle cx="552.8" cy="1630.0" r="2.8" fill="#1f77b4"/><circle cx="760.0" cy="1634.8" r="2.8" fill="#1f77b4"/><polyline fill="none" stroke="#d62728" stroke-width="2.5" points="145.0,1421.6 151.5,1439.6 164.4,1481.5 190.3,1555.1 216.2,1585.2 242.1,1588.1 293.9,1604.0 345.7,1614.4 449.3,1623.7 552.8,1630.0 760.0,1634.7"/><circle cx="145.0" cy="1421.6" r="2.8" fill="#d62728"/><circle cx="151.5" cy="1439.6" r="2.8" fill="#d62728"/><circle cx="164.4" cy="1481.5" r="2.8" fill="#d62728"/><circle cx="190.3" cy="1555.1" r="2.8" fill="#d62728"/><circle cx="216.2" cy="1585.2" r="2.8" fill="#d62728"/><circle cx="242.1" cy="1588.1" r="2.8" fill="#d62728"/><circle cx="293.9" cy="1604.0" r="2.8" fill="#d62728"/><circle cx="345.7" cy="1614.4" r="2.8" fill="#d62728"/><circle cx="449.3" cy="1623.7" r="2.8" fill="#d62728"/><circle cx="552.8" cy="1630.0" r="2.8" fill="#d62728"/><circle cx="760.0" cy="1634.7" r="2.8" fill="#d62728"/><polyline fill="none" stroke="#2ca02c" stroke-width="2.5" points="145.0,1420.3 151.5,1440.1 164.4,1484.3 190.3,1556.2 216.2,1584.5 242.1,1587.0 293.9,1603.9 345.7,1614.3 449.3,1624.0 552.8,1630.1 760.0,1634.5"/><circle cx="145.0" cy="1420.3" r="2.8" fill="#2ca02c"/><circle cx="151.5" cy="1440.1" r="2.8" fill="#2ca02c"/><circle cx="164.4" cy="1484.3" r="2.8" fill="#2ca02c"/><circle cx="190.3" cy="1556.2" r="2.8" fill="#2ca02c"/><circle cx="216.2" cy="1584.5" r="2.8" fill="#2ca02c"/><circle cx="242.1" cy="1587.0" r="2.8" fill="#2ca02c"/><circle cx="293.9" cy="1603.9" r="2.8" fill="#2ca02c"/><circle cx="345.7" cy="1614.3" r="2.8" fill="#2ca02c"/><circle cx="449.3" cy="1624.0" r="2.8" fill="#2ca02c"/><circle cx="552.8" cy="1630.1" r="2.8" fill="#2ca02c"/><circle cx="760.0" cy="1634.5" r="2.8" fill="#2ca02c"/><text class="small" x="100.0" y="1513.75" transform="rotate(-90 100.0,1513.75)" text-anchor="middle">uProf GB/s per thread</text><text x="1177.5" y="1347.5" text-anchor="middle" font-size="18">mixed target1</text><line class="grid" x1="890.0" y1="1372.5" x2="1505.0" y2="1372.5"/><text class="small" x="882.0" y="1376.5" text-anchor="end">45</text><line class="grid" x1="890.0" y1="1427.0" x2="1505.0" y2="1427.0"/><text class="small" x="882.0" y="1431.0" text-anchor="end">36</text><line class="grid" x1="890.0" y1="1481.5" x2="1505.0" y2="1481.5"/><text class="small" x="882.0" y="1485.5" text-anchor="end">27</text><line class="grid" x1="890.0" y1="1536.0" x2="1505.0" y2="1536.0"/><text class="small" x="882.0" y="1540.0" text-anchor="end">18</text><line class="grid" x1="890.0" y1="1590.5" x2="1505.0" y2="1590.5"/><text class="small" x="882.0" y="1594.5" text-anchor="end">9</text><line class="grid" x1="890.0" y1="1645.0" x2="1505.0" y2="1645.0"/><text class="small" x="882.0" y="1649.0" text-anchor="end">0</text><line class="axis" x1="890.0" y1="1645.0" x2="1505.0" y2="1645.0"/><line class="axis" x1="890.0" y1="1372.5" x2="890.0" y2="1645.0"/><line class="grid" x1="890.0" y1="1645.0" x2="890.0" y2="1650.0"/><text class="small" x="890.0" y="1665.0" text-anchor="middle">1</text><line class="grid" x1="896.4736842105264" y1="1645.0" x2="896.4736842105264" y2="1650.0"/><text class="small" x="896.4736842105264" y="1665.0" text-anchor="middle">2</text><line class="grid" x1="909.421052631579" y1="1645.0" x2="909.421052631579" y2="1650.0"/><text class="small" x="909.421052631579" y="1665.0" text-anchor="middle">4</text><line class="grid" x1="935.3157894736842" y1="1645.0" x2="935.3157894736842" y2="1650.0"/><text class="small" x="935.3157894736842" y="1665.0" text-anchor="middle">8</text><line class="grid" x1="961.2105263157895" y1="1645.0" x2="961.2105263157895" y2="1650.0"/><text class="small" x="961.2105263157895" y="1665.0" text-anchor="middle">12</text><line class="grid" x1="987.1052631578948" y1="1645.0" x2="987.1052631578948" y2="1650.0"/><text class="small" x="987.1052631578948" y="1665.0" text-anchor="middle">16</text><line class="grid" x1="1038.8947368421052" y1="1645.0" x2="1038.8947368421052" y2="1650.0"/><text class="small" x="1038.8947368421052" y="1665.0" text-anchor="middle">24</text><line class="grid" x1="1090.6842105263158" y1="1645.0" x2="1090.6842105263158" y2="1650.0"/><text class="small" x="1090.6842105263158" y="1665.0" text-anchor="middle">32</text><line class="grid" x1="1194.2631578947369" y1="1645.0" x2="1194.2631578947369" y2="1650.0"/><text class="small" x="1194.2631578947369" y="1665.0" text-anchor="middle">48</text><line class="grid" x1="1297.842105263158" y1="1645.0" x2="1297.842105263158" y2="1650.0"/><text class="small" x="1297.842105263158" y="1665.0" text-anchor="middle">64</text><line class="grid" x1="1505.0" y1="1645.0" x2="1505.0" y2="1650.0"/><text class="small" x="1505.0" y="1665.0" text-anchor="middle">96</text><polyline fill="none" stroke="#1f77b4" stroke-width="2.5" points="890.0,1437.8 896.5,1455.5 909.4,1493.6 935.3,1560.9 961.2,1589.4 987.1,1592.1 1038.9,1606.1 1090.7,1615.2 1194.3,1624.7 1297.8,1630.6 1505.0,1634.9"/><circle cx="890.0" cy="1437.8" r="2.8" fill="#1f77b4"/><circle cx="896.5" cy="1455.5" r="2.8" fill="#1f77b4"/><circle cx="909.4" cy="1493.6" r="2.8" fill="#1f77b4"/><circle cx="935.3" cy="1560.9" r="2.8" fill="#1f77b4"/><circle cx="961.2" cy="1589.4" r="2.8" fill="#1f77b4"/><circle cx="987.1" cy="1592.1" r="2.8" fill="#1f77b4"/><circle cx="1038.9" cy="1606.1" r="2.8" fill="#1f77b4"/><circle cx="1090.7" cy="1615.2" r="2.8" fill="#1f77b4"/><circle cx="1194.3" cy="1624.7" r="2.8" fill="#1f77b4"/><circle cx="1297.8" cy="1630.6" r="2.8" fill="#1f77b4"/><circle cx="1505.0" cy="1634.9" r="2.8" fill="#1f77b4"/><polyline fill="none" stroke="#d62728" stroke-width="2.5" points="890.0,1434.0 896.5,1452.7 909.4,1492.6 935.3,1557.6 961.2,1590.8 987.1,1592.4 1038.9,1606.0 1090.7,1615.2 1194.3,1624.6 1297.8,1630.8 1505.0,1635.0"/><circle cx="890.0" cy="1434.0" r="2.8" fill="#d62728"/><circle cx="896.5" cy="1452.7" r="2.8" fill="#d62728"/><circle cx="909.4" cy="1492.6" r="2.8" fill="#d62728"/><circle cx="935.3" cy="1557.6" r="2.8" fill="#d62728"/><circle cx="961.2" cy="1590.8" r="2.8" fill="#d62728"/><circle cx="987.1" cy="1592.4" r="2.8" fill="#d62728"/><circle cx="1038.9" cy="1606.0" r="2.8" fill="#d62728"/><circle cx="1090.7" cy="1615.2" r="2.8" fill="#d62728"/><circle cx="1194.3" cy="1624.6" r="2.8" fill="#d62728"/><circle cx="1297.8" cy="1630.8" r="2.8" fill="#d62728"/><circle cx="1505.0" cy="1635.0" r="2.8" fill="#d62728"/><polyline fill="none" stroke="#2ca02c" stroke-width="2.5" points="890.0,1433.5 896.5,1453.1 909.4,1492.5 935.3,1560.8 961.2,1591.7 987.1,1591.6 1038.9,1606.0 1090.7,1615.2 1194.3,1624.6 1297.8,1630.6 1505.0,1634.9"/><circle cx="890.0" cy="1433.5" r="2.8" fill="#2ca02c"/><circle cx="896.5" cy="1453.1" r="2.8" fill="#2ca02c"/><circle cx="909.4" cy="1492.5" r="2.8" fill="#2ca02c"/><circle cx="935.3" cy="1560.8" r="2.8" fill="#2ca02c"/><circle cx="961.2" cy="1591.7" r="2.8" fill="#2ca02c"/><circle cx="987.1" cy="1591.6" r="2.8" fill="#2ca02c"/><circle cx="1038.9" cy="1606.0" r="2.8" fill="#2ca02c"/><circle cx="1090.7" cy="1615.2" r="2.8" fill="#2ca02c"/><circle cx="1194.3" cy="1624.6" r="2.8" fill="#2ca02c"/><circle cx="1297.8" cy="1630.6" r="2.8" fill="#2ca02c"/><circle cx="1505.0" cy="1634.9" r="2.8" fill="#2ca02c"/><text class="small" x="845.0" y="1513.75" transform="rotate(-90 845.0,1513.75)" text-anchor="middle">uProf GB/s per thread</text></svg>