<svg xmlns="http://www.w3.org/2000/svg" width="1600" height="1800" viewBox="0 0 1600 1800"><style>text{font-family:monospace;fill:#111}.small{font-size:14px}.axis{stroke:#444;stroke-width:1}.grid{stroke:#ddd;stroke-width:1}</style><rect x="0" y="0" width="1600" height="1800" fill="white"/><text x="800.0" y="40" text-anchor="middle" font-size="24">uProf memory bandwidth per thread vs threads (1MiB)</text><text x="800.0" y="70" text-anchor="middle" font-size="16">threads per process on X axis</text><line x1="1320" y1="30" x2="1348" y2="30" stroke="#1f77b4" stroke-width="3"/><text x="1356" y="35" font-size="14">1302</text><line x1="1320" y1="54" x2="1348" y2="54" stroke="#d62728" stroke-width="3"/><text x="1356" y="59" font-size="14">1306</text><line x1="1320" y1="78" x2="1348" y2="78" stroke="#2ca02c" stroke-width="3"/><text x="1356" y="83" font-size="14">1308</text><text x="432.5" y="110.0" text-anchor="middle" font-size="18">local numa0</text><line class="grid" x1="145.0" y1="135.0" x2="760.0" y2="135.0"/><text class="small" x="137.0" y="139.0" text-anchor="end">70</text><line class="grid" x1="145.0" y1="189.5" x2="760.0" y2="189.5"/><text class="small" x="137.0" y="193.5" text-anchor="end">56</text><line class="grid" x1="145.0" y1="244.0" x2="760.0" y2="244.0"/><text class="small" x="137.0" y="248.0" text-anchor="end">42</text><line class="grid" x1="145.0" y1="298.5" x2="760.0" y2="298.5"/><text class="small" x="137.0" y="302.5" text-anchor="end">28</text><line class="grid" x1="145.0" y1="353.0" x2="760.0" y2="353.0"/><text class="small" x="137.0" y="357.0" text-anchor="end">14</text><line class="grid" x1="145.0" y1="407.5" x2="760.0" y2="407.5"/><text class="small" x="137.0" y="411.5" text-anchor="end">0</text><line class="axis" x1="145.0" y1="407.5" x2="760.0" y2="407.5"/><line class="axis" x1="145.0" y1="135.0" x2="145.0" y2="407.5"/><line class="grid" x1="145.0" y1="407.5" x2="145.0" y2="412.5"/><text class="small" x="145.0" y="427.5" text-anchor="middle">1</text><line class="grid" x1="151.47368421052633" y1="407.5" x2="151.47368421052633" y2="412.5"/><text class="small" x="151.47368421052633" y="427.5" text-anchor="middle">2</text><line class="grid" x1="164.42105263157896" y1="407.5" x2="164.42105263157896" y2="412.5"/><text class="small" x="164.42105263157896" y="427.5" text-anchor="middle">4</text><line class="grid" x1="190.31578947368422" y1="407.5" x2="190.31578947368422" y2="412.5"/><text class="small" x="190.31578947368422" y="427.5" text-anchor="middle">8</text><line class="grid" x1="216.21052631578948" y1="407.5" x2="216.21052631578948" y2="412.5"/><text class="small" x="216.21052631578948" y="427.5" text-anchor="middle">12</text><line class="grid" x1="242.10526315789474" y1="407.5" x2="242.10526315789474" y2="412.5"/><text class="small" x="242.10526315789474" y="427.5" text-anchor="middle">16</text><line class="grid" x1="293.89473684210526" y1="407.5" x2="293.89473684210526" y2="412.5"/><text class="small" x="293.89473684210526" y="427.5" text-anchor="middle">24</text><line class="grid" x1="345.6842105263158" y1="407.5" x2="345.6842105263158" y2="412.5"/><text class="small" x="345.6842105263158" y="427.5" text-anchor="middle">32</text><line class="grid" x1="449.2631578947368" y1="407.5" x2="449.2631578947368" y2="412.5"/><text class="small" x="449.2631578947368" y="427.5" text-anchor="middle">48</text><line class="grid" x1="552.8421052631579" y1="407.5" x2="552.8421052631579" y2="412.5"/><text class="small" x="552.8421052631579" y="427.5" text-anchor="middle">64</text><line class="grid" x1="760.0" y1="407.5" x2="760.0" y2="412.5"/><text class="small" x="760.0" y="427.5" text-anchor="middle">96</text><polyline fill="none" stroke="#1f77b4" stroke-width="2.5" points="145.0,221.9 151.5,223.0 164.4,247.5 190.3,292.6 216.2,317.0 242.1,337.4 293.9,359.0 345.7,370.8 449.3,380.9 552.8,386.9 760.0,393.6"/><circle cx="145.0" cy="221.9" r="2.8" fill="#1f77b4"/><circle cx="151.5" cy="223.0" r="2.8" fill="#1f77b4"/><circle cx="164.4" cy="247.5" r="2.8" fill="#1f77b4"/><circle cx="190.3" cy="292.6" r="2.8" fill="#1f77b4"/><circle cx="216.2" cy="317.0" r="2.8" fill="#1f77b4"/><circle cx="242.1" cy="337.4" r="2.8" fill="#1f77b4"/><circle cx="293.9" cy="359.0" r="2.8" fill="#1f77b4"/><circle cx="345.7" cy="370.8" r="2.8" fill="#1f77b4"/><circle cx="449.3" cy="380.9" r="2.8" fill="#1f77b4"/><circle cx="552.8" cy="386.9" r="2.8" fill="#1f77b4"/><circle cx="760.0" cy="393.6" r="2.8" fill="#1f77b4"/><polyline fill="none" stroke="#d62728" stroke-width="2.5" points="145.0,219.9 151.5,225.0 164.4,248.0 190.3,292.6 216.2,319.2 242.1,337.5 293.9,359.1 345.7,370.7 449.3,381.0 552.8,387.0 760.0,393.7"/><circle cx="145.0" cy="219.9" r="2.8" fill="#d62728"/><circle cx="151.5" cy="225.0" r="2.8" fill="#d62728"/><circle cx="164.4" cy="248.0" r="2.8" fill="#d62728"/><circle cx="190.3" cy="292.6" r="2.8" fill="#d62728"/><circle cx="216.2" cy="319.2" r="2.8" fill="#d62728"/><circle cx="242.1" cy="337.5" r="2.8" fill="#d62728"/><circle cx="293.9" cy="359.1" r="2.8" fill="#d62728"/><circle cx="345.7" cy="370.7" r="2.8" fill="#d62728"/><circle cx="449.3" cy="381.0" r="2.8" fill="#d62728"/><circle cx="552.8" cy="387.0" r="2.8" fill="#d62728"/><circle cx="760.0" cy="393.7" r="2.8" fill="#d62728"/><polyline fill="none" stroke="#2ca02c" stroke-width="2.5" points="145.0,217.2 151.5,224.0 164.4,248.4 190.3,291.0 216.2,317.2 242.1,336.7 293.9,358.7 345.7,370.0 449.3,380.9 552.8,386.7 760.0,393.8"/><circle cx="145.0" cy="217.2" r="2.8" fill="#2ca02c"/><circle cx="151.5" cy="224.0" r="2.8" fill="#2ca02c"/><circle cx="164.4" cy="248.4" r="2.8" fill="#2ca02c"/><circle cx="190.3" cy="291.0" r="2.8" fill="#2ca02c"/><circle cx="216.2" cy="317.2" r="2.8" fill="#2ca02c"/><circle cx="242.1" cy="336.7" r="2.8" fill="#2ca02c"/><circle cx="293.9" cy="358.7" r="2.8" fill="#2ca02c"/><circle cx="345.7" cy="370.0" r="2.8" fill="#2ca02c"/><circle cx="449.3" cy="380.9" r="2.8" fill="#2ca02c"/><circle cx="552.8" cy="386.7" r="2.8" fill="#2ca02c"/><circle cx="760.0" cy="393.8" r="2.8" fill="#2ca02c"/><text class="small" x="100.0" y="276.25" transform="rotate(-90 100.0,276.25)" text-anchor="middle">uProf GB/s per thread</text><text x="1177.5" y="110.0" text-anchor="middle" font-size="18">local numa1</text><line class="grid" x1="890.0" y1="135.0" x2="1505.0" y2="135.0"/><text class="small" x="882.0" y="139.0" text-anchor="end">70</text><line class="grid" x1="890.0" y1="189.5" x2="1505.0" y2="189.5"/><text class="small" x="882.0" y="193.5" text-anchor="end">56</text><line class="grid" x1="890.0" y1="244.0" x2="1505.0" y2="244.0"/><text class="small" x="882.0" y="248.0" text-anchor="end">42</text><line class="grid" x1="890.0" y1="298.5" x2="1505.0" y2="298.5"/><text class="small" x="882.0" y="302.5" text-anchor="end">28</text><line class="grid" x1="890.0" y1="353.0" x2="1505.0" y2="353.0"/><text class="small" x="882.0" y="357.0" text-anchor="end">14</text><line class="grid" x1="890.0" y1="407.5" x2="1505.0" y2="407.5"/><text class="small" x="882.0" y="411.5" text-anchor="end">0</text><line class="axis" x1="890.0" y1="407.5" x2="1505.0" y2="407.5"/><line class="axis" x1="890.0" y1="135.0" x2="890.0" y2="407.5"/><line class="grid" x1="890.0" y1="407.5" x2="890.0" y2="412.5"/><text class="small" x="890.0" y="427.5" text-anchor="middle">1</text><line class="grid" x1="896.4736842105264" y1="407.5" x2="896.4736842105264" y2="412.5"/><text class="small" x="896.4736842105264" y="427.5" text-anchor="middle">2</text><line class="grid" x1="909.421052631579" y1="407.5" x2="909.421052631579" y2="412.5"/><text class="small" x="909.421052631579" y="427.5" text-anchor="middle">4</text><line class="grid" x1="935.3157894736842" y1="407.5" x2="935.3157894736842" y2="412.5"/><text class="small" x="935.3157894736842" y="427.5" text-anchor="middle">8</text><line class="grid" x1="961.2105263157895" y1="407.5" x2="961.2105263157895" y2="412.5"/><text class="small" x="961.2105263157895" y="427.5" text-anchor="middle">12</text><line class="grid" x1="987.1052631578948" y1="407.5" x2="987.1052631578948" y2="412.5"/><text class="small" x="987.1052631578948" y="427.5" text-anchor="middle">16</text><line class="grid" x1="1038.8947368421052" y1="407.5" x2="1038.8947368421052" y2="412.5"/><text class="small" x="1038.8947368421052" y="427.5" text-anchor="middle">24</text><line class="grid" x1="1090.6842105263158" y1="407.5" x2="1090.6842105263158" y2="412.5"/><text class="small" x="1090.6842105263158" y="427.5" text-anchor="middle">32</text><line class="grid" x1="1194.2631578947369" y1="407.5" x2="1194.2631578947369" y2="412.5"/><text class="small" x="1194.2631578947369" y="427.5" text-anchor="middle">48</text><line class="grid" x1="1297.842105263158" y1="407.5" x2="1297.842105263158" y2="412.5"/><text class="small" x="1297.842105263158" y="427.5" text-anchor="middle">64</text><line class="grid" x1="1505.0" y1="407.5" x2="1505.0" y2="412.5"/><text class="small" x="1505.0" y="427.5" text-anchor="middle">96</text><polyline fill="none" stroke="#1f77b4" stroke-width="2.5" points="890.0,219.5 896.5,225.2 909.4,247.6 935.3,290.0 961.2,316.3 987.1,337.2 1038.9,358.8 1090.7,370.7 1194.3,381.3 1297.8,387.1 1505.0,393.6"/><circle cx="890.0" cy="219.5" r="2.8" fill="#1f77b4"/><circle cx="896.5" cy="225.2" r="2.8" fill="#1f77b4"/><circle cx="909.4" cy="247.6" r="2.8" fill="#1f77b4"/><circle cx="935.3" cy="290.0" r="2.8" fill="#1f77b4"/><circle cx="961.2" cy="316.3" r="2.8" fill="#1f77b4"/><circle cx="987.1" cy="337.2" r="2.8" fill="#1f77b4"/><circle cx="1038.9" cy="358.8" r="2.8" fill="#1f77b4"/><circle cx="1090.7" cy="370.7" r="2.8" fill="#1f77b4"/><circle cx="1194.3" cy="381.3" r="2.8" fill="#1f77b4"/><circle cx="1297.8" cy="387.1" r="2.8" fill="#1f77b4"/><circle cx="1505.0" cy="393.6" r="2.8" fill="#1f77b4"/><polyline fill="none" stroke="#d62728" stroke-width="2.5" points="890.0,220.3 896.5,221.9 909.4,248.4 935.3,290.0 961.2,316.7 987.1,337.0 1038.9,358.7 1090.7,370.7 1194.3,381.3 1297.8,387.1 1505.0,393.6"/><circle cx="890.0" cy="220.3" r="2.8" fill="#d62728"/><circle cx="896.5" cy="221.9" r="2.8" fill="#d62728"/><circle cx="909.4" cy="248.4" r="2.8" fill="#d62728"/><circle cx="935.3" cy="290.0" r="2.8" fill="#d62728"/><circle cx="961.2" cy="316.7" r="2.8" fill="#d62728"/><circle cx="987.1" cy="337.0" r="2.8" fill="#d62728"/><circle cx="1038.9" cy="358.7" r="2.8" fill="#d62728"/><circle cx="1090.7" cy="370.7" r="2.8" fill="#d62728"/><circle cx="1194.3" cy="381.3" r="2.8" fill="#d62728"/><circle cx="1297.8" cy="387.1" r="2.8" fill="#d62728"/><circle cx="1505.0" cy="393.6" r="2.8" fill="#d62728"/><polyline fill="none" stroke="#2ca02c" stroke-width="2.5" points="890.0,221.8 896.5,224.4 909.4,247.0 935.3,289.7 961.2,316.7 987.1,337.2 1038.9,358.8 1090.7,370.7 1194.3,381.6 1297.8,387.2 1505.0,393.7"/><circle cx="890.0" cy="221.8" r="2.8" fill="#2ca02c"/><circle cx="896.5" cy="224.4" r="2.8" fill="#2ca02c"/><circle cx="909.4" cy="247.0" r="2.8" fill="#2ca02c"/><circle cx="935.3" cy="289.7" r="2.8" fill="#2ca02c"/><circle cx="961.2" cy="316.7" r="2.8" fill="#2ca02c"/><circle cx="987.1" cy="337.2" r="2.8" fill="#2ca02c"/><circle cx="1038.9" cy="358.8" r="2.8" fill="#2ca02c"/><circle cx="1090.7" cy="370.7" r="2.8" fill="#2ca02c"/><circle cx="1194.3" cy="381.6" r="2.8" fill="#2ca02c"/><circle cx="1297.8" cy="387.2" r="2.8" fill="#2ca02c"/><circle cx="1505.0" cy="393.7" r="2.8" fill="#2ca02c"/><text class="small" x="845.0" y="276.25" transform="rotate(-90 845.0,276.25)" text-anchor="middle">uProf GB/s per thread</text><text x="432.5" y="522.5" text-anchor="middle" font-size="18">remote 0-&gt;1</text><line class="grid" x1="145.0" y1="547.5" x2="760.0" y2="547.5"/><text class="small" x="137.0" y="551.5" text-anchor="end">40</text><line class="grid" x1="145.0" y1="602.0" x2="760.0" y2="602.0"/><text class="small" x="137.0" y="606.0" text-anchor="end">32</text><line class="grid" x1="145.0" y1="656.5" x2="760.0" y2="656.5"/><text class="small" x="137.0" y="660.5" text-anchor="end">24</text><line class="grid" x1="145.0" y1="711.0" x2="760.0" y2="711.0"/><text class="small" x="137.0" y="715.0" text-anchor="end">16</text><line class="grid" x1="145.0" y1="765.5" x2="760.0" y2="765.5"/><text class="small" x="137.0" y="769.5" text-anchor="end">8</text><line class="grid" x1="145.0" y1="820.0" x2="760.0" y2="820.0"/><text class="small" x="137.0" y="824.0" text-anchor="end">0</text><line class="axis" x1="145.0" y1="820.0" x2="760.0" y2="820.0"/><line class="axis" x1="145.0" y1="547.5" x2="145.0" y2="820.0"/><line class="grid" x1="145.0" y1="820.0" x2="145.0" y2="825.0"/><text class="small" x="145.0" y="840.0" text-anchor="middle">1</text><line class="grid" x1="151.47368421052633" y1="820.0" x2="151.47368421052633" y2="825.0"/><text class="small" x="151.47368421052633" y="840.0" text-anchor="middle">2</text><line class="grid" x1="164.42105263157896" y1="820.0" x2="164.42105263157896" y2="825.0"/><text class="small" x="164.42105263157896" y="840.0" text-anchor="middle">4</text><line class="grid" x1="190.31578947368422" y1="820.0" x2="190.31578947368422" y2="825.0"/><text class="small" x="190.31578947368422" y="840.0" text-anchor="middle">8</text><line class="grid" x1="216.21052631578948" y1="820.0" x2="216.21052631578948" y2="825.0"/><text class="small" x="216.21052631578948" y="840.0" text-anchor="middle">12</text><line class="grid" x1="242.10526315789474" y1="820.0" x2="242.10526315789474" y2="825.0"/><text class="small" x="242.10526315789474" y="840.0" text-anchor="middle">16</text><line class="grid" x1="293.89473684210526" y1="820.0" x2="293.89473684210526" y2="825.0"/><text class="small" x="293.89473684210526" y="840.0" text-anchor="middle">24</text><line class="grid" x1="345.6842105263158" y1="820.0" x2="345.6842105263158" y2="825.0"/><text class="small" x="345.6842105263158" y="840.0" text-anchor="middle">32</text><line class="grid" x1="449.2631578947368" y1="820.0" x2="449.2631578947368" y2="825.0"/><text class="small" x="449.2631578947368" y="840.0" text-anchor="middle">48</text><line class="grid" x1="552.8421052631579" y1="820.0" x2="552.8421052631579" y2="825.0"/><text class="small" x="552.8421052631579" y="840.0" text-anchor="middle">64</text><line class="grid" x1="760.0" y1="820.0" x2="760.0" y2="825.0"/><text class="small" x="760.0" y="840.0" text-anchor="middle">96</text><polyline fill="none" stroke="#1f77b4" stroke-width="2.5" points="145.0,623.2 151.5,630.6 164.4,647.7 190.3,691.6 216.2,731.0 242.1,753.4 293.9,775.7 345.7,786.5 449.3,796.7 552.8,801.6 760.0,807.0"/><circle cx="145.0" cy="623.2" r="2.8" fill="#1f77b4"/><circle cx="151.5" cy="630.6" r="2.8" fill="#1f77b4"/><circle cx="164.4" cy="647.7" r="2.8" fill="#1f77b4"/><circle cx="190.3" cy="691.6" r="2.8" fill="#1f77b4"/><circle cx="216.2" cy="731.0" r="2.8" fill="#1f77b4"/><circle cx="242.1" cy="753.4" r="2.8" fill="#1f77b4"/><circle cx="293.9" cy="775.7" r="2.8" fill="#1f77b4"/><circle cx="345.7" cy="786.5" r="2.8" fill="#1f77b4"/><circle cx="449.3" cy="796.7" r="2.8" fill="#1f77b4"/><circle cx="552.8" cy="801.6" r="2.8" fill="#1f77b4"/><circle cx="760.0" cy="807.0" r="2.8" fill="#1f77b4"/><polyline fill="none" stroke="#d62728" stroke-width="2.5" points="145.0,619.2 151.5,627.8 164.4,644.2 190.3,691.2 216.2,731.0 242.1,753.5 293.9,775.8 345.7,785.9 449.3,797.0 552.8,801.7 760.0,806.8"/><circle cx="145.0" cy="619.2" r="2.8" fill="#d62728"/><circle cx="151.5" cy="627.8" r="2.8" fill="#d62728"/><circle cx="164.4" cy="644.2" r="2.8" fill="#d62728"/><circle cx="190.3" cy="691.2" r="2.8" fill="#d62728"/><circle cx="216.2" cy="731.0" r="2.8" fill="#d62728"/><circle cx="242.1" cy="753.5" r="2.8" fill="#d62728"/><circle cx="293.9" cy="775.8" r="2.8" fill="#d62728"/><circle cx="345.7" cy="785.9" r="2.8" fill="#d62728"/><circle cx="449.3" cy="797.0" r="2.8" fill="#d62728"/><circle cx="552.8" cy="801.7" r="2.8" fill="#d62728"/><circle cx="760.0" cy="806.8" r="2.8" fill="#d62728"/><polyline fill="none" stroke="#2ca02c" stroke-width="2.5" points="145.0,622.9 151.5,628.5 164.4,641.7 190.3,690.4 216.2,731.5 242.1,753.5 293.9,775.9 345.7,786.8 449.3,796.8 552.8,801.6 760.0,807.0"/><circle cx="145.0" cy="622.9" r="2.8" fill="#2ca02c"/><circle cx="151.5" cy="628.5" r="2.8" fill="#2ca02c"/><circle cx="164.4" cy="641.7" r="2.8" fill="#2ca02c"/><circle cx="190.3" cy="690.4" r="2.8" fill="#2ca02c"/><circle cx="216.2" cy="731.5" r="2.8" fill="#2ca02c"/><circle cx="242.1" cy="753.5" r="2.8" fill="#2ca02c"/><circle cx="293.9" cy="775.9" r="2.8" fill="#2ca02c"/><circle cx="345.7" cy="786.8" r="2.8" fill="#2ca02c"/><circle cx="449.3" cy="796.8" r="2.8" fill="#2ca02c"/><circle cx="552.8" cy="801.6" r="2.8" fill="#2ca02c"/><circle cx="760.0" cy="807.0" r="2.8" fill="#2ca02c"/><text class="small" x="100.0" y="688.75" transform="rotate(-90 100.0,688.75)" text-anchor="middle">uProf GB/s per thread</text><text x="1177.5" y="522.5" text-anchor="middle" font-size="18">remote 1-&gt;0</text><line class="grid" x1="890.0" y1="547.5" x2="1505.0" y2="547.5"/><text class="small" x="882.0" y="551.5" text-anchor="end">40</text><line class="grid" x1="890.0" y1="602.0" x2="1505.0" y2="602.0"/><text class="small" x="882.0" y="606.0" text-anchor="end">32</text><line class="grid" x1="890.0" y1="656.5" x2="1505.0" y2="656.5"/><text class="small" x="882.0" y="660.5" text-anchor="end">24</text><line class="grid" x1="890.0" y1="711.0" x2="1505.0" y2="711.0"/><text class="small" x="882.0" y="715.0" text-anchor="end">16</text><line class="grid" x1="890.0" y1="765.5" x2="1505.0" y2="765.5"/><text class="small" x="882.0" y="769.5" text-anchor="end">8</text><line class="grid" x1="890.0" y1="820.0" x2="1505.0" y2="820.0"/><text class="small" x="882.0" y="824.0" text-anchor="end">0</text><line class="axis" x1="890.0" y1="820.0" x2="1505.0" y2="820.0"/><line class="axis" x1="890.0" y1="547.5" x2="890.0" y2="820.0"/><line class="grid" x1="890.0" y1="820.0" x2="890.0" y2="825.0"/><text class="small" x="890.0" y="840.0" text-anchor="middle">1</text><line class="grid" x1="896.4736842105264" y1="820.0" x2="896.4736842105264" y2="825.0"/><text class="small" x="896.4736842105264" y="840.0" text-anchor="middle">2</text><line class="grid" x1="909.421052631579" y1="820.0" x2="909.421052631579" y2="825.0"/><text class="small" x="909.421052631579" y="840.0" text-anchor="middle">4</text><line class="grid" x1="935.3157894736842" y1="820.0" x2="935.3157894736842" y2="825.0"/><text class="small" x="935.3157894736842" y="840.0" text-anchor="middle">8</text><line class="grid" x1="961.2105263157895" y1="820.0" x2="961.2105263157895" y2="825.0"/><text class="small" x="961.2105263157895" y="840.0" text-anchor="middle">12</text><line class="grid" x1="987.1052631578948" y1="820.0" x2="987.1052631578948" y2="825.0"/><text class="small" x="987.1052631578948" y="840.0" text-anchor="middle">16</text><line class="grid" x1="1038.8947368421052" y1="820.0" x2="1038.8947368421052" y2="825.0"/><text class="small" x="1038.8947368421052" y="840.0" text-anchor="middle">24</text><line class="grid" x1="1090.6842105263158" y1="820.0" x2="1090.6842105263158" y2="825.0"/><text class="small" x="1090.6842105263158" y="840.0" text-anchor="middle">32</text><line class="grid" x1="1194.2631578947369" y1="820.0" x2="1194.2631578947369" y2="825.0"/><text class="small" x="1194.2631578947369" y="840.0" text-anchor="middle">48</text><line class="grid" x1="1297.842105263158" y1="820.0" x2="1297.842105263158" y2="825.0"/><text class="small" x="1297.842105263158" y="840.0" text-anchor="middle">64</text><line class="grid" x1="1505.0" y1="820.0" x2="1505.0" y2="825.0"/><text class="small" x="1505.0" y="840.0" text-anchor="middle">96</text><polyline fill="none" stroke="#1f77b4" stroke-width="2.5" points="890.0,617.5 896.5,626.9 909.4,645.4 935.3,692.6 961.2,732.6 987.1,754.1 1038.9,776.3 1090.7,786.5 1194.3,796.9 1297.8,802.9 1505.0,808.8"/><circle cx="890.0" cy="617.5" r="2.8" fill="#1f77b4"/><circle cx="896.5" cy="626.9" r="2.8" fill="#1f77b4"/><circle cx="909.4" cy="645.4" r="2.8" fill="#1f77b4"/><circle cx="935.3" cy="692.6" r="2.8" fill="#1f77b4"/><circle cx="961.2" cy="732.6" r="2.8" fill="#1f77b4"/><circle cx="987.1" cy="754.1" r="2.8" fill="#1f77b4"/><circle cx="1038.9" cy="776.3" r="2.8" fill="#1f77b4"/><circle cx="1090.7" cy="786.5" r="2.8" fill="#1f77b4"/><circle cx="1194.3" cy="796.9" r="2.8" fill="#1f77b4"/><circle cx="1297.8" cy="802.9" r="2.8" fill="#1f77b4"/><circle cx="1505.0" cy="808.8" r="2.8" fill="#1f77b4"/><polyline fill="none" stroke="#d62728" stroke-width="2.5" points="890.0,624.1 896.5,631.3 909.4,641.5 935.3,691.3 961.2,733.1 987.1,754.2 1038.9,776.1 1090.7,787.2 1194.3,796.7 1297.8,802.3 1505.0,808.5"/><circle cx="890.0" cy="624.1" r="2.8" fill="#d62728"/><circle cx="896.5" cy="631.3" r="2.8" fill="#d62728"/><circle cx="909.4" cy="641.5" r="2.8" fill="#d62728"/><circle cx="935.3" cy="691.3" r="2.8" fill="#d62728"/><circle cx="961.2" cy="733.1" r="2.8" fill="#d62728"/><circle cx="987.1" cy="754.2" r="2.8" fill="#d62728"/><circle cx="1038.9" cy="776.1" r="2.8" fill="#d62728"/><circle cx="1090.7" cy="787.2" r="2.8" fill="#d62728"/><circle cx="1194.3" cy="796.7" r="2.8" fill="#d62728"/><circle cx="1297.8" cy="802.3" r="2.8" fill="#d62728"/><circle cx="1505.0" cy="808.5" r="2.8" fill="#d62728"/><polyline fill="none" stroke="#2ca02c" stroke-width="2.5" points="890.0,616.1 896.5,632.5 909.4,647.7 935.3,692.7 961.2,732.7 987.1,754.4 1038.9,776.4 1090.7,787.0 1194.3,796.7 1297.8,802.3 1505.0,809.0"/><circle cx="890.0" cy="616.1" r="2.8" fill="#2ca02c"/><circle cx="896.5" cy="632.5" r="2.8" fill="#2ca02c"/><circle cx="909.4" cy="647.7" r="2.8" fill="#2ca02c"/><circle cx="935.3" cy="692.7" r="2.8" fill="#2ca02c"/><circle cx="961.2" cy="732.7" r="2.8" fill="#2ca02c"/><circle cx="987.1" cy="754.4" r="2.8" fill="#2ca02c"/><circle cx="1038.9" cy="776.4" r="2.8" fill="#2ca02c"/><circle cx="1090.7" cy="787.0" r="2.8" fill="#2ca02c"/><circle cx="1194.3" cy="796.7" r="2.8" fill="#2ca02c"/><circle cx="1297.8" cy="802.3" r="2.8" fill="#2ca02c"/><circle cx="1505.0" cy="809.0" r="2.8" fill="#2ca02c"/><text class="small" x="845.0" y="688.75" transform="rotate(-90 845.0,688.75)" text-anchor="middle">uProf GB/s per thread</text><text x="432.5" y="935.0" text-anchor="middle" font-size="18">dual local</text><line class="grid" x1="145.0" y1="960.0" x2="760.0" y2="960.0"/><text class="small" x="137.0" y="964.0" text-anchor="end">55</text><line class="grid" x1="145.0" y1="1014.5" x2="760.0" y2="1014.5"/><text class="small" x="137.0" y="1018.5" text-anchor="end">44</text><line class="grid" x1="145.0" y1="1069.0" x2="760.0" y2="1069.0"/><text class="small" x="137.0" y="1073.0" text-anchor="end">33</text><line class="grid" x1="145.0" y1="1123.5" x2="760.0" y2="1123.5"/><text class="small" x="137.0" y="1127.5" text-anchor="end">22</text><line class="grid" x1="145.0" y1="1178.0" x2="760.0" y2="1178.0"/><text class="small" x="137.0" y="1182.0" text-anchor="end">11</text><line class="grid" x1="145.0" y1="1232.5" x2="760.0" y2="1232.5"/><text class="small" x="137.0" y="1236.5" text-anchor="end">0</text><line class="axis" x1="145.0" y1="1232.5" x2="760.0" y2="1232.5"/><line class="axis" x1="145.0" y1="960.0" x2="145.0" y2="1232.5"/><line class="grid" x1="145.0" y1="1232.5" x2="145.0" y2="1237.5"/><text class="small" x="145.0" y="1252.5" text-anchor="middle">1</text><line class="grid" x1="151.47368421052633" y1="1232.5" x2="151.47368421052633" y2="1237.5"/><text class="small" x="151.47368421052633" y="1252.5" text-anchor="middle">2</text><line class="grid" x1="164.42105263157896" y1="1232.5" x2="164.42105263157896" y2="1237.5"/><text class="small" x="164.42105263157896" y="1252.5" text-anchor="middle">4</text><line class="grid" x1="190.31578947368422" y1="1232.5" x2="190.31578947368422" y2="1237.5"/><text class="small" x="190.31578947368422" y="1252.5" text-anchor="middle">8</text><line class="grid" x1="216.21052631578948" y1="1232.5" x2="216.21052631578948" y2="1237.5"/><text class="small" x="216.21052631578948" y="1252.5" text-anchor="middle">12</text><line class="grid" x1="242.10526315789474" y1="1232.5" x2="242.10526315789474" y2="1237.5"/><text class="small" x="242.10526315789474" y="1252.5" text-anchor="middle">16</text><line class="grid" x1="293.89473684210526" y1="1232.5" x2="293.89473684210526" y2="1237.5"/><text class="small" x="293.89473684210526" y="1252.5" text-anchor="middle">24</text><line class="grid" x1="345.6842105263158" y1="1232.5" x2="345.6842105263158" y2="1237.5"/><text class="small" x="345.6842105263158" y="1252.5" text-anchor="middle">32</text><line class="grid" x1="449.2631578947368" y1="1232.5" x2="449.2631578947368" y2="1237.5"/><text class="small" x="449.2631578947368" y="1252.5" text-anchor="middle">48</text><line class="grid" x1="552.8421052631579" y1="1232.5" x2="552.8421052631579" y2="1237.5"/><text class="small" x="552.8421052631579" y="1252.5" text-anchor="middle">64</text><line class="grid" x1="760.0" y1="1232.5" x2="760.0" y2="1237.5"/><text class="small" x="760.0" y="1252.5" text-anchor="middle">96</text><polyline fill="none" stroke="#1f77b4" stroke-width="2.5" points="145.0,1006.3 151.5,1020.1 164.4,1040.7 190.3,1096.5 216.2,1125.0 242.1,1150.4 293.9,1176.0 345.7,1190.0 449.3,1204.0 552.8,1211.5 760.0,1218.7"/><circle cx="145.0" cy="1006.3" r="2.8" fill="#1f77b4"/><circle cx="151.5" cy="1020.1" r="2.8" fill="#1f77b4"/><circle cx="164.4" cy="1040.7" r="2.8" fill="#1f77b4"/><circle cx="190.3" cy="1096.5" r="2.8" fill="#1f77b4"/><circle cx="216.2" cy="1125.0" r="2.8" fill="#1f77b4"/><circle cx="242.1" cy="1150.4" r="2.8" fill="#1f77b4"/><circle cx="293.9" cy="1176.0" r="2.8" fill="#1f77b4"/><circle cx="345.7" cy="1190.0" r="2.8" fill="#1f77b4"/><circle cx="449.3" cy="1204.0" r="2.8" fill="#1f77b4"/><circle cx="552.8" cy="1211.5" r="2.8" fill="#1f77b4"/><circle cx="760.0" cy="1218.7" r="2.8" fill="#1f77b4"/><polyline fill="none" stroke="#d62728" stroke-width="2.5" points="145.0,1009.4 151.5,1011.6 164.4,1044.1 190.3,1091.7 216.2,1125.2 242.1,1150.3 293.9,1176.1 345.7,1190.2 449.3,1203.8 552.8,1211.6 760.0,1219.1"/><circle cx="145.0" cy="1009.4" r="2.8" fill="#d62728"/><circle cx="151.5" cy="1011.6" r="2.8" fill="#d62728"/><circle cx="164.4" cy="1044.1" r="2.8" fill="#d62728"/><circle cx="190.3" cy="1091.7" r="2.8" fill="#d62728"/><circle cx="216.2" cy="1125.2" r="2.8" fill="#d62728"/><circle cx="242.1" cy="1150.3" r="2.8" fill="#d62728"/><circle cx="293.9" cy="1176.1" r="2.8" fill="#d62728"/><circle cx="345.7" cy="1190.2" r="2.8" fill="#d62728"/><circle cx="449.3" cy="1203.8" r="2.8" fill="#d62728"/><circle cx="552.8" cy="1211.6" r="2.8" fill="#d62728"/><circle cx="760.0" cy="1219.1" r="2.8" fill="#d62728"/><polyline fill="none" stroke="#2ca02c" stroke-width="2.5" points="145.0,1006.6 151.5,1012.5 164.4,1039.3 190.3,1092.0 216.2,1126.4 242.1,1150.2 293.9,1176.1 345.7,1190.0 449.3,1203.8 552.8,1211.5 760.0,1218.7"/><circle cx="145.0" cy="1006.6" r="2.8" fill="#2ca02c"/><circle cx="151.5" cy="1012.5" r="2.8" fill="#2ca02c"/><circle cx="164.4" cy="1039.3" r="2.8" fill="#2ca02c"/><circle cx="190.3" cy="1092.0" r="2.8" fill="#2ca02c"/><circle cx="216.2" cy="1126.4" r="2.8" fill="#2ca02c"/><circle cx="242.1" cy="1150.2" r="2.8" fill="#2ca02c"/><circle cx="293.9" cy="1176.1" r="2.8" fill="#2ca02c"/><circle cx="345.7" cy="1190.0" r="2.8" fill="#2ca02c"/><circle cx="449.3" cy="1203.8" r="2.8" fill="#2ca02c"/><circle cx="552.8" cy="1211.5" r="2.8" fill="#2ca02c"/><circle cx="760.0" cy="1218.7" r="2.8" fill="#2ca02c"/><text class="small" x="100.0" y="1101.25" transform="rotate(-90 100.0,1101.25)" text-anchor="middle">uProf GB/s per thread</text><text x="1177.5" y="935.0" text-anchor="middle" font-size="18">dual cross</text><line class="grid" x1="890.0" y1="960.0" x2="1505.0" y2="960.0"/><text class="small" x="882.0" y="964.0" text-anchor="end">35</text><line class="grid" x1="890.0" y1="1014.5" x2="1505.0" y2="1014.5"/><text class="small" x="882.0" y="1018.5" text-anchor="end">28</text><line class="grid" x1="890.0" y1="1069.0" x2="1505.0" y2="1069.0"/><text class="small" x="882.0" y="1073.0" text-anchor="end">21</text><line class="grid" x1="890.0" y1="1123.5" x2="1505.0" y2="1123.5"/><text class="small" x="882.0" y="1127.5" text-anchor="end">14</text><line class="grid" x1="890.0" y1="1178.0" x2="1505.0" y2="1178.0"/><text class="small" x="882.0" y="1182.0" text-anchor="end">7</text><line class="grid" x1="890.0" y1="1232.5" x2="1505.0" y2="1232.5"/><text class="small" x="882.0" y="1236.5" text-anchor="end">0</text><line class="axis" x1="890.0" y1="1232.5" x2="1505.0" y2="1232.5"/><line class="axis" x1="890.0" y1="960.0" x2="890.0" y2="1232.5"/><line class="grid" x1="890.0" y1="1232.5" x2="890.0" y2="1237.5"/><text class="small" x="890.0" y="1252.5" text-anchor="middle">1</text><line class="grid" x1="896.4736842105264" y1="1232.5" x2="896.4736842105264" y2="1237.5"/><text class="small" x="896.4736842105264" y="1252.5" text-anchor="middle">2</text><line class="grid" x1="909.421052631579" y1="1232.5" x2="909.421052631579" y2="1237.5"/><text class="small" x="909.421052631579" y="1252.5" text-anchor="middle">4</text><line class="grid" x1="935.3157894736842" y1="1232.5" x2="935.3157894736842" y2="1237.5"/><text class="small" x="935.3157894736842" y="1252.5" text-anchor="middle">8</text><line class="grid" x1="961.2105263157895" y1="1232.5" x2="961.2105263157895" y2="1237.5"/><text class="small" x="961.2105263157895" y="1252.5" text-anchor="middle">12</text><line class="grid" x1="987.1052631578948" y1="1232.5" x2="987.1052631578948" y2="1237.5"/><text class="small" x="987.1052631578948" y="1252.5" text-anchor="middle">16</text><line class="grid" x1="1038.8947368421052" y1="1232.5" x2="1038.8947368421052" y2="1237.5"/><text class="small" x="1038.8947368421052" y="1252.5" text-anchor="middle">24</text><line class="grid" x1="1090.6842105263158" y1="1232.5" x2="1090.6842105263158" y2="1237.5"/><text class="small" x="1090.6842105263158" y="1252.5" text-anchor="middle">32</text><line class="grid" x1="1194.2631578947369" y1="1232.5" x2="1194.2631578947369" y2="1237.5"/><text class="small" x="1194.2631578947369" y="1252.5" text-anchor="middle">48</text><line class="grid" x1="1297.842105263158" y1="1232.5" x2="1297.842105263158" y2="1237.5"/><text class="small" x="1297.842105263158" y="1252.5" text-anchor="middle">64</text><line class="grid" x1="1505.0" y1="1232.5" x2="1505.0" y2="1237.5"/><text class="small" x="1505.0" y="1252.5" text-anchor="middle">96</text><polyline fill="none" stroke="#1f77b4" stroke-width="2.5" points="890.0,1018.4 896.5,1030.0 909.4,1059.8 935.3,1133.1 961.2,1165.3 987.1,1182.0 1038.9,1200.0 1090.7,1207.2 1194.3,1215.6 1297.8,1220.3 1505.0,1224.5"/><circle cx="890.0" cy="1018.4" r="2.8" fill="#1f77b4"/><circle cx="896.5" cy="1030.0" r="2.8" fill="#1f77b4"/><circle cx="909.4" cy="1059.8" r="2.8" fill="#1f77b4"/><circle cx="935.3" cy="1133.1" r="2.8" fill="#1f77b4"/><circle cx="961.2" cy="1165.3" r="2.8" fill="#1f77b4"/><circle cx="987.1" cy="1182.0" r="2.8" fill="#1f77b4"/><circle cx="1038.9" cy="1200.0" r="2.8" fill="#1f77b4"/><circle cx="1090.7" cy="1207.2" r="2.8" fill="#1f77b4"/><circle cx="1194.3" cy="1215.6" r="2.8" fill="#1f77b4"/><circle cx="1297.8" cy="1220.3" r="2.8" fill="#1f77b4"/><circle cx="1505.0" cy="1224.5" r="2.8" fill="#1f77b4"/><polyline fill="none" stroke="#d62728" stroke-width="2.5" points="890.0,1018.3 896.5,1027.3 909.4,1059.5 935.3,1133.2 961.2,1165.5 987.1,1182.8 1038.9,1199.4 1090.7,1207.1 1194.3,1215.7 1297.8,1220.7 1505.0,1224.5"/><circle cx="890.0" cy="1018.3" r="2.8" fill="#d62728"/><circle cx="896.5" cy="1027.3" r="2.8" fill="#d62728"/><circle cx="909.4" cy="1059.5" r="2.8" fill="#d62728"/><circle cx="935.3" cy="1133.2" r="2.8" fill="#d62728"/><circle cx="961.2" cy="1165.5" r="2.8" fill="#d62728"/><circle cx="987.1" cy="1182.8" r="2.8" fill="#d62728"/><circle cx="1038.9" cy="1199.4" r="2.8" fill="#d62728"/><circle cx="1090.7" cy="1207.1" r="2.8" fill="#d62728"/><circle cx="1194.3" cy="1215.7" r="2.8" fill="#d62728"/><circle cx="1297.8" cy="1220.7" r="2.8" fill="#d62728"/><circle cx="1505.0" cy="1224.5" r="2.8" fill="#d62728"/><polyline fill="none" stroke="#2ca02c" stroke-width="2.5" points="890.0,1020.5 896.5,1027.1 909.4,1061.2 935.3,1133.6 961.2,1165.6 987.1,1182.0 1038.9,1199.7 1090.7,1207.5 1194.3,1215.4 1297.8,1220.4 1505.0,1224.1"/><circle cx="890.0" cy="1020.5" r="2.8" fill="#2ca02c"/><circle cx="896.5" cy="1027.1" r="2.8" fill="#2ca02c"/><circle cx="909.4" cy="1061.2" r="2.8" fill="#2ca02c"/><circle cx="935.3" cy="1133.6" r="2.8" fill="#2ca02c"/><circle cx="961.2" cy="1165.6" r="2.8" fill="#2ca02c"/><circle cx="987.1" cy="1182.0" r="2.8" fill="#2ca02c"/><circle cx="1038.9" cy="1199.7" r="2.8" fill="#2ca02c"/><circle cx="1090.7" cy="1207.5" r="2.8" fill="#2ca02c"/><circle cx="1194.3" cy="1215.4" r="2.8" fill="#2ca02c"/><circle cx="1297.8" cy="1220.4" r="2.8" fill="#2ca02c"/><circle cx="1505.0" cy="1224.1" r="2.8" fill="#2ca02c"/><text class="small" x="845.0" y="1101.25" transform="rotate(-90 845.0,1101.25)" text-anchor="middle">uProf GB/s per thread</text><text x="432.5" y="1347.5" text-anchor="middle" font-size="18">mixed target0</text><line class="grid" x1="145.0" y1="1372.5" x2="760.0" y2="1372.5"/><text class="small" x="137.0" y="1376.5" text-anchor="end">45</text><line class="grid" x1="145.0" y1="1427.0" x2="760.0" y2="1427.0"/><text class="small" x="137.0" y="1431.0" text-anchor="end">36</text><line class="grid" x1="145.0" y1="1481.5" x2="760.0" y2="1481.5"/><text class="small" x="137.0" y="1485.5" text-anchor="end">27</text><line class="grid" x1="145.0" y1="1536.0" x2="760.0" y2="1536.0"/><text class="small" x="137.0" y="1540.0" text-anchor="end">18</text><line class="grid" x1="145.0" y1="1590.5" x2="760.0" y2="1590.5"/><text class="small" x="137.0" y="1594.5" text-anchor="end">9</text><line class="grid" x1="145.0" y1="1645.0" x2="760.0" y2="1645.0"/><text class="small" x="137.0" y="1649.0" text-anchor="end">0</text><line class="axis" x1="145.0" y1="1645.0" x2="760.0" y2="1645.0"/><line class="axis" x1="145.0" y1="1372.5" x2="145.0" y2="1645.0"/><line class="grid" x1="145.0" y1="1645.0" x2="145.0" y2="1650.0"/><text class="small" x="145.0" y="1665.0" text-anchor="middle">1</text><line class="grid" x1="151.47368421052633" y1="1645.0" x2="151.47368421052633" y2="1650.0"/><text class="small" x="151.47368421052633" y="1665.0" text-anchor="middle">2</text><line class="grid" x1="164.42105263157896" y1="1645.0" x2="164.42105263157896" y2="1650.0"/><text class="small" x="164.42105263157896" y="1665.0" text-anchor="middle">4</text><line class="grid" x1="190.31578947368422" y1="1645.0" x2="190.31578947368422" y2="1650.0"/><text class="small" x="190.31578947368422" y="1665.0" text-anchor="middle">8</text><line class="grid" x1="216.21052631578948" y1="1645.0" x2="216.21052631578948" y2="1650.0"/><text class="small" x="216.21052631578948" y="1665.0" text-anchor="middle">12</text><line class="grid" x1="242.10526315789474" y1="1645.0" x2="242.10526315789474" y2="1650.0"/><text class="small" x="242.10526315789474" y="1665.0" text-anchor="middle">16</text><line class="grid" x1="293.89473684210526" y1="1645.0" x2="293.89473684210526" y2="1650.0"/><text class="small" x="293.89473684210526" y="1665.0" text-anchor="middle">24</text><line class="grid" x1="345.6842105263158" y1="1645.0" x2="345.6842105263158" y2="1650.0"/><text class="small" x="345.6842105263158" y="1665.0" text-anchor="middle">32</text><line class="grid" x1="449.2631578947368" y1="1645.0" x2="449.2631578947368" y2="1650.0"/><text class="small" x="449.2631578947368" y="1665.0" text-anchor="middle">48</text><line class="grid" x1="552.8421052631579" y1="1645.0" x2="552.8421052631579" y2="1650.0"/><text class="small" x="552.8421052631579" y="1665.0" text-anchor="middle">64</text><line class="grid" x1="760.0" y1="1645.0" x2="760.0" y2="1650.0"/><text class="small" x="760.0" y="1665.0" text-anchor="middle">96</text><polyline fill="none" stroke="#1f77b4" stroke-width="2.5" points="145.0,1434.9 151.5,1448.0 164.4,1489.1 190.3,1537.9 216.2,1572.3 242.1,1590.4 293.9,1609.1 345.7,1618.2 449.3,1626.1 552.8,1631.5 760.0,1635.8"/><circle cx="145.0" cy="1434.9" r="2.8" fill="#1f77b4"/><circle cx="151.5" cy="1448.0" r="2.8" fill="#1f77b4"/><circle cx="164.4" cy="1489.1" r="2.8" fill="#1f77b4"/><circle cx="190.3" cy="1537.9" r="2.8" fill="#1f77b4"/><circle cx="216.2" cy="1572.3" r="2.8" fill="#1f77b4"/><circle cx="242.1" cy="1590.4" r="2.8" fill="#1f77b4"/><circle cx="293.9" cy="1609.1" r="2.8" fill="#1f77b4"/><circle cx="345.7" cy="1618.2" r="2.8" fill="#1f77b4"/><circle cx="449.3" cy="1626.1" r="2.8" fill="#1f77b4"/><circle cx="552.8" cy="1631.5" r="2.8" fill="#1f77b4"/><circle cx="760.0" cy="1635.8" r="2.8" fill="#1f77b4"/><polyline fill="none" stroke="#d62728" stroke-width="2.5" points="145.0,1434.3 151.5,1446.6 164.4,1484.7 190.3,1538.0 216.2,1572.4 242.1,1590.3 293.9,1608.9 345.7,1618.2 449.3,1626.1 552.8,1631.3 760.0,1635.8"/><circle cx="145.0" cy="1434.3" r="2.8" fill="#d62728"/><circle cx="151.5" cy="1446.6" r="2.8" fill="#d62728"/><circle cx="164.4" cy="1484.7" r="2.8" fill="#d62728"/><circle cx="190.3" cy="1538.0" r="2.8" fill="#d62728"/><circle cx="216.2" cy="1572.4" r="2.8" fill="#d62728"/><circle cx="242.1" cy="1590.3" r="2.8" fill="#d62728"/><circle cx="293.9" cy="1608.9" r="2.8" fill="#d62728"/><circle cx="345.7" cy="1618.2" r="2.8" fill="#d62728"/><circle cx="449.3" cy="1626.1" r="2.8" fill="#d62728"/><circle cx="552.8" cy="1631.3" r="2.8" fill="#d62728"/><circle cx="760.0" cy="1635.8" r="2.8" fill="#d62728"/><polyline fill="none" stroke="#2ca02c" stroke-width="2.5" points="145.0,1433.6 151.5,1446.0 164.4,1486.8 190.3,1537.6 216.2,1572.0 242.1,1590.1 293.9,1608.6 345.7,1618.2 449.3,1626.1 552.8,1631.5 760.0,1635.4"/><circle cx="145.0" cy="1433.6" r="2.8" fill="#2ca02c"/><circle cx="151.5" cy="1446.0" r="2.8" fill="#2ca02c"/><circle cx="164.4" cy="1486.8" r="2.8" fill="#2ca02c"/><circle cx="190.3" cy="1537.6" r="2.8" fill="#2ca02c"/><circle cx="216.2" cy="1572.0" r="2.8" fill="#2ca02c"/><circle cx="242.1" cy="1590.1" r="2.8" fill="#2ca02c"/><circle cx="293.9" cy="1608.6" r="2.8" fill="#2ca02c"/><circle cx="345.7" cy="1618.2" r="2.8" fill="#2ca02c"/><circle cx="449.3" cy="1626.1" r="2.8" fill="#2ca02c"/><circle cx="552.8" cy="1631.5" r="2.8" fill="#2ca02c"/><circle cx="760.0" cy="1635.4" r="2.8" fill="#2ca02c"/><text class="small" x="100.0" y="1513.75" transform="rotate(-90 100.0,1513.75)" text-anchor="middle">uProf GB/s per thread</text><text x="1177.5" y="1347.5" text-anchor="middle" font-size="18">mixed target1</text><line class="grid" x1="890.0" y1="1372.5" x2="1505.0" y2="1372.5"/><text class="small" x="882.0" y="1376.5" text-anchor="end">45</text><line class="grid" x1="890.0" y1="1427.0" x2="1505.0" y2="1427.0"/><text class="small" x="882.0" y="1431.0" text-anchor="end">36</text><line class="grid" x1="890.0" y1="1481.5" x2="1505.0" y2="1481.5"/><text class="small" x="882.0" y="1485.5" text-anchor="end">27</text><line class="grid" x1="890.0" y1="1536.0" x2="1505.0" y2="1536.0"/><text class="small" x="882.0" y="1540.0" text-anchor="end">18</text><line class="grid" x1="890.0" y1="1590.5" x2="1505.0" y2="1590.5"/><text class="small" x="882.0" y="1594.5" text-anchor="end">9</text><line class="grid" x1="890.0" y1="1645.0" x2="1505.0" y2="1645.0"/><text class="small" x="882.0" y="1649.0" text-anchor="end">0</text><line class="axis" x1="890.0" y1="1645.0" x2="1505.0" y2="1645.0"/><line class="axis" x1="890.0" y1="1372.5" x2="890.0" y2="1645.0"/><line class="grid" x1="890.0" y1="1645.0" x2="890.0" y2="1650.0"/><text class="small" x="890.0" y="1665.0" text-anchor="middle">1</text><line class="grid" x1="896.4736842105264" y1="1645.0" x2="896.4736842105264" y2="1650.0"/><text class="small" x="896.4736842105264" y="1665.0" text-anchor="middle">2</text><line class="grid" x1="909.421052631579" y1="1645.0" x2="909.421052631579" y2="1650.0"/><text class="small" x="909.421052631579" y="1665.0" text-anchor="middle">4</text><line class="grid" x1="935.3157894736842" y1="1645.0" x2="935.3157894736842" y2="1650.0"/><text class="small" x="935.3157894736842" y="1665.0" text-anchor="middle">8</text><line class="grid" x1="961.2105263157895" y1="1645.0" x2="961.2105263157895" y2="1650.0"/><text class="small" x="961.2105263157895" y="1665.0" text-anchor="middle">12</text><line class="grid" x1="987.1052631578948" y1="1645.0" x2="987.1052631578948" y2="1650.0"/><text class="small" x="987.1052631578948" y="1665.0" text-anchor="middle">16</text><line class="grid" x1="1038.8947368421052" y1="1645.0" x2="1038.8947368421052" y2="1650.0"/><text class="small" x="1038.8947368421052" y="1665.0" text-anchor="middle">24</text><line class="grid" x1="1090.6842105263158" y1="1645.0" x2="1090.6842105263158" y2="1650.0"/><text class="small" x="1090.6842105263158" y="1665.0" text-anchor="middle">32</text><line class="grid" x1="1194.2631578947369" y1="1645.0" x2="1194.2631578947369" y2="1650.0"/><text class="small" x="1194.2631578947369" y="1665.0" text-anchor="middle">48</text><line class="grid" x1="1297.842105263158" y1="1645.0" x2="1297.842105263158" y2="1650.0"/><text class="small" x="1297.842105263158" y="1665.0" text-anchor="middle">64</text><line class="grid" x1="1505.0" y1="1645.0" x2="1505.0" y2="1650.0"/><text class="small" x="1505.0" y="1665.0" text-anchor="middle">96</text><polyline fill="none" stroke="#1f77b4" stroke-width="2.5" points="890.0,1423.7 896.5,1437.7 909.4,1476.5 935.3,1534.6 961.2,1568.6 987.1,1585.9 1038.9,1605.7 1090.7,1615.4 1194.3,1624.5 1297.8,1630.9 1505.0,1634.9"/><circle cx="890.0" cy="1423.7" r="2.8" fill="#1f77b4"/><circle cx="896.5" cy="1437.7" r="2.8" fill="#1f77b4"/><circle cx="909.4" cy="1476.5" r="2.8" fill="#1f77b4"/><circle cx="935.3" cy="1534.6" r="2.8" fill="#1f77b4"/><circle cx="961.2" cy="1568.6" r="2.8" fill="#1f77b4"/><circle cx="987.1" cy="1585.9" r="2.8" fill="#1f77b4"/><circle cx="1038.9" cy="1605.7" r="2.8" fill="#1f77b4"/><circle cx="1090.7" cy="1615.4" r="2.8" fill="#1f77b4"/><circle cx="1194.3" cy="1624.5" r="2.8" fill="#1f77b4"/><circle cx="1297.8" cy="1630.9" r="2.8" fill="#1f77b4"/><circle cx="1505.0" cy="1634.9" r="2.8" fill="#1f77b4"/><polyline fill="none" stroke="#d62728" stroke-width="2.5" points="890.0,1420.7 896.5,1436.7 909.4,1475.9 935.3,1532.7 961.2,1567.3 987.1,1587.2 1038.9,1605.8 1090.7,1615.2 1194.3,1624.6 1297.8,1630.6 1505.0,1635.0"/><circle cx="890.0" cy="1420.7" r="2.8" fill="#d62728"/><circle cx="896.5" cy="1436.7" r="2.8" fill="#d62728"/><circle cx="909.4" cy="1475.9" r="2.8" fill="#d62728"/><circle cx="935.3" cy="1532.7" r="2.8" fill="#d62728"/><circle cx="961.2" cy="1567.3" r="2.8" fill="#d62728"/><circle cx="987.1" cy="1587.2" r="2.8" fill="#d62728"/><circle cx="1038.9" cy="1605.8" r="2.8" fill="#d62728"/><circle cx="1090.7" cy="1615.2" r="2.8" fill="#d62728"/><circle cx="1194.3" cy="1624.6" r="2.8" fill="#d62728"/><circle cx="1297.8" cy="1630.6" r="2.8" fill="#d62728"/><circle cx="1505.0" cy="1635.0" r="2.8" fill="#d62728"/><polyline fill="none" stroke="#2ca02c" stroke-width="2.5" points="890.0,1422.3 896.5,1436.4 909.4,1481.6 935.3,1533.6 961.2,1567.5 987.1,1586.7 1038.9,1605.5 1090.7,1615.2 1194.3,1624.7 1297.8,1630.5 1505.0,1634.8"/><circle cx="890.0" cy="1422.3" r="2.8" fill="#2ca02c"/><circle cx="896.5" cy="1436.4" r="2.8" fill="#2ca02c"/><circle cx="909.4" cy="1481.6" r="2.8" fill="#2ca02c"/><circle cx="935.3" cy="1533.6" r="2.8" fill="#2ca02c"/><circle cx="961.2" cy="1567.5" r="2.8" fill="#2ca02c"/><circle cx="987.1" cy="1586.7" r="2.8" fill="#2ca02c"/><circle cx="1038.9" cy="1605.5" r="2.8" fill="#2ca02c"/><circle cx="1090.7" cy="1615.2" r="2.8" fill="#2ca02c"/><circle cx="1194.3" cy="1624.7" r="2.8" fill="#2ca02c"/><circle cx="1297.8" cy="1630.5" r="2.8" fill="#2ca02c"/><circle cx="1505.0" cy="1634.8" r="2.8" fill="#2ca02c"/><text class="small" x="845.0" y="1513.75" transform="rotate(-90 845.0,1513.75)" text-anchor="middle">uProf GB/s per thread</text></svg>