<svg xmlns="http://www.w3.org/2000/svg" width="1600" height="1800" viewBox="0 0 1600 1800"><style>text{font-family:monospace;fill:#111}.small{font-size:14px}.axis{stroke:#444;stroke-width:1}.grid{stroke:#ddd;stroke-width:1}</style><rect x="0" y="0" width="1600" height="1800" fill="white"/><text x="800.0" y="40" text-anchor="middle" font-size="24">mem_bw_stress aggregate throughput vs threads (4KiB)</text><text x="800.0" y="70" text-anchor="middle" font-size="16">threads per process on X axis</text><line x1="1320" y1="30" x2="1348" y2="30" stroke="#1f77b4" stroke-width="3"/><text x="1356" y="35" font-size="14">1302</text><line x1="1320" y1="54" x2="1348" y2="54" stroke="#d62728" stroke-width="3"/><text x="1356" y="59" font-size="14">1306</text><line x1="1320" y1="78" x2="1348" y2="78" stroke="#2ca02c" stroke-width="3"/><text x="1356" y="83" font-size="14">1308</text><text x="432.5" y="110.0" text-anchor="middle" font-size="18">local numa0</text><line class="grid" x1="145.0" y1="135.0" x2="760.0" y2="135.0"/><text class="small" x="137.0" y="139.0" text-anchor="end">275</text><line class="grid" x1="145.0" y1="189.5" x2="760.0" y2="189.5"/><text class="small" x="137.0" y="193.5" text-anchor="end">220</text><line class="grid" x1="145.0" y1="244.0" x2="760.0" y2="244.0"/><text class="small" x="137.0" y="248.0" text-anchor="end">165</text><line class="grid" x1="145.0" y1="298.5" x2="760.0" y2="298.5"/><text class="small" x="137.0" y="302.5" text-anchor="end">110</text><line class="grid" x1="145.0" y1="353.0" x2="760.0" y2="353.0"/><text class="small" x="137.0" y="357.0" text-anchor="end">55</text><line class="grid" x1="145.0" y1="407.5" x2="760.0" y2="407.5"/><text class="small" x="137.0" y="411.5" text-anchor="end">0</text><line class="axis" x1="145.0" y1="407.5" x2="760.0" y2="407.5"/><line class="axis" x1="145.0" y1="135.0" x2="145.0" y2="407.5"/><line class="grid" x1="145.0" y1="407.5" x2="145.0" y2="412.5"/><text class="small" x="145.0" y="427.5" text-anchor="middle">1</text><line class="grid" x1="151.47368421052633" y1="407.5" x2="151.47368421052633" y2="412.5"/><text class="small" x="151.47368421052633" y="427.5" text-anchor="middle">2</text><line class="grid" x1="164.42105263157896" y1="407.5" x2="164.42105263157896" y2="412.5"/><text class="small" x="164.42105263157896" y="427.5" text-anchor="middle">4</text><line class="grid" x1="190.31578947368422" y1="407.5" x2="190.31578947368422" y2="412.5"/><text class="small" x="190.31578947368422" y="427.5" text-anchor="middle">8</text><line class="grid" x1="216.21052631578948" y1="407.5" x2="216.21052631578948" y2="412.5"/><text class="small" x="216.21052631578948" y="427.5" text-anchor="middle">12</text><line class="grid" x1="242.10526315789474" y1="407.5" x2="242.10526315789474" y2="412.5"/><text class="small" x="242.10526315789474" y="427.5" text-anchor="middle">16</text><line class="grid" x1="293.89473684210526" y1="407.5" x2="293.89473684210526" y2="412.5"/><text class="small" x="293.89473684210526" y="427.5" text-anchor="middle">24</text><line class="grid" x1="345.6842105263158" y1="407.5" x2="345.6842105263158" y2="412.5"/><text class="small" x="345.6842105263158" y="427.5" text-anchor="middle">32</text><line class="grid" x1="449.2631578947368" y1="407.5" x2="449.2631578947368" y2="412.5"/><text class="small" x="449.2631578947368" y="427.5" text-anchor="middle">48</text><line class="grid" x1="552.8421052631579" y1="407.5" x2="552.8421052631579" y2="412.5"/><text class="small" x="552.8421052631579" y="427.5" text-anchor="middle">64</text><line class="grid" x1="760.0" y1="407.5" x2="760.0" y2="412.5"/><text class="small" x="760.0" y="427.5" text-anchor="middle">96</text><polyline fill="none" stroke="#1f77b4" stroke-width="2.5" points="145.0,371.3 151.5,341.9 164.4,296.9 190.3,289.1 216.2,295.0 242.1,255.1 293.9,197.2 345.7,190.8 449.3,194.2 552.8,195.1 760.0,196.6"/><circle cx="145.0" cy="371.3" r="2.8" fill="#1f77b4"/><circle cx="151.5" cy="341.9" r="2.8" fill="#1f77b4"/><circle cx="164.4" cy="296.9" r="2.8" fill="#1f77b4"/><circle cx="190.3" cy="289.1" r="2.8" fill="#1f77b4"/><circle cx="216.2" cy="295.0" r="2.8" fill="#1f77b4"/><circle cx="242.1" cy="255.1" r="2.8" fill="#1f77b4"/><circle cx="293.9" cy="197.2" r="2.8" fill="#1f77b4"/><circle cx="345.7" cy="190.8" r="2.8" fill="#1f77b4"/><circle cx="449.3" cy="194.2" r="2.8" fill="#1f77b4"/><circle cx="552.8" cy="195.1" r="2.8" fill="#1f77b4"/><circle cx="760.0" cy="196.6" r="2.8" fill="#1f77b4"/><polyline fill="none" stroke="#d62728" stroke-width="2.5" points="145.0,371.6 151.5,341.1 164.4,293.1 190.3,290.3 216.2,288.5 242.1,256.8 293.9,193.6 345.7,190.9 449.3,193.7 552.8,195.2 760.0,196.1"/><circle cx="145.0" cy="371.6" r="2.8" fill="#d62728"/><circle cx="151.5" cy="341.1" r="2.8" fill="#d62728"/><circle cx="164.4" cy="293.1" r="2.8" fill="#d62728"/><circle cx="190.3" cy="290.3" r="2.8" fill="#d62728"/><circle cx="216.2" cy="288.5" r="2.8" fill="#d62728"/><circle cx="242.1" cy="256.8" r="2.8" fill="#d62728"/><circle cx="293.9" cy="193.6" r="2.8" fill="#d62728"/><circle cx="345.7" cy="190.9" r="2.8" fill="#d62728"/><circle cx="449.3" cy="193.7" r="2.8" fill="#d62728"/><circle cx="552.8" cy="195.2" r="2.8" fill="#d62728"/><circle cx="760.0" cy="196.1" r="2.8" fill="#d62728"/><polyline fill="none" stroke="#2ca02c" stroke-width="2.5" points="145.0,370.6 151.5,342.1 164.4,303.7 190.3,299.9 216.2,300.0 242.1,261.2 293.9,194.0 345.7,191.3 449.3,193.4 552.8,195.3 760.0,196.2"/><circle cx="145.0" cy="370.6" r="2.8" fill="#2ca02c"/><circle cx="151.5" cy="342.1" r="2.8" fill="#2ca02c"/><circle cx="164.4" cy="303.7" r="2.8" fill="#2ca02c"/><circle cx="190.3" cy="299.9" r="2.8" fill="#2ca02c"/><circle cx="216.2" cy="300.0" r="2.8" fill="#2ca02c"/><circle cx="242.1" cy="261.2" r="2.8" fill="#2ca02c"/><circle cx="293.9" cy="194.0" r="2.8" fill="#2ca02c"/><circle cx="345.7" cy="191.3" r="2.8" fill="#2ca02c"/><circle cx="449.3" cy="193.4" r="2.8" fill="#2ca02c"/><circle cx="552.8" cy="195.3" r="2.8" fill="#2ca02c"/><circle cx="760.0" cy="196.2" r="2.8" fill="#2ca02c"/><text class="small" x="100.0" y="276.25" transform="rotate(-90 100.0,276.25)" text-anchor="middle">bench traffic GB/s</text><text x="1177.5" y="110.0" text-anchor="middle" font-size="18">local numa1</text><line class="grid" x1="890.0" y1="135.0" x2="1505.0" y2="135.0"/><text class="small" x="882.0" y="139.0" text-anchor="end">275</text><line class="grid" x1="890.0" y1="189.5" x2="1505.0" y2="189.5"/><text class="small" x="882.0" y="193.5" text-anchor="end">220</text><line class="grid" x1="890.0" y1="244.0" x2="1505.0" y2="244.0"/><text class="small" x="882.0" y="248.0" text-anchor="end">165</text><line class="grid" x1="890.0" y1="298.5" x2="1505.0" y2="298.5"/><text class="small" x="882.0" y="302.5" text-anchor="end">110</text><line class="grid" x1="890.0" y1="353.0" x2="1505.0" y2="353.0"/><text class="small" x="882.0" y="357.0" text-anchor="end">55</text><line class="grid" x1="890.0" y1="407.5" x2="1505.0" y2="407.5"/><text class="small" x="882.0" y="411.5" text-anchor="end">0</text><line class="axis" x1="890.0" y1="407.5" x2="1505.0" y2="407.5"/><line class="axis" x1="890.0" y1="135.0" x2="890.0" y2="407.5"/><line class="grid" x1="890.0" y1="407.5" x2="890.0" y2="412.5"/><text class="small" x="890.0" y="427.5" text-anchor="middle">1</text><line class="grid" x1="896.4736842105264" y1="407.5" x2="896.4736842105264" y2="412.5"/><text class="small" x="896.4736842105264" y="427.5" text-anchor="middle">2</text><line class="grid" x1="909.421052631579" y1="407.5" x2="909.421052631579" y2="412.5"/><text class="small" x="909.421052631579" y="427.5" text-anchor="middle">4</text><line class="grid" x1="935.3157894736842" y1="407.5" x2="935.3157894736842" y2="412.5"/><text class="small" x="935.3157894736842" y="427.5" text-anchor="middle">8</text><line class="grid" x1="961.2105263157895" y1="407.5" x2="961.2105263157895" y2="412.5"/><text class="small" x="961.2105263157895" y="427.5" text-anchor="middle">12</text><line class="grid" x1="987.1052631578948" y1="407.5" x2="987.1052631578948" y2="412.5"/><text class="small" x="987.1052631578948" y="427.5" text-anchor="middle">16</text><line class="grid" x1="1038.8947368421052" y1="407.5" x2="1038.8947368421052" y2="412.5"/><text class="small" x="1038.8947368421052" y="427.5" text-anchor="middle">24</text><line class="grid" x1="1090.6842105263158" y1="407.5" x2="1090.6842105263158" y2="412.5"/><text class="small" x="1090.6842105263158" y="427.5" text-anchor="middle">32</text><line class="grid" x1="1194.2631578947369" y1="407.5" x2="1194.2631578947369" y2="412.5"/><text class="small" x="1194.2631578947369" y="427.5" text-anchor="middle">48</text><line class="grid" x1="1297.842105263158" y1="407.5" x2="1297.842105263158" y2="412.5"/><text class="small" x="1297.842105263158" y="427.5" text-anchor="middle">64</text><line class="grid" x1="1505.0" y1="407.5" x2="1505.0" y2="412.5"/><text class="small" x="1505.0" y="427.5" text-anchor="middle">96</text><polyline fill="none" stroke="#1f77b4" stroke-width="2.5" points="890.0,370.4 896.5,338.2 909.4,302.0 935.3,289.0 961.2,294.6 987.1,255.2 1038.9,194.4 1090.7,191.3 1194.3,193.6 1297.8,195.1 1505.0,196.2"/><circle cx="890.0" cy="370.4" r="2.8" fill="#1f77b4"/><circle cx="896.5" cy="338.2" r="2.8" fill="#1f77b4"/><circle cx="909.4" cy="302.0" r="2.8" fill="#1f77b4"/><circle cx="935.3" cy="289.0" r="2.8" fill="#1f77b4"/><circle cx="961.2" cy="294.6" r="2.8" fill="#1f77b4"/><circle cx="987.1" cy="255.2" r="2.8" fill="#1f77b4"/><circle cx="1038.9" cy="194.4" r="2.8" fill="#1f77b4"/><circle cx="1090.7" cy="191.3" r="2.8" fill="#1f77b4"/><circle cx="1194.3" cy="193.6" r="2.8" fill="#1f77b4"/><circle cx="1297.8" cy="195.1" r="2.8" fill="#1f77b4"/><circle cx="1505.0" cy="196.2" r="2.8" fill="#1f77b4"/><polyline fill="none" stroke="#d62728" stroke-width="2.5" points="890.0,371.2 896.5,341.8 909.4,296.6 935.3,295.4 961.2,291.5 987.1,263.4 1038.9,189.4 1090.7,191.2 1194.3,195.1 1297.8,195.4 1505.0,196.5"/><circle cx="890.0" cy="371.2" r="2.8" fill="#d62728"/><circle cx="896.5" cy="341.8" r="2.8" fill="#d62728"/><circle cx="909.4" cy="296.6" r="2.8" fill="#d62728"/><circle cx="935.3" cy="295.4" r="2.8" fill="#d62728"/><circle cx="961.2" cy="291.5" r="2.8" fill="#d62728"/><circle cx="987.1" cy="263.4" r="2.8" fill="#d62728"/><circle cx="1038.9" cy="189.4" r="2.8" fill="#d62728"/><circle cx="1090.7" cy="191.2" r="2.8" fill="#d62728"/><circle cx="1194.3" cy="195.1" r="2.8" fill="#d62728"/><circle cx="1297.8" cy="195.4" r="2.8" fill="#d62728"/><circle cx="1505.0" cy="196.5" r="2.8" fill="#d62728"/><polyline fill="none" stroke="#2ca02c" stroke-width="2.5" points="890.0,371.0 896.5,339.9 909.4,293.4 935.3,292.8 961.2,290.4 987.1,254.6 1038.9,192.9 1090.7,191.2 1194.3,194.7 1297.8,195.3 1505.0,196.6"/><circle cx="890.0" cy="371.0" r="2.8" fill="#2ca02c"/><circle cx="896.5" cy="339.9" r="2.8" fill="#2ca02c"/><circle cx="909.4" cy="293.4" r="2.8" fill="#2ca02c"/><circle cx="935.3" cy="292.8" r="2.8" fill="#2ca02c"/><circle cx="961.2" cy="290.4" r="2.8" fill="#2ca02c"/><circle cx="987.1" cy="254.6" r="2.8" fill="#2ca02c"/><circle cx="1038.9" cy="192.9" r="2.8" fill="#2ca02c"/><circle cx="1090.7" cy="191.2" r="2.8" fill="#2ca02c"/><circle cx="1194.3" cy="194.7" r="2.8" fill="#2ca02c"/><circle cx="1297.8" cy="195.3" r="2.8" fill="#2ca02c"/><circle cx="1505.0" cy="196.6" r="2.8" fill="#2ca02c"/><text class="small" x="845.0" y="276.25" transform="rotate(-90 845.0,276.25)" text-anchor="middle">bench traffic GB/s</text><text x="432.5" y="522.5" text-anchor="middle" font-size="18">remote 0-&gt;1</text><line class="grid" x1="145.0" y1="547.5" x2="760.0" y2="547.5"/><text class="small" x="137.0" y="551.5" text-anchor="end">150</text><line class="grid" x1="145.0" y1="602.0" x2="760.0" y2="602.0"/><text class="small" x="137.0" y="606.0" text-anchor="end">120</text><line class="grid" x1="145.0" y1="656.5" x2="760.0" y2="656.5"/><text class="small" x="137.0" y="660.5" text-anchor="end">90</text><line class="grid" x1="145.0" y1="711.0" x2="760.0" y2="711.0"/><text class="small" x="137.0" y="715.0" text-anchor="end">60</text><line class="grid" x1="145.0" y1="765.5" x2="760.0" y2="765.5"/><text class="small" x="137.0" y="769.5" text-anchor="end">30</text><line class="grid" x1="145.0" y1="820.0" x2="760.0" y2="820.0"/><text class="small" x="137.0" y="824.0" text-anchor="end">0</text><line class="axis" x1="145.0" y1="820.0" x2="760.0" y2="820.0"/><line class="axis" x1="145.0" y1="547.5" x2="145.0" y2="820.0"/><line class="grid" x1="145.0" y1="820.0" x2="145.0" y2="825.0"/><text class="small" x="145.0" y="840.0" text-anchor="middle">1</text><line class="grid" x1="151.47368421052633" y1="820.0" x2="151.47368421052633" y2="825.0"/><text class="small" x="151.47368421052633" y="840.0" text-anchor="middle">2</text><line class="grid" x1="164.42105263157896" y1="820.0" x2="164.42105263157896" y2="825.0"/><text class="small" x="164.42105263157896" y="840.0" text-anchor="middle">4</text><line class="grid" x1="190.31578947368422" y1="820.0" x2="190.31578947368422" y2="825.0"/><text class="small" x="190.31578947368422" y="840.0" text-anchor="middle">8</text><line class="grid" x1="216.21052631578948" y1="820.0" x2="216.21052631578948" y2="825.0"/><text class="small" x="216.21052631578948" y="840.0" text-anchor="middle">12</text><line class="grid" x1="242.10526315789474" y1="820.0" x2="242.10526315789474" y2="825.0"/><text class="small" x="242.10526315789474" y="840.0" text-anchor="middle">16</text><line class="grid" x1="293.89473684210526" y1="820.0" x2="293.89473684210526" y2="825.0"/><text class="small" x="293.89473684210526" y="840.0" text-anchor="middle">24</text><line class="grid" x1="345.6842105263158" y1="820.0" x2="345.6842105263158" y2="825.0"/><text class="small" x="345.6842105263158" y="840.0" text-anchor="middle">32</text><line class="grid" x1="449.2631578947368" y1="820.0" x2="449.2631578947368" y2="825.0"/><text class="small" x="449.2631578947368" y="840.0" text-anchor="middle">48</text><line class="grid" x1="552.8421052631579" y1="820.0" x2="552.8421052631579" y2="825.0"/><text class="small" x="552.8421052631579" y="840.0" text-anchor="middle">64</text><line class="grid" x1="760.0" y1="820.0" x2="760.0" y2="825.0"/><text class="small" x="760.0" y="840.0" text-anchor="middle">96</text><polyline fill="none" stroke="#1f77b4" stroke-width="2.5" points="145.0,779.5 151.5,744.3 164.4,698.0 190.3,694.4 216.2,686.5 242.1,659.1 293.9,628.1 345.7,620.1 449.3,622.9 552.8,621.8 760.0,620.7"/><circle cx="145.0" cy="779.5" r="2.8" fill="#1f77b4"/><circle cx="151.5" cy="744.3" r="2.8" fill="#1f77b4"/><circle cx="164.4" cy="698.0" r="2.8" fill="#1f77b4"/><circle cx="190.3" cy="694.4" r="2.8" fill="#1f77b4"/><circle cx="216.2" cy="686.5" r="2.8" fill="#1f77b4"/><circle cx="242.1" cy="659.1" r="2.8" fill="#1f77b4"/><circle cx="293.9" cy="628.1" r="2.8" fill="#1f77b4"/><circle cx="345.7" cy="620.1" r="2.8" fill="#1f77b4"/><circle cx="449.3" cy="622.9" r="2.8" fill="#1f77b4"/><circle cx="552.8" cy="621.8" r="2.8" fill="#1f77b4"/><circle cx="760.0" cy="620.7" r="2.8" fill="#1f77b4"/><polyline fill="none" stroke="#d62728" stroke-width="2.5" points="145.0,779.6 151.5,744.2 164.4,702.3 190.3,684.0 216.2,689.1 242.1,657.5 293.9,629.0 345.7,619.4 449.3,622.5 552.8,621.5 760.0,620.6"/><circle cx="145.0" cy="779.6" r="2.8" fill="#d62728"/><circle cx="151.5" cy="744.2" r="2.8" fill="#d62728"/><circle cx="164.4" cy="702.3" r="2.8" fill="#d62728"/><circle cx="190.3" cy="684.0" r="2.8" fill="#d62728"/><circle cx="216.2" cy="689.1" r="2.8" fill="#d62728"/><circle cx="242.1" cy="657.5" r="2.8" fill="#d62728"/><circle cx="293.9" cy="629.0" r="2.8" fill="#d62728"/><circle cx="345.7" cy="619.4" r="2.8" fill="#d62728"/><circle cx="449.3" cy="622.5" r="2.8" fill="#d62728"/><circle cx="552.8" cy="621.5" r="2.8" fill="#d62728"/><circle cx="760.0" cy="620.6" r="2.8" fill="#d62728"/><polyline fill="none" stroke="#2ca02c" stroke-width="2.5" points="145.0,779.2 151.5,745.1 164.4,708.2 190.3,687.9 216.2,686.3 242.1,657.4 293.9,621.4 345.7,619.5 449.3,622.8 552.8,621.7 760.0,621.2"/><circle cx="145.0" cy="779.2" r="2.8" fill="#2ca02c"/><circle cx="151.5" cy="745.1" r="2.8" fill="#2ca02c"/><circle cx="164.4" cy="708.2" r="2.8" fill="#2ca02c"/><circle cx="190.3" cy="687.9" r="2.8" fill="#2ca02c"/><circle cx="216.2" cy="686.3" r="2.8" fill="#2ca02c"/><circle cx="242.1" cy="657.4" r="2.8" fill="#2ca02c"/><circle cx="293.9" cy="621.4" r="2.8" fill="#2ca02c"/><circle cx="345.7" cy="619.5" r="2.8" fill="#2ca02c"/><circle cx="449.3" cy="622.8" r="2.8" fill="#2ca02c"/><circle cx="552.8" cy="621.7" r="2.8" fill="#2ca02c"/><circle cx="760.0" cy="621.2" r="2.8" fill="#2ca02c"/><text class="small" x="100.0" y="688.75" transform="rotate(-90 100.0,688.75)" text-anchor="middle">bench traffic GB/s</text><text x="1177.5" y="522.5" text-anchor="middle" font-size="18">remote 1-&gt;0</text><line class="grid" x1="890.0" y1="547.5" x2="1505.0" y2="547.5"/><text class="small" x="882.0" y="551.5" text-anchor="end">150</text><line class="grid" x1="890.0" y1="602.0" x2="1505.0" y2="602.0"/><text class="small" x="882.0" y="606.0" text-anchor="end">120</text><line class="grid" x1="890.0" y1="656.5" x2="1505.0" y2="656.5"/><text class="small" x="882.0" y="660.5" text-anchor="end">90</text><line class="grid" x1="890.0" y1="711.0" x2="1505.0" y2="711.0"/><text class="small" x="882.0" y="715.0" text-anchor="end">60</text><line class="grid" x1="890.0" y1="765.5" x2="1505.0" y2="765.5"/><text class="small" x="882.0" y="769.5" text-anchor="end">30</text><line class="grid" x1="890.0" y1="820.0" x2="1505.0" y2="820.0"/><text class="small" x="882.0" y="824.0" text-anchor="end">0</text><line class="axis" x1="890.0" y1="820.0" x2="1505.0" y2="820.0"/><line class="axis" x1="890.0" y1="547.5" x2="890.0" y2="820.0"/><line class="grid" x1="890.0" y1="820.0" x2="890.0" y2="825.0"/><text class="small" x="890.0" y="840.0" text-anchor="middle">1</text><line class="grid" x1="896.4736842105264" y1="820.0" x2="896.4736842105264" y2="825.0"/><text class="small" x="896.4736842105264" y="840.0" text-anchor="middle">2</text><line class="grid" x1="909.421052631579" y1="820.0" x2="909.421052631579" y2="825.0"/><text class="small" x="909.421052631579" y="840.0" text-anchor="middle">4</text><line class="grid" x1="935.3157894736842" y1="820.0" x2="935.3157894736842" y2="825.0"/><text class="small" x="935.3157894736842" y="840.0" text-anchor="middle">8</text><line class="grid" x1="961.2105263157895" y1="820.0" x2="961.2105263157895" y2="825.0"/><text class="small" x="961.2105263157895" y="840.0" text-anchor="middle">12</text><line class="grid" x1="987.1052631578948" y1="820.0" x2="987.1052631578948" y2="825.0"/><text class="small" x="987.1052631578948" y="840.0" text-anchor="middle">16</text><line class="grid" x1="1038.8947368421052" y1="820.0" x2="1038.8947368421052" y2="825.0"/><text class="small" x="1038.8947368421052" y="840.0" text-anchor="middle">24</text><line class="grid" x1="1090.6842105263158" y1="820.0" x2="1090.6842105263158" y2="825.0"/><text class="small" x="1090.6842105263158" y="840.0" text-anchor="middle">32</text><line class="grid" x1="1194.2631578947369" y1="820.0" x2="1194.2631578947369" y2="825.0"/><text class="small" x="1194.2631578947369" y="840.0" text-anchor="middle">48</text><line class="grid" x1="1297.842105263158" y1="820.0" x2="1297.842105263158" y2="825.0"/><text class="small" x="1297.842105263158" y="840.0" text-anchor="middle">64</text><line class="grid" x1="1505.0" y1="820.0" x2="1505.0" y2="825.0"/><text class="small" x="1505.0" y="840.0" text-anchor="middle">96</text><polyline fill="none" stroke="#1f77b4" stroke-width="2.5" points="890.0,778.9 896.5,741.1 909.4,704.5 935.3,689.5 961.2,683.1 987.1,659.3 1038.9,622.6 1090.7,623.8 1194.3,623.7 1297.8,622.8 1505.0,621.7"/><circle cx="890.0" cy="778.9" r="2.8" fill="#1f77b4"/><circle cx="896.5" cy="741.1" r="2.8" fill="#1f77b4"/><circle cx="909.4" cy="704.5" r="2.8" fill="#1f77b4"/><circle cx="935.3" cy="689.5" r="2.8" fill="#1f77b4"/><circle cx="961.2" cy="683.1" r="2.8" fill="#1f77b4"/><circle cx="987.1" cy="659.3" r="2.8" fill="#1f77b4"/><circle cx="1038.9" cy="622.6" r="2.8" fill="#1f77b4"/><circle cx="1090.7" cy="623.8" r="2.8" fill="#1f77b4"/><circle cx="1194.3" cy="623.7" r="2.8" fill="#1f77b4"/><circle cx="1297.8" cy="622.8" r="2.8" fill="#1f77b4"/><circle cx="1505.0" cy="621.7" r="2.8" fill="#1f77b4"/><polyline fill="none" stroke="#d62728" stroke-width="2.5" points="890.0,780.2 896.5,744.6 909.4,704.6 935.3,686.7 961.2,686.9 987.1,662.1 1038.9,627.2 1090.7,624.1 1194.3,624.0 1297.8,622.9 1505.0,622.5"/><circle cx="890.0" cy="780.2" r="2.8" fill="#d62728"/><circle cx="896.5" cy="744.6" r="2.8" fill="#d62728"/><circle cx="909.4" cy="704.6" r="2.8" fill="#d62728"/><circle cx="935.3" cy="686.7" r="2.8" fill="#d62728"/><circle cx="961.2" cy="686.9" r="2.8" fill="#d62728"/><circle cx="987.1" cy="662.1" r="2.8" fill="#d62728"/><circle cx="1038.9" cy="627.2" r="2.8" fill="#d62728"/><circle cx="1090.7" cy="624.1" r="2.8" fill="#d62728"/><circle cx="1194.3" cy="624.0" r="2.8" fill="#d62728"/><circle cx="1297.8" cy="622.9" r="2.8" fill="#d62728"/><circle cx="1505.0" cy="622.5" r="2.8" fill="#d62728"/><polyline fill="none" stroke="#2ca02c" stroke-width="2.5" points="890.0,778.8 896.5,742.4 909.4,702.1 935.3,684.2 961.2,692.6 987.1,650.4 1038.9,627.3 1090.7,620.1 1194.3,623.4 1297.8,622.7 1505.0,622.0"/><circle cx="890.0" cy="778.8" r="2.8" fill="#2ca02c"/><circle cx="896.5" cy="742.4" r="2.8" fill="#2ca02c"/><circle cx="909.4" cy="702.1" r="2.8" fill="#2ca02c"/><circle cx="935.3" cy="684.2" r="2.8" fill="#2ca02c"/><circle cx="961.2" cy="692.6" r="2.8" fill="#2ca02c"/><circle cx="987.1" cy="650.4" r="2.8" fill="#2ca02c"/><circle cx="1038.9" cy="627.3" r="2.8" fill="#2ca02c"/><circle cx="1090.7" cy="620.1" r="2.8" fill="#2ca02c"/><circle cx="1194.3" cy="623.4" r="2.8" fill="#2ca02c"/><circle cx="1297.8" cy="622.7" r="2.8" fill="#2ca02c"/><circle cx="1505.0" cy="622.0" r="2.8" fill="#2ca02c"/><text class="small" x="845.0" y="688.75" transform="rotate(-90 845.0,688.75)" text-anchor="middle">bench traffic GB/s</text><text x="432.5" y="935.0" text-anchor="middle" font-size="18">dual local</text><line class="grid" x1="145.0" y1="960.0" x2="760.0" y2="960.0"/><text class="small" x="137.0" y="964.0" text-anchor="end">550</text><line class="grid" x1="145.0" y1="1014.5" x2="760.0" y2="1014.5"/><text class="small" x="137.0" y="1018.5" text-anchor="end">440</text><line class="grid" x1="145.0" y1="1069.0" x2="760.0" y2="1069.0"/><text class="small" x="137.0" y="1073.0" text-anchor="end">330</text><line class="grid" x1="145.0" y1="1123.5" x2="760.0" y2="1123.5"/><text class="small" x="137.0" y="1127.5" text-anchor="end">220</text><line class="grid" x1="145.0" y1="1178.0" x2="760.0" y2="1178.0"/><text class="small" x="137.0" y="1182.0" text-anchor="end">110</text><line class="grid" x1="145.0" y1="1232.5" x2="760.0" y2="1232.5"/><text class="small" x="137.0" y="1236.5" text-anchor="end">0</text><line class="axis" x1="145.0" y1="1232.5" x2="760.0" y2="1232.5"/><line class="axis" x1="145.0" y1="960.0" x2="145.0" y2="1232.5"/><line class="grid" x1="145.0" y1="1232.5" x2="145.0" y2="1237.5"/><text class="small" x="145.0" y="1252.5" text-anchor="middle">1</text><line class="grid" x1="151.47368421052633" y1="1232.5" x2="151.47368421052633" y2="1237.5"/><text class="small" x="151.47368421052633" y="1252.5" text-anchor="middle">2</text><line class="grid" x1="164.42105263157896" y1="1232.5" x2="164.42105263157896" y2="1237.5"/><text class="small" x="164.42105263157896" y="1252.5" text-anchor="middle">4</text><line class="grid" x1="190.31578947368422" y1="1232.5" x2="190.31578947368422" y2="1237.5"/><text class="small" x="190.31578947368422" y="1252.5" text-anchor="middle">8</text><line class="grid" x1="216.21052631578948" y1="1232.5" x2="216.21052631578948" y2="1237.5"/><text class="small" x="216.21052631578948" y="1252.5" text-anchor="middle">12</text><line class="grid" x1="242.10526315789474" y1="1232.5" x2="242.10526315789474" y2="1237.5"/><text class="small" x="242.10526315789474" y="1252.5" text-anchor="middle">16</text><line class="grid" x1="293.89473684210526" y1="1232.5" x2="293.89473684210526" y2="1237.5"/><text class="small" x="293.89473684210526" y="1252.5" text-anchor="middle">24</text><line class="grid" x1="345.6842105263158" y1="1232.5" x2="345.6842105263158" y2="1237.5"/><text class="small" x="345.6842105263158" y="1252.5" text-anchor="middle">32</text><line class="grid" x1="449.2631578947368" y1="1232.5" x2="449.2631578947368" y2="1237.5"/><text class="small" x="449.2631578947368" y="1252.5" text-anchor="middle">48</text><line class="grid" x1="552.8421052631579" y1="1232.5" x2="552.8421052631579" y2="1237.5"/><text class="small" x="552.8421052631579" y="1252.5" text-anchor="middle">64</text><line class="grid" x1="760.0" y1="1232.5" x2="760.0" y2="1237.5"/><text class="small" x="760.0" y="1252.5" text-anchor="middle">96</text><polyline fill="none" stroke="#1f77b4" stroke-width="2.5" points="145.0,1196.5 151.5,1167.1 164.4,1120.6 190.3,1120.4 216.2,1118.6 242.1,1083.1 293.9,1016.5 345.7,1016.4 449.3,1018.9 552.8,1020.6 760.0,1023.8"/><circle cx="145.0" cy="1196.5" r="2.8" fill="#1f77b4"/><circle cx="151.5" cy="1167.1" r="2.8" fill="#1f77b4"/><circle cx="164.4" cy="1120.6" r="2.8" fill="#1f77b4"/><circle cx="190.3" cy="1120.4" r="2.8" fill="#1f77b4"/><circle cx="216.2" cy="1118.6" r="2.8" fill="#1f77b4"/><circle cx="242.1" cy="1083.1" r="2.8" fill="#1f77b4"/><circle cx="293.9" cy="1016.5" r="2.8" fill="#1f77b4"/><circle cx="345.7" cy="1016.4" r="2.8" fill="#1f77b4"/><circle cx="449.3" cy="1018.9" r="2.8" fill="#1f77b4"/><circle cx="552.8" cy="1020.6" r="2.8" fill="#1f77b4"/><circle cx="760.0" cy="1023.8" r="2.8" fill="#1f77b4"/><polyline fill="none" stroke="#d62728" stroke-width="2.5" points="145.0,1196.4 151.5,1164.8 164.4,1126.4 190.3,1115.5 216.2,1118.6 242.1,1080.7 293.9,1015.2 345.7,1016.7 449.3,1019.6 552.8,1020.7 760.0,1023.5"/><circle cx="145.0" cy="1196.4" r="2.8" fill="#d62728"/><circle cx="151.5" cy="1164.8" r="2.8" fill="#d62728"/><circle cx="164.4" cy="1126.4" r="2.8" fill="#d62728"/><circle cx="190.3" cy="1115.5" r="2.8" fill="#d62728"/><circle cx="216.2" cy="1118.6" r="2.8" fill="#d62728"/><circle cx="242.1" cy="1080.7" r="2.8" fill="#d62728"/><circle cx="293.9" cy="1015.2" r="2.8" fill="#d62728"/><circle cx="345.7" cy="1016.7" r="2.8" fill="#d62728"/><circle cx="449.3" cy="1019.6" r="2.8" fill="#d62728"/><circle cx="552.8" cy="1020.7" r="2.8" fill="#d62728"/><circle cx="760.0" cy="1023.5" r="2.8" fill="#d62728"/><polyline fill="none" stroke="#2ca02c" stroke-width="2.5" points="145.0,1196.0 151.5,1167.6 164.4,1117.3 190.3,1120.9 216.2,1118.0 242.1,1084.1 293.9,1015.4 345.7,1016.6 449.3,1020.2 552.8,1021.0 760.0,1023.5"/><circle cx="145.0" cy="1196.0" r="2.8" fill="#2ca02c"/><circle cx="151.5" cy="1167.6" r="2.8" fill="#2ca02c"/><circle cx="164.4" cy="1117.3" r="2.8" fill="#2ca02c"/><circle cx="190.3" cy="1120.9" r="2.8" fill="#2ca02c"/><circle cx="216.2" cy="1118.0" r="2.8" fill="#2ca02c"/><circle cx="242.1" cy="1084.1" r="2.8" fill="#2ca02c"/><circle cx="293.9" cy="1015.4" r="2.8" fill="#2ca02c"/><circle cx="345.7" cy="1016.6" r="2.8" fill="#2ca02c"/><circle cx="449.3" cy="1020.2" r="2.8" fill="#2ca02c"/><circle cx="552.8" cy="1021.0" r="2.8" fill="#2ca02c"/><circle cx="760.0" cy="1023.5" r="2.8" fill="#2ca02c"/><text class="small" x="100.0" y="1101.25" transform="rotate(-90 100.0,1101.25)" text-anchor="middle">bench traffic GB/s</text><text x="1177.5" y="935.0" text-anchor="middle" font-size="18">dual cross</text><line class="grid" x1="890.0" y1="960.0" x2="1505.0" y2="960.0"/><text class="small" x="882.0" y="964.0" text-anchor="end">175</text><line class="grid" x1="890.0" y1="1014.5" x2="1505.0" y2="1014.5"/><text class="small" x="882.0" y="1018.5" text-anchor="end">140</text><line class="grid" x1="890.0" y1="1069.0" x2="1505.0" y2="1069.0"/><text class="small" x="882.0" y="1073.0" text-anchor="end">105</text><line class="grid" x1="890.0" y1="1123.5" x2="1505.0" y2="1123.5"/><text class="small" x="882.0" y="1127.5" text-anchor="end">70</text><line class="grid" x1="890.0" y1="1178.0" x2="1505.0" y2="1178.0"/><text class="small" x="882.0" y="1182.0" text-anchor="end">35</text><line class="grid" x1="890.0" y1="1232.5" x2="1505.0" y2="1232.5"/><text class="small" x="882.0" y="1236.5" text-anchor="end">0</text><line class="axis" x1="890.0" y1="1232.5" x2="1505.0" y2="1232.5"/><line class="axis" x1="890.0" y1="960.0" x2="890.0" y2="1232.5"/><line class="grid" x1="890.0" y1="1232.5" x2="890.0" y2="1237.5"/><text class="small" x="890.0" y="1252.5" text-anchor="middle">1</text><line class="grid" x1="896.4736842105264" y1="1232.5" x2="896.4736842105264" y2="1237.5"/><text class="small" x="896.4736842105264" y="1252.5" text-anchor="middle">2</text><line class="grid" x1="909.421052631579" y1="1232.5" x2="909.421052631579" y2="1237.5"/><text class="small" x="909.421052631579" y="1252.5" text-anchor="middle">4</text><line class="grid" x1="935.3157894736842" y1="1232.5" x2="935.3157894736842" y2="1237.5"/><text class="small" x="935.3157894736842" y="1252.5" text-anchor="middle">8</text><line class="grid" x1="961.2105263157895" y1="1232.5" x2="961.2105263157895" y2="1237.5"/><text class="small" x="961.2105263157895" y="1252.5" text-anchor="middle">12</text><line class="grid" x1="987.1052631578948" y1="1232.5" x2="987.1052631578948" y2="1237.5"/><text class="small" x="987.1052631578948" y="1252.5" text-anchor="middle">16</text><line class="grid" x1="1038.8947368421052" y1="1232.5" x2="1038.8947368421052" y2="1237.5"/><text class="small" x="1038.8947368421052" y="1252.5" text-anchor="middle">24</text><line class="grid" x1="1090.6842105263158" y1="1232.5" x2="1090.6842105263158" y2="1237.5"/><text class="small" x="1090.6842105263158" y="1252.5" text-anchor="middle">32</text><line class="grid" x1="1194.2631578947369" y1="1232.5" x2="1194.2631578947369" y2="1237.5"/><text class="small" x="1194.2631578947369" y="1252.5" text-anchor="middle">48</text><line class="grid" x1="1297.842105263158" y1="1232.5" x2="1297.842105263158" y2="1237.5"/><text class="small" x="1297.842105263158" y="1252.5" text-anchor="middle">64</text><line class="grid" x1="1505.0" y1="1232.5" x2="1505.0" y2="1237.5"/><text class="small" x="1505.0" y="1252.5" text-anchor="middle">96</text><polyline fill="none" stroke="#1f77b4" stroke-width="2.5" points="890.0,1165.8 896.5,1102.7 909.4,1048.9 935.3,1026.2 961.2,1025.9 987.1,1013.7 1038.9,1017.9 1090.7,1020.3 1194.3,1021.7 1297.8,1020.9 1505.0,1020.2"/><circle cx="890.0" cy="1165.8" r="2.8" fill="#1f77b4"/><circle cx="896.5" cy="1102.7" r="2.8" fill="#1f77b4"/><circle cx="909.4" cy="1048.9" r="2.8" fill="#1f77b4"/><circle cx="935.3" cy="1026.2" r="2.8" fill="#1f77b4"/><circle cx="961.2" cy="1025.9" r="2.8" fill="#1f77b4"/><circle cx="987.1" cy="1013.7" r="2.8" fill="#1f77b4"/><circle cx="1038.9" cy="1017.9" r="2.8" fill="#1f77b4"/><circle cx="1090.7" cy="1020.3" r="2.8" fill="#1f77b4"/><circle cx="1194.3" cy="1021.7" r="2.8" fill="#1f77b4"/><circle cx="1297.8" cy="1020.9" r="2.8" fill="#1f77b4"/><circle cx="1505.0" cy="1020.2" r="2.8" fill="#1f77b4"/><polyline fill="none" stroke="#d62728" stroke-width="2.5" points="890.0,1164.7 896.5,1102.3 909.4,1045.0 935.3,1024.7 961.2,1024.0 987.1,1013.3 1038.9,1016.9 1090.7,1018.8 1194.3,1020.5 1297.8,1021.7 1505.0,1020.2"/><circle cx="890.0" cy="1164.7" r="2.8" fill="#d62728"/><circle cx="896.5" cy="1102.3" r="2.8" fill="#d62728"/><circle cx="909.4" cy="1045.0" r="2.8" fill="#d62728"/><circle cx="935.3" cy="1024.7" r="2.8" fill="#d62728"/><circle cx="961.2" cy="1024.0" r="2.8" fill="#d62728"/><circle cx="987.1" cy="1013.3" r="2.8" fill="#d62728"/><circle cx="1038.9" cy="1016.9" r="2.8" fill="#d62728"/><circle cx="1090.7" cy="1018.8" r="2.8" fill="#d62728"/><circle cx="1194.3" cy="1020.5" r="2.8" fill="#d62728"/><circle cx="1297.8" cy="1021.7" r="2.8" fill="#d62728"/><circle cx="1505.0" cy="1020.2" r="2.8" fill="#d62728"/><polyline fill="none" stroke="#2ca02c" stroke-width="2.5" points="890.0,1163.5 896.5,1105.1 909.4,1044.2 935.3,1024.7 961.2,1024.6 987.1,1016.7 1038.9,1016.1 1090.7,1018.2 1194.3,1021.3 1297.8,1021.2 1505.0,1020.6"/><circle cx="890.0" cy="1163.5" r="2.8" fill="#2ca02c"/><circle cx="896.5" cy="1105.1" r="2.8" fill="#2ca02c"/><circle cx="909.4" cy="1044.2" r="2.8" fill="#2ca02c"/><circle cx="935.3" cy="1024.7" r="2.8" fill="#2ca02c"/><circle cx="961.2" cy="1024.6" r="2.8" fill="#2ca02c"/><circle cx="987.1" cy="1016.7" r="2.8" fill="#2ca02c"/><circle cx="1038.9" cy="1016.1" r="2.8" fill="#2ca02c"/><circle cx="1090.7" cy="1018.2" r="2.8" fill="#2ca02c"/><circle cx="1194.3" cy="1021.3" r="2.8" fill="#2ca02c"/><circle cx="1297.8" cy="1021.2" r="2.8" fill="#2ca02c"/><circle cx="1505.0" cy="1020.6" r="2.8" fill="#2ca02c"/><text class="small" x="845.0" y="1101.25" transform="rotate(-90 845.0,1101.25)" text-anchor="middle">bench traffic GB/s</text><text x="432.5" y="1347.5" text-anchor="middle" font-size="18">mixed target0</text><line class="grid" x1="145.0" y1="1372.5" x2="760.0" y2="1372.5"/><text class="small" x="137.0" y="1376.5" text-anchor="end">275</text><line class="grid" x1="145.0" y1="1427.0" x2="760.0" y2="1427.0"/><text class="small" x="137.0" y="1431.0" text-anchor="end">220</text><line class="grid" x1="145.0" y1="1481.5" x2="760.0" y2="1481.5"/><text class="small" x="137.0" y="1485.5" text-anchor="end">165</text><line class="grid" x1="145.0" y1="1536.0" x2="760.0" y2="1536.0"/><text class="small" x="137.0" y="1540.0" text-anchor="end">110</text><line class="grid" x1="145.0" y1="1590.5" x2="760.0" y2="1590.5"/><text class="small" x="137.0" y="1594.5" text-anchor="end">55</text><line class="grid" x1="145.0" y1="1645.0" x2="760.0" y2="1645.0"/><text class="small" x="137.0" y="1649.0" text-anchor="end">0</text><line class="axis" x1="145.0" y1="1645.0" x2="760.0" y2="1645.0"/><line class="axis" x1="145.0" y1="1372.5" x2="145.0" y2="1645.0"/><line class="grid" x1="145.0" y1="1645.0" x2="145.0" y2="1650.0"/><text class="small" x="145.0" y="1665.0" text-anchor="middle">1</text><line class="grid" x1="151.47368421052633" y1="1645.0" x2="151.47368421052633" y2="1650.0"/><text class="small" x="151.47368421052633" y="1665.0" text-anchor="middle">2</text><line class="grid" x1="164.42105263157896" y1="1645.0" x2="164.42105263157896" y2="1650.0"/><text class="small" x="164.42105263157896" y="1665.0" text-anchor="middle">4</text><line class="grid" x1="190.31578947368422" y1="1645.0" x2="190.31578947368422" y2="1650.0"/><text class="small" x="190.31578947368422" y="1665.0" text-anchor="middle">8</text><line class="grid" x1="216.21052631578948" y1="1645.0" x2="216.21052631578948" y2="1650.0"/><text class="small" x="216.21052631578948" y="1665.0" text-anchor="middle">12</text><line class="grid" x1="242.10526315789474" y1="1645.0" x2="242.10526315789474" y2="1650.0"/><text class="small" x="242.10526315789474" y="1665.0" text-anchor="middle">16</text><line class="grid" x1="293.89473684210526" y1="1645.0" x2="293.89473684210526" y2="1650.0"/><text class="small" x="293.89473684210526" y="1665.0" text-anchor="middle">24</text><line class="grid" x1="345.6842105263158" y1="1645.0" x2="345.6842105263158" y2="1650.0"/><text class="small" x="345.6842105263158" y="1665.0" text-anchor="middle">32</text><line class="grid" x1="449.2631578947368" y1="1645.0" x2="449.2631578947368" y2="1650.0"/><text class="small" x="449.2631578947368" y="1665.0" text-anchor="middle">48</text><line class="grid" x1="552.8421052631579" y1="1645.0" x2="552.8421052631579" y2="1650.0"/><text class="small" x="552.8421052631579" y="1665.0" text-anchor="middle">64</text><line class="grid" x1="760.0" y1="1645.0" x2="760.0" y2="1650.0"/><text class="small" x="760.0" y="1665.0" text-anchor="middle">96</text><polyline fill="none" stroke="#1f77b4" stroke-width="2.5" points="145.0,1587.9 151.5,1542.2 164.4,1482.7 190.3,1466.5 216.2,1466.5 242.1,1420.3 293.9,1423.7 345.7,1428.5 449.3,1432.2 552.8,1430.7 760.0,1429.1"/><circle cx="145.0" cy="1587.9" r="2.8" fill="#1f77b4"/><circle cx="151.5" cy="1542.2" r="2.8" fill="#1f77b4"/><circle cx="164.4" cy="1482.7" r="2.8" fill="#1f77b4"/><circle cx="190.3" cy="1466.5" r="2.8" fill="#1f77b4"/><circle cx="216.2" cy="1466.5" r="2.8" fill="#1f77b4"/><circle cx="242.1" cy="1420.3" r="2.8" fill="#1f77b4"/><circle cx="293.9" cy="1423.7" r="2.8" fill="#1f77b4"/><circle cx="345.7" cy="1428.5" r="2.8" fill="#1f77b4"/><circle cx="449.3" cy="1432.2" r="2.8" fill="#1f77b4"/><circle cx="552.8" cy="1430.7" r="2.8" fill="#1f77b4"/><circle cx="760.0" cy="1429.1" r="2.8" fill="#1f77b4"/><polyline fill="none" stroke="#d62728" stroke-width="2.5" points="145.0,1588.0 151.5,1541.4 164.4,1475.2 190.3,1461.6 216.2,1461.1 242.1,1423.1 293.9,1424.0 345.7,1428.4 449.3,1430.8 552.8,1431.3 760.0,1430.3"/><circle cx="145.0" cy="1588.0" r="2.8" fill="#d62728"/><circle cx="151.5" cy="1541.4" r="2.8" fill="#d62728"/><circle cx="164.4" cy="1475.2" r="2.8" fill="#d62728"/><circle cx="190.3" cy="1461.6" r="2.8" fill="#d62728"/><circle cx="216.2" cy="1461.1" r="2.8" fill="#d62728"/><circle cx="242.1" cy="1423.1" r="2.8" fill="#d62728"/><circle cx="293.9" cy="1424.0" r="2.8" fill="#d62728"/><circle cx="345.7" cy="1428.4" r="2.8" fill="#d62728"/><circle cx="449.3" cy="1430.8" r="2.8" fill="#d62728"/><circle cx="552.8" cy="1431.3" r="2.8" fill="#d62728"/><circle cx="760.0" cy="1430.3" r="2.8" fill="#d62728"/><polyline fill="none" stroke="#2ca02c" stroke-width="2.5" points="145.0,1587.2 151.5,1539.3 164.4,1477.3 190.3,1462.8 216.2,1458.1 242.1,1418.9 293.9,1424.3 345.7,1428.3 449.3,1431.1 552.8,1430.0 760.0,1429.6"/><circle cx="145.0" cy="1587.2" r="2.8" fill="#2ca02c"/><circle cx="151.5" cy="1539.3" r="2.8" fill="#2ca02c"/><circle cx="164.4" cy="1477.3" r="2.8" fill="#2ca02c"/><circle cx="190.3" cy="1462.8" r="2.8" fill="#2ca02c"/><circle cx="216.2" cy="1458.1" r="2.8" fill="#2ca02c"/><circle cx="242.1" cy="1418.9" r="2.8" fill="#2ca02c"/><circle cx="293.9" cy="1424.3" r="2.8" fill="#2ca02c"/><circle cx="345.7" cy="1428.3" r="2.8" fill="#2ca02c"/><circle cx="449.3" cy="1431.1" r="2.8" fill="#2ca02c"/><circle cx="552.8" cy="1430.0" r="2.8" fill="#2ca02c"/><circle cx="760.0" cy="1429.6" r="2.8" fill="#2ca02c"/><text class="small" x="100.0" y="1513.75" transform="rotate(-90 100.0,1513.75)" text-anchor="middle">bench traffic GB/s</text><text x="1177.5" y="1347.5" text-anchor="middle" font-size="18">mixed target1</text><line class="grid" x1="890.0" y1="1372.5" x2="1505.0" y2="1372.5"/><text class="small" x="882.0" y="1376.5" text-anchor="end">275</text><line class="grid" x1="890.0" y1="1427.0" x2="1505.0" y2="1427.0"/><text class="small" x="882.0" y="1431.0" text-anchor="end">220</text><line class="grid" x1="890.0" y1="1481.5" x2="1505.0" y2="1481.5"/><text class="small" x="882.0" y="1485.5" text-anchor="end">165</text><line class="grid" x1="890.0" y1="1536.0" x2="1505.0" y2="1536.0"/><text class="small" x="882.0" y="1540.0" text-anchor="end">110</text><line class="grid" x1="890.0" y1="1590.5" x2="1505.0" y2="1590.5"/><text class="small" x="882.0" y="1594.5" text-anchor="end">55</text><line class="grid" x1="890.0" y1="1645.0" x2="1505.0" y2="1645.0"/><text class="small" x="882.0" y="1649.0" text-anchor="end">0</text><line class="axis" x1="890.0" y1="1645.0" x2="1505.0" y2="1645.0"/><line class="axis" x1="890.0" y1="1372.5" x2="890.0" y2="1645.0"/><line class="grid" x1="890.0" y1="1645.0" x2="890.0" y2="1650.0"/><text class="small" x="890.0" y="1665.0" text-anchor="middle">1</text><line class="grid" x1="896.4736842105264" y1="1645.0" x2="896.4736842105264" y2="1650.0"/><text class="small" x="896.4736842105264" y="1665.0" text-anchor="middle">2</text><line class="grid" x1="909.421052631579" y1="1645.0" x2="909.421052631579" y2="1650.0"/><text class="small" x="909.421052631579" y="1665.0" text-anchor="middle">4</text><line class="grid" x1="935.3157894736842" y1="1645.0" x2="935.3157894736842" y2="1650.0"/><text class="small" x="935.3157894736842" y="1665.0" text-anchor="middle">8</text><line class="grid" x1="961.2105263157895" y1="1645.0" x2="961.2105263157895" y2="1650.0"/><text class="small" x="961.2105263157895" y="1665.0" text-anchor="middle">12</text><line class="grid" x1="987.1052631578948" y1="1645.0" x2="987.1052631578948" y2="1650.0"/><text class="small" x="987.1052631578948" y="1665.0" text-anchor="middle">16</text><line class="grid" x1="1038.8947368421052" y1="1645.0" x2="1038.8947368421052" y2="1650.0"/><text class="small" x="1038.8947368421052" y="1665.0" text-anchor="middle">24</text><line class="grid" x1="1090.6842105263158" y1="1645.0" x2="1090.6842105263158" y2="1650.0"/><text class="small" x="1090.6842105263158" y="1665.0" text-anchor="middle">32</text><line class="grid" x1="1194.2631578947369" y1="1645.0" x2="1194.2631578947369" y2="1650.0"/><text class="small" x="1194.2631578947369" y="1665.0" text-anchor="middle">48</text><line class="grid" x1="1297.842105263158" y1="1645.0" x2="1297.842105263158" y2="1650.0"/><text class="small" x="1297.842105263158" y="1665.0" text-anchor="middle">64</text><line class="grid" x1="1505.0" y1="1645.0" x2="1505.0" y2="1650.0"/><text class="small" x="1505.0" y="1665.0" text-anchor="middle">96</text><polyline fill="none" stroke="#1f77b4" stroke-width="2.5" points="890.0,1588.4 896.5,1542.2 909.4,1480.0 935.3,1453.0 961.2,1463.0 987.1,1420.4 1038.9,1426.2 1090.7,1429.2 1194.3,1431.9 1297.8,1431.3 1505.0,1430.9"/><circle cx="890.0" cy="1588.4" r="2.8" fill="#1f77b4"/><circle cx="896.5" cy="1542.2" r="2.8" fill="#1f77b4"/><circle cx="909.4" cy="1480.0" r="2.8" fill="#1f77b4"/><circle cx="935.3" cy="1453.0" r="2.8" fill="#1f77b4"/><circle cx="961.2" cy="1463.0" r="2.8" fill="#1f77b4"/><circle cx="987.1" cy="1420.4" r="2.8" fill="#1f77b4"/><circle cx="1038.9" cy="1426.2" r="2.8" fill="#1f77b4"/><circle cx="1090.7" cy="1429.2" r="2.8" fill="#1f77b4"/><circle cx="1194.3" cy="1431.9" r="2.8" fill="#1f77b4"/><circle cx="1297.8" cy="1431.3" r="2.8" fill="#1f77b4"/><circle cx="1505.0" cy="1430.9" r="2.8" fill="#1f77b4"/><polyline fill="none" stroke="#d62728" stroke-width="2.5" points="890.0,1587.4 896.5,1540.4 909.4,1476.9 935.3,1450.0 961.2,1464.1 987.1,1420.7 1038.9,1426.6 1090.7,1428.9 1194.3,1431.7 1297.8,1431.9 1505.0,1429.7"/><circle cx="890.0" cy="1587.4" r="2.8" fill="#d62728"/><circle cx="896.5" cy="1540.4" r="2.8" fill="#d62728"/><circle cx="909.4" cy="1476.9" r="2.8" fill="#d62728"/><circle cx="935.3" cy="1450.0" r="2.8" fill="#d62728"/><circle cx="961.2" cy="1464.1" r="2.8" fill="#d62728"/><circle cx="987.1" cy="1420.7" r="2.8" fill="#d62728"/><circle cx="1038.9" cy="1426.6" r="2.8" fill="#d62728"/><circle cx="1090.7" cy="1428.9" r="2.8" fill="#d62728"/><circle cx="1194.3" cy="1431.7" r="2.8" fill="#d62728"/><circle cx="1297.8" cy="1431.9" r="2.8" fill="#d62728"/><circle cx="1505.0" cy="1429.7" r="2.8" fill="#d62728"/><polyline fill="none" stroke="#2ca02c" stroke-width="2.5" points="890.0,1586.6 896.5,1540.0 909.4,1477.7 935.3,1458.8 961.2,1464.6 987.1,1420.9 1038.9,1426.6 1090.7,1429.1 1194.3,1432.0 1297.8,1431.3 1505.0,1430.6"/><circle cx="890.0" cy="1586.6" r="2.8" fill="#2ca02c"/><circle cx="896.5" cy="1540.0" r="2.8" fill="#2ca02c"/><circle cx="909.4" cy="1477.7" r="2.8" fill="#2ca02c"/><circle cx="935.3" cy="1458.8" r="2.8" fill="#2ca02c"/><circle cx="961.2" cy="1464.6" r="2.8" fill="#2ca02c"/><circle cx="987.1" cy="1420.9" r="2.8" fill="#2ca02c"/><circle cx="1038.9" cy="1426.6" r="2.8" fill="#2ca02c"/><circle cx="1090.7" cy="1429.1" r="2.8" fill="#2ca02c"/><circle cx="1194.3" cy="1432.0" r="2.8" fill="#2ca02c"/><circle cx="1297.8" cy="1431.3" r="2.8" fill="#2ca02c"/><circle cx="1505.0" cy="1430.6" r="2.8" fill="#2ca02c"/><text class="small" x="845.0" y="1513.75" transform="rotate(-90 845.0,1513.75)" text-anchor="middle">bench traffic GB/s</text></svg>