<svg xmlns="http://www.w3.org/2000/svg" width="1600" height="1800" viewBox="0 0 1600 1800"><style>text{font-family:monospace;fill:#111}.small{font-size:14px}.axis{stroke:#444;stroke-width:1}.grid{stroke:#ddd;stroke-width:1}</style><rect x="0" y="0" width="1600" height="1800" fill="white"/><text x="800.0" y="40" text-anchor="middle" font-size="24">uProf total memory bandwidth vs threads (1MiB)</text><text x="800.0" y="70" text-anchor="middle" font-size="16">threads per process on X axis</text><line x1="1320" y1="30" x2="1348" y2="30" stroke="#1f77b4" stroke-width="3"/><text x="1356" y="35" font-size="14">1302</text><line x1="1320" y1="54" x2="1348" y2="54" stroke="#d62728" stroke-width="3"/><text x="1356" y="59" font-size="14">1306</text><line x1="1320" y1="78" x2="1348" y2="78" stroke="#2ca02c" stroke-width="3"/><text x="1356" y="83" font-size="14">1308</text><text x="432.5" y="110.0" text-anchor="middle" font-size="18">local numa0</text><line class="grid" x1="145.0" y1="135.0" x2="760.0" y2="135.0"/><text class="small" x="137.0" y="139.0" text-anchor="end">450</text><line class="grid" x1="145.0" y1="189.5" x2="760.0" y2="189.5"/><text class="small" x="137.0" y="193.5" text-anchor="end">360</text><line class="grid" x1="145.0" y1="244.0" x2="760.0" y2="244.0"/><text class="small" x="137.0" y="248.0" text-anchor="end">270</text><line class="grid" x1="145.0" y1="298.5" x2="760.0" y2="298.5"/><text class="small" x="137.0" y="302.5" text-anchor="end">180</text><line class="grid" x1="145.0" y1="353.0" x2="760.0" y2="353.0"/><text class="small" x="137.0" y="357.0" text-anchor="end">90</text><line class="grid" x1="145.0" y1="407.5" x2="760.0" y2="407.5"/><text class="small" x="137.0" y="411.5" text-anchor="end">0</text><line class="axis" x1="145.0" y1="407.5" x2="760.0" y2="407.5"/><line class="axis" x1="145.0" y1="135.0" x2="145.0" y2="407.5"/><line class="grid" x1="145.0" y1="407.5" x2="145.0" y2="412.5"/><text class="small" x="145.0" y="427.5" text-anchor="middle">1</text><line class="grid" x1="151.47368421052633" y1="407.5" x2="151.47368421052633" y2="412.5"/><text class="small" x="151.47368421052633" y="427.5" text-anchor="middle">2</text><line class="grid" x1="164.42105263157896" y1="407.5" x2="164.42105263157896" y2="412.5"/><text class="small" x="164.42105263157896" y="427.5" text-anchor="middle">4</text><line class="grid" x1="190.31578947368422" y1="407.5" x2="190.31578947368422" y2="412.5"/><text class="small" x="190.31578947368422" y="427.5" text-anchor="middle">8</text><line class="grid" x1="216.21052631578948" y1="407.5" x2="216.21052631578948" y2="412.5"/><text class="small" x="216.21052631578948" y="427.5" text-anchor="middle">12</text><line class="grid" x1="242.10526315789474" y1="407.5" x2="242.10526315789474" y2="412.5"/><text class="small" x="242.10526315789474" y="427.5" text-anchor="middle">16</text><line class="grid" x1="293.89473684210526" y1="407.5" x2="293.89473684210526" y2="412.5"/><text class="small" x="293.89473684210526" y="427.5" text-anchor="middle">24</text><line class="grid" x1="345.6842105263158" y1="407.5" x2="345.6842105263158" y2="412.5"/><text class="small" x="345.6842105263158" y="427.5" text-anchor="middle">32</text><line class="grid" x1="449.2631578947368" y1="407.5" x2="449.2631578947368" y2="412.5"/><text class="small" x="449.2631578947368" y="427.5" text-anchor="middle">48</text><line class="grid" x1="552.8421052631579" y1="407.5" x2="552.8421052631579" y2="412.5"/><text class="small" x="552.8421052631579" y="427.5" text-anchor="middle">64</text><line class="grid" x1="760.0" y1="407.5" x2="760.0" y2="412.5"/><text class="small" x="760.0" y="427.5" text-anchor="middle">96</text><polyline fill="none" stroke="#1f77b4" stroke-width="2.5" points="145.0,378.6 151.5,350.1 164.4,307.9 190.3,264.5 216.2,238.5 242.1,232.9 293.9,226.3 345.7,224.8 449.3,208.7 552.8,202.9 760.0,199.9"/><circle cx="145.0" cy="378.6" r="2.8" fill="#1f77b4"/><circle cx="151.5" cy="350.1" r="2.8" fill="#1f77b4"/><circle cx="164.4" cy="307.9" r="2.8" fill="#1f77b4"/><circle cx="190.3" cy="264.5" r="2.8" fill="#1f77b4"/><circle cx="216.2" cy="238.5" r="2.8" fill="#1f77b4"/><circle cx="242.1" cy="232.9" r="2.8" fill="#1f77b4"/><circle cx="293.9" cy="226.3" r="2.8" fill="#1f77b4"/><circle cx="345.7" cy="224.8" r="2.8" fill="#1f77b4"/><circle cx="449.3" cy="208.7" r="2.8" fill="#1f77b4"/><circle cx="552.8" cy="202.9" r="2.8" fill="#1f77b4"/><circle cx="760.0" cy="199.9" r="2.8" fill="#1f77b4"/><polyline fill="none" stroke="#d62728" stroke-width="2.5" points="145.0,378.3 151.5,350.7 164.4,308.2 190.3,264.5 216.2,242.7 242.1,233.3 293.9,226.9 345.7,224.4 449.3,209.7 552.8,203.5 760.0,200.8"/><circle cx="145.0" cy="378.3" r="2.8" fill="#d62728"/><circle cx="151.5" cy="350.7" r="2.8" fill="#d62728"/><circle cx="164.4" cy="308.2" r="2.8" fill="#d62728"/><circle cx="190.3" cy="264.5" r="2.8" fill="#d62728"/><circle cx="216.2" cy="242.7" r="2.8" fill="#d62728"/><circle cx="242.1" cy="233.3" r="2.8" fill="#d62728"/><circle cx="293.9" cy="226.9" r="2.8" fill="#d62728"/><circle cx="345.7" cy="224.4" r="2.8" fill="#d62728"/><circle cx="449.3" cy="209.7" r="2.8" fill="#d62728"/><circle cx="552.8" cy="203.5" r="2.8" fill="#d62728"/><circle cx="760.0" cy="200.8" r="2.8" fill="#d62728"/><polyline fill="none" stroke="#2ca02c" stroke-width="2.5" points="145.0,377.9 151.5,350.4 164.4,308.5 190.3,262.5 216.2,238.9 242.1,231.4 293.9,225.2 345.7,221.0 449.3,208.6 552.8,200.1 760.0,202.6"/><circle cx="145.0" cy="377.9" r="2.8" fill="#2ca02c"/><circle cx="151.5" cy="350.4" r="2.8" fill="#2ca02c"/><circle cx="164.4" cy="308.5" r="2.8" fill="#2ca02c"/><circle cx="190.3" cy="262.5" r="2.8" fill="#2ca02c"/><circle cx="216.2" cy="238.9" r="2.8" fill="#2ca02c"/><circle cx="242.1" cy="231.4" r="2.8" fill="#2ca02c"/><circle cx="293.9" cy="225.2" r="2.8" fill="#2ca02c"/><circle cx="345.7" cy="221.0" r="2.8" fill="#2ca02c"/><circle cx="449.3" cy="208.6" r="2.8" fill="#2ca02c"/><circle cx="552.8" cy="200.1" r="2.8" fill="#2ca02c"/><circle cx="760.0" cy="202.6" r="2.8" fill="#2ca02c"/><text class="small" x="100.0" y="276.25" transform="rotate(-90 100.0,276.25)" text-anchor="middle">uProf total BW GB/s</text><text x="1177.5" y="110.0" text-anchor="middle" font-size="18">local numa1</text><line class="grid" x1="890.0" y1="135.0" x2="1505.0" y2="135.0"/><text class="small" x="882.0" y="139.0" text-anchor="end">450</text><line class="grid" x1="890.0" y1="189.5" x2="1505.0" y2="189.5"/><text class="small" x="882.0" y="193.5" text-anchor="end">360</text><line class="grid" x1="890.0" y1="244.0" x2="1505.0" y2="244.0"/><text class="small" x="882.0" y="248.0" text-anchor="end">270</text><line class="grid" x1="890.0" y1="298.5" x2="1505.0" y2="298.5"/><text class="small" x="882.0" y="302.5" text-anchor="end">180</text><line class="grid" x1="890.0" y1="353.0" x2="1505.0" y2="353.0"/><text class="small" x="882.0" y="357.0" text-anchor="end">90</text><line class="grid" x1="890.0" y1="407.5" x2="1505.0" y2="407.5"/><text class="small" x="882.0" y="411.5" text-anchor="end">0</text><line class="axis" x1="890.0" y1="407.5" x2="1505.0" y2="407.5"/><line class="axis" x1="890.0" y1="135.0" x2="890.0" y2="407.5"/><line class="grid" x1="890.0" y1="407.5" x2="890.0" y2="412.5"/><text class="small" x="890.0" y="427.5" text-anchor="middle">1</text><line class="grid" x1="896.4736842105264" y1="407.5" x2="896.4736842105264" y2="412.5"/><text class="small" x="896.4736842105264" y="427.5" text-anchor="middle">2</text><line class="grid" x1="909.421052631579" y1="407.5" x2="909.421052631579" y2="412.5"/><text class="small" x="909.421052631579" y="427.5" text-anchor="middle">4</text><line class="grid" x1="935.3157894736842" y1="407.5" x2="935.3157894736842" y2="412.5"/><text class="small" x="935.3157894736842" y="427.5" text-anchor="middle">8</text><line class="grid" x1="961.2105263157895" y1="407.5" x2="961.2105263157895" y2="412.5"/><text class="small" x="961.2105263157895" y="427.5" text-anchor="middle">12</text><line class="grid" x1="987.1052631578948" y1="407.5" x2="987.1052631578948" y2="412.5"/><text class="small" x="987.1052631578948" y="427.5" text-anchor="middle">16</text><line class="grid" x1="1038.8947368421052" y1="407.5" x2="1038.8947368421052" y2="412.5"/><text class="small" x="1038.8947368421052" y="427.5" text-anchor="middle">24</text><line class="grid" x1="1090.6842105263158" y1="407.5" x2="1090.6842105263158" y2="412.5"/><text class="small" x="1090.6842105263158" y="427.5" text-anchor="middle">32</text><line class="grid" x1="1194.2631578947369" y1="407.5" x2="1194.2631578947369" y2="412.5"/><text class="small" x="1194.2631578947369" y="427.5" text-anchor="middle">48</text><line class="grid" x1="1297.842105263158" y1="407.5" x2="1297.842105263158" y2="412.5"/><text class="small" x="1297.842105263158" y="427.5" text-anchor="middle">64</text><line class="grid" x1="1505.0" y1="407.5" x2="1505.0" y2="412.5"/><text class="small" x="1505.0" y="427.5" text-anchor="middle">96</text><polyline fill="none" stroke="#1f77b4" stroke-width="2.5" points="890.0,378.3 896.5,350.8 909.4,308.0 935.3,261.3 961.2,237.3 987.1,232.6 1038.9,225.7 1090.7,224.3 1194.3,212.1 1297.8,204.4 1505.0,200.3"/><circle cx="890.0" cy="378.3" r="2.8" fill="#1f77b4"/><circle cx="896.5" cy="350.8" r="2.8" fill="#1f77b4"/><circle cx="909.4" cy="308.0" r="2.8" fill="#1f77b4"/><circle cx="935.3" cy="261.3" r="2.8" fill="#1f77b4"/><circle cx="961.2" cy="237.3" r="2.8" fill="#1f77b4"/><circle cx="987.1" cy="232.6" r="2.8" fill="#1f77b4"/><circle cx="1038.9" cy="225.7" r="2.8" fill="#1f77b4"/><circle cx="1090.7" cy="224.3" r="2.8" fill="#1f77b4"/><circle cx="1194.3" cy="212.1" r="2.8" fill="#1f77b4"/><circle cx="1297.8" cy="204.4" r="2.8" fill="#1f77b4"/><circle cx="1505.0" cy="200.3" r="2.8" fill="#1f77b4"/><polyline fill="none" stroke="#d62728" stroke-width="2.5" points="890.0,378.4 896.5,349.7 909.4,308.5 935.3,261.3 961.2,238.1 987.1,232.1 1038.9,225.5 1090.7,224.4 1194.3,211.8 1297.8,204.5 1505.0,199.7"/><circle cx="890.0" cy="378.4" r="2.8" fill="#d62728"/><circle cx="896.5" cy="349.7" r="2.8" fill="#d62728"/><circle cx="909.4" cy="308.5" r="2.8" fill="#d62728"/><circle cx="935.3" cy="261.3" r="2.8" fill="#d62728"/><circle cx="961.2" cy="238.1" r="2.8" fill="#d62728"/><circle cx="987.1" cy="232.1" r="2.8" fill="#d62728"/><circle cx="1038.9" cy="225.5" r="2.8" fill="#d62728"/><circle cx="1090.7" cy="224.4" r="2.8" fill="#d62728"/><circle cx="1194.3" cy="211.8" r="2.8" fill="#d62728"/><circle cx="1297.8" cy="204.5" r="2.8" fill="#d62728"/><circle cx="1505.0" cy="199.7" r="2.8" fill="#d62728"/><polyline fill="none" stroke="#2ca02c" stroke-width="2.5" points="890.0,378.6 896.5,350.5 909.4,307.6 935.3,260.9 961.2,238.0 987.1,232.6 1038.9,225.6 1090.7,224.2 1194.3,213.8 1297.8,205.3 1505.0,201.4"/><circle cx="890.0" cy="378.6" r="2.8" fill="#2ca02c"/><circle cx="896.5" cy="350.5" r="2.8" fill="#2ca02c"/><circle cx="909.4" cy="307.6" r="2.8" fill="#2ca02c"/><circle cx="935.3" cy="260.9" r="2.8" fill="#2ca02c"/><circle cx="961.2" cy="238.0" r="2.8" fill="#2ca02c"/><circle cx="987.1" cy="232.6" r="2.8" fill="#2ca02c"/><circle cx="1038.9" cy="225.6" r="2.8" fill="#2ca02c"/><circle cx="1090.7" cy="224.2" r="2.8" fill="#2ca02c"/><circle cx="1194.3" cy="213.8" r="2.8" fill="#2ca02c"/><circle cx="1297.8" cy="205.3" r="2.8" fill="#2ca02c"/><circle cx="1505.0" cy="201.4" r="2.8" fill="#2ca02c"/><text class="small" x="845.0" y="276.25" transform="rotate(-90 845.0,276.25)" text-anchor="middle">uProf total BW GB/s</text><text x="432.5" y="522.5" text-anchor="middle" font-size="18">remote 0-&gt;1</text><line class="grid" x1="145.0" y1="547.5" x2="760.0" y2="547.5"/><text class="small" x="137.0" y="551.5" text-anchor="end">225</text><line class="grid" x1="145.0" y1="602.0" x2="760.0" y2="602.0"/><text class="small" x="137.0" y="606.0" text-anchor="end">180</text><line class="grid" x1="145.0" y1="656.5" x2="760.0" y2="656.5"/><text class="small" x="137.0" y="660.5" text-anchor="end">135</text><line class="grid" x1="145.0" y1="711.0" x2="760.0" y2="711.0"/><text class="small" x="137.0" y="715.0" text-anchor="end">90</text><line class="grid" x1="145.0" y1="765.5" x2="760.0" y2="765.5"/><text class="small" x="137.0" y="769.5" text-anchor="end">45</text><line class="grid" x1="145.0" y1="820.0" x2="760.0" y2="820.0"/><text class="small" x="137.0" y="824.0" text-anchor="end">0</text><line class="axis" x1="145.0" y1="820.0" x2="760.0" y2="820.0"/><line class="axis" x1="145.0" y1="547.5" x2="145.0" y2="820.0"/><line class="grid" x1="145.0" y1="820.0" x2="145.0" y2="825.0"/><text class="small" x="145.0" y="840.0" text-anchor="middle">1</text><line class="grid" x1="151.47368421052633" y1="820.0" x2="151.47368421052633" y2="825.0"/><text class="small" x="151.47368421052633" y="840.0" text-anchor="middle">2</text><line class="grid" x1="164.42105263157896" y1="820.0" x2="164.42105263157896" y2="825.0"/><text class="small" x="164.42105263157896" y="840.0" text-anchor="middle">4</text><line class="grid" x1="190.31578947368422" y1="820.0" x2="190.31578947368422" y2="825.0"/><text class="small" x="190.31578947368422" y="840.0" text-anchor="middle">8</text><line class="grid" x1="216.21052631578948" y1="820.0" x2="216.21052631578948" y2="825.0"/><text class="small" x="216.21052631578948" y="840.0" text-anchor="middle">12</text><line class="grid" x1="242.10526315789474" y1="820.0" x2="242.10526315789474" y2="825.0"/><text class="small" x="242.10526315789474" y="840.0" text-anchor="middle">16</text><line class="grid" x1="293.89473684210526" y1="820.0" x2="293.89473684210526" y2="825.0"/><text class="small" x="293.89473684210526" y="840.0" text-anchor="middle">24</text><line class="grid" x1="345.6842105263158" y1="820.0" x2="345.6842105263158" y2="825.0"/><text class="small" x="345.6842105263158" y="840.0" text-anchor="middle">32</text><line class="grid" x1="449.2631578947368" y1="820.0" x2="449.2631578947368" y2="825.0"/><text class="small" x="449.2631578947368" y="840.0" text-anchor="middle">48</text><line class="grid" x1="552.8421052631579" y1="820.0" x2="552.8421052631579" y2="825.0"/><text class="small" x="552.8421052631579" y="840.0" text-anchor="middle">64</text><line class="grid" x1="760.0" y1="820.0" x2="760.0" y2="825.0"/><text class="small" x="760.0" y="840.0" text-anchor="middle">96</text><polyline fill="none" stroke="#1f77b4" stroke-width="2.5" points="145.0,785.0 151.5,752.7 164.4,697.5 190.3,637.4 216.2,630.2 242.1,630.7 293.9,630.8 345.7,629.1 449.3,620.9 552.8,611.0 760.0,598.5"/><circle cx="145.0" cy="785.0" r="2.8" fill="#1f77b4"/><circle cx="151.5" cy="752.7" r="2.8" fill="#1f77b4"/><circle cx="164.4" cy="697.5" r="2.8" fill="#1f77b4"/><circle cx="190.3" cy="637.4" r="2.8" fill="#1f77b4"/><circle cx="216.2" cy="630.2" r="2.8" fill="#1f77b4"/><circle cx="242.1" cy="630.7" r="2.8" fill="#1f77b4"/><circle cx="293.9" cy="630.8" r="2.8" fill="#1f77b4"/><circle cx="345.7" cy="629.1" r="2.8" fill="#1f77b4"/><circle cx="449.3" cy="620.9" r="2.8" fill="#1f77b4"/><circle cx="552.8" cy="611.0" r="2.8" fill="#1f77b4"/><circle cx="760.0" cy="598.5" r="2.8" fill="#1f77b4"/><polyline fill="none" stroke="#d62728" stroke-width="2.5" points="145.0,784.3 151.5,751.6 164.4,695.0 190.3,636.9 216.2,630.0 242.1,630.7 293.9,631.2 345.7,626.2 449.3,623.4 552.8,611.3 760.0,593.9"/><circle cx="145.0" cy="784.3" r="2.8" fill="#d62728"/><circle cx="151.5" cy="751.6" r="2.8" fill="#d62728"/><circle cx="164.4" cy="695.0" r="2.8" fill="#d62728"/><circle cx="190.3" cy="636.9" r="2.8" fill="#d62728"/><circle cx="216.2" cy="630.0" r="2.8" fill="#d62728"/><circle cx="242.1" cy="630.7" r="2.8" fill="#d62728"/><circle cx="293.9" cy="631.2" r="2.8" fill="#d62728"/><circle cx="345.7" cy="626.2" r="2.8" fill="#d62728"/><circle cx="449.3" cy="623.4" r="2.8" fill="#d62728"/><circle cx="552.8" cy="611.3" r="2.8" fill="#d62728"/><circle cx="760.0" cy="593.9" r="2.8" fill="#d62728"/><polyline fill="none" stroke="#2ca02c" stroke-width="2.5" points="145.0,785.0 151.5,751.9 164.4,693.2 190.3,635.7 216.2,631.3 242.1,630.8 293.9,631.9 345.7,631.3 449.3,622.1 552.8,610.7 760.0,598.7"/><circle cx="145.0" cy="785.0" r="2.8" fill="#2ca02c"/><circle cx="151.5" cy="751.9" r="2.8" fill="#2ca02c"/><circle cx="164.4" cy="693.2" r="2.8" fill="#2ca02c"/><circle cx="190.3" cy="635.7" r="2.8" fill="#2ca02c"/><circle cx="216.2" cy="631.3" r="2.8" fill="#2ca02c"/><circle cx="242.1" cy="630.8" r="2.8" fill="#2ca02c"/><circle cx="293.9" cy="631.9" r="2.8" fill="#2ca02c"/><circle cx="345.7" cy="631.3" r="2.8" fill="#2ca02c"/><circle cx="449.3" cy="622.1" r="2.8" fill="#2ca02c"/><circle cx="552.8" cy="610.7" r="2.8" fill="#2ca02c"/><circle cx="760.0" cy="598.7" r="2.8" fill="#2ca02c"/><text class="small" x="100.0" y="688.75" transform="rotate(-90 100.0,688.75)" text-anchor="middle">uProf total BW GB/s</text><text x="1177.5" y="522.5" text-anchor="middle" font-size="18">remote 1-&gt;0</text><line class="grid" x1="890.0" y1="547.5" x2="1505.0" y2="547.5"/><text class="small" x="882.0" y="551.5" text-anchor="end">200</text><line class="grid" x1="890.0" y1="602.0" x2="1505.0" y2="602.0"/><text class="small" x="882.0" y="606.0" text-anchor="end">160</text><line class="grid" x1="890.0" y1="656.5" x2="1505.0" y2="656.5"/><text class="small" x="882.0" y="660.5" text-anchor="end">120</text><line class="grid" x1="890.0" y1="711.0" x2="1505.0" y2="711.0"/><text class="small" x="882.0" y="715.0" text-anchor="end">80</text><line class="grid" x1="890.0" y1="765.5" x2="1505.0" y2="765.5"/><text class="small" x="882.0" y="769.5" text-anchor="end">40</text><line class="grid" x1="890.0" y1="820.0" x2="1505.0" y2="820.0"/><text class="small" x="882.0" y="824.0" text-anchor="end">0</text><line class="axis" x1="890.0" y1="820.0" x2="1505.0" y2="820.0"/><line class="axis" x1="890.0" y1="547.5" x2="890.0" y2="820.0"/><line class="grid" x1="890.0" y1="820.0" x2="890.0" y2="825.0"/><text class="small" x="890.0" y="840.0" text-anchor="middle">1</text><line class="grid" x1="896.4736842105264" y1="820.0" x2="896.4736842105264" y2="825.0"/><text class="small" x="896.4736842105264" y="840.0" text-anchor="middle">2</text><line class="grid" x1="909.421052631579" y1="820.0" x2="909.421052631579" y2="825.0"/><text class="small" x="909.421052631579" y="840.0" text-anchor="middle">4</text><line class="grid" x1="935.3157894736842" y1="820.0" x2="935.3157894736842" y2="825.0"/><text class="small" x="935.3157894736842" y="840.0" text-anchor="middle">8</text><line class="grid" x1="961.2105263157895" y1="820.0" x2="961.2105263157895" y2="825.0"/><text class="small" x="961.2105263157895" y="840.0" text-anchor="middle">12</text><line class="grid" x1="987.1052631578948" y1="820.0" x2="987.1052631578948" y2="825.0"/><text class="small" x="987.1052631578948" y="840.0" text-anchor="middle">16</text><line class="grid" x1="1038.8947368421052" y1="820.0" x2="1038.8947368421052" y2="825.0"/><text class="small" x="1038.8947368421052" y="840.0" text-anchor="middle">24</text><line class="grid" x1="1090.6842105263158" y1="820.0" x2="1090.6842105263158" y2="825.0"/><text class="small" x="1090.6842105263158" y="840.0" text-anchor="middle">32</text><line class="grid" x1="1194.2631578947369" y1="820.0" x2="1194.2631578947369" y2="825.0"/><text class="small" x="1194.2631578947369" y="840.0" text-anchor="middle">48</text><line class="grid" x1="1297.842105263158" y1="820.0" x2="1297.842105263158" y2="825.0"/><text class="small" x="1297.842105263158" y="840.0" text-anchor="middle">64</text><line class="grid" x1="1505.0" y1="820.0" x2="1505.0" y2="825.0"/><text class="small" x="1505.0" y="840.0" text-anchor="middle">96</text><polyline fill="none" stroke="#1f77b4" stroke-width="2.5" points="890.0,779.5 896.5,742.7 909.4,680.4 935.3,616.2 961.2,610.2 987.1,609.2 1038.9,610.3 1090.7,605.5 1194.3,598.0 1297.8,600.5 1505.0,605.8"/><circle cx="890.0" cy="779.5" r="2.8" fill="#1f77b4"/><circle cx="896.5" cy="742.7" r="2.8" fill="#1f77b4"/><circle cx="909.4" cy="680.4" r="2.8" fill="#1f77b4"/><circle cx="935.3" cy="616.2" r="2.8" fill="#1f77b4"/><circle cx="961.2" cy="610.2" r="2.8" fill="#1f77b4"/><circle cx="987.1" cy="609.2" r="2.8" fill="#1f77b4"/><circle cx="1038.9" cy="610.3" r="2.8" fill="#1f77b4"/><circle cx="1090.7" cy="605.5" r="2.8" fill="#1f77b4"/><circle cx="1194.3" cy="598.0" r="2.8" fill="#1f77b4"/><circle cx="1297.8" cy="600.5" r="2.8" fill="#1f77b4"/><circle cx="1505.0" cy="605.8" r="2.8" fill="#1f77b4"/><polyline fill="none" stroke="#d62728" stroke-width="2.5" points="890.0,780.8 896.5,744.5 909.4,677.2 935.3,614.2 961.2,611.4 987.1,609.5 1038.9,609.2 1090.7,610.2 1194.3,596.4 1297.8,593.7 1505.0,598.5"/><circle cx="890.0" cy="780.8" r="2.8" fill="#d62728"/><circle cx="896.5" cy="744.5" r="2.8" fill="#d62728"/><circle cx="909.4" cy="677.2" r="2.8" fill="#d62728"/><circle cx="935.3" cy="614.2" r="2.8" fill="#d62728"/><circle cx="961.2" cy="611.4" r="2.8" fill="#d62728"/><circle cx="987.1" cy="609.5" r="2.8" fill="#d62728"/><circle cx="1038.9" cy="609.2" r="2.8" fill="#d62728"/><circle cx="1090.7" cy="610.2" r="2.8" fill="#d62728"/><circle cx="1194.3" cy="596.4" r="2.8" fill="#d62728"/><circle cx="1297.8" cy="593.7" r="2.8" fill="#d62728"/><circle cx="1505.0" cy="598.5" r="2.8" fill="#d62728"/><polyline fill="none" stroke="#2ca02c" stroke-width="2.5" points="890.0,779.2 896.5,745.0 909.4,682.2 935.3,616.3 961.2,610.5 987.1,609.9 1038.9,610.7 1090.7,608.6 1194.3,596.0 1297.8,593.3 1505.0,609.7"/><circle cx="890.0" cy="779.2" r="2.8" fill="#2ca02c"/><circle cx="896.5" cy="745.0" r="2.8" fill="#2ca02c"/><circle cx="909.4" cy="682.2" r="2.8" fill="#2ca02c"/><circle cx="935.3" cy="616.3" r="2.8" fill="#2ca02c"/><circle cx="961.2" cy="610.5" r="2.8" fill="#2ca02c"/><circle cx="987.1" cy="609.9" r="2.8" fill="#2ca02c"/><circle cx="1038.9" cy="610.7" r="2.8" fill="#2ca02c"/><circle cx="1090.7" cy="608.6" r="2.8" fill="#2ca02c"/><circle cx="1194.3" cy="596.0" r="2.8" fill="#2ca02c"/><circle cx="1297.8" cy="593.3" r="2.8" fill="#2ca02c"/><circle cx="1505.0" cy="609.7" r="2.8" fill="#2ca02c"/><text class="small" x="845.0" y="688.75" transform="rotate(-90 845.0,688.75)" text-anchor="middle">uProf total BW GB/s</text><text x="432.5" y="935.0" text-anchor="middle" font-size="18">dual local</text><line class="grid" x1="145.0" y1="960.0" x2="760.0" y2="960.0"/><text class="small" x="137.0" y="964.0" text-anchor="end">700</text><line class="grid" x1="145.0" y1="1014.5" x2="760.0" y2="1014.5"/><text class="small" x="137.0" y="1018.5" text-anchor="end">560</text><line class="grid" x1="145.0" y1="1069.0" x2="760.0" y2="1069.0"/><text class="small" x="137.0" y="1073.0" text-anchor="end">420</text><line class="grid" x1="145.0" y1="1123.5" x2="760.0" y2="1123.5"/><text class="small" x="137.0" y="1127.5" text-anchor="end">280</text><line class="grid" x1="145.0" y1="1178.0" x2="760.0" y2="1178.0"/><text class="small" x="137.0" y="1182.0" text-anchor="end">140</text><line class="grid" x1="145.0" y1="1232.5" x2="760.0" y2="1232.5"/><text class="small" x="137.0" y="1236.5" text-anchor="end">0</text><line class="axis" x1="145.0" y1="1232.5" x2="760.0" y2="1232.5"/><line class="axis" x1="145.0" y1="960.0" x2="145.0" y2="1232.5"/><line class="grid" x1="145.0" y1="1232.5" x2="145.0" y2="1237.5"/><text class="small" x="145.0" y="1252.5" text-anchor="middle">1</text><line class="grid" x1="151.47368421052633" y1="1232.5" x2="151.47368421052633" y2="1237.5"/><text class="small" x="151.47368421052633" y="1252.5" text-anchor="middle">2</text><line class="grid" x1="164.42105263157896" y1="1232.5" x2="164.42105263157896" y2="1237.5"/><text class="small" x="164.42105263157896" y="1252.5" text-anchor="middle">4</text><line class="grid" x1="190.31578947368422" y1="1232.5" x2="190.31578947368422" y2="1237.5"/><text class="small" x="190.31578947368422" y="1252.5" text-anchor="middle">8</text><line class="grid" x1="216.21052631578948" y1="1232.5" x2="216.21052631578948" y2="1237.5"/><text class="small" x="216.21052631578948" y="1252.5" text-anchor="middle">12</text><line class="grid" x1="242.10526315789474" y1="1232.5" x2="242.10526315789474" y2="1237.5"/><text class="small" x="242.10526315789474" y="1252.5" text-anchor="middle">16</text><line class="grid" x1="293.89473684210526" y1="1232.5" x2="293.89473684210526" y2="1237.5"/><text class="small" x="293.89473684210526" y="1252.5" text-anchor="middle">24</text><line class="grid" x1="345.6842105263158" y1="1232.5" x2="345.6842105263158" y2="1237.5"/><text class="small" x="345.6842105263158" y="1252.5" text-anchor="middle">32</text><line class="grid" x1="449.2631578947368" y1="1232.5" x2="449.2631578947368" y2="1237.5"/><text class="small" x="449.2631578947368" y="1252.5" text-anchor="middle">48</text><line class="grid" x1="552.8421052631579" y1="1232.5" x2="552.8421052631579" y2="1237.5"/><text class="small" x="552.8421052631579" y="1252.5" text-anchor="middle">64</text><line class="grid" x1="760.0" y1="1232.5" x2="760.0" y2="1237.5"/><text class="small" x="760.0" y="1252.5" text-anchor="middle">96</text><polyline fill="none" stroke="#1f77b4" stroke-width="2.5" points="145.0,1197.0 151.5,1165.8 164.4,1111.9 190.3,1061.5 216.2,1029.9 242.1,1026.1 293.9,1019.5 345.7,1018.6 449.3,1017.3 552.8,1021.4 760.0,1023.9"/><circle cx="145.0" cy="1197.0" r="2.8" fill="#1f77b4"/><circle cx="151.5" cy="1165.8" r="2.8" fill="#1f77b4"/><circle cx="164.4" cy="1111.9" r="2.8" fill="#1f77b4"/><circle cx="190.3" cy="1061.5" r="2.8" fill="#1f77b4"/><circle cx="216.2" cy="1029.9" r="2.8" fill="#1f77b4"/><circle cx="242.1" cy="1026.1" r="2.8" fill="#1f77b4"/><circle cx="293.9" cy="1019.5" r="2.8" fill="#1f77b4"/><circle cx="345.7" cy="1018.6" r="2.8" fill="#1f77b4"/><circle cx="449.3" cy="1017.3" r="2.8" fill="#1f77b4"/><circle cx="552.8" cy="1021.4" r="2.8" fill="#1f77b4"/><circle cx="760.0" cy="1023.9" r="2.8" fill="#1f77b4"/><polyline fill="none" stroke="#d62728" stroke-width="2.5" points="145.0,1197.4 151.5,1163.1 164.4,1114.1 190.3,1055.5 216.2,1030.1 242.1,1025.9 293.9,1019.8 345.7,1019.8 449.3,1015.7 552.8,1022.1 760.0,1030.1"/><circle cx="145.0" cy="1197.4" r="2.8" fill="#d62728"/><circle cx="151.5" cy="1163.1" r="2.8" fill="#d62728"/><circle cx="164.4" cy="1114.1" r="2.8" fill="#d62728"/><circle cx="190.3" cy="1055.5" r="2.8" fill="#d62728"/><circle cx="216.2" cy="1030.1" r="2.8" fill="#d62728"/><circle cx="242.1" cy="1025.9" r="2.8" fill="#d62728"/><circle cx="293.9" cy="1019.8" r="2.8" fill="#d62728"/><circle cx="345.7" cy="1019.8" r="2.8" fill="#d62728"/><circle cx="449.3" cy="1015.7" r="2.8" fill="#d62728"/><circle cx="552.8" cy="1022.1" r="2.8" fill="#d62728"/><circle cx="760.0" cy="1030.1" r="2.8" fill="#d62728"/><polyline fill="none" stroke="#2ca02c" stroke-width="2.5" points="145.0,1197.0 151.5,1163.4 164.4,1111.1 190.3,1055.8 216.2,1032.4 242.1,1025.5 293.9,1019.8 345.7,1018.8 449.3,1016.2 552.8,1021.4 760.0,1024.1"/><circle cx="145.0" cy="1197.0" r="2.8" fill="#2ca02c"/><circle cx="151.5" cy="1163.4" r="2.8" fill="#2ca02c"/><circle cx="164.4" cy="1111.1" r="2.8" fill="#2ca02c"/><circle cx="190.3" cy="1055.8" r="2.8" fill="#2ca02c"/><circle cx="216.2" cy="1032.4" r="2.8" fill="#2ca02c"/><circle cx="242.1" cy="1025.5" r="2.8" fill="#2ca02c"/><circle cx="293.9" cy="1019.8" r="2.8" fill="#2ca02c"/><circle cx="345.7" cy="1018.8" r="2.8" fill="#2ca02c"/><circle cx="449.3" cy="1016.2" r="2.8" fill="#2ca02c"/><circle cx="552.8" cy="1021.4" r="2.8" fill="#2ca02c"/><circle cx="760.0" cy="1024.1" r="2.8" fill="#2ca02c"/><text class="small" x="100.0" y="1101.25" transform="rotate(-90 100.0,1101.25)" text-anchor="middle">uProf total BW GB/s</text><text x="1177.5" y="935.0" text-anchor="middle" font-size="18">dual cross</text><line class="grid" x1="890.0" y1="960.0" x2="1505.0" y2="960.0"/><text class="small" x="882.0" y="964.0" text-anchor="end">250</text><line class="grid" x1="890.0" y1="1014.5" x2="1505.0" y2="1014.5"/><text class="small" x="882.0" y="1018.5" text-anchor="end">200</text><line class="grid" x1="890.0" y1="1069.0" x2="1505.0" y2="1069.0"/><text class="small" x="882.0" y="1073.0" text-anchor="end">150</text><line class="grid" x1="890.0" y1="1123.5" x2="1505.0" y2="1123.5"/><text class="small" x="882.0" y="1127.5" text-anchor="end">100</text><line class="grid" x1="890.0" y1="1178.0" x2="1505.0" y2="1178.0"/><text class="small" x="882.0" y="1182.0" text-anchor="end">50</text><line class="grid" x1="890.0" y1="1232.5" x2="1505.0" y2="1232.5"/><text class="small" x="882.0" y="1236.5" text-anchor="end">0</text><line class="axis" x1="890.0" y1="1232.5" x2="1505.0" y2="1232.5"/><line class="axis" x1="890.0" y1="960.0" x2="890.0" y2="1232.5"/><line class="grid" x1="890.0" y1="1232.5" x2="890.0" y2="1237.5"/><text class="small" x="890.0" y="1252.5" text-anchor="middle">1</text><line class="grid" x1="896.4736842105264" y1="1232.5" x2="896.4736842105264" y2="1237.5"/><text class="small" x="896.4736842105264" y="1252.5" text-anchor="middle">2</text><line class="grid" x1="909.421052631579" y1="1232.5" x2="909.421052631579" y2="1237.5"/><text class="small" x="909.421052631579" y="1252.5" text-anchor="middle">4</text><line class="grid" x1="935.3157894736842" y1="1232.5" x2="935.3157894736842" y2="1237.5"/><text class="small" x="935.3157894736842" y="1252.5" text-anchor="middle">8</text><line class="grid" x1="961.2105263157895" y1="1232.5" x2="961.2105263157895" y2="1237.5"/><text class="small" x="961.2105263157895" y="1252.5" text-anchor="middle">12</text><line class="grid" x1="987.1052631578948" y1="1232.5" x2="987.1052631578948" y2="1237.5"/><text class="small" x="987.1052631578948" y="1252.5" text-anchor="middle">16</text><line class="grid" x1="1038.8947368421052" y1="1232.5" x2="1038.8947368421052" y2="1237.5"/><text class="small" x="1038.8947368421052" y="1252.5" text-anchor="middle">24</text><line class="grid" x1="1090.6842105263158" y1="1232.5" x2="1090.6842105263158" y2="1237.5"/><text class="small" x="1090.6842105263158" y="1252.5" text-anchor="middle">32</text><line class="grid" x1="1194.2631578947369" y1="1232.5" x2="1194.2631578947369" y2="1237.5"/><text class="small" x="1194.2631578947369" y="1252.5" text-anchor="middle">48</text><line class="grid" x1="1297.842105263158" y1="1232.5" x2="1297.842105263158" y2="1237.5"/><text class="small" x="1297.842105263158" y="1252.5" text-anchor="middle">64</text><line class="grid" x1="1505.0" y1="1232.5" x2="1505.0" y2="1237.5"/><text class="small" x="1505.0" y="1252.5" text-anchor="middle">96</text><polyline fill="none" stroke="#1f77b4" stroke-width="2.5" points="890.0,1172.6 896.5,1119.1 909.4,1039.1 935.3,1009.9 961.2,1006.7 987.1,1006.4 1038.9,1014.3 1090.7,1005.5 1194.3,1005.4 1297.8,1013.6 1505.0,1017.4"/><circle cx="890.0" cy="1172.6" r="2.8" fill="#1f77b4"/><circle cx="896.5" cy="1119.1" r="2.8" fill="#1f77b4"/><circle cx="909.4" cy="1039.1" r="2.8" fill="#1f77b4"/><circle cx="935.3" cy="1009.9" r="2.8" fill="#1f77b4"/><circle cx="961.2" cy="1006.7" r="2.8" fill="#1f77b4"/><circle cx="987.1" cy="1006.4" r="2.8" fill="#1f77b4"/><circle cx="1038.9" cy="1014.3" r="2.8" fill="#1f77b4"/><circle cx="1090.7" cy="1005.5" r="2.8" fill="#1f77b4"/><circle cx="1194.3" cy="1005.4" r="2.8" fill="#1f77b4"/><circle cx="1297.8" cy="1013.6" r="2.8" fill="#1f77b4"/><circle cx="1505.0" cy="1017.4" r="2.8" fill="#1f77b4"/><polyline fill="none" stroke="#d62728" stroke-width="2.5" points="890.0,1172.5 896.5,1117.6 909.4,1038.7 935.3,1010.1 961.2,1007.5 987.1,1009.9 1038.9,1010.0 1090.7,1005.1 1194.3,1006.6 1297.8,1021.7 1505.0,1016.6"/><circle cx="890.0" cy="1172.5" r="2.8" fill="#d62728"/><circle cx="896.5" cy="1117.6" r="2.8" fill="#d62728"/><circle cx="909.4" cy="1038.7" r="2.8" fill="#d62728"/><circle cx="935.3" cy="1010.1" r="2.8" fill="#d62728"/><circle cx="961.2" cy="1007.5" r="2.8" fill="#d62728"/><circle cx="987.1" cy="1009.9" r="2.8" fill="#d62728"/><circle cx="1038.9" cy="1010.0" r="2.8" fill="#d62728"/><circle cx="1090.7" cy="1005.1" r="2.8" fill="#d62728"/><circle cx="1194.3" cy="1006.6" r="2.8" fill="#d62728"/><circle cx="1297.8" cy="1021.7" r="2.8" fill="#d62728"/><circle cx="1505.0" cy="1016.6" r="2.8" fill="#d62728"/><polyline fill="none" stroke="#2ca02c" stroke-width="2.5" points="890.0,1173.1 896.5,1117.5 909.4,1040.7 935.3,1010.9 961.2,1007.7 987.1,1006.3 1038.9,1011.9 1090.7,1008.1 1194.3,1002.3 1297.8,1016.5 1505.0,1006.1"/><circle cx="890.0" cy="1173.1" r="2.8" fill="#2ca02c"/><circle cx="896.5" cy="1117.5" r="2.8" fill="#2ca02c"/><circle cx="909.4" cy="1040.7" r="2.8" fill="#2ca02c"/><circle cx="935.3" cy="1010.9" r="2.8" fill="#2ca02c"/><circle cx="961.2" cy="1007.7" r="2.8" fill="#2ca02c"/><circle cx="987.1" cy="1006.3" r="2.8" fill="#2ca02c"/><circle cx="1038.9" cy="1011.9" r="2.8" fill="#2ca02c"/><circle cx="1090.7" cy="1008.1" r="2.8" fill="#2ca02c"/><circle cx="1194.3" cy="1002.3" r="2.8" fill="#2ca02c"/><circle cx="1297.8" cy="1016.5" r="2.8" fill="#2ca02c"/><circle cx="1505.0" cy="1006.1" r="2.8" fill="#2ca02c"/><text class="small" x="845.0" y="1101.25" transform="rotate(-90 845.0,1101.25)" text-anchor="middle">uProf total BW GB/s</text><text x="432.5" y="1347.5" text-anchor="middle" font-size="18">mixed target0</text><line class="grid" x1="145.0" y1="1372.5" x2="760.0" y2="1372.5"/><text class="small" x="137.0" y="1376.5" text-anchor="end">400</text><line class="grid" x1="145.0" y1="1427.0" x2="760.0" y2="1427.0"/><text class="small" x="137.0" y="1431.0" text-anchor="end">320</text><line class="grid" x1="145.0" y1="1481.5" x2="760.0" y2="1481.5"/><text class="small" x="137.0" y="1485.5" text-anchor="end">240</text><line class="grid" x1="145.0" y1="1536.0" x2="760.0" y2="1536.0"/><text class="small" x="137.0" y="1540.0" text-anchor="end">160</text><line class="grid" x1="145.0" y1="1590.5" x2="760.0" y2="1590.5"/><text class="small" x="137.0" y="1594.5" text-anchor="end">80</text><line class="grid" x1="145.0" y1="1645.0" x2="760.0" y2="1645.0"/><text class="small" x="137.0" y="1649.0" text-anchor="end">0</text><line class="axis" x1="145.0" y1="1645.0" x2="760.0" y2="1645.0"/><line class="axis" x1="145.0" y1="1372.5" x2="145.0" y2="1645.0"/><line class="grid" x1="145.0" y1="1645.0" x2="145.0" y2="1650.0"/><text class="small" x="145.0" y="1665.0" text-anchor="middle">1</text><line class="grid" x1="151.47368421052633" y1="1645.0" x2="151.47368421052633" y2="1650.0"/><text class="small" x="151.47368421052633" y="1665.0" text-anchor="middle">2</text><line class="grid" x1="164.42105263157896" y1="1645.0" x2="164.42105263157896" y2="1650.0"/><text class="small" x="164.42105263157896" y="1665.0" text-anchor="middle">4</text><line class="grid" x1="190.31578947368422" y1="1645.0" x2="190.31578947368422" y2="1650.0"/><text class="small" x="190.31578947368422" y="1665.0" text-anchor="middle">8</text><line class="grid" x1="216.21052631578948" y1="1645.0" x2="216.21052631578948" y2="1650.0"/><text class="small" x="216.21052631578948" y="1665.0" text-anchor="middle">12</text><line class="grid" x1="242.10526315789474" y1="1645.0" x2="242.10526315789474" y2="1650.0"/><text class="small" x="242.10526315789474" y="1665.0" text-anchor="middle">16</text><line class="grid" x1="293.89473684210526" y1="1645.0" x2="293.89473684210526" y2="1650.0"/><text class="small" x="293.89473684210526" y="1665.0" text-anchor="middle">24</text><line class="grid" x1="345.6842105263158" y1="1645.0" x2="345.6842105263158" y2="1650.0"/><text class="small" x="345.6842105263158" y="1665.0" text-anchor="middle">32</text><line class="grid" x1="449.2631578947368" y1="1645.0" x2="449.2631578947368" y2="1650.0"/><text class="small" x="449.2631578947368" y="1665.0" text-anchor="middle">48</text><line class="grid" x1="552.8421052631579" y1="1645.0" x2="552.8421052631579" y2="1650.0"/><text class="small" x="552.8421052631579" y="1665.0" text-anchor="middle">64</text><line class="grid" x1="760.0" y1="1645.0" x2="760.0" y2="1650.0"/><text class="small" x="760.0" y="1665.0" text-anchor="middle">96</text><polyline fill="none" stroke="#1f77b4" stroke-width="2.5" points="145.0,1597.7 151.5,1556.3 164.4,1504.7 190.3,1452.3 216.2,1448.8 242.1,1448.4 293.9,1451.3 345.7,1452.2 449.3,1441.4 552.8,1450.6 760.0,1446.4"/><circle cx="145.0" cy="1597.7" r="2.8" fill="#1f77b4"/><circle cx="151.5" cy="1556.3" r="2.8" fill="#1f77b4"/><circle cx="164.4" cy="1504.7" r="2.8" fill="#1f77b4"/><circle cx="190.3" cy="1452.3" r="2.8" fill="#1f77b4"/><circle cx="216.2" cy="1448.8" r="2.8" fill="#1f77b4"/><circle cx="242.1" cy="1448.4" r="2.8" fill="#1f77b4"/><circle cx="293.9" cy="1451.3" r="2.8" fill="#1f77b4"/><circle cx="345.7" cy="1452.2" r="2.8" fill="#1f77b4"/><circle cx="449.3" cy="1441.4" r="2.8" fill="#1f77b4"/><circle cx="552.8" cy="1450.6" r="2.8" fill="#1f77b4"/><circle cx="760.0" cy="1446.4" r="2.8" fill="#1f77b4"/><polyline fill="none" stroke="#d62728" stroke-width="2.5" points="145.0,1597.6 151.5,1555.7 164.4,1500.7 190.3,1452.4 216.2,1448.9 242.1,1448.2 293.9,1450.3 345.7,1451.8 449.3,1440.5 552.8,1448.2 760.0,1445.9"/><circle cx="145.0" cy="1597.6" r="2.8" fill="#d62728"/><circle cx="151.5" cy="1555.7" r="2.8" fill="#d62728"/><circle cx="164.4" cy="1500.7" r="2.8" fill="#d62728"/><circle cx="190.3" cy="1452.4" r="2.8" fill="#d62728"/><circle cx="216.2" cy="1448.9" r="2.8" fill="#d62728"/><circle cx="242.1" cy="1448.2" r="2.8" fill="#d62728"/><circle cx="293.9" cy="1450.3" r="2.8" fill="#d62728"/><circle cx="345.7" cy="1451.8" r="2.8" fill="#d62728"/><circle cx="449.3" cy="1440.5" r="2.8" fill="#d62728"/><circle cx="552.8" cy="1448.2" r="2.8" fill="#d62728"/><circle cx="760.0" cy="1445.9" r="2.8" fill="#d62728"/><polyline fill="none" stroke="#2ca02c" stroke-width="2.5" points="145.0,1597.4 151.5,1555.5 164.4,1502.6 190.3,1451.6 216.2,1447.9 242.1,1447.3 293.9,1448.4 345.7,1452.1 449.3,1440.5 552.8,1450.2 760.0,1438.2"/><circle cx="145.0" cy="1597.4" r="2.8" fill="#2ca02c"/><circle cx="151.5" cy="1555.5" r="2.8" fill="#2ca02c"/><circle cx="164.4" cy="1502.6" r="2.8" fill="#2ca02c"/><circle cx="190.3" cy="1451.6" r="2.8" fill="#2ca02c"/><circle cx="216.2" cy="1447.9" r="2.8" fill="#2ca02c"/><circle cx="242.1" cy="1447.3" r="2.8" fill="#2ca02c"/><circle cx="293.9" cy="1448.4" r="2.8" fill="#2ca02c"/><circle cx="345.7" cy="1452.1" r="2.8" fill="#2ca02c"/><circle cx="449.3" cy="1440.5" r="2.8" fill="#2ca02c"/><circle cx="552.8" cy="1450.2" r="2.8" fill="#2ca02c"/><circle cx="760.0" cy="1438.2" r="2.8" fill="#2ca02c"/><text class="small" x="100.0" y="1513.75" transform="rotate(-90 100.0,1513.75)" text-anchor="middle">uProf total BW GB/s</text><text x="1177.5" y="1347.5" text-anchor="middle" font-size="18">mixed target1</text><line class="grid" x1="890.0" y1="1372.5" x2="1505.0" y2="1372.5"/><text class="small" x="882.0" y="1376.5" text-anchor="end">400</text><line class="grid" x1="890.0" y1="1427.0" x2="1505.0" y2="1427.0"/><text class="small" x="882.0" y="1431.0" text-anchor="end">320</text><line class="grid" x1="890.0" y1="1481.5" x2="1505.0" y2="1481.5"/><text class="small" x="882.0" y="1485.5" text-anchor="end">240</text><line class="grid" x1="890.0" y1="1536.0" x2="1505.0" y2="1536.0"/><text class="small" x="882.0" y="1540.0" text-anchor="end">160</text><line class="grid" x1="890.0" y1="1590.5" x2="1505.0" y2="1590.5"/><text class="small" x="882.0" y="1594.5" text-anchor="end">80</text><line class="grid" x1="890.0" y1="1645.0" x2="1505.0" y2="1645.0"/><text class="small" x="882.0" y="1649.0" text-anchor="end">0</text><line class="axis" x1="890.0" y1="1645.0" x2="1505.0" y2="1645.0"/><line class="axis" x1="890.0" y1="1372.5" x2="890.0" y2="1645.0"/><line class="grid" x1="890.0" y1="1645.0" x2="890.0" y2="1650.0"/><text class="small" x="890.0" y="1665.0" text-anchor="middle">1</text><line class="grid" x1="896.4736842105264" y1="1645.0" x2="896.4736842105264" y2="1650.0"/><text class="small" x="896.4736842105264" y="1665.0" text-anchor="middle">2</text><line class="grid" x1="909.421052631579" y1="1645.0" x2="909.421052631579" y2="1650.0"/><text class="small" x="909.421052631579" y="1665.0" text-anchor="middle">4</text><line class="grid" x1="935.3157894736842" y1="1645.0" x2="935.3157894736842" y2="1650.0"/><text class="small" x="935.3157894736842" y="1665.0" text-anchor="middle">8</text><line class="grid" x1="961.2105263157895" y1="1645.0" x2="961.2105263157895" y2="1650.0"/><text class="small" x="961.2105263157895" y="1665.0" text-anchor="middle">12</text><line class="grid" x1="987.1052631578948" y1="1645.0" x2="987.1052631578948" y2="1650.0"/><text class="small" x="987.1052631578948" y="1665.0" text-anchor="middle">16</text><line class="grid" x1="1038.8947368421052" y1="1645.0" x2="1038.8947368421052" y2="1650.0"/><text class="small" x="1038.8947368421052" y="1665.0" text-anchor="middle">24</text><line class="grid" x1="1090.6842105263158" y1="1645.0" x2="1090.6842105263158" y2="1650.0"/><text class="small" x="1090.6842105263158" y="1665.0" text-anchor="middle">32</text><line class="grid" x1="1194.2631578947369" y1="1645.0" x2="1194.2631578947369" y2="1650.0"/><text class="small" x="1194.2631578947369" y="1665.0" text-anchor="middle">48</text><line class="grid" x1="1297.842105263158" y1="1645.0" x2="1297.842105263158" y2="1650.0"/><text class="small" x="1297.842105263158" y="1665.0" text-anchor="middle">64</text><line class="grid" x1="1505.0" y1="1645.0" x2="1505.0" y2="1650.0"/><text class="small" x="1505.0" y="1665.0" text-anchor="middle">96</text><polyline fill="none" stroke="#1f77b4" stroke-width="2.5" points="890.0,1595.2 896.5,1551.7 909.4,1493.3 935.3,1446.2 961.2,1438.6 987.1,1432.2 1038.9,1432.9 1090.7,1431.7 1194.3,1423.9 1297.8,1442.3 1505.0,1426.7"/><circle cx="890.0" cy="1595.2" r="2.8" fill="#1f77b4"/><circle cx="896.5" cy="1551.7" r="2.8" fill="#1f77b4"/><circle cx="909.4" cy="1493.3" r="2.8" fill="#1f77b4"/><circle cx="935.3" cy="1446.2" r="2.8" fill="#1f77b4"/><circle cx="961.2" cy="1438.6" r="2.8" fill="#1f77b4"/><circle cx="987.1" cy="1432.2" r="2.8" fill="#1f77b4"/><circle cx="1038.9" cy="1432.9" r="2.8" fill="#1f77b4"/><circle cx="1090.7" cy="1431.7" r="2.8" fill="#1f77b4"/><circle cx="1194.3" cy="1423.9" r="2.8" fill="#1f77b4"/><circle cx="1297.8" cy="1442.3" r="2.8" fill="#1f77b4"/><circle cx="1505.0" cy="1426.7" r="2.8" fill="#1f77b4"/><polyline fill="none" stroke="#d62728" stroke-width="2.5" points="890.0,1594.5 896.5,1551.2 909.4,1492.8 935.3,1442.9 961.2,1435.3 987.1,1437.0 1038.9,1433.6 1090.7,1430.1 1194.3,1425.1 1297.8,1438.3 1505.0,1428.1"/><circle cx="890.0" cy="1594.5" r="2.8" fill="#d62728"/><circle cx="896.5" cy="1551.2" r="2.8" fill="#d62728"/><circle cx="909.4" cy="1492.8" r="2.8" fill="#d62728"/><circle cx="935.3" cy="1442.9" r="2.8" fill="#d62728"/><circle cx="961.2" cy="1435.3" r="2.8" fill="#d62728"/><circle cx="987.1" cy="1437.0" r="2.8" fill="#d62728"/><circle cx="1038.9" cy="1433.6" r="2.8" fill="#d62728"/><circle cx="1090.7" cy="1430.1" r="2.8" fill="#d62728"/><circle cx="1194.3" cy="1425.1" r="2.8" fill="#d62728"/><circle cx="1297.8" cy="1438.3" r="2.8" fill="#d62728"/><circle cx="1505.0" cy="1428.1" r="2.8" fill="#d62728"/><polyline fill="none" stroke="#2ca02c" stroke-width="2.5" points="890.0,1594.9 896.5,1551.1 909.4,1498.0 935.3,1444.5 961.2,1435.7 987.1,1435.3 1038.9,1431.6 1090.7,1430.6 1194.3,1425.9 1297.8,1436.1 1505.0,1424.9"/><circle cx="890.0" cy="1594.9" r="2.8" fill="#2ca02c"/><circle cx="896.5" cy="1551.1" r="2.8" fill="#2ca02c"/><circle cx="909.4" cy="1498.0" r="2.8" fill="#2ca02c"/><circle cx="935.3" cy="1444.5" r="2.8" fill="#2ca02c"/><circle cx="961.2" cy="1435.7" r="2.8" fill="#2ca02c"/><circle cx="987.1" cy="1435.3" r="2.8" fill="#2ca02c"/><circle cx="1038.9" cy="1431.6" r="2.8" fill="#2ca02c"/><circle cx="1090.7" cy="1430.6" r="2.8" fill="#2ca02c"/><circle cx="1194.3" cy="1425.9" r="2.8" fill="#2ca02c"/><circle cx="1297.8" cy="1436.1" r="2.8" fill="#2ca02c"/><circle cx="1505.0" cy="1424.9" r="2.8" fill="#2ca02c"/><text class="small" x="845.0" y="1513.75" transform="rotate(-90 845.0,1513.75)" text-anchor="middle">uProf total BW GB/s</text></svg>