<svg xmlns="http://www.w3.org/2000/svg" width="1100" height="650" viewBox="0 0 1100 650"><style>text{font-family:monospace;fill:#111}.small{font-size:14px}.axis{stroke:#444;stroke-width:1}.grid{stroke:#ddd;stroke-width:1}</style><rect x="0" y="0" width="1100" height="650" fill="white"/><text x="550.0" y="36" text-anchor="middle" font-size="24">mixed target1 components (4KiB)</text><line class="grid" x1="90" y1="80.0" x2="1010" y2="80.0"/><text class="small" x="82" y="84.0" text-anchor="end">200</text><line class="grid" x1="90" y1="172.0" x2="1010" y2="172.0"/><text class="small" x="82" y="176.0" text-anchor="end">160</text><line class="grid" x1="90" y1="264.0" x2="1010" y2="264.0"/><text class="small" x="82" y="268.0" text-anchor="end">120</text><line class="grid" x1="90" y1="356.0" x2="1010" y2="356.0"/><text class="small" x="82" y="360.0" text-anchor="end">80</text><line class="grid" x1="90" y1="448.0" x2="1010" y2="448.0"/><text class="small" x="82" y="452.0" text-anchor="end">40</text><line class="grid" x1="90" y1="540.0" x2="1010" y2="540.0"/><text class="small" x="82" y="544.0" text-anchor="end">0</text><line class="axis" x1="90" y1="540" x2="1010" y2="540"/><line class="axis" x1="90" y1="80" x2="90" y2="540"/><text class="small" x="90.0" y="560" text-anchor="middle">1</text><text class="small" x="99.6842105263158" y="560" text-anchor="middle">2</text><text class="small" x="119.05263157894737" y="560" text-anchor="middle">4</text><text class="small" x="157.78947368421052" y="560" text-anchor="middle">8</text><text class="small" x="196.5263157894737" y="560" text-anchor="middle">12</text><text class="small" x="235.26315789473685" y="560" text-anchor="middle">16</text><text class="small" x="312.7368421052631" y="560" text-anchor="middle">24</text><text class="small" x="390.2105263157895" y="560" text-anchor="middle">32</text><text class="small" x="545.1578947368421" y="560" text-anchor="middle">48</text><text class="small" x="700.1052631578947" y="560" text-anchor="middle">64</text><text class="small" x="1010.0" y="560" text-anchor="middle">96</text><line x1="90" y1="52" x2="118" y2="52" stroke="#1f77b4" stroke-width="3"/><text x="124" y="57" font-size="14">1302 local</text><line x1="210" y1="52" x2="238" y2="52" stroke="#1f77b4" stroke-width="2" stroke-dasharray="6,4"/><text x="244" y="57" font-size="14">1302 remote</text><line x1="390" y1="52" x2="418" y2="52" stroke="#d62728" stroke-width="3"/><text x="424" y="57" font-size="14">1306 local</text><line x1="510" y1="52" x2="538" y2="52" stroke="#d62728" stroke-width="2" stroke-dasharray="6,4"/><text x="544" y="57" font-size="14">1306 remote</text><line x1="690" y1="52" x2="718" y2="52" stroke="#2ca02c" stroke-width="3"/><text x="724" y="57" font-size="14">1308 local</text><line x1="810" y1="52" x2="838" y2="52" stroke="#2ca02c" stroke-width="2" stroke-dasharray="6,4"/><text x="844" y="57" font-size="14">1308 remote</text><polyline fill="none" stroke="#1f77b4" stroke-width="2.5" points="90.0,458.0 99.7,394.9 119.1,297.0 157.8,260.8 196.5,286.8 235.3,217.1 312.7,172.3 390.2,175.6 545.2,179.2 700.1,177.1 1010.0,179.1"/><circle cx="90.0" cy="458.0" r="2.5" fill="#1f77b4"/><circle cx="99.7" cy="394.9" r="2.5" fill="#1f77b4"/><circle cx="119.1" cy="297.0" r="2.5" fill="#1f77b4"/><circle cx="157.8" cy="260.8" r="2.5" fill="#1f77b4"/><circle cx="196.5" cy="286.8" r="2.5" fill="#1f77b4"/><circle cx="235.3" cy="217.1" r="2.5" fill="#1f77b4"/><circle cx="312.7" cy="172.3" r="2.5" fill="#1f77b4"/><circle cx="390.2" cy="175.6" r="2.5" fill="#1f77b4"/><circle cx="545.2" cy="179.2" r="2.5" fill="#1f77b4"/><circle cx="700.1" cy="177.1" r="2.5" fill="#1f77b4"/><circle cx="1010.0" cy="179.1" r="2.5" fill="#1f77b4"/><polyline fill="none" stroke="#1f77b4" stroke-width="2.5" stroke-dasharray="6,4" points="90.0,490.7 99.7,446.5 119.1,400.1 157.8,373.7 196.5,370.7 235.3,341.5 312.7,399.8 390.2,403.5 545.2,406.1 700.1,406.8 1010.0,403.9"/><circle cx="90.0" cy="490.7" r="2.5" fill="#1f77b4"/><circle cx="99.7" cy="446.5" r="2.5" fill="#1f77b4"/><circle cx="119.1" cy="400.1" r="2.5" fill="#1f77b4"/><circle cx="157.8" cy="373.7" r="2.5" fill="#1f77b4"/><circle cx="196.5" cy="370.7" r="2.5" fill="#1f77b4"/><circle cx="235.3" cy="341.5" r="2.5" fill="#1f77b4"/><circle cx="312.7" cy="399.8" r="2.5" fill="#1f77b4"/><circle cx="390.2" cy="403.5" r="2.5" fill="#1f77b4"/><circle cx="545.2" cy="406.1" r="2.5" fill="#1f77b4"/><circle cx="700.1" cy="406.8" r="2.5" fill="#1f77b4"/><circle cx="1010.0" cy="403.9" r="2.5" fill="#1f77b4"/><polyline fill="none" stroke="#d62728" stroke-width="2.5" points="90.0,456.3 99.7,389.9 119.1,294.8 157.8,259.6 196.5,292.9 235.3,214.7 312.7,174.2 390.2,176.6 545.2,178.4 700.1,177.0 1010.0,176.7"/><circle cx="90.0" cy="456.3" r="2.5" fill="#d62728"/><circle cx="99.7" cy="389.9" r="2.5" fill="#d62728"/><circle cx="119.1" cy="294.8" r="2.5" fill="#d62728"/><circle cx="157.8" cy="259.6" r="2.5" fill="#d62728"/><circle cx="196.5" cy="292.9" r="2.5" fill="#d62728"/><circle cx="235.3" cy="214.7" r="2.5" fill="#d62728"/><circle cx="312.7" cy="174.2" r="2.5" fill="#d62728"/><circle cx="390.2" cy="176.6" r="2.5" fill="#d62728"/><circle cx="545.2" cy="178.4" r="2.5" fill="#d62728"/><circle cx="700.1" cy="177.0" r="2.5" fill="#d62728"/><circle cx="1010.0" cy="176.7" r="2.5" fill="#d62728"/><polyline fill="none" stroke="#d62728" stroke-width="2.5" stroke-dasharray="6,4" points="90.0,489.9 99.7,447.4 119.1,395.1 157.8,367.7 196.5,367.2 235.3,344.8 312.7,398.9 390.2,401.7 545.2,406.5 700.1,408.3 1010.0,403.5"/><circle cx="90.0" cy="489.9" r="2.5" fill="#d62728"/><circle cx="99.7" cy="447.4" r="2.5" fill="#d62728"/><circle cx="119.1" cy="395.1" r="2.5" fill="#d62728"/><circle cx="157.8" cy="367.7" r="2.5" fill="#d62728"/><circle cx="196.5" cy="367.2" r="2.5" fill="#d62728"/><circle cx="235.3" cy="344.8" r="2.5" fill="#d62728"/><circle cx="312.7" cy="398.9" r="2.5" fill="#d62728"/><circle cx="390.2" cy="401.7" r="2.5" fill="#d62728"/><circle cx="545.2" cy="406.5" r="2.5" fill="#d62728"/><circle cx="700.1" cy="408.3" r="2.5" fill="#d62728"/><circle cx="1010.0" cy="403.5" r="2.5" fill="#d62728"/><polyline fill="none" stroke="#2ca02c" stroke-width="2.5" points="90.0,455.0 99.7,390.2 119.1,298.3 157.8,281.8 196.5,287.4 235.3,215.0 312.7,172.7 390.2,175.5 545.2,179.0 700.1,177.9 1010.0,178.1"/><circle cx="90.0" cy="455.0" r="2.5" fill="#2ca02c"/><circle cx="99.7" cy="390.2" r="2.5" fill="#2ca02c"/><circle cx="119.1" cy="298.3" r="2.5" fill="#2ca02c"/><circle cx="157.8" cy="281.8" r="2.5" fill="#2ca02c"/><circle cx="196.5" cy="287.4" r="2.5" fill="#2ca02c"/><circle cx="235.3" cy="215.0" r="2.5" fill="#2ca02c"/><circle cx="312.7" cy="172.7" r="2.5" fill="#2ca02c"/><circle cx="390.2" cy="175.5" r="2.5" fill="#2ca02c"/><circle cx="545.2" cy="179.0" r="2.5" fill="#2ca02c"/><circle cx="700.1" cy="177.9" r="2.5" fill="#2ca02c"/><circle cx="1010.0" cy="178.1" r="2.5" fill="#2ca02c"/><polyline fill="none" stroke="#2ca02c" stroke-width="2.5" stroke-dasharray="6,4" points="90.0,489.5 99.7,446.0 119.1,393.5 157.8,366.2 196.5,373.9 235.3,344.8 312.7,400.5 390.2,403.3 545.2,406.7 700.1,406.2 1010.0,404.3"/><circle cx="90.0" cy="489.5" r="2.5" fill="#2ca02c"/><circle cx="99.7" cy="446.0" r="2.5" fill="#2ca02c"/><circle cx="119.1" cy="393.5" r="2.5" fill="#2ca02c"/><circle cx="157.8" cy="366.2" r="2.5" fill="#2ca02c"/><circle cx="196.5" cy="373.9" r="2.5" fill="#2ca02c"/><circle cx="235.3" cy="344.8" r="2.5" fill="#2ca02c"/><circle cx="312.7" cy="400.5" r="2.5" fill="#2ca02c"/><circle cx="390.2" cy="403.3" r="2.5" fill="#2ca02c"/><circle cx="545.2" cy="406.7" r="2.5" fill="#2ca02c"/><circle cx="700.1" cy="406.2" r="2.5" fill="#2ca02c"/><circle cx="1010.0" cy="404.3" r="2.5" fill="#2ca02c"/></svg>