<svg xmlns="http://www.w3.org/2000/svg" width="1600" height="1800" viewBox="0 0 1600 1800"><style>text{font-family:monospace;fill:#111}.small{font-size:14px}.axis{stroke:#444;stroke-width:1}.grid{stroke:#ddd;stroke-width:1}</style><rect x="0" y="0" width="1600" height="1800" fill="white"/><text x="800.0" y="40" text-anchor="middle" font-size="24">uProf total memory bandwidth vs threads (4KiB)</text><text x="800.0" y="70" text-anchor="middle" font-size="16">threads per process on X axis</text><line x1="1320" y1="30" x2="1348" y2="30" stroke="#1f77b4" stroke-width="3"/><text x="1356" y="35" font-size="14">1302</text><line x1="1320" y1="54" x2="1348" y2="54" stroke="#d62728" stroke-width="3"/><text x="1356" y="59" font-size="14">1306</text><line x1="1320" y1="78" x2="1348" y2="78" stroke="#2ca02c" stroke-width="3"/><text x="1356" y="83" font-size="14">1308</text><text x="432.5" y="110.0" text-anchor="middle" font-size="18">local numa0</text><line class="grid" x1="145.0" y1="135.0" x2="760.0" y2="135.0"/><text class="small" x="137.0" y="139.0" text-anchor="end">450</text><line class="grid" x1="145.0" y1="189.5" x2="760.0" y2="189.5"/><text class="small" x="137.0" y="193.5" text-anchor="end">360</text><line class="grid" x1="145.0" y1="244.0" x2="760.0" y2="244.0"/><text class="small" x="137.0" y="248.0" text-anchor="end">270</text><line class="grid" x1="145.0" y1="298.5" x2="760.0" y2="298.5"/><text class="small" x="137.0" y="302.5" text-anchor="end">180</text><line class="grid" x1="145.0" y1="353.0" x2="760.0" y2="353.0"/><text class="small" x="137.0" y="357.0" text-anchor="end">90</text><line class="grid" x1="145.0" y1="407.5" x2="760.0" y2="407.5"/><text class="small" x="137.0" y="411.5" text-anchor="end">0</text><line class="axis" x1="145.0" y1="407.5" x2="760.0" y2="407.5"/><line class="axis" x1="145.0" y1="135.0" x2="145.0" y2="407.5"/><line class="grid" x1="145.0" y1="407.5" x2="145.0" y2="412.5"/><text class="small" x="145.0" y="427.5" text-anchor="middle">1</text><line class="grid" x1="151.47368421052633" y1="407.5" x2="151.47368421052633" y2="412.5"/><text class="small" x="151.47368421052633" y="427.5" text-anchor="middle">2</text><line class="grid" x1="164.42105263157896" y1="407.5" x2="164.42105263157896" y2="412.5"/><text class="small" x="164.42105263157896" y="427.5" text-anchor="middle">4</text><line class="grid" x1="190.31578947368422" y1="407.5" x2="190.31578947368422" y2="412.5"/><text class="small" x="190.31578947368422" y="427.5" text-anchor="middle">8</text><line class="grid" x1="216.21052631578948" y1="407.5" x2="216.21052631578948" y2="412.5"/><text class="small" x="216.21052631578948" y="427.5" text-anchor="middle">12</text><line class="grid" x1="242.10526315789474" y1="407.5" x2="242.10526315789474" y2="412.5"/><text class="small" x="242.10526315789474" y="427.5" text-anchor="middle">16</text><line class="grid" x1="293.89473684210526" y1="407.5" x2="293.89473684210526" y2="412.5"/><text class="small" x="293.89473684210526" y="427.5" text-anchor="middle">24</text><line class="grid" x1="345.6842105263158" y1="407.5" x2="345.6842105263158" y2="412.5"/><text class="small" x="345.6842105263158" y="427.5" text-anchor="middle">32</text><line class="grid" x1="449.2631578947368" y1="407.5" x2="449.2631578947368" y2="412.5"/><text class="small" x="449.2631578947368" y="427.5" text-anchor="middle">48</text><line class="grid" x1="552.8421052631579" y1="407.5" x2="552.8421052631579" y2="412.5"/><text class="small" x="552.8421052631579" y="427.5" text-anchor="middle">64</text><line class="grid" x1="760.0" y1="407.5" x2="760.0" y2="412.5"/><text class="small" x="760.0" y="427.5" text-anchor="middle">96</text><polyline fill="none" stroke="#1f77b4" stroke-width="2.5" points="145.0,380.6 151.5,359.1 164.4,326.9 190.3,321.4 216.2,322.4 242.1,287.7 293.9,234.0 345.7,224.6 449.3,210.6 552.8,203.9 760.0,197.8"/><circle cx="145.0" cy="380.6" r="2.8" fill="#1f77b4"/><circle cx="151.5" cy="359.1" r="2.8" fill="#1f77b4"/><circle cx="164.4" cy="326.9" r="2.8" fill="#1f77b4"/><circle cx="190.3" cy="321.4" r="2.8" fill="#1f77b4"/><circle cx="216.2" cy="322.4" r="2.8" fill="#1f77b4"/><circle cx="242.1" cy="287.7" r="2.8" fill="#1f77b4"/><circle cx="293.9" cy="234.0" r="2.8" fill="#1f77b4"/><circle cx="345.7" cy="224.6" r="2.8" fill="#1f77b4"/><circle cx="449.3" cy="210.6" r="2.8" fill="#1f77b4"/><circle cx="552.8" cy="203.9" r="2.8" fill="#1f77b4"/><circle cx="760.0" cy="197.8" r="2.8" fill="#1f77b4"/><polyline fill="none" stroke="#d62728" stroke-width="2.5" points="145.0,381.1 151.5,358.8 164.4,324.0 190.3,321.9 216.2,318.2 242.1,288.8 293.9,231.8 345.7,222.3 449.3,211.6 552.8,203.1 760.0,199.8"/><circle cx="145.0" cy="381.1" r="2.8" fill="#d62728"/><circle cx="151.5" cy="358.8" r="2.8" fill="#d62728"/><circle cx="164.4" cy="324.0" r="2.8" fill="#d62728"/><circle cx="190.3" cy="321.9" r="2.8" fill="#d62728"/><circle cx="216.2" cy="318.2" r="2.8" fill="#d62728"/><circle cx="242.1" cy="288.8" r="2.8" fill="#d62728"/><circle cx="293.9" cy="231.8" r="2.8" fill="#d62728"/><circle cx="345.7" cy="222.3" r="2.8" fill="#d62728"/><circle cx="449.3" cy="211.6" r="2.8" fill="#d62728"/><circle cx="552.8" cy="203.1" r="2.8" fill="#d62728"/><circle cx="760.0" cy="199.8" r="2.8" fill="#d62728"/><polyline fill="none" stroke="#2ca02c" stroke-width="2.5" points="145.0,380.4 151.5,359.5 164.4,333.1 190.3,327.2 216.2,326.2 242.1,292.0 293.9,233.4 345.7,224.9 449.3,212.8 552.8,202.0 760.0,202.5"/><circle cx="145.0" cy="380.4" r="2.8" fill="#2ca02c"/><circle cx="151.5" cy="359.5" r="2.8" fill="#2ca02c"/><circle cx="164.4" cy="333.1" r="2.8" fill="#2ca02c"/><circle cx="190.3" cy="327.2" r="2.8" fill="#2ca02c"/><circle cx="216.2" cy="326.2" r="2.8" fill="#2ca02c"/><circle cx="242.1" cy="292.0" r="2.8" fill="#2ca02c"/><circle cx="293.9" cy="233.4" r="2.8" fill="#2ca02c"/><circle cx="345.7" cy="224.9" r="2.8" fill="#2ca02c"/><circle cx="449.3" cy="212.8" r="2.8" fill="#2ca02c"/><circle cx="552.8" cy="202.0" r="2.8" fill="#2ca02c"/><circle cx="760.0" cy="202.5" r="2.8" fill="#2ca02c"/><text class="small" x="100.0" y="276.25" transform="rotate(-90 100.0,276.25)" text-anchor="middle">uProf total BW GB/s</text><text x="1177.5" y="110.0" text-anchor="middle" font-size="18">local numa1</text><line class="grid" x1="890.0" y1="135.0" x2="1505.0" y2="135.0"/><text class="small" x="882.0" y="139.0" text-anchor="end">450</text><line class="grid" x1="890.0" y1="189.5" x2="1505.0" y2="189.5"/><text class="small" x="882.0" y="193.5" text-anchor="end">360</text><line class="grid" x1="890.0" y1="244.0" x2="1505.0" y2="244.0"/><text class="small" x="882.0" y="248.0" text-anchor="end">270</text><line class="grid" x1="890.0" y1="298.5" x2="1505.0" y2="298.5"/><text class="small" x="882.0" y="302.5" text-anchor="end">180</text><line class="grid" x1="890.0" y1="353.0" x2="1505.0" y2="353.0"/><text class="small" x="882.0" y="357.0" text-anchor="end">90</text><line class="grid" x1="890.0" y1="407.5" x2="1505.0" y2="407.5"/><text class="small" x="882.0" y="411.5" text-anchor="end">0</text><line class="axis" x1="890.0" y1="407.5" x2="1505.0" y2="407.5"/><line class="axis" x1="890.0" y1="135.0" x2="890.0" y2="407.5"/><line class="grid" x1="890.0" y1="407.5" x2="890.0" y2="412.5"/><text class="small" x="890.0" y="427.5" text-anchor="middle">1</text><line class="grid" x1="896.4736842105264" y1="407.5" x2="896.4736842105264" y2="412.5"/><text class="small" x="896.4736842105264" y="427.5" text-anchor="middle">2</text><line class="grid" x1="909.421052631579" y1="407.5" x2="909.421052631579" y2="412.5"/><text class="small" x="909.421052631579" y="427.5" text-anchor="middle">4</text><line class="grid" x1="935.3157894736842" y1="407.5" x2="935.3157894736842" y2="412.5"/><text class="small" x="935.3157894736842" y="427.5" text-anchor="middle">8</text><line class="grid" x1="961.2105263157895" y1="407.5" x2="961.2105263157895" y2="412.5"/><text class="small" x="961.2105263157895" y="427.5" text-anchor="middle">12</text><line class="grid" x1="987.1052631578948" y1="407.5" x2="987.1052631578948" y2="412.5"/><text class="small" x="987.1052631578948" y="427.5" text-anchor="middle">16</text><line class="grid" x1="1038.8947368421052" y1="407.5" x2="1038.8947368421052" y2="412.5"/><text class="small" x="1038.8947368421052" y="427.5" text-anchor="middle">24</text><line class="grid" x1="1090.6842105263158" y1="407.5" x2="1090.6842105263158" y2="412.5"/><text class="small" x="1090.6842105263158" y="427.5" text-anchor="middle">32</text><line class="grid" x1="1194.2631578947369" y1="407.5" x2="1194.2631578947369" y2="412.5"/><text class="small" x="1194.2631578947369" y="427.5" text-anchor="middle">48</text><line class="grid" x1="1297.842105263158" y1="407.5" x2="1297.842105263158" y2="412.5"/><text class="small" x="1297.842105263158" y="427.5" text-anchor="middle">64</text><line class="grid" x1="1505.0" y1="407.5" x2="1505.0" y2="412.5"/><text class="small" x="1505.0" y="427.5" text-anchor="middle">96</text><polyline fill="none" stroke="#1f77b4" stroke-width="2.5" points="890.0,380.1 896.5,356.8 909.4,330.4 935.3,319.3 961.2,322.1 987.1,287.5 1038.9,231.9 1090.7,224.3 1194.3,215.7 1297.8,204.7 1505.0,200.4"/><circle cx="890.0" cy="380.1" r="2.8" fill="#1f77b4"/><circle cx="896.5" cy="356.8" r="2.8" fill="#1f77b4"/><circle cx="909.4" cy="330.4" r="2.8" fill="#1f77b4"/><circle cx="935.3" cy="319.3" r="2.8" fill="#1f77b4"/><circle cx="961.2" cy="322.1" r="2.8" fill="#1f77b4"/><circle cx="987.1" cy="287.5" r="2.8" fill="#1f77b4"/><circle cx="1038.9" cy="231.9" r="2.8" fill="#1f77b4"/><circle cx="1090.7" cy="224.3" r="2.8" fill="#1f77b4"/><circle cx="1194.3" cy="215.7" r="2.8" fill="#1f77b4"/><circle cx="1297.8" cy="204.7" r="2.8" fill="#1f77b4"/><circle cx="1505.0" cy="200.4" r="2.8" fill="#1f77b4"/><polyline fill="none" stroke="#d62728" stroke-width="2.5" points="890.0,380.9 896.5,358.5 909.4,326.2 935.3,323.7 961.2,320.1 987.1,293.6 1038.9,228.6 1090.7,224.4 1194.3,214.6 1297.8,204.5 1505.0,205.2"/><circle cx="890.0" cy="380.9" r="2.8" fill="#d62728"/><circle cx="896.5" cy="358.5" r="2.8" fill="#d62728"/><circle cx="909.4" cy="326.2" r="2.8" fill="#d62728"/><circle cx="935.3" cy="323.7" r="2.8" fill="#d62728"/><circle cx="961.2" cy="320.1" r="2.8" fill="#d62728"/><circle cx="987.1" cy="293.6" r="2.8" fill="#d62728"/><circle cx="1038.9" cy="228.6" r="2.8" fill="#d62728"/><circle cx="1090.7" cy="224.4" r="2.8" fill="#d62728"/><circle cx="1194.3" cy="214.6" r="2.8" fill="#d62728"/><circle cx="1297.8" cy="204.5" r="2.8" fill="#d62728"/><circle cx="1505.0" cy="205.2" r="2.8" fill="#d62728"/><polyline fill="none" stroke="#2ca02c" stroke-width="2.5" points="890.0,380.6 896.5,357.6 909.4,323.8 935.3,322.0 961.2,319.3 987.1,286.9 1038.9,231.3 1090.7,224.5 1194.3,211.5 1297.8,204.5 1505.0,201.2"/><circle cx="890.0" cy="380.6" r="2.8" fill="#2ca02c"/><circle cx="896.5" cy="357.6" r="2.8" fill="#2ca02c"/><circle cx="909.4" cy="323.8" r="2.8" fill="#2ca02c"/><circle cx="935.3" cy="322.0" r="2.8" fill="#2ca02c"/><circle cx="961.2" cy="319.3" r="2.8" fill="#2ca02c"/><circle cx="987.1" cy="286.9" r="2.8" fill="#2ca02c"/><circle cx="1038.9" cy="231.3" r="2.8" fill="#2ca02c"/><circle cx="1090.7" cy="224.5" r="2.8" fill="#2ca02c"/><circle cx="1194.3" cy="211.5" r="2.8" fill="#2ca02c"/><circle cx="1297.8" cy="204.5" r="2.8" fill="#2ca02c"/><circle cx="1505.0" cy="201.2" r="2.8" fill="#2ca02c"/><text class="small" x="845.0" y="276.25" transform="rotate(-90 845.0,276.25)" text-anchor="middle">uProf total BW GB/s</text><text x="432.5" y="522.5" text-anchor="middle" font-size="18">remote 0-&gt;1</text><line class="grid" x1="145.0" y1="547.5" x2="760.0" y2="547.5"/><text class="small" x="137.0" y="551.5" text-anchor="end">225</text><line class="grid" x1="145.0" y1="602.0" x2="760.0" y2="602.0"/><text class="small" x="137.0" y="606.0" text-anchor="end">180</text><line class="grid" x1="145.0" y1="656.5" x2="760.0" y2="656.5"/><text class="small" x="137.0" y="660.5" text-anchor="end">135</text><line class="grid" x1="145.0" y1="711.0" x2="760.0" y2="711.0"/><text class="small" x="137.0" y="715.0" text-anchor="end">90</text><line class="grid" x1="145.0" y1="765.5" x2="760.0" y2="765.5"/><text class="small" x="137.0" y="769.5" text-anchor="end">45</text><line class="grid" x1="145.0" y1="820.0" x2="760.0" y2="820.0"/><text class="small" x="137.0" y="824.0" text-anchor="end">0</text><line class="axis" x1="145.0" y1="820.0" x2="760.0" y2="820.0"/><line class="axis" x1="145.0" y1="547.5" x2="145.0" y2="820.0"/><line class="grid" x1="145.0" y1="820.0" x2="145.0" y2="825.0"/><text class="small" x="145.0" y="840.0" text-anchor="middle">1</text><line class="grid" x1="151.47368421052633" y1="820.0" x2="151.47368421052633" y2="825.0"/><text class="small" x="151.47368421052633" y="840.0" text-anchor="middle">2</text><line class="grid" x1="164.42105263157896" y1="820.0" x2="164.42105263157896" y2="825.0"/><text class="small" x="164.42105263157896" y="840.0" text-anchor="middle">4</text><line class="grid" x1="190.31578947368422" y1="820.0" x2="190.31578947368422" y2="825.0"/><text class="small" x="190.31578947368422" y="840.0" text-anchor="middle">8</text><line class="grid" x1="216.21052631578948" y1="820.0" x2="216.21052631578948" y2="825.0"/><text class="small" x="216.21052631578948" y="840.0" text-anchor="middle">12</text><line class="grid" x1="242.10526315789474" y1="820.0" x2="242.10526315789474" y2="825.0"/><text class="small" x="242.10526315789474" y="840.0" text-anchor="middle">16</text><line class="grid" x1="293.89473684210526" y1="820.0" x2="293.89473684210526" y2="825.0"/><text class="small" x="293.89473684210526" y="840.0" text-anchor="middle">24</text><line class="grid" x1="345.6842105263158" y1="820.0" x2="345.6842105263158" y2="825.0"/><text class="small" x="345.6842105263158" y="840.0" text-anchor="middle">32</text><line class="grid" x1="449.2631578947368" y1="820.0" x2="449.2631578947368" y2="825.0"/><text class="small" x="449.2631578947368" y="840.0" text-anchor="middle">48</text><line class="grid" x1="552.8421052631579" y1="820.0" x2="552.8421052631579" y2="825.0"/><text class="small" x="552.8421052631579" y="840.0" text-anchor="middle">64</text><line class="grid" x1="760.0" y1="820.0" x2="760.0" y2="825.0"/><text class="small" x="760.0" y="840.0" text-anchor="middle">96</text><polyline fill="none" stroke="#1f77b4" stroke-width="2.5" points="145.0,785.9 151.5,756.4 164.4,719.2 190.3,712.6 216.2,705.9 242.1,676.0 293.9,634.9 345.7,632.7 449.3,626.2 552.8,613.0 760.0,594.4"/><circle cx="145.0" cy="785.9" r="2.8" fill="#1f77b4"/><circle cx="151.5" cy="756.4" r="2.8" fill="#1f77b4"/><circle cx="164.4" cy="719.2" r="2.8" fill="#1f77b4"/><circle cx="190.3" cy="712.6" r="2.8" fill="#1f77b4"/><circle cx="216.2" cy="705.9" r="2.8" fill="#1f77b4"/><circle cx="242.1" cy="676.0" r="2.8" fill="#1f77b4"/><circle cx="293.9" cy="634.9" r="2.8" fill="#1f77b4"/><circle cx="345.7" cy="632.7" r="2.8" fill="#1f77b4"/><circle cx="449.3" cy="626.2" r="2.8" fill="#1f77b4"/><circle cx="552.8" cy="613.0" r="2.8" fill="#1f77b4"/><circle cx="760.0" cy="594.4" r="2.8" fill="#1f77b4"/><polyline fill="none" stroke="#d62728" stroke-width="2.5" points="145.0,785.6 151.5,756.6 164.4,721.9 190.3,704.3 216.2,707.6 242.1,674.0 293.9,634.3 345.7,633.5 449.3,622.4 552.8,613.1 760.0,604.4"/><circle cx="145.0" cy="785.6" r="2.8" fill="#d62728"/><circle cx="151.5" cy="756.6" r="2.8" fill="#d62728"/><circle cx="164.4" cy="721.9" r="2.8" fill="#d62728"/><circle cx="190.3" cy="704.3" r="2.8" fill="#d62728"/><circle cx="216.2" cy="707.6" r="2.8" fill="#d62728"/><circle cx="242.1" cy="674.0" r="2.8" fill="#d62728"/><circle cx="293.9" cy="634.3" r="2.8" fill="#d62728"/><circle cx="345.7" cy="633.5" r="2.8" fill="#d62728"/><circle cx="449.3" cy="622.4" r="2.8" fill="#d62728"/><circle cx="552.8" cy="613.1" r="2.8" fill="#d62728"/><circle cx="760.0" cy="604.4" r="2.8" fill="#d62728"/><polyline fill="none" stroke="#2ca02c" stroke-width="2.5" points="145.0,785.6 151.5,756.5 164.4,727.2 190.3,708.7 216.2,704.1 242.1,675.0 293.9,636.1 345.7,631.9 449.3,623.0 552.8,611.7 760.0,595.7"/><circle cx="145.0" cy="785.6" r="2.8" fill="#2ca02c"/><circle cx="151.5" cy="756.5" r="2.8" fill="#2ca02c"/><circle cx="164.4" cy="727.2" r="2.8" fill="#2ca02c"/><circle cx="190.3" cy="708.7" r="2.8" fill="#2ca02c"/><circle cx="216.2" cy="704.1" r="2.8" fill="#2ca02c"/><circle cx="242.1" cy="675.0" r="2.8" fill="#2ca02c"/><circle cx="293.9" cy="636.1" r="2.8" fill="#2ca02c"/><circle cx="345.7" cy="631.9" r="2.8" fill="#2ca02c"/><circle cx="449.3" cy="623.0" r="2.8" fill="#2ca02c"/><circle cx="552.8" cy="611.7" r="2.8" fill="#2ca02c"/><circle cx="760.0" cy="595.7" r="2.8" fill="#2ca02c"/><text class="small" x="100.0" y="688.75" transform="rotate(-90 100.0,688.75)" text-anchor="middle">uProf total BW GB/s</text><text x="1177.5" y="522.5" text-anchor="middle" font-size="18">remote 1-&gt;0</text><line class="grid" x1="890.0" y1="547.5" x2="1505.0" y2="547.5"/><text class="small" x="882.0" y="551.5" text-anchor="end">225</text><line class="grid" x1="890.0" y1="602.0" x2="1505.0" y2="602.0"/><text class="small" x="882.0" y="606.0" text-anchor="end">180</text><line class="grid" x1="890.0" y1="656.5" x2="1505.0" y2="656.5"/><text class="small" x="882.0" y="660.5" text-anchor="end">135</text><line class="grid" x1="890.0" y1="711.0" x2="1505.0" y2="711.0"/><text class="small" x="882.0" y="715.0" text-anchor="end">90</text><line class="grid" x1="890.0" y1="765.5" x2="1505.0" y2="765.5"/><text class="small" x="882.0" y="769.5" text-anchor="end">45</text><line class="grid" x1="890.0" y1="820.0" x2="1505.0" y2="820.0"/><text class="small" x="882.0" y="824.0" text-anchor="end">0</text><line class="axis" x1="890.0" y1="820.0" x2="1505.0" y2="820.0"/><line class="axis" x1="890.0" y1="547.5" x2="890.0" y2="820.0"/><line class="grid" x1="890.0" y1="820.0" x2="890.0" y2="825.0"/><text class="small" x="890.0" y="840.0" text-anchor="middle">1</text><line class="grid" x1="896.4736842105264" y1="820.0" x2="896.4736842105264" y2="825.0"/><text class="small" x="896.4736842105264" y="840.0" text-anchor="middle">2</text><line class="grid" x1="909.421052631579" y1="820.0" x2="909.421052631579" y2="825.0"/><text class="small" x="909.421052631579" y="840.0" text-anchor="middle">4</text><line class="grid" x1="935.3157894736842" y1="820.0" x2="935.3157894736842" y2="825.0"/><text class="small" x="935.3157894736842" y="840.0" text-anchor="middle">8</text><line class="grid" x1="961.2105263157895" y1="820.0" x2="961.2105263157895" y2="825.0"/><text class="small" x="961.2105263157895" y="840.0" text-anchor="middle">12</text><line class="grid" x1="987.1052631578948" y1="820.0" x2="987.1052631578948" y2="825.0"/><text class="small" x="987.1052631578948" y="840.0" text-anchor="middle">16</text><line class="grid" x1="1038.8947368421052" y1="820.0" x2="1038.8947368421052" y2="825.0"/><text class="small" x="1038.8947368421052" y="840.0" text-anchor="middle">24</text><line class="grid" x1="1090.6842105263158" y1="820.0" x2="1090.6842105263158" y2="825.0"/><text class="small" x="1090.6842105263158" y="840.0" text-anchor="middle">32</text><line class="grid" x1="1194.2631578947369" y1="820.0" x2="1194.2631578947369" y2="825.0"/><text class="small" x="1194.2631578947369" y="840.0" text-anchor="middle">48</text><line class="grid" x1="1297.842105263158" y1="820.0" x2="1297.842105263158" y2="825.0"/><text class="small" x="1297.842105263158" y="840.0" text-anchor="middle">64</text><line class="grid" x1="1505.0" y1="820.0" x2="1505.0" y2="825.0"/><text class="small" x="1505.0" y="840.0" text-anchor="middle">96</text><polyline fill="none" stroke="#1f77b4" stroke-width="2.5" points="890.0,785.4 896.5,754.9 909.4,724.7 935.3,710.1 961.2,702.8 987.1,677.3 1038.9,636.1 1090.7,634.1 1194.3,625.9 1297.8,626.7 1505.0,605.0"/><circle cx="890.0" cy="785.4" r="2.8" fill="#1f77b4"/><circle cx="896.5" cy="754.9" r="2.8" fill="#1f77b4"/><circle cx="909.4" cy="724.7" r="2.8" fill="#1f77b4"/><circle cx="935.3" cy="710.1" r="2.8" fill="#1f77b4"/><circle cx="961.2" cy="702.8" r="2.8" fill="#1f77b4"/><circle cx="987.1" cy="677.3" r="2.8" fill="#1f77b4"/><circle cx="1038.9" cy="636.1" r="2.8" fill="#1f77b4"/><circle cx="1090.7" cy="634.1" r="2.8" fill="#1f77b4"/><circle cx="1194.3" cy="625.9" r="2.8" fill="#1f77b4"/><circle cx="1297.8" cy="626.7" r="2.8" fill="#1f77b4"/><circle cx="1505.0" cy="605.0" r="2.8" fill="#1f77b4"/><polyline fill="none" stroke="#d62728" stroke-width="2.5" points="890.0,785.3 896.5,756.5 909.4,723.6 935.3,706.7 961.2,706.7 987.1,678.8 1038.9,633.6 1090.7,633.9 1194.3,622.8 1297.8,627.0 1505.0,616.7"/><circle cx="890.0" cy="785.3" r="2.8" fill="#d62728"/><circle cx="896.5" cy="756.5" r="2.8" fill="#d62728"/><circle cx="909.4" cy="723.6" r="2.8" fill="#d62728"/><circle cx="935.3" cy="706.7" r="2.8" fill="#d62728"/><circle cx="961.2" cy="706.7" r="2.8" fill="#d62728"/><circle cx="987.1" cy="678.8" r="2.8" fill="#d62728"/><circle cx="1038.9" cy="633.6" r="2.8" fill="#d62728"/><circle cx="1090.7" cy="633.9" r="2.8" fill="#d62728"/><circle cx="1194.3" cy="622.8" r="2.8" fill="#d62728"/><circle cx="1297.8" cy="627.0" r="2.8" fill="#d62728"/><circle cx="1505.0" cy="616.7" r="2.8" fill="#d62728"/><polyline fill="none" stroke="#2ca02c" stroke-width="2.5" points="890.0,785.2 896.5,754.8 909.4,722.3 935.3,706.1 961.2,710.5 987.1,670.0 1038.9,634.2 1090.7,633.0 1194.3,622.1 1297.8,626.8 1505.0,608.7"/><circle cx="890.0" cy="785.2" r="2.8" fill="#2ca02c"/><circle cx="896.5" cy="754.8" r="2.8" fill="#2ca02c"/><circle cx="909.4" cy="722.3" r="2.8" fill="#2ca02c"/><circle cx="935.3" cy="706.1" r="2.8" fill="#2ca02c"/><circle cx="961.2" cy="710.5" r="2.8" fill="#2ca02c"/><circle cx="987.1" cy="670.0" r="2.8" fill="#2ca02c"/><circle cx="1038.9" cy="634.2" r="2.8" fill="#2ca02c"/><circle cx="1090.7" cy="633.0" r="2.8" fill="#2ca02c"/><circle cx="1194.3" cy="622.1" r="2.8" fill="#2ca02c"/><circle cx="1297.8" cy="626.8" r="2.8" fill="#2ca02c"/><circle cx="1505.0" cy="608.7" r="2.8" fill="#2ca02c"/><text class="small" x="845.0" y="688.75" transform="rotate(-90 845.0,688.75)" text-anchor="middle">uProf total BW GB/s</text><text x="432.5" y="935.0" text-anchor="middle" font-size="18">dual local</text><line class="grid" x1="145.0" y1="960.0" x2="760.0" y2="960.0"/><text class="small" x="137.0" y="964.0" text-anchor="end">700</text><line class="grid" x1="145.0" y1="1014.5" x2="760.0" y2="1014.5"/><text class="small" x="137.0" y="1018.5" text-anchor="end">560</text><line class="grid" x1="145.0" y1="1069.0" x2="760.0" y2="1069.0"/><text class="small" x="137.0" y="1073.0" text-anchor="end">420</text><line class="grid" x1="145.0" y1="1123.5" x2="760.0" y2="1123.5"/><text class="small" x="137.0" y="1127.5" text-anchor="end">280</text><line class="grid" x1="145.0" y1="1178.0" x2="760.0" y2="1178.0"/><text class="small" x="137.0" y="1182.0" text-anchor="end">140</text><line class="grid" x1="145.0" y1="1232.5" x2="760.0" y2="1232.5"/><text class="small" x="137.0" y="1236.5" text-anchor="end">0</text><line class="axis" x1="145.0" y1="1232.5" x2="760.0" y2="1232.5"/><line class="axis" x1="145.0" y1="960.0" x2="145.0" y2="1232.5"/><line class="grid" x1="145.0" y1="1232.5" x2="145.0" y2="1237.5"/><text class="small" x="145.0" y="1252.5" text-anchor="middle">1</text><line class="grid" x1="151.47368421052633" y1="1232.5" x2="151.47368421052633" y2="1237.5"/><text class="small" x="151.47368421052633" y="1252.5" text-anchor="middle">2</text><line class="grid" x1="164.42105263157896" y1="1232.5" x2="164.42105263157896" y2="1237.5"/><text class="small" x="164.42105263157896" y="1252.5" text-anchor="middle">4</text><line class="grid" x1="190.31578947368422" y1="1232.5" x2="190.31578947368422" y2="1237.5"/><text class="small" x="190.31578947368422" y="1252.5" text-anchor="middle">8</text><line class="grid" x1="216.21052631578948" y1="1232.5" x2="216.21052631578948" y2="1237.5"/><text class="small" x="216.21052631578948" y="1252.5" text-anchor="middle">12</text><line class="grid" x1="242.10526315789474" y1="1232.5" x2="242.10526315789474" y2="1237.5"/><text class="small" x="242.10526315789474" y="1252.5" text-anchor="middle">16</text><line class="grid" x1="293.89473684210526" y1="1232.5" x2="293.89473684210526" y2="1237.5"/><text class="small" x="293.89473684210526" y="1252.5" text-anchor="middle">24</text><line class="grid" x1="345.6842105263158" y1="1232.5" x2="345.6842105263158" y2="1237.5"/><text class="small" x="345.6842105263158" y="1252.5" text-anchor="middle">32</text><line class="grid" x1="449.2631578947368" y1="1232.5" x2="449.2631578947368" y2="1237.5"/><text class="small" x="449.2631578947368" y="1252.5" text-anchor="middle">48</text><line class="grid" x1="552.8421052631579" y1="1232.5" x2="552.8421052631579" y2="1237.5"/><text class="small" x="552.8421052631579" y="1252.5" text-anchor="middle">64</text><line class="grid" x1="760.0" y1="1232.5" x2="760.0" y2="1237.5"/><text class="small" x="760.0" y="1252.5" text-anchor="middle">96</text><polyline fill="none" stroke="#1f77b4" stroke-width="2.5" points="145.0,1200.2 151.5,1173.3 164.4,1135.2 190.3,1133.2 216.2,1131.1 242.1,1094.8 293.9,1028.0 345.7,1021.8 449.3,1016.4 552.8,1021.9 760.0,1030.6"/><circle cx="145.0" cy="1200.2" r="2.8" fill="#1f77b4"/><circle cx="151.5" cy="1173.3" r="2.8" fill="#1f77b4"/><circle cx="164.4" cy="1135.2" r="2.8" fill="#1f77b4"/><circle cx="190.3" cy="1133.2" r="2.8" fill="#1f77b4"/><circle cx="216.2" cy="1131.1" r="2.8" fill="#1f77b4"/><circle cx="242.1" cy="1094.8" r="2.8" fill="#1f77b4"/><circle cx="293.9" cy="1028.0" r="2.8" fill="#1f77b4"/><circle cx="345.7" cy="1021.8" r="2.8" fill="#1f77b4"/><circle cx="449.3" cy="1016.4" r="2.8" fill="#1f77b4"/><circle cx="552.8" cy="1021.9" r="2.8" fill="#1f77b4"/><circle cx="760.0" cy="1030.6" r="2.8" fill="#1f77b4"/><polyline fill="none" stroke="#d62728" stroke-width="2.5" points="145.0,1199.7 151.5,1172.8 164.4,1138.0 190.3,1128.0 216.2,1129.9 242.1,1091.2 293.9,1023.6 345.7,1021.3 449.3,1016.6 552.8,1022.3 760.0,1031.4"/><circle cx="145.0" cy="1199.7" r="2.8" fill="#d62728"/><circle cx="151.5" cy="1172.8" r="2.8" fill="#d62728"/><circle cx="164.4" cy="1138.0" r="2.8" fill="#d62728"/><circle cx="190.3" cy="1128.0" r="2.8" fill="#d62728"/><circle cx="216.2" cy="1129.9" r="2.8" fill="#d62728"/><circle cx="242.1" cy="1091.2" r="2.8" fill="#d62728"/><circle cx="293.9" cy="1023.6" r="2.8" fill="#d62728"/><circle cx="345.7" cy="1021.3" r="2.8" fill="#d62728"/><circle cx="449.3" cy="1016.6" r="2.8" fill="#d62728"/><circle cx="552.8" cy="1022.3" r="2.8" fill="#d62728"/><circle cx="760.0" cy="1031.4" r="2.8" fill="#d62728"/><polyline fill="none" stroke="#2ca02c" stroke-width="2.5" points="145.0,1199.7 151.5,1174.4 164.4,1132.4 190.3,1133.2 216.2,1129.3 242.1,1092.4 293.9,1025.5 345.7,1021.8 449.3,1017.4 552.8,1021.0 760.0,1029.1"/><circle cx="145.0" cy="1199.7" r="2.8" fill="#2ca02c"/><circle cx="151.5" cy="1174.4" r="2.8" fill="#2ca02c"/><circle cx="164.4" cy="1132.4" r="2.8" fill="#2ca02c"/><circle cx="190.3" cy="1133.2" r="2.8" fill="#2ca02c"/><circle cx="216.2" cy="1129.3" r="2.8" fill="#2ca02c"/><circle cx="242.1" cy="1092.4" r="2.8" fill="#2ca02c"/><circle cx="293.9" cy="1025.5" r="2.8" fill="#2ca02c"/><circle cx="345.7" cy="1021.8" r="2.8" fill="#2ca02c"/><circle cx="449.3" cy="1017.4" r="2.8" fill="#2ca02c"/><circle cx="552.8" cy="1021.0" r="2.8" fill="#2ca02c"/><circle cx="760.0" cy="1029.1" r="2.8" fill="#2ca02c"/><text class="small" x="100.0" y="1101.25" transform="rotate(-90 100.0,1101.25)" text-anchor="middle">uProf total BW GB/s</text><text x="1177.5" y="935.0" text-anchor="middle" font-size="18">dual cross</text><line class="grid" x1="890.0" y1="960.0" x2="1505.0" y2="960.0"/><text class="small" x="882.0" y="964.0" text-anchor="end">250</text><line class="grid" x1="890.0" y1="1014.5" x2="1505.0" y2="1014.5"/><text class="small" x="882.0" y="1018.5" text-anchor="end">200</text><line class="grid" x1="890.0" y1="1069.0" x2="1505.0" y2="1069.0"/><text class="small" x="882.0" y="1073.0" text-anchor="end">150</text><line class="grid" x1="890.0" y1="1123.5" x2="1505.0" y2="1123.5"/><text class="small" x="882.0" y="1127.5" text-anchor="end">100</text><line class="grid" x1="890.0" y1="1178.0" x2="1505.0" y2="1178.0"/><text class="small" x="882.0" y="1182.0" text-anchor="end">50</text><line class="grid" x1="890.0" y1="1232.5" x2="1505.0" y2="1232.5"/><text class="small" x="882.0" y="1236.5" text-anchor="end">0</text><line class="axis" x1="890.0" y1="1232.5" x2="1505.0" y2="1232.5"/><line class="axis" x1="890.0" y1="960.0" x2="890.0" y2="1232.5"/><line class="grid" x1="890.0" y1="1232.5" x2="890.0" y2="1237.5"/><text class="small" x="890.0" y="1252.5" text-anchor="middle">1</text><line class="grid" x1="896.4736842105264" y1="1232.5" x2="896.4736842105264" y2="1237.5"/><text class="small" x="896.4736842105264" y="1252.5" text-anchor="middle">2</text><line class="grid" x1="909.421052631579" y1="1232.5" x2="909.421052631579" y2="1237.5"/><text class="small" x="909.421052631579" y="1252.5" text-anchor="middle">4</text><line class="grid" x1="935.3157894736842" y1="1232.5" x2="935.3157894736842" y2="1237.5"/><text class="small" x="935.3157894736842" y="1252.5" text-anchor="middle">8</text><line class="grid" x1="961.2105263157895" y1="1232.5" x2="961.2105263157895" y2="1237.5"/><text class="small" x="961.2105263157895" y="1252.5" text-anchor="middle">12</text><line class="grid" x1="987.1052631578948" y1="1232.5" x2="987.1052631578948" y2="1237.5"/><text class="small" x="987.1052631578948" y="1252.5" text-anchor="middle">16</text><line class="grid" x1="1038.8947368421052" y1="1232.5" x2="1038.8947368421052" y2="1237.5"/><text class="small" x="1038.8947368421052" y="1252.5" text-anchor="middle">24</text><line class="grid" x1="1090.6842105263158" y1="1232.5" x2="1090.6842105263158" y2="1237.5"/><text class="small" x="1090.6842105263158" y="1252.5" text-anchor="middle">32</text><line class="grid" x1="1194.2631578947369" y1="1232.5" x2="1194.2631578947369" y2="1237.5"/><text class="small" x="1194.2631578947369" y="1252.5" text-anchor="middle">48</text><line class="grid" x1="1297.842105263158" y1="1232.5" x2="1297.842105263158" y2="1237.5"/><text class="small" x="1297.842105263158" y="1252.5" text-anchor="middle">64</text><line class="grid" x1="1505.0" y1="1232.5" x2="1505.0" y2="1237.5"/><text class="small" x="1505.0" y="1252.5" text-anchor="middle">96</text><polyline fill="none" stroke="#1f77b4" stroke-width="2.5" points="890.0,1172.7 896.5,1123.0 909.4,1077.3 935.3,1054.6 961.2,1051.3 987.1,1025.5 1038.9,1015.4 1090.7,1011.2 1194.3,1007.8 1297.8,1015.9 1505.0,1008.2"/><circle cx="890.0" cy="1172.7" r="2.8" fill="#1f77b4"/><circle cx="896.5" cy="1123.0" r="2.8" fill="#1f77b4"/><circle cx="909.4" cy="1077.3" r="2.8" fill="#1f77b4"/><circle cx="935.3" cy="1054.6" r="2.8" fill="#1f77b4"/><circle cx="961.2" cy="1051.3" r="2.8" fill="#1f77b4"/><circle cx="987.1" cy="1025.5" r="2.8" fill="#1f77b4"/><circle cx="1038.9" cy="1015.4" r="2.8" fill="#1f77b4"/><circle cx="1090.7" cy="1011.2" r="2.8" fill="#1f77b4"/><circle cx="1194.3" cy="1007.8" r="2.8" fill="#1f77b4"/><circle cx="1297.8" cy="1015.9" r="2.8" fill="#1f77b4"/><circle cx="1505.0" cy="1008.2" r="2.8" fill="#1f77b4"/><polyline fill="none" stroke="#d62728" stroke-width="2.5" points="890.0,1173.2 896.5,1122.7 909.4,1073.6 935.3,1055.9 961.2,1049.8 987.1,1026.5 1038.9,1015.1 1090.7,1010.4 1194.3,1003.4 1297.8,1012.7 1505.0,1003.8"/><circle cx="890.0" cy="1173.2" r="2.8" fill="#d62728"/><circle cx="896.5" cy="1122.7" r="2.8" fill="#d62728"/><circle cx="909.4" cy="1073.6" r="2.8" fill="#d62728"/><circle cx="935.3" cy="1055.9" r="2.8" fill="#d62728"/><circle cx="961.2" cy="1049.8" r="2.8" fill="#d62728"/><circle cx="987.1" cy="1026.5" r="2.8" fill="#d62728"/><circle cx="1038.9" cy="1015.1" r="2.8" fill="#d62728"/><circle cx="1090.7" cy="1010.4" r="2.8" fill="#d62728"/><circle cx="1194.3" cy="1003.4" r="2.8" fill="#d62728"/><circle cx="1297.8" cy="1012.7" r="2.8" fill="#d62728"/><circle cx="1505.0" cy="1003.8" r="2.8" fill="#d62728"/><polyline fill="none" stroke="#2ca02c" stroke-width="2.5" points="890.0,1172.8 896.5,1124.6 909.4,1073.0 935.3,1053.1 961.2,1052.3 987.1,1026.5 1038.9,1014.4 1090.7,1012.7 1194.3,1009.3 1297.8,1014.3 1505.0,1005.7"/><circle cx="890.0" cy="1172.8" r="2.8" fill="#2ca02c"/><circle cx="896.5" cy="1124.6" r="2.8" fill="#2ca02c"/><circle cx="909.4" cy="1073.0" r="2.8" fill="#2ca02c"/><circle cx="935.3" cy="1053.1" r="2.8" fill="#2ca02c"/><circle cx="961.2" cy="1052.3" r="2.8" fill="#2ca02c"/><circle cx="987.1" cy="1026.5" r="2.8" fill="#2ca02c"/><circle cx="1038.9" cy="1014.4" r="2.8" fill="#2ca02c"/><circle cx="1090.7" cy="1012.7" r="2.8" fill="#2ca02c"/><circle cx="1194.3" cy="1009.3" r="2.8" fill="#2ca02c"/><circle cx="1297.8" cy="1014.3" r="2.8" fill="#2ca02c"/><circle cx="1505.0" cy="1005.7" r="2.8" fill="#2ca02c"/><text class="small" x="845.0" y="1101.25" transform="rotate(-90 845.0,1101.25)" text-anchor="middle">uProf total BW GB/s</text><text x="432.5" y="1347.5" text-anchor="middle" font-size="18">mixed target0</text><line class="grid" x1="145.0" y1="1372.5" x2="760.0" y2="1372.5"/><text class="small" x="137.0" y="1376.5" text-anchor="end">400</text><line class="grid" x1="145.0" y1="1427.0" x2="760.0" y2="1427.0"/><text class="small" x="137.0" y="1431.0" text-anchor="end">320</text><line class="grid" x1="145.0" y1="1481.5" x2="760.0" y2="1481.5"/><text class="small" x="137.0" y="1485.5" text-anchor="end">240</text><line class="grid" x1="145.0" y1="1536.0" x2="760.0" y2="1536.0"/><text class="small" x="137.0" y="1540.0" text-anchor="end">160</text><line class="grid" x1="145.0" y1="1590.5" x2="760.0" y2="1590.5"/><text class="small" x="137.0" y="1594.5" text-anchor="end">80</text><line class="grid" x1="145.0" y1="1645.0" x2="760.0" y2="1645.0"/><text class="small" x="137.0" y="1649.0" text-anchor="end">0</text><line class="axis" x1="145.0" y1="1645.0" x2="760.0" y2="1645.0"/><line class="axis" x1="145.0" y1="1372.5" x2="145.0" y2="1645.0"/><line class="grid" x1="145.0" y1="1645.0" x2="145.0" y2="1650.0"/><text class="small" x="145.0" y="1665.0" text-anchor="middle">1</text><line class="grid" x1="151.47368421052633" y1="1645.0" x2="151.47368421052633" y2="1650.0"/><text class="small" x="151.47368421052633" y="1665.0" text-anchor="middle">2</text><line class="grid" x1="164.42105263157896" y1="1645.0" x2="164.42105263157896" y2="1650.0"/><text class="small" x="164.42105263157896" y="1665.0" text-anchor="middle">4</text><line class="grid" x1="190.31578947368422" y1="1645.0" x2="190.31578947368422" y2="1650.0"/><text class="small" x="190.31578947368422" y="1665.0" text-anchor="middle">8</text><line class="grid" x1="216.21052631578948" y1="1645.0" x2="216.21052631578948" y2="1650.0"/><text class="small" x="216.21052631578948" y="1665.0" text-anchor="middle">12</text><line class="grid" x1="242.10526315789474" y1="1645.0" x2="242.10526315789474" y2="1650.0"/><text class="small" x="242.10526315789474" y="1665.0" text-anchor="middle">16</text><line class="grid" x1="293.89473684210526" y1="1645.0" x2="293.89473684210526" y2="1650.0"/><text class="small" x="293.89473684210526" y="1665.0" text-anchor="middle">24</text><line class="grid" x1="345.6842105263158" y1="1645.0" x2="345.6842105263158" y2="1650.0"/><text class="small" x="345.6842105263158" y="1665.0" text-anchor="middle">32</text><line class="grid" x1="449.2631578947368" y1="1645.0" x2="449.2631578947368" y2="1650.0"/><text class="small" x="449.2631578947368" y="1665.0" text-anchor="middle">48</text><line class="grid" x1="552.8421052631579" y1="1645.0" x2="552.8421052631579" y2="1650.0"/><text class="small" x="552.8421052631579" y="1665.0" text-anchor="middle">64</text><line class="grid" x1="760.0" y1="1645.0" x2="760.0" y2="1650.0"/><text class="small" x="760.0" y="1665.0" text-anchor="middle">96</text><polyline fill="none" stroke="#1f77b4" stroke-width="2.5" points="145.0,1600.4 151.5,1565.2 164.4,1519.7 190.3,1505.0 216.2,1505.2 242.1,1459.7 293.9,1448.6 345.7,1450.8 449.3,1439.8 552.8,1453.4 760.0,1449.9"/><circle cx="145.0" cy="1600.4" r="2.8" fill="#1f77b4"/><circle cx="151.5" cy="1565.2" r="2.8" fill="#1f77b4"/><circle cx="164.4" cy="1519.7" r="2.8" fill="#1f77b4"/><circle cx="190.3" cy="1505.0" r="2.8" fill="#1f77b4"/><circle cx="216.2" cy="1505.2" r="2.8" fill="#1f77b4"/><circle cx="242.1" cy="1459.7" r="2.8" fill="#1f77b4"/><circle cx="293.9" cy="1448.6" r="2.8" fill="#1f77b4"/><circle cx="345.7" cy="1450.8" r="2.8" fill="#1f77b4"/><circle cx="449.3" cy="1439.8" r="2.8" fill="#1f77b4"/><circle cx="552.8" cy="1453.4" r="2.8" fill="#1f77b4"/><circle cx="760.0" cy="1449.9" r="2.8" fill="#1f77b4"/><polyline fill="none" stroke="#d62728" stroke-width="2.5" points="145.0,1600.3 151.5,1562.9 164.4,1514.2 190.3,1501.2 216.2,1501.4 242.1,1462.9 293.9,1448.1 345.7,1449.2 449.3,1440.1 552.8,1452.7 760.0,1446.3"/><circle cx="145.0" cy="1600.3" r="2.8" fill="#d62728"/><circle cx="151.5" cy="1562.9" r="2.8" fill="#d62728"/><circle cx="164.4" cy="1514.2" r="2.8" fill="#d62728"/><circle cx="190.3" cy="1501.2" r="2.8" fill="#d62728"/><circle cx="216.2" cy="1501.4" r="2.8" fill="#d62728"/><circle cx="242.1" cy="1462.9" r="2.8" fill="#d62728"/><circle cx="293.9" cy="1448.1" r="2.8" fill="#d62728"/><circle cx="345.7" cy="1449.2" r="2.8" fill="#d62728"/><circle cx="449.3" cy="1440.1" r="2.8" fill="#d62728"/><circle cx="552.8" cy="1452.7" r="2.8" fill="#d62728"/><circle cx="760.0" cy="1446.3" r="2.8" fill="#d62728"/><polyline fill="none" stroke="#2ca02c" stroke-width="2.5" points="145.0,1600.1 151.5,1563.0 164.4,1516.4 190.3,1502.9 216.2,1499.9 242.1,1459.4 293.9,1447.8 345.7,1448.6 449.3,1443.6 552.8,1453.9 760.0,1444.0"/><circle cx="145.0" cy="1600.1" r="2.8" fill="#2ca02c"/><circle cx="151.5" cy="1563.0" r="2.8" fill="#2ca02c"/><circle cx="164.4" cy="1516.4" r="2.8" fill="#2ca02c"/><circle cx="190.3" cy="1502.9" r="2.8" fill="#2ca02c"/><circle cx="216.2" cy="1499.9" r="2.8" fill="#2ca02c"/><circle cx="242.1" cy="1459.4" r="2.8" fill="#2ca02c"/><circle cx="293.9" cy="1447.8" r="2.8" fill="#2ca02c"/><circle cx="345.7" cy="1448.6" r="2.8" fill="#2ca02c"/><circle cx="449.3" cy="1443.6" r="2.8" fill="#2ca02c"/><circle cx="552.8" cy="1453.9" r="2.8" fill="#2ca02c"/><circle cx="760.0" cy="1444.0" r="2.8" fill="#2ca02c"/><text class="small" x="100.0" y="1513.75" transform="rotate(-90 100.0,1513.75)" text-anchor="middle">uProf total BW GB/s</text><text x="1177.5" y="1347.5" text-anchor="middle" font-size="18">mixed target1</text><line class="grid" x1="890.0" y1="1372.5" x2="1505.0" y2="1372.5"/><text class="small" x="882.0" y="1376.5" text-anchor="end">400</text><line class="grid" x1="890.0" y1="1427.0" x2="1505.0" y2="1427.0"/><text class="small" x="882.0" y="1431.0" text-anchor="end">320</text><line class="grid" x1="890.0" y1="1481.5" x2="1505.0" y2="1481.5"/><text class="small" x="882.0" y="1485.5" text-anchor="end">240</text><line class="grid" x1="890.0" y1="1536.0" x2="1505.0" y2="1536.0"/><text class="small" x="882.0" y="1540.0" text-anchor="end">160</text><line class="grid" x1="890.0" y1="1590.5" x2="1505.0" y2="1590.5"/><text class="small" x="882.0" y="1594.5" text-anchor="end">80</text><line class="grid" x1="890.0" y1="1645.0" x2="1505.0" y2="1645.0"/><text class="small" x="882.0" y="1649.0" text-anchor="end">0</text><line class="axis" x1="890.0" y1="1645.0" x2="1505.0" y2="1645.0"/><line class="axis" x1="890.0" y1="1372.5" x2="890.0" y2="1645.0"/><line class="grid" x1="890.0" y1="1645.0" x2="890.0" y2="1650.0"/><text class="small" x="890.0" y="1665.0" text-anchor="middle">1</text><line class="grid" x1="896.4736842105264" y1="1645.0" x2="896.4736842105264" y2="1650.0"/><text class="small" x="896.4736842105264" y="1665.0" text-anchor="middle">2</text><line class="grid" x1="909.421052631579" y1="1645.0" x2="909.421052631579" y2="1650.0"/><text class="small" x="909.421052631579" y="1665.0" text-anchor="middle">4</text><line class="grid" x1="935.3157894736842" y1="1645.0" x2="935.3157894736842" y2="1650.0"/><text class="small" x="935.3157894736842" y="1665.0" text-anchor="middle">8</text><line class="grid" x1="961.2105263157895" y1="1645.0" x2="961.2105263157895" y2="1650.0"/><text class="small" x="961.2105263157895" y="1665.0" text-anchor="middle">12</text><line class="grid" x1="987.1052631578948" y1="1645.0" x2="987.1052631578948" y2="1650.0"/><text class="small" x="987.1052631578948" y="1665.0" text-anchor="middle">16</text><line class="grid" x1="1038.8947368421052" y1="1645.0" x2="1038.8947368421052" y2="1650.0"/><text class="small" x="1038.8947368421052" y="1665.0" text-anchor="middle">24</text><line class="grid" x1="1090.6842105263158" y1="1645.0" x2="1090.6842105263158" y2="1650.0"/><text class="small" x="1090.6842105263158" y="1665.0" text-anchor="middle">32</text><line class="grid" x1="1194.2631578947369" y1="1645.0" x2="1194.2631578947369" y2="1650.0"/><text class="small" x="1194.2631578947369" y="1665.0" text-anchor="middle">48</text><line class="grid" x1="1297.842105263158" y1="1645.0" x2="1297.842105263158" y2="1650.0"/><text class="small" x="1297.842105263158" y="1665.0" text-anchor="middle">64</text><line class="grid" x1="1505.0" y1="1645.0" x2="1505.0" y2="1650.0"/><text class="small" x="1505.0" y="1665.0" text-anchor="middle">96</text><polyline fill="none" stroke="#1f77b4" stroke-width="2.5" points="890.0,1598.4 896.5,1559.7 909.4,1508.7 935.3,1493.7 961.2,1494.9 987.1,1454.4 1038.9,1434.7 1090.7,1430.4 1194.3,1425.4 1297.8,1437.9 1505.0,1425.9"/><circle cx="890.0" cy="1598.4" r="2.8" fill="#1f77b4"/><circle cx="896.5" cy="1559.7" r="2.8" fill="#1f77b4"/><circle cx="909.4" cy="1508.7" r="2.8" fill="#1f77b4"/><circle cx="935.3" cy="1493.7" r="2.8" fill="#1f77b4"/><circle cx="961.2" cy="1494.9" r="2.8" fill="#1f77b4"/><circle cx="987.1" cy="1454.4" r="2.8" fill="#1f77b4"/><circle cx="1038.9" cy="1434.7" r="2.8" fill="#1f77b4"/><circle cx="1090.7" cy="1430.4" r="2.8" fill="#1f77b4"/><circle cx="1194.3" cy="1425.4" r="2.8" fill="#1f77b4"/><circle cx="1297.8" cy="1437.9" r="2.8" fill="#1f77b4"/><circle cx="1505.0" cy="1425.9" r="2.8" fill="#1f77b4"/><polyline fill="none" stroke="#d62728" stroke-width="2.5" points="890.0,1597.5 896.5,1558.5 909.4,1507.9 935.3,1487.8 961.2,1498.6 987.1,1455.8 1038.9,1434.5 1090.7,1430.4 1194.3,1424.6 1297.8,1440.3 1505.0,1428.2"/><circle cx="890.0" cy="1597.5" r="2.8" fill="#d62728"/><circle cx="896.5" cy="1558.5" r="2.8" fill="#d62728"/><circle cx="909.4" cy="1507.9" r="2.8" fill="#d62728"/><circle cx="935.3" cy="1487.8" r="2.8" fill="#d62728"/><circle cx="961.2" cy="1498.6" r="2.8" fill="#d62728"/><circle cx="987.1" cy="1455.8" r="2.8" fill="#d62728"/><circle cx="1038.9" cy="1434.5" r="2.8" fill="#d62728"/><circle cx="1090.7" cy="1430.4" r="2.8" fill="#d62728"/><circle cx="1194.3" cy="1424.6" r="2.8" fill="#d62728"/><circle cx="1297.8" cy="1440.3" r="2.8" fill="#d62728"/><circle cx="1505.0" cy="1428.2" r="2.8" fill="#d62728"/><polyline fill="none" stroke="#2ca02c" stroke-width="2.5" points="890.0,1597.4 896.5,1558.7 909.4,1507.8 935.3,1493.5 961.2,1501.0 987.1,1452.7 1038.9,1434.6 1090.7,1430.4 1194.3,1424.2 1297.8,1437.7 1505.0,1426.5"/><circle cx="890.0" cy="1597.4" r="2.8" fill="#2ca02c"/><circle cx="896.5" cy="1558.7" r="2.8" fill="#2ca02c"/><circle cx="909.4" cy="1507.8" r="2.8" fill="#2ca02c"/><circle cx="935.3" cy="1493.5" r="2.8" fill="#2ca02c"/><circle cx="961.2" cy="1501.0" r="2.8" fill="#2ca02c"/><circle cx="987.1" cy="1452.7" r="2.8" fill="#2ca02c"/><circle cx="1038.9" cy="1434.6" r="2.8" fill="#2ca02c"/><circle cx="1090.7" cy="1430.4" r="2.8" fill="#2ca02c"/><circle cx="1194.3" cy="1424.2" r="2.8" fill="#2ca02c"/><circle cx="1297.8" cy="1437.7" r="2.8" fill="#2ca02c"/><circle cx="1505.0" cy="1426.5" r="2.8" fill="#2ca02c"/><text class="small" x="845.0" y="1513.75" transform="rotate(-90 845.0,1513.75)" text-anchor="middle">uProf total BW GB/s</text></svg>