<svg xmlns="http://www.w3.org/2000/svg" width="1100" height="650" viewBox="0 0 1100 650"><style>text{font-family:monospace;fill:#111}.small{font-size:14px}.axis{stroke:#444;stroke-width:1}.grid{stroke:#ddd;stroke-width:1}</style><rect x="0" y="0" width="1100" height="650" fill="white"/><text x="550.0" y="36" text-anchor="middle" font-size="24">mixed target0 components (4KiB)</text><line class="grid" x1="90" y1="80.0" x2="1010" y2="80.0"/><text class="small" x="82" y="84.0" text-anchor="end">200</text><line class="grid" x1="90" y1="172.0" x2="1010" y2="172.0"/><text class="small" x="82" y="176.0" text-anchor="end">160</text><line class="grid" x1="90" y1="264.0" x2="1010" y2="264.0"/><text class="small" x="82" y="268.0" text-anchor="end">120</text><line class="grid" x1="90" y1="356.0" x2="1010" y2="356.0"/><text class="small" x="82" y="360.0" text-anchor="end">80</text><line class="grid" x1="90" y1="448.0" x2="1010" y2="448.0"/><text class="small" x="82" y="452.0" text-anchor="end">40</text><line class="grid" x1="90" y1="540.0" x2="1010" y2="540.0"/><text class="small" x="82" y="544.0" text-anchor="end">0</text><line class="axis" x1="90" y1="540" x2="1010" y2="540"/><line class="axis" x1="90" y1="80" x2="90" y2="540"/><text class="small" x="90.0" y="560" text-anchor="middle">1</text><text class="small" x="99.6842105263158" y="560" text-anchor="middle">2</text><text class="small" x="119.05263157894737" y="560" text-anchor="middle">4</text><text class="small" x="157.78947368421052" y="560" text-anchor="middle">8</text><text class="small" x="196.5263157894737" y="560" text-anchor="middle">12</text><text class="small" x="235.26315789473685" y="560" text-anchor="middle">16</text><text class="small" x="312.7368421052631" y="560" text-anchor="middle">24</text><text class="small" x="390.2105263157895" y="560" text-anchor="middle">32</text><text class="small" x="545.1578947368421" y="560" text-anchor="middle">48</text><text class="small" x="700.1052631578947" y="560" text-anchor="middle">64</text><text class="small" x="1010.0" y="560" text-anchor="middle">96</text><line x1="90" y1="52" x2="118" y2="52" stroke="#1f77b4" stroke-width="3"/><text x="124" y="57" font-size="14">1302 local</text><line x1="210" y1="52" x2="238" y2="52" stroke="#1f77b4" stroke-width="2" stroke-dasharray="6,4"/><text x="244" y="57" font-size="14">1302 remote</text><line x1="390" y1="52" x2="418" y2="52" stroke="#d62728" stroke-width="3"/><text x="424" y="57" font-size="14">1306 local</text><line x1="510" y1="52" x2="538" y2="52" stroke="#d62728" stroke-width="2" stroke-dasharray="6,4"/><text x="544" y="57" font-size="14">1306 remote</text><line x1="690" y1="52" x2="718" y2="52" stroke="#2ca02c" stroke-width="3"/><text x="724" y="57" font-size="14">1308 local</text><line x1="810" y1="52" x2="838" y2="52" stroke="#2ca02c" stroke-width="2" stroke-dasharray="6,4"/><text x="844" y="57" font-size="14">1308 remote</text><polyline fill="none" stroke="#1f77b4" stroke-width="2.5" points="90.0,458.4 99.7,393.2 119.1,303.3 157.8,296.2 196.5,294.5 235.3,206.6 312.7,171.1 390.2,178.0 545.2,179.2 700.1,176.8 1010.0,176.4"/><circle cx="90.0" cy="458.4" r="2.5" fill="#1f77b4"/><circle cx="99.7" cy="393.2" r="2.5" fill="#1f77b4"/><circle cx="119.1" cy="303.3" r="2.5" fill="#1f77b4"/><circle cx="157.8" cy="296.2" r="2.5" fill="#1f77b4"/><circle cx="196.5" cy="294.5" r="2.5" fill="#1f77b4"/><circle cx="235.3" cy="206.6" r="2.5" fill="#1f77b4"/><circle cx="312.7" cy="171.1" r="2.5" fill="#1f77b4"/><circle cx="390.2" cy="178.0" r="2.5" fill="#1f77b4"/><circle cx="545.2" cy="179.2" r="2.5" fill="#1f77b4"/><circle cx="700.1" cy="176.8" r="2.5" fill="#1f77b4"/><circle cx="1010.0" cy="176.4" r="2.5" fill="#1f77b4"/><polyline fill="none" stroke="#1f77b4" stroke-width="2.5" stroke-dasharray="6,4" points="90.0,489.1 99.7,448.3 119.1,400.0 157.8,369.5 196.5,371.2 235.3,351.9 312.7,395.2 390.2,399.5 545.2,406.8 700.1,405.9 1010.0,402.4"/><circle cx="90.0" cy="489.1" r="2.5" fill="#1f77b4"/><circle cx="99.7" cy="448.3" r="2.5" fill="#1f77b4"/><circle cx="119.1" cy="400.0" r="2.5" fill="#1f77b4"/><circle cx="157.8" cy="369.5" r="2.5" fill="#1f77b4"/><circle cx="196.5" cy="371.2" r="2.5" fill="#1f77b4"/><circle cx="235.3" cy="351.9" r="2.5" fill="#1f77b4"/><circle cx="312.7" cy="395.2" r="2.5" fill="#1f77b4"/><circle cx="390.2" cy="399.5" r="2.5" fill="#1f77b4"/><circle cx="545.2" cy="406.8" r="2.5" fill="#1f77b4"/><circle cx="700.1" cy="405.9" r="2.5" fill="#1f77b4"/><circle cx="1010.0" cy="402.4" r="2.5" fill="#1f77b4"/><polyline fill="none" stroke="#d62728" stroke-width="2.5" points="90.0,458.1 99.7,389.6 119.1,291.6 157.8,278.6 196.5,277.9 235.3,218.9 312.7,171.2 390.2,175.7 545.2,177.3 700.1,177.7 1010.0,176.0"/><circle cx="90.0" cy="458.1" r="2.5" fill="#d62728"/><circle cx="99.7" cy="389.6" r="2.5" fill="#d62728"/><circle cx="119.1" cy="291.6" r="2.5" fill="#d62728"/><circle cx="157.8" cy="278.6" r="2.5" fill="#d62728"/><circle cx="196.5" cy="277.9" r="2.5" fill="#d62728"/><circle cx="235.3" cy="218.9" r="2.5" fill="#d62728"/><circle cx="312.7" cy="171.2" r="2.5" fill="#d62728"/><circle cx="390.2" cy="175.7" r="2.5" fill="#d62728"/><circle cx="545.2" cy="177.3" r="2.5" fill="#d62728"/><circle cx="700.1" cy="177.7" r="2.5" fill="#d62728"/><circle cx="1010.0" cy="176.0" r="2.5" fill="#d62728"/><polyline fill="none" stroke="#d62728" stroke-width="2.5" stroke-dasharray="6,4" points="90.0,489.5 99.7,449.9 119.1,394.2 157.8,375.6 196.5,375.4 235.3,345.9 312.7,395.7 390.2,401.6 545.2,405.5 700.1,406.2 1010.0,405.6"/><circle cx="90.0" cy="489.5" r="2.5" fill="#d62728"/><circle cx="99.7" cy="449.9" r="2.5" fill="#d62728"/><circle cx="119.1" cy="394.2" r="2.5" fill="#d62728"/><circle cx="157.8" cy="375.6" r="2.5" fill="#d62728"/><circle cx="196.5" cy="375.4" r="2.5" fill="#d62728"/><circle cx="235.3" cy="345.9" r="2.5" fill="#d62728"/><circle cx="312.7" cy="395.7" r="2.5" fill="#d62728"/><circle cx="390.2" cy="401.6" r="2.5" fill="#d62728"/><circle cx="545.2" cy="405.5" r="2.5" fill="#d62728"/><circle cx="700.1" cy="406.2" r="2.5" fill="#d62728"/><circle cx="1010.0" cy="405.6" r="2.5" fill="#d62728"/><polyline fill="none" stroke="#2ca02c" stroke-width="2.5" points="90.0,456.9 99.7,388.2 119.1,295.3 157.8,287.6 196.5,279.9 235.3,198.5 312.7,172.5 390.2,175.5 545.2,178.1 700.1,177.9 1010.0,177.9"/><circle cx="90.0" cy="456.9" r="2.5" fill="#2ca02c"/><circle cx="99.7" cy="388.2" r="2.5" fill="#2ca02c"/><circle cx="119.1" cy="295.3" r="2.5" fill="#2ca02c"/><circle cx="157.8" cy="287.6" r="2.5" fill="#2ca02c"/><circle cx="196.5" cy="279.9" r="2.5" fill="#2ca02c"/><circle cx="235.3" cy="198.5" r="2.5" fill="#2ca02c"/><circle cx="312.7" cy="172.5" r="2.5" fill="#2ca02c"/><circle cx="390.2" cy="175.5" r="2.5" fill="#2ca02c"/><circle cx="545.2" cy="178.1" r="2.5" fill="#2ca02c"/><circle cx="700.1" cy="177.9" r="2.5" fill="#2ca02c"/><circle cx="1010.0" cy="177.9" r="2.5" fill="#2ca02c"/><polyline fill="none" stroke="#2ca02c" stroke-width="2.5" stroke-dasharray="6,4" points="90.0,489.0 99.7,446.4 119.1,395.5 157.8,369.4 196.5,366.2 235.3,356.7 312.7,395.1 390.2,401.6 545.2,405.3 700.1,403.2 1010.0,402.3"/><circle cx="90.0" cy="489.0" r="2.5" fill="#2ca02c"/><circle cx="99.7" cy="446.4" r="2.5" fill="#2ca02c"/><circle cx="119.1" cy="395.5" r="2.5" fill="#2ca02c"/><circle cx="157.8" cy="369.4" r="2.5" fill="#2ca02c"/><circle cx="196.5" cy="366.2" r="2.5" fill="#2ca02c"/><circle cx="235.3" cy="356.7" r="2.5" fill="#2ca02c"/><circle cx="312.7" cy="395.1" r="2.5" fill="#2ca02c"/><circle cx="390.2" cy="401.6" r="2.5" fill="#2ca02c"/><circle cx="545.2" cy="405.3" r="2.5" fill="#2ca02c"/><circle cx="700.1" cy="403.2" r="2.5" fill="#2ca02c"/><circle cx="1010.0" cy="402.3" r="2.5" fill="#2ca02c"/></svg>