<svg xmlns="http://www.w3.org/2000/svg" width="1600" height="1800" viewBox="0 0 1600 1800"><style>text{font-family:monospace;fill:#111}.small{font-size:14px}.axis{stroke:#444;stroke-width:1}.grid{stroke:#ddd;stroke-width:1}</style><rect x="0" y="0" width="1600" height="1800" fill="white"/><text x="800.0" y="40" text-anchor="middle" font-size="24">uProf memory bandwidth per thread vs threads (4KiB)</text><text x="800.0" y="70" text-anchor="middle" font-size="16">threads per process on X axis</text><line x1="1320" y1="30" x2="1348" y2="30" stroke="#1f77b4" stroke-width="3"/><text x="1356" y="35" font-size="14">1302</text><line x1="1320" y1="54" x2="1348" y2="54" stroke="#d62728" stroke-width="3"/><text x="1356" y="59" font-size="14">1306</text><line x1="1320" y1="78" x2="1348" y2="78" stroke="#2ca02c" stroke-width="3"/><text x="1356" y="83" font-size="14">1308</text><text x="432.5" y="110.0" text-anchor="middle" font-size="18">local numa0</text><line class="grid" x1="145.0" y1="135.0" x2="760.0" y2="135.0"/><text class="small" x="137.0" y="139.0" text-anchor="end">55</text><line class="grid" x1="145.0" y1="189.5" x2="760.0" y2="189.5"/><text class="small" x="137.0" y="193.5" text-anchor="end">44</text><line class="grid" x1="145.0" y1="244.0" x2="760.0" y2="244.0"/><text class="small" x="137.0" y="248.0" text-anchor="end">33</text><line class="grid" x1="145.0" y1="298.5" x2="760.0" y2="298.5"/><text class="small" x="137.0" y="302.5" text-anchor="end">22</text><line class="grid" x1="145.0" y1="353.0" x2="760.0" y2="353.0"/><text class="small" x="137.0" y="357.0" text-anchor="end">11</text><line class="grid" x1="145.0" y1="407.5" x2="760.0" y2="407.5"/><text class="small" x="137.0" y="411.5" text-anchor="end">0</text><line class="axis" x1="145.0" y1="407.5" x2="760.0" y2="407.5"/><line class="axis" x1="145.0" y1="135.0" x2="145.0" y2="407.5"/><line class="grid" x1="145.0" y1="407.5" x2="145.0" y2="412.5"/><text class="small" x="145.0" y="427.5" text-anchor="middle">1</text><line class="grid" x1="151.47368421052633" y1="407.5" x2="151.47368421052633" y2="412.5"/><text class="small" x="151.47368421052633" y="427.5" text-anchor="middle">2</text><line class="grid" x1="164.42105263157896" y1="407.5" x2="164.42105263157896" y2="412.5"/><text class="small" x="164.42105263157896" y="427.5" text-anchor="middle">4</text><line class="grid" x1="190.31578947368422" y1="407.5" x2="190.31578947368422" y2="412.5"/><text class="small" x="190.31578947368422" y="427.5" text-anchor="middle">8</text><line class="grid" x1="216.21052631578948" y1="407.5" x2="216.21052631578948" y2="412.5"/><text class="small" x="216.21052631578948" y="427.5" text-anchor="middle">12</text><line class="grid" x1="242.10526315789474" y1="407.5" x2="242.10526315789474" y2="412.5"/><text class="small" x="242.10526315789474" y="427.5" text-anchor="middle">16</text><line class="grid" x1="293.89473684210526" y1="407.5" x2="293.89473684210526" y2="412.5"/><text class="small" x="293.89473684210526" y="427.5" text-anchor="middle">24</text><line class="grid" x1="345.6842105263158" y1="407.5" x2="345.6842105263158" y2="412.5"/><text class="small" x="345.6842105263158" y="427.5" text-anchor="middle">32</text><line class="grid" x1="449.2631578947368" y1="407.5" x2="449.2631578947368" y2="412.5"/><text class="small" x="449.2631578947368" y="427.5" text-anchor="middle">48</text><line class="grid" x1="552.8421052631579" y1="407.5" x2="552.8421052631579" y2="412.5"/><text class="small" x="552.8421052631579" y="427.5" text-anchor="middle">64</text><line class="grid" x1="760.0" y1="407.5" x2="760.0" y2="412.5"/><text class="small" x="760.0" y="427.5" text-anchor="middle">96</text><polyline fill="none" stroke="#1f77b4" stroke-width="2.5" points="145.0,185.7 151.5,196.0 164.4,228.5 190.3,262.9 216.2,291.1 242.1,317.7 293.9,345.1 345.7,360.4 449.3,373.7 552.8,381.5 760.0,390.1"/><circle cx="145.0" cy="185.7" r="2.8" fill="#1f77b4"/><circle cx="151.5" cy="196.0" r="2.8" fill="#1f77b4"/><circle cx="164.4" cy="228.5" r="2.8" fill="#1f77b4"/><circle cx="190.3" cy="262.9" r="2.8" fill="#1f77b4"/><circle cx="216.2" cy="291.1" r="2.8" fill="#1f77b4"/><circle cx="242.1" cy="317.7" r="2.8" fill="#1f77b4"/><circle cx="293.9" cy="345.1" r="2.8" fill="#1f77b4"/><circle cx="345.7" cy="360.4" r="2.8" fill="#1f77b4"/><circle cx="449.3" cy="373.7" r="2.8" fill="#1f77b4"/><circle cx="552.8" cy="381.5" r="2.8" fill="#1f77b4"/><circle cx="760.0" cy="390.1" r="2.8" fill="#1f77b4"/><polyline fill="none" stroke="#d62728" stroke-width="2.5" points="145.0,187.4 151.5,203.4 164.4,229.6 190.3,263.6 216.2,290.9 242.1,317.9 293.9,345.1 345.7,360.4 449.3,374.4 552.8,380.8 760.0,389.7"/><circle cx="145.0" cy="187.4" r="2.8" fill="#d62728"/><circle cx="151.5" cy="203.4" r="2.8" fill="#d62728"/><circle cx="164.4" cy="229.6" r="2.8" fill="#d62728"/><circle cx="190.3" cy="263.6" r="2.8" fill="#d62728"/><circle cx="216.2" cy="290.9" r="2.8" fill="#d62728"/><circle cx="242.1" cy="317.9" r="2.8" fill="#d62728"/><circle cx="293.9" cy="345.1" r="2.8" fill="#d62728"/><circle cx="345.7" cy="360.4" r="2.8" fill="#d62728"/><circle cx="449.3" cy="374.4" r="2.8" fill="#d62728"/><circle cx="552.8" cy="380.8" r="2.8" fill="#d62728"/><circle cx="760.0" cy="389.7" r="2.8" fill="#d62728"/><polyline fill="none" stroke="#2ca02c" stroke-width="2.5" points="145.0,184.1 151.5,204.0 164.4,232.4 190.3,259.8 216.2,291.8 242.1,317.8 293.9,345.7 345.7,360.3 449.3,373.6 552.8,381.1 760.0,389.8"/><circle cx="145.0" cy="184.1" r="2.8" fill="#2ca02c"/><circle cx="151.5" cy="204.0" r="2.8" fill="#2ca02c"/><circle cx="164.4" cy="232.4" r="2.8" fill="#2ca02c"/><circle cx="190.3" cy="259.8" r="2.8" fill="#2ca02c"/><circle cx="216.2" cy="291.8" r="2.8" fill="#2ca02c"/><circle cx="242.1" cy="317.8" r="2.8" fill="#2ca02c"/><circle cx="293.9" cy="345.7" r="2.8" fill="#2ca02c"/><circle cx="345.7" cy="360.3" r="2.8" fill="#2ca02c"/><circle cx="449.3" cy="373.6" r="2.8" fill="#2ca02c"/><circle cx="552.8" cy="381.1" r="2.8" fill="#2ca02c"/><circle cx="760.0" cy="389.8" r="2.8" fill="#2ca02c"/><text class="small" x="100.0" y="276.25" transform="rotate(-90 100.0,276.25)" text-anchor="middle">uProf GB/s per thread</text><text x="1177.5" y="110.0" text-anchor="middle" font-size="18">local numa1</text><line class="grid" x1="890.0" y1="135.0" x2="1505.0" y2="135.0"/><text class="small" x="882.0" y="139.0" text-anchor="end">55</text><line class="grid" x1="890.0" y1="189.5" x2="1505.0" y2="189.5"/><text class="small" x="882.0" y="193.5" text-anchor="end">44</text><line class="grid" x1="890.0" y1="244.0" x2="1505.0" y2="244.0"/><text class="small" x="882.0" y="248.0" text-anchor="end">33</text><line class="grid" x1="890.0" y1="298.5" x2="1505.0" y2="298.5"/><text class="small" x="882.0" y="302.5" text-anchor="end">22</text><line class="grid" x1="890.0" y1="353.0" x2="1505.0" y2="353.0"/><text class="small" x="882.0" y="357.0" text-anchor="end">11</text><line class="grid" x1="890.0" y1="407.5" x2="1505.0" y2="407.5"/><text class="small" x="882.0" y="411.5" text-anchor="end">0</text><line class="axis" x1="890.0" y1="407.5" x2="1505.0" y2="407.5"/><line class="axis" x1="890.0" y1="135.0" x2="890.0" y2="407.5"/><line class="grid" x1="890.0" y1="407.5" x2="890.0" y2="412.5"/><text class="small" x="890.0" y="427.5" text-anchor="middle">1</text><line class="grid" x1="896.4736842105264" y1="407.5" x2="896.4736842105264" y2="412.5"/><text class="small" x="896.4736842105264" y="427.5" text-anchor="middle">2</text><line class="grid" x1="909.421052631579" y1="407.5" x2="909.421052631579" y2="412.5"/><text class="small" x="909.421052631579" y="427.5" text-anchor="middle">4</text><line class="grid" x1="935.3157894736842" y1="407.5" x2="935.3157894736842" y2="412.5"/><text class="small" x="935.3157894736842" y="427.5" text-anchor="middle">8</text><line class="grid" x1="961.2105263157895" y1="407.5" x2="961.2105263157895" y2="412.5"/><text class="small" x="961.2105263157895" y="427.5" text-anchor="middle">12</text><line class="grid" x1="987.1052631578948" y1="407.5" x2="987.1052631578948" y2="412.5"/><text class="small" x="987.1052631578948" y="427.5" text-anchor="middle">16</text><line class="grid" x1="1038.8947368421052" y1="407.5" x2="1038.8947368421052" y2="412.5"/><text class="small" x="1038.8947368421052" y="427.5" text-anchor="middle">24</text><line class="grid" x1="1090.6842105263158" y1="407.5" x2="1090.6842105263158" y2="412.5"/><text class="small" x="1090.6842105263158" y="427.5" text-anchor="middle">32</text><line class="grid" x1="1194.2631578947369" y1="407.5" x2="1194.2631578947369" y2="412.5"/><text class="small" x="1194.2631578947369" y="427.5" text-anchor="middle">48</text><line class="grid" x1="1297.842105263158" y1="407.5" x2="1297.842105263158" y2="412.5"/><text class="small" x="1297.842105263158" y="427.5" text-anchor="middle">64</text><line class="grid" x1="1505.0" y1="407.5" x2="1505.0" y2="412.5"/><text class="small" x="1505.0" y="427.5" text-anchor="middle">96</text><polyline fill="none" stroke="#1f77b4" stroke-width="2.5" points="890.0,187.1 896.5,205.4 909.4,230.6 935.3,258.9 961.2,290.6 987.1,317.7 1038.9,345.0 1090.7,360.4 1194.3,374.7 1297.8,381.6 1505.0,390.0"/><circle cx="890.0" cy="187.1" r="2.8" fill="#1f77b4"/><circle cx="896.5" cy="205.4" r="2.8" fill="#1f77b4"/><circle cx="909.4" cy="230.6" r="2.8" fill="#1f77b4"/><circle cx="935.3" cy="258.9" r="2.8" fill="#1f77b4"/><circle cx="961.2" cy="290.6" r="2.8" fill="#1f77b4"/><circle cx="987.1" cy="317.7" r="2.8" fill="#1f77b4"/><circle cx="1038.9" cy="345.0" r="2.8" fill="#1f77b4"/><circle cx="1090.7" cy="360.4" r="2.8" fill="#1f77b4"/><circle cx="1194.3" cy="374.7" r="2.8" fill="#1f77b4"/><circle cx="1297.8" cy="381.6" r="2.8" fill="#1f77b4"/><circle cx="1505.0" cy="390.0" r="2.8" fill="#1f77b4"/><polyline fill="none" stroke="#d62728" stroke-width="2.5" points="890.0,185.7 896.5,202.6 909.4,225.8 935.3,262.3 961.2,291.4 987.1,317.9 1038.9,345.2 1090.7,360.2 1194.3,375.2 1297.8,381.5 1505.0,390.0"/><circle cx="890.0" cy="185.7" r="2.8" fill="#d62728"/><circle cx="896.5" cy="202.6" r="2.8" fill="#d62728"/><circle cx="909.4" cy="225.8" r="2.8" fill="#d62728"/><circle cx="935.3" cy="262.3" r="2.8" fill="#d62728"/><circle cx="961.2" cy="291.4" r="2.8" fill="#d62728"/><circle cx="987.1" cy="317.9" r="2.8" fill="#d62728"/><circle cx="1038.9" cy="345.2" r="2.8" fill="#d62728"/><circle cx="1090.7" cy="360.2" r="2.8" fill="#d62728"/><circle cx="1194.3" cy="375.2" r="2.8" fill="#d62728"/><circle cx="1297.8" cy="381.5" r="2.8" fill="#d62728"/><circle cx="1505.0" cy="390.0" r="2.8" fill="#d62728"/><polyline fill="none" stroke="#2ca02c" stroke-width="2.5" points="890.0,187.5 896.5,194.8 909.4,225.3 935.3,262.8 961.2,291.0 987.1,318.1 1038.9,345.0 1090.7,360.2 1194.3,374.9 1297.8,381.3 1505.0,390.0"/><circle cx="890.0" cy="187.5" r="2.8" fill="#2ca02c"/><circle cx="896.5" cy="194.8" r="2.8" fill="#2ca02c"/><circle cx="909.4" cy="225.3" r="2.8" fill="#2ca02c"/><circle cx="935.3" cy="262.8" r="2.8" fill="#2ca02c"/><circle cx="961.2" cy="291.0" r="2.8" fill="#2ca02c"/><circle cx="987.1" cy="318.1" r="2.8" fill="#2ca02c"/><circle cx="1038.9" cy="345.0" r="2.8" fill="#2ca02c"/><circle cx="1090.7" cy="360.2" r="2.8" fill="#2ca02c"/><circle cx="1194.3" cy="374.9" r="2.8" fill="#2ca02c"/><circle cx="1297.8" cy="381.3" r="2.8" fill="#2ca02c"/><circle cx="1505.0" cy="390.0" r="2.8" fill="#2ca02c"/><text class="small" x="845.0" y="276.25" transform="rotate(-90 845.0,276.25)" text-anchor="middle">uProf GB/s per thread</text><text x="432.5" y="522.5" text-anchor="middle" font-size="18">remote 0-&gt;1</text><line class="grid" x1="145.0" y1="547.5" x2="760.0" y2="547.5"/><text class="small" x="137.0" y="551.5" text-anchor="end">35</text><line class="grid" x1="145.0" y1="602.0" x2="760.0" y2="602.0"/><text class="small" x="137.0" y="606.0" text-anchor="end">28</text><line class="grid" x1="145.0" y1="656.5" x2="760.0" y2="656.5"/><text class="small" x="137.0" y="660.5" text-anchor="end">21</text><line class="grid" x1="145.0" y1="711.0" x2="760.0" y2="711.0"/><text class="small" x="137.0" y="715.0" text-anchor="end">14</text><line class="grid" x1="145.0" y1="765.5" x2="760.0" y2="765.5"/><text class="small" x="137.0" y="769.5" text-anchor="end">7</text><line class="grid" x1="145.0" y1="820.0" x2="760.0" y2="820.0"/><text class="small" x="137.0" y="824.0" text-anchor="end">0</text><line class="axis" x1="145.0" y1="820.0" x2="760.0" y2="820.0"/><line class="axis" x1="145.0" y1="547.5" x2="145.0" y2="820.0"/><line class="grid" x1="145.0" y1="820.0" x2="145.0" y2="825.0"/><text class="small" x="145.0" y="840.0" text-anchor="middle">1</text><line class="grid" x1="151.47368421052633" y1="820.0" x2="151.47368421052633" y2="825.0"/><text class="small" x="151.47368421052633" y="840.0" text-anchor="middle">2</text><line class="grid" x1="164.42105263157896" y1="820.0" x2="164.42105263157896" y2="825.0"/><text class="small" x="164.42105263157896" y="840.0" text-anchor="middle">4</text><line class="grid" x1="190.31578947368422" y1="820.0" x2="190.31578947368422" y2="825.0"/><text class="small" x="190.31578947368422" y="840.0" text-anchor="middle">8</text><line class="grid" x1="216.21052631578948" y1="820.0" x2="216.21052631578948" y2="825.0"/><text class="small" x="216.21052631578948" y="840.0" text-anchor="middle">12</text><line class="grid" x1="242.10526315789474" y1="820.0" x2="242.10526315789474" y2="825.0"/><text class="small" x="242.10526315789474" y="840.0" text-anchor="middle">16</text><line class="grid" x1="293.89473684210526" y1="820.0" x2="293.89473684210526" y2="825.0"/><text class="small" x="293.89473684210526" y="840.0" text-anchor="middle">24</text><line class="grid" x1="345.6842105263158" y1="820.0" x2="345.6842105263158" y2="825.0"/><text class="small" x="345.6842105263158" y="840.0" text-anchor="middle">32</text><line class="grid" x1="449.2631578947368" y1="820.0" x2="449.2631578947368" y2="825.0"/><text class="small" x="449.2631578947368" y="840.0" text-anchor="middle">48</text><line class="grid" x1="552.8421052631579" y1="820.0" x2="552.8421052631579" y2="825.0"/><text class="small" x="552.8421052631579" y="840.0" text-anchor="middle">64</text><line class="grid" x1="760.0" y1="820.0" x2="760.0" y2="825.0"/><text class="small" x="760.0" y="840.0" text-anchor="middle">96</text><polyline fill="none" stroke="#1f77b4" stroke-width="2.5" points="145.0,601.4 151.5,603.1 164.4,635.7 190.3,678.7 216.2,720.1 242.1,744.1 293.9,769.3 345.7,781.9 449.3,793.7 552.8,799.1 760.0,805.1"/><circle cx="145.0" cy="601.4" r="2.8" fill="#1f77b4"/><circle cx="151.5" cy="603.1" r="2.8" fill="#1f77b4"/><circle cx="164.4" cy="635.7" r="2.8" fill="#1f77b4"/><circle cx="190.3" cy="678.7" r="2.8" fill="#1f77b4"/><circle cx="216.2" cy="720.1" r="2.8" fill="#1f77b4"/><circle cx="242.1" cy="744.1" r="2.8" fill="#1f77b4"/><circle cx="293.9" cy="769.3" r="2.8" fill="#1f77b4"/><circle cx="345.7" cy="781.9" r="2.8" fill="#1f77b4"/><circle cx="449.3" cy="793.7" r="2.8" fill="#1f77b4"/><circle cx="552.8" cy="799.1" r="2.8" fill="#1f77b4"/><circle cx="760.0" cy="805.1" r="2.8" fill="#1f77b4"/><polyline fill="none" stroke="#d62728" stroke-width="2.5" points="145.0,598.9 151.5,605.6 164.4,632.0 190.3,680.2 216.2,720.9 242.1,744.6 293.9,769.6 345.7,781.5 449.3,793.5 552.8,798.8 760.0,805.5"/><circle cx="145.0" cy="598.9" r="2.8" fill="#d62728"/><circle cx="151.5" cy="605.6" r="2.8" fill="#d62728"/><circle cx="164.4" cy="632.0" r="2.8" fill="#d62728"/><circle cx="190.3" cy="680.2" r="2.8" fill="#d62728"/><circle cx="216.2" cy="720.9" r="2.8" fill="#d62728"/><circle cx="242.1" cy="744.6" r="2.8" fill="#d62728"/><circle cx="293.9" cy="769.6" r="2.8" fill="#d62728"/><circle cx="345.7" cy="781.5" r="2.8" fill="#d62728"/><circle cx="449.3" cy="793.5" r="2.8" fill="#d62728"/><circle cx="552.8" cy="798.8" r="2.8" fill="#d62728"/><circle cx="760.0" cy="805.5" r="2.8" fill="#d62728"/><polyline fill="none" stroke="#2ca02c" stroke-width="2.5" points="145.0,600.4 151.5,603.0 164.4,631.2 190.3,679.3 216.2,721.4 242.1,744.4 293.9,769.3 345.7,782.1 449.3,793.8 552.8,799.2 760.0,805.2"/><circle cx="145.0" cy="600.4" r="2.8" fill="#2ca02c"/><circle cx="151.5" cy="603.0" r="2.8" fill="#2ca02c"/><circle cx="164.4" cy="631.2" r="2.8" fill="#2ca02c"/><circle cx="190.3" cy="679.3" r="2.8" fill="#2ca02c"/><circle cx="216.2" cy="721.4" r="2.8" fill="#2ca02c"/><circle cx="242.1" cy="744.4" r="2.8" fill="#2ca02c"/><circle cx="293.9" cy="769.3" r="2.8" fill="#2ca02c"/><circle cx="345.7" cy="782.1" r="2.8" fill="#2ca02c"/><circle cx="449.3" cy="793.8" r="2.8" fill="#2ca02c"/><circle cx="552.8" cy="799.2" r="2.8" fill="#2ca02c"/><circle cx="760.0" cy="805.2" r="2.8" fill="#2ca02c"/><text class="small" x="100.0" y="688.75" transform="rotate(-90 100.0,688.75)" text-anchor="middle">uProf GB/s per thread</text><text x="1177.5" y="522.5" text-anchor="middle" font-size="18">remote 1-&gt;0</text><line class="grid" x1="890.0" y1="547.5" x2="1505.0" y2="547.5"/><text class="small" x="882.0" y="551.5" text-anchor="end">40</text><line class="grid" x1="890.0" y1="602.0" x2="1505.0" y2="602.0"/><text class="small" x="882.0" y="606.0" text-anchor="end">32</text><line class="grid" x1="890.0" y1="656.5" x2="1505.0" y2="656.5"/><text class="small" x="882.0" y="660.5" text-anchor="end">24</text><line class="grid" x1="890.0" y1="711.0" x2="1505.0" y2="711.0"/><text class="small" x="882.0" y="715.0" text-anchor="end">16</text><line class="grid" x1="890.0" y1="765.5" x2="1505.0" y2="765.5"/><text class="small" x="882.0" y="769.5" text-anchor="end">8</text><line class="grid" x1="890.0" y1="820.0" x2="1505.0" y2="820.0"/><text class="small" x="882.0" y="824.0" text-anchor="end">0</text><line class="axis" x1="890.0" y1="820.0" x2="1505.0" y2="820.0"/><line class="axis" x1="890.0" y1="547.5" x2="890.0" y2="820.0"/><line class="grid" x1="890.0" y1="820.0" x2="890.0" y2="825.0"/><text class="small" x="890.0" y="840.0" text-anchor="middle">1</text><line class="grid" x1="896.4736842105264" y1="820.0" x2="896.4736842105264" y2="825.0"/><text class="small" x="896.4736842105264" y="840.0" text-anchor="middle">2</text><line class="grid" x1="909.421052631579" y1="820.0" x2="909.421052631579" y2="825.0"/><text class="small" x="909.421052631579" y="840.0" text-anchor="middle">4</text><line class="grid" x1="935.3157894736842" y1="820.0" x2="935.3157894736842" y2="825.0"/><text class="small" x="935.3157894736842" y="840.0" text-anchor="middle">8</text><line class="grid" x1="961.2105263157895" y1="820.0" x2="961.2105263157895" y2="825.0"/><text class="small" x="961.2105263157895" y="840.0" text-anchor="middle">12</text><line class="grid" x1="987.1052631578948" y1="820.0" x2="987.1052631578948" y2="825.0"/><text class="small" x="987.1052631578948" y="840.0" text-anchor="middle">16</text><line class="grid" x1="1038.8947368421052" y1="820.0" x2="1038.8947368421052" y2="825.0"/><text class="small" x="1038.8947368421052" y="840.0" text-anchor="middle">24</text><line class="grid" x1="1090.6842105263158" y1="820.0" x2="1090.6842105263158" y2="825.0"/><text class="small" x="1090.6842105263158" y="840.0" text-anchor="middle">32</text><line class="grid" x1="1194.2631578947369" y1="820.0" x2="1194.2631578947369" y2="825.0"/><text class="small" x="1194.2631578947369" y="840.0" text-anchor="middle">48</text><line class="grid" x1="1297.842105263158" y1="820.0" x2="1297.842105263158" y2="825.0"/><text class="small" x="1297.842105263158" y="840.0" text-anchor="middle">64</text><line class="grid" x1="1505.0" y1="820.0" x2="1505.0" y2="825.0"/><text class="small" x="1505.0" y="840.0" text-anchor="middle">96</text><polyline fill="none" stroke="#1f77b4" stroke-width="2.5" points="890.0,626.8 896.5,640.3 909.4,663.0 935.3,697.0 961.2,734.8 987.1,755.1 1038.9,776.4 1090.7,787.5 1194.3,797.0 1297.8,803.2 1505.0,807.1"/><circle cx="890.0" cy="626.8" r="2.8" fill="#1f77b4"/><circle cx="896.5" cy="640.3" r="2.8" fill="#1f77b4"/><circle cx="909.4" cy="663.0" r="2.8" fill="#1f77b4"/><circle cx="935.3" cy="697.0" r="2.8" fill="#1f77b4"/><circle cx="961.2" cy="734.8" r="2.8" fill="#1f77b4"/><circle cx="987.1" cy="755.1" r="2.8" fill="#1f77b4"/><circle cx="1038.9" cy="776.4" r="2.8" fill="#1f77b4"/><circle cx="1090.7" cy="787.5" r="2.8" fill="#1f77b4"/><circle cx="1194.3" cy="797.0" r="2.8" fill="#1f77b4"/><circle cx="1297.8" cy="803.2" r="2.8" fill="#1f77b4"/><circle cx="1505.0" cy="807.1" r="2.8" fill="#1f77b4"/><polyline fill="none" stroke="#d62728" stroke-width="2.5" points="890.0,623.6 896.5,640.1 909.4,657.1 935.3,695.9 961.2,735.3 987.1,755.2 1038.9,776.4 1090.7,787.4 1194.3,796.8 1297.8,802.4 1505.0,807.5"/><circle cx="890.0" cy="623.6" r="2.8" fill="#d62728"/><circle cx="896.5" cy="640.1" r="2.8" fill="#d62728"/><circle cx="909.4" cy="657.1" r="2.8" fill="#d62728"/><circle cx="935.3" cy="695.9" r="2.8" fill="#d62728"/><circle cx="961.2" cy="735.3" r="2.8" fill="#d62728"/><circle cx="987.1" cy="755.2" r="2.8" fill="#d62728"/><circle cx="1038.9" cy="776.4" r="2.8" fill="#d62728"/><circle cx="1090.7" cy="787.4" r="2.8" fill="#d62728"/><circle cx="1194.3" cy="796.8" r="2.8" fill="#d62728"/><circle cx="1297.8" cy="802.4" r="2.8" fill="#d62728"/><circle cx="1505.0" cy="807.5" r="2.8" fill="#d62728"/><polyline fill="none" stroke="#2ca02c" stroke-width="2.5" points="890.0,625.9 896.5,640.9 909.4,661.3 935.3,696.9 961.2,734.1 987.1,755.0 1038.9,776.3 1090.7,787.1 1194.3,797.0 1297.8,803.0 1505.0,809.0"/><circle cx="890.0" cy="625.9" r="2.8" fill="#2ca02c"/><circle cx="896.5" cy="640.9" r="2.8" fill="#2ca02c"/><circle cx="909.4" cy="661.3" r="2.8" fill="#2ca02c"/><circle cx="935.3" cy="696.9" r="2.8" fill="#2ca02c"/><circle cx="961.2" cy="734.1" r="2.8" fill="#2ca02c"/><circle cx="987.1" cy="755.0" r="2.8" fill="#2ca02c"/><circle cx="1038.9" cy="776.3" r="2.8" fill="#2ca02c"/><circle cx="1090.7" cy="787.1" r="2.8" fill="#2ca02c"/><circle cx="1194.3" cy="797.0" r="2.8" fill="#2ca02c"/><circle cx="1297.8" cy="803.0" r="2.8" fill="#2ca02c"/><circle cx="1505.0" cy="809.0" r="2.8" fill="#2ca02c"/><text class="small" x="845.0" y="688.75" transform="rotate(-90 845.0,688.75)" text-anchor="middle">uProf GB/s per thread</text><text x="432.5" y="935.0" text-anchor="middle" font-size="18">dual local</text><line class="grid" x1="145.0" y1="960.0" x2="760.0" y2="960.0"/><text class="small" x="137.0" y="964.0" text-anchor="end">50</text><line class="grid" x1="145.0" y1="1014.5" x2="760.0" y2="1014.5"/><text class="small" x="137.0" y="1018.5" text-anchor="end">40</text><line class="grid" x1="145.0" y1="1069.0" x2="760.0" y2="1069.0"/><text class="small" x="137.0" y="1073.0" text-anchor="end">30</text><line class="grid" x1="145.0" y1="1123.5" x2="760.0" y2="1123.5"/><text class="small" x="137.0" y="1127.5" text-anchor="end">20</text><line class="grid" x1="145.0" y1="1178.0" x2="760.0" y2="1178.0"/><text class="small" x="137.0" y="1182.0" text-anchor="end">10</text><line class="grid" x1="145.0" y1="1232.5" x2="760.0" y2="1232.5"/><text class="small" x="137.0" y="1236.5" text-anchor="end">0</text><line class="axis" x1="145.0" y1="1232.5" x2="760.0" y2="1232.5"/><line class="axis" x1="145.0" y1="960.0" x2="145.0" y2="1232.5"/><line class="grid" x1="145.0" y1="1232.5" x2="145.0" y2="1237.5"/><text class="small" x="145.0" y="1252.5" text-anchor="middle">1</text><line class="grid" x1="151.47368421052633" y1="1232.5" x2="151.47368421052633" y2="1237.5"/><text class="small" x="151.47368421052633" y="1252.5" text-anchor="middle">2</text><line class="grid" x1="164.42105263157896" y1="1232.5" x2="164.42105263157896" y2="1237.5"/><text class="small" x="164.42105263157896" y="1252.5" text-anchor="middle">4</text><line class="grid" x1="190.31578947368422" y1="1232.5" x2="190.31578947368422" y2="1237.5"/><text class="small" x="190.31578947368422" y="1252.5" text-anchor="middle">8</text><line class="grid" x1="216.21052631578948" y1="1232.5" x2="216.21052631578948" y2="1237.5"/><text class="small" x="216.21052631578948" y="1252.5" text-anchor="middle">12</text><line class="grid" x1="242.10526315789474" y1="1232.5" x2="242.10526315789474" y2="1237.5"/><text class="small" x="242.10526315789474" y="1252.5" text-anchor="middle">16</text><line class="grid" x1="293.89473684210526" y1="1232.5" x2="293.89473684210526" y2="1237.5"/><text class="small" x="293.89473684210526" y="1252.5" text-anchor="middle">24</text><line class="grid" x1="345.6842105263158" y1="1232.5" x2="345.6842105263158" y2="1237.5"/><text class="small" x="345.6842105263158" y="1252.5" text-anchor="middle">32</text><line class="grid" x1="449.2631578947368" y1="1232.5" x2="449.2631578947368" y2="1237.5"/><text class="small" x="449.2631578947368" y="1252.5" text-anchor="middle">48</text><line class="grid" x1="552.8421052631579" y1="1232.5" x2="552.8421052631579" y2="1237.5"/><text class="small" x="552.8421052631579" y="1252.5" text-anchor="middle">64</text><line class="grid" x1="760.0" y1="1232.5" x2="760.0" y2="1237.5"/><text class="small" x="760.0" y="1252.5" text-anchor="middle">96</text><polyline fill="none" stroke="#1f77b4" stroke-width="2.5" points="145.0,1003.0 151.5,1022.3 164.4,1049.9 190.3,1083.5 216.2,1114.0 242.1,1142.5 293.9,1170.5 345.7,1185.9 449.3,1201.0 552.8,1209.5 760.0,1217.8"/><circle cx="145.0" cy="1003.0" r="2.8" fill="#1f77b4"/><circle cx="151.5" cy="1022.3" r="2.8" fill="#1f77b4"/><circle cx="164.4" cy="1049.9" r="2.8" fill="#1f77b4"/><circle cx="190.3" cy="1083.5" r="2.8" fill="#1f77b4"/><circle cx="216.2" cy="1114.0" r="2.8" fill="#1f77b4"/><circle cx="242.1" cy="1142.5" r="2.8" fill="#1f77b4"/><circle cx="293.9" cy="1170.5" r="2.8" fill="#1f77b4"/><circle cx="345.7" cy="1185.9" r="2.8" fill="#1f77b4"/><circle cx="449.3" cy="1201.0" r="2.8" fill="#1f77b4"/><circle cx="552.8" cy="1209.5" r="2.8" fill="#1f77b4"/><circle cx="760.0" cy="1217.8" r="2.8" fill="#1f77b4"/><polyline fill="none" stroke="#d62728" stroke-width="2.5" points="145.0,1004.9 151.5,1018.1 164.4,1045.2 190.3,1083.1 216.2,1114.5 242.1,1141.7 293.9,1170.1 345.7,1185.9 449.3,1201.0 552.8,1209.5 760.0,1217.7"/><circle cx="145.0" cy="1004.9" r="2.8" fill="#d62728"/><circle cx="151.5" cy="1018.1" r="2.8" fill="#d62728"/><circle cx="164.4" cy="1045.2" r="2.8" fill="#d62728"/><circle cx="190.3" cy="1083.1" r="2.8" fill="#d62728"/><circle cx="216.2" cy="1114.5" r="2.8" fill="#d62728"/><circle cx="242.1" cy="1141.7" r="2.8" fill="#d62728"/><circle cx="293.9" cy="1170.1" r="2.8" fill="#d62728"/><circle cx="345.7" cy="1185.9" r="2.8" fill="#d62728"/><circle cx="449.3" cy="1201.0" r="2.8" fill="#d62728"/><circle cx="552.8" cy="1209.5" r="2.8" fill="#d62728"/><circle cx="760.0" cy="1217.7" r="2.8" fill="#d62728"/><polyline fill="none" stroke="#2ca02c" stroke-width="2.5" points="145.0,1004.8 151.5,1019.5 164.4,1050.4 190.3,1082.9 216.2,1114.2 242.1,1142.0 293.9,1170.3 345.7,1185.9 449.3,1201.0 552.8,1209.5 760.0,1217.9"/><circle cx="145.0" cy="1004.8" r="2.8" fill="#2ca02c"/><circle cx="151.5" cy="1019.5" r="2.8" fill="#2ca02c"/><circle cx="164.4" cy="1050.4" r="2.8" fill="#2ca02c"/><circle cx="190.3" cy="1082.9" r="2.8" fill="#2ca02c"/><circle cx="216.2" cy="1114.2" r="2.8" fill="#2ca02c"/><circle cx="242.1" cy="1142.0" r="2.8" fill="#2ca02c"/><circle cx="293.9" cy="1170.3" r="2.8" fill="#2ca02c"/><circle cx="345.7" cy="1185.9" r="2.8" fill="#2ca02c"/><circle cx="449.3" cy="1201.0" r="2.8" fill="#2ca02c"/><circle cx="552.8" cy="1209.5" r="2.8" fill="#2ca02c"/><circle cx="760.0" cy="1217.9" r="2.8" fill="#2ca02c"/><text class="small" x="100.0" y="1101.25" transform="rotate(-90 100.0,1101.25)" text-anchor="middle">uProf GB/s per thread</text><text x="1177.5" y="935.0" text-anchor="middle" font-size="18">dual cross</text><line class="grid" x1="890.0" y1="960.0" x2="1505.0" y2="960.0"/><text class="small" x="882.0" y="964.0" text-anchor="end">35</text><line class="grid" x1="890.0" y1="1014.5" x2="1505.0" y2="1014.5"/><text class="small" x="882.0" y="1018.5" text-anchor="end">28</text><line class="grid" x1="890.0" y1="1069.0" x2="1505.0" y2="1069.0"/><text class="small" x="882.0" y="1073.0" text-anchor="end">21</text><line class="grid" x1="890.0" y1="1123.5" x2="1505.0" y2="1123.5"/><text class="small" x="882.0" y="1127.5" text-anchor="end">14</text><line class="grid" x1="890.0" y1="1178.0" x2="1505.0" y2="1178.0"/><text class="small" x="882.0" y="1182.0" text-anchor="end">7</text><line class="grid" x1="890.0" y1="1232.5" x2="1505.0" y2="1232.5"/><text class="small" x="882.0" y="1236.5" text-anchor="end">0</text><line class="axis" x1="890.0" y1="1232.5" x2="1505.0" y2="1232.5"/><line class="axis" x1="890.0" y1="960.0" x2="890.0" y2="1232.5"/><line class="grid" x1="890.0" y1="1232.5" x2="890.0" y2="1237.5"/><text class="small" x="890.0" y="1252.5" text-anchor="middle">1</text><line class="grid" x1="896.4736842105264" y1="1232.5" x2="896.4736842105264" y2="1237.5"/><text class="small" x="896.4736842105264" y="1252.5" text-anchor="middle">2</text><line class="grid" x1="909.421052631579" y1="1232.5" x2="909.421052631579" y2="1237.5"/><text class="small" x="909.421052631579" y="1252.5" text-anchor="middle">4</text><line class="grid" x1="935.3157894736842" y1="1232.5" x2="935.3157894736842" y2="1237.5"/><text class="small" x="935.3157894736842" y="1252.5" text-anchor="middle">8</text><line class="grid" x1="961.2105263157895" y1="1232.5" x2="961.2105263157895" y2="1237.5"/><text class="small" x="961.2105263157895" y="1252.5" text-anchor="middle">12</text><line class="grid" x1="987.1052631578948" y1="1232.5" x2="987.1052631578948" y2="1237.5"/><text class="small" x="987.1052631578948" y="1252.5" text-anchor="middle">16</text><line class="grid" x1="1038.8947368421052" y1="1232.5" x2="1038.8947368421052" y2="1237.5"/><text class="small" x="1038.8947368421052" y="1252.5" text-anchor="middle">24</text><line class="grid" x1="1090.6842105263158" y1="1232.5" x2="1090.6842105263158" y2="1237.5"/><text class="small" x="1090.6842105263158" y="1252.5" text-anchor="middle">32</text><line class="grid" x1="1194.2631578947369" y1="1232.5" x2="1194.2631578947369" y2="1237.5"/><text class="small" x="1194.2631578947369" y="1252.5" text-anchor="middle">48</text><line class="grid" x1="1297.842105263158" y1="1232.5" x2="1297.842105263158" y2="1237.5"/><text class="small" x="1297.842105263158" y="1252.5" text-anchor="middle">64</text><line class="grid" x1="1505.0" y1="1232.5" x2="1505.0" y2="1237.5"/><text class="small" x="1505.0" y="1252.5" text-anchor="middle">96</text><polyline fill="none" stroke="#1f77b4" stroke-width="2.5" points="890.0,1021.2 896.5,1035.7 909.4,1070.2 935.3,1135.0 961.2,1166.7 987.1,1182.5 1038.9,1200.1 1090.7,1207.8 1194.3,1215.8 1297.8,1220.3 1505.0,1224.5"/><circle cx="890.0" cy="1021.2" r="2.8" fill="#1f77b4"/><circle cx="896.5" cy="1035.7" r="2.8" fill="#1f77b4"/><circle cx="909.4" cy="1070.2" r="2.8" fill="#1f77b4"/><circle cx="935.3" cy="1135.0" r="2.8" fill="#1f77b4"/><circle cx="961.2" cy="1166.7" r="2.8" fill="#1f77b4"/><circle cx="987.1" cy="1182.5" r="2.8" fill="#1f77b4"/><circle cx="1038.9" cy="1200.1" r="2.8" fill="#1f77b4"/><circle cx="1090.7" cy="1207.8" r="2.8" fill="#1f77b4"/><circle cx="1194.3" cy="1215.8" r="2.8" fill="#1f77b4"/><circle cx="1297.8" cy="1220.3" r="2.8" fill="#1f77b4"/><circle cx="1505.0" cy="1224.5" r="2.8" fill="#1f77b4"/><polyline fill="none" stroke="#d62728" stroke-width="2.5" points="890.0,1023.6 896.5,1037.3 909.4,1071.0 935.3,1135.0 961.2,1166.6 987.1,1182.6 1038.9,1199.7 1090.7,1208.0 1194.3,1215.7 1297.8,1220.4 1505.0,1224.3"/><circle cx="890.0" cy="1023.6" r="2.8" fill="#d62728"/><circle cx="896.5" cy="1037.3" r="2.8" fill="#d62728"/><circle cx="909.4" cy="1071.0" r="2.8" fill="#d62728"/><circle cx="935.3" cy="1135.0" r="2.8" fill="#d62728"/><circle cx="961.2" cy="1166.6" r="2.8" fill="#d62728"/><circle cx="987.1" cy="1182.6" r="2.8" fill="#d62728"/><circle cx="1038.9" cy="1199.7" r="2.8" fill="#d62728"/><circle cx="1090.7" cy="1208.0" r="2.8" fill="#d62728"/><circle cx="1194.3" cy="1215.7" r="2.8" fill="#d62728"/><circle cx="1297.8" cy="1220.4" r="2.8" fill="#d62728"/><circle cx="1505.0" cy="1224.3" r="2.8" fill="#d62728"/><polyline fill="none" stroke="#2ca02c" stroke-width="2.5" points="890.0,1020.6 896.5,1027.1 909.4,1072.7 935.3,1134.9 961.2,1166.5 987.1,1182.4 1038.9,1199.6 1090.7,1207.7 1194.3,1215.7 1297.8,1220.4 1505.0,1224.1"/><circle cx="890.0" cy="1020.6" r="2.8" fill="#2ca02c"/><circle cx="896.5" cy="1027.1" r="2.8" fill="#2ca02c"/><circle cx="909.4" cy="1072.7" r="2.8" fill="#2ca02c"/><circle cx="935.3" cy="1134.9" r="2.8" fill="#2ca02c"/><circle cx="961.2" cy="1166.5" r="2.8" fill="#2ca02c"/><circle cx="987.1" cy="1182.4" r="2.8" fill="#2ca02c"/><circle cx="1038.9" cy="1199.6" r="2.8" fill="#2ca02c"/><circle cx="1090.7" cy="1207.7" r="2.8" fill="#2ca02c"/><circle cx="1194.3" cy="1215.7" r="2.8" fill="#2ca02c"/><circle cx="1297.8" cy="1220.4" r="2.8" fill="#2ca02c"/><circle cx="1505.0" cy="1224.1" r="2.8" fill="#2ca02c"/><text class="small" x="845.0" y="1101.25" transform="rotate(-90 845.0,1101.25)" text-anchor="middle">uProf GB/s per thread</text><text x="432.5" y="1347.5" text-anchor="middle" font-size="18">mixed target0</text><line class="grid" x1="145.0" y1="1372.5" x2="760.0" y2="1372.5"/><text class="small" x="137.0" y="1376.5" text-anchor="end">40</text><line class="grid" x1="145.0" y1="1427.0" x2="760.0" y2="1427.0"/><text class="small" x="137.0" y="1431.0" text-anchor="end">32</text><line class="grid" x1="145.0" y1="1481.5" x2="760.0" y2="1481.5"/><text class="small" x="137.0" y="1485.5" text-anchor="end">24</text><line class="grid" x1="145.0" y1="1536.0" x2="760.0" y2="1536.0"/><text class="small" x="137.0" y="1540.0" text-anchor="end">16</text><line class="grid" x1="145.0" y1="1590.5" x2="760.0" y2="1590.5"/><text class="small" x="137.0" y="1594.5" text-anchor="end">8</text><line class="grid" x1="145.0" y1="1645.0" x2="760.0" y2="1645.0"/><text class="small" x="137.0" y="1649.0" text-anchor="end">0</text><line class="axis" x1="145.0" y1="1645.0" x2="760.0" y2="1645.0"/><line class="axis" x1="145.0" y1="1372.5" x2="145.0" y2="1645.0"/><line class="grid" x1="145.0" y1="1645.0" x2="145.0" y2="1650.0"/><text class="small" x="145.0" y="1665.0" text-anchor="middle">1</text><line class="grid" x1="151.47368421052633" y1="1645.0" x2="151.47368421052633" y2="1650.0"/><text class="small" x="151.47368421052633" y="1665.0" text-anchor="middle">2</text><line class="grid" x1="164.42105263157896" y1="1645.0" x2="164.42105263157896" y2="1650.0"/><text class="small" x="164.42105263157896" y="1665.0" text-anchor="middle">4</text><line class="grid" x1="190.31578947368422" y1="1645.0" x2="190.31578947368422" y2="1650.0"/><text class="small" x="190.31578947368422" y="1665.0" text-anchor="middle">8</text><line class="grid" x1="216.21052631578948" y1="1645.0" x2="216.21052631578948" y2="1650.0"/><text class="small" x="216.21052631578948" y="1665.0" text-anchor="middle">12</text><line class="grid" x1="242.10526315789474" y1="1645.0" x2="242.10526315789474" y2="1650.0"/><text class="small" x="242.10526315789474" y="1665.0" text-anchor="middle">16</text><line class="grid" x1="293.89473684210526" y1="1645.0" x2="293.89473684210526" y2="1650.0"/><text class="small" x="293.89473684210526" y="1665.0" text-anchor="middle">24</text><line class="grid" x1="345.6842105263158" y1="1645.0" x2="345.6842105263158" y2="1650.0"/><text class="small" x="345.6842105263158" y="1665.0" text-anchor="middle">32</text><line class="grid" x1="449.2631578947368" y1="1645.0" x2="449.2631578947368" y2="1650.0"/><text class="small" x="449.2631578947368" y="1665.0" text-anchor="middle">48</text><line class="grid" x1="552.8421052631579" y1="1645.0" x2="552.8421052631579" y2="1650.0"/><text class="small" x="552.8421052631579" y="1665.0" text-anchor="middle">64</text><line class="grid" x1="760.0" y1="1645.0" x2="760.0" y2="1650.0"/><text class="small" x="760.0" y="1665.0" text-anchor="middle">96</text><polyline fill="none" stroke="#1f77b4" stroke-width="2.5" points="145.0,1421.1 151.5,1438.4 164.4,1474.9 190.3,1527.0 216.2,1564.4 242.1,1583.6 293.9,1603.8 345.7,1614.6 449.3,1623.6 552.8,1629.8 760.0,1634.3"/><circle cx="145.0" cy="1421.1" r="2.8" fill="#1f77b4"/><circle cx="151.5" cy="1438.4" r="2.8" fill="#1f77b4"/><circle cx="164.4" cy="1474.9" r="2.8" fill="#1f77b4"/><circle cx="190.3" cy="1527.0" r="2.8" fill="#1f77b4"/><circle cx="216.2" cy="1564.4" r="2.8" fill="#1f77b4"/><circle cx="242.1" cy="1583.6" r="2.8" fill="#1f77b4"/><circle cx="293.9" cy="1603.8" r="2.8" fill="#1f77b4"/><circle cx="345.7" cy="1614.6" r="2.8" fill="#1f77b4"/><circle cx="449.3" cy="1623.6" r="2.8" fill="#1f77b4"/><circle cx="552.8" cy="1629.8" r="2.8" fill="#1f77b4"/><circle cx="760.0" cy="1634.3" r="2.8" fill="#1f77b4"/><polyline fill="none" stroke="#d62728" stroke-width="2.5" points="145.0,1420.0 151.5,1438.2 164.4,1471.2 190.3,1526.7 216.2,1565.0 242.1,1584.4 293.9,1603.7 345.7,1614.6 449.3,1623.7 552.8,1629.9 760.0,1634.8"/><circle cx="145.0" cy="1420.0" r="2.8" fill="#d62728"/><circle cx="151.5" cy="1438.2" r="2.8" fill="#d62728"/><circle cx="164.4" cy="1471.2" r="2.8" fill="#d62728"/><circle cx="190.3" cy="1526.7" r="2.8" fill="#d62728"/><circle cx="216.2" cy="1565.0" r="2.8" fill="#d62728"/><circle cx="242.1" cy="1584.4" r="2.8" fill="#d62728"/><circle cx="293.9" cy="1603.7" r="2.8" fill="#d62728"/><circle cx="345.7" cy="1614.6" r="2.8" fill="#d62728"/><circle cx="449.3" cy="1623.7" r="2.8" fill="#d62728"/><circle cx="552.8" cy="1629.9" r="2.8" fill="#d62728"/><circle cx="760.0" cy="1634.8" r="2.8" fill="#d62728"/><polyline fill="none" stroke="#2ca02c" stroke-width="2.5" points="145.0,1420.9 151.5,1440.2 164.4,1473.6 190.3,1526.7 216.2,1564.5 242.1,1583.6 293.9,1603.8 345.7,1614.8 449.3,1624.1 552.8,1629.9 760.0,1634.4"/><circle cx="145.0" cy="1420.9" r="2.8" fill="#2ca02c"/><circle cx="151.5" cy="1440.2" r="2.8" fill="#2ca02c"/><circle cx="164.4" cy="1473.6" r="2.8" fill="#2ca02c"/><circle cx="190.3" cy="1526.7" r="2.8" fill="#2ca02c"/><circle cx="216.2" cy="1564.5" r="2.8" fill="#2ca02c"/><circle cx="242.1" cy="1583.6" r="2.8" fill="#2ca02c"/><circle cx="293.9" cy="1603.8" r="2.8" fill="#2ca02c"/><circle cx="345.7" cy="1614.8" r="2.8" fill="#2ca02c"/><circle cx="449.3" cy="1624.1" r="2.8" fill="#2ca02c"/><circle cx="552.8" cy="1629.9" r="2.8" fill="#2ca02c"/><circle cx="760.0" cy="1634.4" r="2.8" fill="#2ca02c"/><text class="small" x="100.0" y="1513.75" transform="rotate(-90 100.0,1513.75)" text-anchor="middle">uProf GB/s per thread</text><text x="1177.5" y="1347.5" text-anchor="middle" font-size="18">mixed target1</text><line class="grid" x1="890.0" y1="1372.5" x2="1505.0" y2="1372.5"/><text class="small" x="882.0" y="1376.5" text-anchor="end">45</text><line class="grid" x1="890.0" y1="1427.0" x2="1505.0" y2="1427.0"/><text class="small" x="882.0" y="1431.0" text-anchor="end">36</text><line class="grid" x1="890.0" y1="1481.5" x2="1505.0" y2="1481.5"/><text class="small" x="882.0" y="1485.5" text-anchor="end">27</text><line class="grid" x1="890.0" y1="1536.0" x2="1505.0" y2="1536.0"/><text class="small" x="882.0" y="1540.0" text-anchor="end">18</text><line class="grid" x1="890.0" y1="1590.5" x2="1505.0" y2="1590.5"/><text class="small" x="882.0" y="1594.5" text-anchor="end">9</text><line class="grid" x1="890.0" y1="1645.0" x2="1505.0" y2="1645.0"/><text class="small" x="882.0" y="1649.0" text-anchor="end">0</text><line class="axis" x1="890.0" y1="1645.0" x2="1505.0" y2="1645.0"/><line class="axis" x1="890.0" y1="1372.5" x2="890.0" y2="1645.0"/><line class="grid" x1="890.0" y1="1645.0" x2="890.0" y2="1650.0"/><text class="small" x="890.0" y="1665.0" text-anchor="middle">1</text><line class="grid" x1="896.4736842105264" y1="1645.0" x2="896.4736842105264" y2="1650.0"/><text class="small" x="896.4736842105264" y="1665.0" text-anchor="middle">2</text><line class="grid" x1="909.421052631579" y1="1645.0" x2="909.421052631579" y2="1650.0"/><text class="small" x="909.421052631579" y="1665.0" text-anchor="middle">4</text><line class="grid" x1="935.3157894736842" y1="1645.0" x2="935.3157894736842" y2="1650.0"/><text class="small" x="935.3157894736842" y="1665.0" text-anchor="middle">8</text><line class="grid" x1="961.2105263157895" y1="1645.0" x2="961.2105263157895" y2="1650.0"/><text class="small" x="961.2105263157895" y="1665.0" text-anchor="middle">12</text><line class="grid" x1="987.1052631578948" y1="1645.0" x2="987.1052631578948" y2="1650.0"/><text class="small" x="987.1052631578948" y="1665.0" text-anchor="middle">16</text><line class="grid" x1="1038.8947368421052" y1="1645.0" x2="1038.8947368421052" y2="1650.0"/><text class="small" x="1038.8947368421052" y="1665.0" text-anchor="middle">24</text><line class="grid" x1="1090.6842105263158" y1="1645.0" x2="1090.6842105263158" y2="1650.0"/><text class="small" x="1090.6842105263158" y="1665.0" text-anchor="middle">32</text><line class="grid" x1="1194.2631578947369" y1="1645.0" x2="1194.2631578947369" y2="1650.0"/><text class="small" x="1194.2631578947369" y="1665.0" text-anchor="middle">48</text><line class="grid" x1="1297.842105263158" y1="1645.0" x2="1297.842105263158" y2="1650.0"/><text class="small" x="1297.842105263158" y="1665.0" text-anchor="middle">64</text><line class="grid" x1="1505.0" y1="1645.0" x2="1505.0" y2="1650.0"/><text class="small" x="1505.0" y="1665.0" text-anchor="middle">96</text><polyline fill="none" stroke="#1f77b4" stroke-width="2.5" points="890.0,1436.5 896.5,1452.2 909.4,1487.6 935.3,1535.3 961.2,1567.8 987.1,1586.0 1038.9,1605.7 1090.7,1615.1 1194.3,1624.7 1297.8,1630.7 1505.0,1634.8"/><circle cx="890.0" cy="1436.5" r="2.8" fill="#1f77b4"/><circle cx="896.5" cy="1452.2" r="2.8" fill="#1f77b4"/><circle cx="909.4" cy="1487.6" r="2.8" fill="#1f77b4"/><circle cx="935.3" cy="1535.3" r="2.8" fill="#1f77b4"/><circle cx="961.2" cy="1567.8" r="2.8" fill="#1f77b4"/><circle cx="987.1" cy="1586.0" r="2.8" fill="#1f77b4"/><circle cx="1038.9" cy="1605.7" r="2.8" fill="#1f77b4"/><circle cx="1090.7" cy="1615.1" r="2.8" fill="#1f77b4"/><circle cx="1194.3" cy="1624.7" r="2.8" fill="#1f77b4"/><circle cx="1297.8" cy="1630.7" r="2.8" fill="#1f77b4"/><circle cx="1505.0" cy="1634.8" r="2.8" fill="#1f77b4"/><polyline fill="none" stroke="#d62728" stroke-width="2.5" points="890.0,1435.2 896.5,1456.9 909.4,1488.2 935.3,1533.3 961.2,1567.1 987.1,1585.9 1038.9,1605.6 1090.7,1615.1 1194.3,1624.6 1297.8,1630.7 1505.0,1634.9"/><circle cx="890.0" cy="1435.2" r="2.8" fill="#d62728"/><circle cx="896.5" cy="1456.9" r="2.8" fill="#d62728"/><circle cx="909.4" cy="1488.2" r="2.8" fill="#d62728"/><circle cx="935.3" cy="1533.3" r="2.8" fill="#d62728"/><circle cx="961.2" cy="1567.1" r="2.8" fill="#d62728"/><circle cx="987.1" cy="1585.9" r="2.8" fill="#d62728"/><circle cx="1038.9" cy="1605.6" r="2.8" fill="#d62728"/><circle cx="1090.7" cy="1615.1" r="2.8" fill="#d62728"/><circle cx="1194.3" cy="1624.6" r="2.8" fill="#d62728"/><circle cx="1297.8" cy="1630.7" r="2.8" fill="#d62728"/><circle cx="1505.0" cy="1634.9" r="2.8" fill="#d62728"/><polyline fill="none" stroke="#2ca02c" stroke-width="2.5" points="890.0,1437.2 896.5,1451.8 909.4,1490.1 935.3,1532.4 961.2,1566.9 987.1,1586.2 1038.9,1605.8 1090.7,1615.1 1194.3,1624.7 1297.8,1630.8 1505.0,1634.9"/><circle cx="890.0" cy="1437.2" r="2.8" fill="#2ca02c"/><circle cx="896.5" cy="1451.8" r="2.8" fill="#2ca02c"/><circle cx="909.4" cy="1490.1" r="2.8" fill="#2ca02c"/><circle cx="935.3" cy="1532.4" r="2.8" fill="#2ca02c"/><circle cx="961.2" cy="1566.9" r="2.8" fill="#2ca02c"/><circle cx="987.1" cy="1586.2" r="2.8" fill="#2ca02c"/><circle cx="1038.9" cy="1605.8" r="2.8" fill="#2ca02c"/><circle cx="1090.7" cy="1615.1" r="2.8" fill="#2ca02c"/><circle cx="1194.3" cy="1624.7" r="2.8" fill="#2ca02c"/><circle cx="1297.8" cy="1630.8" r="2.8" fill="#2ca02c"/><circle cx="1505.0" cy="1634.9" r="2.8" fill="#2ca02c"/><text class="small" x="845.0" y="1513.75" transform="rotate(-90 845.0,1513.75)" text-anchor="middle">uProf GB/s per thread</text></svg>