<svg xmlns="http://www.w3.org/2000/svg" width="1600" height="1800" viewBox="0 0 1600 1800"><style>text{font-family:monospace;fill:#111}.small{font-size:14px}.axis{stroke:#444;stroke-width:1}.grid{stroke:#ddd;stroke-width:1}</style><rect x="0" y="0" width="1600" height="1800" fill="white"/><text x="800.0" y="40" text-anchor="middle" font-size="24">mem_bw_stress aggregate throughput vs threads (1MiB)</text><text x="800.0" y="70" text-anchor="middle" font-size="16">threads per process on X axis</text><line x1="1320" y1="30" x2="1348" y2="30" stroke="#1f77b4" stroke-width="3"/><text x="1356" y="35" font-size="14">1302</text><line x1="1320" y1="54" x2="1348" y2="54" stroke="#d62728" stroke-width="3"/><text x="1356" y="59" font-size="14">1306</text><line x1="1320" y1="78" x2="1348" y2="78" stroke="#2ca02c" stroke-width="3"/><text x="1356" y="83" font-size="14">1308</text><text x="432.5" y="110.0" text-anchor="middle" font-size="18">local numa0</text><line class="grid" x1="145.0" y1="135.0" x2="760.0" y2="135.0"/><text class="small" x="137.0" y="139.0" text-anchor="end">275</text><line class="grid" x1="145.0" y1="189.5" x2="760.0" y2="189.5"/><text class="small" x="137.0" y="193.5" text-anchor="end">220</text><line class="grid" x1="145.0" y1="244.0" x2="760.0" y2="244.0"/><text class="small" x="137.0" y="248.0" text-anchor="end">165</text><line class="grid" x1="145.0" y1="298.5" x2="760.0" y2="298.5"/><text class="small" x="137.0" y="302.5" text-anchor="end">110</text><line class="grid" x1="145.0" y1="353.0" x2="760.0" y2="353.0"/><text class="small" x="137.0" y="357.0" text-anchor="end">55</text><line class="grid" x1="145.0" y1="407.5" x2="760.0" y2="407.5"/><text class="small" x="137.0" y="411.5" text-anchor="end">0</text><line class="axis" x1="145.0" y1="407.5" x2="760.0" y2="407.5"/><line class="axis" x1="145.0" y1="135.0" x2="145.0" y2="407.5"/><line class="grid" x1="145.0" y1="407.5" x2="145.0" y2="412.5"/><text class="small" x="145.0" y="427.5" text-anchor="middle">1</text><line class="grid" x1="151.47368421052633" y1="407.5" x2="151.47368421052633" y2="412.5"/><text class="small" x="151.47368421052633" y="427.5" text-anchor="middle">2</text><line class="grid" x1="164.42105263157896" y1="407.5" x2="164.42105263157896" y2="412.5"/><text class="small" x="164.42105263157896" y="427.5" text-anchor="middle">4</text><line class="grid" x1="190.31578947368422" y1="407.5" x2="190.31578947368422" y2="412.5"/><text class="small" x="190.31578947368422" y="427.5" text-anchor="middle">8</text><line class="grid" x1="216.21052631578948" y1="407.5" x2="216.21052631578948" y2="412.5"/><text class="small" x="216.21052631578948" y="427.5" text-anchor="middle">12</text><line class="grid" x1="242.10526315789474" y1="407.5" x2="242.10526315789474" y2="412.5"/><text class="small" x="242.10526315789474" y="427.5" text-anchor="middle">16</text><line class="grid" x1="293.89473684210526" y1="407.5" x2="293.89473684210526" y2="412.5"/><text class="small" x="293.89473684210526" y="427.5" text-anchor="middle">24</text><line class="grid" x1="345.6842105263158" y1="407.5" x2="345.6842105263158" y2="412.5"/><text class="small" x="345.6842105263158" y="427.5" text-anchor="middle">32</text><line class="grid" x1="449.2631578947368" y1="407.5" x2="449.2631578947368" y2="412.5"/><text class="small" x="449.2631578947368" y="427.5" text-anchor="middle">48</text><line class="grid" x1="552.8421052631579" y1="407.5" x2="552.8421052631579" y2="412.5"/><text class="small" x="552.8421052631579" y="427.5" text-anchor="middle">64</text><line class="grid" x1="760.0" y1="407.5" x2="760.0" y2="412.5"/><text class="small" x="760.0" y="427.5" text-anchor="middle">96</text><polyline fill="none" stroke="#1f77b4" stroke-width="2.5" points="145.0,369.9 151.5,332.9 164.4,275.9 190.3,217.4 216.2,184.8 242.1,186.3 293.9,189.9 345.7,193.3 449.3,194.9 552.8,195.6 760.0,195.8"/><circle cx="145.0" cy="369.9" r="2.8" fill="#1f77b4"/><circle cx="151.5" cy="332.9" r="2.8" fill="#1f77b4"/><circle cx="164.4" cy="275.9" r="2.8" fill="#1f77b4"/><circle cx="190.3" cy="217.4" r="2.8" fill="#1f77b4"/><circle cx="216.2" cy="184.8" r="2.8" fill="#1f77b4"/><circle cx="242.1" cy="186.3" r="2.8" fill="#1f77b4"/><circle cx="293.9" cy="189.9" r="2.8" fill="#1f77b4"/><circle cx="345.7" cy="193.3" r="2.8" fill="#1f77b4"/><circle cx="449.3" cy="194.9" r="2.8" fill="#1f77b4"/><circle cx="552.8" cy="195.6" r="2.8" fill="#1f77b4"/><circle cx="760.0" cy="195.8" r="2.8" fill="#1f77b4"/><polyline fill="none" stroke="#d62728" stroke-width="2.5" points="145.0,370.0 151.5,332.9 164.4,284.0 190.3,219.5 216.2,185.0 242.1,186.1 293.9,189.4 345.7,193.1 449.3,194.7 552.8,195.6 760.0,196.1"/><circle cx="145.0" cy="370.0" r="2.8" fill="#d62728"/><circle cx="151.5" cy="332.9" r="2.8" fill="#d62728"/><circle cx="164.4" cy="284.0" r="2.8" fill="#d62728"/><circle cx="190.3" cy="219.5" r="2.8" fill="#d62728"/><circle cx="216.2" cy="185.0" r="2.8" fill="#d62728"/><circle cx="242.1" cy="186.1" r="2.8" fill="#d62728"/><circle cx="293.9" cy="189.4" r="2.8" fill="#d62728"/><circle cx="345.7" cy="193.1" r="2.8" fill="#d62728"/><circle cx="449.3" cy="194.7" r="2.8" fill="#d62728"/><circle cx="552.8" cy="195.6" r="2.8" fill="#d62728"/><circle cx="760.0" cy="196.1" r="2.8" fill="#d62728"/><polyline fill="none" stroke="#2ca02c" stroke-width="2.5" points="145.0,369.8 151.5,332.0 164.4,280.3 190.3,213.5 216.2,185.3 242.1,185.5 293.9,190.6 345.7,193.1 449.3,194.9 552.8,195.5 760.0,195.7"/><circle cx="145.0" cy="369.8" r="2.8" fill="#2ca02c"/><circle cx="151.5" cy="332.0" r="2.8" fill="#2ca02c"/><circle cx="164.4" cy="280.3" r="2.8" fill="#2ca02c"/><circle cx="190.3" cy="213.5" r="2.8" fill="#2ca02c"/><circle cx="216.2" cy="185.3" r="2.8" fill="#2ca02c"/><circle cx="242.1" cy="185.5" r="2.8" fill="#2ca02c"/><circle cx="293.9" cy="190.6" r="2.8" fill="#2ca02c"/><circle cx="345.7" cy="193.1" r="2.8" fill="#2ca02c"/><circle cx="449.3" cy="194.9" r="2.8" fill="#2ca02c"/><circle cx="552.8" cy="195.5" r="2.8" fill="#2ca02c"/><circle cx="760.0" cy="195.7" r="2.8" fill="#2ca02c"/><text class="small" x="100.0" y="276.25" transform="rotate(-90 100.0,276.25)" text-anchor="middle">bench traffic GB/s</text><text x="1177.5" y="110.0" text-anchor="middle" font-size="18">local numa1</text><line class="grid" x1="890.0" y1="135.0" x2="1505.0" y2="135.0"/><text class="small" x="882.0" y="139.0" text-anchor="end">275</text><line class="grid" x1="890.0" y1="189.5" x2="1505.0" y2="189.5"/><text class="small" x="882.0" y="193.5" text-anchor="end">220</text><line class="grid" x1="890.0" y1="244.0" x2="1505.0" y2="244.0"/><text class="small" x="882.0" y="248.0" text-anchor="end">165</text><line class="grid" x1="890.0" y1="298.5" x2="1505.0" y2="298.5"/><text class="small" x="882.0" y="302.5" text-anchor="end">110</text><line class="grid" x1="890.0" y1="353.0" x2="1505.0" y2="353.0"/><text class="small" x="882.0" y="357.0" text-anchor="end">55</text><line class="grid" x1="890.0" y1="407.5" x2="1505.0" y2="407.5"/><text class="small" x="882.0" y="411.5" text-anchor="end">0</text><line class="axis" x1="890.0" y1="407.5" x2="1505.0" y2="407.5"/><line class="axis" x1="890.0" y1="135.0" x2="890.0" y2="407.5"/><line class="grid" x1="890.0" y1="407.5" x2="890.0" y2="412.5"/><text class="small" x="890.0" y="427.5" text-anchor="middle">1</text><line class="grid" x1="896.4736842105264" y1="407.5" x2="896.4736842105264" y2="412.5"/><text class="small" x="896.4736842105264" y="427.5" text-anchor="middle">2</text><line class="grid" x1="909.421052631579" y1="407.5" x2="909.421052631579" y2="412.5"/><text class="small" x="909.421052631579" y="427.5" text-anchor="middle">4</text><line class="grid" x1="935.3157894736842" y1="407.5" x2="935.3157894736842" y2="412.5"/><text class="small" x="935.3157894736842" y="427.5" text-anchor="middle">8</text><line class="grid" x1="961.2105263157895" y1="407.5" x2="961.2105263157895" y2="412.5"/><text class="small" x="961.2105263157895" y="427.5" text-anchor="middle">12</text><line class="grid" x1="987.1052631578948" y1="407.5" x2="987.1052631578948" y2="412.5"/><text class="small" x="987.1052631578948" y="427.5" text-anchor="middle">16</text><line class="grid" x1="1038.8947368421052" y1="407.5" x2="1038.8947368421052" y2="412.5"/><text class="small" x="1038.8947368421052" y="427.5" text-anchor="middle">24</text><line class="grid" x1="1090.6842105263158" y1="407.5" x2="1090.6842105263158" y2="412.5"/><text class="small" x="1090.6842105263158" y="427.5" text-anchor="middle">32</text><line class="grid" x1="1194.2631578947369" y1="407.5" x2="1194.2631578947369" y2="412.5"/><text class="small" x="1194.2631578947369" y="427.5" text-anchor="middle">48</text><line class="grid" x1="1297.842105263158" y1="407.5" x2="1297.842105263158" y2="412.5"/><text class="small" x="1297.842105263158" y="427.5" text-anchor="middle">64</text><line class="grid" x1="1505.0" y1="407.5" x2="1505.0" y2="412.5"/><text class="small" x="1505.0" y="427.5" text-anchor="middle">96</text><polyline fill="none" stroke="#1f77b4" stroke-width="2.5" points="890.0,369.6 896.5,333.0 909.4,277.4 935.3,217.0 961.2,183.7 987.1,186.7 1038.9,190.8 1090.7,193.3 1194.3,194.9 1297.8,196.0 1505.0,195.9"/><circle cx="890.0" cy="369.6" r="2.8" fill="#1f77b4"/><circle cx="896.5" cy="333.0" r="2.8" fill="#1f77b4"/><circle cx="909.4" cy="277.4" r="2.8" fill="#1f77b4"/><circle cx="935.3" cy="217.0" r="2.8" fill="#1f77b4"/><circle cx="961.2" cy="183.7" r="2.8" fill="#1f77b4"/><circle cx="987.1" cy="186.7" r="2.8" fill="#1f77b4"/><circle cx="1038.9" cy="190.8" r="2.8" fill="#1f77b4"/><circle cx="1090.7" cy="193.3" r="2.8" fill="#1f77b4"/><circle cx="1194.3" cy="194.9" r="2.8" fill="#1f77b4"/><circle cx="1297.8" cy="196.0" r="2.8" fill="#1f77b4"/><circle cx="1505.0" cy="195.9" r="2.8" fill="#1f77b4"/><polyline fill="none" stroke="#d62728" stroke-width="2.5" points="890.0,369.8 896.5,332.3 909.4,280.7 935.3,214.3 961.2,185.6 987.1,186.2 1038.9,190.7 1090.7,193.7 1194.3,195.0 1297.8,196.0 1505.0,196.1"/><circle cx="890.0" cy="369.8" r="2.8" fill="#d62728"/><circle cx="896.5" cy="332.3" r="2.8" fill="#d62728"/><circle cx="909.4" cy="280.7" r="2.8" fill="#d62728"/><circle cx="935.3" cy="214.3" r="2.8" fill="#d62728"/><circle cx="961.2" cy="185.6" r="2.8" fill="#d62728"/><circle cx="987.1" cy="186.2" r="2.8" fill="#d62728"/><circle cx="1038.9" cy="190.7" r="2.8" fill="#d62728"/><circle cx="1090.7" cy="193.7" r="2.8" fill="#d62728"/><circle cx="1194.3" cy="195.0" r="2.8" fill="#d62728"/><circle cx="1297.8" cy="196.0" r="2.8" fill="#d62728"/><circle cx="1505.0" cy="196.1" r="2.8" fill="#d62728"/><polyline fill="none" stroke="#2ca02c" stroke-width="2.5" points="890.0,369.8 896.5,332.9 909.4,276.3 935.3,221.0 961.2,183.3 987.1,186.4 1038.9,191.8 1090.7,193.6 1194.3,195.1 1297.8,196.2 1505.0,196.3"/><circle cx="890.0" cy="369.8" r="2.8" fill="#2ca02c"/><circle cx="896.5" cy="332.9" r="2.8" fill="#2ca02c"/><circle cx="909.4" cy="276.3" r="2.8" fill="#2ca02c"/><circle cx="935.3" cy="221.0" r="2.8" fill="#2ca02c"/><circle cx="961.2" cy="183.3" r="2.8" fill="#2ca02c"/><circle cx="987.1" cy="186.4" r="2.8" fill="#2ca02c"/><circle cx="1038.9" cy="191.8" r="2.8" fill="#2ca02c"/><circle cx="1090.7" cy="193.6" r="2.8" fill="#2ca02c"/><circle cx="1194.3" cy="195.1" r="2.8" fill="#2ca02c"/><circle cx="1297.8" cy="196.2" r="2.8" fill="#2ca02c"/><circle cx="1505.0" cy="196.3" r="2.8" fill="#2ca02c"/><text class="small" x="845.0" y="276.25" transform="rotate(-90 845.0,276.25)" text-anchor="middle">bench traffic GB/s</text><text x="432.5" y="522.5" text-anchor="middle" font-size="18">remote 0-&gt;1</text><line class="grid" x1="145.0" y1="547.5" x2="760.0" y2="547.5"/><text class="small" x="137.0" y="551.5" text-anchor="end">175</text><line class="grid" x1="145.0" y1="602.0" x2="760.0" y2="602.0"/><text class="small" x="137.0" y="606.0" text-anchor="end">140</text><line class="grid" x1="145.0" y1="656.5" x2="760.0" y2="656.5"/><text class="small" x="137.0" y="660.5" text-anchor="end">105</text><line class="grid" x1="145.0" y1="711.0" x2="760.0" y2="711.0"/><text class="small" x="137.0" y="715.0" text-anchor="end">70</text><line class="grid" x1="145.0" y1="765.5" x2="760.0" y2="765.5"/><text class="small" x="137.0" y="769.5" text-anchor="end">35</text><line class="grid" x1="145.0" y1="820.0" x2="760.0" y2="820.0"/><text class="small" x="137.0" y="824.0" text-anchor="end">0</text><line class="axis" x1="145.0" y1="820.0" x2="760.0" y2="820.0"/><line class="axis" x1="145.0" y1="547.5" x2="145.0" y2="820.0"/><line class="grid" x1="145.0" y1="820.0" x2="145.0" y2="825.0"/><text class="small" x="145.0" y="840.0" text-anchor="middle">1</text><line class="grid" x1="151.47368421052633" y1="820.0" x2="151.47368421052633" y2="825.0"/><text class="small" x="151.47368421052633" y="840.0" text-anchor="middle">2</text><line class="grid" x1="164.42105263157896" y1="820.0" x2="164.42105263157896" y2="825.0"/><text class="small" x="164.42105263157896" y="840.0" text-anchor="middle">4</text><line class="grid" x1="190.31578947368422" y1="820.0" x2="190.31578947368422" y2="825.0"/><text class="small" x="190.31578947368422" y="840.0" text-anchor="middle">8</text><line class="grid" x1="216.21052631578948" y1="820.0" x2="216.21052631578948" y2="825.0"/><text class="small" x="216.21052631578948" y="840.0" text-anchor="middle">12</text><line class="grid" x1="242.10526315789474" y1="820.0" x2="242.10526315789474" y2="825.0"/><text class="small" x="242.10526315789474" y="840.0" text-anchor="middle">16</text><line class="grid" x1="293.89473684210526" y1="820.0" x2="293.89473684210526" y2="825.0"/><text class="small" x="293.89473684210526" y="840.0" text-anchor="middle">24</text><line class="grid" x1="345.6842105263158" y1="820.0" x2="345.6842105263158" y2="825.0"/><text class="small" x="345.6842105263158" y="840.0" text-anchor="middle">32</text><line class="grid" x1="449.2631578947368" y1="820.0" x2="449.2631578947368" y2="825.0"/><text class="small" x="449.2631578947368" y="840.0" text-anchor="middle">48</text><line class="grid" x1="552.8421052631579" y1="820.0" x2="552.8421052631579" y2="825.0"/><text class="small" x="552.8421052631579" y="840.0" text-anchor="middle">64</text><line class="grid" x1="760.0" y1="820.0" x2="760.0" y2="825.0"/><text class="small" x="760.0" y="840.0" text-anchor="middle">96</text><polyline fill="none" stroke="#1f77b4" stroke-width="2.5" points="145.0,785.8 151.5,751.6 164.4,695.5 190.3,640.4 216.2,634.2 242.1,639.6 293.9,647.0 345.7,649.0 449.3,649.4 552.8,648.9 760.0,648.3"/><circle cx="145.0" cy="785.8" r="2.8" fill="#1f77b4"/><circle cx="151.5" cy="751.6" r="2.8" fill="#1f77b4"/><circle cx="164.4" cy="695.5" r="2.8" fill="#1f77b4"/><circle cx="190.3" cy="640.4" r="2.8" fill="#1f77b4"/><circle cx="216.2" cy="634.2" r="2.8" fill="#1f77b4"/><circle cx="242.1" cy="639.6" r="2.8" fill="#1f77b4"/><circle cx="293.9" cy="647.0" r="2.8" fill="#1f77b4"/><circle cx="345.7" cy="649.0" r="2.8" fill="#1f77b4"/><circle cx="449.3" cy="649.4" r="2.8" fill="#1f77b4"/><circle cx="552.8" cy="648.9" r="2.8" fill="#1f77b4"/><circle cx="760.0" cy="648.3" r="2.8" fill="#1f77b4"/><polyline fill="none" stroke="#d62728" stroke-width="2.5" points="145.0,785.9 151.5,753.1 164.4,694.5 190.3,642.4 216.2,635.0 242.1,639.4 293.9,647.3 345.7,649.4 449.3,650.0 552.8,648.9 760.0,648.3"/><circle cx="145.0" cy="785.9" r="2.8" fill="#d62728"/><circle cx="151.5" cy="753.1" r="2.8" fill="#d62728"/><circle cx="164.4" cy="694.5" r="2.8" fill="#d62728"/><circle cx="190.3" cy="642.4" r="2.8" fill="#d62728"/><circle cx="216.2" cy="635.0" r="2.8" fill="#d62728"/><circle cx="242.1" cy="639.4" r="2.8" fill="#d62728"/><circle cx="293.9" cy="647.3" r="2.8" fill="#d62728"/><circle cx="345.7" cy="649.4" r="2.8" fill="#d62728"/><circle cx="449.3" cy="650.0" r="2.8" fill="#d62728"/><circle cx="552.8" cy="648.9" r="2.8" fill="#d62728"/><circle cx="760.0" cy="648.3" r="2.8" fill="#d62728"/><polyline fill="none" stroke="#2ca02c" stroke-width="2.5" points="145.0,786.0 151.5,752.3 164.4,695.3 190.3,642.3 216.2,635.7 242.1,639.7 293.9,647.5 345.7,649.7 449.3,650.4 552.8,649.2 760.0,648.6"/><circle cx="145.0" cy="786.0" r="2.8" fill="#2ca02c"/><circle cx="151.5" cy="752.3" r="2.8" fill="#2ca02c"/><circle cx="164.4" cy="695.3" r="2.8" fill="#2ca02c"/><circle cx="190.3" cy="642.3" r="2.8" fill="#2ca02c"/><circle cx="216.2" cy="635.7" r="2.8" fill="#2ca02c"/><circle cx="242.1" cy="639.7" r="2.8" fill="#2ca02c"/><circle cx="293.9" cy="647.5" r="2.8" fill="#2ca02c"/><circle cx="345.7" cy="649.7" r="2.8" fill="#2ca02c"/><circle cx="449.3" cy="650.4" r="2.8" fill="#2ca02c"/><circle cx="552.8" cy="649.2" r="2.8" fill="#2ca02c"/><circle cx="760.0" cy="648.6" r="2.8" fill="#2ca02c"/><text class="small" x="100.0" y="688.75" transform="rotate(-90 100.0,688.75)" text-anchor="middle">bench traffic GB/s</text><text x="1177.5" y="522.5" text-anchor="middle" font-size="18">remote 1-&gt;0</text><line class="grid" x1="890.0" y1="547.5" x2="1505.0" y2="547.5"/><text class="small" x="882.0" y="551.5" text-anchor="end">150</text><line class="grid" x1="890.0" y1="602.0" x2="1505.0" y2="602.0"/><text class="small" x="882.0" y="606.0" text-anchor="end">120</text><line class="grid" x1="890.0" y1="656.5" x2="1505.0" y2="656.5"/><text class="small" x="882.0" y="660.5" text-anchor="end">90</text><line class="grid" x1="890.0" y1="711.0" x2="1505.0" y2="711.0"/><text class="small" x="882.0" y="715.0" text-anchor="end">60</text><line class="grid" x1="890.0" y1="765.5" x2="1505.0" y2="765.5"/><text class="small" x="882.0" y="769.5" text-anchor="end">30</text><line class="grid" x1="890.0" y1="820.0" x2="1505.0" y2="820.0"/><text class="small" x="882.0" y="824.0" text-anchor="end">0</text><line class="axis" x1="890.0" y1="820.0" x2="1505.0" y2="820.0"/><line class="axis" x1="890.0" y1="547.5" x2="890.0" y2="820.0"/><line class="grid" x1="890.0" y1="820.0" x2="890.0" y2="825.0"/><text class="small" x="890.0" y="840.0" text-anchor="middle">1</text><line class="grid" x1="896.4736842105264" y1="820.0" x2="896.4736842105264" y2="825.0"/><text class="small" x="896.4736842105264" y="840.0" text-anchor="middle">2</text><line class="grid" x1="909.421052631579" y1="820.0" x2="909.421052631579" y2="825.0"/><text class="small" x="909.421052631579" y="840.0" text-anchor="middle">4</text><line class="grid" x1="935.3157894736842" y1="820.0" x2="935.3157894736842" y2="825.0"/><text class="small" x="935.3157894736842" y="840.0" text-anchor="middle">8</text><line class="grid" x1="961.2105263157895" y1="820.0" x2="961.2105263157895" y2="825.0"/><text class="small" x="961.2105263157895" y="840.0" text-anchor="middle">12</text><line class="grid" x1="987.1052631578948" y1="820.0" x2="987.1052631578948" y2="825.0"/><text class="small" x="987.1052631578948" y="840.0" text-anchor="middle">16</text><line class="grid" x1="1038.8947368421052" y1="820.0" x2="1038.8947368421052" y2="825.0"/><text class="small" x="1038.8947368421052" y="840.0" text-anchor="middle">24</text><line class="grid" x1="1090.6842105263158" y1="820.0" x2="1090.6842105263158" y2="825.0"/><text class="small" x="1090.6842105263158" y="840.0" text-anchor="middle">32</text><line class="grid" x1="1194.2631578947369" y1="820.0" x2="1194.2631578947369" y2="825.0"/><text class="small" x="1194.2631578947369" y="840.0" text-anchor="middle">48</text><line class="grid" x1="1297.842105263158" y1="820.0" x2="1297.842105263158" y2="825.0"/><text class="small" x="1297.842105263158" y="840.0" text-anchor="middle">64</text><line class="grid" x1="1505.0" y1="820.0" x2="1505.0" y2="825.0"/><text class="small" x="1505.0" y="840.0" text-anchor="middle">96</text><polyline fill="none" stroke="#1f77b4" stroke-width="2.5" points="890.0,780.3 896.5,741.2 909.4,678.5 935.3,612.0 961.2,606.4 987.1,611.6 1038.9,619.4 1090.7,621.4 1194.3,622.2 1297.8,621.6 1505.0,620.5"/><circle cx="890.0" cy="780.3" r="2.8" fill="#1f77b4"/><circle cx="896.5" cy="741.2" r="2.8" fill="#1f77b4"/><circle cx="909.4" cy="678.5" r="2.8" fill="#1f77b4"/><circle cx="935.3" cy="612.0" r="2.8" fill="#1f77b4"/><circle cx="961.2" cy="606.4" r="2.8" fill="#1f77b4"/><circle cx="987.1" cy="611.6" r="2.8" fill="#1f77b4"/><circle cx="1038.9" cy="619.4" r="2.8" fill="#1f77b4"/><circle cx="1090.7" cy="621.4" r="2.8" fill="#1f77b4"/><circle cx="1194.3" cy="622.2" r="2.8" fill="#1f77b4"/><circle cx="1297.8" cy="621.6" r="2.8" fill="#1f77b4"/><circle cx="1505.0" cy="620.5" r="2.8" fill="#1f77b4"/><polyline fill="none" stroke="#d62728" stroke-width="2.5" points="890.0,779.8 896.5,740.3 909.4,677.3 935.3,612.3 961.2,607.0 987.1,612.7 1038.9,620.2 1090.7,622.4 1194.3,623.1 1297.8,621.4 1505.0,620.9"/><circle cx="890.0" cy="779.8" r="2.8" fill="#d62728"/><circle cx="896.5" cy="740.3" r="2.8" fill="#d62728"/><circle cx="909.4" cy="677.3" r="2.8" fill="#d62728"/><circle cx="935.3" cy="612.3" r="2.8" fill="#d62728"/><circle cx="961.2" cy="607.0" r="2.8" fill="#d62728"/><circle cx="987.1" cy="612.7" r="2.8" fill="#d62728"/><circle cx="1038.9" cy="620.2" r="2.8" fill="#d62728"/><circle cx="1090.7" cy="622.4" r="2.8" fill="#d62728"/><circle cx="1194.3" cy="623.1" r="2.8" fill="#d62728"/><circle cx="1297.8" cy="621.4" r="2.8" fill="#d62728"/><circle cx="1505.0" cy="620.9" r="2.8" fill="#d62728"/><polyline fill="none" stroke="#2ca02c" stroke-width="2.5" points="890.0,779.7 896.5,741.0 909.4,675.2 935.3,613.6 961.2,607.2 987.1,612.4 1038.9,620.9 1090.7,622.9 1194.3,623.4 1297.8,622.0 1505.0,621.1"/><circle cx="890.0" cy="779.7" r="2.8" fill="#2ca02c"/><circle cx="896.5" cy="741.0" r="2.8" fill="#2ca02c"/><circle cx="909.4" cy="675.2" r="2.8" fill="#2ca02c"/><circle cx="935.3" cy="613.6" r="2.8" fill="#2ca02c"/><circle cx="961.2" cy="607.2" r="2.8" fill="#2ca02c"/><circle cx="987.1" cy="612.4" r="2.8" fill="#2ca02c"/><circle cx="1038.9" cy="620.9" r="2.8" fill="#2ca02c"/><circle cx="1090.7" cy="622.9" r="2.8" fill="#2ca02c"/><circle cx="1194.3" cy="623.4" r="2.8" fill="#2ca02c"/><circle cx="1297.8" cy="622.0" r="2.8" fill="#2ca02c"/><circle cx="1505.0" cy="621.1" r="2.8" fill="#2ca02c"/><text class="small" x="845.0" y="688.75" transform="rotate(-90 845.0,688.75)" text-anchor="middle">bench traffic GB/s</text><text x="432.5" y="935.0" text-anchor="middle" font-size="18">dual local</text><line class="grid" x1="145.0" y1="960.0" x2="760.0" y2="960.0"/><text class="small" x="137.0" y="964.0" text-anchor="end">550</text><line class="grid" x1="145.0" y1="1014.5" x2="760.0" y2="1014.5"/><text class="small" x="137.0" y="1018.5" text-anchor="end">440</text><line class="grid" x1="145.0" y1="1069.0" x2="760.0" y2="1069.0"/><text class="small" x="137.0" y="1073.0" text-anchor="end">330</text><line class="grid" x1="145.0" y1="1123.5" x2="760.0" y2="1123.5"/><text class="small" x="137.0" y="1127.5" text-anchor="end">220</text><line class="grid" x1="145.0" y1="1178.0" x2="760.0" y2="1178.0"/><text class="small" x="137.0" y="1182.0" text-anchor="end">110</text><line class="grid" x1="145.0" y1="1232.5" x2="760.0" y2="1232.5"/><text class="small" x="137.0" y="1236.5" text-anchor="end">0</text><line class="axis" x1="145.0" y1="1232.5" x2="760.0" y2="1232.5"/><line class="axis" x1="145.0" y1="960.0" x2="145.0" y2="1232.5"/><line class="grid" x1="145.0" y1="1232.5" x2="145.0" y2="1237.5"/><text class="small" x="145.0" y="1252.5" text-anchor="middle">1</text><line class="grid" x1="151.47368421052633" y1="1232.5" x2="151.47368421052633" y2="1237.5"/><text class="small" x="151.47368421052633" y="1252.5" text-anchor="middle">2</text><line class="grid" x1="164.42105263157896" y1="1232.5" x2="164.42105263157896" y2="1237.5"/><text class="small" x="164.42105263157896" y="1252.5" text-anchor="middle">4</text><line class="grid" x1="190.31578947368422" y1="1232.5" x2="190.31578947368422" y2="1237.5"/><text class="small" x="190.31578947368422" y="1252.5" text-anchor="middle">8</text><line class="grid" x1="216.21052631578948" y1="1232.5" x2="216.21052631578948" y2="1237.5"/><text class="small" x="216.21052631578948" y="1252.5" text-anchor="middle">12</text><line class="grid" x1="242.10526315789474" y1="1232.5" x2="242.10526315789474" y2="1237.5"/><text class="small" x="242.10526315789474" y="1252.5" text-anchor="middle">16</text><line class="grid" x1="293.89473684210526" y1="1232.5" x2="293.89473684210526" y2="1237.5"/><text class="small" x="293.89473684210526" y="1252.5" text-anchor="middle">24</text><line class="grid" x1="345.6842105263158" y1="1232.5" x2="345.6842105263158" y2="1237.5"/><text class="small" x="345.6842105263158" y="1252.5" text-anchor="middle">32</text><line class="grid" x1="449.2631578947368" y1="1232.5" x2="449.2631578947368" y2="1237.5"/><text class="small" x="449.2631578947368" y="1252.5" text-anchor="middle">48</text><line class="grid" x1="552.8421052631579" y1="1232.5" x2="552.8421052631579" y2="1237.5"/><text class="small" x="552.8421052631579" y="1252.5" text-anchor="middle">64</text><line class="grid" x1="760.0" y1="1232.5" x2="760.0" y2="1237.5"/><text class="small" x="760.0" y="1252.5" text-anchor="middle">96</text><polyline fill="none" stroke="#1f77b4" stroke-width="2.5" points="145.0,1194.5 151.5,1157.9 164.4,1104.6 190.3,1042.2 216.2,1010.7 242.1,1010.9 293.9,1015.6 345.7,1018.6 449.3,1019.9 552.8,1021.1 760.0,1022.9"/><circle cx="145.0" cy="1194.5" r="2.8" fill="#1f77b4"/><circle cx="151.5" cy="1157.9" r="2.8" fill="#1f77b4"/><circle cx="164.4" cy="1104.6" r="2.8" fill="#1f77b4"/><circle cx="190.3" cy="1042.2" r="2.8" fill="#1f77b4"/><circle cx="216.2" cy="1010.7" r="2.8" fill="#1f77b4"/><circle cx="242.1" cy="1010.9" r="2.8" fill="#1f77b4"/><circle cx="293.9" cy="1015.6" r="2.8" fill="#1f77b4"/><circle cx="345.7" cy="1018.6" r="2.8" fill="#1f77b4"/><circle cx="449.3" cy="1019.9" r="2.8" fill="#1f77b4"/><circle cx="552.8" cy="1021.1" r="2.8" fill="#1f77b4"/><circle cx="760.0" cy="1022.9" r="2.8" fill="#1f77b4"/><polyline fill="none" stroke="#d62728" stroke-width="2.5" points="145.0,1194.7 151.5,1157.2 164.4,1105.6 190.3,1043.0 216.2,1010.4 242.1,1011.3 293.9,1015.8 345.7,1018.7 449.3,1020.0 552.8,1021.0 760.0,1022.9"/><circle cx="145.0" cy="1194.7" r="2.8" fill="#d62728"/><circle cx="151.5" cy="1157.2" r="2.8" fill="#d62728"/><circle cx="164.4" cy="1105.6" r="2.8" fill="#d62728"/><circle cx="190.3" cy="1043.0" r="2.8" fill="#d62728"/><circle cx="216.2" cy="1010.4" r="2.8" fill="#d62728"/><circle cx="242.1" cy="1011.3" r="2.8" fill="#d62728"/><circle cx="293.9" cy="1015.8" r="2.8" fill="#d62728"/><circle cx="345.7" cy="1018.7" r="2.8" fill="#d62728"/><circle cx="449.3" cy="1020.0" r="2.8" fill="#d62728"/><circle cx="552.8" cy="1021.0" r="2.8" fill="#d62728"/><circle cx="760.0" cy="1022.9" r="2.8" fill="#d62728"/><polyline fill="none" stroke="#2ca02c" stroke-width="2.5" points="145.0,1194.6 151.5,1157.4 164.4,1105.5 190.3,1043.9 216.2,1010.3 242.1,1010.1 293.9,1016.1 345.7,1018.5 449.3,1020.0 552.8,1021.0 760.0,1022.7"/><circle cx="145.0" cy="1194.6" r="2.8" fill="#2ca02c"/><circle cx="151.5" cy="1157.4" r="2.8" fill="#2ca02c"/><circle cx="164.4" cy="1105.5" r="2.8" fill="#2ca02c"/><circle cx="190.3" cy="1043.9" r="2.8" fill="#2ca02c"/><circle cx="216.2" cy="1010.3" r="2.8" fill="#2ca02c"/><circle cx="242.1" cy="1010.1" r="2.8" fill="#2ca02c"/><circle cx="293.9" cy="1016.1" r="2.8" fill="#2ca02c"/><circle cx="345.7" cy="1018.5" r="2.8" fill="#2ca02c"/><circle cx="449.3" cy="1020.0" r="2.8" fill="#2ca02c"/><circle cx="552.8" cy="1021.0" r="2.8" fill="#2ca02c"/><circle cx="760.0" cy="1022.7" r="2.8" fill="#2ca02c"/><text class="small" x="100.0" y="1101.25" transform="rotate(-90 100.0,1101.25)" text-anchor="middle">bench traffic GB/s</text><text x="1177.5" y="935.0" text-anchor="middle" font-size="18">dual cross</text><line class="grid" x1="890.0" y1="960.0" x2="1505.0" y2="960.0"/><text class="small" x="882.0" y="964.0" text-anchor="end">200</text><line class="grid" x1="890.0" y1="1014.5" x2="1505.0" y2="1014.5"/><text class="small" x="882.0" y="1018.5" text-anchor="end">160</text><line class="grid" x1="890.0" y1="1069.0" x2="1505.0" y2="1069.0"/><text class="small" x="882.0" y="1073.0" text-anchor="end">120</text><line class="grid" x1="890.0" y1="1123.5" x2="1505.0" y2="1123.5"/><text class="small" x="882.0" y="1127.5" text-anchor="end">80</text><line class="grid" x1="890.0" y1="1178.0" x2="1505.0" y2="1178.0"/><text class="small" x="882.0" y="1182.0" text-anchor="end">40</text><line class="grid" x1="890.0" y1="1232.5" x2="1505.0" y2="1232.5"/><text class="small" x="882.0" y="1236.5" text-anchor="end">0</text><line class="axis" x1="890.0" y1="1232.5" x2="1505.0" y2="1232.5"/><line class="axis" x1="890.0" y1="960.0" x2="890.0" y2="1232.5"/><line class="grid" x1="890.0" y1="1232.5" x2="890.0" y2="1237.5"/><text class="small" x="890.0" y="1252.5" text-anchor="middle">1</text><line class="grid" x1="896.4736842105264" y1="1232.5" x2="896.4736842105264" y2="1237.5"/><text class="small" x="896.4736842105264" y="1252.5" text-anchor="middle">2</text><line class="grid" x1="909.421052631579" y1="1232.5" x2="909.421052631579" y2="1237.5"/><text class="small" x="909.421052631579" y="1252.5" text-anchor="middle">4</text><line class="grid" x1="935.3157894736842" y1="1232.5" x2="935.3157894736842" y2="1237.5"/><text class="small" x="935.3157894736842" y="1252.5" text-anchor="middle">8</text><line class="grid" x1="961.2105263157895" y1="1232.5" x2="961.2105263157895" y2="1237.5"/><text class="small" x="961.2105263157895" y="1252.5" text-anchor="middle">12</text><line class="grid" x1="987.1052631578948" y1="1232.5" x2="987.1052631578948" y2="1237.5"/><text class="small" x="987.1052631578948" y="1252.5" text-anchor="middle">16</text><line class="grid" x1="1038.8947368421052" y1="1232.5" x2="1038.8947368421052" y2="1237.5"/><text class="small" x="1038.8947368421052" y="1252.5" text-anchor="middle">24</text><line class="grid" x1="1090.6842105263158" y1="1232.5" x2="1090.6842105263158" y2="1237.5"/><text class="small" x="1090.6842105263158" y="1252.5" text-anchor="middle">32</text><line class="grid" x1="1194.2631578947369" y1="1232.5" x2="1194.2631578947369" y2="1237.5"/><text class="small" x="1194.2631578947369" y="1252.5" text-anchor="middle">48</text><line class="grid" x1="1297.842105263158" y1="1232.5" x2="1297.842105263158" y2="1237.5"/><text class="small" x="1297.842105263158" y="1252.5" text-anchor="middle">64</text><line class="grid" x1="1505.0" y1="1232.5" x2="1505.0" y2="1237.5"/><text class="small" x="1505.0" y="1252.5" text-anchor="middle">96</text><polyline fill="none" stroke="#1f77b4" stroke-width="2.5" points="890.0,1173.4 896.5,1118.4 909.4,1043.1 935.3,1033.0 961.2,1029.1 987.1,1033.5 1038.9,1042.0 1090.7,1045.2 1194.3,1046.2 1297.8,1046.1 1505.0,1044.0"/><circle cx="890.0" cy="1173.4" r="2.8" fill="#1f77b4"/><circle cx="896.5" cy="1118.4" r="2.8" fill="#1f77b4"/><circle cx="909.4" cy="1043.1" r="2.8" fill="#1f77b4"/><circle cx="935.3" cy="1033.0" r="2.8" fill="#1f77b4"/><circle cx="961.2" cy="1029.1" r="2.8" fill="#1f77b4"/><circle cx="987.1" cy="1033.5" r="2.8" fill="#1f77b4"/><circle cx="1038.9" cy="1042.0" r="2.8" fill="#1f77b4"/><circle cx="1090.7" cy="1045.2" r="2.8" fill="#1f77b4"/><circle cx="1194.3" cy="1046.2" r="2.8" fill="#1f77b4"/><circle cx="1297.8" cy="1046.1" r="2.8" fill="#1f77b4"/><circle cx="1505.0" cy="1044.0" r="2.8" fill="#1f77b4"/><polyline fill="none" stroke="#d62728" stroke-width="2.5" points="890.0,1173.5 896.5,1116.1 909.4,1044.9 935.3,1034.7 961.2,1028.8 987.1,1033.9 1038.9,1042.5 1090.7,1044.6 1194.3,1047.0 1297.8,1045.8 1505.0,1045.3"/><circle cx="890.0" cy="1173.5" r="2.8" fill="#d62728"/><circle cx="896.5" cy="1116.1" r="2.8" fill="#d62728"/><circle cx="909.4" cy="1044.9" r="2.8" fill="#d62728"/><circle cx="935.3" cy="1034.7" r="2.8" fill="#d62728"/><circle cx="961.2" cy="1028.8" r="2.8" fill="#d62728"/><circle cx="987.1" cy="1033.9" r="2.8" fill="#d62728"/><circle cx="1038.9" cy="1042.5" r="2.8" fill="#d62728"/><circle cx="1090.7" cy="1044.6" r="2.8" fill="#d62728"/><circle cx="1194.3" cy="1047.0" r="2.8" fill="#d62728"/><circle cx="1297.8" cy="1045.8" r="2.8" fill="#d62728"/><circle cx="1505.0" cy="1045.3" r="2.8" fill="#d62728"/><polyline fill="none" stroke="#2ca02c" stroke-width="2.5" points="890.0,1172.9 896.5,1118.1 909.4,1044.5 935.3,1030.4 961.2,1029.1 987.1,1033.8 1038.9,1042.8 1090.7,1044.6 1194.3,1047.0 1297.8,1045.6 1505.0,1044.9"/><circle cx="890.0" cy="1172.9" r="2.8" fill="#2ca02c"/><circle cx="896.5" cy="1118.1" r="2.8" fill="#2ca02c"/><circle cx="909.4" cy="1044.5" r="2.8" fill="#2ca02c"/><circle cx="935.3" cy="1030.4" r="2.8" fill="#2ca02c"/><circle cx="961.2" cy="1029.1" r="2.8" fill="#2ca02c"/><circle cx="987.1" cy="1033.8" r="2.8" fill="#2ca02c"/><circle cx="1038.9" cy="1042.8" r="2.8" fill="#2ca02c"/><circle cx="1090.7" cy="1044.6" r="2.8" fill="#2ca02c"/><circle cx="1194.3" cy="1047.0" r="2.8" fill="#2ca02c"/><circle cx="1297.8" cy="1045.6" r="2.8" fill="#2ca02c"/><circle cx="1505.0" cy="1044.9" r="2.8" fill="#2ca02c"/><text class="small" x="845.0" y="1101.25" transform="rotate(-90 845.0,1101.25)" text-anchor="middle">bench traffic GB/s</text><text x="432.5" y="1347.5" text-anchor="middle" font-size="18">mixed target0</text><line class="grid" x1="145.0" y1="1372.5" x2="760.0" y2="1372.5"/><text class="small" x="137.0" y="1376.5" text-anchor="end">275</text><line class="grid" x1="145.0" y1="1427.0" x2="760.0" y2="1427.0"/><text class="small" x="137.0" y="1431.0" text-anchor="end">220</text><line class="grid" x1="145.0" y1="1481.5" x2="760.0" y2="1481.5"/><text class="small" x="137.0" y="1485.5" text-anchor="end">165</text><line class="grid" x1="145.0" y1="1536.0" x2="760.0" y2="1536.0"/><text class="small" x="137.0" y="1540.0" text-anchor="end">110</text><line class="grid" x1="145.0" y1="1590.5" x2="760.0" y2="1590.5"/><text class="small" x="137.0" y="1594.5" text-anchor="end">55</text><line class="grid" x1="145.0" y1="1645.0" x2="760.0" y2="1645.0"/><text class="small" x="137.0" y="1649.0" text-anchor="end">0</text><line class="axis" x1="145.0" y1="1645.0" x2="760.0" y2="1645.0"/><line class="axis" x1="145.0" y1="1372.5" x2="145.0" y2="1645.0"/><line class="grid" x1="145.0" y1="1645.0" x2="145.0" y2="1650.0"/><text class="small" x="145.0" y="1665.0" text-anchor="middle">1</text><line class="grid" x1="151.47368421052633" y1="1645.0" x2="151.47368421052633" y2="1650.0"/><text class="small" x="151.47368421052633" y="1665.0" text-anchor="middle">2</text><line class="grid" x1="164.42105263157896" y1="1645.0" x2="164.42105263157896" y2="1650.0"/><text class="small" x="164.42105263157896" y="1665.0" text-anchor="middle">4</text><line class="grid" x1="190.31578947368422" y1="1645.0" x2="190.31578947368422" y2="1650.0"/><text class="small" x="190.31578947368422" y="1665.0" text-anchor="middle">8</text><line class="grid" x1="216.21052631578948" y1="1645.0" x2="216.21052631578948" y2="1650.0"/><text class="small" x="216.21052631578948" y="1665.0" text-anchor="middle">12</text><line class="grid" x1="242.10526315789474" y1="1645.0" x2="242.10526315789474" y2="1650.0"/><text class="small" x="242.10526315789474" y="1665.0" text-anchor="middle">16</text><line class="grid" x1="293.89473684210526" y1="1645.0" x2="293.89473684210526" y2="1650.0"/><text class="small" x="293.89473684210526" y="1665.0" text-anchor="middle">24</text><line class="grid" x1="345.6842105263158" y1="1645.0" x2="345.6842105263158" y2="1650.0"/><text class="small" x="345.6842105263158" y="1665.0" text-anchor="middle">32</text><line class="grid" x1="449.2631578947368" y1="1645.0" x2="449.2631578947368" y2="1650.0"/><text class="small" x="449.2631578947368" y="1665.0" text-anchor="middle">48</text><line class="grid" x1="552.8421052631579" y1="1645.0" x2="552.8421052631579" y2="1650.0"/><text class="small" x="552.8421052631579" y="1665.0" text-anchor="middle">64</text><line class="grid" x1="760.0" y1="1645.0" x2="760.0" y2="1650.0"/><text class="small" x="760.0" y="1665.0" text-anchor="middle">96</text><polyline fill="none" stroke="#1f77b4" stroke-width="2.5" points="145.0,1586.1 151.5,1533.7 164.4,1471.8 190.3,1423.0 216.2,1410.6 242.1,1418.0 293.9,1428.4 345.7,1431.1 449.3,1431.8 552.8,1431.7 760.0,1431.6"/><circle cx="145.0" cy="1586.1" r="2.8" fill="#1f77b4"/><circle cx="151.5" cy="1533.7" r="2.8" fill="#1f77b4"/><circle cx="164.4" cy="1471.8" r="2.8" fill="#1f77b4"/><circle cx="190.3" cy="1423.0" r="2.8" fill="#1f77b4"/><circle cx="216.2" cy="1410.6" r="2.8" fill="#1f77b4"/><circle cx="242.1" cy="1418.0" r="2.8" fill="#1f77b4"/><circle cx="293.9" cy="1428.4" r="2.8" fill="#1f77b4"/><circle cx="345.7" cy="1431.1" r="2.8" fill="#1f77b4"/><circle cx="449.3" cy="1431.8" r="2.8" fill="#1f77b4"/><circle cx="552.8" cy="1431.7" r="2.8" fill="#1f77b4"/><circle cx="760.0" cy="1431.6" r="2.8" fill="#1f77b4"/><polyline fill="none" stroke="#d62728" stroke-width="2.5" points="145.0,1585.6 151.5,1535.8 164.4,1470.0 190.3,1419.7 216.2,1411.2 242.1,1417.7 293.9,1429.2 345.7,1431.8 449.3,1432.6 552.8,1431.3 760.0,1428.9"/><circle cx="145.0" cy="1585.6" r="2.8" fill="#d62728"/><circle cx="151.5" cy="1535.8" r="2.8" fill="#d62728"/><circle cx="164.4" cy="1470.0" r="2.8" fill="#d62728"/><circle cx="190.3" cy="1419.7" r="2.8" fill="#d62728"/><circle cx="216.2" cy="1411.2" r="2.8" fill="#d62728"/><circle cx="242.1" cy="1417.7" r="2.8" fill="#d62728"/><circle cx="293.9" cy="1429.2" r="2.8" fill="#d62728"/><circle cx="345.7" cy="1431.8" r="2.8" fill="#d62728"/><circle cx="449.3" cy="1432.6" r="2.8" fill="#d62728"/><circle cx="552.8" cy="1431.3" r="2.8" fill="#d62728"/><circle cx="760.0" cy="1428.9" r="2.8" fill="#d62728"/><polyline fill="none" stroke="#2ca02c" stroke-width="2.5" points="145.0,1585.8 151.5,1536.6 164.4,1473.9 190.3,1416.9 216.2,1410.2 242.1,1417.1 293.9,1428.1 345.7,1431.9 449.3,1431.6 552.8,1431.2 760.0,1429.7"/><circle cx="145.0" cy="1585.8" r="2.8" fill="#2ca02c"/><circle cx="151.5" cy="1536.6" r="2.8" fill="#2ca02c"/><circle cx="164.4" cy="1473.9" r="2.8" fill="#2ca02c"/><circle cx="190.3" cy="1416.9" r="2.8" fill="#2ca02c"/><circle cx="216.2" cy="1410.2" r="2.8" fill="#2ca02c"/><circle cx="242.1" cy="1417.1" r="2.8" fill="#2ca02c"/><circle cx="293.9" cy="1428.1" r="2.8" fill="#2ca02c"/><circle cx="345.7" cy="1431.9" r="2.8" fill="#2ca02c"/><circle cx="449.3" cy="1431.6" r="2.8" fill="#2ca02c"/><circle cx="552.8" cy="1431.2" r="2.8" fill="#2ca02c"/><circle cx="760.0" cy="1429.7" r="2.8" fill="#2ca02c"/><text class="small" x="100.0" y="1513.75" transform="rotate(-90 100.0,1513.75)" text-anchor="middle">bench traffic GB/s</text><text x="1177.5" y="1347.5" text-anchor="middle" font-size="18">mixed target1</text><line class="grid" x1="890.0" y1="1372.5" x2="1505.0" y2="1372.5"/><text class="small" x="882.0" y="1376.5" text-anchor="end">275</text><line class="grid" x1="890.0" y1="1427.0" x2="1505.0" y2="1427.0"/><text class="small" x="882.0" y="1431.0" text-anchor="end">220</text><line class="grid" x1="890.0" y1="1481.5" x2="1505.0" y2="1481.5"/><text class="small" x="882.0" y="1485.5" text-anchor="end">165</text><line class="grid" x1="890.0" y1="1536.0" x2="1505.0" y2="1536.0"/><text class="small" x="882.0" y="1540.0" text-anchor="end">110</text><line class="grid" x1="890.0" y1="1590.5" x2="1505.0" y2="1590.5"/><text class="small" x="882.0" y="1594.5" text-anchor="end">55</text><line class="grid" x1="890.0" y1="1645.0" x2="1505.0" y2="1645.0"/><text class="small" x="882.0" y="1649.0" text-anchor="end">0</text><line class="axis" x1="890.0" y1="1645.0" x2="1505.0" y2="1645.0"/><line class="axis" x1="890.0" y1="1372.5" x2="890.0" y2="1645.0"/><line class="grid" x1="890.0" y1="1645.0" x2="890.0" y2="1650.0"/><text class="small" x="890.0" y="1665.0" text-anchor="middle">1</text><line class="grid" x1="896.4736842105264" y1="1645.0" x2="896.4736842105264" y2="1650.0"/><text class="small" x="896.4736842105264" y="1665.0" text-anchor="middle">2</text><line class="grid" x1="909.421052631579" y1="1645.0" x2="909.421052631579" y2="1650.0"/><text class="small" x="909.421052631579" y="1665.0" text-anchor="middle">4</text><line class="grid" x1="935.3157894736842" y1="1645.0" x2="935.3157894736842" y2="1650.0"/><text class="small" x="935.3157894736842" y="1665.0" text-anchor="middle">8</text><line class="grid" x1="961.2105263157895" y1="1645.0" x2="961.2105263157895" y2="1650.0"/><text class="small" x="961.2105263157895" y="1665.0" text-anchor="middle">12</text><line class="grid" x1="987.1052631578948" y1="1645.0" x2="987.1052631578948" y2="1650.0"/><text class="small" x="987.1052631578948" y="1665.0" text-anchor="middle">16</text><line class="grid" x1="1038.8947368421052" y1="1645.0" x2="1038.8947368421052" y2="1650.0"/><text class="small" x="1038.8947368421052" y="1665.0" text-anchor="middle">24</text><line class="grid" x1="1090.6842105263158" y1="1645.0" x2="1090.6842105263158" y2="1650.0"/><text class="small" x="1090.6842105263158" y="1665.0" text-anchor="middle">32</text><line class="grid" x1="1194.2631578947369" y1="1645.0" x2="1194.2631578947369" y2="1650.0"/><text class="small" x="1194.2631578947369" y="1665.0" text-anchor="middle">48</text><line class="grid" x1="1297.842105263158" y1="1645.0" x2="1297.842105263158" y2="1650.0"/><text class="small" x="1297.842105263158" y="1665.0" text-anchor="middle">64</text><line class="grid" x1="1505.0" y1="1645.0" x2="1505.0" y2="1650.0"/><text class="small" x="1505.0" y="1665.0" text-anchor="middle">96</text><polyline fill="none" stroke="#1f77b4" stroke-width="2.5" points="890.0,1586.1 896.5,1534.3 909.4,1469.1 935.3,1415.7 961.2,1413.1 987.1,1417.8 1038.9,1429.3 1090.7,1432.0 1194.3,1432.6 1297.8,1431.8 1505.0,1429.9"/><circle cx="890.0" cy="1586.1" r="2.8" fill="#1f77b4"/><circle cx="896.5" cy="1534.3" r="2.8" fill="#1f77b4"/><circle cx="909.4" cy="1469.1" r="2.8" fill="#1f77b4"/><circle cx="935.3" cy="1415.7" r="2.8" fill="#1f77b4"/><circle cx="961.2" cy="1413.1" r="2.8" fill="#1f77b4"/><circle cx="987.1" cy="1417.8" r="2.8" fill="#1f77b4"/><circle cx="1038.9" cy="1429.3" r="2.8" fill="#1f77b4"/><circle cx="1090.7" cy="1432.0" r="2.8" fill="#1f77b4"/><circle cx="1194.3" cy="1432.6" r="2.8" fill="#1f77b4"/><circle cx="1297.8" cy="1431.8" r="2.8" fill="#1f77b4"/><circle cx="1505.0" cy="1429.9" r="2.8" fill="#1f77b4"/><polyline fill="none" stroke="#d62728" stroke-width="2.5" points="890.0,1586.2 896.5,1533.7 909.4,1474.0 935.3,1420.5 961.2,1410.7 987.1,1418.1 1038.9,1428.6 1090.7,1432.3 1194.3,1432.5 1297.8,1432.1 1505.0,1429.9"/><circle cx="890.0" cy="1586.2" r="2.8" fill="#d62728"/><circle cx="896.5" cy="1533.7" r="2.8" fill="#d62728"/><circle cx="909.4" cy="1474.0" r="2.8" fill="#d62728"/><circle cx="935.3" cy="1420.5" r="2.8" fill="#d62728"/><circle cx="961.2" cy="1410.7" r="2.8" fill="#d62728"/><circle cx="987.1" cy="1418.1" r="2.8" fill="#d62728"/><circle cx="1038.9" cy="1428.6" r="2.8" fill="#d62728"/><circle cx="1090.7" cy="1432.3" r="2.8" fill="#d62728"/><circle cx="1194.3" cy="1432.5" r="2.8" fill="#d62728"/><circle cx="1297.8" cy="1432.1" r="2.8" fill="#d62728"/><circle cx="1505.0" cy="1429.9" r="2.8" fill="#d62728"/><polyline fill="none" stroke="#2ca02c" stroke-width="2.5" points="890.0,1586.1 896.5,1533.9 909.4,1470.4 935.3,1420.2 961.2,1411.5 987.1,1418.2 1038.9,1429.5 1090.7,1432.2 1194.3,1432.7 1297.8,1431.1 1505.0,1429.9"/><circle cx="890.0" cy="1586.1" r="2.8" fill="#2ca02c"/><circle cx="896.5" cy="1533.9" r="2.8" fill="#2ca02c"/><circle cx="909.4" cy="1470.4" r="2.8" fill="#2ca02c"/><circle cx="935.3" cy="1420.2" r="2.8" fill="#2ca02c"/><circle cx="961.2" cy="1411.5" r="2.8" fill="#2ca02c"/><circle cx="987.1" cy="1418.2" r="2.8" fill="#2ca02c"/><circle cx="1038.9" cy="1429.5" r="2.8" fill="#2ca02c"/><circle cx="1090.7" cy="1432.2" r="2.8" fill="#2ca02c"/><circle cx="1194.3" cy="1432.7" r="2.8" fill="#2ca02c"/><circle cx="1297.8" cy="1431.1" r="2.8" fill="#2ca02c"/><circle cx="1505.0" cy="1429.9" r="2.8" fill="#2ca02c"/><text class="small" x="845.0" y="1513.75" transform="rotate(-90 845.0,1513.75)" text-anchor="middle">bench traffic GB/s</text></svg>