<svg xmlns="http://www.w3.org/2000/svg" width="1600" height="1800" viewBox="0 0 1600 1800"><style>text{font-family:monospace;fill:#111}.small{font-size:14px}.axis{stroke:#444;stroke-width:1}.grid{stroke:#ddd;stroke-width:1}</style><rect x="0" y="0" width="1600" height="1800" fill="white"/><text x="800.0" y="40" text-anchor="middle" font-size="24">uProf total memory bandwidth vs threads (4KiB)</text><text x="800.0" y="70" text-anchor="middle" font-size="16">threads per process on X axis</text><line x1="1320" y1="30" x2="1348" y2="30" stroke="#1f77b4" stroke-width="3"/><text x="1356" y="35" font-size="14">1302</text><line x1="1320" y1="54" x2="1348" y2="54" stroke="#d62728" stroke-width="3"/><text x="1356" y="59" font-size="14">1306</text><line x1="1320" y1="78" x2="1348" y2="78" stroke="#2ca02c" stroke-width="3"/><text x="1356" y="83" font-size="14">1308</text><text x="432.5" y="110.0" text-anchor="middle" font-size="18">local numa0</text><line class="grid" x1="145.0" y1="135.0" x2="760.0" y2="135.0"/><text class="small" x="137.0" y="139.0" text-anchor="end">450</text><line class="grid" x1="145.0" y1="189.5" x2="760.0" y2="189.5"/><text class="small" x="137.0" y="193.5" text-anchor="end">360</text><line class="grid" x1="145.0" y1="244.0" x2="760.0" y2="244.0"/><text class="small" x="137.0" y="248.0" text-anchor="end">270</text><line class="grid" x1="145.0" y1="298.5" x2="760.0" y2="298.5"/><text class="small" x="137.0" y="302.5" text-anchor="end">180</text><line class="grid" x1="145.0" y1="353.0" x2="760.0" y2="353.0"/><text class="small" x="137.0" y="357.0" text-anchor="end">90</text><line class="grid" x1="145.0" y1="407.5" x2="760.0" y2="407.5"/><text class="small" x="137.0" y="411.5" text-anchor="end">0</text><line class="axis" x1="145.0" y1="407.5" x2="760.0" y2="407.5"/><line class="axis" x1="145.0" y1="135.0" x2="145.0" y2="407.5"/><line class="grid" x1="145.0" y1="407.5" x2="145.0" y2="412.5"/><text class="small" x="145.0" y="427.5" text-anchor="middle">1</text><line class="grid" x1="151.47368421052633" y1="407.5" x2="151.47368421052633" y2="412.5"/><text class="small" x="151.47368421052633" y="427.5" text-anchor="middle">2</text><line class="grid" x1="164.42105263157896" y1="407.5" x2="164.42105263157896" y2="412.5"/><text class="small" x="164.42105263157896" y="427.5" text-anchor="middle">4</text><line class="grid" x1="190.31578947368422" y1="407.5" x2="190.31578947368422" y2="412.5"/><text class="small" x="190.31578947368422" y="427.5" text-anchor="middle">8</text><line class="grid" x1="216.21052631578948" y1="407.5" x2="216.21052631578948" y2="412.5"/><text class="small" x="216.21052631578948" y="427.5" text-anchor="middle">12</text><line class="grid" x1="242.10526315789474" y1="407.5" x2="242.10526315789474" y2="412.5"/><text class="small" x="242.10526315789474" y="427.5" text-anchor="middle">16</text><line class="grid" x1="293.89473684210526" y1="407.5" x2="293.89473684210526" y2="412.5"/><text class="small" x="293.89473684210526" y="427.5" text-anchor="middle">24</text><line class="grid" x1="345.6842105263158" y1="407.5" x2="345.6842105263158" y2="412.5"/><text class="small" x="345.6842105263158" y="427.5" text-anchor="middle">32</text><line class="grid" x1="449.2631578947368" y1="407.5" x2="449.2631578947368" y2="412.5"/><text class="small" x="449.2631578947368" y="427.5" text-anchor="middle">48</text><line class="grid" x1="552.8421052631579" y1="407.5" x2="552.8421052631579" y2="412.5"/><text class="small" x="552.8421052631579" y="427.5" text-anchor="middle">64</text><line class="grid" x1="760.0" y1="407.5" x2="760.0" y2="412.5"/><text class="small" x="760.0" y="427.5" text-anchor="middle">96</text><polyline fill="none" stroke="#1f77b4" stroke-width="2.5" points="145.0,380.4 151.5,355.8 164.4,320.0 190.3,266.1 216.2,236.8 242.1,232.0 293.9,224.6 345.7,223.2 449.3,209.3 552.8,204.2 760.0,203.1"/><circle cx="145.0" cy="380.4" r="2.8" fill="#1f77b4"/><circle cx="151.5" cy="355.8" r="2.8" fill="#1f77b4"/><circle cx="164.4" cy="320.0" r="2.8" fill="#1f77b4"/><circle cx="190.3" cy="266.1" r="2.8" fill="#1f77b4"/><circle cx="216.2" cy="236.8" r="2.8" fill="#1f77b4"/><circle cx="242.1" cy="232.0" r="2.8" fill="#1f77b4"/><circle cx="293.9" cy="224.6" r="2.8" fill="#1f77b4"/><circle cx="345.7" cy="223.2" r="2.8" fill="#1f77b4"/><circle cx="449.3" cy="209.3" r="2.8" fill="#1f77b4"/><circle cx="552.8" cy="204.2" r="2.8" fill="#1f77b4"/><circle cx="760.0" cy="203.1" r="2.8" fill="#1f77b4"/><polyline fill="none" stroke="#d62728" stroke-width="2.5" points="145.0,380.6 151.5,357.6 164.4,320.5 190.3,266.8 216.2,236.5 242.1,232.2 293.9,224.4 345.7,223.4 449.3,213.3 552.8,199.0 760.0,198.9"/><circle cx="145.0" cy="380.6" r="2.8" fill="#d62728"/><circle cx="151.5" cy="357.6" r="2.8" fill="#d62728"/><circle cx="164.4" cy="320.5" r="2.8" fill="#d62728"/><circle cx="190.3" cy="266.8" r="2.8" fill="#d62728"/><circle cx="216.2" cy="236.5" r="2.8" fill="#d62728"/><circle cx="242.1" cy="232.2" r="2.8" fill="#d62728"/><circle cx="293.9" cy="224.4" r="2.8" fill="#d62728"/><circle cx="345.7" cy="223.4" r="2.8" fill="#d62728"/><circle cx="449.3" cy="213.3" r="2.8" fill="#d62728"/><circle cx="552.8" cy="199.0" r="2.8" fill="#d62728"/><circle cx="760.0" cy="198.9" r="2.8" fill="#d62728"/><polyline fill="none" stroke="#2ca02c" stroke-width="2.5" points="145.0,380.2 151.5,357.8 164.4,321.9 190.3,263.1 216.2,237.8 242.1,232.0 293.9,226.1 345.7,222.9 449.3,208.5 552.8,200.8 760.0,200.2"/><circle cx="145.0" cy="380.2" r="2.8" fill="#2ca02c"/><circle cx="151.5" cy="357.8" r="2.8" fill="#2ca02c"/><circle cx="164.4" cy="321.9" r="2.8" fill="#2ca02c"/><circle cx="190.3" cy="263.1" r="2.8" fill="#2ca02c"/><circle cx="216.2" cy="237.8" r="2.8" fill="#2ca02c"/><circle cx="242.1" cy="232.0" r="2.8" fill="#2ca02c"/><circle cx="293.9" cy="226.1" r="2.8" fill="#2ca02c"/><circle cx="345.7" cy="222.9" r="2.8" fill="#2ca02c"/><circle cx="449.3" cy="208.5" r="2.8" fill="#2ca02c"/><circle cx="552.8" cy="200.8" r="2.8" fill="#2ca02c"/><circle cx="760.0" cy="200.2" r="2.8" fill="#2ca02c"/><text class="small" x="100.0" y="276.25" transform="rotate(-90 100.0,276.25)" text-anchor="middle">uProf total BW GB/s</text><text x="1177.5" y="110.0" text-anchor="middle" font-size="18">local numa1</text><line class="grid" x1="890.0" y1="135.0" x2="1505.0" y2="135.0"/><text class="small" x="882.0" y="139.0" text-anchor="end">450</text><line class="grid" x1="890.0" y1="189.5" x2="1505.0" y2="189.5"/><text class="small" x="882.0" y="193.5" text-anchor="end">360</text><line class="grid" x1="890.0" y1="244.0" x2="1505.0" y2="244.0"/><text class="small" x="882.0" y="248.0" text-anchor="end">270</text><line class="grid" x1="890.0" y1="298.5" x2="1505.0" y2="298.5"/><text class="small" x="882.0" y="302.5" text-anchor="end">180</text><line class="grid" x1="890.0" y1="353.0" x2="1505.0" y2="353.0"/><text class="small" x="882.0" y="357.0" text-anchor="end">90</text><line class="grid" x1="890.0" y1="407.5" x2="1505.0" y2="407.5"/><text class="small" x="882.0" y="411.5" text-anchor="end">0</text><line class="axis" x1="890.0" y1="407.5" x2="1505.0" y2="407.5"/><line class="axis" x1="890.0" y1="135.0" x2="890.0" y2="407.5"/><line class="grid" x1="890.0" y1="407.5" x2="890.0" y2="412.5"/><text class="small" x="890.0" y="427.5" text-anchor="middle">1</text><line class="grid" x1="896.4736842105264" y1="407.5" x2="896.4736842105264" y2="412.5"/><text class="small" x="896.4736842105264" y="427.5" text-anchor="middle">2</text><line class="grid" x1="909.421052631579" y1="407.5" x2="909.421052631579" y2="412.5"/><text class="small" x="909.421052631579" y="427.5" text-anchor="middle">4</text><line class="grid" x1="935.3157894736842" y1="407.5" x2="935.3157894736842" y2="412.5"/><text class="small" x="935.3157894736842" y="427.5" text-anchor="middle">8</text><line class="grid" x1="961.2105263157895" y1="407.5" x2="961.2105263157895" y2="412.5"/><text class="small" x="961.2105263157895" y="427.5" text-anchor="middle">12</text><line class="grid" x1="987.1052631578948" y1="407.5" x2="987.1052631578948" y2="412.5"/><text class="small" x="987.1052631578948" y="427.5" text-anchor="middle">16</text><line class="grid" x1="1038.8947368421052" y1="407.5" x2="1038.8947368421052" y2="412.5"/><text class="small" x="1038.8947368421052" y="427.5" text-anchor="middle">24</text><line class="grid" x1="1090.6842105263158" y1="407.5" x2="1090.6842105263158" y2="412.5"/><text class="small" x="1090.6842105263158" y="427.5" text-anchor="middle">32</text><line class="grid" x1="1194.2631578947369" y1="407.5" x2="1194.2631578947369" y2="412.5"/><text class="small" x="1194.2631578947369" y="427.5" text-anchor="middle">48</text><line class="grid" x1="1297.842105263158" y1="407.5" x2="1297.842105263158" y2="412.5"/><text class="small" x="1297.842105263158" y="427.5" text-anchor="middle">64</text><line class="grid" x1="1505.0" y1="407.5" x2="1505.0" y2="412.5"/><text class="small" x="1505.0" y="427.5" text-anchor="middle">96</text><polyline fill="none" stroke="#1f77b4" stroke-width="2.5" points="890.0,380.6 896.5,358.1 909.4,321.0 935.3,262.2 961.2,236.0 987.1,232.0 1038.9,224.0 1090.7,223.4 1194.3,215.1 1297.8,204.6 1505.0,202.4"/><circle cx="890.0" cy="380.6" r="2.8" fill="#1f77b4"/><circle cx="896.5" cy="358.1" r="2.8" fill="#1f77b4"/><circle cx="909.4" cy="321.0" r="2.8" fill="#1f77b4"/><circle cx="935.3" cy="262.2" r="2.8" fill="#1f77b4"/><circle cx="961.2" cy="236.0" r="2.8" fill="#1f77b4"/><circle cx="987.1" cy="232.0" r="2.8" fill="#1f77b4"/><circle cx="1038.9" cy="224.0" r="2.8" fill="#1f77b4"/><circle cx="1090.7" cy="223.4" r="2.8" fill="#1f77b4"/><circle cx="1194.3" cy="215.1" r="2.8" fill="#1f77b4"/><circle cx="1297.8" cy="204.6" r="2.8" fill="#1f77b4"/><circle cx="1505.0" cy="202.4" r="2.8" fill="#1f77b4"/><polyline fill="none" stroke="#d62728" stroke-width="2.5" points="890.0,380.4 896.5,357.4 909.4,318.7 935.3,265.5 961.2,237.3 987.1,232.2 1038.9,224.8 1090.7,222.7 1194.3,218.0 1297.8,204.1 1505.0,202.1"/><circle cx="890.0" cy="380.4" r="2.8" fill="#d62728"/><circle cx="896.5" cy="357.4" r="2.8" fill="#d62728"/><circle cx="909.4" cy="318.7" r="2.8" fill="#d62728"/><circle cx="935.3" cy="265.5" r="2.8" fill="#d62728"/><circle cx="961.2" cy="237.3" r="2.8" fill="#d62728"/><circle cx="987.1" cy="232.2" r="2.8" fill="#d62728"/><circle cx="1038.9" cy="224.8" r="2.8" fill="#d62728"/><circle cx="1090.7" cy="222.7" r="2.8" fill="#d62728"/><circle cx="1194.3" cy="218.0" r="2.8" fill="#d62728"/><circle cx="1297.8" cy="204.1" r="2.8" fill="#d62728"/><circle cx="1505.0" cy="202.1" r="2.8" fill="#d62728"/><polyline fill="none" stroke="#2ca02c" stroke-width="2.5" points="890.0,380.6 896.5,355.5 909.4,318.4 935.3,266.0 961.2,236.6 987.1,232.7 1038.9,224.1 1090.7,222.5 1194.3,216.3 1297.8,202.8 1505.0,201.7"/><circle cx="890.0" cy="380.6" r="2.8" fill="#2ca02c"/><circle cx="896.5" cy="355.5" r="2.8" fill="#2ca02c"/><circle cx="909.4" cy="318.4" r="2.8" fill="#2ca02c"/><circle cx="935.3" cy="266.0" r="2.8" fill="#2ca02c"/><circle cx="961.2" cy="236.6" r="2.8" fill="#2ca02c"/><circle cx="987.1" cy="232.7" r="2.8" fill="#2ca02c"/><circle cx="1038.9" cy="224.1" r="2.8" fill="#2ca02c"/><circle cx="1090.7" cy="222.5" r="2.8" fill="#2ca02c"/><circle cx="1194.3" cy="216.3" r="2.8" fill="#2ca02c"/><circle cx="1297.8" cy="202.8" r="2.8" fill="#2ca02c"/><circle cx="1505.0" cy="201.7" r="2.8" fill="#2ca02c"/><text class="small" x="845.0" y="276.25" transform="rotate(-90 845.0,276.25)" text-anchor="middle">uProf total BW GB/s</text><text x="432.5" y="522.5" text-anchor="middle" font-size="18">remote 0-&gt;1</text><line class="grid" x1="145.0" y1="547.5" x2="760.0" y2="547.5"/><text class="small" x="137.0" y="551.5" text-anchor="end">225</text><line class="grid" x1="145.0" y1="602.0" x2="760.0" y2="602.0"/><text class="small" x="137.0" y="606.0" text-anchor="end">180</text><line class="grid" x1="145.0" y1="656.5" x2="760.0" y2="656.5"/><text class="small" x="137.0" y="660.5" text-anchor="end">135</text><line class="grid" x1="145.0" y1="711.0" x2="760.0" y2="711.0"/><text class="small" x="137.0" y="715.0" text-anchor="end">90</text><line class="grid" x1="145.0" y1="765.5" x2="760.0" y2="765.5"/><text class="small" x="137.0" y="769.5" text-anchor="end">45</text><line class="grid" x1="145.0" y1="820.0" x2="760.0" y2="820.0"/><text class="small" x="137.0" y="824.0" text-anchor="end">0</text><line class="axis" x1="145.0" y1="820.0" x2="760.0" y2="820.0"/><line class="axis" x1="145.0" y1="547.5" x2="145.0" y2="820.0"/><line class="grid" x1="145.0" y1="820.0" x2="145.0" y2="825.0"/><text class="small" x="145.0" y="840.0" text-anchor="middle">1</text><line class="grid" x1="151.47368421052633" y1="820.0" x2="151.47368421052633" y2="825.0"/><text class="small" x="151.47368421052633" y="840.0" text-anchor="middle">2</text><line class="grid" x1="164.42105263157896" y1="820.0" x2="164.42105263157896" y2="825.0"/><text class="small" x="164.42105263157896" y="840.0" text-anchor="middle">4</text><line class="grid" x1="190.31578947368422" y1="820.0" x2="190.31578947368422" y2="825.0"/><text class="small" x="190.31578947368422" y="840.0" text-anchor="middle">8</text><line class="grid" x1="216.21052631578948" y1="820.0" x2="216.21052631578948" y2="825.0"/><text class="small" x="216.21052631578948" y="840.0" text-anchor="middle">12</text><line class="grid" x1="242.10526315789474" y1="820.0" x2="242.10526315789474" y2="825.0"/><text class="small" x="242.10526315789474" y="840.0" text-anchor="middle">16</text><line class="grid" x1="293.89473684210526" y1="820.0" x2="293.89473684210526" y2="825.0"/><text class="small" x="293.89473684210526" y="840.0" text-anchor="middle">24</text><line class="grid" x1="345.6842105263158" y1="820.0" x2="345.6842105263158" y2="825.0"/><text class="small" x="345.6842105263158" y="840.0" text-anchor="middle">32</text><line class="grid" x1="449.2631578947368" y1="820.0" x2="449.2631578947368" y2="825.0"/><text class="small" x="449.2631578947368" y="840.0" text-anchor="middle">48</text><line class="grid" x1="552.8421052631579" y1="820.0" x2="552.8421052631579" y2="825.0"/><text class="small" x="552.8421052631579" y="840.0" text-anchor="middle">64</text><line class="grid" x1="760.0" y1="820.0" x2="760.0" y2="825.0"/><text class="small" x="760.0" y="840.0" text-anchor="middle">96</text><polyline fill="none" stroke="#1f77b4" stroke-width="2.5" points="145.0,786.0 151.5,752.5 164.4,705.3 190.3,644.1 216.2,633.6 242.1,631.1 293.9,630.7 345.7,630.5 449.3,623.3 552.8,612.0 760.0,597.4"/><circle cx="145.0" cy="786.0" r="2.8" fill="#1f77b4"/><circle cx="151.5" cy="752.5" r="2.8" fill="#1f77b4"/><circle cx="164.4" cy="705.3" r="2.8" fill="#1f77b4"/><circle cx="190.3" cy="644.1" r="2.8" fill="#1f77b4"/><circle cx="216.2" cy="633.6" r="2.8" fill="#1f77b4"/><circle cx="242.1" cy="631.1" r="2.8" fill="#1f77b4"/><circle cx="293.9" cy="630.7" r="2.8" fill="#1f77b4"/><circle cx="345.7" cy="630.5" r="2.8" fill="#1f77b4"/><circle cx="449.3" cy="623.3" r="2.8" fill="#1f77b4"/><circle cx="552.8" cy="612.0" r="2.8" fill="#1f77b4"/><circle cx="760.0" cy="597.4" r="2.8" fill="#1f77b4"/><polyline fill="none" stroke="#d62728" stroke-width="2.5" points="145.0,785.6 151.5,753.3 164.4,703.0 190.3,646.0 216.2,635.0 242.1,632.3 293.9,632.0 345.7,628.5 449.3,622.4 552.8,609.4 760.0,603.1"/><circle cx="145.0" cy="785.6" r="2.8" fill="#d62728"/><circle cx="151.5" cy="753.3" r="2.8" fill="#d62728"/><circle cx="164.4" cy="703.0" r="2.8" fill="#d62728"/><circle cx="190.3" cy="646.0" r="2.8" fill="#d62728"/><circle cx="216.2" cy="635.0" r="2.8" fill="#d62728"/><circle cx="242.1" cy="632.3" r="2.8" fill="#d62728"/><circle cx="293.9" cy="632.0" r="2.8" fill="#d62728"/><circle cx="345.7" cy="628.5" r="2.8" fill="#d62728"/><circle cx="449.3" cy="622.4" r="2.8" fill="#d62728"/><circle cx="552.8" cy="609.4" r="2.8" fill="#d62728"/><circle cx="760.0" cy="603.1" r="2.8" fill="#d62728"/><polyline fill="none" stroke="#2ca02c" stroke-width="2.5" points="145.0,785.8 151.5,752.5 164.4,702.5 190.3,644.9 216.2,636.0 242.1,631.7 293.9,630.7 345.7,631.2 449.3,624.2 552.8,612.9 760.0,598.3"/><circle cx="145.0" cy="785.8" r="2.8" fill="#2ca02c"/><circle cx="151.5" cy="752.5" r="2.8" fill="#2ca02c"/><circle cx="164.4" cy="702.5" r="2.8" fill="#2ca02c"/><circle cx="190.3" cy="644.9" r="2.8" fill="#2ca02c"/><circle cx="216.2" cy="636.0" r="2.8" fill="#2ca02c"/><circle cx="242.1" cy="631.7" r="2.8" fill="#2ca02c"/><circle cx="293.9" cy="630.7" r="2.8" fill="#2ca02c"/><circle cx="345.7" cy="631.2" r="2.8" fill="#2ca02c"/><circle cx="449.3" cy="624.2" r="2.8" fill="#2ca02c"/><circle cx="552.8" cy="612.9" r="2.8" fill="#2ca02c"/><circle cx="760.0" cy="598.3" r="2.8" fill="#2ca02c"/><text class="small" x="100.0" y="688.75" transform="rotate(-90 100.0,688.75)" text-anchor="middle">uProf total BW GB/s</text><text x="1177.5" y="522.5" text-anchor="middle" font-size="18">remote 1-&gt;0</text><line class="grid" x1="890.0" y1="547.5" x2="1505.0" y2="547.5"/><text class="small" x="882.0" y="551.5" text-anchor="end">225</text><line class="grid" x1="890.0" y1="602.0" x2="1505.0" y2="602.0"/><text class="small" x="882.0" y="606.0" text-anchor="end">180</text><line class="grid" x1="890.0" y1="656.5" x2="1505.0" y2="656.5"/><text class="small" x="882.0" y="660.5" text-anchor="end">135</text><line class="grid" x1="890.0" y1="711.0" x2="1505.0" y2="711.0"/><text class="small" x="882.0" y="715.0" text-anchor="end">90</text><line class="grid" x1="890.0" y1="765.5" x2="1505.0" y2="765.5"/><text class="small" x="882.0" y="769.5" text-anchor="end">45</text><line class="grid" x1="890.0" y1="820.0" x2="1505.0" y2="820.0"/><text class="small" x="882.0" y="824.0" text-anchor="end">0</text><line class="axis" x1="890.0" y1="820.0" x2="1505.0" y2="820.0"/><line class="axis" x1="890.0" y1="547.5" x2="890.0" y2="820.0"/><line class="grid" x1="890.0" y1="820.0" x2="890.0" y2="825.0"/><text class="small" x="890.0" y="840.0" text-anchor="middle">1</text><line class="grid" x1="896.4736842105264" y1="820.0" x2="896.4736842105264" y2="825.0"/><text class="small" x="896.4736842105264" y="840.0" text-anchor="middle">2</text><line class="grid" x1="909.421052631579" y1="820.0" x2="909.421052631579" y2="825.0"/><text class="small" x="909.421052631579" y="840.0" text-anchor="middle">4</text><line class="grid" x1="935.3157894736842" y1="820.0" x2="935.3157894736842" y2="825.0"/><text class="small" x="935.3157894736842" y="840.0" text-anchor="middle">8</text><line class="grid" x1="961.2105263157895" y1="820.0" x2="961.2105263157895" y2="825.0"/><text class="small" x="961.2105263157895" y="840.0" text-anchor="middle">12</text><line class="grid" x1="987.1052631578948" y1="820.0" x2="987.1052631578948" y2="825.0"/><text class="small" x="987.1052631578948" y="840.0" text-anchor="middle">16</text><line class="grid" x1="1038.8947368421052" y1="820.0" x2="1038.8947368421052" y2="825.0"/><text class="small" x="1038.8947368421052" y="840.0" text-anchor="middle">24</text><line class="grid" x1="1090.6842105263158" y1="820.0" x2="1090.6842105263158" y2="825.0"/><text class="small" x="1090.6842105263158" y="840.0" text-anchor="middle">32</text><line class="grid" x1="1194.2631578947369" y1="820.0" x2="1194.2631578947369" y2="825.0"/><text class="small" x="1194.2631578947369" y="840.0" text-anchor="middle">48</text><line class="grid" x1="1297.842105263158" y1="820.0" x2="1297.842105263158" y2="825.0"/><text class="small" x="1297.842105263158" y="840.0" text-anchor="middle">64</text><line class="grid" x1="1505.0" y1="820.0" x2="1505.0" y2="825.0"/><text class="small" x="1505.0" y="840.0" text-anchor="middle">96</text><polyline fill="none" stroke="#1f77b4" stroke-width="2.5" points="890.0,785.7 896.5,756.1 909.4,708.3 935.3,645.0 961.2,638.3 987.1,635.4 1038.9,634.1 1090.7,635.1 1194.3,623.8 1297.8,628.5 1505.0,599.9"/><circle cx="890.0" cy="785.7" r="2.8" fill="#1f77b4"/><circle cx="896.5" cy="756.1" r="2.8" fill="#1f77b4"/><circle cx="909.4" cy="708.3" r="2.8" fill="#1f77b4"/><circle cx="935.3" cy="645.0" r="2.8" fill="#1f77b4"/><circle cx="961.2" cy="638.3" r="2.8" fill="#1f77b4"/><circle cx="987.1" cy="635.4" r="2.8" fill="#1f77b4"/><circle cx="1038.9" cy="634.1" r="2.8" fill="#1f77b4"/><circle cx="1090.7" cy="635.1" r="2.8" fill="#1f77b4"/><circle cx="1194.3" cy="623.8" r="2.8" fill="#1f77b4"/><circle cx="1297.8" cy="628.5" r="2.8" fill="#1f77b4"/><circle cx="1505.0" cy="599.9" r="2.8" fill="#1f77b4"/><polyline fill="none" stroke="#d62728" stroke-width="2.5" points="890.0,785.1 896.5,756.0 909.4,704.2 935.3,643.5 961.2,639.3 987.1,635.6 1038.9,634.1 1090.7,634.4 1194.3,622.2 1297.8,619.6 1505.0,606.8"/><circle cx="890.0" cy="785.1" r="2.8" fill="#d62728"/><circle cx="896.5" cy="756.0" r="2.8" fill="#d62728"/><circle cx="909.4" cy="704.2" r="2.8" fill="#d62728"/><circle cx="935.3" cy="643.5" r="2.8" fill="#d62728"/><circle cx="961.2" cy="639.3" r="2.8" fill="#d62728"/><circle cx="987.1" cy="635.6" r="2.8" fill="#d62728"/><circle cx="1038.9" cy="634.1" r="2.8" fill="#d62728"/><circle cx="1090.7" cy="634.4" r="2.8" fill="#d62728"/><circle cx="1194.3" cy="622.2" r="2.8" fill="#d62728"/><circle cx="1297.8" cy="619.6" r="2.8" fill="#d62728"/><circle cx="1505.0" cy="606.8" r="2.8" fill="#d62728"/><polyline fill="none" stroke="#2ca02c" stroke-width="2.5" points="890.0,785.5 896.5,756.3 909.4,707.1 935.3,645.0 961.2,636.8 987.1,635.1 1038.9,633.5 1090.7,633.0 1194.3,624.0 1297.8,626.1 1505.0,631.8"/><circle cx="890.0" cy="785.5" r="2.8" fill="#2ca02c"/><circle cx="896.5" cy="756.3" r="2.8" fill="#2ca02c"/><circle cx="909.4" cy="707.1" r="2.8" fill="#2ca02c"/><circle cx="935.3" cy="645.0" r="2.8" fill="#2ca02c"/><circle cx="961.2" cy="636.8" r="2.8" fill="#2ca02c"/><circle cx="987.1" cy="635.1" r="2.8" fill="#2ca02c"/><circle cx="1038.9" cy="633.5" r="2.8" fill="#2ca02c"/><circle cx="1090.7" cy="633.0" r="2.8" fill="#2ca02c"/><circle cx="1194.3" cy="624.0" r="2.8" fill="#2ca02c"/><circle cx="1297.8" cy="626.1" r="2.8" fill="#2ca02c"/><circle cx="1505.0" cy="631.8" r="2.8" fill="#2ca02c"/><text class="small" x="845.0" y="688.75" transform="rotate(-90 845.0,688.75)" text-anchor="middle">uProf total BW GB/s</text><text x="432.5" y="935.0" text-anchor="middle" font-size="18">dual local</text><line class="grid" x1="145.0" y1="960.0" x2="760.0" y2="960.0"/><text class="small" x="137.0" y="964.0" text-anchor="end">700</text><line class="grid" x1="145.0" y1="1014.5" x2="760.0" y2="1014.5"/><text class="small" x="137.0" y="1018.5" text-anchor="end">560</text><line class="grid" x1="145.0" y1="1069.0" x2="760.0" y2="1069.0"/><text class="small" x="137.0" y="1073.0" text-anchor="end">420</text><line class="grid" x1="145.0" y1="1123.5" x2="760.0" y2="1123.5"/><text class="small" x="137.0" y="1127.5" text-anchor="end">280</text><line class="grid" x1="145.0" y1="1178.0" x2="760.0" y2="1178.0"/><text class="small" x="137.0" y="1182.0" text-anchor="end">140</text><line class="grid" x1="145.0" y1="1232.5" x2="760.0" y2="1232.5"/><text class="small" x="137.0" y="1236.5" text-anchor="end">0</text><line class="axis" x1="145.0" y1="1232.5" x2="760.0" y2="1232.5"/><line class="axis" x1="145.0" y1="960.0" x2="145.0" y2="1232.5"/><line class="grid" x1="145.0" y1="1232.5" x2="145.0" y2="1237.5"/><text class="small" x="145.0" y="1252.5" text-anchor="middle">1</text><line class="grid" x1="151.47368421052633" y1="1232.5" x2="151.47368421052633" y2="1237.5"/><text class="small" x="151.47368421052633" y="1252.5" text-anchor="middle">2</text><line class="grid" x1="164.42105263157896" y1="1232.5" x2="164.42105263157896" y2="1237.5"/><text class="small" x="164.42105263157896" y="1252.5" text-anchor="middle">4</text><line class="grid" x1="190.31578947368422" y1="1232.5" x2="190.31578947368422" y2="1237.5"/><text class="small" x="190.31578947368422" y="1252.5" text-anchor="middle">8</text><line class="grid" x1="216.21052631578948" y1="1232.5" x2="216.21052631578948" y2="1237.5"/><text class="small" x="216.21052631578948" y="1252.5" text-anchor="middle">12</text><line class="grid" x1="242.10526315789474" y1="1232.5" x2="242.10526315789474" y2="1237.5"/><text class="small" x="242.10526315789474" y="1252.5" text-anchor="middle">16</text><line class="grid" x1="293.89473684210526" y1="1232.5" x2="293.89473684210526" y2="1237.5"/><text class="small" x="293.89473684210526" y="1252.5" text-anchor="middle">24</text><line class="grid" x1="345.6842105263158" y1="1232.5" x2="345.6842105263158" y2="1237.5"/><text class="small" x="345.6842105263158" y="1252.5" text-anchor="middle">32</text><line class="grid" x1="449.2631578947368" y1="1232.5" x2="449.2631578947368" y2="1237.5"/><text class="small" x="449.2631578947368" y="1252.5" text-anchor="middle">48</text><line class="grid" x1="552.8421052631579" y1="1232.5" x2="552.8421052631579" y2="1237.5"/><text class="small" x="552.8421052631579" y="1252.5" text-anchor="middle">64</text><line class="grid" x1="760.0" y1="1232.5" x2="760.0" y2="1237.5"/><text class="small" x="760.0" y="1252.5" text-anchor="middle">96</text><polyline fill="none" stroke="#1f77b4" stroke-width="2.5" points="145.0,1199.7 151.5,1172.4 164.4,1128.2 190.3,1062.3 216.2,1029.4 242.1,1026.7 293.9,1020.0 345.7,1019.3 449.3,1016.4 552.8,1022.1 760.0,1030.5"/><circle cx="145.0" cy="1199.7" r="2.8" fill="#1f77b4"/><circle cx="151.5" cy="1172.4" r="2.8" fill="#1f77b4"/><circle cx="164.4" cy="1128.2" r="2.8" fill="#1f77b4"/><circle cx="190.3" cy="1062.3" r="2.8" fill="#1f77b4"/><circle cx="216.2" cy="1029.4" r="2.8" fill="#1f77b4"/><circle cx="242.1" cy="1026.7" r="2.8" fill="#1f77b4"/><circle cx="293.9" cy="1020.0" r="2.8" fill="#1f77b4"/><circle cx="345.7" cy="1019.3" r="2.8" fill="#1f77b4"/><circle cx="449.3" cy="1016.4" r="2.8" fill="#1f77b4"/><circle cx="552.8" cy="1022.1" r="2.8" fill="#1f77b4"/><circle cx="760.0" cy="1030.5" r="2.8" fill="#1f77b4"/><polyline fill="none" stroke="#d62728" stroke-width="2.5" points="145.0,1200.0 151.5,1171.3 164.4,1125.5 190.3,1061.7 216.2,1030.1 242.1,1024.9 293.9,1018.7 345.7,1019.5 449.3,1016.6 552.8,1022.6 760.0,1029.0"/><circle cx="145.0" cy="1200.0" r="2.8" fill="#d62728"/><circle cx="151.5" cy="1171.3" r="2.8" fill="#d62728"/><circle cx="164.4" cy="1125.5" r="2.8" fill="#d62728"/><circle cx="190.3" cy="1061.7" r="2.8" fill="#d62728"/><circle cx="216.2" cy="1030.1" r="2.8" fill="#d62728"/><circle cx="242.1" cy="1024.9" r="2.8" fill="#d62728"/><circle cx="293.9" cy="1018.7" r="2.8" fill="#d62728"/><circle cx="345.7" cy="1019.5" r="2.8" fill="#d62728"/><circle cx="449.3" cy="1016.6" r="2.8" fill="#d62728"/><circle cx="552.8" cy="1022.6" r="2.8" fill="#d62728"/><circle cx="760.0" cy="1029.0" r="2.8" fill="#d62728"/><polyline fill="none" stroke="#2ca02c" stroke-width="2.5" points="145.0,1200.0 151.5,1171.7 164.4,1128.5 190.3,1061.5 216.2,1029.7 242.1,1025.6 293.9,1019.2 345.7,1019.6 449.3,1016.5 552.8,1022.2 760.0,1032.0"/><circle cx="145.0" cy="1200.0" r="2.8" fill="#2ca02c"/><circle cx="151.5" cy="1171.7" r="2.8" fill="#2ca02c"/><circle cx="164.4" cy="1128.5" r="2.8" fill="#2ca02c"/><circle cx="190.3" cy="1061.5" r="2.8" fill="#2ca02c"/><circle cx="216.2" cy="1029.7" r="2.8" fill="#2ca02c"/><circle cx="242.1" cy="1025.6" r="2.8" fill="#2ca02c"/><circle cx="293.9" cy="1019.2" r="2.8" fill="#2ca02c"/><circle cx="345.7" cy="1019.6" r="2.8" fill="#2ca02c"/><circle cx="449.3" cy="1016.5" r="2.8" fill="#2ca02c"/><circle cx="552.8" cy="1022.2" r="2.8" fill="#2ca02c"/><circle cx="760.0" cy="1032.0" r="2.8" fill="#2ca02c"/><text class="small" x="100.0" y="1101.25" transform="rotate(-90 100.0,1101.25)" text-anchor="middle">uProf total BW GB/s</text><text x="1177.5" y="935.0" text-anchor="middle" font-size="18">dual cross</text><line class="grid" x1="890.0" y1="960.0" x2="1505.0" y2="960.0"/><text class="small" x="882.0" y="964.0" text-anchor="end">250</text><line class="grid" x1="890.0" y1="1014.5" x2="1505.0" y2="1014.5"/><text class="small" x="882.0" y="1018.5" text-anchor="end">200</text><line class="grid" x1="890.0" y1="1069.0" x2="1505.0" y2="1069.0"/><text class="small" x="882.0" y="1073.0" text-anchor="end">150</text><line class="grid" x1="890.0" y1="1123.5" x2="1505.0" y2="1123.5"/><text class="small" x="882.0" y="1127.5" text-anchor="end">100</text><line class="grid" x1="890.0" y1="1178.0" x2="1505.0" y2="1178.0"/><text class="small" x="882.0" y="1182.0" text-anchor="end">50</text><line class="grid" x1="890.0" y1="1232.5" x2="1505.0" y2="1232.5"/><text class="small" x="882.0" y="1236.5" text-anchor="end">0</text><line class="axis" x1="890.0" y1="1232.5" x2="1505.0" y2="1232.5"/><line class="axis" x1="890.0" y1="960.0" x2="890.0" y2="1232.5"/><line class="grid" x1="890.0" y1="1232.5" x2="890.0" y2="1237.5"/><text class="small" x="890.0" y="1252.5" text-anchor="middle">1</text><line class="grid" x1="896.4736842105264" y1="1232.5" x2="896.4736842105264" y2="1237.5"/><text class="small" x="896.4736842105264" y="1252.5" text-anchor="middle">2</text><line class="grid" x1="909.421052631579" y1="1232.5" x2="909.421052631579" y2="1237.5"/><text class="small" x="909.421052631579" y="1252.5" text-anchor="middle">4</text><line class="grid" x1="935.3157894736842" y1="1232.5" x2="935.3157894736842" y2="1237.5"/><text class="small" x="935.3157894736842" y="1252.5" text-anchor="middle">8</text><line class="grid" x1="961.2105263157895" y1="1232.5" x2="961.2105263157895" y2="1237.5"/><text class="small" x="961.2105263157895" y="1252.5" text-anchor="middle">12</text><line class="grid" x1="987.1052631578948" y1="1232.5" x2="987.1052631578948" y2="1237.5"/><text class="small" x="987.1052631578948" y="1252.5" text-anchor="middle">16</text><line class="grid" x1="1038.8947368421052" y1="1232.5" x2="1038.8947368421052" y2="1237.5"/><text class="small" x="1038.8947368421052" y="1252.5" text-anchor="middle">24</text><line class="grid" x1="1090.6842105263158" y1="1232.5" x2="1090.6842105263158" y2="1237.5"/><text class="small" x="1090.6842105263158" y="1252.5" text-anchor="middle">32</text><line class="grid" x1="1194.2631578947369" y1="1232.5" x2="1194.2631578947369" y2="1237.5"/><text class="small" x="1194.2631578947369" y="1252.5" text-anchor="middle">48</text><line class="grid" x1="1297.842105263158" y1="1232.5" x2="1297.842105263158" y2="1237.5"/><text class="small" x="1297.842105263158" y="1252.5" text-anchor="middle">64</text><line class="grid" x1="1505.0" y1="1232.5" x2="1505.0" y2="1237.5"/><text class="small" x="1505.0" y="1252.5" text-anchor="middle">96</text><polyline fill="none" stroke="#1f77b4" stroke-width="2.5" points="890.0,1173.3 896.5,1122.3 909.4,1050.7 935.3,1014.1 961.2,1011.4 987.1,1008.6 1038.9,1015.0 1090.7,1011.1 1194.3,1008.3 1297.8,1013.8 1505.0,1016.7"/><circle cx="890.0" cy="1173.3" r="2.8" fill="#1f77b4"/><circle cx="896.5" cy="1122.3" r="2.8" fill="#1f77b4"/><circle cx="909.4" cy="1050.7" r="2.8" fill="#1f77b4"/><circle cx="935.3" cy="1014.1" r="2.8" fill="#1f77b4"/><circle cx="961.2" cy="1011.4" r="2.8" fill="#1f77b4"/><circle cx="987.1" cy="1008.6" r="2.8" fill="#1f77b4"/><circle cx="1038.9" cy="1015.0" r="2.8" fill="#1f77b4"/><circle cx="1090.7" cy="1011.1" r="2.8" fill="#1f77b4"/><circle cx="1194.3" cy="1008.3" r="2.8" fill="#1f77b4"/><circle cx="1297.8" cy="1013.8" r="2.8" fill="#1f77b4"/><circle cx="1505.0" cy="1016.7" r="2.8" fill="#1f77b4"/><polyline fill="none" stroke="#d62728" stroke-width="2.5" points="890.0,1174.0 896.5,1123.2 909.4,1051.7 935.3,1014.2 961.2,1011.1 987.1,1008.7 1038.9,1012.4 1090.7,1013.3 1194.3,1007.2 1297.8,1016.5 1505.0,1013.0"/><circle cx="890.0" cy="1174.0" r="2.8" fill="#d62728"/><circle cx="896.5" cy="1123.2" r="2.8" fill="#d62728"/><circle cx="909.4" cy="1051.7" r="2.8" fill="#d62728"/><circle cx="935.3" cy="1014.2" r="2.8" fill="#d62728"/><circle cx="961.2" cy="1011.1" r="2.8" fill="#d62728"/><circle cx="987.1" cy="1008.7" r="2.8" fill="#d62728"/><circle cx="1038.9" cy="1012.4" r="2.8" fill="#d62728"/><circle cx="1090.7" cy="1013.3" r="2.8" fill="#d62728"/><circle cx="1194.3" cy="1007.2" r="2.8" fill="#d62728"/><circle cx="1297.8" cy="1016.5" r="2.8" fill="#d62728"/><circle cx="1505.0" cy="1013.0" r="2.8" fill="#d62728"/><polyline fill="none" stroke="#2ca02c" stroke-width="2.5" points="890.0,1173.2 896.5,1117.5 909.4,1053.5 935.3,1013.8 961.2,1010.8 987.1,1007.8 1038.9,1011.7 1090.7,1010.5 1194.3,1006.4 1297.8,1015.8 1505.0,1007.9"/><circle cx="890.0" cy="1173.2" r="2.8" fill="#2ca02c"/><circle cx="896.5" cy="1117.5" r="2.8" fill="#2ca02c"/><circle cx="909.4" cy="1053.5" r="2.8" fill="#2ca02c"/><circle cx="935.3" cy="1013.8" r="2.8" fill="#2ca02c"/><circle cx="961.2" cy="1010.8" r="2.8" fill="#2ca02c"/><circle cx="987.1" cy="1007.8" r="2.8" fill="#2ca02c"/><circle cx="1038.9" cy="1011.7" r="2.8" fill="#2ca02c"/><circle cx="1090.7" cy="1010.5" r="2.8" fill="#2ca02c"/><circle cx="1194.3" cy="1006.4" r="2.8" fill="#2ca02c"/><circle cx="1297.8" cy="1015.8" r="2.8" fill="#2ca02c"/><circle cx="1505.0" cy="1007.9" r="2.8" fill="#2ca02c"/><text class="small" x="845.0" y="1101.25" transform="rotate(-90 845.0,1101.25)" text-anchor="middle">uProf total BW GB/s</text><text x="432.5" y="1347.5" text-anchor="middle" font-size="18">mixed target0</text><line class="grid" x1="145.0" y1="1372.5" x2="760.0" y2="1372.5"/><text class="small" x="137.0" y="1376.5" text-anchor="end">400</text><line class="grid" x1="145.0" y1="1427.0" x2="760.0" y2="1427.0"/><text class="small" x="137.0" y="1431.0" text-anchor="end">320</text><line class="grid" x1="145.0" y1="1481.5" x2="760.0" y2="1481.5"/><text class="small" x="137.0" y="1485.5" text-anchor="end">240</text><line class="grid" x1="145.0" y1="1536.0" x2="760.0" y2="1536.0"/><text class="small" x="137.0" y="1540.0" text-anchor="end">160</text><line class="grid" x1="145.0" y1="1590.5" x2="760.0" y2="1590.5"/><text class="small" x="137.0" y="1594.5" text-anchor="end">80</text><line class="grid" x1="145.0" y1="1645.0" x2="760.0" y2="1645.0"/><text class="small" x="137.0" y="1649.0" text-anchor="end">0</text><line class="axis" x1="145.0" y1="1645.0" x2="760.0" y2="1645.0"/><line class="axis" x1="145.0" y1="1372.5" x2="145.0" y2="1645.0"/><line class="grid" x1="145.0" y1="1645.0" x2="145.0" y2="1650.0"/><text class="small" x="145.0" y="1665.0" text-anchor="middle">1</text><line class="grid" x1="151.47368421052633" y1="1645.0" x2="151.47368421052633" y2="1650.0"/><text class="small" x="151.47368421052633" y="1665.0" text-anchor="middle">2</text><line class="grid" x1="164.42105263157896" y1="1645.0" x2="164.42105263157896" y2="1650.0"/><text class="small" x="164.42105263157896" y="1665.0" text-anchor="middle">4</text><line class="grid" x1="190.31578947368422" y1="1645.0" x2="190.31578947368422" y2="1650.0"/><text class="small" x="190.31578947368422" y="1665.0" text-anchor="middle">8</text><line class="grid" x1="216.21052631578948" y1="1645.0" x2="216.21052631578948" y2="1650.0"/><text class="small" x="216.21052631578948" y="1665.0" text-anchor="middle">12</text><line class="grid" x1="242.10526315789474" y1="1645.0" x2="242.10526315789474" y2="1650.0"/><text class="small" x="242.10526315789474" y="1665.0" text-anchor="middle">16</text><line class="grid" x1="293.89473684210526" y1="1645.0" x2="293.89473684210526" y2="1650.0"/><text class="small" x="293.89473684210526" y="1665.0" text-anchor="middle">24</text><line class="grid" x1="345.6842105263158" y1="1645.0" x2="345.6842105263158" y2="1650.0"/><text class="small" x="345.6842105263158" y="1665.0" text-anchor="middle">32</text><line class="grid" x1="449.2631578947368" y1="1645.0" x2="449.2631578947368" y2="1650.0"/><text class="small" x="449.2631578947368" y="1665.0" text-anchor="middle">48</text><line class="grid" x1="552.8421052631579" y1="1645.0" x2="552.8421052631579" y2="1650.0"/><text class="small" x="552.8421052631579" y="1665.0" text-anchor="middle">64</text><line class="grid" x1="760.0" y1="1645.0" x2="760.0" y2="1650.0"/><text class="small" x="760.0" y="1665.0" text-anchor="middle">96</text><polyline fill="none" stroke="#1f77b4" stroke-width="2.5" points="145.0,1600.2 151.5,1562.3 164.4,1508.9 190.3,1456.2 216.2,1451.6 242.1,1448.6 293.9,1447.3 345.7,1450.2 449.3,1439.5 552.8,1450.3 760.0,1439.9"/><circle cx="145.0" cy="1600.2" r="2.8" fill="#1f77b4"/><circle cx="151.5" cy="1562.3" r="2.8" fill="#1f77b4"/><circle cx="164.4" cy="1508.9" r="2.8" fill="#1f77b4"/><circle cx="190.3" cy="1456.2" r="2.8" fill="#1f77b4"/><circle cx="216.2" cy="1451.6" r="2.8" fill="#1f77b4"/><circle cx="242.1" cy="1448.6" r="2.8" fill="#1f77b4"/><circle cx="293.9" cy="1447.3" r="2.8" fill="#1f77b4"/><circle cx="345.7" cy="1450.2" r="2.8" fill="#1f77b4"/><circle cx="449.3" cy="1439.5" r="2.8" fill="#1f77b4"/><circle cx="552.8" cy="1450.3" r="2.8" fill="#1f77b4"/><circle cx="760.0" cy="1439.9" r="2.8" fill="#1f77b4"/><polyline fill="none" stroke="#d62728" stroke-width="2.5" points="145.0,1600.0 151.5,1562.3 164.4,1506.0 190.3,1455.7 216.2,1452.9 242.1,1451.1 293.9,1446.9 345.7,1450.7 449.3,1440.5 552.8,1451.5 760.0,1448.2"/><circle cx="145.0" cy="1600.0" r="2.8" fill="#d62728"/><circle cx="151.5" cy="1562.3" r="2.8" fill="#d62728"/><circle cx="164.4" cy="1506.0" r="2.8" fill="#d62728"/><circle cx="190.3" cy="1455.7" r="2.8" fill="#d62728"/><circle cx="216.2" cy="1452.9" r="2.8" fill="#d62728"/><circle cx="242.1" cy="1451.1" r="2.8" fill="#d62728"/><circle cx="293.9" cy="1446.9" r="2.8" fill="#d62728"/><circle cx="345.7" cy="1450.7" r="2.8" fill="#d62728"/><circle cx="449.3" cy="1440.5" r="2.8" fill="#d62728"/><circle cx="552.8" cy="1451.5" r="2.8" fill="#d62728"/><circle cx="760.0" cy="1448.2" r="2.8" fill="#d62728"/><polyline fill="none" stroke="#2ca02c" stroke-width="2.5" points="145.0,1600.2 151.5,1563.1 164.4,1507.9 190.3,1455.8 216.2,1451.7 242.1,1448.6 293.9,1447.2 345.7,1451.9 449.3,1444.3 552.8,1451.6 760.0,1442.1"/><circle cx="145.0" cy="1600.2" r="2.8" fill="#2ca02c"/><circle cx="151.5" cy="1563.1" r="2.8" fill="#2ca02c"/><circle cx="164.4" cy="1507.9" r="2.8" fill="#2ca02c"/><circle cx="190.3" cy="1455.8" r="2.8" fill="#2ca02c"/><circle cx="216.2" cy="1451.7" r="2.8" fill="#2ca02c"/><circle cx="242.1" cy="1448.6" r="2.8" fill="#2ca02c"/><circle cx="293.9" cy="1447.2" r="2.8" fill="#2ca02c"/><circle cx="345.7" cy="1451.9" r="2.8" fill="#2ca02c"/><circle cx="449.3" cy="1444.3" r="2.8" fill="#2ca02c"/><circle cx="552.8" cy="1451.6" r="2.8" fill="#2ca02c"/><circle cx="760.0" cy="1442.1" r="2.8" fill="#2ca02c"/><text class="small" x="100.0" y="1513.75" transform="rotate(-90 100.0,1513.75)" text-anchor="middle">uProf total BW GB/s</text><text x="1177.5" y="1347.5" text-anchor="middle" font-size="18">mixed target1</text><line class="grid" x1="890.0" y1="1372.5" x2="1505.0" y2="1372.5"/><text class="small" x="882.0" y="1376.5" text-anchor="end">400</text><line class="grid" x1="890.0" y1="1427.0" x2="1505.0" y2="1427.0"/><text class="small" x="882.0" y="1431.0" text-anchor="end">320</text><line class="grid" x1="890.0" y1="1481.5" x2="1505.0" y2="1481.5"/><text class="small" x="882.0" y="1485.5" text-anchor="end">240</text><line class="grid" x1="890.0" y1="1536.0" x2="1505.0" y2="1536.0"/><text class="small" x="882.0" y="1540.0" text-anchor="end">160</text><line class="grid" x1="890.0" y1="1590.5" x2="1505.0" y2="1590.5"/><text class="small" x="882.0" y="1594.5" text-anchor="end">80</text><line class="grid" x1="890.0" y1="1645.0" x2="1505.0" y2="1645.0"/><text class="small" x="882.0" y="1649.0" text-anchor="end">0</text><line class="axis" x1="890.0" y1="1645.0" x2="1505.0" y2="1645.0"/><line class="axis" x1="890.0" y1="1372.5" x2="890.0" y2="1645.0"/><line class="grid" x1="890.0" y1="1645.0" x2="890.0" y2="1650.0"/><text class="small" x="890.0" y="1665.0" text-anchor="middle">1</text><line class="grid" x1="896.4736842105264" y1="1645.0" x2="896.4736842105264" y2="1650.0"/><text class="small" x="896.4736842105264" y="1665.0" text-anchor="middle">2</text><line class="grid" x1="909.421052631579" y1="1645.0" x2="909.421052631579" y2="1650.0"/><text class="small" x="909.421052631579" y="1665.0" text-anchor="middle">4</text><line class="grid" x1="935.3157894736842" y1="1645.0" x2="935.3157894736842" y2="1650.0"/><text class="small" x="935.3157894736842" y="1665.0" text-anchor="middle">8</text><line class="grid" x1="961.2105263157895" y1="1645.0" x2="961.2105263157895" y2="1650.0"/><text class="small" x="961.2105263157895" y="1665.0" text-anchor="middle">12</text><line class="grid" x1="987.1052631578948" y1="1645.0" x2="987.1052631578948" y2="1650.0"/><text class="small" x="987.1052631578948" y="1665.0" text-anchor="middle">16</text><line class="grid" x1="1038.8947368421052" y1="1645.0" x2="1038.8947368421052" y2="1650.0"/><text class="small" x="1038.8947368421052" y="1665.0" text-anchor="middle">24</text><line class="grid" x1="1090.6842105263158" y1="1645.0" x2="1090.6842105263158" y2="1650.0"/><text class="small" x="1090.6842105263158" y="1665.0" text-anchor="middle">32</text><line class="grid" x1="1194.2631578947369" y1="1645.0" x2="1194.2631578947369" y2="1650.0"/><text class="small" x="1194.2631578947369" y="1665.0" text-anchor="middle">48</text><line class="grid" x1="1297.842105263158" y1="1645.0" x2="1297.842105263158" y2="1650.0"/><text class="small" x="1297.842105263158" y="1665.0" text-anchor="middle">64</text><line class="grid" x1="1505.0" y1="1645.0" x2="1505.0" y2="1650.0"/><text class="small" x="1505.0" y="1665.0" text-anchor="middle">96</text><polyline fill="none" stroke="#1f77b4" stroke-width="2.5" points="890.0,1598.1 896.5,1558.2 909.4,1503.3 935.3,1447.6 961.2,1436.6 987.1,1432.6 1038.9,1432.7 1090.7,1429.9 1194.3,1425.6 1297.8,1438.4 1505.0,1424.8"/><circle cx="890.0" cy="1598.1" r="2.8" fill="#1f77b4"/><circle cx="896.5" cy="1558.2" r="2.8" fill="#1f77b4"/><circle cx="909.4" cy="1503.3" r="2.8" fill="#1f77b4"/><circle cx="935.3" cy="1447.6" r="2.8" fill="#1f77b4"/><circle cx="961.2" cy="1436.6" r="2.8" fill="#1f77b4"/><circle cx="987.1" cy="1432.6" r="2.8" fill="#1f77b4"/><circle cx="1038.9" cy="1432.7" r="2.8" fill="#1f77b4"/><circle cx="1090.7" cy="1429.9" r="2.8" fill="#1f77b4"/><circle cx="1194.3" cy="1425.6" r="2.8" fill="#1f77b4"/><circle cx="1297.8" cy="1438.4" r="2.8" fill="#1f77b4"/><circle cx="1505.0" cy="1424.8" r="2.8" fill="#1f77b4"/><polyline fill="none" stroke="#d62728" stroke-width="2.5" points="890.0,1597.8 896.5,1560.4 909.4,1503.9 935.3,1443.9 961.2,1434.6 987.1,1432.3 1038.9,1432.4 1090.7,1429.6 1194.3,1424.4 1297.8,1438.4 1505.0,1425.9"/><circle cx="890.0" cy="1597.8" r="2.8" fill="#d62728"/><circle cx="896.5" cy="1560.4" r="2.8" fill="#d62728"/><circle cx="909.4" cy="1503.9" r="2.8" fill="#d62728"/><circle cx="935.3" cy="1443.9" r="2.8" fill="#d62728"/><circle cx="961.2" cy="1434.6" r="2.8" fill="#d62728"/><circle cx="987.1" cy="1432.3" r="2.8" fill="#d62728"/><circle cx="1038.9" cy="1432.4" r="2.8" fill="#d62728"/><circle cx="1090.7" cy="1429.6" r="2.8" fill="#d62728"/><circle cx="1194.3" cy="1424.4" r="2.8" fill="#d62728"/><circle cx="1297.8" cy="1438.4" r="2.8" fill="#d62728"/><circle cx="1505.0" cy="1425.9" r="2.8" fill="#d62728"/><polyline fill="none" stroke="#2ca02c" stroke-width="2.5" points="890.0,1598.2 896.5,1558.1 909.4,1505.6 935.3,1442.3 961.2,1434.2 987.1,1433.5 1038.9,1433.3 1090.7,1430.0 1194.3,1425.5 1297.8,1440.6 1505.0,1427.6"/><circle cx="890.0" cy="1598.2" r="2.8" fill="#2ca02c"/><circle cx="896.5" cy="1558.1" r="2.8" fill="#2ca02c"/><circle cx="909.4" cy="1505.6" r="2.8" fill="#2ca02c"/><circle cx="935.3" cy="1442.3" r="2.8" fill="#2ca02c"/><circle cx="961.2" cy="1434.2" r="2.8" fill="#2ca02c"/><circle cx="987.1" cy="1433.5" r="2.8" fill="#2ca02c"/><circle cx="1038.9" cy="1433.3" r="2.8" fill="#2ca02c"/><circle cx="1090.7" cy="1430.0" r="2.8" fill="#2ca02c"/><circle cx="1194.3" cy="1425.5" r="2.8" fill="#2ca02c"/><circle cx="1297.8" cy="1440.6" r="2.8" fill="#2ca02c"/><circle cx="1505.0" cy="1427.6" r="2.8" fill="#2ca02c"/><text class="small" x="845.0" y="1513.75" transform="rotate(-90 845.0,1513.75)" text-anchor="middle">uProf total BW GB/s</text></svg>