<svg xmlns="http://www.w3.org/2000/svg" width="1100" height="650" viewBox="0 0 1100 650"><style>text{font-family:monospace;fill:#111}.small{font-size:14px}.axis{stroke:#444;stroke-width:1}.grid{stroke:#ddd;stroke-width:1}</style><rect x="0" y="0" width="1100" height="650" fill="white"/><text x="550.0" y="36" text-anchor="middle" font-size="24">mixed target1 components (1MiB)</text><line class="grid" x1="90" y1="80.0" x2="1010" y2="80.0"/><text class="small" x="82" y="84.0" text-anchor="end">200</text><line class="grid" x1="90" y1="172.0" x2="1010" y2="172.0"/><text class="small" x="82" y="176.0" text-anchor="end">160</text><line class="grid" x1="90" y1="264.0" x2="1010" y2="264.0"/><text class="small" x="82" y="268.0" text-anchor="end">120</text><line class="grid" x1="90" y1="356.0" x2="1010" y2="356.0"/><text class="small" x="82" y="360.0" text-anchor="end">80</text><line class="grid" x1="90" y1="448.0" x2="1010" y2="448.0"/><text class="small" x="82" y="452.0" text-anchor="end">40</text><line class="grid" x1="90" y1="540.0" x2="1010" y2="540.0"/><text class="small" x="82" y="544.0" text-anchor="end">0</text><line class="axis" x1="90" y1="540" x2="1010" y2="540"/><line class="axis" x1="90" y1="80" x2="90" y2="540"/><text class="small" x="90.0" y="560" text-anchor="middle">1</text><text class="small" x="99.6842105263158" y="560" text-anchor="middle">2</text><text class="small" x="119.05263157894737" y="560" text-anchor="middle">4</text><text class="small" x="157.78947368421052" y="560" text-anchor="middle">8</text><text class="small" x="196.5263157894737" y="560" text-anchor="middle">12</text><text class="small" x="235.26315789473685" y="560" text-anchor="middle">16</text><text class="small" x="312.7368421052631" y="560" text-anchor="middle">24</text><text class="small" x="390.2105263157895" y="560" text-anchor="middle">32</text><text class="small" x="545.1578947368421" y="560" text-anchor="middle">48</text><text class="small" x="700.1052631578947" y="560" text-anchor="middle">64</text><text class="small" x="1010.0" y="560" text-anchor="middle">96</text><line x1="90" y1="52" x2="118" y2="52" stroke="#1f77b4" stroke-width="3"/><text x="124" y="57" font-size="14">1302 local</text><line x1="210" y1="52" x2="238" y2="52" stroke="#1f77b4" stroke-width="2" stroke-dasharray="6,4"/><text x="244" y="57" font-size="14">1302 remote</text><line x1="390" y1="52" x2="418" y2="52" stroke="#d62728" stroke-width="3"/><text x="424" y="57" font-size="14">1306 local</text><line x1="510" y1="52" x2="538" y2="52" stroke="#d62728" stroke-width="2" stroke-dasharray="6,4"/><text x="544" y="57" font-size="14">1306 remote</text><line x1="690" y1="52" x2="718" y2="52" stroke="#2ca02c" stroke-width="3"/><text x="724" y="57" font-size="14">1308 local</text><line x1="810" y1="52" x2="838" y2="52" stroke="#2ca02c" stroke-width="2" stroke-dasharray="6,4"/><text x="844" y="57" font-size="14">1308 remote</text><polyline fill="none" stroke="#1f77b4" stroke-width="2.5" points="90.0,452.7 99.7,378.4 119.1,297.6 157.8,229.8 196.5,179.3 235.3,173.7 312.7,178.1 390.2,181.7 545.2,180.7 700.1,177.8 1010.0,174.8"/><circle cx="90.0" cy="452.7" r="2.5" fill="#1f77b4"/><circle cx="99.7" cy="378.4" r="2.5" fill="#1f77b4"/><circle cx="119.1" cy="297.6" r="2.5" fill="#1f77b4"/><circle cx="157.8" cy="229.8" r="2.5" fill="#1f77b4"/><circle cx="196.5" cy="179.3" r="2.5" fill="#1f77b4"/><circle cx="235.3" cy="173.7" r="2.5" fill="#1f77b4"/><circle cx="312.7" cy="178.1" r="2.5" fill="#1f77b4"/><circle cx="390.2" cy="181.7" r="2.5" fill="#1f77b4"/><circle cx="545.2" cy="180.7" r="2.5" fill="#1f77b4"/><circle cx="700.1" cy="177.8" r="2.5" fill="#1f77b4"/><circle cx="1010.0" cy="174.8" r="2.5" fill="#1f77b4"/><polyline fill="none" stroke="#1f77b4" stroke-width="2.5" stroke-dasharray="6,4" points="90.0,490.6 99.7,444.8 119.1,374.0 157.8,318.0 196.5,362.5 235.3,378.9 312.7,401.2 390.2,404.0 545.2,406.3 700.1,407.3 1010.0,405.9"/><circle cx="90.0" cy="490.6" r="2.5" fill="#1f77b4"/><circle cx="99.7" cy="444.8" r="2.5" fill="#1f77b4"/><circle cx="119.1" cy="374.0" r="2.5" fill="#1f77b4"/><circle cx="157.8" cy="318.0" r="2.5" fill="#1f77b4"/><circle cx="196.5" cy="362.5" r="2.5" fill="#1f77b4"/><circle cx="235.3" cy="378.9" r="2.5" fill="#1f77b4"/><circle cx="312.7" cy="401.2" r="2.5" fill="#1f77b4"/><circle cx="390.2" cy="404.0" r="2.5" fill="#1f77b4"/><circle cx="545.2" cy="406.3" r="2.5" fill="#1f77b4"/><circle cx="700.1" cy="407.3" r="2.5" fill="#1f77b4"/><circle cx="1010.0" cy="405.9" r="2.5" fill="#1f77b4"/><polyline fill="none" stroke="#d62728" stroke-width="2.5" points="90.0,452.8 99.7,377.3 119.1,301.6 157.8,238.9 196.5,175.6 235.3,175.8 312.7,177.5 390.2,181.7 545.2,180.4 700.1,178.1 1010.0,175.6"/><circle cx="90.0" cy="452.8" r="2.5" fill="#d62728"/><circle cx="99.7" cy="377.3" r="2.5" fill="#d62728"/><circle cx="119.1" cy="301.6" r="2.5" fill="#d62728"/><circle cx="157.8" cy="238.9" r="2.5" fill="#d62728"/><circle cx="196.5" cy="175.6" r="2.5" fill="#d62728"/><circle cx="235.3" cy="175.8" r="2.5" fill="#d62728"/><circle cx="312.7" cy="177.5" r="2.5" fill="#d62728"/><circle cx="390.2" cy="181.7" r="2.5" fill="#d62728"/><circle cx="545.2" cy="180.4" r="2.5" fill="#d62728"/><circle cx="700.1" cy="178.1" r="2.5" fill="#d62728"/><circle cx="1010.0" cy="175.6" r="2.5" fill="#d62728"/><polyline fill="none" stroke="#d62728" stroke-width="2.5" stroke-dasharray="6,4" points="90.0,490.8 99.7,444.3 119.1,381.5 157.8,320.0 196.5,360.5 235.3,377.7 312.7,400.2 390.2,404.6 545.2,406.5 700.1,407.6 1010.0,405.1"/><circle cx="90.0" cy="490.8" r="2.5" fill="#d62728"/><circle cx="99.7" cy="444.3" r="2.5" fill="#d62728"/><circle cx="119.1" cy="381.5" r="2.5" fill="#d62728"/><circle cx="157.8" cy="320.0" r="2.5" fill="#d62728"/><circle cx="196.5" cy="360.5" r="2.5" fill="#d62728"/><circle cx="235.3" cy="377.7" r="2.5" fill="#d62728"/><circle cx="312.7" cy="400.2" r="2.5" fill="#d62728"/><circle cx="390.2" cy="404.6" r="2.5" fill="#d62728"/><circle cx="545.2" cy="406.5" r="2.5" fill="#d62728"/><circle cx="700.1" cy="407.6" r="2.5" fill="#d62728"/><circle cx="1010.0" cy="405.1" r="2.5" fill="#d62728"/><polyline fill="none" stroke="#2ca02c" stroke-width="2.5" points="90.0,452.5 99.7,377.8 119.1,295.4 157.8,238.9 196.5,176.9 235.3,175.6 312.7,178.6 390.2,181.4 545.2,180.3 700.1,177.4 1010.0,175.1"/><circle cx="90.0" cy="452.5" r="2.5" fill="#2ca02c"/><circle cx="99.7" cy="377.8" r="2.5" fill="#2ca02c"/><circle cx="119.1" cy="295.4" r="2.5" fill="#2ca02c"/><circle cx="157.8" cy="238.9" r="2.5" fill="#2ca02c"/><circle cx="196.5" cy="176.9" r="2.5" fill="#2ca02c"/><circle cx="235.3" cy="175.6" r="2.5" fill="#2ca02c"/><circle cx="312.7" cy="178.6" r="2.5" fill="#2ca02c"/><circle cx="390.2" cy="181.4" r="2.5" fill="#2ca02c"/><circle cx="545.2" cy="180.3" r="2.5" fill="#2ca02c"/><circle cx="700.1" cy="177.4" r="2.5" fill="#2ca02c"/><circle cx="1010.0" cy="175.1" r="2.5" fill="#2ca02c"/><polyline fill="none" stroke="#2ca02c" stroke-width="2.5" stroke-dasharray="6,4" points="90.0,490.8 99.7,444.3 119.1,379.3 157.8,319.3 196.5,361.1 235.3,377.9 312.7,401.2 390.2,404.7 545.2,406.9 700.1,406.1 1010.0,405.7"/><circle cx="90.0" cy="490.8" r="2.5" fill="#2ca02c"/><circle cx="99.7" cy="444.3" r="2.5" fill="#2ca02c"/><circle cx="119.1" cy="379.3" r="2.5" fill="#2ca02c"/><circle cx="157.8" cy="319.3" r="2.5" fill="#2ca02c"/><circle cx="196.5" cy="361.1" r="2.5" fill="#2ca02c"/><circle cx="235.3" cy="377.9" r="2.5" fill="#2ca02c"/><circle cx="312.7" cy="401.2" r="2.5" fill="#2ca02c"/><circle cx="390.2" cy="404.7" r="2.5" fill="#2ca02c"/><circle cx="545.2" cy="406.9" r="2.5" fill="#2ca02c"/><circle cx="700.1" cy="406.1" r="2.5" fill="#2ca02c"/><circle cx="1010.0" cy="405.7" r="2.5" fill="#2ca02c"/></svg>