<svg xmlns="http://www.w3.org/2000/svg" width="1100" height="650" viewBox="0 0 1100 650"><style>text{font-family:monospace;fill:#111}.small{font-size:14px}.axis{stroke:#444;stroke-width:1}.grid{stroke:#ddd;stroke-width:1}</style><rect x="0" y="0" width="1100" height="650" fill="white"/><text x="550.0" y="36" text-anchor="middle" font-size="24">mixed target0 components (1MiB)</text><line class="grid" x1="90" y1="80.0" x2="1010" y2="80.0"/><text class="small" x="82" y="84.0" text-anchor="end">200</text><line class="grid" x1="90" y1="172.0" x2="1010" y2="172.0"/><text class="small" x="82" y="176.0" text-anchor="end">160</text><line class="grid" x1="90" y1="264.0" x2="1010" y2="264.0"/><text class="small" x="82" y="268.0" text-anchor="end">120</text><line class="grid" x1="90" y1="356.0" x2="1010" y2="356.0"/><text class="small" x="82" y="360.0" text-anchor="end">80</text><line class="grid" x1="90" y1="448.0" x2="1010" y2="448.0"/><text class="small" x="82" y="452.0" text-anchor="end">40</text><line class="grid" x1="90" y1="540.0" x2="1010" y2="540.0"/><text class="small" x="82" y="544.0" text-anchor="end">0</text><line class="axis" x1="90" y1="540" x2="1010" y2="540"/><line class="axis" x1="90" y1="80" x2="90" y2="540"/><text class="small" x="90.0" y="560" text-anchor="middle">1</text><text class="small" x="99.6842105263158" y="560" text-anchor="middle">2</text><text class="small" x="119.05263157894737" y="560" text-anchor="middle">4</text><text class="small" x="157.78947368421052" y="560" text-anchor="middle">8</text><text class="small" x="196.5263157894737" y="560" text-anchor="middle">12</text><text class="small" x="235.26315789473685" y="560" text-anchor="middle">16</text><text class="small" x="312.7368421052631" y="560" text-anchor="middle">24</text><text class="small" x="390.2105263157895" y="560" text-anchor="middle">32</text><text class="small" x="545.1578947368421" y="560" text-anchor="middle">48</text><text class="small" x="700.1052631578947" y="560" text-anchor="middle">64</text><text class="small" x="1010.0" y="560" text-anchor="middle">96</text><line x1="90" y1="52" x2="118" y2="52" stroke="#1f77b4" stroke-width="3"/><text x="124" y="57" font-size="14">1302 local</text><line x1="210" y1="52" x2="238" y2="52" stroke="#1f77b4" stroke-width="2" stroke-dasharray="6,4"/><text x="244" y="57" font-size="14">1302 remote</text><line x1="390" y1="52" x2="418" y2="52" stroke="#d62728" stroke-width="3"/><text x="424" y="57" font-size="14">1306 local</text><line x1="510" y1="52" x2="538" y2="52" stroke="#d62728" stroke-width="2" stroke-dasharray="6,4"/><text x="544" y="57" font-size="14">1306 remote</text><line x1="690" y1="52" x2="718" y2="52" stroke="#2ca02c" stroke-width="3"/><text x="724" y="57" font-size="14">1308 local</text><line x1="810" y1="52" x2="838" y2="52" stroke="#2ca02c" stroke-width="2" stroke-dasharray="6,4"/><text x="844" y="57" font-size="14">1308 remote</text><polyline fill="none" stroke="#1f77b4" stroke-width="2.5" points="90.0,453.0 99.7,377.1 119.1,298.1 157.8,242.5 196.5,174.6 235.3,176.2 312.7,178.3 390.2,182.3 545.2,181.0 700.1,178.8 1010.0,175.5"/><circle cx="90.0" cy="453.0" r="2.5" fill="#1f77b4"/><circle cx="99.7" cy="377.1" r="2.5" fill="#1f77b4"/><circle cx="119.1" cy="298.1" r="2.5" fill="#1f77b4"/><circle cx="157.8" cy="242.5" r="2.5" fill="#1f77b4"/><circle cx="196.5" cy="174.6" r="2.5" fill="#1f77b4"/><circle cx="235.3" cy="176.2" r="2.5" fill="#1f77b4"/><circle cx="312.7" cy="178.3" r="2.5" fill="#1f77b4"/><circle cx="390.2" cy="182.3" r="2.5" fill="#1f77b4"/><circle cx="545.2" cy="181.0" r="2.5" fill="#1f77b4"/><circle cx="700.1" cy="178.8" r="2.5" fill="#1f77b4"/><circle cx="1010.0" cy="175.5" r="2.5" fill="#1f77b4"/><polyline fill="none" stroke="#1f77b4" stroke-width="2.5" stroke-dasharray="6,4" points="90.0,490.4 99.7,444.5 119.1,380.0 157.8,322.2 196.5,361.2 235.3,376.8 312.7,398.9 390.2,401.3 545.2,404.2 700.1,406.2 1010.0,409.1"/><circle cx="90.0" cy="490.4" r="2.5" fill="#1f77b4"/><circle cx="99.7" cy="444.5" r="2.5" fill="#1f77b4"/><circle cx="119.1" cy="380.0" r="2.5" fill="#1f77b4"/><circle cx="157.8" cy="322.2" r="2.5" fill="#1f77b4"/><circle cx="196.5" cy="361.2" r="2.5" fill="#1f77b4"/><circle cx="235.3" cy="376.8" r="2.5" fill="#1f77b4"/><circle cx="312.7" cy="398.9" r="2.5" fill="#1f77b4"/><circle cx="390.2" cy="401.3" r="2.5" fill="#1f77b4"/><circle cx="545.2" cy="404.2" r="2.5" fill="#1f77b4"/><circle cx="700.1" cy="406.2" r="2.5" fill="#1f77b4"/><circle cx="1010.0" cy="409.1" r="2.5" fill="#1f77b4"/><polyline fill="none" stroke="#d62728" stroke-width="2.5" points="90.0,452.0 99.7,381.0 119.1,296.2 157.8,236.2 196.5,176.6 235.3,174.9 312.7,179.7 390.2,181.5 545.2,180.1 700.1,176.3 1010.0,175.9"/><circle cx="90.0" cy="452.0" r="2.5" fill="#d62728"/><circle cx="99.7" cy="381.0" r="2.5" fill="#d62728"/><circle cx="119.1" cy="296.2" r="2.5" fill="#d62728"/><circle cx="157.8" cy="236.2" r="2.5" fill="#d62728"/><circle cx="196.5" cy="176.6" r="2.5" fill="#d62728"/><circle cx="235.3" cy="174.9" r="2.5" fill="#d62728"/><circle cx="312.7" cy="179.7" r="2.5" fill="#d62728"/><circle cx="390.2" cy="181.5" r="2.5" fill="#d62728"/><circle cx="545.2" cy="180.1" r="2.5" fill="#d62728"/><circle cx="700.1" cy="176.3" r="2.5" fill="#d62728"/><circle cx="1010.0" cy="175.9" r="2.5" fill="#d62728"/><polyline fill="none" stroke="#d62728" stroke-width="2.5" stroke-dasharray="6,4" points="90.0,490.2 99.7,445.5 119.1,377.5 157.8,320.8 196.5,360.7 235.3,377.6 312.7,399.4 390.2,403.6 545.2,407.0 700.1,407.6 1010.0,402.5"/><circle cx="90.0" cy="490.2" r="2.5" fill="#d62728"/><circle cx="99.7" cy="445.5" r="2.5" fill="#d62728"/><circle cx="119.1" cy="377.5" r="2.5" fill="#d62728"/><circle cx="157.8" cy="320.8" r="2.5" fill="#d62728"/><circle cx="196.5" cy="360.7" r="2.5" fill="#d62728"/><circle cx="235.3" cy="377.6" r="2.5" fill="#d62728"/><circle cx="312.7" cy="399.4" r="2.5" fill="#d62728"/><circle cx="390.2" cy="403.6" r="2.5" fill="#d62728"/><circle cx="545.2" cy="407.0" r="2.5" fill="#d62728"/><circle cx="700.1" cy="407.6" r="2.5" fill="#d62728"/><circle cx="1010.0" cy="402.5" r="2.5" fill="#d62728"/><polyline fill="none" stroke="#2ca02c" stroke-width="2.5" points="90.0,452.7 99.7,382.8 119.1,299.8 157.8,234.6 196.5,172.1 235.3,174.3 312.7,177.8 390.2,181.9 545.2,180.7 700.1,178.2 1010.0,177.2"/><circle cx="90.0" cy="452.7" r="2.5" fill="#2ca02c"/><circle cx="99.7" cy="382.8" r="2.5" fill="#2ca02c"/><circle cx="119.1" cy="299.8" r="2.5" fill="#2ca02c"/><circle cx="157.8" cy="234.6" r="2.5" fill="#2ca02c"/><circle cx="196.5" cy="172.1" r="2.5" fill="#2ca02c"/><circle cx="235.3" cy="174.3" r="2.5" fill="#2ca02c"/><circle cx="312.7" cy="177.8" r="2.5" fill="#2ca02c"/><circle cx="390.2" cy="181.9" r="2.5" fill="#2ca02c"/><circle cx="545.2" cy="180.7" r="2.5" fill="#2ca02c"/><circle cx="700.1" cy="178.2" r="2.5" fill="#2ca02c"/><circle cx="1010.0" cy="177.2" r="2.5" fill="#2ca02c"/><polyline fill="none" stroke="#2ca02c" stroke-width="2.5" stroke-dasharray="6,4" points="90.0,489.9 99.7,445.6 119.1,383.0 157.8,315.9 196.5,362.9 235.3,376.6 312.7,398.8 390.2,403.5 545.2,403.9 700.1,405.6 1010.0,403.0"/><circle cx="90.0" cy="489.9" r="2.5" fill="#2ca02c"/><circle cx="99.7" cy="445.6" r="2.5" fill="#2ca02c"/><circle cx="119.1" cy="383.0" r="2.5" fill="#2ca02c"/><circle cx="157.8" cy="315.9" r="2.5" fill="#2ca02c"/><circle cx="196.5" cy="362.9" r="2.5" fill="#2ca02c"/><circle cx="235.3" cy="376.6" r="2.5" fill="#2ca02c"/><circle cx="312.7" cy="398.8" r="2.5" fill="#2ca02c"/><circle cx="390.2" cy="403.5" r="2.5" fill="#2ca02c"/><circle cx="545.2" cy="403.9" r="2.5" fill="#2ca02c"/><circle cx="700.1" cy="405.6" r="2.5" fill="#2ca02c"/><circle cx="1010.0" cy="403.0" r="2.5" fill="#2ca02c"/></svg>