<svg xmlns="http://www.w3.org/2000/svg" width="1600" height="1800" viewBox="0 0 1600 1800"><style>text{font-family:monospace;fill:#111}.small{font-size:14px}.axis{stroke:#444;stroke-width:1}.grid{stroke:#ddd;stroke-width:1}</style><rect x="0" y="0" width="1600" height="1800" fill="white"/><text x="800.0" y="40" text-anchor="middle" font-size="24">uProf memory bandwidth per thread vs threads (1MiB)</text><text x="800.0" y="70" text-anchor="middle" font-size="16">threads per process on X axis</text><line x1="1320" y1="30" x2="1348" y2="30" stroke="#1f77b4" stroke-width="3"/><text x="1356" y="35" font-size="14">1302</text><line x1="1320" y1="54" x2="1348" y2="54" stroke="#d62728" stroke-width="3"/><text x="1356" y="59" font-size="14">1306</text><line x1="1320" y1="78" x2="1348" y2="78" stroke="#2ca02c" stroke-width="3"/><text x="1356" y="83" font-size="14">1308</text><text x="432.5" y="110.0" text-anchor="middle" font-size="18">local numa0</text><line class="grid" x1="145.0" y1="135.0" x2="760.0" y2="135.0"/><text class="small" x="137.0" y="139.0" text-anchor="end">70</text><line class="grid" x1="145.0" y1="189.5" x2="760.0" y2="189.5"/><text class="small" x="137.0" y="193.5" text-anchor="end">56</text><line class="grid" x1="145.0" y1="244.0" x2="760.0" y2="244.0"/><text class="small" x="137.0" y="248.0" text-anchor="end">42</text><line class="grid" x1="145.0" y1="298.5" x2="760.0" y2="298.5"/><text class="small" x="137.0" y="302.5" text-anchor="end">28</text><line class="grid" x1="145.0" y1="353.0" x2="760.0" y2="353.0"/><text class="small" x="137.0" y="357.0" text-anchor="end">14</text><line class="grid" x1="145.0" y1="407.5" x2="760.0" y2="407.5"/><text class="small" x="137.0" y="411.5" text-anchor="end">0</text><line class="axis" x1="145.0" y1="407.5" x2="760.0" y2="407.5"/><line class="axis" x1="145.0" y1="135.0" x2="145.0" y2="407.5"/><line class="grid" x1="145.0" y1="407.5" x2="145.0" y2="412.5"/><text class="small" x="145.0" y="427.5" text-anchor="middle">1</text><line class="grid" x1="151.47368421052633" y1="407.5" x2="151.47368421052633" y2="412.5"/><text class="small" x="151.47368421052633" y="427.5" text-anchor="middle">2</text><line class="grid" x1="164.42105263157896" y1="407.5" x2="164.42105263157896" y2="412.5"/><text class="small" x="164.42105263157896" y="427.5" text-anchor="middle">4</text><line class="grid" x1="190.31578947368422" y1="407.5" x2="190.31578947368422" y2="412.5"/><text class="small" x="190.31578947368422" y="427.5" text-anchor="middle">8</text><line class="grid" x1="216.21052631578948" y1="407.5" x2="216.21052631578948" y2="412.5"/><text class="small" x="216.21052631578948" y="427.5" text-anchor="middle">12</text><line class="grid" x1="242.10526315789474" y1="407.5" x2="242.10526315789474" y2="412.5"/><text class="small" x="242.10526315789474" y="427.5" text-anchor="middle">16</text><line class="grid" x1="293.89473684210526" y1="407.5" x2="293.89473684210526" y2="412.5"/><text class="small" x="293.89473684210526" y="427.5" text-anchor="middle">24</text><line class="grid" x1="345.6842105263158" y1="407.5" x2="345.6842105263158" y2="412.5"/><text class="small" x="345.6842105263158" y="427.5" text-anchor="middle">32</text><line class="grid" x1="449.2631578947368" y1="407.5" x2="449.2631578947368" y2="412.5"/><text class="small" x="449.2631578947368" y="427.5" text-anchor="middle">48</text><line class="grid" x1="552.8421052631579" y1="407.5" x2="552.8421052631579" y2="412.5"/><text class="small" x="552.8421052631579" y="427.5" text-anchor="middle">64</text><line class="grid" x1="760.0" y1="407.5" x2="760.0" y2="412.5"/><text class="small" x="760.0" y="427.5" text-anchor="middle">96</text><polyline fill="none" stroke="#1f77b4" stroke-width="2.5" points="145.0,222.3 151.5,224.7 164.4,246.9 190.3,289.7 216.2,316.7 242.1,337.4 293.9,358.9 345.7,370.8 449.3,381.1 552.8,386.8 760.0,393.5"/><circle cx="145.0" cy="222.3" r="2.8" fill="#1f77b4"/><circle cx="151.5" cy="224.7" r="2.8" fill="#1f77b4"/><circle cx="164.4" cy="246.9" r="2.8" fill="#1f77b4"/><circle cx="190.3" cy="289.7" r="2.8" fill="#1f77b4"/><circle cx="216.2" cy="316.7" r="2.8" fill="#1f77b4"/><circle cx="242.1" cy="337.4" r="2.8" fill="#1f77b4"/><circle cx="293.9" cy="358.9" r="2.8" fill="#1f77b4"/><circle cx="345.7" cy="370.8" r="2.8" fill="#1f77b4"/><circle cx="449.3" cy="381.1" r="2.8" fill="#1f77b4"/><circle cx="552.8" cy="386.8" r="2.8" fill="#1f77b4"/><circle cx="760.0" cy="393.5" r="2.8" fill="#1f77b4"/><polyline fill="none" stroke="#d62728" stroke-width="2.5" points="145.0,221.7 151.5,224.7 164.4,245.9 190.3,292.5 216.2,316.6 242.1,337.4 293.9,358.7 345.7,370.6 449.3,381.4 552.8,386.8 760.0,393.6"/><circle cx="145.0" cy="221.7" r="2.8" fill="#d62728"/><circle cx="151.5" cy="224.7" r="2.8" fill="#d62728"/><circle cx="164.4" cy="245.9" r="2.8" fill="#d62728"/><circle cx="190.3" cy="292.5" r="2.8" fill="#d62728"/><circle cx="216.2" cy="316.6" r="2.8" fill="#d62728"/><circle cx="242.1" cy="337.4" r="2.8" fill="#d62728"/><circle cx="293.9" cy="358.7" r="2.8" fill="#d62728"/><circle cx="345.7" cy="370.6" r="2.8" fill="#d62728"/><circle cx="449.3" cy="381.4" r="2.8" fill="#d62728"/><circle cx="552.8" cy="386.8" r="2.8" fill="#d62728"/><circle cx="760.0" cy="393.6" r="2.8" fill="#d62728"/><polyline fill="none" stroke="#2ca02c" stroke-width="2.5" points="145.0,222.0 151.5,226.6 164.4,247.1 190.3,292.0 216.2,315.9 242.1,337.3 293.9,359.0 345.7,368.0 449.3,381.1 552.8,386.4 760.0,393.4"/><circle cx="145.0" cy="222.0" r="2.8" fill="#2ca02c"/><circle cx="151.5" cy="226.6" r="2.8" fill="#2ca02c"/><circle cx="164.4" cy="247.1" r="2.8" fill="#2ca02c"/><circle cx="190.3" cy="292.0" r="2.8" fill="#2ca02c"/><circle cx="216.2" cy="315.9" r="2.8" fill="#2ca02c"/><circle cx="242.1" cy="337.3" r="2.8" fill="#2ca02c"/><circle cx="293.9" cy="359.0" r="2.8" fill="#2ca02c"/><circle cx="345.7" cy="368.0" r="2.8" fill="#2ca02c"/><circle cx="449.3" cy="381.1" r="2.8" fill="#2ca02c"/><circle cx="552.8" cy="386.4" r="2.8" fill="#2ca02c"/><circle cx="760.0" cy="393.4" r="2.8" fill="#2ca02c"/><text class="small" x="100.0" y="276.25" transform="rotate(-90 100.0,276.25)" text-anchor="middle">uProf GB/s per thread</text><text x="1177.5" y="110.0" text-anchor="middle" font-size="18">local numa1</text><line class="grid" x1="890.0" y1="135.0" x2="1505.0" y2="135.0"/><text class="small" x="882.0" y="139.0" text-anchor="end">70</text><line class="grid" x1="890.0" y1="189.5" x2="1505.0" y2="189.5"/><text class="small" x="882.0" y="193.5" text-anchor="end">56</text><line class="grid" x1="890.0" y1="244.0" x2="1505.0" y2="244.0"/><text class="small" x="882.0" y="248.0" text-anchor="end">42</text><line class="grid" x1="890.0" y1="298.5" x2="1505.0" y2="298.5"/><text class="small" x="882.0" y="302.5" text-anchor="end">28</text><line class="grid" x1="890.0" y1="353.0" x2="1505.0" y2="353.0"/><text class="small" x="882.0" y="357.0" text-anchor="end">14</text><line class="grid" x1="890.0" y1="407.5" x2="1505.0" y2="407.5"/><text class="small" x="882.0" y="411.5" text-anchor="end">0</text><line class="axis" x1="890.0" y1="407.5" x2="1505.0" y2="407.5"/><line class="axis" x1="890.0" y1="135.0" x2="890.0" y2="407.5"/><line class="grid" x1="890.0" y1="407.5" x2="890.0" y2="412.5"/><text class="small" x="890.0" y="427.5" text-anchor="middle">1</text><line class="grid" x1="896.4736842105264" y1="407.5" x2="896.4736842105264" y2="412.5"/><text class="small" x="896.4736842105264" y="427.5" text-anchor="middle">2</text><line class="grid" x1="909.421052631579" y1="407.5" x2="909.421052631579" y2="412.5"/><text class="small" x="909.421052631579" y="427.5" text-anchor="middle">4</text><line class="grid" x1="935.3157894736842" y1="407.5" x2="935.3157894736842" y2="412.5"/><text class="small" x="935.3157894736842" y="427.5" text-anchor="middle">8</text><line class="grid" x1="961.2105263157895" y1="407.5" x2="961.2105263157895" y2="412.5"/><text class="small" x="961.2105263157895" y="427.5" text-anchor="middle">12</text><line class="grid" x1="987.1052631578948" y1="407.5" x2="987.1052631578948" y2="412.5"/><text class="small" x="987.1052631578948" y="427.5" text-anchor="middle">16</text><line class="grid" x1="1038.8947368421052" y1="407.5" x2="1038.8947368421052" y2="412.5"/><text class="small" x="1038.8947368421052" y="427.5" text-anchor="middle">24</text><line class="grid" x1="1090.6842105263158" y1="407.5" x2="1090.6842105263158" y2="412.5"/><text class="small" x="1090.6842105263158" y="427.5" text-anchor="middle">32</text><line class="grid" x1="1194.2631578947369" y1="407.5" x2="1194.2631578947369" y2="412.5"/><text class="small" x="1194.2631578947369" y="427.5" text-anchor="middle">48</text><line class="grid" x1="1297.842105263158" y1="407.5" x2="1297.842105263158" y2="412.5"/><text class="small" x="1297.842105263158" y="427.5" text-anchor="middle">64</text><line class="grid" x1="1505.0" y1="407.5" x2="1505.0" y2="412.5"/><text class="small" x="1505.0" y="427.5" text-anchor="middle">96</text><polyline fill="none" stroke="#1f77b4" stroke-width="2.5" points="890.0,219.4 896.5,224.4 909.4,249.1 935.3,289.4 961.2,316.4 987.1,337.3 1038.9,358.7 1090.7,370.7 1194.3,381.5 1297.8,387.2 1505.0,393.6"/><circle cx="890.0" cy="219.4" r="2.8" fill="#1f77b4"/><circle cx="896.5" cy="224.4" r="2.8" fill="#1f77b4"/><circle cx="909.4" cy="249.1" r="2.8" fill="#1f77b4"/><circle cx="935.3" cy="289.4" r="2.8" fill="#1f77b4"/><circle cx="961.2" cy="316.4" r="2.8" fill="#1f77b4"/><circle cx="987.1" cy="337.3" r="2.8" fill="#1f77b4"/><circle cx="1038.9" cy="358.7" r="2.8" fill="#1f77b4"/><circle cx="1090.7" cy="370.7" r="2.8" fill="#1f77b4"/><circle cx="1194.3" cy="381.5" r="2.8" fill="#1f77b4"/><circle cx="1297.8" cy="387.2" r="2.8" fill="#1f77b4"/><circle cx="1505.0" cy="393.6" r="2.8" fill="#1f77b4"/><polyline fill="none" stroke="#d62728" stroke-width="2.5" points="890.0,220.9 896.5,222.7 909.4,247.2 935.3,289.6 961.2,317.2 987.1,336.7 1038.9,358.8 1090.7,370.7 1194.3,381.7 1297.8,387.1 1505.0,393.7"/><circle cx="890.0" cy="220.9" r="2.8" fill="#d62728"/><circle cx="896.5" cy="222.7" r="2.8" fill="#d62728"/><circle cx="909.4" cy="247.2" r="2.8" fill="#d62728"/><circle cx="935.3" cy="289.6" r="2.8" fill="#d62728"/><circle cx="961.2" cy="317.2" r="2.8" fill="#d62728"/><circle cx="987.1" cy="336.7" r="2.8" fill="#d62728"/><circle cx="1038.9" cy="358.8" r="2.8" fill="#d62728"/><circle cx="1090.7" cy="370.7" r="2.8" fill="#d62728"/><circle cx="1194.3" cy="381.7" r="2.8" fill="#d62728"/><circle cx="1297.8" cy="387.1" r="2.8" fill="#d62728"/><circle cx="1505.0" cy="393.7" r="2.8" fill="#d62728"/><polyline fill="none" stroke="#2ca02c" stroke-width="2.5" points="890.0,221.4 896.5,224.3 909.4,247.3 935.3,290.0 961.2,316.0 987.1,337.3 1038.9,358.8 1090.7,370.7 1194.3,381.7 1297.8,387.1 1505.0,393.7"/><circle cx="890.0" cy="221.4" r="2.8" fill="#2ca02c"/><circle cx="896.5" cy="224.3" r="2.8" fill="#2ca02c"/><circle cx="909.4" cy="247.3" r="2.8" fill="#2ca02c"/><circle cx="935.3" cy="290.0" r="2.8" fill="#2ca02c"/><circle cx="961.2" cy="316.0" r="2.8" fill="#2ca02c"/><circle cx="987.1" cy="337.3" r="2.8" fill="#2ca02c"/><circle cx="1038.9" cy="358.8" r="2.8" fill="#2ca02c"/><circle cx="1090.7" cy="370.7" r="2.8" fill="#2ca02c"/><circle cx="1194.3" cy="381.7" r="2.8" fill="#2ca02c"/><circle cx="1297.8" cy="387.1" r="2.8" fill="#2ca02c"/><circle cx="1505.0" cy="393.7" r="2.8" fill="#2ca02c"/><text class="small" x="845.0" y="276.25" transform="rotate(-90 845.0,276.25)" text-anchor="middle">uProf GB/s per thread</text><text x="432.5" y="522.5" text-anchor="middle" font-size="18">remote 0-&gt;1</text><line class="grid" x1="145.0" y1="547.5" x2="760.0" y2="547.5"/><text class="small" x="137.0" y="551.5" text-anchor="end">40</text><line class="grid" x1="145.0" y1="602.0" x2="760.0" y2="602.0"/><text class="small" x="137.0" y="606.0" text-anchor="end">32</text><line class="grid" x1="145.0" y1="656.5" x2="760.0" y2="656.5"/><text class="small" x="137.0" y="660.5" text-anchor="end">24</text><line class="grid" x1="145.0" y1="711.0" x2="760.0" y2="711.0"/><text class="small" x="137.0" y="715.0" text-anchor="end">16</text><line class="grid" x1="145.0" y1="765.5" x2="760.0" y2="765.5"/><text class="small" x="137.0" y="769.5" text-anchor="end">8</text><line class="grid" x1="145.0" y1="820.0" x2="760.0" y2="820.0"/><text class="small" x="137.0" y="824.0" text-anchor="end">0</text><line class="axis" x1="145.0" y1="820.0" x2="760.0" y2="820.0"/><line class="axis" x1="145.0" y1="547.5" x2="145.0" y2="820.0"/><line class="grid" x1="145.0" y1="820.0" x2="145.0" y2="825.0"/><text class="small" x="145.0" y="840.0" text-anchor="middle">1</text><line class="grid" x1="151.47368421052633" y1="820.0" x2="151.47368421052633" y2="825.0"/><text class="small" x="151.47368421052633" y="840.0" text-anchor="middle">2</text><line class="grid" x1="164.42105263157896" y1="820.0" x2="164.42105263157896" y2="825.0"/><text class="small" x="164.42105263157896" y="840.0" text-anchor="middle">4</text><line class="grid" x1="190.31578947368422" y1="820.0" x2="190.31578947368422" y2="825.0"/><text class="small" x="190.31578947368422" y="840.0" text-anchor="middle">8</text><line class="grid" x1="216.21052631578948" y1="820.0" x2="216.21052631578948" y2="825.0"/><text class="small" x="216.21052631578948" y="840.0" text-anchor="middle">12</text><line class="grid" x1="242.10526315789474" y1="820.0" x2="242.10526315789474" y2="825.0"/><text class="small" x="242.10526315789474" y="840.0" text-anchor="middle">16</text><line class="grid" x1="293.89473684210526" y1="820.0" x2="293.89473684210526" y2="825.0"/><text class="small" x="293.89473684210526" y="840.0" text-anchor="middle">24</text><line class="grid" x1="345.6842105263158" y1="820.0" x2="345.6842105263158" y2="825.0"/><text class="small" x="345.6842105263158" y="840.0" text-anchor="middle">32</text><line class="grid" x1="449.2631578947368" y1="820.0" x2="449.2631578947368" y2="825.0"/><text class="small" x="449.2631578947368" y="840.0" text-anchor="middle">48</text><line class="grid" x1="552.8421052631579" y1="820.0" x2="552.8421052631579" y2="825.0"/><text class="small" x="552.8421052631579" y="840.0" text-anchor="middle">64</text><line class="grid" x1="760.0" y1="820.0" x2="760.0" y2="825.0"/><text class="small" x="760.0" y="840.0" text-anchor="middle">96</text><polyline fill="none" stroke="#1f77b4" stroke-width="2.5" points="145.0,623.3 151.5,626.5 164.4,643.6 190.3,690.6 216.2,730.9 242.1,753.1 293.9,775.6 345.7,786.4 449.3,796.9 552.8,801.6 760.0,806.9"/><circle cx="145.0" cy="623.3" r="2.8" fill="#1f77b4"/><circle cx="151.5" cy="626.5" r="2.8" fill="#1f77b4"/><circle cx="164.4" cy="643.6" r="2.8" fill="#1f77b4"/><circle cx="190.3" cy="690.6" r="2.8" fill="#1f77b4"/><circle cx="216.2" cy="730.9" r="2.8" fill="#1f77b4"/><circle cx="242.1" cy="753.1" r="2.8" fill="#1f77b4"/><circle cx="293.9" cy="775.6" r="2.8" fill="#1f77b4"/><circle cx="345.7" cy="786.4" r="2.8" fill="#1f77b4"/><circle cx="449.3" cy="796.9" r="2.8" fill="#1f77b4"/><circle cx="552.8" cy="801.6" r="2.8" fill="#1f77b4"/><circle cx="760.0" cy="806.9" r="2.8" fill="#1f77b4"/><polyline fill="none" stroke="#d62728" stroke-width="2.5" points="145.0,621.7 151.5,627.2 164.4,643.0 190.3,690.9 216.2,731.4 242.1,753.3 293.9,775.7 345.7,786.0 449.3,796.6 552.8,801.6 760.0,807.2"/><circle cx="145.0" cy="621.7" r="2.8" fill="#d62728"/><circle cx="151.5" cy="627.2" r="2.8" fill="#d62728"/><circle cx="164.4" cy="643.0" r="2.8" fill="#d62728"/><circle cx="190.3" cy="690.9" r="2.8" fill="#d62728"/><circle cx="216.2" cy="731.4" r="2.8" fill="#d62728"/><circle cx="242.1" cy="753.3" r="2.8" fill="#d62728"/><circle cx="293.9" cy="775.7" r="2.8" fill="#d62728"/><circle cx="345.7" cy="786.0" r="2.8" fill="#d62728"/><circle cx="449.3" cy="796.6" r="2.8" fill="#d62728"/><circle cx="552.8" cy="801.6" r="2.8" fill="#d62728"/><circle cx="760.0" cy="807.2" r="2.8" fill="#d62728"/><polyline fill="none" stroke="#2ca02c" stroke-width="2.5" points="145.0,624.1 151.5,628.8 164.4,643.5 190.3,691.0 216.2,731.4 242.1,754.0 293.9,776.1 345.7,786.5 449.3,796.7 552.8,801.2 760.0,807.2"/><circle cx="145.0" cy="624.1" r="2.8" fill="#2ca02c"/><circle cx="151.5" cy="628.8" r="2.8" fill="#2ca02c"/><circle cx="164.4" cy="643.5" r="2.8" fill="#2ca02c"/><circle cx="190.3" cy="691.0" r="2.8" fill="#2ca02c"/><circle cx="216.2" cy="731.4" r="2.8" fill="#2ca02c"/><circle cx="242.1" cy="754.0" r="2.8" fill="#2ca02c"/><circle cx="293.9" cy="776.1" r="2.8" fill="#2ca02c"/><circle cx="345.7" cy="786.5" r="2.8" fill="#2ca02c"/><circle cx="449.3" cy="796.7" r="2.8" fill="#2ca02c"/><circle cx="552.8" cy="801.2" r="2.8" fill="#2ca02c"/><circle cx="760.0" cy="807.2" r="2.8" fill="#2ca02c"/><text class="small" x="100.0" y="688.75" transform="rotate(-90 100.0,688.75)" text-anchor="middle">uProf GB/s per thread</text><text x="1177.5" y="522.5" text-anchor="middle" font-size="18">remote 1-&gt;0</text><line class="grid" x1="890.0" y1="547.5" x2="1505.0" y2="547.5"/><text class="small" x="882.0" y="551.5" text-anchor="end">40</text><line class="grid" x1="890.0" y1="602.0" x2="1505.0" y2="602.0"/><text class="small" x="882.0" y="606.0" text-anchor="end">32</text><line class="grid" x1="890.0" y1="656.5" x2="1505.0" y2="656.5"/><text class="small" x="882.0" y="660.5" text-anchor="end">24</text><line class="grid" x1="890.0" y1="711.0" x2="1505.0" y2="711.0"/><text class="small" x="882.0" y="715.0" text-anchor="end">16</text><line class="grid" x1="890.0" y1="765.5" x2="1505.0" y2="765.5"/><text class="small" x="882.0" y="769.5" text-anchor="end">8</text><line class="grid" x1="890.0" y1="820.0" x2="1505.0" y2="820.0"/><text class="small" x="882.0" y="824.0" text-anchor="end">0</text><line class="axis" x1="890.0" y1="820.0" x2="1505.0" y2="820.0"/><line class="axis" x1="890.0" y1="547.5" x2="890.0" y2="820.0"/><line class="grid" x1="890.0" y1="820.0" x2="890.0" y2="825.0"/><text class="small" x="890.0" y="840.0" text-anchor="middle">1</text><line class="grid" x1="896.4736842105264" y1="820.0" x2="896.4736842105264" y2="825.0"/><text class="small" x="896.4736842105264" y="840.0" text-anchor="middle">2</text><line class="grid" x1="909.421052631579" y1="820.0" x2="909.421052631579" y2="825.0"/><text class="small" x="909.421052631579" y="840.0" text-anchor="middle">4</text><line class="grid" x1="935.3157894736842" y1="820.0" x2="935.3157894736842" y2="825.0"/><text class="small" x="935.3157894736842" y="840.0" text-anchor="middle">8</text><line class="grid" x1="961.2105263157895" y1="820.0" x2="961.2105263157895" y2="825.0"/><text class="small" x="961.2105263157895" y="840.0" text-anchor="middle">12</text><line class="grid" x1="987.1052631578948" y1="820.0" x2="987.1052631578948" y2="825.0"/><text class="small" x="987.1052631578948" y="840.0" text-anchor="middle">16</text><line class="grid" x1="1038.8947368421052" y1="820.0" x2="1038.8947368421052" y2="825.0"/><text class="small" x="1038.8947368421052" y="840.0" text-anchor="middle">24</text><line class="grid" x1="1090.6842105263158" y1="820.0" x2="1090.6842105263158" y2="825.0"/><text class="small" x="1090.6842105263158" y="840.0" text-anchor="middle">32</text><line class="grid" x1="1194.2631578947369" y1="820.0" x2="1194.2631578947369" y2="825.0"/><text class="small" x="1194.2631578947369" y="840.0" text-anchor="middle">48</text><line class="grid" x1="1297.842105263158" y1="820.0" x2="1297.842105263158" y2="825.0"/><text class="small" x="1297.842105263158" y="840.0" text-anchor="middle">64</text><line class="grid" x1="1505.0" y1="820.0" x2="1505.0" y2="825.0"/><text class="small" x="1505.0" y="840.0" text-anchor="middle">96</text><polyline fill="none" stroke="#1f77b4" stroke-width="2.5" points="890.0,625.0 896.5,631.2 909.4,646.9 935.3,692.9 961.2,732.4 987.1,754.5 1038.9,776.2 1090.7,786.7 1194.3,797.0 1297.8,802.4 1505.0,807.8"/><circle cx="890.0" cy="625.0" r="2.8" fill="#1f77b4"/><circle cx="896.5" cy="631.2" r="2.8" fill="#1f77b4"/><circle cx="909.4" cy="646.9" r="2.8" fill="#1f77b4"/><circle cx="935.3" cy="692.9" r="2.8" fill="#1f77b4"/><circle cx="961.2" cy="732.4" r="2.8" fill="#1f77b4"/><circle cx="987.1" cy="754.5" r="2.8" fill="#1f77b4"/><circle cx="1038.9" cy="776.2" r="2.8" fill="#1f77b4"/><circle cx="1090.7" cy="786.7" r="2.8" fill="#1f77b4"/><circle cx="1194.3" cy="797.0" r="2.8" fill="#1f77b4"/><circle cx="1297.8" cy="802.4" r="2.8" fill="#1f77b4"/><circle cx="1505.0" cy="807.8" r="2.8" fill="#1f77b4"/><polyline fill="none" stroke="#d62728" stroke-width="2.5" points="890.0,623.6 896.5,625.1 909.4,645.4 935.3,694.2 961.2,733.2 987.1,754.5 1038.9,776.1 1090.7,787.1 1194.3,796.9 1297.8,802.0 1505.0,808.6"/><circle cx="890.0" cy="623.6" r="2.8" fill="#d62728"/><circle cx="896.5" cy="625.1" r="2.8" fill="#d62728"/><circle cx="909.4" cy="645.4" r="2.8" fill="#d62728"/><circle cx="935.3" cy="694.2" r="2.8" fill="#d62728"/><circle cx="961.2" cy="733.2" r="2.8" fill="#d62728"/><circle cx="987.1" cy="754.5" r="2.8" fill="#d62728"/><circle cx="1038.9" cy="776.1" r="2.8" fill="#d62728"/><circle cx="1090.7" cy="787.1" r="2.8" fill="#d62728"/><circle cx="1194.3" cy="796.9" r="2.8" fill="#d62728"/><circle cx="1297.8" cy="802.0" r="2.8" fill="#d62728"/><circle cx="1505.0" cy="808.6" r="2.8" fill="#d62728"/><polyline fill="none" stroke="#2ca02c" stroke-width="2.5" points="890.0,621.7 896.5,628.7 909.4,645.1 935.3,692.2 961.2,733.1 987.1,754.0 1038.9,776.2 1090.7,787.0 1194.3,796.8 1297.8,802.3 1505.0,808.6"/><circle cx="890.0" cy="621.7" r="2.8" fill="#2ca02c"/><circle cx="896.5" cy="628.7" r="2.8" fill="#2ca02c"/><circle cx="909.4" cy="645.1" r="2.8" fill="#2ca02c"/><circle cx="935.3" cy="692.2" r="2.8" fill="#2ca02c"/><circle cx="961.2" cy="733.1" r="2.8" fill="#2ca02c"/><circle cx="987.1" cy="754.0" r="2.8" fill="#2ca02c"/><circle cx="1038.9" cy="776.2" r="2.8" fill="#2ca02c"/><circle cx="1090.7" cy="787.0" r="2.8" fill="#2ca02c"/><circle cx="1194.3" cy="796.8" r="2.8" fill="#2ca02c"/><circle cx="1297.8" cy="802.3" r="2.8" fill="#2ca02c"/><circle cx="1505.0" cy="808.6" r="2.8" fill="#2ca02c"/><text class="small" x="845.0" y="688.75" transform="rotate(-90 845.0,688.75)" text-anchor="middle">uProf GB/s per thread</text><text x="432.5" y="935.0" text-anchor="middle" font-size="18">dual local</text><line class="grid" x1="145.0" y1="960.0" x2="760.0" y2="960.0"/><text class="small" x="137.0" y="964.0" text-anchor="end">55</text><line class="grid" x1="145.0" y1="1014.5" x2="760.0" y2="1014.5"/><text class="small" x="137.0" y="1018.5" text-anchor="end">44</text><line class="grid" x1="145.0" y1="1069.0" x2="760.0" y2="1069.0"/><text class="small" x="137.0" y="1073.0" text-anchor="end">33</text><line class="grid" x1="145.0" y1="1123.5" x2="760.0" y2="1123.5"/><text class="small" x="137.0" y="1127.5" text-anchor="end">22</text><line class="grid" x1="145.0" y1="1178.0" x2="760.0" y2="1178.0"/><text class="small" x="137.0" y="1182.0" text-anchor="end">11</text><line class="grid" x1="145.0" y1="1232.5" x2="760.0" y2="1232.5"/><text class="small" x="137.0" y="1236.5" text-anchor="end">0</text><line class="axis" x1="145.0" y1="1232.5" x2="760.0" y2="1232.5"/><line class="axis" x1="145.0" y1="960.0" x2="145.0" y2="1232.5"/><line class="grid" x1="145.0" y1="1232.5" x2="145.0" y2="1237.5"/><text class="small" x="145.0" y="1252.5" text-anchor="middle">1</text><line class="grid" x1="151.47368421052633" y1="1232.5" x2="151.47368421052633" y2="1237.5"/><text class="small" x="151.47368421052633" y="1252.5" text-anchor="middle">2</text><line class="grid" x1="164.42105263157896" y1="1232.5" x2="164.42105263157896" y2="1237.5"/><text class="small" x="164.42105263157896" y="1252.5" text-anchor="middle">4</text><line class="grid" x1="190.31578947368422" y1="1232.5" x2="190.31578947368422" y2="1237.5"/><text class="small" x="190.31578947368422" y="1252.5" text-anchor="middle">8</text><line class="grid" x1="216.21052631578948" y1="1232.5" x2="216.21052631578948" y2="1237.5"/><text class="small" x="216.21052631578948" y="1252.5" text-anchor="middle">12</text><line class="grid" x1="242.10526315789474" y1="1232.5" x2="242.10526315789474" y2="1237.5"/><text class="small" x="242.10526315789474" y="1252.5" text-anchor="middle">16</text><line class="grid" x1="293.89473684210526" y1="1232.5" x2="293.89473684210526" y2="1237.5"/><text class="small" x="293.89473684210526" y="1252.5" text-anchor="middle">24</text><line class="grid" x1="345.6842105263158" y1="1232.5" x2="345.6842105263158" y2="1237.5"/><text class="small" x="345.6842105263158" y="1252.5" text-anchor="middle">32</text><line class="grid" x1="449.2631578947368" y1="1232.5" x2="449.2631578947368" y2="1237.5"/><text class="small" x="449.2631578947368" y="1252.5" text-anchor="middle">48</text><line class="grid" x1="552.8421052631579" y1="1232.5" x2="552.8421052631579" y2="1237.5"/><text class="small" x="552.8421052631579" y="1252.5" text-anchor="middle">64</text><line class="grid" x1="760.0" y1="1232.5" x2="760.0" y2="1237.5"/><text class="small" x="760.0" y="1252.5" text-anchor="middle">96</text><polyline fill="none" stroke="#1f77b4" stroke-width="2.5" points="145.0,1004.8 151.5,1011.4 164.4,1040.0 190.3,1091.9 216.2,1125.0 242.1,1149.9 293.9,1176.0 345.7,1190.0 449.3,1203.8 552.8,1211.6 760.0,1219.1"/><circle cx="145.0" cy="1004.8" r="2.8" fill="#1f77b4"/><circle cx="151.5" cy="1011.4" r="2.8" fill="#1f77b4"/><circle cx="164.4" cy="1040.0" r="2.8" fill="#1f77b4"/><circle cx="190.3" cy="1091.9" r="2.8" fill="#1f77b4"/><circle cx="216.2" cy="1125.0" r="2.8" fill="#1f77b4"/><circle cx="242.1" cy="1149.9" r="2.8" fill="#1f77b4"/><circle cx="293.9" cy="1176.0" r="2.8" fill="#1f77b4"/><circle cx="345.7" cy="1190.0" r="2.8" fill="#1f77b4"/><circle cx="449.3" cy="1203.8" r="2.8" fill="#1f77b4"/><circle cx="552.8" cy="1211.6" r="2.8" fill="#1f77b4"/><circle cx="760.0" cy="1219.1" r="2.8" fill="#1f77b4"/><polyline fill="none" stroke="#d62728" stroke-width="2.5" points="145.0,1005.9 151.5,1010.4 164.4,1040.3 190.3,1092.6 216.2,1124.8 242.1,1150.8 293.9,1176.2 345.7,1190.0 449.3,1203.8 552.8,1211.5 760.0,1219.2"/><circle cx="145.0" cy="1005.9" r="2.8" fill="#d62728"/><circle cx="151.5" cy="1010.4" r="2.8" fill="#d62728"/><circle cx="164.4" cy="1040.3" r="2.8" fill="#d62728"/><circle cx="190.3" cy="1092.6" r="2.8" fill="#d62728"/><circle cx="216.2" cy="1124.8" r="2.8" fill="#d62728"/><circle cx="242.1" cy="1150.8" r="2.8" fill="#d62728"/><circle cx="293.9" cy="1176.2" r="2.8" fill="#d62728"/><circle cx="345.7" cy="1190.0" r="2.8" fill="#d62728"/><circle cx="449.3" cy="1203.8" r="2.8" fill="#d62728"/><circle cx="552.8" cy="1211.5" r="2.8" fill="#d62728"/><circle cx="760.0" cy="1219.2" r="2.8" fill="#d62728"/><polyline fill="none" stroke="#2ca02c" stroke-width="2.5" points="145.0,1005.2 151.5,1010.3 164.4,1040.0 190.3,1092.4 216.2,1126.9 242.1,1149.9 293.9,1176.0 345.7,1190.5 449.3,1203.8 552.8,1211.5 760.0,1219.1"/><circle cx="145.0" cy="1005.2" r="2.8" fill="#2ca02c"/><circle cx="151.5" cy="1010.3" r="2.8" fill="#2ca02c"/><circle cx="164.4" cy="1040.0" r="2.8" fill="#2ca02c"/><circle cx="190.3" cy="1092.4" r="2.8" fill="#2ca02c"/><circle cx="216.2" cy="1126.9" r="2.8" fill="#2ca02c"/><circle cx="242.1" cy="1149.9" r="2.8" fill="#2ca02c"/><circle cx="293.9" cy="1176.0" r="2.8" fill="#2ca02c"/><circle cx="345.7" cy="1190.5" r="2.8" fill="#2ca02c"/><circle cx="449.3" cy="1203.8" r="2.8" fill="#2ca02c"/><circle cx="552.8" cy="1211.5" r="2.8" fill="#2ca02c"/><circle cx="760.0" cy="1219.1" r="2.8" fill="#2ca02c"/><text class="small" x="100.0" y="1101.25" transform="rotate(-90 100.0,1101.25)" text-anchor="middle">uProf GB/s per thread</text><text x="1177.5" y="935.0" text-anchor="middle" font-size="18">dual cross</text><line class="grid" x1="890.0" y1="960.0" x2="1505.0" y2="960.0"/><text class="small" x="882.0" y="964.0" text-anchor="end">35</text><line class="grid" x1="890.0" y1="1014.5" x2="1505.0" y2="1014.5"/><text class="small" x="882.0" y="1018.5" text-anchor="end">28</text><line class="grid" x1="890.0" y1="1069.0" x2="1505.0" y2="1069.0"/><text class="small" x="882.0" y="1073.0" text-anchor="end">21</text><line class="grid" x1="890.0" y1="1123.5" x2="1505.0" y2="1123.5"/><text class="small" x="882.0" y="1127.5" text-anchor="end">14</text><line class="grid" x1="890.0" y1="1178.0" x2="1505.0" y2="1178.0"/><text class="small" x="882.0" y="1182.0" text-anchor="end">7</text><line class="grid" x1="890.0" y1="1232.5" x2="1505.0" y2="1232.5"/><text class="small" x="882.0" y="1236.5" text-anchor="end">0</text><line class="axis" x1="890.0" y1="1232.5" x2="1505.0" y2="1232.5"/><line class="axis" x1="890.0" y1="960.0" x2="890.0" y2="1232.5"/><line class="grid" x1="890.0" y1="1232.5" x2="890.0" y2="1237.5"/><text class="small" x="890.0" y="1252.5" text-anchor="middle">1</text><line class="grid" x1="896.4736842105264" y1="1232.5" x2="896.4736842105264" y2="1237.5"/><text class="small" x="896.4736842105264" y="1252.5" text-anchor="middle">2</text><line class="grid" x1="909.421052631579" y1="1232.5" x2="909.421052631579" y2="1237.5"/><text class="small" x="909.421052631579" y="1252.5" text-anchor="middle">4</text><line class="grid" x1="935.3157894736842" y1="1232.5" x2="935.3157894736842" y2="1237.5"/><text class="small" x="935.3157894736842" y="1252.5" text-anchor="middle">8</text><line class="grid" x1="961.2105263157895" y1="1232.5" x2="961.2105263157895" y2="1237.5"/><text class="small" x="961.2105263157895" y="1252.5" text-anchor="middle">12</text><line class="grid" x1="987.1052631578948" y1="1232.5" x2="987.1052631578948" y2="1237.5"/><text class="small" x="987.1052631578948" y="1252.5" text-anchor="middle">16</text><line class="grid" x1="1038.8947368421052" y1="1232.5" x2="1038.8947368421052" y2="1237.5"/><text class="small" x="1038.8947368421052" y="1252.5" text-anchor="middle">24</text><line class="grid" x1="1090.6842105263158" y1="1232.5" x2="1090.6842105263158" y2="1237.5"/><text class="small" x="1090.6842105263158" y="1252.5" text-anchor="middle">32</text><line class="grid" x1="1194.2631578947369" y1="1232.5" x2="1194.2631578947369" y2="1237.5"/><text class="small" x="1194.2631578947369" y="1252.5" text-anchor="middle">48</text><line class="grid" x1="1297.842105263158" y1="1232.5" x2="1297.842105263158" y2="1237.5"/><text class="small" x="1297.842105263158" y="1252.5" text-anchor="middle">64</text><line class="grid" x1="1505.0" y1="1232.5" x2="1505.0" y2="1237.5"/><text class="small" x="1505.0" y="1252.5" text-anchor="middle">96</text><polyline fill="none" stroke="#1f77b4" stroke-width="2.5" points="890.0,1018.6 896.5,1028.2 909.4,1061.2 935.3,1133.2 961.2,1165.6 987.1,1182.0 1038.9,1199.4 1090.7,1207.4 1194.3,1215.4 1297.8,1220.2 1505.0,1224.3"/><circle cx="890.0" cy="1018.6" r="2.8" fill="#1f77b4"/><circle cx="896.5" cy="1028.2" r="2.8" fill="#1f77b4"/><circle cx="909.4" cy="1061.2" r="2.8" fill="#1f77b4"/><circle cx="935.3" cy="1133.2" r="2.8" fill="#1f77b4"/><circle cx="961.2" cy="1165.6" r="2.8" fill="#1f77b4"/><circle cx="987.1" cy="1182.0" r="2.8" fill="#1f77b4"/><circle cx="1038.9" cy="1199.4" r="2.8" fill="#1f77b4"/><circle cx="1090.7" cy="1207.4" r="2.8" fill="#1f77b4"/><circle cx="1194.3" cy="1215.4" r="2.8" fill="#1f77b4"/><circle cx="1297.8" cy="1220.2" r="2.8" fill="#1f77b4"/><circle cx="1505.0" cy="1224.3" r="2.8" fill="#1f77b4"/><polyline fill="none" stroke="#d62728" stroke-width="2.5" points="890.0,1019.6 896.5,1024.9 909.4,1060.1 935.3,1133.4 961.2,1165.7 987.1,1181.9 1038.9,1199.5 1090.7,1207.6 1194.3,1215.6 1297.8,1220.4 1505.0,1224.5"/><circle cx="890.0" cy="1019.6" r="2.8" fill="#d62728"/><circle cx="896.5" cy="1024.9" r="2.8" fill="#d62728"/><circle cx="909.4" cy="1060.1" r="2.8" fill="#d62728"/><circle cx="935.3" cy="1133.4" r="2.8" fill="#d62728"/><circle cx="961.2" cy="1165.7" r="2.8" fill="#d62728"/><circle cx="987.1" cy="1181.9" r="2.8" fill="#d62728"/><circle cx="1038.9" cy="1199.5" r="2.8" fill="#d62728"/><circle cx="1090.7" cy="1207.6" r="2.8" fill="#d62728"/><circle cx="1194.3" cy="1215.6" r="2.8" fill="#d62728"/><circle cx="1297.8" cy="1220.4" r="2.8" fill="#d62728"/><circle cx="1505.0" cy="1224.5" r="2.8" fill="#d62728"/><polyline fill="none" stroke="#2ca02c" stroke-width="2.5" points="890.0,1018.7 896.5,1028.3 909.4,1060.3 935.3,1132.3 961.2,1165.6 987.1,1181.5 1038.9,1200.0 1090.7,1207.5 1194.3,1215.5 1297.8,1220.1 1505.0,1224.1"/><circle cx="890.0" cy="1018.7" r="2.8" fill="#2ca02c"/><circle cx="896.5" cy="1028.3" r="2.8" fill="#2ca02c"/><circle cx="909.4" cy="1060.3" r="2.8" fill="#2ca02c"/><circle cx="935.3" cy="1132.3" r="2.8" fill="#2ca02c"/><circle cx="961.2" cy="1165.6" r="2.8" fill="#2ca02c"/><circle cx="987.1" cy="1181.5" r="2.8" fill="#2ca02c"/><circle cx="1038.9" cy="1200.0" r="2.8" fill="#2ca02c"/><circle cx="1090.7" cy="1207.5" r="2.8" fill="#2ca02c"/><circle cx="1194.3" cy="1215.5" r="2.8" fill="#2ca02c"/><circle cx="1297.8" cy="1220.1" r="2.8" fill="#2ca02c"/><circle cx="1505.0" cy="1224.1" r="2.8" fill="#2ca02c"/><text class="small" x="845.0" y="1101.25" transform="rotate(-90 845.0,1101.25)" text-anchor="middle">uProf GB/s per thread</text><text x="432.5" y="1347.5" text-anchor="middle" font-size="18">mixed target0</text><line class="grid" x1="145.0" y1="1372.5" x2="760.0" y2="1372.5"/><text class="small" x="137.0" y="1376.5" text-anchor="end">45</text><line class="grid" x1="145.0" y1="1427.0" x2="760.0" y2="1427.0"/><text class="small" x="137.0" y="1431.0" text-anchor="end">36</text><line class="grid" x1="145.0" y1="1481.5" x2="760.0" y2="1481.5"/><text class="small" x="137.0" y="1485.5" text-anchor="end">27</text><line class="grid" x1="145.0" y1="1536.0" x2="760.0" y2="1536.0"/><text class="small" x="137.0" y="1540.0" text-anchor="end">18</text><line class="grid" x1="145.0" y1="1590.5" x2="760.0" y2="1590.5"/><text class="small" x="137.0" y="1594.5" text-anchor="end">9</text><line class="grid" x1="145.0" y1="1645.0" x2="760.0" y2="1645.0"/><text class="small" x="137.0" y="1649.0" text-anchor="end">0</text><line class="axis" x1="145.0" y1="1645.0" x2="760.0" y2="1645.0"/><line class="axis" x1="145.0" y1="1372.5" x2="145.0" y2="1645.0"/><line class="grid" x1="145.0" y1="1645.0" x2="145.0" y2="1650.0"/><text class="small" x="145.0" y="1665.0" text-anchor="middle">1</text><line class="grid" x1="151.47368421052633" y1="1645.0" x2="151.47368421052633" y2="1650.0"/><text class="small" x="151.47368421052633" y="1665.0" text-anchor="middle">2</text><line class="grid" x1="164.42105263157896" y1="1645.0" x2="164.42105263157896" y2="1650.0"/><text class="small" x="164.42105263157896" y="1665.0" text-anchor="middle">4</text><line class="grid" x1="190.31578947368422" y1="1645.0" x2="190.31578947368422" y2="1650.0"/><text class="small" x="190.31578947368422" y="1665.0" text-anchor="middle">8</text><line class="grid" x1="216.21052631578948" y1="1645.0" x2="216.21052631578948" y2="1650.0"/><text class="small" x="216.21052631578948" y="1665.0" text-anchor="middle">12</text><line class="grid" x1="242.10526315789474" y1="1645.0" x2="242.10526315789474" y2="1650.0"/><text class="small" x="242.10526315789474" y="1665.0" text-anchor="middle">16</text><line class="grid" x1="293.89473684210526" y1="1645.0" x2="293.89473684210526" y2="1650.0"/><text class="small" x="293.89473684210526" y="1665.0" text-anchor="middle">24</text><line class="grid" x1="345.6842105263158" y1="1645.0" x2="345.6842105263158" y2="1650.0"/><text class="small" x="345.6842105263158" y="1665.0" text-anchor="middle">32</text><line class="grid" x1="449.2631578947368" y1="1645.0" x2="449.2631578947368" y2="1650.0"/><text class="small" x="449.2631578947368" y="1665.0" text-anchor="middle">48</text><line class="grid" x1="552.8421052631579" y1="1645.0" x2="552.8421052631579" y2="1650.0"/><text class="small" x="552.8421052631579" y="1665.0" text-anchor="middle">64</text><line class="grid" x1="760.0" y1="1645.0" x2="760.0" y2="1650.0"/><text class="small" x="760.0" y="1665.0" text-anchor="middle">96</text><polyline fill="none" stroke="#1f77b4" stroke-width="2.5" points="145.0,1434.8 151.5,1445.7 164.4,1485.6 190.3,1537.8 216.2,1572.4 242.1,1590.3 293.9,1608.7 345.7,1618.0 449.3,1626.0 552.8,1631.5 760.0,1635.4"/><circle cx="145.0" cy="1434.8" r="2.8" fill="#1f77b4"/><circle cx="151.5" cy="1445.7" r="2.8" fill="#1f77b4"/><circle cx="164.4" cy="1485.6" r="2.8" fill="#1f77b4"/><circle cx="190.3" cy="1537.8" r="2.8" fill="#1f77b4"/><circle cx="216.2" cy="1572.4" r="2.8" fill="#1f77b4"/><circle cx="242.1" cy="1590.3" r="2.8" fill="#1f77b4"/><circle cx="293.9" cy="1608.7" r="2.8" fill="#1f77b4"/><circle cx="345.7" cy="1618.0" r="2.8" fill="#1f77b4"/><circle cx="449.3" cy="1626.0" r="2.8" fill="#1f77b4"/><circle cx="552.8" cy="1631.5" r="2.8" fill="#1f77b4"/><circle cx="760.0" cy="1635.4" r="2.8" fill="#1f77b4"/><polyline fill="none" stroke="#d62728" stroke-width="2.5" points="145.0,1432.9 151.5,1445.3 164.4,1486.0 190.3,1539.7 216.2,1572.2 242.1,1590.4 293.9,1608.7 345.7,1618.1 449.3,1626.1 552.8,1631.8 760.0,1635.7"/><circle cx="145.0" cy="1432.9" r="2.8" fill="#d62728"/><circle cx="151.5" cy="1445.3" r="2.8" fill="#d62728"/><circle cx="164.4" cy="1486.0" r="2.8" fill="#d62728"/><circle cx="190.3" cy="1539.7" r="2.8" fill="#d62728"/><circle cx="216.2" cy="1572.2" r="2.8" fill="#d62728"/><circle cx="242.1" cy="1590.4" r="2.8" fill="#d62728"/><circle cx="293.9" cy="1608.7" r="2.8" fill="#d62728"/><circle cx="345.7" cy="1618.1" r="2.8" fill="#d62728"/><circle cx="449.3" cy="1626.1" r="2.8" fill="#d62728"/><circle cx="552.8" cy="1631.8" r="2.8" fill="#d62728"/><circle cx="760.0" cy="1635.7" r="2.8" fill="#d62728"/><polyline fill="none" stroke="#2ca02c" stroke-width="2.5" points="145.0,1434.1 151.5,1448.1 164.4,1482.4 190.3,1538.5 216.2,1572.4 242.1,1589.6 293.9,1608.9 345.7,1617.9 449.3,1626.5 552.8,1631.6 760.0,1635.4"/><circle cx="145.0" cy="1434.1" r="2.8" fill="#2ca02c"/><circle cx="151.5" cy="1448.1" r="2.8" fill="#2ca02c"/><circle cx="164.4" cy="1482.4" r="2.8" fill="#2ca02c"/><circle cx="190.3" cy="1538.5" r="2.8" fill="#2ca02c"/><circle cx="216.2" cy="1572.4" r="2.8" fill="#2ca02c"/><circle cx="242.1" cy="1589.6" r="2.8" fill="#2ca02c"/><circle cx="293.9" cy="1608.9" r="2.8" fill="#2ca02c"/><circle cx="345.7" cy="1617.9" r="2.8" fill="#2ca02c"/><circle cx="449.3" cy="1626.5" r="2.8" fill="#2ca02c"/><circle cx="552.8" cy="1631.6" r="2.8" fill="#2ca02c"/><circle cx="760.0" cy="1635.4" r="2.8" fill="#2ca02c"/><text class="small" x="100.0" y="1513.75" transform="rotate(-90 100.0,1513.75)" text-anchor="middle">uProf GB/s per thread</text><text x="1177.5" y="1347.5" text-anchor="middle" font-size="18">mixed target1</text><line class="grid" x1="890.0" y1="1372.5" x2="1505.0" y2="1372.5"/><text class="small" x="882.0" y="1376.5" text-anchor="end">45</text><line class="grid" x1="890.0" y1="1427.0" x2="1505.0" y2="1427.0"/><text class="small" x="882.0" y="1431.0" text-anchor="end">36</text><line class="grid" x1="890.0" y1="1481.5" x2="1505.0" y2="1481.5"/><text class="small" x="882.0" y="1485.5" text-anchor="end">27</text><line class="grid" x1="890.0" y1="1536.0" x2="1505.0" y2="1536.0"/><text class="small" x="882.0" y="1540.0" text-anchor="end">18</text><line class="grid" x1="890.0" y1="1590.5" x2="1505.0" y2="1590.5"/><text class="small" x="882.0" y="1594.5" text-anchor="end">9</text><line class="grid" x1="890.0" y1="1645.0" x2="1505.0" y2="1645.0"/><text class="small" x="882.0" y="1649.0" text-anchor="end">0</text><line class="axis" x1="890.0" y1="1645.0" x2="1505.0" y2="1645.0"/><line class="axis" x1="890.0" y1="1372.5" x2="890.0" y2="1645.0"/><line class="grid" x1="890.0" y1="1645.0" x2="890.0" y2="1650.0"/><text class="small" x="890.0" y="1665.0" text-anchor="middle">1</text><line class="grid" x1="896.4736842105264" y1="1645.0" x2="896.4736842105264" y2="1650.0"/><text class="small" x="896.4736842105264" y="1665.0" text-anchor="middle">2</text><line class="grid" x1="909.421052631579" y1="1645.0" x2="909.421052631579" y2="1650.0"/><text class="small" x="909.421052631579" y="1665.0" text-anchor="middle">4</text><line class="grid" x1="935.3157894736842" y1="1645.0" x2="935.3157894736842" y2="1650.0"/><text class="small" x="935.3157894736842" y="1665.0" text-anchor="middle">8</text><line class="grid" x1="961.2105263157895" y1="1645.0" x2="961.2105263157895" y2="1650.0"/><text class="small" x="961.2105263157895" y="1665.0" text-anchor="middle">12</text><line class="grid" x1="987.1052631578948" y1="1645.0" x2="987.1052631578948" y2="1650.0"/><text class="small" x="987.1052631578948" y="1665.0" text-anchor="middle">16</text><line class="grid" x1="1038.8947368421052" y1="1645.0" x2="1038.8947368421052" y2="1650.0"/><text class="small" x="1038.8947368421052" y="1665.0" text-anchor="middle">24</text><line class="grid" x1="1090.6842105263158" y1="1645.0" x2="1090.6842105263158" y2="1650.0"/><text class="small" x="1090.6842105263158" y="1665.0" text-anchor="middle">32</text><line class="grid" x1="1194.2631578947369" y1="1645.0" x2="1194.2631578947369" y2="1650.0"/><text class="small" x="1194.2631578947369" y="1665.0" text-anchor="middle">48</text><line class="grid" x1="1297.842105263158" y1="1645.0" x2="1297.842105263158" y2="1650.0"/><text class="small" x="1297.842105263158" y="1665.0" text-anchor="middle">64</text><line class="grid" x1="1505.0" y1="1645.0" x2="1505.0" y2="1650.0"/><text class="small" x="1505.0" y="1665.0" text-anchor="middle">96</text><polyline fill="none" stroke="#1f77b4" stroke-width="2.5" points="890.0,1425.0 896.5,1436.3 909.4,1476.6 935.3,1532.6 961.2,1567.2 987.1,1586.8 1038.9,1605.2 1090.7,1615.1 1194.3,1624.6 1297.8,1630.6 1505.0,1634.9"/><circle cx="890.0" cy="1425.0" r="2.8" fill="#1f77b4"/><circle cx="896.5" cy="1436.3" r="2.8" fill="#1f77b4"/><circle cx="909.4" cy="1476.6" r="2.8" fill="#1f77b4"/><circle cx="935.3" cy="1532.6" r="2.8" fill="#1f77b4"/><circle cx="961.2" cy="1567.2" r="2.8" fill="#1f77b4"/><circle cx="987.1" cy="1586.8" r="2.8" fill="#1f77b4"/><circle cx="1038.9" cy="1605.2" r="2.8" fill="#1f77b4"/><circle cx="1090.7" cy="1615.1" r="2.8" fill="#1f77b4"/><circle cx="1194.3" cy="1624.6" r="2.8" fill="#1f77b4"/><circle cx="1297.8" cy="1630.6" r="2.8" fill="#1f77b4"/><circle cx="1505.0" cy="1634.9" r="2.8" fill="#1f77b4"/><polyline fill="none" stroke="#d62728" stroke-width="2.5" points="890.0,1421.8 896.5,1434.7 909.4,1479.8 935.3,1534.1 961.2,1568.7 987.1,1587.1 1038.9,1606.1 1090.7,1615.2 1194.3,1624.6 1297.8,1630.6 1505.0,1635.0"/><circle cx="890.0" cy="1421.8" r="2.8" fill="#d62728"/><circle cx="896.5" cy="1434.7" r="2.8" fill="#d62728"/><circle cx="909.4" cy="1479.8" r="2.8" fill="#d62728"/><circle cx="935.3" cy="1534.1" r="2.8" fill="#d62728"/><circle cx="961.2" cy="1568.7" r="2.8" fill="#d62728"/><circle cx="987.1" cy="1587.1" r="2.8" fill="#d62728"/><circle cx="1038.9" cy="1606.1" r="2.8" fill="#d62728"/><circle cx="1090.7" cy="1615.2" r="2.8" fill="#d62728"/><circle cx="1194.3" cy="1624.6" r="2.8" fill="#d62728"/><circle cx="1297.8" cy="1630.6" r="2.8" fill="#d62728"/><circle cx="1505.0" cy="1635.0" r="2.8" fill="#d62728"/><polyline fill="none" stroke="#2ca02c" stroke-width="2.5" points="890.0,1422.9 896.5,1435.9 909.4,1480.0 935.3,1533.3 961.2,1567.0 987.1,1586.9 1038.9,1605.9 1090.7,1615.2 1194.3,1624.6 1297.8,1630.9 1505.0,1634.9"/><circle cx="890.0" cy="1422.9" r="2.8" fill="#2ca02c"/><circle cx="896.5" cy="1435.9" r="2.8" fill="#2ca02c"/><circle cx="909.4" cy="1480.0" r="2.8" fill="#2ca02c"/><circle cx="935.3" cy="1533.3" r="2.8" fill="#2ca02c"/><circle cx="961.2" cy="1567.0" r="2.8" fill="#2ca02c"/><circle cx="987.1" cy="1586.9" r="2.8" fill="#2ca02c"/><circle cx="1038.9" cy="1605.9" r="2.8" fill="#2ca02c"/><circle cx="1090.7" cy="1615.2" r="2.8" fill="#2ca02c"/><circle cx="1194.3" cy="1624.6" r="2.8" fill="#2ca02c"/><circle cx="1297.8" cy="1630.9" r="2.8" fill="#2ca02c"/><circle cx="1505.0" cy="1634.9" r="2.8" fill="#2ca02c"/><text class="small" x="845.0" y="1513.75" transform="rotate(-90 845.0,1513.75)" text-anchor="middle">uProf GB/s per thread</text></svg>