<svg xmlns="http://www.w3.org/2000/svg" width="1100" height="650" viewBox="0 0 1100 650"><style>text{font-family:monospace;fill:#111}.small{font-size:14px}.axis{stroke:#444;stroke-width:1}.grid{stroke:#ddd;stroke-width:1}</style><rect x="0" y="0" width="1100" height="650" fill="white"/><text x="550.0" y="36" text-anchor="middle" font-size="24">mixed target1 components (4KiB)</text><line class="grid" x1="90" y1="80.0" x2="1010" y2="80.0"/><text class="small" x="82" y="84.0" text-anchor="end">225</text><line class="grid" x1="90" y1="172.0" x2="1010" y2="172.0"/><text class="small" x="82" y="176.0" text-anchor="end">180</text><line class="grid" x1="90" y1="264.0" x2="1010" y2="264.0"/><text class="small" x="82" y="268.0" text-anchor="end">135</text><line class="grid" x1="90" y1="356.0" x2="1010" y2="356.0"/><text class="small" x="82" y="360.0" text-anchor="end">90</text><line class="grid" x1="90" y1="448.0" x2="1010" y2="448.0"/><text class="small" x="82" y="452.0" text-anchor="end">45</text><line class="grid" x1="90" y1="540.0" x2="1010" y2="540.0"/><text class="small" x="82" y="544.0" text-anchor="end">0</text><line class="axis" x1="90" y1="540" x2="1010" y2="540"/><line class="axis" x1="90" y1="80" x2="90" y2="540"/><text class="small" x="90.0" y="560" text-anchor="middle">1</text><text class="small" x="99.6842105263158" y="560" text-anchor="middle">2</text><text class="small" x="119.05263157894737" y="560" text-anchor="middle">4</text><text class="small" x="157.78947368421052" y="560" text-anchor="middle">8</text><text class="small" x="196.5263157894737" y="560" text-anchor="middle">12</text><text class="small" x="235.26315789473685" y="560" text-anchor="middle">16</text><text class="small" x="312.7368421052631" y="560" text-anchor="middle">24</text><text class="small" x="390.2105263157895" y="560" text-anchor="middle">32</text><text class="small" x="545.1578947368421" y="560" text-anchor="middle">48</text><text class="small" x="700.1052631578947" y="560" text-anchor="middle">64</text><text class="small" x="1010.0" y="560" text-anchor="middle">96</text><line x1="90" y1="52" x2="118" y2="52" stroke="#1f77b4" stroke-width="3"/><text x="124" y="57" font-size="14">1302 local</text><line x1="210" y1="52" x2="238" y2="52" stroke="#1f77b4" stroke-width="2" stroke-dasharray="6,4"/><text x="244" y="57" font-size="14">1302 remote</text><line x1="390" y1="52" x2="418" y2="52" stroke="#d62728" stroke-width="3"/><text x="424" y="57" font-size="14">1306 local</text><line x1="510" y1="52" x2="538" y2="52" stroke="#d62728" stroke-width="2" stroke-dasharray="6,4"/><text x="544" y="57" font-size="14">1306 remote</text><line x1="690" y1="52" x2="718" y2="52" stroke="#2ca02c" stroke-width="3"/><text x="724" y="57" font-size="14">1308 local</text><line x1="810" y1="52" x2="838" y2="52" stroke="#2ca02c" stroke-width="2" stroke-dasharray="6,4"/><text x="844" y="57" font-size="14">1308 remote</text><polyline fill="none" stroke="#1f77b4" stroke-width="2.5" points="90.0,466.8 99.7,409.1 119.1,323.7 157.8,243.7 196.5,196.1 235.3,202.2 312.7,208.1 390.2,213.7 545.2,218.5 700.1,216.5 1010.0,216.9"/><circle cx="90.0" cy="466.8" r="2.5" fill="#1f77b4"/><circle cx="99.7" cy="409.1" r="2.5" fill="#1f77b4"/><circle cx="119.1" cy="323.7" r="2.5" fill="#1f77b4"/><circle cx="157.8" cy="243.7" r="2.5" fill="#1f77b4"/><circle cx="196.5" cy="196.1" r="2.5" fill="#1f77b4"/><circle cx="235.3" cy="202.2" r="2.5" fill="#1f77b4"/><circle cx="312.7" cy="208.1" r="2.5" fill="#1f77b4"/><circle cx="390.2" cy="213.7" r="2.5" fill="#1f77b4"/><circle cx="545.2" cy="218.5" r="2.5" fill="#1f77b4"/><circle cx="700.1" cy="216.5" r="2.5" fill="#1f77b4"/><circle cx="1010.0" cy="216.9" r="2.5" fill="#1f77b4"/><polyline fill="none" stroke="#1f77b4" stroke-width="2.5" stroke-dasharray="6,4" points="90.0,494.9 99.7,454.7 119.1,403.1 157.8,351.9 196.5,386.0 235.3,401.5 312.7,419.3 390.2,421.9 545.2,421.1 700.1,421.2 1010.0,419.6"/><circle cx="90.0" cy="494.9" r="2.5" fill="#1f77b4"/><circle cx="99.7" cy="454.7" r="2.5" fill="#1f77b4"/><circle cx="119.1" cy="403.1" r="2.5" fill="#1f77b4"/><circle cx="157.8" cy="351.9" r="2.5" fill="#1f77b4"/><circle cx="196.5" cy="386.0" r="2.5" fill="#1f77b4"/><circle cx="235.3" cy="401.5" r="2.5" fill="#1f77b4"/><circle cx="312.7" cy="419.3" r="2.5" fill="#1f77b4"/><circle cx="390.2" cy="421.9" r="2.5" fill="#1f77b4"/><circle cx="545.2" cy="421.1" r="2.5" fill="#1f77b4"/><circle cx="700.1" cy="421.2" r="2.5" fill="#1f77b4"/><circle cx="1010.0" cy="419.6" r="2.5" fill="#1f77b4"/><polyline fill="none" stroke="#d62728" stroke-width="2.5" points="90.0,466.8 99.7,409.6 119.1,325.7 157.8,247.1 196.5,195.9 235.3,204.5 312.7,210.0 390.2,214.0 545.2,218.1 700.1,216.8 1010.0,218.2"/><circle cx="90.0" cy="466.8" r="2.5" fill="#d62728"/><circle cx="99.7" cy="409.6" r="2.5" fill="#d62728"/><circle cx="119.1" cy="325.7" r="2.5" fill="#d62728"/><circle cx="157.8" cy="247.1" r="2.5" fill="#d62728"/><circle cx="196.5" cy="195.9" r="2.5" fill="#d62728"/><circle cx="235.3" cy="204.5" r="2.5" fill="#d62728"/><circle cx="312.7" cy="210.0" r="2.5" fill="#d62728"/><circle cx="390.2" cy="214.0" r="2.5" fill="#d62728"/><circle cx="545.2" cy="218.1" r="2.5" fill="#d62728"/><circle cx="700.1" cy="216.8" r="2.5" fill="#d62728"/><circle cx="1010.0" cy="218.2" r="2.5" fill="#d62728"/><polyline fill="none" stroke="#d62728" stroke-width="2.5" stroke-dasharray="6,4" points="90.0,495.1 99.7,455.5 119.1,401.1 157.8,350.0 196.5,387.1 235.3,399.1 312.7,417.7 390.2,419.6 545.2,422.7 700.1,421.9 1010.0,420.6"/><circle cx="90.0" cy="495.1" r="2.5" fill="#d62728"/><circle cx="99.7" cy="455.5" r="2.5" fill="#d62728"/><circle cx="119.1" cy="401.1" r="2.5" fill="#d62728"/><circle cx="157.8" cy="350.0" r="2.5" fill="#d62728"/><circle cx="196.5" cy="387.1" r="2.5" fill="#d62728"/><circle cx="235.3" cy="399.1" r="2.5" fill="#d62728"/><circle cx="312.7" cy="417.7" r="2.5" fill="#d62728"/><circle cx="390.2" cy="419.6" r="2.5" fill="#d62728"/><circle cx="545.2" cy="422.7" r="2.5" fill="#d62728"/><circle cx="700.1" cy="421.9" r="2.5" fill="#d62728"/><circle cx="1010.0" cy="420.6" r="2.5" fill="#d62728"/><polyline fill="none" stroke="#2ca02c" stroke-width="2.5" points="90.0,467.2 99.7,405.5 119.1,324.8 157.8,244.1 196.5,197.8 235.3,202.5 312.7,208.3 390.2,214.8 545.2,218.3 700.1,217.0 1010.0,215.7"/><circle cx="90.0" cy="467.2" r="2.5" fill="#2ca02c"/><circle cx="99.7" cy="405.5" r="2.5" fill="#2ca02c"/><circle cx="119.1" cy="324.8" r="2.5" fill="#2ca02c"/><circle cx="157.8" cy="244.1" r="2.5" fill="#2ca02c"/><circle cx="196.5" cy="197.8" r="2.5" fill="#2ca02c"/><circle cx="235.3" cy="202.5" r="2.5" fill="#2ca02c"/><circle cx="312.7" cy="208.3" r="2.5" fill="#2ca02c"/><circle cx="390.2" cy="214.8" r="2.5" fill="#2ca02c"/><circle cx="545.2" cy="218.3" r="2.5" fill="#2ca02c"/><circle cx="700.1" cy="217.0" r="2.5" fill="#2ca02c"/><circle cx="1010.0" cy="215.7" r="2.5" fill="#2ca02c"/><polyline fill="none" stroke="#2ca02c" stroke-width="2.5" stroke-dasharray="6,4" points="90.0,495.6 99.7,453.9 119.1,404.1 157.8,351.9 196.5,385.1 235.3,400.7 312.7,418.8 390.2,420.7 545.2,421.8 700.1,423.0 1010.0,418.6"/><circle cx="90.0" cy="495.6" r="2.5" fill="#2ca02c"/><circle cx="99.7" cy="453.9" r="2.5" fill="#2ca02c"/><circle cx="119.1" cy="404.1" r="2.5" fill="#2ca02c"/><circle cx="157.8" cy="351.9" r="2.5" fill="#2ca02c"/><circle cx="196.5" cy="385.1" r="2.5" fill="#2ca02c"/><circle cx="235.3" cy="400.7" r="2.5" fill="#2ca02c"/><circle cx="312.7" cy="418.8" r="2.5" fill="#2ca02c"/><circle cx="390.2" cy="420.7" r="2.5" fill="#2ca02c"/><circle cx="545.2" cy="421.8" r="2.5" fill="#2ca02c"/><circle cx="700.1" cy="423.0" r="2.5" fill="#2ca02c"/><circle cx="1010.0" cy="418.6" r="2.5" fill="#2ca02c"/></svg>