<svg xmlns="http://www.w3.org/2000/svg" width="1600" height="1800" viewBox="0 0 1600 1800"><style>text{font-family:monospace;fill:#111}.small{font-size:14px}.axis{stroke:#444;stroke-width:1}.grid{stroke:#ddd;stroke-width:1}</style><rect x="0" y="0" width="1600" height="1800" fill="white"/><text x="800.0" y="40" text-anchor="middle" font-size="24">mem_bw_stress aggregate throughput vs threads (4KiB)</text><text x="800.0" y="70" text-anchor="middle" font-size="16">threads per process on X axis</text><line x1="1320" y1="30" x2="1348" y2="30" stroke="#1f77b4" stroke-width="3"/><text x="1356" y="35" font-size="14">1302</text><line x1="1320" y1="54" x2="1348" y2="54" stroke="#d62728" stroke-width="3"/><text x="1356" y="59" font-size="14">1306</text><line x1="1320" y1="78" x2="1348" y2="78" stroke="#2ca02c" stroke-width="3"/><text x="1356" y="83" font-size="14">1308</text><text x="432.5" y="110.0" text-anchor="middle" font-size="18">local numa0</text><line class="grid" x1="145.0" y1="135.0" x2="760.0" y2="135.0"/><text class="small" x="137.0" y="139.0" text-anchor="end">275</text><line class="grid" x1="145.0" y1="189.5" x2="760.0" y2="189.5"/><text class="small" x="137.0" y="193.5" text-anchor="end">220</text><line class="grid" x1="145.0" y1="244.0" x2="760.0" y2="244.0"/><text class="small" x="137.0" y="248.0" text-anchor="end">165</text><line class="grid" x1="145.0" y1="298.5" x2="760.0" y2="298.5"/><text class="small" x="137.0" y="302.5" text-anchor="end">110</text><line class="grid" x1="145.0" y1="353.0" x2="760.0" y2="353.0"/><text class="small" x="137.0" y="357.0" text-anchor="end">55</text><line class="grid" x1="145.0" y1="407.5" x2="760.0" y2="407.5"/><text class="small" x="137.0" y="411.5" text-anchor="end">0</text><line class="axis" x1="145.0" y1="407.5" x2="760.0" y2="407.5"/><line class="axis" x1="145.0" y1="135.0" x2="145.0" y2="407.5"/><line class="grid" x1="145.0" y1="407.5" x2="145.0" y2="412.5"/><text class="small" x="145.0" y="427.5" text-anchor="middle">1</text><line class="grid" x1="151.47368421052633" y1="407.5" x2="151.47368421052633" y2="412.5"/><text class="small" x="151.47368421052633" y="427.5" text-anchor="middle">2</text><line class="grid" x1="164.42105263157896" y1="407.5" x2="164.42105263157896" y2="412.5"/><text class="small" x="164.42105263157896" y="427.5" text-anchor="middle">4</text><line class="grid" x1="190.31578947368422" y1="407.5" x2="190.31578947368422" y2="412.5"/><text class="small" x="190.31578947368422" y="427.5" text-anchor="middle">8</text><line class="grid" x1="216.21052631578948" y1="407.5" x2="216.21052631578948" y2="412.5"/><text class="small" x="216.21052631578948" y="427.5" text-anchor="middle">12</text><line class="grid" x1="242.10526315789474" y1="407.5" x2="242.10526315789474" y2="412.5"/><text class="small" x="242.10526315789474" y="427.5" text-anchor="middle">16</text><line class="grid" x1="293.89473684210526" y1="407.5" x2="293.89473684210526" y2="412.5"/><text class="small" x="293.89473684210526" y="427.5" text-anchor="middle">24</text><line class="grid" x1="345.6842105263158" y1="407.5" x2="345.6842105263158" y2="412.5"/><text class="small" x="345.6842105263158" y="427.5" text-anchor="middle">32</text><line class="grid" x1="449.2631578947368" y1="407.5" x2="449.2631578947368" y2="412.5"/><text class="small" x="449.2631578947368" y="427.5" text-anchor="middle">48</text><line class="grid" x1="552.8421052631579" y1="407.5" x2="552.8421052631579" y2="412.5"/><text class="small" x="552.8421052631579" y="427.5" text-anchor="middle">64</text><line class="grid" x1="760.0" y1="407.5" x2="760.0" y2="412.5"/><text class="small" x="760.0" y="427.5" text-anchor="middle">96</text><polyline fill="none" stroke="#1f77b4" stroke-width="2.5" points="145.0,370.7 151.5,336.7 164.4,287.2 190.3,213.4 216.2,174.0 242.1,177.9 293.9,183.6 345.7,189.2 449.3,193.3 552.8,194.9 760.0,196.0"/><circle cx="145.0" cy="370.7" r="2.8" fill="#1f77b4"/><circle cx="151.5" cy="336.7" r="2.8" fill="#1f77b4"/><circle cx="164.4" cy="287.2" r="2.8" fill="#1f77b4"/><circle cx="190.3" cy="213.4" r="2.8" fill="#1f77b4"/><circle cx="216.2" cy="174.0" r="2.8" fill="#1f77b4"/><circle cx="242.1" cy="177.9" r="2.8" fill="#1f77b4"/><circle cx="293.9" cy="183.6" r="2.8" fill="#1f77b4"/><circle cx="345.7" cy="189.2" r="2.8" fill="#1f77b4"/><circle cx="449.3" cy="193.3" r="2.8" fill="#1f77b4"/><circle cx="552.8" cy="194.9" r="2.8" fill="#1f77b4"/><circle cx="760.0" cy="196.0" r="2.8" fill="#1f77b4"/><polyline fill="none" stroke="#d62728" stroke-width="2.5" points="145.0,371.3 151.5,339.3 164.4,288.3 190.3,214.2 216.2,173.6 242.1,179.4 293.9,186.3 345.7,189.2 449.3,193.5 552.8,194.9 760.0,196.0"/><circle cx="145.0" cy="371.3" r="2.8" fill="#d62728"/><circle cx="151.5" cy="339.3" r="2.8" fill="#d62728"/><circle cx="164.4" cy="288.3" r="2.8" fill="#d62728"/><circle cx="190.3" cy="214.2" r="2.8" fill="#d62728"/><circle cx="216.2" cy="173.6" r="2.8" fill="#d62728"/><circle cx="242.1" cy="179.4" r="2.8" fill="#d62728"/><circle cx="293.9" cy="186.3" r="2.8" fill="#d62728"/><circle cx="345.7" cy="189.2" r="2.8" fill="#d62728"/><circle cx="449.3" cy="193.5" r="2.8" fill="#d62728"/><circle cx="552.8" cy="194.9" r="2.8" fill="#d62728"/><circle cx="760.0" cy="196.0" r="2.8" fill="#d62728"/><polyline fill="none" stroke="#2ca02c" stroke-width="2.5" points="145.0,370.5 151.5,339.4 164.4,289.9 190.3,208.5 216.2,174.8 242.1,178.5 293.9,184.6 345.7,191.2 449.3,193.5 552.8,195.0 760.0,196.2"/><circle cx="145.0" cy="370.5" r="2.8" fill="#2ca02c"/><circle cx="151.5" cy="339.4" r="2.8" fill="#2ca02c"/><circle cx="164.4" cy="289.9" r="2.8" fill="#2ca02c"/><circle cx="190.3" cy="208.5" r="2.8" fill="#2ca02c"/><circle cx="216.2" cy="174.8" r="2.8" fill="#2ca02c"/><circle cx="242.1" cy="178.5" r="2.8" fill="#2ca02c"/><circle cx="293.9" cy="184.6" r="2.8" fill="#2ca02c"/><circle cx="345.7" cy="191.2" r="2.8" fill="#2ca02c"/><circle cx="449.3" cy="193.5" r="2.8" fill="#2ca02c"/><circle cx="552.8" cy="195.0" r="2.8" fill="#2ca02c"/><circle cx="760.0" cy="196.2" r="2.8" fill="#2ca02c"/><text class="small" x="100.0" y="276.25" transform="rotate(-90 100.0,276.25)" text-anchor="middle">bench traffic GB/s</text><text x="1177.5" y="110.0" text-anchor="middle" font-size="18">local numa1</text><line class="grid" x1="890.0" y1="135.0" x2="1505.0" y2="135.0"/><text class="small" x="882.0" y="139.0" text-anchor="end">275</text><line class="grid" x1="890.0" y1="189.5" x2="1505.0" y2="189.5"/><text class="small" x="882.0" y="193.5" text-anchor="end">220</text><line class="grid" x1="890.0" y1="244.0" x2="1505.0" y2="244.0"/><text class="small" x="882.0" y="248.0" text-anchor="end">165</text><line class="grid" x1="890.0" y1="298.5" x2="1505.0" y2="298.5"/><text class="small" x="882.0" y="302.5" text-anchor="end">110</text><line class="grid" x1="890.0" y1="353.0" x2="1505.0" y2="353.0"/><text class="small" x="882.0" y="357.0" text-anchor="end">55</text><line class="grid" x1="890.0" y1="407.5" x2="1505.0" y2="407.5"/><text class="small" x="882.0" y="411.5" text-anchor="end">0</text><line class="axis" x1="890.0" y1="407.5" x2="1505.0" y2="407.5"/><line class="axis" x1="890.0" y1="135.0" x2="890.0" y2="407.5"/><line class="grid" x1="890.0" y1="407.5" x2="890.0" y2="412.5"/><text class="small" x="890.0" y="427.5" text-anchor="middle">1</text><line class="grid" x1="896.4736842105264" y1="407.5" x2="896.4736842105264" y2="412.5"/><text class="small" x="896.4736842105264" y="427.5" text-anchor="middle">2</text><line class="grid" x1="909.421052631579" y1="407.5" x2="909.421052631579" y2="412.5"/><text class="small" x="909.421052631579" y="427.5" text-anchor="middle">4</text><line class="grid" x1="935.3157894736842" y1="407.5" x2="935.3157894736842" y2="412.5"/><text class="small" x="935.3157894736842" y="427.5" text-anchor="middle">8</text><line class="grid" x1="961.2105263157895" y1="407.5" x2="961.2105263157895" y2="412.5"/><text class="small" x="961.2105263157895" y="427.5" text-anchor="middle">12</text><line class="grid" x1="987.1052631578948" y1="407.5" x2="987.1052631578948" y2="412.5"/><text class="small" x="987.1052631578948" y="427.5" text-anchor="middle">16</text><line class="grid" x1="1038.8947368421052" y1="407.5" x2="1038.8947368421052" y2="412.5"/><text class="small" x="1038.8947368421052" y="427.5" text-anchor="middle">24</text><line class="grid" x1="1090.6842105263158" y1="407.5" x2="1090.6842105263158" y2="412.5"/><text class="small" x="1090.6842105263158" y="427.5" text-anchor="middle">32</text><line class="grid" x1="1194.2631578947369" y1="407.5" x2="1194.2631578947369" y2="412.5"/><text class="small" x="1194.2631578947369" y="427.5" text-anchor="middle">48</text><line class="grid" x1="1297.842105263158" y1="407.5" x2="1297.842105263158" y2="412.5"/><text class="small" x="1297.842105263158" y="427.5" text-anchor="middle">64</text><line class="grid" x1="1505.0" y1="407.5" x2="1505.0" y2="412.5"/><text class="small" x="1505.0" y="427.5" text-anchor="middle">96</text><polyline fill="none" stroke="#1f77b4" stroke-width="2.5" points="890.0,370.9 896.5,340.7 909.4,289.0 935.3,208.3 961.2,173.8 987.1,179.9 1038.9,185.0 1090.7,189.6 1194.3,193.4 1297.8,195.0 1505.0,196.2"/><circle cx="890.0" cy="370.9" r="2.8" fill="#1f77b4"/><circle cx="896.5" cy="340.7" r="2.8" fill="#1f77b4"/><circle cx="909.4" cy="289.0" r="2.8" fill="#1f77b4"/><circle cx="935.3" cy="208.3" r="2.8" fill="#1f77b4"/><circle cx="961.2" cy="173.8" r="2.8" fill="#1f77b4"/><circle cx="987.1" cy="179.9" r="2.8" fill="#1f77b4"/><circle cx="1038.9" cy="185.0" r="2.8" fill="#1f77b4"/><circle cx="1090.7" cy="189.6" r="2.8" fill="#1f77b4"/><circle cx="1194.3" cy="193.4" r="2.8" fill="#1f77b4"/><circle cx="1297.8" cy="195.0" r="2.8" fill="#1f77b4"/><circle cx="1505.0" cy="196.2" r="2.8" fill="#1f77b4"/><polyline fill="none" stroke="#d62728" stroke-width="2.5" points="890.0,371.1 896.5,340.7 909.4,286.4 935.3,212.6 961.2,175.0 987.1,179.4 1038.9,186.3 1090.7,189.9 1194.3,193.4 1297.8,195.1 1505.0,196.3"/><circle cx="890.0" cy="371.1" r="2.8" fill="#d62728"/><circle cx="896.5" cy="340.7" r="2.8" fill="#d62728"/><circle cx="909.4" cy="286.4" r="2.8" fill="#d62728"/><circle cx="935.3" cy="212.6" r="2.8" fill="#d62728"/><circle cx="961.2" cy="175.0" r="2.8" fill="#d62728"/><circle cx="987.1" cy="179.4" r="2.8" fill="#d62728"/><circle cx="1038.9" cy="186.3" r="2.8" fill="#d62728"/><circle cx="1090.7" cy="189.9" r="2.8" fill="#d62728"/><circle cx="1194.3" cy="193.4" r="2.8" fill="#d62728"/><circle cx="1297.8" cy="195.1" r="2.8" fill="#d62728"/><circle cx="1505.0" cy="196.3" r="2.8" fill="#d62728"/><polyline fill="none" stroke="#2ca02c" stroke-width="2.5" points="890.0,371.4 896.5,337.0 909.4,286.1 935.3,213.5 961.2,173.9 987.1,180.6 1038.9,185.7 1090.7,189.4 1194.3,193.6 1297.8,195.0 1505.0,196.3"/><circle cx="890.0" cy="371.4" r="2.8" fill="#2ca02c"/><circle cx="896.5" cy="337.0" r="2.8" fill="#2ca02c"/><circle cx="909.4" cy="286.1" r="2.8" fill="#2ca02c"/><circle cx="935.3" cy="213.5" r="2.8" fill="#2ca02c"/><circle cx="961.2" cy="173.9" r="2.8" fill="#2ca02c"/><circle cx="987.1" cy="180.6" r="2.8" fill="#2ca02c"/><circle cx="1038.9" cy="185.7" r="2.8" fill="#2ca02c"/><circle cx="1090.7" cy="189.4" r="2.8" fill="#2ca02c"/><circle cx="1194.3" cy="193.6" r="2.8" fill="#2ca02c"/><circle cx="1297.8" cy="195.0" r="2.8" fill="#2ca02c"/><circle cx="1505.0" cy="196.3" r="2.8" fill="#2ca02c"/><text class="small" x="845.0" y="276.25" transform="rotate(-90 845.0,276.25)" text-anchor="middle">bench traffic GB/s</text><text x="432.5" y="522.5" text-anchor="middle" font-size="18">remote 0-&gt;1</text><line class="grid" x1="145.0" y1="547.5" x2="760.0" y2="547.5"/><text class="small" x="137.0" y="551.5" text-anchor="end">150</text><line class="grid" x1="145.0" y1="602.0" x2="760.0" y2="602.0"/><text class="small" x="137.0" y="606.0" text-anchor="end">120</text><line class="grid" x1="145.0" y1="656.5" x2="760.0" y2="656.5"/><text class="small" x="137.0" y="660.5" text-anchor="end">90</text><line class="grid" x1="145.0" y1="711.0" x2="760.0" y2="711.0"/><text class="small" x="137.0" y="715.0" text-anchor="end">60</text><line class="grid" x1="145.0" y1="765.5" x2="760.0" y2="765.5"/><text class="small" x="137.0" y="769.5" text-anchor="end">30</text><line class="grid" x1="145.0" y1="820.0" x2="760.0" y2="820.0"/><text class="small" x="137.0" y="824.0" text-anchor="end">0</text><line class="axis" x1="145.0" y1="820.0" x2="760.0" y2="820.0"/><line class="axis" x1="145.0" y1="547.5" x2="145.0" y2="820.0"/><line class="grid" x1="145.0" y1="820.0" x2="145.0" y2="825.0"/><text class="small" x="145.0" y="840.0" text-anchor="middle">1</text><line class="grid" x1="151.47368421052633" y1="820.0" x2="151.47368421052633" y2="825.0"/><text class="small" x="151.47368421052633" y="840.0" text-anchor="middle">2</text><line class="grid" x1="164.42105263157896" y1="820.0" x2="164.42105263157896" y2="825.0"/><text class="small" x="164.42105263157896" y="840.0" text-anchor="middle">4</text><line class="grid" x1="190.31578947368422" y1="820.0" x2="190.31578947368422" y2="825.0"/><text class="small" x="190.31578947368422" y="840.0" text-anchor="middle">8</text><line class="grid" x1="216.21052631578948" y1="820.0" x2="216.21052631578948" y2="825.0"/><text class="small" x="216.21052631578948" y="840.0" text-anchor="middle">12</text><line class="grid" x1="242.10526315789474" y1="820.0" x2="242.10526315789474" y2="825.0"/><text class="small" x="242.10526315789474" y="840.0" text-anchor="middle">16</text><line class="grid" x1="293.89473684210526" y1="820.0" x2="293.89473684210526" y2="825.0"/><text class="small" x="293.89473684210526" y="840.0" text-anchor="middle">24</text><line class="grid" x1="345.6842105263158" y1="820.0" x2="345.6842105263158" y2="825.0"/><text class="small" x="345.6842105263158" y="840.0" text-anchor="middle">32</text><line class="grid" x1="449.2631578947368" y1="820.0" x2="449.2631578947368" y2="825.0"/><text class="small" x="449.2631578947368" y="840.0" text-anchor="middle">48</text><line class="grid" x1="552.8421052631579" y1="820.0" x2="552.8421052631579" y2="825.0"/><text class="small" x="552.8421052631579" y="840.0" text-anchor="middle">64</text><line class="grid" x1="760.0" y1="820.0" x2="760.0" y2="825.0"/><text class="small" x="760.0" y="840.0" text-anchor="middle">96</text><polyline fill="none" stroke="#1f77b4" stroke-width="2.5" points="145.0,779.5 151.5,741.4 164.4,681.5 190.3,616.2 216.2,609.2 242.1,617.2 293.9,619.6 345.7,619.3 449.3,621.4 552.8,621.0 760.0,620.0"/><circle cx="145.0" cy="779.5" r="2.8" fill="#1f77b4"/><circle cx="151.5" cy="741.4" r="2.8" fill="#1f77b4"/><circle cx="164.4" cy="681.5" r="2.8" fill="#1f77b4"/><circle cx="190.3" cy="616.2" r="2.8" fill="#1f77b4"/><circle cx="216.2" cy="609.2" r="2.8" fill="#1f77b4"/><circle cx="242.1" cy="617.2" r="2.8" fill="#1f77b4"/><circle cx="293.9" cy="619.6" r="2.8" fill="#1f77b4"/><circle cx="345.7" cy="619.3" r="2.8" fill="#1f77b4"/><circle cx="449.3" cy="621.4" r="2.8" fill="#1f77b4"/><circle cx="552.8" cy="621.0" r="2.8" fill="#1f77b4"/><circle cx="760.0" cy="620.0" r="2.8" fill="#1f77b4"/><polyline fill="none" stroke="#d62728" stroke-width="2.5" points="145.0,779.5 151.5,739.6 164.4,678.2 190.3,614.0 216.2,608.7 242.1,616.7 293.9,618.7 345.7,621.0 449.3,621.4 552.8,620.7 760.0,620.2"/><circle cx="145.0" cy="779.5" r="2.8" fill="#d62728"/><circle cx="151.5" cy="739.6" r="2.8" fill="#d62728"/><circle cx="164.4" cy="678.2" r="2.8" fill="#d62728"/><circle cx="190.3" cy="614.0" r="2.8" fill="#d62728"/><circle cx="216.2" cy="608.7" r="2.8" fill="#d62728"/><circle cx="242.1" cy="616.7" r="2.8" fill="#d62728"/><circle cx="293.9" cy="618.7" r="2.8" fill="#d62728"/><circle cx="345.7" cy="621.0" r="2.8" fill="#d62728"/><circle cx="449.3" cy="621.4" r="2.8" fill="#d62728"/><circle cx="552.8" cy="620.7" r="2.8" fill="#d62728"/><circle cx="760.0" cy="620.2" r="2.8" fill="#d62728"/><polyline fill="none" stroke="#2ca02c" stroke-width="2.5" points="145.0,779.4 151.5,738.8 164.4,677.6 190.3,614.6 216.2,606.9 242.1,614.9 293.9,618.4 345.7,620.3 449.3,621.7 552.8,620.4 760.0,620.0"/><circle cx="145.0" cy="779.4" r="2.8" fill="#2ca02c"/><circle cx="151.5" cy="738.8" r="2.8" fill="#2ca02c"/><circle cx="164.4" cy="677.6" r="2.8" fill="#2ca02c"/><circle cx="190.3" cy="614.6" r="2.8" fill="#2ca02c"/><circle cx="216.2" cy="606.9" r="2.8" fill="#2ca02c"/><circle cx="242.1" cy="614.9" r="2.8" fill="#2ca02c"/><circle cx="293.9" cy="618.4" r="2.8" fill="#2ca02c"/><circle cx="345.7" cy="620.3" r="2.8" fill="#2ca02c"/><circle cx="449.3" cy="621.7" r="2.8" fill="#2ca02c"/><circle cx="552.8" cy="620.4" r="2.8" fill="#2ca02c"/><circle cx="760.0" cy="620.0" r="2.8" fill="#2ca02c"/><text class="small" x="100.0" y="688.75" transform="rotate(-90 100.0,688.75)" text-anchor="middle">bench traffic GB/s</text><text x="1177.5" y="522.5" text-anchor="middle" font-size="18">remote 1-&gt;0</text><line class="grid" x1="890.0" y1="547.5" x2="1505.0" y2="547.5"/><text class="small" x="882.0" y="551.5" text-anchor="end">150</text><line class="grid" x1="890.0" y1="602.0" x2="1505.0" y2="602.0"/><text class="small" x="882.0" y="606.0" text-anchor="end">120</text><line class="grid" x1="890.0" y1="656.5" x2="1505.0" y2="656.5"/><text class="small" x="882.0" y="660.5" text-anchor="end">90</text><line class="grid" x1="890.0" y1="711.0" x2="1505.0" y2="711.0"/><text class="small" x="882.0" y="715.0" text-anchor="end">60</text><line class="grid" x1="890.0" y1="765.5" x2="1505.0" y2="765.5"/><text class="small" x="882.0" y="769.5" text-anchor="end">30</text><line class="grid" x1="890.0" y1="820.0" x2="1505.0" y2="820.0"/><text class="small" x="882.0" y="824.0" text-anchor="end">0</text><line class="axis" x1="890.0" y1="820.0" x2="1505.0" y2="820.0"/><line class="axis" x1="890.0" y1="547.5" x2="890.0" y2="820.0"/><line class="grid" x1="890.0" y1="820.0" x2="890.0" y2="825.0"/><text class="small" x="890.0" y="840.0" text-anchor="middle">1</text><line class="grid" x1="896.4736842105264" y1="820.0" x2="896.4736842105264" y2="825.0"/><text class="small" x="896.4736842105264" y="840.0" text-anchor="middle">2</text><line class="grid" x1="909.421052631579" y1="820.0" x2="909.421052631579" y2="825.0"/><text class="small" x="909.421052631579" y="840.0" text-anchor="middle">4</text><line class="grid" x1="935.3157894736842" y1="820.0" x2="935.3157894736842" y2="825.0"/><text class="small" x="935.3157894736842" y="840.0" text-anchor="middle">8</text><line class="grid" x1="961.2105263157895" y1="820.0" x2="961.2105263157895" y2="825.0"/><text class="small" x="961.2105263157895" y="840.0" text-anchor="middle">12</text><line class="grid" x1="987.1052631578948" y1="820.0" x2="987.1052631578948" y2="825.0"/><text class="small" x="987.1052631578948" y="840.0" text-anchor="middle">16</text><line class="grid" x1="1038.8947368421052" y1="820.0" x2="1038.8947368421052" y2="825.0"/><text class="small" x="1038.8947368421052" y="840.0" text-anchor="middle">24</text><line class="grid" x1="1090.6842105263158" y1="820.0" x2="1090.6842105263158" y2="825.0"/><text class="small" x="1090.6842105263158" y="840.0" text-anchor="middle">32</text><line class="grid" x1="1194.2631578947369" y1="820.0" x2="1194.2631578947369" y2="825.0"/><text class="small" x="1194.2631578947369" y="840.0" text-anchor="middle">48</text><line class="grid" x1="1297.842105263158" y1="820.0" x2="1297.842105263158" y2="825.0"/><text class="small" x="1297.842105263158" y="840.0" text-anchor="middle">64</text><line class="grid" x1="1505.0" y1="820.0" x2="1505.0" y2="825.0"/><text class="small" x="1505.0" y="840.0" text-anchor="middle">96</text><polyline fill="none" stroke="#1f77b4" stroke-width="2.5" points="890.0,778.6 896.5,743.7 909.4,685.0 935.3,616.5 961.2,609.5 987.1,617.4 1038.9,619.7 1090.7,621.9 1194.3,622.6 1297.8,622.2 1505.0,620.9"/><circle cx="890.0" cy="778.6" r="2.8" fill="#1f77b4"/><circle cx="896.5" cy="743.7" r="2.8" fill="#1f77b4"/><circle cx="909.4" cy="685.0" r="2.8" fill="#1f77b4"/><circle cx="935.3" cy="616.5" r="2.8" fill="#1f77b4"/><circle cx="961.2" cy="609.5" r="2.8" fill="#1f77b4"/><circle cx="987.1" cy="617.4" r="2.8" fill="#1f77b4"/><circle cx="1038.9" cy="619.7" r="2.8" fill="#1f77b4"/><circle cx="1090.7" cy="621.9" r="2.8" fill="#1f77b4"/><circle cx="1194.3" cy="622.6" r="2.8" fill="#1f77b4"/><circle cx="1297.8" cy="622.2" r="2.8" fill="#1f77b4"/><circle cx="1505.0" cy="620.9" r="2.8" fill="#1f77b4"/><polyline fill="none" stroke="#d62728" stroke-width="2.5" points="890.0,780.5 896.5,743.5 909.4,680.0 935.3,620.1 961.2,611.5 987.1,615.0 1038.9,620.6 1090.7,621.9 1194.3,623.0 1297.8,622.5 1505.0,621.5"/><circle cx="890.0" cy="780.5" r="2.8" fill="#d62728"/><circle cx="896.5" cy="743.5" r="2.8" fill="#d62728"/><circle cx="909.4" cy="680.0" r="2.8" fill="#d62728"/><circle cx="935.3" cy="620.1" r="2.8" fill="#d62728"/><circle cx="961.2" cy="611.5" r="2.8" fill="#d62728"/><circle cx="987.1" cy="615.0" r="2.8" fill="#d62728"/><circle cx="1038.9" cy="620.6" r="2.8" fill="#d62728"/><circle cx="1090.7" cy="621.9" r="2.8" fill="#d62728"/><circle cx="1194.3" cy="623.0" r="2.8" fill="#d62728"/><circle cx="1297.8" cy="622.5" r="2.8" fill="#d62728"/><circle cx="1505.0" cy="621.5" r="2.8" fill="#d62728"/><polyline fill="none" stroke="#2ca02c" stroke-width="2.5" points="890.0,779.5 896.5,743.8 909.4,684.4 935.3,616.7 961.2,613.4 987.1,613.7 1038.9,620.0 1090.7,621.2 1194.3,622.6 1297.8,621.4 1505.0,621.3"/><circle cx="890.0" cy="779.5" r="2.8" fill="#2ca02c"/><circle cx="896.5" cy="743.8" r="2.8" fill="#2ca02c"/><circle cx="909.4" cy="684.4" r="2.8" fill="#2ca02c"/><circle cx="935.3" cy="616.7" r="2.8" fill="#2ca02c"/><circle cx="961.2" cy="613.4" r="2.8" fill="#2ca02c"/><circle cx="987.1" cy="613.7" r="2.8" fill="#2ca02c"/><circle cx="1038.9" cy="620.0" r="2.8" fill="#2ca02c"/><circle cx="1090.7" cy="621.2" r="2.8" fill="#2ca02c"/><circle cx="1194.3" cy="622.6" r="2.8" fill="#2ca02c"/><circle cx="1297.8" cy="621.4" r="2.8" fill="#2ca02c"/><circle cx="1505.0" cy="621.3" r="2.8" fill="#2ca02c"/><text class="small" x="845.0" y="688.75" transform="rotate(-90 845.0,688.75)" text-anchor="middle">bench traffic GB/s</text><text x="432.5" y="935.0" text-anchor="middle" font-size="18">dual local</text><line class="grid" x1="145.0" y1="960.0" x2="760.0" y2="960.0"/><text class="small" x="137.0" y="964.0" text-anchor="end">550</text><line class="grid" x1="145.0" y1="1014.5" x2="760.0" y2="1014.5"/><text class="small" x="137.0" y="1018.5" text-anchor="end">440</text><line class="grid" x1="145.0" y1="1069.0" x2="760.0" y2="1069.0"/><text class="small" x="137.0" y="1073.0" text-anchor="end">330</text><line class="grid" x1="145.0" y1="1123.5" x2="760.0" y2="1123.5"/><text class="small" x="137.0" y="1127.5" text-anchor="end">220</text><line class="grid" x1="145.0" y1="1178.0" x2="760.0" y2="1178.0"/><text class="small" x="137.0" y="1182.0" text-anchor="end">110</text><line class="grid" x1="145.0" y1="1232.5" x2="760.0" y2="1232.5"/><text class="small" x="137.0" y="1236.5" text-anchor="end">0</text><line class="axis" x1="145.0" y1="1232.5" x2="760.0" y2="1232.5"/><line class="axis" x1="145.0" y1="960.0" x2="145.0" y2="1232.5"/><line class="grid" x1="145.0" y1="1232.5" x2="145.0" y2="1237.5"/><text class="small" x="145.0" y="1252.5" text-anchor="middle">1</text><line class="grid" x1="151.47368421052633" y1="1232.5" x2="151.47368421052633" y2="1237.5"/><text class="small" x="151.47368421052633" y="1252.5" text-anchor="middle">2</text><line class="grid" x1="164.42105263157896" y1="1232.5" x2="164.42105263157896" y2="1237.5"/><text class="small" x="164.42105263157896" y="1252.5" text-anchor="middle">4</text><line class="grid" x1="190.31578947368422" y1="1232.5" x2="190.31578947368422" y2="1237.5"/><text class="small" x="190.31578947368422" y="1252.5" text-anchor="middle">8</text><line class="grid" x1="216.21052631578948" y1="1232.5" x2="216.21052631578948" y2="1237.5"/><text class="small" x="216.21052631578948" y="1252.5" text-anchor="middle">12</text><line class="grid" x1="242.10526315789474" y1="1232.5" x2="242.10526315789474" y2="1237.5"/><text class="small" x="242.10526315789474" y="1252.5" text-anchor="middle">16</text><line class="grid" x1="293.89473684210526" y1="1232.5" x2="293.89473684210526" y2="1237.5"/><text class="small" x="293.89473684210526" y="1252.5" text-anchor="middle">24</text><line class="grid" x1="345.6842105263158" y1="1232.5" x2="345.6842105263158" y2="1237.5"/><text class="small" x="345.6842105263158" y="1252.5" text-anchor="middle">32</text><line class="grid" x1="449.2631578947368" y1="1232.5" x2="449.2631578947368" y2="1237.5"/><text class="small" x="449.2631578947368" y="1252.5" text-anchor="middle">48</text><line class="grid" x1="552.8421052631579" y1="1232.5" x2="552.8421052631579" y2="1237.5"/><text class="small" x="552.8421052631579" y="1252.5" text-anchor="middle">64</text><line class="grid" x1="760.0" y1="1232.5" x2="760.0" y2="1237.5"/><text class="small" x="760.0" y="1252.5" text-anchor="middle">96</text><polyline fill="none" stroke="#1f77b4" stroke-width="2.5" points="145.0,1195.8 151.5,1165.5 164.4,1114.9 190.3,1038.7 216.2,999.7 242.1,1003.7 293.9,1009.8 345.7,1014.7 449.3,1019.2 552.8,1020.6 760.0,1023.5"/><circle cx="145.0" cy="1195.8" r="2.8" fill="#1f77b4"/><circle cx="151.5" cy="1165.5" r="2.8" fill="#1f77b4"/><circle cx="164.4" cy="1114.9" r="2.8" fill="#1f77b4"/><circle cx="190.3" cy="1038.7" r="2.8" fill="#1f77b4"/><circle cx="216.2" cy="999.7" r="2.8" fill="#1f77b4"/><circle cx="242.1" cy="1003.7" r="2.8" fill="#1f77b4"/><circle cx="293.9" cy="1009.8" r="2.8" fill="#1f77b4"/><circle cx="345.7" cy="1014.7" r="2.8" fill="#1f77b4"/><circle cx="449.3" cy="1019.2" r="2.8" fill="#1f77b4"/><circle cx="552.8" cy="1020.6" r="2.8" fill="#1f77b4"/><circle cx="760.0" cy="1023.5" r="2.8" fill="#1f77b4"/><polyline fill="none" stroke="#d62728" stroke-width="2.5" points="145.0,1196.2 151.5,1163.7 164.4,1111.2 190.3,1037.4 216.2,1000.9 242.1,1005.5 293.9,1010.0 345.7,1014.8 449.3,1018.9 552.8,1020.7 760.0,1023.6"/><circle cx="145.0" cy="1196.2" r="2.8" fill="#d62728"/><circle cx="151.5" cy="1163.7" r="2.8" fill="#d62728"/><circle cx="164.4" cy="1111.2" r="2.8" fill="#d62728"/><circle cx="190.3" cy="1037.4" r="2.8" fill="#d62728"/><circle cx="216.2" cy="1000.9" r="2.8" fill="#d62728"/><circle cx="242.1" cy="1005.5" r="2.8" fill="#d62728"/><circle cx="293.9" cy="1010.0" r="2.8" fill="#d62728"/><circle cx="345.7" cy="1014.8" r="2.8" fill="#d62728"/><circle cx="449.3" cy="1018.9" r="2.8" fill="#d62728"/><circle cx="552.8" cy="1020.7" r="2.8" fill="#d62728"/><circle cx="760.0" cy="1023.6" r="2.8" fill="#d62728"/><polyline fill="none" stroke="#2ca02c" stroke-width="2.5" points="145.0,1196.2 151.5,1163.4 164.4,1114.2 190.3,1036.7 216.2,1000.6 242.1,1005.1 293.9,1010.5 345.7,1015.0 449.3,1019.3 552.8,1020.7 760.0,1023.6"/><circle cx="145.0" cy="1196.2" r="2.8" fill="#2ca02c"/><circle cx="151.5" cy="1163.4" r="2.8" fill="#2ca02c"/><circle cx="164.4" cy="1114.2" r="2.8" fill="#2ca02c"/><circle cx="190.3" cy="1036.7" r="2.8" fill="#2ca02c"/><circle cx="216.2" cy="1000.6" r="2.8" fill="#2ca02c"/><circle cx="242.1" cy="1005.1" r="2.8" fill="#2ca02c"/><circle cx="293.9" cy="1010.5" r="2.8" fill="#2ca02c"/><circle cx="345.7" cy="1015.0" r="2.8" fill="#2ca02c"/><circle cx="449.3" cy="1019.3" r="2.8" fill="#2ca02c"/><circle cx="552.8" cy="1020.7" r="2.8" fill="#2ca02c"/><circle cx="760.0" cy="1023.6" r="2.8" fill="#2ca02c"/><text class="small" x="100.0" y="1101.25" transform="rotate(-90 100.0,1101.25)" text-anchor="middle">bench traffic GB/s</text><text x="1177.5" y="935.0" text-anchor="middle" font-size="18">dual cross</text><line class="grid" x1="890.0" y1="960.0" x2="1505.0" y2="960.0"/><text class="small" x="882.0" y="964.0" text-anchor="end">200</text><line class="grid" x1="890.0" y1="1014.5" x2="1505.0" y2="1014.5"/><text class="small" x="882.0" y="1018.5" text-anchor="end">160</text><line class="grid" x1="890.0" y1="1069.0" x2="1505.0" y2="1069.0"/><text class="small" x="882.0" y="1073.0" text-anchor="end">120</text><line class="grid" x1="890.0" y1="1123.5" x2="1505.0" y2="1123.5"/><text class="small" x="882.0" y="1127.5" text-anchor="end">80</text><line class="grid" x1="890.0" y1="1178.0" x2="1505.0" y2="1178.0"/><text class="small" x="882.0" y="1182.0" text-anchor="end">40</text><line class="grid" x1="890.0" y1="1232.5" x2="1505.0" y2="1232.5"/><text class="small" x="882.0" y="1236.5" text-anchor="end">0</text><line class="axis" x1="890.0" y1="1232.5" x2="1505.0" y2="1232.5"/><line class="axis" x1="890.0" y1="960.0" x2="890.0" y2="1232.5"/><line class="grid" x1="890.0" y1="1232.5" x2="890.0" y2="1237.5"/><text class="small" x="890.0" y="1252.5" text-anchor="middle">1</text><line class="grid" x1="896.4736842105264" y1="1232.5" x2="896.4736842105264" y2="1237.5"/><text class="small" x="896.4736842105264" y="1252.5" text-anchor="middle">2</text><line class="grid" x1="909.421052631579" y1="1232.5" x2="909.421052631579" y2="1237.5"/><text class="small" x="909.421052631579" y="1252.5" text-anchor="middle">4</text><line class="grid" x1="935.3157894736842" y1="1232.5" x2="935.3157894736842" y2="1237.5"/><text class="small" x="935.3157894736842" y="1252.5" text-anchor="middle">8</text><line class="grid" x1="961.2105263157895" y1="1232.5" x2="961.2105263157895" y2="1237.5"/><text class="small" x="961.2105263157895" y="1252.5" text-anchor="middle">12</text><line class="grid" x1="987.1052631578948" y1="1232.5" x2="987.1052631578948" y2="1237.5"/><text class="small" x="987.1052631578948" y="1252.5" text-anchor="middle">16</text><line class="grid" x1="1038.8947368421052" y1="1232.5" x2="1038.8947368421052" y2="1237.5"/><text class="small" x="1038.8947368421052" y="1252.5" text-anchor="middle">24</text><line class="grid" x1="1090.6842105263158" y1="1232.5" x2="1090.6842105263158" y2="1237.5"/><text class="small" x="1090.6842105263158" y="1252.5" text-anchor="middle">32</text><line class="grid" x1="1194.2631578947369" y1="1232.5" x2="1194.2631578947369" y2="1237.5"/><text class="small" x="1194.2631578947369" y="1252.5" text-anchor="middle">48</text><line class="grid" x1="1297.842105263158" y1="1232.5" x2="1297.842105263158" y2="1237.5"/><text class="small" x="1297.842105263158" y="1252.5" text-anchor="middle">64</text><line class="grid" x1="1505.0" y1="1232.5" x2="1505.0" y2="1237.5"/><text class="small" x="1505.0" y="1252.5" text-anchor="middle">96</text><polyline fill="none" stroke="#1f77b4" stroke-width="2.5" points="890.0,1171.8 896.5,1120.6 909.4,1045.6 935.3,1027.5 961.2,1028.1 987.1,1036.5 1038.9,1044.6 1090.7,1046.0 1194.3,1047.1 1297.8,1047.4 1505.0,1046.4"/><circle cx="890.0" cy="1171.8" r="2.8" fill="#1f77b4"/><circle cx="896.5" cy="1120.6" r="2.8" fill="#1f77b4"/><circle cx="909.4" cy="1045.6" r="2.8" fill="#1f77b4"/><circle cx="935.3" cy="1027.5" r="2.8" fill="#1f77b4"/><circle cx="961.2" cy="1028.1" r="2.8" fill="#1f77b4"/><circle cx="987.1" cy="1036.5" r="2.8" fill="#1f77b4"/><circle cx="1038.9" cy="1044.6" r="2.8" fill="#1f77b4"/><circle cx="1090.7" cy="1046.0" r="2.8" fill="#1f77b4"/><circle cx="1194.3" cy="1047.1" r="2.8" fill="#1f77b4"/><circle cx="1297.8" cy="1047.4" r="2.8" fill="#1f77b4"/><circle cx="1505.0" cy="1046.4" r="2.8" fill="#1f77b4"/><polyline fill="none" stroke="#d62728" stroke-width="2.5" points="890.0,1171.7 896.5,1121.6 909.4,1048.1 935.3,1027.2 961.2,1028.2 987.1,1034.5 1038.9,1043.6 1090.7,1044.4 1194.3,1047.2 1297.8,1047.7 1505.0,1046.5"/><circle cx="890.0" cy="1171.7" r="2.8" fill="#d62728"/><circle cx="896.5" cy="1121.6" r="2.8" fill="#d62728"/><circle cx="909.4" cy="1048.1" r="2.8" fill="#d62728"/><circle cx="935.3" cy="1027.2" r="2.8" fill="#d62728"/><circle cx="961.2" cy="1028.2" r="2.8" fill="#d62728"/><circle cx="987.1" cy="1034.5" r="2.8" fill="#d62728"/><circle cx="1038.9" cy="1043.6" r="2.8" fill="#d62728"/><circle cx="1090.7" cy="1044.4" r="2.8" fill="#d62728"/><circle cx="1194.3" cy="1047.2" r="2.8" fill="#d62728"/><circle cx="1297.8" cy="1047.7" r="2.8" fill="#d62728"/><circle cx="1505.0" cy="1046.5" r="2.8" fill="#d62728"/><polyline fill="none" stroke="#2ca02c" stroke-width="2.5" points="890.0,1171.9 896.5,1113.4 909.4,1048.3 935.3,1027.9 961.2,1029.4 987.1,1035.1 1038.9,1044.4 1090.7,1044.5 1194.3,1046.8 1297.8,1046.4 1505.0,1045.6"/><circle cx="890.0" cy="1171.9" r="2.8" fill="#2ca02c"/><circle cx="896.5" cy="1113.4" r="2.8" fill="#2ca02c"/><circle cx="909.4" cy="1048.3" r="2.8" fill="#2ca02c"/><circle cx="935.3" cy="1027.9" r="2.8" fill="#2ca02c"/><circle cx="961.2" cy="1029.4" r="2.8" fill="#2ca02c"/><circle cx="987.1" cy="1035.1" r="2.8" fill="#2ca02c"/><circle cx="1038.9" cy="1044.4" r="2.8" fill="#2ca02c"/><circle cx="1090.7" cy="1044.5" r="2.8" fill="#2ca02c"/><circle cx="1194.3" cy="1046.8" r="2.8" fill="#2ca02c"/><circle cx="1297.8" cy="1046.4" r="2.8" fill="#2ca02c"/><circle cx="1505.0" cy="1045.6" r="2.8" fill="#2ca02c"/><text class="small" x="845.0" y="1101.25" transform="rotate(-90 845.0,1101.25)" text-anchor="middle">bench traffic GB/s</text><text x="432.5" y="1347.5" text-anchor="middle" font-size="18">mixed target0</text><line class="grid" x1="145.0" y1="1372.5" x2="760.0" y2="1372.5"/><text class="small" x="137.0" y="1376.5" text-anchor="end">350</text><line class="grid" x1="145.0" y1="1427.0" x2="760.0" y2="1427.0"/><text class="small" x="137.0" y="1431.0" text-anchor="end">280</text><line class="grid" x1="145.0" y1="1481.5" x2="760.0" y2="1481.5"/><text class="small" x="137.0" y="1485.5" text-anchor="end">210</text><line class="grid" x1="145.0" y1="1536.0" x2="760.0" y2="1536.0"/><text class="small" x="137.0" y="1540.0" text-anchor="end">140</text><line class="grid" x1="145.0" y1="1590.5" x2="760.0" y2="1590.5"/><text class="small" x="137.0" y="1594.5" text-anchor="end">70</text><line class="grid" x1="145.0" y1="1645.0" x2="760.0" y2="1645.0"/><text class="small" x="137.0" y="1649.0" text-anchor="end">0</text><line class="axis" x1="145.0" y1="1645.0" x2="760.0" y2="1645.0"/><line class="axis" x1="145.0" y1="1372.5" x2="145.0" y2="1645.0"/><line class="grid" x1="145.0" y1="1645.0" x2="145.0" y2="1650.0"/><text class="small" x="145.0" y="1665.0" text-anchor="middle">1</text><line class="grid" x1="151.47368421052633" y1="1645.0" x2="151.47368421052633" y2="1650.0"/><text class="small" x="151.47368421052633" y="1665.0" text-anchor="middle">2</text><line class="grid" x1="164.42105263157896" y1="1645.0" x2="164.42105263157896" y2="1650.0"/><text class="small" x="164.42105263157896" y="1665.0" text-anchor="middle">4</text><line class="grid" x1="190.31578947368422" y1="1645.0" x2="190.31578947368422" y2="1650.0"/><text class="small" x="190.31578947368422" y="1665.0" text-anchor="middle">8</text><line class="grid" x1="216.21052631578948" y1="1645.0" x2="216.21052631578948" y2="1650.0"/><text class="small" x="216.21052631578948" y="1665.0" text-anchor="middle">12</text><line class="grid" x1="242.10526315789474" y1="1645.0" x2="242.10526315789474" y2="1650.0"/><text class="small" x="242.10526315789474" y="1665.0" text-anchor="middle">16</text><line class="grid" x1="293.89473684210526" y1="1645.0" x2="293.89473684210526" y2="1650.0"/><text class="small" x="293.89473684210526" y="1665.0" text-anchor="middle">24</text><line class="grid" x1="345.6842105263158" y1="1645.0" x2="345.6842105263158" y2="1650.0"/><text class="small" x="345.6842105263158" y="1665.0" text-anchor="middle">32</text><line class="grid" x1="449.2631578947368" y1="1645.0" x2="449.2631578947368" y2="1650.0"/><text class="small" x="449.2631578947368" y="1665.0" text-anchor="middle">48</text><line class="grid" x1="552.8421052631579" y1="1645.0" x2="552.8421052631579" y2="1650.0"/><text class="small" x="552.8421052631579" y="1665.0" text-anchor="middle">64</text><line class="grid" x1="760.0" y1="1645.0" x2="760.0" y2="1650.0"/><text class="small" x="760.0" y="1665.0" text-anchor="middle">96</text><polyline fill="none" stroke="#1f77b4" stroke-width="2.5" points="145.0,1599.6 151.5,1562.4 164.4,1508.7 190.3,1460.1 216.2,1455.0 242.1,1462.0 293.9,1470.6 345.7,1473.5 449.3,1475.5 552.8,1476.6 760.0,1475.7"/><circle cx="145.0" cy="1599.6" r="2.8" fill="#1f77b4"/><circle cx="151.5" cy="1562.4" r="2.8" fill="#1f77b4"/><circle cx="164.4" cy="1508.7" r="2.8" fill="#1f77b4"/><circle cx="190.3" cy="1460.1" r="2.8" fill="#1f77b4"/><circle cx="216.2" cy="1455.0" r="2.8" fill="#1f77b4"/><circle cx="242.1" cy="1462.0" r="2.8" fill="#1f77b4"/><circle cx="293.9" cy="1470.6" r="2.8" fill="#1f77b4"/><circle cx="345.7" cy="1473.5" r="2.8" fill="#1f77b4"/><circle cx="449.3" cy="1475.5" r="2.8" fill="#1f77b4"/><circle cx="552.8" cy="1476.6" r="2.8" fill="#1f77b4"/><circle cx="760.0" cy="1475.7" r="2.8" fill="#1f77b4"/><polyline fill="none" stroke="#d62728" stroke-width="2.5" points="145.0,1599.9 151.5,1562.2 164.4,1505.4 190.3,1459.7 216.2,1456.9 242.1,1462.6 293.9,1471.4 345.7,1475.5 449.3,1477.8 552.8,1476.5 760.0,1475.2"/><circle cx="145.0" cy="1599.9" r="2.8" fill="#d62728"/><circle cx="151.5" cy="1562.2" r="2.8" fill="#d62728"/><circle cx="164.4" cy="1505.4" r="2.8" fill="#d62728"/><circle cx="190.3" cy="1459.7" r="2.8" fill="#d62728"/><circle cx="216.2" cy="1456.9" r="2.8" fill="#d62728"/><circle cx="242.1" cy="1462.6" r="2.8" fill="#d62728"/><circle cx="293.9" cy="1471.4" r="2.8" fill="#d62728"/><circle cx="345.7" cy="1475.5" r="2.8" fill="#d62728"/><circle cx="449.3" cy="1477.8" r="2.8" fill="#d62728"/><circle cx="552.8" cy="1476.5" r="2.8" fill="#d62728"/><circle cx="760.0" cy="1475.2" r="2.8" fill="#d62728"/><polyline fill="none" stroke="#2ca02c" stroke-width="2.5" points="145.0,1599.9 151.5,1561.1 164.4,1507.4 190.3,1460.9 216.2,1454.8 242.1,1462.3 293.9,1471.7 345.7,1474.5 449.3,1476.8 552.8,1477.0 760.0,1475.3"/><circle cx="145.0" cy="1599.9" r="2.8" fill="#2ca02c"/><circle cx="151.5" cy="1561.1" r="2.8" fill="#2ca02c"/><circle cx="164.4" cy="1507.4" r="2.8" fill="#2ca02c"/><circle cx="190.3" cy="1460.9" r="2.8" fill="#2ca02c"/><circle cx="216.2" cy="1454.8" r="2.8" fill="#2ca02c"/><circle cx="242.1" cy="1462.3" r="2.8" fill="#2ca02c"/><circle cx="293.9" cy="1471.7" r="2.8" fill="#2ca02c"/><circle cx="345.7" cy="1474.5" r="2.8" fill="#2ca02c"/><circle cx="449.3" cy="1476.8" r="2.8" fill="#2ca02c"/><circle cx="552.8" cy="1477.0" r="2.8" fill="#2ca02c"/><circle cx="760.0" cy="1475.3" r="2.8" fill="#2ca02c"/><text class="small" x="100.0" y="1513.75" transform="rotate(-90 100.0,1513.75)" text-anchor="middle">bench traffic GB/s</text><text x="1177.5" y="1347.5" text-anchor="middle" font-size="18">mixed target1</text><line class="grid" x1="890.0" y1="1372.5" x2="1505.0" y2="1372.5"/><text class="small" x="882.0" y="1376.5" text-anchor="end">350</text><line class="grid" x1="890.0" y1="1427.0" x2="1505.0" y2="1427.0"/><text class="small" x="882.0" y="1431.0" text-anchor="end">280</text><line class="grid" x1="890.0" y1="1481.5" x2="1505.0" y2="1481.5"/><text class="small" x="882.0" y="1485.5" text-anchor="end">210</text><line class="grid" x1="890.0" y1="1536.0" x2="1505.0" y2="1536.0"/><text class="small" x="882.0" y="1540.0" text-anchor="end">140</text><line class="grid" x1="890.0" y1="1590.5" x2="1505.0" y2="1590.5"/><text class="small" x="882.0" y="1594.5" text-anchor="end">70</text><line class="grid" x1="890.0" y1="1645.0" x2="1505.0" y2="1645.0"/><text class="small" x="882.0" y="1649.0" text-anchor="end">0</text><line class="axis" x1="890.0" y1="1645.0" x2="1505.0" y2="1645.0"/><line class="axis" x1="890.0" y1="1372.5" x2="890.0" y2="1645.0"/><line class="grid" x1="890.0" y1="1645.0" x2="890.0" y2="1650.0"/><text class="small" x="890.0" y="1665.0" text-anchor="middle">1</text><line class="grid" x1="896.4736842105264" y1="1645.0" x2="896.4736842105264" y2="1650.0"/><text class="small" x="896.4736842105264" y="1665.0" text-anchor="middle">2</text><line class="grid" x1="909.421052631579" y1="1645.0" x2="909.421052631579" y2="1650.0"/><text class="small" x="909.421052631579" y="1665.0" text-anchor="middle">4</text><line class="grid" x1="935.3157894736842" y1="1645.0" x2="935.3157894736842" y2="1650.0"/><text class="small" x="935.3157894736842" y="1665.0" text-anchor="middle">8</text><line class="grid" x1="961.2105263157895" y1="1645.0" x2="961.2105263157895" y2="1650.0"/><text class="small" x="961.2105263157895" y="1665.0" text-anchor="middle">12</text><line class="grid" x1="987.1052631578948" y1="1645.0" x2="987.1052631578948" y2="1650.0"/><text class="small" x="987.1052631578948" y="1665.0" text-anchor="middle">16</text><line class="grid" x1="1038.8947368421052" y1="1645.0" x2="1038.8947368421052" y2="1650.0"/><text class="small" x="1038.8947368421052" y="1665.0" text-anchor="middle">24</text><line class="grid" x1="1090.6842105263158" y1="1645.0" x2="1090.6842105263158" y2="1650.0"/><text class="small" x="1090.6842105263158" y="1665.0" text-anchor="middle">32</text><line class="grid" x1="1194.2631578947369" y1="1645.0" x2="1194.2631578947369" y2="1650.0"/><text class="small" x="1194.2631578947369" y="1665.0" text-anchor="middle">48</text><line class="grid" x1="1297.842105263158" y1="1645.0" x2="1297.842105263158" y2="1650.0"/><text class="small" x="1297.842105263158" y="1665.0" text-anchor="middle">64</text><line class="grid" x1="1505.0" y1="1645.0" x2="1505.0" y2="1650.0"/><text class="small" x="1505.0" y="1665.0" text-anchor="middle">96</text><polyline fill="none" stroke="#1f77b4" stroke-width="2.5" points="890.0,1600.0 896.5,1562.7 909.4,1510.5 935.3,1460.5 961.2,1455.4 987.1,1463.6 1038.9,1472.6 1090.7,1475.7 1194.3,1477.3 1297.8,1476.6 1505.0,1476.1"/><circle cx="890.0" cy="1600.0" r="2.8" fill="#1f77b4"/><circle cx="896.5" cy="1562.7" r="2.8" fill="#1f77b4"/><circle cx="909.4" cy="1510.5" r="2.8" fill="#1f77b4"/><circle cx="935.3" cy="1460.5" r="2.8" fill="#1f77b4"/><circle cx="961.2" cy="1455.4" r="2.8" fill="#1f77b4"/><circle cx="987.1" cy="1463.6" r="2.8" fill="#1f77b4"/><circle cx="1038.9" cy="1472.6" r="2.8" fill="#1f77b4"/><circle cx="1090.7" cy="1475.7" r="2.8" fill="#1f77b4"/><circle cx="1194.3" cy="1477.3" r="2.8" fill="#1f77b4"/><circle cx="1297.8" cy="1476.6" r="2.8" fill="#1f77b4"/><circle cx="1505.0" cy="1476.1" r="2.8" fill="#1f77b4"/><polyline fill="none" stroke="#d62728" stroke-width="2.5" points="890.0,1600.0 896.5,1563.2 909.4,1510.5 935.3,1461.1 961.2,1455.7 987.1,1463.6 1038.9,1472.8 1090.7,1475.0 1194.3,1477.7 1297.8,1477.0 1505.0,1477.0"/><circle cx="890.0" cy="1600.0" r="2.8" fill="#d62728"/><circle cx="896.5" cy="1563.2" r="2.8" fill="#d62728"/><circle cx="909.4" cy="1510.5" r="2.8" fill="#d62728"/><circle cx="935.3" cy="1461.1" r="2.8" fill="#d62728"/><circle cx="961.2" cy="1455.7" r="2.8" fill="#d62728"/><circle cx="987.1" cy="1463.6" r="2.8" fill="#d62728"/><circle cx="1038.9" cy="1472.8" r="2.8" fill="#d62728"/><circle cx="1090.7" cy="1475.0" r="2.8" fill="#d62728"/><circle cx="1194.3" cy="1477.7" r="2.8" fill="#d62728"/><circle cx="1297.8" cy="1477.0" r="2.8" fill="#d62728"/><circle cx="1505.0" cy="1477.0" r="2.8" fill="#d62728"/><polyline fill="none" stroke="#2ca02c" stroke-width="2.5" points="890.0,1600.4 896.5,1561.0 909.4,1511.3 935.3,1460.7 961.2,1455.7 987.1,1463.4 1038.9,1472.5 1090.7,1475.7 1194.3,1477.5 1297.8,1477.5 1505.0,1475.3"/><circle cx="890.0" cy="1600.4" r="2.8" fill="#2ca02c"/><circle cx="896.5" cy="1561.0" r="2.8" fill="#2ca02c"/><circle cx="909.4" cy="1511.3" r="2.8" fill="#2ca02c"/><circle cx="935.3" cy="1460.7" r="2.8" fill="#2ca02c"/><circle cx="961.2" cy="1455.7" r="2.8" fill="#2ca02c"/><circle cx="987.1" cy="1463.4" r="2.8" fill="#2ca02c"/><circle cx="1038.9" cy="1472.5" r="2.8" fill="#2ca02c"/><circle cx="1090.7" cy="1475.7" r="2.8" fill="#2ca02c"/><circle cx="1194.3" cy="1477.5" r="2.8" fill="#2ca02c"/><circle cx="1297.8" cy="1477.5" r="2.8" fill="#2ca02c"/><circle cx="1505.0" cy="1475.3" r="2.8" fill="#2ca02c"/><text class="small" x="845.0" y="1513.75" transform="rotate(-90 845.0,1513.75)" text-anchor="middle">bench traffic GB/s</text></svg>