<svg xmlns="http://www.w3.org/2000/svg" width="1600" height="1800" viewBox="0 0 1600 1800"><style>text{font-family:monospace;fill:#111}.small{font-size:14px}.axis{stroke:#444;stroke-width:1}.grid{stroke:#ddd;stroke-width:1}</style><rect x="0" y="0" width="1600" height="1800" fill="white"/><text x="800.0" y="40" text-anchor="middle" font-size="24">uProf total memory bandwidth vs threads (1MiB)</text><text x="800.0" y="70" text-anchor="middle" font-size="16">threads per process on X axis</text><line x1="1320" y1="30" x2="1348" y2="30" stroke="#1f77b4" stroke-width="3"/><text x="1356" y="35" font-size="14">1302</text><line x1="1320" y1="54" x2="1348" y2="54" stroke="#d62728" stroke-width="3"/><text x="1356" y="59" font-size="14">1306</text><line x1="1320" y1="78" x2="1348" y2="78" stroke="#2ca02c" stroke-width="3"/><text x="1356" y="83" font-size="14">1308</text><text x="432.5" y="110.0" text-anchor="middle" font-size="18">local numa0</text><line class="grid" x1="145.0" y1="135.0" x2="760.0" y2="135.0"/><text class="small" x="137.0" y="139.0" text-anchor="end">450</text><line class="grid" x1="145.0" y1="189.5" x2="760.0" y2="189.5"/><text class="small" x="137.0" y="193.5" text-anchor="end">360</text><line class="grid" x1="145.0" y1="244.0" x2="760.0" y2="244.0"/><text class="small" x="137.0" y="248.0" text-anchor="end">270</text><line class="grid" x1="145.0" y1="298.5" x2="760.0" y2="298.5"/><text class="small" x="137.0" y="302.5" text-anchor="end">180</text><line class="grid" x1="145.0" y1="353.0" x2="760.0" y2="353.0"/><text class="small" x="137.0" y="357.0" text-anchor="end">90</text><line class="grid" x1="145.0" y1="407.5" x2="760.0" y2="407.5"/><text class="small" x="137.0" y="411.5" text-anchor="end">0</text><line class="axis" x1="145.0" y1="407.5" x2="760.0" y2="407.5"/><line class="axis" x1="145.0" y1="135.0" x2="145.0" y2="407.5"/><line class="grid" x1="145.0" y1="407.5" x2="145.0" y2="412.5"/><text class="small" x="145.0" y="427.5" text-anchor="middle">1</text><line class="grid" x1="151.47368421052633" y1="407.5" x2="151.47368421052633" y2="412.5"/><text class="small" x="151.47368421052633" y="427.5" text-anchor="middle">2</text><line class="grid" x1="164.42105263157896" y1="407.5" x2="164.42105263157896" y2="412.5"/><text class="small" x="164.42105263157896" y="427.5" text-anchor="middle">4</text><line class="grid" x1="190.31578947368422" y1="407.5" x2="190.31578947368422" y2="412.5"/><text class="small" x="190.31578947368422" y="427.5" text-anchor="middle">8</text><line class="grid" x1="216.21052631578948" y1="407.5" x2="216.21052631578948" y2="412.5"/><text class="small" x="216.21052631578948" y="427.5" text-anchor="middle">12</text><line class="grid" x1="242.10526315789474" y1="407.5" x2="242.10526315789474" y2="412.5"/><text class="small" x="242.10526315789474" y="427.5" text-anchor="middle">16</text><line class="grid" x1="293.89473684210526" y1="407.5" x2="293.89473684210526" y2="412.5"/><text class="small" x="293.89473684210526" y="427.5" text-anchor="middle">24</text><line class="grid" x1="345.6842105263158" y1="407.5" x2="345.6842105263158" y2="412.5"/><text class="small" x="345.6842105263158" y="427.5" text-anchor="middle">32</text><line class="grid" x1="449.2631578947368" y1="407.5" x2="449.2631578947368" y2="412.5"/><text class="small" x="449.2631578947368" y="427.5" text-anchor="middle">48</text><line class="grid" x1="552.8421052631579" y1="407.5" x2="552.8421052631579" y2="412.5"/><text class="small" x="552.8421052631579" y="427.5" text-anchor="middle">64</text><line class="grid" x1="760.0" y1="407.5" x2="760.0" y2="412.5"/><text class="small" x="760.0" y="427.5" text-anchor="middle">96</text><polyline fill="none" stroke="#1f77b4" stroke-width="2.5" points="145.0,378.7 151.5,350.6 164.4,307.6 190.3,260.9 216.2,238.1 242.1,233.0 293.9,226.1 345.7,224.7 449.3,210.5 552.8,201.1 760.0,197.9"/><circle cx="145.0" cy="378.7" r="2.8" fill="#1f77b4"/><circle cx="151.5" cy="350.6" r="2.8" fill="#1f77b4"/><circle cx="164.4" cy="307.6" r="2.8" fill="#1f77b4"/><circle cx="190.3" cy="260.9" r="2.8" fill="#1f77b4"/><circle cx="216.2" cy="238.1" r="2.8" fill="#1f77b4"/><circle cx="242.1" cy="233.0" r="2.8" fill="#1f77b4"/><circle cx="293.9" cy="226.1" r="2.8" fill="#1f77b4"/><circle cx="345.7" cy="224.7" r="2.8" fill="#1f77b4"/><circle cx="449.3" cy="210.5" r="2.8" fill="#1f77b4"/><circle cx="552.8" cy="201.1" r="2.8" fill="#1f77b4"/><circle cx="760.0" cy="197.9" r="2.8" fill="#1f77b4"/><polyline fill="none" stroke="#d62728" stroke-width="2.5" points="145.0,378.6 151.5,350.6 164.4,307.0 190.3,264.3 216.2,237.9 242.1,233.0 293.9,225.2 345.7,223.9 449.3,212.5 552.8,201.0 760.0,200.2"/><circle cx="145.0" cy="378.6" r="2.8" fill="#d62728"/><circle cx="151.5" cy="350.6" r="2.8" fill="#d62728"/><circle cx="164.4" cy="307.0" r="2.8" fill="#d62728"/><circle cx="190.3" cy="264.3" r="2.8" fill="#d62728"/><circle cx="216.2" cy="237.9" r="2.8" fill="#d62728"/><circle cx="242.1" cy="233.0" r="2.8" fill="#d62728"/><circle cx="293.9" cy="225.2" r="2.8" fill="#d62728"/><circle cx="345.7" cy="223.9" r="2.8" fill="#d62728"/><circle cx="449.3" cy="212.5" r="2.8" fill="#d62728"/><circle cx="552.8" cy="201.0" r="2.8" fill="#d62728"/><circle cx="760.0" cy="200.2" r="2.8" fill="#d62728"/><polyline fill="none" stroke="#2ca02c" stroke-width="2.5" points="145.0,378.6 151.5,351.2 164.4,307.7 190.3,263.8 216.2,236.6 242.1,232.8 293.9,226.4 345.7,210.8 449.3,210.1 552.8,197.8 760.0,197.2"/><circle cx="145.0" cy="378.6" r="2.8" fill="#2ca02c"/><circle cx="151.5" cy="351.2" r="2.8" fill="#2ca02c"/><circle cx="164.4" cy="307.7" r="2.8" fill="#2ca02c"/><circle cx="190.3" cy="263.8" r="2.8" fill="#2ca02c"/><circle cx="216.2" cy="236.6" r="2.8" fill="#2ca02c"/><circle cx="242.1" cy="232.8" r="2.8" fill="#2ca02c"/><circle cx="293.9" cy="226.4" r="2.8" fill="#2ca02c"/><circle cx="345.7" cy="210.8" r="2.8" fill="#2ca02c"/><circle cx="449.3" cy="210.1" r="2.8" fill="#2ca02c"/><circle cx="552.8" cy="197.8" r="2.8" fill="#2ca02c"/><circle cx="760.0" cy="197.2" r="2.8" fill="#2ca02c"/><text class="small" x="100.0" y="276.25" transform="rotate(-90 100.0,276.25)" text-anchor="middle">uProf total BW GB/s</text><text x="1177.5" y="110.0" text-anchor="middle" font-size="18">local numa1</text><line class="grid" x1="890.0" y1="135.0" x2="1505.0" y2="135.0"/><text class="small" x="882.0" y="139.0" text-anchor="end">450</text><line class="grid" x1="890.0" y1="189.5" x2="1505.0" y2="189.5"/><text class="small" x="882.0" y="193.5" text-anchor="end">360</text><line class="grid" x1="890.0" y1="244.0" x2="1505.0" y2="244.0"/><text class="small" x="882.0" y="248.0" text-anchor="end">270</text><line class="grid" x1="890.0" y1="298.5" x2="1505.0" y2="298.5"/><text class="small" x="882.0" y="302.5" text-anchor="end">180</text><line class="grid" x1="890.0" y1="353.0" x2="1505.0" y2="353.0"/><text class="small" x="882.0" y="357.0" text-anchor="end">90</text><line class="grid" x1="890.0" y1="407.5" x2="1505.0" y2="407.5"/><text class="small" x="882.0" y="411.5" text-anchor="end">0</text><line class="axis" x1="890.0" y1="407.5" x2="1505.0" y2="407.5"/><line class="axis" x1="890.0" y1="135.0" x2="890.0" y2="407.5"/><line class="grid" x1="890.0" y1="407.5" x2="890.0" y2="412.5"/><text class="small" x="890.0" y="427.5" text-anchor="middle">1</text><line class="grid" x1="896.4736842105264" y1="407.5" x2="896.4736842105264" y2="412.5"/><text class="small" x="896.4736842105264" y="427.5" text-anchor="middle">2</text><line class="grid" x1="909.421052631579" y1="407.5" x2="909.421052631579" y2="412.5"/><text class="small" x="909.421052631579" y="427.5" text-anchor="middle">4</text><line class="grid" x1="935.3157894736842" y1="407.5" x2="935.3157894736842" y2="412.5"/><text class="small" x="935.3157894736842" y="427.5" text-anchor="middle">8</text><line class="grid" x1="961.2105263157895" y1="407.5" x2="961.2105263157895" y2="412.5"/><text class="small" x="961.2105263157895" y="427.5" text-anchor="middle">12</text><line class="grid" x1="987.1052631578948" y1="407.5" x2="987.1052631578948" y2="412.5"/><text class="small" x="987.1052631578948" y="427.5" text-anchor="middle">16</text><line class="grid" x1="1038.8947368421052" y1="407.5" x2="1038.8947368421052" y2="412.5"/><text class="small" x="1038.8947368421052" y="427.5" text-anchor="middle">24</text><line class="grid" x1="1090.6842105263158" y1="407.5" x2="1090.6842105263158" y2="412.5"/><text class="small" x="1090.6842105263158" y="427.5" text-anchor="middle">32</text><line class="grid" x1="1194.2631578947369" y1="407.5" x2="1194.2631578947369" y2="412.5"/><text class="small" x="1194.2631578947369" y="427.5" text-anchor="middle">48</text><line class="grid" x1="1297.842105263158" y1="407.5" x2="1297.842105263158" y2="412.5"/><text class="small" x="1297.842105263158" y="427.5" text-anchor="middle">64</text><line class="grid" x1="1505.0" y1="407.5" x2="1505.0" y2="412.5"/><text class="small" x="1505.0" y="427.5" text-anchor="middle">96</text><polyline fill="none" stroke="#1f77b4" stroke-width="2.5" points="890.0,378.2 896.5,350.5 909.4,309.0 935.3,260.5 961.2,237.5 987.1,232.8 1038.9,225.4 1090.7,224.3 1194.3,213.5 1297.8,205.8 1505.0,200.2"/><circle cx="890.0" cy="378.2" r="2.8" fill="#1f77b4"/><circle cx="896.5" cy="350.5" r="2.8" fill="#1f77b4"/><circle cx="909.4" cy="309.0" r="2.8" fill="#1f77b4"/><circle cx="935.3" cy="260.5" r="2.8" fill="#1f77b4"/><circle cx="961.2" cy="237.5" r="2.8" fill="#1f77b4"/><circle cx="987.1" cy="232.8" r="2.8" fill="#1f77b4"/><circle cx="1038.9" cy="225.4" r="2.8" fill="#1f77b4"/><circle cx="1090.7" cy="224.3" r="2.8" fill="#1f77b4"/><circle cx="1194.3" cy="213.5" r="2.8" fill="#1f77b4"/><circle cx="1297.8" cy="205.8" r="2.8" fill="#1f77b4"/><circle cx="1505.0" cy="200.2" r="2.8" fill="#1f77b4"/><polyline fill="none" stroke="#d62728" stroke-width="2.5" points="890.0,378.5 896.5,350.0 909.4,307.8 935.3,260.8 961.2,238.9 987.1,231.4 1038.9,225.7 1090.7,224.2 1194.3,214.8 1297.8,204.6 1505.0,201.4"/><circle cx="890.0" cy="378.5" r="2.8" fill="#d62728"/><circle cx="896.5" cy="350.0" r="2.8" fill="#d62728"/><circle cx="909.4" cy="307.8" r="2.8" fill="#d62728"/><circle cx="935.3" cy="260.8" r="2.8" fill="#d62728"/><circle cx="961.2" cy="238.9" r="2.8" fill="#d62728"/><circle cx="987.1" cy="231.4" r="2.8" fill="#d62728"/><circle cx="1038.9" cy="225.7" r="2.8" fill="#d62728"/><circle cx="1090.7" cy="224.2" r="2.8" fill="#d62728"/><circle cx="1194.3" cy="214.8" r="2.8" fill="#d62728"/><circle cx="1297.8" cy="204.6" r="2.8" fill="#d62728"/><circle cx="1505.0" cy="201.4" r="2.8" fill="#d62728"/><polyline fill="none" stroke="#2ca02c" stroke-width="2.5" points="890.0,378.6 896.5,350.5 909.4,307.8 935.3,261.3 961.2,236.7 987.1,232.7 1038.9,225.8 1090.7,224.3 1194.3,215.1 1297.8,204.2 1505.0,201.6"/><circle cx="890.0" cy="378.6" r="2.8" fill="#2ca02c"/><circle cx="896.5" cy="350.5" r="2.8" fill="#2ca02c"/><circle cx="909.4" cy="307.8" r="2.8" fill="#2ca02c"/><circle cx="935.3" cy="261.3" r="2.8" fill="#2ca02c"/><circle cx="961.2" cy="236.7" r="2.8" fill="#2ca02c"/><circle cx="987.1" cy="232.7" r="2.8" fill="#2ca02c"/><circle cx="1038.9" cy="225.8" r="2.8" fill="#2ca02c"/><circle cx="1090.7" cy="224.3" r="2.8" fill="#2ca02c"/><circle cx="1194.3" cy="215.1" r="2.8" fill="#2ca02c"/><circle cx="1297.8" cy="204.2" r="2.8" fill="#2ca02c"/><circle cx="1505.0" cy="201.6" r="2.8" fill="#2ca02c"/><text class="small" x="845.0" y="276.25" transform="rotate(-90 845.0,276.25)" text-anchor="middle">uProf total BW GB/s</text><text x="432.5" y="522.5" text-anchor="middle" font-size="18">remote 0-&gt;1</text><line class="grid" x1="145.0" y1="547.5" x2="760.0" y2="547.5"/><text class="small" x="137.0" y="551.5" text-anchor="end">225</text><line class="grid" x1="145.0" y1="602.0" x2="760.0" y2="602.0"/><text class="small" x="137.0" y="606.0" text-anchor="end">180</text><line class="grid" x1="145.0" y1="656.5" x2="760.0" y2="656.5"/><text class="small" x="137.0" y="660.5" text-anchor="end">135</text><line class="grid" x1="145.0" y1="711.0" x2="760.0" y2="711.0"/><text class="small" x="137.0" y="715.0" text-anchor="end">90</text><line class="grid" x1="145.0" y1="765.5" x2="760.0" y2="765.5"/><text class="small" x="137.0" y="769.5" text-anchor="end">45</text><line class="grid" x1="145.0" y1="820.0" x2="760.0" y2="820.0"/><text class="small" x="137.0" y="824.0" text-anchor="end">0</text><line class="axis" x1="145.0" y1="820.0" x2="760.0" y2="820.0"/><line class="axis" x1="145.0" y1="547.5" x2="145.0" y2="820.0"/><line class="grid" x1="145.0" y1="820.0" x2="145.0" y2="825.0"/><text class="small" x="145.0" y="840.0" text-anchor="middle">1</text><line class="grid" x1="151.47368421052633" y1="820.0" x2="151.47368421052633" y2="825.0"/><text class="small" x="151.47368421052633" y="840.0" text-anchor="middle">2</text><line class="grid" x1="164.42105263157896" y1="820.0" x2="164.42105263157896" y2="825.0"/><text class="small" x="164.42105263157896" y="840.0" text-anchor="middle">4</text><line class="grid" x1="190.31578947368422" y1="820.0" x2="190.31578947368422" y2="825.0"/><text class="small" x="190.31578947368422" y="840.0" text-anchor="middle">8</text><line class="grid" x1="216.21052631578948" y1="820.0" x2="216.21052631578948" y2="825.0"/><text class="small" x="216.21052631578948" y="840.0" text-anchor="middle">12</text><line class="grid" x1="242.10526315789474" y1="820.0" x2="242.10526315789474" y2="825.0"/><text class="small" x="242.10526315789474" y="840.0" text-anchor="middle">16</text><line class="grid" x1="293.89473684210526" y1="820.0" x2="293.89473684210526" y2="825.0"/><text class="small" x="293.89473684210526" y="840.0" text-anchor="middle">24</text><line class="grid" x1="345.6842105263158" y1="820.0" x2="345.6842105263158" y2="825.0"/><text class="small" x="345.6842105263158" y="840.0" text-anchor="middle">32</text><line class="grid" x1="449.2631578947368" y1="820.0" x2="449.2631578947368" y2="825.0"/><text class="small" x="449.2631578947368" y="840.0" text-anchor="middle">48</text><line class="grid" x1="552.8421052631579" y1="820.0" x2="552.8421052631579" y2="825.0"/><text class="small" x="552.8421052631579" y="840.0" text-anchor="middle">64</text><line class="grid" x1="760.0" y1="820.0" x2="760.0" y2="825.0"/><text class="small" x="760.0" y="840.0" text-anchor="middle">96</text><polyline fill="none" stroke="#1f77b4" stroke-width="2.5" points="145.0,785.0 151.5,751.2 164.4,694.6 190.3,635.9 216.2,630.0 242.1,629.6 293.9,630.7 345.7,628.8 449.3,622.9 552.8,610.9 760.0,596.8"/><circle cx="145.0" cy="785.0" r="2.8" fill="#1f77b4"/><circle cx="151.5" cy="751.2" r="2.8" fill="#1f77b4"/><circle cx="164.4" cy="694.6" r="2.8" fill="#1f77b4"/><circle cx="190.3" cy="635.9" r="2.8" fill="#1f77b4"/><circle cx="216.2" cy="630.0" r="2.8" fill="#1f77b4"/><circle cx="242.1" cy="629.6" r="2.8" fill="#1f77b4"/><circle cx="293.9" cy="630.7" r="2.8" fill="#1f77b4"/><circle cx="345.7" cy="628.8" r="2.8" fill="#1f77b4"/><circle cx="449.3" cy="622.9" r="2.8" fill="#1f77b4"/><circle cx="552.8" cy="610.9" r="2.8" fill="#1f77b4"/><circle cx="760.0" cy="596.8" r="2.8" fill="#1f77b4"/><polyline fill="none" stroke="#d62728" stroke-width="2.5" points="145.0,784.7 151.5,751.5 164.4,694.2 190.3,636.4 216.2,631.1 242.1,630.2 293.9,631.1 345.7,626.8 449.3,620.1 552.8,610.7 760.0,601.5"/><circle cx="145.0" cy="784.7" r="2.8" fill="#d62728"/><circle cx="151.5" cy="751.5" r="2.8" fill="#d62728"/><circle cx="164.4" cy="694.2" r="2.8" fill="#d62728"/><circle cx="190.3" cy="636.4" r="2.8" fill="#d62728"/><circle cx="216.2" cy="631.1" r="2.8" fill="#d62728"/><circle cx="242.1" cy="630.2" r="2.8" fill="#d62728"/><circle cx="293.9" cy="631.1" r="2.8" fill="#d62728"/><circle cx="345.7" cy="626.8" r="2.8" fill="#d62728"/><circle cx="449.3" cy="620.1" r="2.8" fill="#d62728"/><circle cx="552.8" cy="610.7" r="2.8" fill="#d62728"/><circle cx="760.0" cy="601.5" r="2.8" fill="#d62728"/><polyline fill="none" stroke="#2ca02c" stroke-width="2.5" points="145.0,785.2 151.5,752.0 164.4,694.5 190.3,636.6 216.2,631.0 242.1,632.4 293.9,632.6 345.7,629.3 449.3,621.1 552.8,606.6 760.0,601.2"/><circle cx="145.0" cy="785.2" r="2.8" fill="#2ca02c"/><circle cx="151.5" cy="752.0" r="2.8" fill="#2ca02c"/><circle cx="164.4" cy="694.5" r="2.8" fill="#2ca02c"/><circle cx="190.3" cy="636.6" r="2.8" fill="#2ca02c"/><circle cx="216.2" cy="631.0" r="2.8" fill="#2ca02c"/><circle cx="242.1" cy="632.4" r="2.8" fill="#2ca02c"/><circle cx="293.9" cy="632.6" r="2.8" fill="#2ca02c"/><circle cx="345.7" cy="629.3" r="2.8" fill="#2ca02c"/><circle cx="449.3" cy="621.1" r="2.8" fill="#2ca02c"/><circle cx="552.8" cy="606.6" r="2.8" fill="#2ca02c"/><circle cx="760.0" cy="601.2" r="2.8" fill="#2ca02c"/><text class="small" x="100.0" y="688.75" transform="rotate(-90 100.0,688.75)" text-anchor="middle">uProf total BW GB/s</text><text x="1177.5" y="522.5" text-anchor="middle" font-size="18">remote 1-&gt;0</text><line class="grid" x1="890.0" y1="547.5" x2="1505.0" y2="547.5"/><text class="small" x="882.0" y="551.5" text-anchor="end">225</text><line class="grid" x1="890.0" y1="602.0" x2="1505.0" y2="602.0"/><text class="small" x="882.0" y="606.0" text-anchor="end">180</text><line class="grid" x1="890.0" y1="656.5" x2="1505.0" y2="656.5"/><text class="small" x="882.0" y="660.5" text-anchor="end">135</text><line class="grid" x1="890.0" y1="711.0" x2="1505.0" y2="711.0"/><text class="small" x="882.0" y="715.0" text-anchor="end">90</text><line class="grid" x1="890.0" y1="765.5" x2="1505.0" y2="765.5"/><text class="small" x="882.0" y="769.5" text-anchor="end">45</text><line class="grid" x1="890.0" y1="820.0" x2="1505.0" y2="820.0"/><text class="small" x="882.0" y="824.0" text-anchor="end">0</text><line class="axis" x1="890.0" y1="820.0" x2="1505.0" y2="820.0"/><line class="axis" x1="890.0" y1="547.5" x2="890.0" y2="820.0"/><line class="grid" x1="890.0" y1="820.0" x2="890.0" y2="825.0"/><text class="small" x="890.0" y="840.0" text-anchor="middle">1</text><line class="grid" x1="896.4736842105264" y1="820.0" x2="896.4736842105264" y2="825.0"/><text class="small" x="896.4736842105264" y="840.0" text-anchor="middle">2</text><line class="grid" x1="909.421052631579" y1="820.0" x2="909.421052631579" y2="825.0"/><text class="small" x="909.421052631579" y="840.0" text-anchor="middle">4</text><line class="grid" x1="935.3157894736842" y1="820.0" x2="935.3157894736842" y2="825.0"/><text class="small" x="935.3157894736842" y="840.0" text-anchor="middle">8</text><line class="grid" x1="961.2105263157895" y1="820.0" x2="961.2105263157895" y2="825.0"/><text class="small" x="961.2105263157895" y="840.0" text-anchor="middle">12</text><line class="grid" x1="987.1052631578948" y1="820.0" x2="987.1052631578948" y2="825.0"/><text class="small" x="987.1052631578948" y="840.0" text-anchor="middle">16</text><line class="grid" x1="1038.8947368421052" y1="820.0" x2="1038.8947368421052" y2="825.0"/><text class="small" x="1038.8947368421052" y="840.0" text-anchor="middle">24</text><line class="grid" x1="1090.6842105263158" y1="820.0" x2="1090.6842105263158" y2="825.0"/><text class="small" x="1090.6842105263158" y="840.0" text-anchor="middle">32</text><line class="grid" x1="1194.2631578947369" y1="820.0" x2="1194.2631578947369" y2="825.0"/><text class="small" x="1194.2631578947369" y="840.0" text-anchor="middle">48</text><line class="grid" x1="1297.842105263158" y1="820.0" x2="1297.842105263158" y2="825.0"/><text class="small" x="1297.842105263158" y="840.0" text-anchor="middle">64</text><line class="grid" x1="1505.0" y1="820.0" x2="1505.0" y2="825.0"/><text class="small" x="1505.0" y="840.0" text-anchor="middle">96</text><polyline fill="none" stroke="#1f77b4" stroke-width="2.5" points="890.0,785.3 896.5,752.9 909.4,696.9 935.3,639.3 961.2,633.1 987.1,633.6 1038.9,633.0 1090.7,630.5 1194.3,623.9 1297.8,619.4 1505.0,611.8"/><circle cx="890.0" cy="785.3" r="2.8" fill="#1f77b4"/><circle cx="896.5" cy="752.9" r="2.8" fill="#1f77b4"/><circle cx="909.4" cy="696.9" r="2.8" fill="#1f77b4"/><circle cx="935.3" cy="639.3" r="2.8" fill="#1f77b4"/><circle cx="961.2" cy="633.1" r="2.8" fill="#1f77b4"/><circle cx="987.1" cy="633.6" r="2.8" fill="#1f77b4"/><circle cx="1038.9" cy="633.0" r="2.8" fill="#1f77b4"/><circle cx="1090.7" cy="630.5" r="2.8" fill="#1f77b4"/><circle cx="1194.3" cy="623.9" r="2.8" fill="#1f77b4"/><circle cx="1297.8" cy="619.4" r="2.8" fill="#1f77b4"/><circle cx="1505.0" cy="611.8" r="2.8" fill="#1f77b4"/><polyline fill="none" stroke="#d62728" stroke-width="2.5" points="890.0,785.1 896.5,750.7 909.4,695.8 935.3,641.0 961.2,634.9 987.1,633.7 1038.9,632.6 1090.7,633.1 1194.3,623.0 1297.8,615.4 1505.0,625.2"/><circle cx="890.0" cy="785.1" r="2.8" fill="#d62728"/><circle cx="896.5" cy="750.7" r="2.8" fill="#d62728"/><circle cx="909.4" cy="695.8" r="2.8" fill="#d62728"/><circle cx="935.3" cy="641.0" r="2.8" fill="#d62728"/><circle cx="961.2" cy="634.9" r="2.8" fill="#d62728"/><circle cx="987.1" cy="633.7" r="2.8" fill="#d62728"/><circle cx="1038.9" cy="632.6" r="2.8" fill="#d62728"/><circle cx="1090.7" cy="633.1" r="2.8" fill="#d62728"/><circle cx="1194.3" cy="623.0" r="2.8" fill="#d62728"/><circle cx="1297.8" cy="615.4" r="2.8" fill="#d62728"/><circle cx="1505.0" cy="625.2" r="2.8" fill="#d62728"/><polyline fill="none" stroke="#2ca02c" stroke-width="2.5" points="890.0,784.7 896.5,752.0 909.4,695.7 935.3,638.3 961.2,634.7 987.1,632.4 1038.9,633.1 1090.7,632.3 1194.3,622.2 1297.8,618.4 1505.0,625.7"/><circle cx="890.0" cy="784.7" r="2.8" fill="#2ca02c"/><circle cx="896.5" cy="752.0" r="2.8" fill="#2ca02c"/><circle cx="909.4" cy="695.7" r="2.8" fill="#2ca02c"/><circle cx="935.3" cy="638.3" r="2.8" fill="#2ca02c"/><circle cx="961.2" cy="634.7" r="2.8" fill="#2ca02c"/><circle cx="987.1" cy="632.4" r="2.8" fill="#2ca02c"/><circle cx="1038.9" cy="633.1" r="2.8" fill="#2ca02c"/><circle cx="1090.7" cy="632.3" r="2.8" fill="#2ca02c"/><circle cx="1194.3" cy="622.2" r="2.8" fill="#2ca02c"/><circle cx="1297.8" cy="618.4" r="2.8" fill="#2ca02c"/><circle cx="1505.0" cy="625.7" r="2.8" fill="#2ca02c"/><text class="small" x="845.0" y="688.75" transform="rotate(-90 845.0,688.75)" text-anchor="middle">uProf total BW GB/s</text><text x="432.5" y="935.0" text-anchor="middle" font-size="18">dual local</text><line class="grid" x1="145.0" y1="960.0" x2="760.0" y2="960.0"/><text class="small" x="137.0" y="964.0" text-anchor="end">700</text><line class="grid" x1="145.0" y1="1014.5" x2="760.0" y2="1014.5"/><text class="small" x="137.0" y="1018.5" text-anchor="end">560</text><line class="grid" x1="145.0" y1="1069.0" x2="760.0" y2="1069.0"/><text class="small" x="137.0" y="1073.0" text-anchor="end">420</text><line class="grid" x1="145.0" y1="1123.5" x2="760.0" y2="1123.5"/><text class="small" x="137.0" y="1127.5" text-anchor="end">280</text><line class="grid" x1="145.0" y1="1178.0" x2="760.0" y2="1178.0"/><text class="small" x="137.0" y="1182.0" text-anchor="end">140</text><line class="grid" x1="145.0" y1="1232.5" x2="760.0" y2="1232.5"/><text class="small" x="137.0" y="1236.5" text-anchor="end">0</text><line class="axis" x1="145.0" y1="1232.5" x2="760.0" y2="1232.5"/><line class="axis" x1="145.0" y1="960.0" x2="145.0" y2="1232.5"/><line class="grid" x1="145.0" y1="1232.5" x2="145.0" y2="1237.5"/><text class="small" x="145.0" y="1252.5" text-anchor="middle">1</text><line class="grid" x1="151.47368421052633" y1="1232.5" x2="151.47368421052633" y2="1237.5"/><text class="small" x="151.47368421052633" y="1252.5" text-anchor="middle">2</text><line class="grid" x1="164.42105263157896" y1="1232.5" x2="164.42105263157896" y2="1237.5"/><text class="small" x="164.42105263157896" y="1252.5" text-anchor="middle">4</text><line class="grid" x1="190.31578947368422" y1="1232.5" x2="190.31578947368422" y2="1237.5"/><text class="small" x="190.31578947368422" y="1252.5" text-anchor="middle">8</text><line class="grid" x1="216.21052631578948" y1="1232.5" x2="216.21052631578948" y2="1237.5"/><text class="small" x="216.21052631578948" y="1252.5" text-anchor="middle">12</text><line class="grid" x1="242.10526315789474" y1="1232.5" x2="242.10526315789474" y2="1237.5"/><text class="small" x="242.10526315789474" y="1252.5" text-anchor="middle">16</text><line class="grid" x1="293.89473684210526" y1="1232.5" x2="293.89473684210526" y2="1237.5"/><text class="small" x="293.89473684210526" y="1252.5" text-anchor="middle">24</text><line class="grid" x1="345.6842105263158" y1="1232.5" x2="345.6842105263158" y2="1237.5"/><text class="small" x="345.6842105263158" y="1252.5" text-anchor="middle">32</text><line class="grid" x1="449.2631578947368" y1="1232.5" x2="449.2631578947368" y2="1237.5"/><text class="small" x="449.2631578947368" y="1252.5" text-anchor="middle">48</text><line class="grid" x1="552.8421052631579" y1="1232.5" x2="552.8421052631579" y2="1237.5"/><text class="small" x="552.8421052631579" y="1252.5" text-anchor="middle">64</text><line class="grid" x1="760.0" y1="1232.5" x2="760.0" y2="1237.5"/><text class="small" x="760.0" y="1252.5" text-anchor="middle">96</text><polyline fill="none" stroke="#1f77b4" stroke-width="2.5" points="145.0,1196.7 151.5,1163.0 164.4,1111.5 190.3,1055.8 216.2,1029.9 242.1,1024.8 293.9,1019.4 345.7,1019.0 449.3,1015.8 552.8,1022.4 760.0,1030.5"/><circle cx="145.0" cy="1196.7" r="2.8" fill="#1f77b4"/><circle cx="151.5" cy="1163.0" r="2.8" fill="#1f77b4"/><circle cx="164.4" cy="1111.5" r="2.8" fill="#1f77b4"/><circle cx="190.3" cy="1055.8" r="2.8" fill="#1f77b4"/><circle cx="216.2" cy="1029.9" r="2.8" fill="#1f77b4"/><circle cx="242.1" cy="1024.8" r="2.8" fill="#1f77b4"/><circle cx="293.9" cy="1019.4" r="2.8" fill="#1f77b4"/><circle cx="345.7" cy="1019.0" r="2.8" fill="#1f77b4"/><circle cx="449.3" cy="1015.8" r="2.8" fill="#1f77b4"/><circle cx="552.8" cy="1022.4" r="2.8" fill="#1f77b4"/><circle cx="760.0" cy="1030.5" r="2.8" fill="#1f77b4"/><polyline fill="none" stroke="#d62728" stroke-width="2.5" points="145.0,1196.9 151.5,1162.7 164.4,1111.7 190.3,1056.7 216.2,1029.4 242.1,1027.0 293.9,1020.0 345.7,1019.0 449.3,1016.3 552.8,1021.8 760.0,1031.8"/><circle cx="145.0" cy="1196.9" r="2.8" fill="#d62728"/><circle cx="151.5" cy="1162.7" r="2.8" fill="#d62728"/><circle cx="164.4" cy="1111.7" r="2.8" fill="#d62728"/><circle cx="190.3" cy="1056.7" r="2.8" fill="#d62728"/><circle cx="216.2" cy="1029.4" r="2.8" fill="#d62728"/><circle cx="242.1" cy="1027.0" r="2.8" fill="#d62728"/><circle cx="293.9" cy="1020.0" r="2.8" fill="#d62728"/><circle cx="345.7" cy="1019.0" r="2.8" fill="#d62728"/><circle cx="449.3" cy="1016.3" r="2.8" fill="#d62728"/><circle cx="552.8" cy="1021.8" r="2.8" fill="#d62728"/><circle cx="760.0" cy="1031.8" r="2.8" fill="#d62728"/><polyline fill="none" stroke="#2ca02c" stroke-width="2.5" points="145.0,1196.8 151.5,1162.7 164.4,1111.5 190.3,1056.4 216.2,1033.3 242.1,1024.8 293.9,1019.4 345.7,1021.3 449.3,1016.0 552.8,1021.6 760.0,1030.5"/><circle cx="145.0" cy="1196.8" r="2.8" fill="#2ca02c"/><circle cx="151.5" cy="1162.7" r="2.8" fill="#2ca02c"/><circle cx="164.4" cy="1111.5" r="2.8" fill="#2ca02c"/><circle cx="190.3" cy="1056.4" r="2.8" fill="#2ca02c"/><circle cx="216.2" cy="1033.3" r="2.8" fill="#2ca02c"/><circle cx="242.1" cy="1024.8" r="2.8" fill="#2ca02c"/><circle cx="293.9" cy="1019.4" r="2.8" fill="#2ca02c"/><circle cx="345.7" cy="1021.3" r="2.8" fill="#2ca02c"/><circle cx="449.3" cy="1016.0" r="2.8" fill="#2ca02c"/><circle cx="552.8" cy="1021.6" r="2.8" fill="#2ca02c"/><circle cx="760.0" cy="1030.5" r="2.8" fill="#2ca02c"/><text class="small" x="100.0" y="1101.25" transform="rotate(-90 100.0,1101.25)" text-anchor="middle">uProf total BW GB/s</text><text x="1177.5" y="935.0" text-anchor="middle" font-size="18">dual cross</text><line class="grid" x1="890.0" y1="960.0" x2="1505.0" y2="960.0"/><text class="small" x="882.0" y="964.0" text-anchor="end">250</text><line class="grid" x1="890.0" y1="1014.5" x2="1505.0" y2="1014.5"/><text class="small" x="882.0" y="1018.5" text-anchor="end">200</text><line class="grid" x1="890.0" y1="1069.0" x2="1505.0" y2="1069.0"/><text class="small" x="882.0" y="1073.0" text-anchor="end">150</text><line class="grid" x1="890.0" y1="1123.5" x2="1505.0" y2="1123.5"/><text class="small" x="882.0" y="1127.5" text-anchor="end">100</text><line class="grid" x1="890.0" y1="1178.0" x2="1505.0" y2="1178.0"/><text class="small" x="882.0" y="1182.0" text-anchor="end">50</text><line class="grid" x1="890.0" y1="1232.5" x2="1505.0" y2="1232.5"/><text class="small" x="882.0" y="1236.5" text-anchor="end">0</text><line class="axis" x1="890.0" y1="1232.5" x2="1505.0" y2="1232.5"/><line class="axis" x1="890.0" y1="960.0" x2="890.0" y2="1232.5"/><line class="grid" x1="890.0" y1="1232.5" x2="890.0" y2="1237.5"/><text class="small" x="890.0" y="1252.5" text-anchor="middle">1</text><line class="grid" x1="896.4736842105264" y1="1232.5" x2="896.4736842105264" y2="1237.5"/><text class="small" x="896.4736842105264" y="1252.5" text-anchor="middle">2</text><line class="grid" x1="909.421052631579" y1="1232.5" x2="909.421052631579" y2="1237.5"/><text class="small" x="909.421052631579" y="1252.5" text-anchor="middle">4</text><line class="grid" x1="935.3157894736842" y1="1232.5" x2="935.3157894736842" y2="1237.5"/><text class="small" x="935.3157894736842" y="1252.5" text-anchor="middle">8</text><line class="grid" x1="961.2105263157895" y1="1232.5" x2="961.2105263157895" y2="1237.5"/><text class="small" x="961.2105263157895" y="1252.5" text-anchor="middle">12</text><line class="grid" x1="987.1052631578948" y1="1232.5" x2="987.1052631578948" y2="1237.5"/><text class="small" x="987.1052631578948" y="1252.5" text-anchor="middle">16</text><line class="grid" x1="1038.8947368421052" y1="1232.5" x2="1038.8947368421052" y2="1237.5"/><text class="small" x="1038.8947368421052" y="1252.5" text-anchor="middle">24</text><line class="grid" x1="1090.6842105263158" y1="1232.5" x2="1090.6842105263158" y2="1237.5"/><text class="small" x="1090.6842105263158" y="1252.5" text-anchor="middle">32</text><line class="grid" x1="1194.2631578947369" y1="1232.5" x2="1194.2631578947369" y2="1237.5"/><text class="small" x="1194.2631578947369" y="1252.5" text-anchor="middle">48</text><line class="grid" x1="1297.842105263158" y1="1232.5" x2="1297.842105263158" y2="1237.5"/><text class="small" x="1297.842105263158" y="1252.5" text-anchor="middle">64</text><line class="grid" x1="1505.0" y1="1232.5" x2="1505.0" y2="1237.5"/><text class="small" x="1505.0" y="1252.5" text-anchor="middle">96</text><polyline fill="none" stroke="#1f77b4" stroke-width="2.5" points="890.0,1172.6 896.5,1118.1 909.4,1040.7 935.3,1010.0 961.2,1007.7 987.1,1006.1 1038.9,1010.2 1090.7,1007.8 1194.3,1002.4 1297.8,1012.0 1505.0,1011.1"/><circle cx="890.0" cy="1172.6" r="2.8" fill="#1f77b4"/><circle cx="896.5" cy="1118.1" r="2.8" fill="#1f77b4"/><circle cx="909.4" cy="1040.7" r="2.8" fill="#1f77b4"/><circle cx="935.3" cy="1010.0" r="2.8" fill="#1f77b4"/><circle cx="961.2" cy="1007.7" r="2.8" fill="#1f77b4"/><circle cx="987.1" cy="1006.1" r="2.8" fill="#1f77b4"/><circle cx="1038.9" cy="1010.2" r="2.8" fill="#1f77b4"/><circle cx="1090.7" cy="1007.8" r="2.8" fill="#1f77b4"/><circle cx="1194.3" cy="1002.4" r="2.8" fill="#1f77b4"/><circle cx="1297.8" cy="1012.0" r="2.8" fill="#1f77b4"/><circle cx="1505.0" cy="1011.1" r="2.8" fill="#1f77b4"/><polyline fill="none" stroke="#d62728" stroke-width="2.5" points="890.0,1172.9 896.5,1116.2 909.4,1039.5 935.3,1010.5 961.2,1008.1 987.1,1006.0 1038.9,1010.8 1090.7,1009.3 1194.3,1005.1 1297.8,1015.3 1505.0,1017.9"/><circle cx="890.0" cy="1172.9" r="2.8" fill="#d62728"/><circle cx="896.5" cy="1116.2" r="2.8" fill="#d62728"/><circle cx="909.4" cy="1039.5" r="2.8" fill="#d62728"/><circle cx="935.3" cy="1010.5" r="2.8" fill="#d62728"/><circle cx="961.2" cy="1008.1" r="2.8" fill="#d62728"/><circle cx="987.1" cy="1006.0" r="2.8" fill="#d62728"/><circle cx="1038.9" cy="1010.8" r="2.8" fill="#d62728"/><circle cx="1090.7" cy="1009.3" r="2.8" fill="#d62728"/><circle cx="1194.3" cy="1005.1" r="2.8" fill="#d62728"/><circle cx="1297.8" cy="1015.3" r="2.8" fill="#d62728"/><circle cx="1505.0" cy="1017.9" r="2.8" fill="#d62728"/><polyline fill="none" stroke="#2ca02c" stroke-width="2.5" points="890.0,1172.6 896.5,1118.1 909.4,1039.7 935.3,1007.9 961.2,1007.6 987.1,1004.2 1038.9,1014.3 1090.7,1008.1 1194.3,1004.1 1297.8,1010.3 1505.0,1005.7"/><circle cx="890.0" cy="1172.6" r="2.8" fill="#2ca02c"/><circle cx="896.5" cy="1118.1" r="2.8" fill="#2ca02c"/><circle cx="909.4" cy="1039.7" r="2.8" fill="#2ca02c"/><circle cx="935.3" cy="1007.9" r="2.8" fill="#2ca02c"/><circle cx="961.2" cy="1007.6" r="2.8" fill="#2ca02c"/><circle cx="987.1" cy="1004.2" r="2.8" fill="#2ca02c"/><circle cx="1038.9" cy="1014.3" r="2.8" fill="#2ca02c"/><circle cx="1090.7" cy="1008.1" r="2.8" fill="#2ca02c"/><circle cx="1194.3" cy="1004.1" r="2.8" fill="#2ca02c"/><circle cx="1297.8" cy="1010.3" r="2.8" fill="#2ca02c"/><circle cx="1505.0" cy="1005.7" r="2.8" fill="#2ca02c"/><text class="small" x="845.0" y="1101.25" transform="rotate(-90 845.0,1101.25)" text-anchor="middle">uProf total BW GB/s</text><text x="432.5" y="1347.5" text-anchor="middle" font-size="18">mixed target0</text><line class="grid" x1="145.0" y1="1372.5" x2="760.0" y2="1372.5"/><text class="small" x="137.0" y="1376.5" text-anchor="end">400</text><line class="grid" x1="145.0" y1="1427.0" x2="760.0" y2="1427.0"/><text class="small" x="137.0" y="1431.0" text-anchor="end">320</text><line class="grid" x1="145.0" y1="1481.5" x2="760.0" y2="1481.5"/><text class="small" x="137.0" y="1485.5" text-anchor="end">240</text><line class="grid" x1="145.0" y1="1536.0" x2="760.0" y2="1536.0"/><text class="small" x="137.0" y="1540.0" text-anchor="end">160</text><line class="grid" x1="145.0" y1="1590.5" x2="760.0" y2="1590.5"/><text class="small" x="137.0" y="1594.5" text-anchor="end">80</text><line class="grid" x1="145.0" y1="1645.0" x2="760.0" y2="1645.0"/><text class="small" x="137.0" y="1649.0" text-anchor="end">0</text><line class="axis" x1="145.0" y1="1645.0" x2="760.0" y2="1645.0"/><line class="axis" x1="145.0" y1="1372.5" x2="145.0" y2="1645.0"/><line class="grid" x1="145.0" y1="1645.0" x2="145.0" y2="1650.0"/><text class="small" x="145.0" y="1665.0" text-anchor="middle">1</text><line class="grid" x1="151.47368421052633" y1="1645.0" x2="151.47368421052633" y2="1650.0"/><text class="small" x="151.47368421052633" y="1665.0" text-anchor="middle">2</text><line class="grid" x1="164.42105263157896" y1="1645.0" x2="164.42105263157896" y2="1650.0"/><text class="small" x="164.42105263157896" y="1665.0" text-anchor="middle">4</text><line class="grid" x1="190.31578947368422" y1="1645.0" x2="190.31578947368422" y2="1650.0"/><text class="small" x="190.31578947368422" y="1665.0" text-anchor="middle">8</text><line class="grid" x1="216.21052631578948" y1="1645.0" x2="216.21052631578948" y2="1650.0"/><text class="small" x="216.21052631578948" y="1665.0" text-anchor="middle">12</text><line class="grid" x1="242.10526315789474" y1="1645.0" x2="242.10526315789474" y2="1650.0"/><text class="small" x="242.10526315789474" y="1665.0" text-anchor="middle">16</text><line class="grid" x1="293.89473684210526" y1="1645.0" x2="293.89473684210526" y2="1650.0"/><text class="small" x="293.89473684210526" y="1665.0" text-anchor="middle">24</text><line class="grid" x1="345.6842105263158" y1="1645.0" x2="345.6842105263158" y2="1650.0"/><text class="small" x="345.6842105263158" y="1665.0" text-anchor="middle">32</text><line class="grid" x1="449.2631578947368" y1="1645.0" x2="449.2631578947368" y2="1650.0"/><text class="small" x="449.2631578947368" y="1665.0" text-anchor="middle">48</text><line class="grid" x1="552.8421052631579" y1="1645.0" x2="552.8421052631579" y2="1650.0"/><text class="small" x="552.8421052631579" y="1665.0" text-anchor="middle">64</text><line class="grid" x1="760.0" y1="1645.0" x2="760.0" y2="1650.0"/><text class="small" x="760.0" y="1665.0" text-anchor="middle">96</text><polyline fill="none" stroke="#1f77b4" stroke-width="2.5" points="145.0,1597.7 151.5,1555.3 164.4,1501.5 190.3,1452.0 216.2,1449.0 242.1,1448.2 293.9,1448.9 345.7,1450.7 449.3,1440.3 552.8,1451.3 760.0,1438.3"/><circle cx="145.0" cy="1597.7" r="2.8" fill="#1f77b4"/><circle cx="151.5" cy="1555.3" r="2.8" fill="#1f77b4"/><circle cx="164.4" cy="1501.5" r="2.8" fill="#1f77b4"/><circle cx="190.3" cy="1452.0" r="2.8" fill="#1f77b4"/><circle cx="216.2" cy="1449.0" r="2.8" fill="#1f77b4"/><circle cx="242.1" cy="1448.2" r="2.8" fill="#1f77b4"/><circle cx="293.9" cy="1448.9" r="2.8" fill="#1f77b4"/><circle cx="345.7" cy="1450.7" r="2.8" fill="#1f77b4"/><circle cx="449.3" cy="1440.3" r="2.8" fill="#1f77b4"/><circle cx="552.8" cy="1451.3" r="2.8" fill="#1f77b4"/><circle cx="760.0" cy="1438.3" r="2.8" fill="#1f77b4"/><polyline fill="none" stroke="#d62728" stroke-width="2.5" points="145.0,1597.3 151.5,1555.1 164.4,1501.9 190.3,1455.4 216.2,1448.5 242.1,1448.4 293.9,1448.9 345.7,1451.0 449.3,1440.7 552.8,1455.3 760.0,1445.0"/><circle cx="145.0" cy="1597.3" r="2.8" fill="#d62728"/><circle cx="151.5" cy="1555.1" r="2.8" fill="#d62728"/><circle cx="164.4" cy="1501.9" r="2.8" fill="#d62728"/><circle cx="190.3" cy="1455.4" r="2.8" fill="#d62728"/><circle cx="216.2" cy="1448.5" r="2.8" fill="#d62728"/><circle cx="242.1" cy="1448.4" r="2.8" fill="#d62728"/><circle cx="293.9" cy="1448.9" r="2.8" fill="#d62728"/><circle cx="345.7" cy="1451.0" r="2.8" fill="#d62728"/><circle cx="449.3" cy="1440.7" r="2.8" fill="#d62728"/><circle cx="552.8" cy="1455.3" r="2.8" fill="#d62728"/><circle cx="760.0" cy="1445.0" r="2.8" fill="#d62728"/><polyline fill="none" stroke="#2ca02c" stroke-width="2.5" points="145.0,1597.6 151.5,1556.4 164.4,1498.6 190.3,1453.2 216.2,1449.0 242.1,1445.6 293.9,1450.2 345.7,1450.1 449.3,1445.7 552.8,1451.5 760.0,1437.9"/><circle cx="145.0" cy="1597.6" r="2.8" fill="#2ca02c"/><circle cx="151.5" cy="1556.4" r="2.8" fill="#2ca02c"/><circle cx="164.4" cy="1498.6" r="2.8" fill="#2ca02c"/><circle cx="190.3" cy="1453.2" r="2.8" fill="#2ca02c"/><circle cx="216.2" cy="1449.0" r="2.8" fill="#2ca02c"/><circle cx="242.1" cy="1445.6" r="2.8" fill="#2ca02c"/><circle cx="293.9" cy="1450.2" r="2.8" fill="#2ca02c"/><circle cx="345.7" cy="1450.1" r="2.8" fill="#2ca02c"/><circle cx="449.3" cy="1445.7" r="2.8" fill="#2ca02c"/><circle cx="552.8" cy="1451.5" r="2.8" fill="#2ca02c"/><circle cx="760.0" cy="1437.9" r="2.8" fill="#2ca02c"/><text class="small" x="100.0" y="1513.75" transform="rotate(-90 100.0,1513.75)" text-anchor="middle">uProf total BW GB/s</text><text x="1177.5" y="1347.5" text-anchor="middle" font-size="18">mixed target1</text><line class="grid" x1="890.0" y1="1372.5" x2="1505.0" y2="1372.5"/><text class="small" x="882.0" y="1376.5" text-anchor="end">400</text><line class="grid" x1="890.0" y1="1427.0" x2="1505.0" y2="1427.0"/><text class="small" x="882.0" y="1431.0" text-anchor="end">320</text><line class="grid" x1="890.0" y1="1481.5" x2="1505.0" y2="1481.5"/><text class="small" x="882.0" y="1485.5" text-anchor="end">240</text><line class="grid" x1="890.0" y1="1536.0" x2="1505.0" y2="1536.0"/><text class="small" x="882.0" y="1540.0" text-anchor="end">160</text><line class="grid" x1="890.0" y1="1590.5" x2="1505.0" y2="1590.5"/><text class="small" x="882.0" y="1594.5" text-anchor="end">80</text><line class="grid" x1="890.0" y1="1645.0" x2="1505.0" y2="1645.0"/><text class="small" x="882.0" y="1649.0" text-anchor="end">0</text><line class="axis" x1="890.0" y1="1645.0" x2="1505.0" y2="1645.0"/><line class="axis" x1="890.0" y1="1372.5" x2="890.0" y2="1645.0"/><line class="grid" x1="890.0" y1="1645.0" x2="890.0" y2="1650.0"/><text class="small" x="890.0" y="1665.0" text-anchor="middle">1</text><line class="grid" x1="896.4736842105264" y1="1645.0" x2="896.4736842105264" y2="1650.0"/><text class="small" x="896.4736842105264" y="1665.0" text-anchor="middle">2</text><line class="grid" x1="909.421052631579" y1="1645.0" x2="909.421052631579" y2="1650.0"/><text class="small" x="909.421052631579" y="1665.0" text-anchor="middle">4</text><line class="grid" x1="935.3157894736842" y1="1645.0" x2="935.3157894736842" y2="1650.0"/><text class="small" x="935.3157894736842" y="1665.0" text-anchor="middle">8</text><line class="grid" x1="961.2105263157895" y1="1645.0" x2="961.2105263157895" y2="1650.0"/><text class="small" x="961.2105263157895" y="1665.0" text-anchor="middle">12</text><line class="grid" x1="987.1052631578948" y1="1645.0" x2="987.1052631578948" y2="1650.0"/><text class="small" x="987.1052631578948" y="1665.0" text-anchor="middle">16</text><line class="grid" x1="1038.8947368421052" y1="1645.0" x2="1038.8947368421052" y2="1650.0"/><text class="small" x="1038.8947368421052" y="1665.0" text-anchor="middle">24</text><line class="grid" x1="1090.6842105263158" y1="1645.0" x2="1090.6842105263158" y2="1650.0"/><text class="small" x="1090.6842105263158" y="1665.0" text-anchor="middle">32</text><line class="grid" x1="1194.2631578947369" y1="1645.0" x2="1194.2631578947369" y2="1650.0"/><text class="small" x="1194.2631578947369" y="1665.0" text-anchor="middle">48</text><line class="grid" x1="1297.842105263158" y1="1645.0" x2="1297.842105263158" y2="1650.0"/><text class="small" x="1297.842105263158" y="1665.0" text-anchor="middle">64</text><line class="grid" x1="1505.0" y1="1645.0" x2="1505.0" y2="1650.0"/><text class="small" x="1505.0" y="1665.0" text-anchor="middle">96</text><polyline fill="none" stroke="#1f77b4" stroke-width="2.5" points="890.0,1595.5 896.5,1551.1 909.4,1493.4 935.3,1442.7 961.2,1435.0 987.1,1435.5 1038.9,1430.3 1090.7,1429.8 1194.3,1424.5 1297.8,1437.2 1505.0,1427.1"/><circle cx="890.0" cy="1595.5" r="2.8" fill="#1f77b4"/><circle cx="896.5" cy="1551.1" r="2.8" fill="#1f77b4"/><circle cx="909.4" cy="1493.4" r="2.8" fill="#1f77b4"/><circle cx="935.3" cy="1442.7" r="2.8" fill="#1f77b4"/><circle cx="961.2" cy="1435.0" r="2.8" fill="#1f77b4"/><circle cx="987.1" cy="1435.5" r="2.8" fill="#1f77b4"/><circle cx="1038.9" cy="1430.3" r="2.8" fill="#1f77b4"/><circle cx="1090.7" cy="1429.8" r="2.8" fill="#1f77b4"/><circle cx="1194.3" cy="1424.5" r="2.8" fill="#1f77b4"/><circle cx="1297.8" cy="1437.2" r="2.8" fill="#1f77b4"/><circle cx="1505.0" cy="1427.1" r="2.8" fill="#1f77b4"/><polyline fill="none" stroke="#d62728" stroke-width="2.5" points="890.0,1594.8 896.5,1550.4 909.4,1496.3 935.3,1445.3 961.2,1439.0 987.1,1436.6 1038.9,1434.7 1090.7,1430.5 1194.3,1424.6 1297.8,1437.6 1505.0,1428.0"/><circle cx="890.0" cy="1594.8" r="2.8" fill="#d62728"/><circle cx="896.5" cy="1550.4" r="2.8" fill="#d62728"/><circle cx="909.4" cy="1496.3" r="2.8" fill="#d62728"/><circle cx="935.3" cy="1445.3" r="2.8" fill="#d62728"/><circle cx="961.2" cy="1439.0" r="2.8" fill="#d62728"/><circle cx="987.1" cy="1436.6" r="2.8" fill="#d62728"/><circle cx="1038.9" cy="1434.7" r="2.8" fill="#d62728"/><circle cx="1090.7" cy="1430.5" r="2.8" fill="#d62728"/><circle cx="1194.3" cy="1424.6" r="2.8" fill="#d62728"/><circle cx="1297.8" cy="1437.6" r="2.8" fill="#d62728"/><circle cx="1505.0" cy="1428.0" r="2.8" fill="#d62728"/><polyline fill="none" stroke="#2ca02c" stroke-width="2.5" points="890.0,1595.0 896.5,1550.9 909.4,1496.5 935.3,1443.9 961.2,1434.4 987.1,1435.8 1038.9,1433.7 1090.7,1430.4 1194.3,1424.4 1297.8,1441.3 1505.0,1426.8"/><circle cx="890.0" cy="1595.0" r="2.8" fill="#2ca02c"/><circle cx="896.5" cy="1550.9" r="2.8" fill="#2ca02c"/><circle cx="909.4" cy="1496.5" r="2.8" fill="#2ca02c"/><circle cx="935.3" cy="1443.9" r="2.8" fill="#2ca02c"/><circle cx="961.2" cy="1434.4" r="2.8" fill="#2ca02c"/><circle cx="987.1" cy="1435.8" r="2.8" fill="#2ca02c"/><circle cx="1038.9" cy="1433.7" r="2.8" fill="#2ca02c"/><circle cx="1090.7" cy="1430.4" r="2.8" fill="#2ca02c"/><circle cx="1194.3" cy="1424.4" r="2.8" fill="#2ca02c"/><circle cx="1297.8" cy="1441.3" r="2.8" fill="#2ca02c"/><circle cx="1505.0" cy="1426.8" r="2.8" fill="#2ca02c"/><text class="small" x="845.0" y="1513.75" transform="rotate(-90 845.0,1513.75)" text-anchor="middle">uProf total BW GB/s</text></svg>