<svg xmlns="http://www.w3.org/2000/svg" width="1400" height="1000" viewBox="0 0 1400 1000"><style>text{font-family:monospace;fill:#111}.small{font-size:14px}.axis{stroke:#444;stroke-width:1}.grid{stroke:#ddd;stroke-width:1}</style><rect x="0" y="0" width="1400" height="1000" fill="white"/><text x="700.0" y="40" text-anchor="middle" font-size="24">local NUMA throughput: interleave CCD vs dense packing (1MiB)</text><text x="700.0" y="68" text-anchor="middle" font-size="16">solid = interleave CCD, dashed = dense packing</text><line x1="1040" y1="28" x2="1068" y2="28" stroke="#1f77b4" stroke-width="3"/><text x="1076" y="33" font-size="14">1302</text><line x1="1040" y1="52" x2="1068" y2="52" stroke="#d62728" stroke-width="3"/><text x="1076" y="57" font-size="14">1306</text><line x1="1040" y1="76" x2="1068" y2="76" stroke="#2ca02c" stroke-width="3"/><text x="1076" y="81" font-size="14">1308</text><line x1="1160" y1="28" x2="1188" y2="28" stroke="#444" stroke-width="2"/><text x="1196" y="33" font-size="14">interleave CCD</text><line x1="1160" y1="52" x2="1188" y2="52" stroke="#444" stroke-width="2" stroke-dasharray="7,4"/><text x="1196" y="57" font-size="14">dense packing</text><text x="382.5" y="110" text-anchor="middle" font-size="18">local numa0</text><line class="grid" x1="145.0" y1="135.0" x2="660.0" y2="135.0"/><text class="small" x="137.0" y="139.0" text-anchor="end">275</text><line class="grid" x1="145.0" y1="277.0" x2="660.0" y2="277.0"/><text class="small" x="137.0" y="281.0" text-anchor="end">220</text><line class="grid" x1="145.0" y1="419.0" x2="660.0" y2="419.0"/><text class="small" x="137.0" y="423.0" text-anchor="end">165</text><line class="grid" x1="145.0" y1="561.0" x2="660.0" y2="561.0"/><text class="small" x="137.0" y="565.0" text-anchor="end">110</text><line class="grid" x1="145.0" y1="703.0" x2="660.0" y2="703.0"/><text class="small" x="137.0" y="707.0" text-anchor="end">55</text><line class="grid" x1="145.0" y1="845.0" x2="660.0" y2="845.0"/><text class="small" x="137.0" y="849.0" text-anchor="end">0</text><line class="axis" x1="145.0" y1="845" x2="660.0" y2="845"/><line class="axis" x1="145.0" y1="135" x2="145.0" y2="845"/><line class="grid" x1="145.0" y1="845" x2="145.0" y2="850"/><text class="small" x="145.0" y="865" text-anchor="middle">1</text><line class="grid" x1="150.42105263157896" y1="845" x2="150.42105263157896" y2="850"/><text class="small" x="150.42105263157896" y="865" text-anchor="middle">2</text><line class="grid" x1="161.26315789473685" y1="845" x2="161.26315789473685" y2="850"/><text class="small" x="161.26315789473685" y="865" text-anchor="middle">4</text><line class="grid" x1="182.94736842105263" y1="845" x2="182.94736842105263" y2="850"/><text class="small" x="182.94736842105263" y="865" text-anchor="middle">8</text><line class="grid" x1="204.6315789473684" y1="845" x2="204.6315789473684" y2="850"/><text class="small" x="204.6315789473684" y="865" text-anchor="middle">12</text><line class="grid" x1="226.31578947368422" y1="845" x2="226.31578947368422" y2="850"/><text class="small" x="226.31578947368422" y="865" text-anchor="middle">16</text><line class="grid" x1="269.6842105263158" y1="845" x2="269.6842105263158" y2="850"/><text class="small" x="269.6842105263158" y="865" text-anchor="middle">24</text><line class="grid" x1="313.0526315789474" y1="845" x2="313.0526315789474" y2="850"/><text class="small" x="313.0526315789474" y="865" text-anchor="middle">32</text><line class="grid" x1="399.7894736842105" y1="845" x2="399.7894736842105" y2="850"/><text class="small" x="399.7894736842105" y="865" text-anchor="middle">48</text><line class="grid" x1="486.5263157894737" y1="845" x2="486.5263157894737" y2="850"/><text class="small" x="486.5263157894737" y="865" text-anchor="middle">64</text><line class="grid" x1="660.0" y1="845" x2="660.0" y2="850"/><text class="small" x="660.0" y="865" text-anchor="middle">96</text><polyline fill="none" stroke="#1f77b4" stroke-width="2.5" points="145.0,746.3 150.4,649.4 161.3,503.8 182.9,351.3 204.6,266.6 226.3,267.4 269.7,279.6 313.1,286.2 399.8,291.1 486.5,292.8 660.0,292.1"/><circle cx="145.0" cy="746.3" r="2.8" fill="#1f77b4"/><circle cx="150.4" cy="649.4" r="2.8" fill="#1f77b4"/><circle cx="161.3" cy="503.8" r="2.8" fill="#1f77b4"/><circle cx="182.9" cy="351.3" r="2.8" fill="#1f77b4"/><circle cx="204.6" cy="266.6" r="2.8" fill="#1f77b4"/><circle cx="226.3" cy="267.4" r="2.8" fill="#1f77b4"/><circle cx="269.7" cy="279.6" r="2.8" fill="#1f77b4"/><circle cx="313.1" cy="286.2" r="2.8" fill="#1f77b4"/><circle cx="399.8" cy="291.1" r="2.8" fill="#1f77b4"/><circle cx="486.5" cy="292.8" r="2.8" fill="#1f77b4"/><circle cx="660.0" cy="292.1" r="2.8" fill="#1f77b4"/><polyline fill="none" stroke="#1f77b4" stroke-width="2.5" stroke-dasharray="7,4" points="145.0,747.3 150.4,737.9 161.3,738.8 182.9,737.8 204.6,640.3 226.3,640.3 269.7,561.9 313.1,490.7 399.8,388.7 486.5,330.8 660.0,293.8"/><circle cx="145.0" cy="747.3" r="2.8" fill="#1f77b4"/><circle cx="150.4" cy="737.9" r="2.8" fill="#1f77b4"/><circle cx="161.3" cy="738.8" r="2.8" fill="#1f77b4"/><circle cx="182.9" cy="737.8" r="2.8" fill="#1f77b4"/><circle cx="204.6" cy="640.3" r="2.8" fill="#1f77b4"/><circle cx="226.3" cy="640.3" r="2.8" fill="#1f77b4"/><circle cx="269.7" cy="561.9" r="2.8" fill="#1f77b4"/><circle cx="313.1" cy="490.7" r="2.8" fill="#1f77b4"/><circle cx="399.8" cy="388.7" r="2.8" fill="#1f77b4"/><circle cx="486.5" cy="330.8" r="2.8" fill="#1f77b4"/><circle cx="660.0" cy="293.8" r="2.8" fill="#1f77b4"/><polyline fill="none" stroke="#d62728" stroke-width="2.5" points="145.0,747.5 150.4,651.0 161.3,503.7 182.9,355.3 204.6,265.9 226.3,269.0 269.7,282.5 313.1,286.7 399.8,291.1 486.5,292.7 660.0,294.2"/><circle cx="145.0" cy="747.5" r="2.8" fill="#d62728"/><circle cx="150.4" cy="651.0" r="2.8" fill="#d62728"/><circle cx="161.3" cy="503.7" r="2.8" fill="#d62728"/><circle cx="182.9" cy="355.3" r="2.8" fill="#d62728"/><circle cx="204.6" cy="265.9" r="2.8" fill="#d62728"/><circle cx="226.3" cy="269.0" r="2.8" fill="#d62728"/><circle cx="269.7" cy="282.5" r="2.8" fill="#d62728"/><circle cx="313.1" cy="286.7" r="2.8" fill="#d62728"/><circle cx="399.8" cy="291.1" r="2.8" fill="#d62728"/><circle cx="486.5" cy="292.7" r="2.8" fill="#d62728"/><circle cx="660.0" cy="294.2" r="2.8" fill="#d62728"/><polyline fill="none" stroke="#d62728" stroke-width="2.5" stroke-dasharray="7,4" points="145.0,747.2 150.4,738.4 161.3,738.9 182.9,738.2 204.6,639.7 226.3,640.0 269.7,561.7 313.1,490.7 399.8,388.4 486.5,331.0 660.0,294.0"/><circle cx="145.0" cy="747.2" r="2.8" fill="#d62728"/><circle cx="150.4" cy="738.4" r="2.8" fill="#d62728"/><circle cx="161.3" cy="738.9" r="2.8" fill="#d62728"/><circle cx="182.9" cy="738.2" r="2.8" fill="#d62728"/><circle cx="204.6" cy="639.7" r="2.8" fill="#d62728"/><circle cx="226.3" cy="640.0" r="2.8" fill="#d62728"/><circle cx="269.7" cy="561.7" r="2.8" fill="#d62728"/><circle cx="313.1" cy="490.7" r="2.8" fill="#d62728"/><circle cx="399.8" cy="388.4" r="2.8" fill="#d62728"/><circle cx="486.5" cy="331.0" r="2.8" fill="#d62728"/><circle cx="660.0" cy="294.0" r="2.8" fill="#d62728"/><polyline fill="none" stroke="#2ca02c" stroke-width="2.5" points="145.0,746.8 150.4,650.4 161.3,512.3 182.9,344.3 204.6,273.1 226.3,265.8 269.7,278.7 313.1,288.1 399.8,290.9 486.5,292.9 660.0,294.0"/><circle cx="145.0" cy="746.8" r="2.8" fill="#2ca02c"/><circle cx="150.4" cy="650.4" r="2.8" fill="#2ca02c"/><circle cx="161.3" cy="512.3" r="2.8" fill="#2ca02c"/><circle cx="182.9" cy="344.3" r="2.8" fill="#2ca02c"/><circle cx="204.6" cy="273.1" r="2.8" fill="#2ca02c"/><circle cx="226.3" cy="265.8" r="2.8" fill="#2ca02c"/><circle cx="269.7" cy="278.7" r="2.8" fill="#2ca02c"/><circle cx="313.1" cy="288.1" r="2.8" fill="#2ca02c"/><circle cx="399.8" cy="290.9" r="2.8" fill="#2ca02c"/><circle cx="486.5" cy="292.9" r="2.8" fill="#2ca02c"/><circle cx="660.0" cy="294.0" r="2.8" fill="#2ca02c"/><polyline fill="none" stroke="#2ca02c" stroke-width="2.5" stroke-dasharray="7,4" points="145.0,747.0 150.4,738.3 161.3,739.1 182.9,738.2 204.6,640.3 226.3,640.6 269.7,561.9 313.1,491.3 399.8,389.1 486.5,331.0 660.0,293.0"/><circle cx="145.0" cy="747.0" r="2.8" fill="#2ca02c"/><circle cx="150.4" cy="738.3" r="2.8" fill="#2ca02c"/><circle cx="161.3" cy="739.1" r="2.8" fill="#2ca02c"/><circle cx="182.9" cy="738.2" r="2.8" fill="#2ca02c"/><circle cx="204.6" cy="640.3" r="2.8" fill="#2ca02c"/><circle cx="226.3" cy="640.6" r="2.8" fill="#2ca02c"/><circle cx="269.7" cy="561.9" r="2.8" fill="#2ca02c"/><circle cx="313.1" cy="491.3" r="2.8" fill="#2ca02c"/><circle cx="399.8" cy="389.1" r="2.8" fill="#2ca02c"/><circle cx="486.5" cy="331.0" r="2.8" fill="#2ca02c"/><circle cx="660.0" cy="293.0" r="2.8" fill="#2ca02c"/><text class="small" x="100.0" y="495.0" transform="rotate(-90 100.0,495.0)" text-anchor="middle">bench traffic GB/s</text><text x="1027.5" y="110" text-anchor="middle" font-size="18">local numa1</text><line class="grid" x1="790.0" y1="135.0" x2="1305.0" y2="135.0"/><text class="small" x="782.0" y="139.0" text-anchor="end">275</text><line class="grid" x1="790.0" y1="277.0" x2="1305.0" y2="277.0"/><text class="small" x="782.0" y="281.0" text-anchor="end">220</text><line class="grid" x1="790.0" y1="419.0" x2="1305.0" y2="419.0"/><text class="small" x="782.0" y="423.0" text-anchor="end">165</text><line class="grid" x1="790.0" y1="561.0" x2="1305.0" y2="561.0"/><text class="small" x="782.0" y="565.0" text-anchor="end">110</text><line class="grid" x1="790.0" y1="703.0" x2="1305.0" y2="703.0"/><text class="small" x="782.0" y="707.0" text-anchor="end">55</text><line class="grid" x1="790.0" y1="845.0" x2="1305.0" y2="845.0"/><text class="small" x="782.0" y="849.0" text-anchor="end">0</text><line class="axis" x1="790.0" y1="845" x2="1305.0" y2="845"/><line class="axis" x1="790.0" y1="135" x2="790.0" y2="845"/><line class="grid" x1="790.0" y1="845" x2="790.0" y2="850"/><text class="small" x="790.0" y="865" text-anchor="middle">1</text><line class="grid" x1="795.421052631579" y1="845" x2="795.421052631579" y2="850"/><text class="small" x="795.421052631579" y="865" text-anchor="middle">2</text><line class="grid" x1="806.2631578947369" y1="845" x2="806.2631578947369" y2="850"/><text class="small" x="806.2631578947369" y="865" text-anchor="middle">4</text><line class="grid" x1="827.9473684210526" y1="845" x2="827.9473684210526" y2="850"/><text class="small" x="827.9473684210526" y="865" text-anchor="middle">8</text><line class="grid" x1="849.6315789473684" y1="845" x2="849.6315789473684" y2="850"/><text class="small" x="849.6315789473684" y="865" text-anchor="middle">12</text><line class="grid" x1="871.3157894736842" y1="845" x2="871.3157894736842" y2="850"/><text class="small" x="871.3157894736842" y="865" text-anchor="middle">16</text><line class="grid" x1="914.6842105263158" y1="845" x2="914.6842105263158" y2="850"/><text class="small" x="914.6842105263158" y="865" text-anchor="middle">24</text><line class="grid" x1="958.0526315789474" y1="845" x2="958.0526315789474" y2="850"/><text class="small" x="958.0526315789474" y="865" text-anchor="middle">32</text><line class="grid" x1="1044.7894736842104" y1="845" x2="1044.7894736842104" y2="850"/><text class="small" x="1044.7894736842104" y="865" text-anchor="middle">48</text><line class="grid" x1="1131.5263157894738" y1="845" x2="1131.5263157894738" y2="850"/><text class="small" x="1131.5263157894738" y="865" text-anchor="middle">64</text><line class="grid" x1="1305.0" y1="845" x2="1305.0" y2="850"/><text class="small" x="1305.0" y="865" text-anchor="middle">96</text><polyline fill="none" stroke="#1f77b4" stroke-width="2.5" points="790.0,745.8 795.4,649.2 806.3,512.6 827.9,349.1 849.6,263.9 871.3,267.9 914.7,280.0 958.1,288.1 1044.8,291.5 1131.5,294.1 1305.0,294.0"/><circle cx="790.0" cy="745.8" r="2.8" fill="#1f77b4"/><circle cx="795.4" cy="649.2" r="2.8" fill="#1f77b4"/><circle cx="806.3" cy="512.6" r="2.8" fill="#1f77b4"/><circle cx="827.9" cy="349.1" r="2.8" fill="#1f77b4"/><circle cx="849.6" cy="263.9" r="2.8" fill="#1f77b4"/><circle cx="871.3" cy="267.9" r="2.8" fill="#1f77b4"/><circle cx="914.7" cy="280.0" r="2.8" fill="#1f77b4"/><circle cx="958.1" cy="288.1" r="2.8" fill="#1f77b4"/><circle cx="1044.8" cy="291.5" r="2.8" fill="#1f77b4"/><circle cx="1131.5" cy="294.1" r="2.8" fill="#1f77b4"/><circle cx="1305.0" cy="294.0" r="2.8" fill="#1f77b4"/><polyline fill="none" stroke="#1f77b4" stroke-width="2.5" stroke-dasharray="7,4" points="790.0,745.5 795.4,738.2 806.3,738.6 827.9,738.4 849.6,641.0 871.3,640.5 914.7,562.7 958.1,491.8 1044.8,388.5 1131.5,330.6 1305.0,293.4"/><circle cx="790.0" cy="745.5" r="2.8" fill="#1f77b4"/><circle cx="795.4" cy="738.2" r="2.8" fill="#1f77b4"/><circle cx="806.3" cy="738.6" r="2.8" fill="#1f77b4"/><circle cx="827.9" cy="738.4" r="2.8" fill="#1f77b4"/><circle cx="849.6" cy="641.0" r="2.8" fill="#1f77b4"/><circle cx="871.3" cy="640.5" r="2.8" fill="#1f77b4"/><circle cx="914.7" cy="562.7" r="2.8" fill="#1f77b4"/><circle cx="958.1" cy="491.8" r="2.8" fill="#1f77b4"/><circle cx="1044.8" cy="388.5" r="2.8" fill="#1f77b4"/><circle cx="1131.5" cy="330.6" r="2.8" fill="#1f77b4"/><circle cx="1305.0" cy="293.4" r="2.8" fill="#1f77b4"/><polyline fill="none" stroke="#d62728" stroke-width="2.5" points="790.0,747.5 795.4,651.3 806.3,510.4 827.9,350.7 849.6,266.2 871.3,271.1 914.7,279.1 958.1,286.7 1044.8,291.2 1131.5,294.4 1305.0,294.1"/><circle cx="790.0" cy="747.5" r="2.8" fill="#d62728"/><circle cx="795.4" cy="651.3" r="2.8" fill="#d62728"/><circle cx="806.3" cy="510.4" r="2.8" fill="#d62728"/><circle cx="827.9" cy="350.7" r="2.8" fill="#d62728"/><circle cx="849.6" cy="266.2" r="2.8" fill="#d62728"/><circle cx="871.3" cy="271.1" r="2.8" fill="#d62728"/><circle cx="914.7" cy="279.1" r="2.8" fill="#d62728"/><circle cx="958.1" cy="286.7" r="2.8" fill="#d62728"/><circle cx="1044.8" cy="291.2" r="2.8" fill="#d62728"/><circle cx="1131.5" cy="294.4" r="2.8" fill="#d62728"/><circle cx="1305.0" cy="294.1" r="2.8" fill="#d62728"/><polyline fill="none" stroke="#d62728" stroke-width="2.5" stroke-dasharray="7,4" points="790.0,745.5 795.4,738.0 806.3,738.7 827.9,738.2 849.6,640.0 871.3,640.0 914.7,561.9 958.1,491.3 1044.8,388.7 1131.5,330.6 1305.0,294.2"/><circle cx="790.0" cy="745.5" r="2.8" fill="#d62728"/><circle cx="795.4" cy="738.0" r="2.8" fill="#d62728"/><circle cx="806.3" cy="738.7" r="2.8" fill="#d62728"/><circle cx="827.9" cy="738.2" r="2.8" fill="#d62728"/><circle cx="849.6" cy="640.0" r="2.8" fill="#d62728"/><circle cx="871.3" cy="640.0" r="2.8" fill="#d62728"/><circle cx="914.7" cy="561.9" r="2.8" fill="#d62728"/><circle cx="958.1" cy="491.3" r="2.8" fill="#d62728"/><circle cx="1044.8" cy="388.7" r="2.8" fill="#d62728"/><circle cx="1131.5" cy="330.6" r="2.8" fill="#d62728"/><circle cx="1305.0" cy="294.2" r="2.8" fill="#d62728"/><polyline fill="none" stroke="#2ca02c" stroke-width="2.5" points="790.0,747.2 795.4,649.1 806.3,512.7 827.9,364.2 849.6,266.5 871.3,271.0 914.7,279.1 958.1,289.0 1044.8,291.4 1131.5,294.0 1305.0,294.4"/><circle cx="790.0" cy="747.2" r="2.8" fill="#2ca02c"/><circle cx="795.4" cy="649.1" r="2.8" fill="#2ca02c"/><circle cx="806.3" cy="512.7" r="2.8" fill="#2ca02c"/><circle cx="827.9" cy="364.2" r="2.8" fill="#2ca02c"/><circle cx="849.6" cy="266.5" r="2.8" fill="#2ca02c"/><circle cx="871.3" cy="271.0" r="2.8" fill="#2ca02c"/><circle cx="914.7" cy="279.1" r="2.8" fill="#2ca02c"/><circle cx="958.1" cy="289.0" r="2.8" fill="#2ca02c"/><circle cx="1044.8" cy="291.4" r="2.8" fill="#2ca02c"/><circle cx="1131.5" cy="294.0" r="2.8" fill="#2ca02c"/><circle cx="1305.0" cy="294.4" r="2.8" fill="#2ca02c"/><polyline fill="none" stroke="#2ca02c" stroke-width="2.5" stroke-dasharray="7,4" points="790.0,747.2 795.4,738.0 806.3,738.2 827.9,738.3 849.6,640.3 871.3,640.7 914.7,562.5 958.1,491.5 1044.8,388.6 1131.5,330.6 1305.0,294.2"/><circle cx="790.0" cy="747.2" r="2.8" fill="#2ca02c"/><circle cx="795.4" cy="738.0" r="2.8" fill="#2ca02c"/><circle cx="806.3" cy="738.2" r="2.8" fill="#2ca02c"/><circle cx="827.9" cy="738.3" r="2.8" fill="#2ca02c"/><circle cx="849.6" cy="640.3" r="2.8" fill="#2ca02c"/><circle cx="871.3" cy="640.7" r="2.8" fill="#2ca02c"/><circle cx="914.7" cy="562.5" r="2.8" fill="#2ca02c"/><circle cx="958.1" cy="491.5" r="2.8" fill="#2ca02c"/><circle cx="1044.8" cy="388.6" r="2.8" fill="#2ca02c"/><circle cx="1131.5" cy="330.6" r="2.8" fill="#2ca02c"/><circle cx="1305.0" cy="294.2" r="2.8" fill="#2ca02c"/><text class="small" x="745.0" y="495.0" transform="rotate(-90 745.0,495.0)" text-anchor="middle">bench traffic GB/s</text></svg>