<svg xmlns="http://www.w3.org/2000/svg" width="1400" height="1000" viewBox="0 0 1400 1000"><style>text{font-family:monospace;fill:#111}.small{font-size:14px}.axis{stroke:#444;stroke-width:1}.grid{stroke:#ddd;stroke-width:1}</style><rect x="0" y="0" width="1400" height="1000" fill="white"/><text x="700.0" y="40" text-anchor="middle" font-size="24">local NUMA memory BW per thread: interleave CCD vs dense packing (1MiB)</text><text x="700.0" y="68" text-anchor="middle" font-size="16">solid = interleave CCD, dashed = dense packing</text><line x1="1040" y1="28" x2="1068" y2="28" stroke="#1f77b4" stroke-width="3"/><text x="1076" y="33" font-size="14">1302</text><line x1="1040" y1="52" x2="1068" y2="52" stroke="#d62728" stroke-width="3"/><text x="1076" y="57" font-size="14">1306</text><line x1="1040" y1="76" x2="1068" y2="76" stroke="#2ca02c" stroke-width="3"/><text x="1076" y="81" font-size="14">1308</text><line x1="1160" y1="28" x2="1188" y2="28" stroke="#444" stroke-width="2"/><text x="1196" y="33" font-size="14">interleave CCD</text><line x1="1160" y1="52" x2="1188" y2="52" stroke="#444" stroke-width="2" stroke-dasharray="7,4"/><text x="1196" y="57" font-size="14">dense packing</text><text x="382.5" y="110" text-anchor="middle" font-size="18">local numa0</text><line class="grid" x1="145.0" y1="135.0" x2="660.0" y2="135.0"/><text class="small" x="137.0" y="139.0" text-anchor="end">70</text><line class="grid" x1="145.0" y1="277.0" x2="660.0" y2="277.0"/><text class="small" x="137.0" y="281.0" text-anchor="end">56</text><line class="grid" x1="145.0" y1="419.0" x2="660.0" y2="419.0"/><text class="small" x="137.0" y="423.0" text-anchor="end">42</text><line class="grid" x1="145.0" y1="561.0" x2="660.0" y2="561.0"/><text class="small" x="137.0" y="565.0" text-anchor="end">28</text><line class="grid" x1="145.0" y1="703.0" x2="660.0" y2="703.0"/><text class="small" x="137.0" y="707.0" text-anchor="end">14</text><line class="grid" x1="145.0" y1="845.0" x2="660.0" y2="845.0"/><text class="small" x="137.0" y="849.0" text-anchor="end">0</text><line class="axis" x1="145.0" y1="845" x2="660.0" y2="845"/><line class="axis" x1="145.0" y1="135" x2="145.0" y2="845"/><line class="grid" x1="145.0" y1="845" x2="145.0" y2="850"/><text class="small" x="145.0" y="865" text-anchor="middle">1</text><line class="grid" x1="150.42105263157896" y1="845" x2="150.42105263157896" y2="850"/><text class="small" x="150.42105263157896" y="865" text-anchor="middle">2</text><line class="grid" x1="161.26315789473685" y1="845" x2="161.26315789473685" y2="850"/><text class="small" x="161.26315789473685" y="865" text-anchor="middle">4</text><line class="grid" x1="182.94736842105263" y1="845" x2="182.94736842105263" y2="850"/><text class="small" x="182.94736842105263" y="865" text-anchor="middle">8</text><line class="grid" x1="204.6315789473684" y1="845" x2="204.6315789473684" y2="850"/><text class="small" x="204.6315789473684" y="865" text-anchor="middle">12</text><line class="grid" x1="226.31578947368422" y1="845" x2="226.31578947368422" y2="850"/><text class="small" x="226.31578947368422" y="865" text-anchor="middle">16</text><line class="grid" x1="269.6842105263158" y1="845" x2="269.6842105263158" y2="850"/><text class="small" x="269.6842105263158" y="865" text-anchor="middle">24</text><line class="grid" x1="313.0526315789474" y1="845" x2="313.0526315789474" y2="850"/><text class="small" x="313.0526315789474" y="865" text-anchor="middle">32</text><line class="grid" x1="399.7894736842105" y1="845" x2="399.7894736842105" y2="850"/><text class="small" x="399.7894736842105" y="865" text-anchor="middle">48</text><line class="grid" x1="486.5263157894737" y1="845" x2="486.5263157894737" y2="850"/><text class="small" x="486.5263157894737" y="865" text-anchor="middle">64</text><line class="grid" x1="660.0" y1="845" x2="660.0" y2="850"/><text class="small" x="660.0" y="865" text-anchor="middle">96</text><polyline fill="none" stroke="#1f77b4" stroke-width="2.5" points="145.0,356.9 150.4,369.3 161.3,430.1 182.9,540.4 204.6,613.5 226.3,662.0 269.7,718.2 313.1,749.0 399.8,775.7 486.5,790.8 660.0,808.1"/><circle cx="145.0" cy="356.9" r="2.8" fill="#1f77b4"/><circle cx="150.4" cy="369.3" r="2.8" fill="#1f77b4"/><circle cx="161.3" cy="430.1" r="2.8" fill="#1f77b4"/><circle cx="182.9" cy="540.4" r="2.8" fill="#1f77b4"/><circle cx="204.6" cy="613.5" r="2.8" fill="#1f77b4"/><circle cx="226.3" cy="662.0" r="2.8" fill="#1f77b4"/><circle cx="269.7" cy="718.2" r="2.8" fill="#1f77b4"/><circle cx="313.1" cy="749.0" r="2.8" fill="#1f77b4"/><circle cx="399.8" cy="775.7" r="2.8" fill="#1f77b4"/><circle cx="486.5" cy="790.8" r="2.8" fill="#1f77b4"/><circle cx="660.0" cy="808.1" r="2.8" fill="#1f77b4"/><polyline fill="none" stroke="#1f77b4" stroke-width="2.5" stroke-dasharray="7,4" points="145.0,361.5 150.4,555.4 161.3,695.4 182.9,768.4 204.6,749.4 226.3,771.0 269.7,775.6 313.1,779.5 399.8,787.0 486.5,794.8 660.0,808.2"/><circle cx="145.0" cy="361.5" r="2.8" fill="#1f77b4"/><circle cx="150.4" cy="555.4" r="2.8" fill="#1f77b4"/><circle cx="161.3" cy="695.4" r="2.8" fill="#1f77b4"/><circle cx="182.9" cy="768.4" r="2.8" fill="#1f77b4"/><circle cx="204.6" cy="749.4" r="2.8" fill="#1f77b4"/><circle cx="226.3" cy="771.0" r="2.8" fill="#1f77b4"/><circle cx="269.7" cy="775.6" r="2.8" fill="#1f77b4"/><circle cx="313.1" cy="779.5" r="2.8" fill="#1f77b4"/><circle cx="399.8" cy="787.0" r="2.8" fill="#1f77b4"/><circle cx="486.5" cy="794.8" r="2.8" fill="#1f77b4"/><circle cx="660.0" cy="808.2" r="2.8" fill="#1f77b4"/><polyline fill="none" stroke="#d62728" stroke-width="2.5" points="145.0,361.8 150.4,370.4 161.3,430.0 182.9,545.7 204.6,608.9 226.3,661.8 269.7,716.8 313.1,747.0 399.8,777.1 486.5,790.3 660.0,808.8"/><circle cx="145.0" cy="361.8" r="2.8" fill="#d62728"/><circle cx="150.4" cy="370.4" r="2.8" fill="#d62728"/><circle cx="161.3" cy="430.0" r="2.8" fill="#d62728"/><circle cx="182.9" cy="545.7" r="2.8" fill="#d62728"/><circle cx="204.6" cy="608.9" r="2.8" fill="#d62728"/><circle cx="226.3" cy="661.8" r="2.8" fill="#d62728"/><circle cx="269.7" cy="716.8" r="2.8" fill="#d62728"/><circle cx="313.1" cy="747.0" r="2.8" fill="#d62728"/><circle cx="399.8" cy="777.1" r="2.8" fill="#d62728"/><circle cx="486.5" cy="790.3" r="2.8" fill="#d62728"/><circle cx="660.0" cy="808.8" r="2.8" fill="#d62728"/><polyline fill="none" stroke="#d62728" stroke-width="2.5" stroke-dasharray="7,4" points="145.0,361.2 150.4,557.6 161.3,695.5 182.9,767.6 204.6,747.5 226.3,770.7 269.7,775.6 313.1,778.6 399.8,786.7 486.5,794.9 660.0,808.6"/><circle cx="145.0" cy="361.2" r="2.8" fill="#d62728"/><circle cx="150.4" cy="557.6" r="2.8" fill="#d62728"/><circle cx="161.3" cy="695.5" r="2.8" fill="#d62728"/><circle cx="182.9" cy="767.6" r="2.8" fill="#d62728"/><circle cx="204.6" cy="747.5" r="2.8" fill="#d62728"/><circle cx="226.3" cy="770.7" r="2.8" fill="#d62728"/><circle cx="269.7" cy="775.6" r="2.8" fill="#d62728"/><circle cx="313.1" cy="778.6" r="2.8" fill="#d62728"/><circle cx="399.8" cy="786.7" r="2.8" fill="#d62728"/><circle cx="486.5" cy="794.9" r="2.8" fill="#d62728"/><circle cx="660.0" cy="808.6" r="2.8" fill="#d62728"/><polyline fill="none" stroke="#2ca02c" stroke-width="2.5" points="145.0,361.2 150.4,369.8 161.3,424.9 182.9,537.8 204.6,607.1 226.3,664.2 269.7,718.6 313.1,744.6 399.8,775.9 486.5,791.2 660.0,809.5"/><circle cx="145.0" cy="361.2" r="2.8" fill="#2ca02c"/><circle cx="150.4" cy="369.8" r="2.8" fill="#2ca02c"/><circle cx="161.3" cy="424.9" r="2.8" fill="#2ca02c"/><circle cx="182.9" cy="537.8" r="2.8" fill="#2ca02c"/><circle cx="204.6" cy="607.1" r="2.8" fill="#2ca02c"/><circle cx="226.3" cy="664.2" r="2.8" fill="#2ca02c"/><circle cx="269.7" cy="718.6" r="2.8" fill="#2ca02c"/><circle cx="313.1" cy="744.6" r="2.8" fill="#2ca02c"/><circle cx="399.8" cy="775.9" r="2.8" fill="#2ca02c"/><circle cx="486.5" cy="791.2" r="2.8" fill="#2ca02c"/><circle cx="660.0" cy="809.5" r="2.8" fill="#2ca02c"/><polyline fill="none" stroke="#2ca02c" stroke-width="2.5" stroke-dasharray="7,4" points="145.0,362.6 150.4,557.4 161.3,696.0 182.9,768.4 204.6,748.2 226.3,771.2 269.7,775.4 313.1,779.6 399.8,786.7 486.5,794.6 660.0,808.8"/><circle cx="145.0" cy="362.6" r="2.8" fill="#2ca02c"/><circle cx="150.4" cy="557.4" r="2.8" fill="#2ca02c"/><circle cx="161.3" cy="696.0" r="2.8" fill="#2ca02c"/><circle cx="182.9" cy="768.4" r="2.8" fill="#2ca02c"/><circle cx="204.6" cy="748.2" r="2.8" fill="#2ca02c"/><circle cx="226.3" cy="771.2" r="2.8" fill="#2ca02c"/><circle cx="269.7" cy="775.4" r="2.8" fill="#2ca02c"/><circle cx="313.1" cy="779.6" r="2.8" fill="#2ca02c"/><circle cx="399.8" cy="786.7" r="2.8" fill="#2ca02c"/><circle cx="486.5" cy="794.6" r="2.8" fill="#2ca02c"/><circle cx="660.0" cy="808.8" r="2.8" fill="#2ca02c"/><text class="small" x="100.0" y="495.0" transform="rotate(-90 100.0,495.0)" text-anchor="middle">uProf GB/s per thread</text><text x="1027.5" y="110" text-anchor="middle" font-size="18">local numa1</text><line class="grid" x1="790.0" y1="135.0" x2="1305.0" y2="135.0"/><text class="small" x="782.0" y="139.0" text-anchor="end">70</text><line class="grid" x1="790.0" y1="277.0" x2="1305.0" y2="277.0"/><text class="small" x="782.0" y="281.0" text-anchor="end">56</text><line class="grid" x1="790.0" y1="419.0" x2="1305.0" y2="419.0"/><text class="small" x="782.0" y="423.0" text-anchor="end">42</text><line class="grid" x1="790.0" y1="561.0" x2="1305.0" y2="561.0"/><text class="small" x="782.0" y="565.0" text-anchor="end">28</text><line class="grid" x1="790.0" y1="703.0" x2="1305.0" y2="703.0"/><text class="small" x="782.0" y="707.0" text-anchor="end">14</text><line class="grid" x1="790.0" y1="845.0" x2="1305.0" y2="845.0"/><text class="small" x="782.0" y="849.0" text-anchor="end">0</text><line class="axis" x1="790.0" y1="845" x2="1305.0" y2="845"/><line class="axis" x1="790.0" y1="135" x2="790.0" y2="845"/><line class="grid" x1="790.0" y1="845" x2="790.0" y2="850"/><text class="small" x="790.0" y="865" text-anchor="middle">1</text><line class="grid" x1="795.421052631579" y1="845" x2="795.421052631579" y2="850"/><text class="small" x="795.421052631579" y="865" text-anchor="middle">2</text><line class="grid" x1="806.2631578947369" y1="845" x2="806.2631578947369" y2="850"/><text class="small" x="806.2631578947369" y="865" text-anchor="middle">4</text><line class="grid" x1="827.9473684210526" y1="845" x2="827.9473684210526" y2="850"/><text class="small" x="827.9473684210526" y="865" text-anchor="middle">8</text><line class="grid" x1="849.6315789473684" y1="845" x2="849.6315789473684" y2="850"/><text class="small" x="849.6315789473684" y="865" text-anchor="middle">12</text><line class="grid" x1="871.3157894736842" y1="845" x2="871.3157894736842" y2="850"/><text class="small" x="871.3157894736842" y="865" text-anchor="middle">16</text><line class="grid" x1="914.6842105263158" y1="845" x2="914.6842105263158" y2="850"/><text class="small" x="914.6842105263158" y="865" text-anchor="middle">24</text><line class="grid" x1="958.0526315789474" y1="845" x2="958.0526315789474" y2="850"/><text class="small" x="958.0526315789474" y="865" text-anchor="middle">32</text><line class="grid" x1="1044.7894736842104" y1="845" x2="1044.7894736842104" y2="850"/><text class="small" x="1044.7894736842104" y="865" text-anchor="middle">48</text><line class="grid" x1="1131.5263157894738" y1="845" x2="1131.5263157894738" y2="850"/><text class="small" x="1131.5263157894738" y="865" text-anchor="middle">64</text><line class="grid" x1="1305.0" y1="845" x2="1305.0" y2="850"/><text class="small" x="1305.0" y="865" text-anchor="middle">96</text><polyline fill="none" stroke="#1f77b4" stroke-width="2.5" points="790.0,359.3 795.4,364.4 806.3,432.5 827.9,538.3 849.6,608.0 871.3,662.0 914.7,717.9 958.1,749.1 1044.8,777.7 1131.5,792.0 1305.0,808.9"/><circle cx="790.0" cy="359.3" r="2.8" fill="#1f77b4"/><circle cx="795.4" cy="364.4" r="2.8" fill="#1f77b4"/><circle cx="806.3" cy="432.5" r="2.8" fill="#1f77b4"/><circle cx="827.9" cy="538.3" r="2.8" fill="#1f77b4"/><circle cx="849.6" cy="608.0" r="2.8" fill="#1f77b4"/><circle cx="871.3" cy="662.0" r="2.8" fill="#1f77b4"/><circle cx="914.7" cy="717.9" r="2.8" fill="#1f77b4"/><circle cx="958.1" cy="749.1" r="2.8" fill="#1f77b4"/><circle cx="1044.8" cy="777.7" r="2.8" fill="#1f77b4"/><circle cx="1131.5" cy="792.0" r="2.8" fill="#1f77b4"/><circle cx="1305.0" cy="808.9" r="2.8" fill="#1f77b4"/><polyline fill="none" stroke="#1f77b4" stroke-width="2.5" stroke-dasharray="7,4" points="790.0,352.1 795.4,553.2 806.3,694.7 827.9,767.6 849.6,745.3 871.3,771.1 914.7,776.0 958.1,779.3 1044.8,787.6 1131.5,798.6 1305.0,808.7"/><circle cx="790.0" cy="352.1" r="2.8" fill="#1f77b4"/><circle cx="795.4" cy="553.2" r="2.8" fill="#1f77b4"/><circle cx="806.3" cy="694.7" r="2.8" fill="#1f77b4"/><circle cx="827.9" cy="767.6" r="2.8" fill="#1f77b4"/><circle cx="849.6" cy="745.3" r="2.8" fill="#1f77b4"/><circle cx="871.3" cy="771.1" r="2.8" fill="#1f77b4"/><circle cx="914.7" cy="776.0" r="2.8" fill="#1f77b4"/><circle cx="958.1" cy="779.3" r="2.8" fill="#1f77b4"/><circle cx="1044.8" cy="787.6" r="2.8" fill="#1f77b4"/><circle cx="1131.5" cy="798.6" r="2.8" fill="#1f77b4"/><circle cx="1305.0" cy="808.7" r="2.8" fill="#1f77b4"/><polyline fill="none" stroke="#d62728" stroke-width="2.5" points="790.0,358.3 795.4,368.5 806.3,428.9 827.9,539.0 849.6,608.9 871.3,661.9 914.7,718.2 958.1,748.5 1044.8,777.8 1131.5,792.1 1305.0,809.0"/><circle cx="790.0" cy="358.3" r="2.8" fill="#d62728"/><circle cx="795.4" cy="368.5" r="2.8" fill="#d62728"/><circle cx="806.3" cy="428.9" r="2.8" fill="#d62728"/><circle cx="827.9" cy="539.0" r="2.8" fill="#d62728"/><circle cx="849.6" cy="608.9" r="2.8" fill="#d62728"/><circle cx="871.3" cy="661.9" r="2.8" fill="#d62728"/><circle cx="914.7" cy="718.2" r="2.8" fill="#d62728"/><circle cx="958.1" cy="748.5" r="2.8" fill="#d62728"/><circle cx="1044.8" cy="777.8" r="2.8" fill="#d62728"/><circle cx="1131.5" cy="792.1" r="2.8" fill="#d62728"/><circle cx="1305.0" cy="809.0" r="2.8" fill="#d62728"/><polyline fill="none" stroke="#d62728" stroke-width="2.5" stroke-dasharray="7,4" points="790.0,355.1 795.4,557.0 806.3,695.5 827.9,766.0 849.6,748.7 871.3,772.7 914.7,777.8 958.1,781.8 1044.8,787.4 1131.5,798.7 1305.0,808.6"/><circle cx="790.0" cy="355.1" r="2.8" fill="#d62728"/><circle cx="795.4" cy="557.0" r="2.8" fill="#d62728"/><circle cx="806.3" cy="695.5" r="2.8" fill="#d62728"/><circle cx="827.9" cy="766.0" r="2.8" fill="#d62728"/><circle cx="849.6" cy="748.7" r="2.8" fill="#d62728"/><circle cx="871.3" cy="772.7" r="2.8" fill="#d62728"/><circle cx="914.7" cy="777.8" r="2.8" fill="#d62728"/><circle cx="958.1" cy="781.8" r="2.8" fill="#d62728"/><circle cx="1044.8" cy="787.4" r="2.8" fill="#d62728"/><circle cx="1131.5" cy="798.7" r="2.8" fill="#d62728"/><circle cx="1305.0" cy="808.6" r="2.8" fill="#d62728"/><polyline fill="none" stroke="#2ca02c" stroke-width="2.5" points="790.0,357.1 795.4,366.1 806.3,425.9 827.9,539.7 849.6,608.9 871.3,661.5 914.7,718.0 958.1,749.0 1044.8,777.9 1131.5,793.4 1305.0,808.7"/><circle cx="790.0" cy="357.1" r="2.8" fill="#2ca02c"/><circle cx="795.4" cy="366.1" r="2.8" fill="#2ca02c"/><circle cx="806.3" cy="425.9" r="2.8" fill="#2ca02c"/><circle cx="827.9" cy="539.7" r="2.8" fill="#2ca02c"/><circle cx="849.6" cy="608.9" r="2.8" fill="#2ca02c"/><circle cx="871.3" cy="661.5" r="2.8" fill="#2ca02c"/><circle cx="914.7" cy="718.0" r="2.8" fill="#2ca02c"/><circle cx="958.1" cy="749.0" r="2.8" fill="#2ca02c"/><circle cx="1044.8" cy="777.9" r="2.8" fill="#2ca02c"/><circle cx="1131.5" cy="793.4" r="2.8" fill="#2ca02c"/><circle cx="1305.0" cy="808.7" r="2.8" fill="#2ca02c"/><polyline fill="none" stroke="#2ca02c" stroke-width="2.5" stroke-dasharray="7,4" points="790.0,359.2 795.4,557.5 806.3,693.9 827.9,768.3 849.6,749.2 871.3,771.4 914.7,776.1 958.1,778.3 1044.8,787.2 1131.5,798.9 1305.0,808.5"/><circle cx="790.0" cy="359.2" r="2.8" fill="#2ca02c"/><circle cx="795.4" cy="557.5" r="2.8" fill="#2ca02c"/><circle cx="806.3" cy="693.9" r="2.8" fill="#2ca02c"/><circle cx="827.9" cy="768.3" r="2.8" fill="#2ca02c"/><circle cx="849.6" cy="749.2" r="2.8" fill="#2ca02c"/><circle cx="871.3" cy="771.4" r="2.8" fill="#2ca02c"/><circle cx="914.7" cy="776.1" r="2.8" fill="#2ca02c"/><circle cx="958.1" cy="778.3" r="2.8" fill="#2ca02c"/><circle cx="1044.8" cy="787.2" r="2.8" fill="#2ca02c"/><circle cx="1131.5" cy="798.9" r="2.8" fill="#2ca02c"/><circle cx="1305.0" cy="808.5" r="2.8" fill="#2ca02c"/><text class="small" x="745.0" y="495.0" transform="rotate(-90 745.0,495.0)" text-anchor="middle">uProf GB/s per thread</text></svg>