<svg xmlns="http://www.w3.org/2000/svg" width="1400" height="1000" viewBox="0 0 1400 1000"><style>text{font-family:monospace;fill:#111}.small{font-size:14px}.axis{stroke:#444;stroke-width:1}.grid{stroke:#ddd;stroke-width:1}</style><rect x="0" y="0" width="1400" height="1000" fill="white"/><text x="700.0" y="40" text-anchor="middle" font-size="24">local NUMA throughput: interleave CCD vs dense packing (4KiB)</text><text x="700.0" y="68" text-anchor="middle" font-size="16">solid = interleave CCD, dashed = dense packing</text><line x1="1040" y1="28" x2="1068" y2="28" stroke="#1f77b4" stroke-width="3"/><text x="1076" y="33" font-size="14">1302</text><line x1="1040" y1="52" x2="1068" y2="52" stroke="#d62728" stroke-width="3"/><text x="1076" y="57" font-size="14">1306</text><line x1="1040" y1="76" x2="1068" y2="76" stroke="#2ca02c" stroke-width="3"/><text x="1076" y="81" font-size="14">1308</text><line x1="1160" y1="28" x2="1188" y2="28" stroke="#444" stroke-width="2"/><text x="1196" y="33" font-size="14">interleave CCD</text><line x1="1160" y1="52" x2="1188" y2="52" stroke="#444" stroke-width="2" stroke-dasharray="7,4"/><text x="1196" y="57" font-size="14">dense packing</text><text x="382.5" y="110" text-anchor="middle" font-size="18">local numa0</text><line class="grid" x1="145.0" y1="135.0" x2="660.0" y2="135.0"/><text class="small" x="137.0" y="139.0" text-anchor="end">275</text><line class="grid" x1="145.0" y1="277.0" x2="660.0" y2="277.0"/><text class="small" x="137.0" y="281.0" text-anchor="end">220</text><line class="grid" x1="145.0" y1="419.0" x2="660.0" y2="419.0"/><text class="small" x="137.0" y="423.0" text-anchor="end">165</text><line class="grid" x1="145.0" y1="561.0" x2="660.0" y2="561.0"/><text class="small" x="137.0" y="565.0" text-anchor="end">110</text><line class="grid" x1="145.0" y1="703.0" x2="660.0" y2="703.0"/><text class="small" x="137.0" y="707.0" text-anchor="end">55</text><line class="grid" x1="145.0" y1="845.0" x2="660.0" y2="845.0"/><text class="small" x="137.0" y="849.0" text-anchor="end">0</text><line class="axis" x1="145.0" y1="845" x2="660.0" y2="845"/><line class="axis" x1="145.0" y1="135" x2="145.0" y2="845"/><line class="grid" x1="145.0" y1="845" x2="145.0" y2="850"/><text class="small" x="145.0" y="865" text-anchor="middle">1</text><line class="grid" x1="150.42105263157896" y1="845" x2="150.42105263157896" y2="850"/><text class="small" x="150.42105263157896" y="865" text-anchor="middle">2</text><line class="grid" x1="161.26315789473685" y1="845" x2="161.26315789473685" y2="850"/><text class="small" x="161.26315789473685" y="865" text-anchor="middle">4</text><line class="grid" x1="182.94736842105263" y1="845" x2="182.94736842105263" y2="850"/><text class="small" x="182.94736842105263" y="865" text-anchor="middle">8</text><line class="grid" x1="204.6315789473684" y1="845" x2="204.6315789473684" y2="850"/><text class="small" x="204.6315789473684" y="865" text-anchor="middle">12</text><line class="grid" x1="226.31578947368422" y1="845" x2="226.31578947368422" y2="850"/><text class="small" x="226.31578947368422" y="865" text-anchor="middle">16</text><line class="grid" x1="269.6842105263158" y1="845" x2="269.6842105263158" y2="850"/><text class="small" x="269.6842105263158" y="865" text-anchor="middle">24</text><line class="grid" x1="313.0526315789474" y1="845" x2="313.0526315789474" y2="850"/><text class="small" x="313.0526315789474" y="865" text-anchor="middle">32</text><line class="grid" x1="399.7894736842105" y1="845" x2="399.7894736842105" y2="850"/><text class="small" x="399.7894736842105" y="865" text-anchor="middle">48</text><line class="grid" x1="486.5263157894737" y1="845" x2="486.5263157894737" y2="850"/><text class="small" x="486.5263157894737" y="865" text-anchor="middle">64</text><line class="grid" x1="660.0" y1="845" x2="660.0" y2="850"/><text class="small" x="660.0" y="865" text-anchor="middle">96</text><polyline fill="none" stroke="#1f77b4" stroke-width="2.5" points="145.0,748.4 150.4,668.9 161.3,535.6 182.9,328.5 204.6,239.5 226.3,245.8 269.7,266.4 313.1,275.8 399.8,287.3 486.5,291.3 660.0,294.4"/><circle cx="145.0" cy="748.4" r="2.8" fill="#1f77b4"/><circle cx="150.4" cy="668.9" r="2.8" fill="#1f77b4"/><circle cx="161.3" cy="535.6" r="2.8" fill="#1f77b4"/><circle cx="182.9" cy="328.5" r="2.8" fill="#1f77b4"/><circle cx="204.6" cy="239.5" r="2.8" fill="#1f77b4"/><circle cx="226.3" cy="245.8" r="2.8" fill="#1f77b4"/><circle cx="269.7" cy="266.4" r="2.8" fill="#1f77b4"/><circle cx="313.1" cy="275.8" r="2.8" fill="#1f77b4"/><circle cx="399.8" cy="287.3" r="2.8" fill="#1f77b4"/><circle cx="486.5" cy="291.3" r="2.8" fill="#1f77b4"/><circle cx="660.0" cy="294.4" r="2.8" fill="#1f77b4"/><polyline fill="none" stroke="#1f77b4" stroke-width="2.5" stroke-dasharray="7,4" points="145.0,748.4 150.4,738.6 161.3,738.3 182.9,737.8 204.6,638.2 226.3,639.5 269.7,561.0 313.1,490.1 399.8,387.8 486.5,330.0 660.0,294.4"/><circle cx="145.0" cy="748.4" r="2.8" fill="#1f77b4"/><circle cx="150.4" cy="738.6" r="2.8" fill="#1f77b4"/><circle cx="161.3" cy="738.3" r="2.8" fill="#1f77b4"/><circle cx="182.9" cy="737.8" r="2.8" fill="#1f77b4"/><circle cx="204.6" cy="638.2" r="2.8" fill="#1f77b4"/><circle cx="226.3" cy="639.5" r="2.8" fill="#1f77b4"/><circle cx="269.7" cy="561.0" r="2.8" fill="#1f77b4"/><circle cx="313.1" cy="490.1" r="2.8" fill="#1f77b4"/><circle cx="399.8" cy="387.8" r="2.8" fill="#1f77b4"/><circle cx="486.5" cy="330.0" r="2.8" fill="#1f77b4"/><circle cx="660.0" cy="294.4" r="2.8" fill="#1f77b4"/><polyline fill="none" stroke="#d62728" stroke-width="2.5" points="145.0,750.0 150.4,666.4 161.3,538.0 182.9,324.1 204.6,237.8 226.3,252.5 269.7,264.3 313.1,276.5 399.8,287.4 486.5,291.4 660.0,292.9"/><circle cx="145.0" cy="750.0" r="2.8" fill="#d62728"/><circle cx="150.4" cy="666.4" r="2.8" fill="#d62728"/><circle cx="161.3" cy="538.0" r="2.8" fill="#d62728"/><circle cx="182.9" cy="324.1" r="2.8" fill="#d62728"/><circle cx="204.6" cy="237.8" r="2.8" fill="#d62728"/><circle cx="226.3" cy="252.5" r="2.8" fill="#d62728"/><circle cx="269.7" cy="264.3" r="2.8" fill="#d62728"/><circle cx="313.1" cy="276.5" r="2.8" fill="#d62728"/><circle cx="399.8" cy="287.4" r="2.8" fill="#d62728"/><circle cx="486.5" cy="291.4" r="2.8" fill="#d62728"/><circle cx="660.0" cy="292.9" r="2.8" fill="#d62728"/><polyline fill="none" stroke="#d62728" stroke-width="2.5" stroke-dasharray="7,4" points="145.0,749.2 150.4,736.3 161.3,737.9 182.9,737.8 204.6,638.9 226.3,639.1 269.7,560.7 313.1,489.8 399.8,387.8 486.5,330.1 660.0,294.5"/><circle cx="145.0" cy="749.2" r="2.8" fill="#d62728"/><circle cx="150.4" cy="736.3" r="2.8" fill="#d62728"/><circle cx="161.3" cy="737.9" r="2.8" fill="#d62728"/><circle cx="182.9" cy="737.8" r="2.8" fill="#d62728"/><circle cx="204.6" cy="638.9" r="2.8" fill="#d62728"/><circle cx="226.3" cy="639.1" r="2.8" fill="#d62728"/><circle cx="269.7" cy="560.7" r="2.8" fill="#d62728"/><circle cx="313.1" cy="489.8" r="2.8" fill="#d62728"/><circle cx="399.8" cy="387.8" r="2.8" fill="#d62728"/><circle cx="486.5" cy="330.1" r="2.8" fill="#d62728"/><circle cx="660.0" cy="294.5" r="2.8" fill="#d62728"/><polyline fill="none" stroke="#2ca02c" stroke-width="2.5" points="145.0,752.2 150.4,659.4 161.3,543.9 182.9,333.9 204.6,238.3 226.3,248.2 269.7,264.6 313.1,282.1 399.8,287.5 486.5,291.8 660.0,293.5"/><circle cx="145.0" cy="752.2" r="2.8" fill="#2ca02c"/><circle cx="150.4" cy="659.4" r="2.8" fill="#2ca02c"/><circle cx="161.3" cy="543.9" r="2.8" fill="#2ca02c"/><circle cx="182.9" cy="333.9" r="2.8" fill="#2ca02c"/><circle cx="204.6" cy="238.3" r="2.8" fill="#2ca02c"/><circle cx="226.3" cy="248.2" r="2.8" fill="#2ca02c"/><circle cx="269.7" cy="264.6" r="2.8" fill="#2ca02c"/><circle cx="313.1" cy="282.1" r="2.8" fill="#2ca02c"/><circle cx="399.8" cy="287.5" r="2.8" fill="#2ca02c"/><circle cx="486.5" cy="291.8" r="2.8" fill="#2ca02c"/><circle cx="660.0" cy="293.5" r="2.8" fill="#2ca02c"/><polyline fill="none" stroke="#2ca02c" stroke-width="2.5" stroke-dasharray="7,4" points="145.0,751.0 150.4,736.1 161.3,738.0 182.9,737.7 204.6,638.9 226.3,639.5 269.7,561.1 313.1,490.0 399.8,387.9 486.5,330.1 660.0,293.3"/><circle cx="145.0" cy="751.0" r="2.8" fill="#2ca02c"/><circle cx="150.4" cy="736.1" r="2.8" fill="#2ca02c"/><circle cx="161.3" cy="738.0" r="2.8" fill="#2ca02c"/><circle cx="182.9" cy="737.7" r="2.8" fill="#2ca02c"/><circle cx="204.6" cy="638.9" r="2.8" fill="#2ca02c"/><circle cx="226.3" cy="639.5" r="2.8" fill="#2ca02c"/><circle cx="269.7" cy="561.1" r="2.8" fill="#2ca02c"/><circle cx="313.1" cy="490.0" r="2.8" fill="#2ca02c"/><circle cx="399.8" cy="387.9" r="2.8" fill="#2ca02c"/><circle cx="486.5" cy="330.1" r="2.8" fill="#2ca02c"/><circle cx="660.0" cy="293.3" r="2.8" fill="#2ca02c"/><text class="small" x="100.0" y="495.0" transform="rotate(-90 100.0,495.0)" text-anchor="middle">bench traffic GB/s</text><text x="1027.5" y="110" text-anchor="middle" font-size="18">local numa1</text><line class="grid" x1="790.0" y1="135.0" x2="1305.0" y2="135.0"/><text class="small" x="782.0" y="139.0" text-anchor="end">275</text><line class="grid" x1="790.0" y1="277.0" x2="1305.0" y2="277.0"/><text class="small" x="782.0" y="281.0" text-anchor="end">220</text><line class="grid" x1="790.0" y1="419.0" x2="1305.0" y2="419.0"/><text class="small" x="782.0" y="423.0" text-anchor="end">165</text><line class="grid" x1="790.0" y1="561.0" x2="1305.0" y2="561.0"/><text class="small" x="782.0" y="565.0" text-anchor="end">110</text><line class="grid" x1="790.0" y1="703.0" x2="1305.0" y2="703.0"/><text class="small" x="782.0" y="707.0" text-anchor="end">55</text><line class="grid" x1="790.0" y1="845.0" x2="1305.0" y2="845.0"/><text class="small" x="782.0" y="849.0" text-anchor="end">0</text><line class="axis" x1="790.0" y1="845" x2="1305.0" y2="845"/><line class="axis" x1="790.0" y1="135" x2="790.0" y2="845"/><line class="grid" x1="790.0" y1="845" x2="790.0" y2="850"/><text class="small" x="790.0" y="865" text-anchor="middle">1</text><line class="grid" x1="795.421052631579" y1="845" x2="795.421052631579" y2="850"/><text class="small" x="795.421052631579" y="865" text-anchor="middle">2</text><line class="grid" x1="806.2631578947369" y1="845" x2="806.2631578947369" y2="850"/><text class="small" x="806.2631578947369" y="865" text-anchor="middle">4</text><line class="grid" x1="827.9473684210526" y1="845" x2="827.9473684210526" y2="850"/><text class="small" x="827.9473684210526" y="865" text-anchor="middle">8</text><line class="grid" x1="849.6315789473684" y1="845" x2="849.6315789473684" y2="850"/><text class="small" x="849.6315789473684" y="865" text-anchor="middle">12</text><line class="grid" x1="871.3157894736842" y1="845" x2="871.3157894736842" y2="850"/><text class="small" x="871.3157894736842" y="865" text-anchor="middle">16</text><line class="grid" x1="914.6842105263158" y1="845" x2="914.6842105263158" y2="850"/><text class="small" x="914.6842105263158" y="865" text-anchor="middle">24</text><line class="grid" x1="958.0526315789474" y1="845" x2="958.0526315789474" y2="850"/><text class="small" x="958.0526315789474" y="865" text-anchor="middle">32</text><line class="grid" x1="1044.7894736842104" y1="845" x2="1044.7894736842104" y2="850"/><text class="small" x="1044.7894736842104" y="865" text-anchor="middle">48</text><line class="grid" x1="1131.5263157894738" y1="845" x2="1131.5263157894738" y2="850"/><text class="small" x="1131.5263157894738" y="865" text-anchor="middle">64</text><line class="grid" x1="1305.0" y1="845" x2="1305.0" y2="850"/><text class="small" x="1305.0" y="865" text-anchor="middle">96</text><polyline fill="none" stroke="#1f77b4" stroke-width="2.5" points="790.0,748.2 795.4,667.2 806.3,536.8 827.9,326.6 849.6,237.7 871.3,258.6 914.7,266.5 958.1,277.3 1044.8,287.7 1131.5,291.2 1305.0,294.5"/><circle cx="790.0" cy="748.2" r="2.8" fill="#1f77b4"/><circle cx="795.4" cy="667.2" r="2.8" fill="#1f77b4"/><circle cx="806.3" cy="536.8" r="2.8" fill="#1f77b4"/><circle cx="827.9" cy="326.6" r="2.8" fill="#1f77b4"/><circle cx="849.6" cy="237.7" r="2.8" fill="#1f77b4"/><circle cx="871.3" cy="258.6" r="2.8" fill="#1f77b4"/><circle cx="914.7" cy="266.5" r="2.8" fill="#1f77b4"/><circle cx="958.1" cy="277.3" r="2.8" fill="#1f77b4"/><circle cx="1044.8" cy="287.7" r="2.8" fill="#1f77b4"/><circle cx="1131.5" cy="291.2" r="2.8" fill="#1f77b4"/><circle cx="1305.0" cy="294.5" r="2.8" fill="#1f77b4"/><polyline fill="none" stroke="#1f77b4" stroke-width="2.5" stroke-dasharray="7,4" points="790.0,747.8 795.4,735.6 806.3,737.7 827.9,737.8 849.6,638.9 871.3,639.7 914.7,561.3 958.1,490.5 1044.8,387.6 1131.5,330.3 1305.0,294.3"/><circle cx="790.0" cy="747.8" r="2.8" fill="#1f77b4"/><circle cx="795.4" cy="735.6" r="2.8" fill="#1f77b4"/><circle cx="806.3" cy="737.7" r="2.8" fill="#1f77b4"/><circle cx="827.9" cy="737.8" r="2.8" fill="#1f77b4"/><circle cx="849.6" cy="638.9" r="2.8" fill="#1f77b4"/><circle cx="871.3" cy="639.7" r="2.8" fill="#1f77b4"/><circle cx="914.7" cy="561.3" r="2.8" fill="#1f77b4"/><circle cx="958.1" cy="490.5" r="2.8" fill="#1f77b4"/><circle cx="1044.8" cy="387.6" r="2.8" fill="#1f77b4"/><circle cx="1131.5" cy="330.3" r="2.8" fill="#1f77b4"/><circle cx="1305.0" cy="294.3" r="2.8" fill="#1f77b4"/><polyline fill="none" stroke="#d62728" stroke-width="2.5" points="790.0,747.7 795.4,659.1 806.3,523.7 827.9,338.3 849.6,235.8 871.3,250.3 914.7,262.8 958.1,278.2 1044.8,286.9 1131.5,291.7 1305.0,295.0"/><circle cx="790.0" cy="747.7" r="2.8" fill="#d62728"/><circle cx="795.4" cy="659.1" r="2.8" fill="#d62728"/><circle cx="806.3" cy="523.7" r="2.8" fill="#d62728"/><circle cx="827.9" cy="338.3" r="2.8" fill="#d62728"/><circle cx="849.6" cy="235.8" r="2.8" fill="#d62728"/><circle cx="871.3" cy="250.3" r="2.8" fill="#d62728"/><circle cx="914.7" cy="262.8" r="2.8" fill="#d62728"/><circle cx="958.1" cy="278.2" r="2.8" fill="#d62728"/><circle cx="1044.8" cy="286.9" r="2.8" fill="#d62728"/><circle cx="1131.5" cy="291.7" r="2.8" fill="#d62728"/><circle cx="1305.0" cy="295.0" r="2.8" fill="#d62728"/><polyline fill="none" stroke="#d62728" stroke-width="2.5" stroke-dasharray="7,4" points="790.0,750.1 795.4,735.5 806.3,738.3 827.9,738.0 849.6,639.2 871.3,639.4 914.7,561.4 958.1,489.5 1044.8,387.5 1131.5,330.2 1305.0,294.8"/><circle cx="790.0" cy="750.1" r="2.8" fill="#d62728"/><circle cx="795.4" cy="735.5" r="2.8" fill="#d62728"/><circle cx="806.3" cy="738.3" r="2.8" fill="#d62728"/><circle cx="827.9" cy="738.0" r="2.8" fill="#d62728"/><circle cx="849.6" cy="639.2" r="2.8" fill="#d62728"/><circle cx="871.3" cy="639.4" r="2.8" fill="#d62728"/><circle cx="914.7" cy="561.4" r="2.8" fill="#d62728"/><circle cx="958.1" cy="489.5" r="2.8" fill="#d62728"/><circle cx="1044.8" cy="387.5" r="2.8" fill="#d62728"/><circle cx="1131.5" cy="330.2" r="2.8" fill="#d62728"/><circle cx="1305.0" cy="294.8" r="2.8" fill="#d62728"/><polyline fill="none" stroke="#2ca02c" stroke-width="2.5" points="790.0,748.4 795.4,658.6 806.3,529.4 827.9,334.9 849.6,238.1 871.3,251.1 914.7,273.0 958.1,277.3 1044.8,287.4 1131.5,291.4 1305.0,294.7"/><circle cx="790.0" cy="748.4" r="2.8" fill="#2ca02c"/><circle cx="795.4" cy="658.6" r="2.8" fill="#2ca02c"/><circle cx="806.3" cy="529.4" r="2.8" fill="#2ca02c"/><circle cx="827.9" cy="334.9" r="2.8" fill="#2ca02c"/><circle cx="849.6" cy="238.1" r="2.8" fill="#2ca02c"/><circle cx="871.3" cy="251.1" r="2.8" fill="#2ca02c"/><circle cx="914.7" cy="273.0" r="2.8" fill="#2ca02c"/><circle cx="958.1" cy="277.3" r="2.8" fill="#2ca02c"/><circle cx="1044.8" cy="287.4" r="2.8" fill="#2ca02c"/><circle cx="1131.5" cy="291.4" r="2.8" fill="#2ca02c"/><circle cx="1305.0" cy="294.7" r="2.8" fill="#2ca02c"/><polyline fill="none" stroke="#2ca02c" stroke-width="2.5" stroke-dasharray="7,4" points="790.0,749.4 795.4,735.8 806.3,737.7 827.9,737.7 849.6,638.9 871.3,639.7 914.7,560.9 958.1,490.2 1044.8,387.9 1131.5,329.9 1305.0,294.5"/><circle cx="790.0" cy="749.4" r="2.8" fill="#2ca02c"/><circle cx="795.4" cy="735.8" r="2.8" fill="#2ca02c"/><circle cx="806.3" cy="737.7" r="2.8" fill="#2ca02c"/><circle cx="827.9" cy="737.7" r="2.8" fill="#2ca02c"/><circle cx="849.6" cy="638.9" r="2.8" fill="#2ca02c"/><circle cx="871.3" cy="639.7" r="2.8" fill="#2ca02c"/><circle cx="914.7" cy="560.9" r="2.8" fill="#2ca02c"/><circle cx="958.1" cy="490.2" r="2.8" fill="#2ca02c"/><circle cx="1044.8" cy="387.9" r="2.8" fill="#2ca02c"/><circle cx="1131.5" cy="329.9" r="2.8" fill="#2ca02c"/><circle cx="1305.0" cy="294.5" r="2.8" fill="#2ca02c"/><text class="small" x="745.0" y="495.0" transform="rotate(-90 745.0,495.0)" text-anchor="middle">bench traffic GB/s</text></svg>