<svg xmlns="http://www.w3.org/2000/svg" width="1400" height="1000" viewBox="0 0 1400 1000"><style>text{font-family:monospace;fill:#111}.small{font-size:14px}.axis{stroke:#444;stroke-width:1}.grid{stroke:#ddd;stroke-width:1}</style><rect x="0" y="0" width="1400" height="1000" fill="white"/><text x="700.0" y="40" text-anchor="middle" font-size="24">local NUMA memory BW per thread: interleave CCD vs dense packing (4KiB)</text><text x="700.0" y="68" text-anchor="middle" font-size="16">solid = interleave CCD, dashed = dense packing</text><line x1="1040" y1="28" x2="1068" y2="28" stroke="#1f77b4" stroke-width="3"/><text x="1076" y="33" font-size="14">1302</text><line x1="1040" y1="52" x2="1068" y2="52" stroke="#d62728" stroke-width="3"/><text x="1076" y="57" font-size="14">1306</text><line x1="1040" y1="76" x2="1068" y2="76" stroke="#2ca02c" stroke-width="3"/><text x="1076" y="81" font-size="14">1308</text><line x1="1160" y1="28" x2="1188" y2="28" stroke="#444" stroke-width="2"/><text x="1196" y="33" font-size="14">interleave CCD</text><line x1="1160" y1="52" x2="1188" y2="52" stroke="#444" stroke-width="2" stroke-dasharray="7,4"/><text x="1196" y="57" font-size="14">dense packing</text><text x="382.5" y="110" text-anchor="middle" font-size="18">local numa0</text><line class="grid" x1="145.0" y1="135.0" x2="660.0" y2="135.0"/><text class="small" x="137.0" y="139.0" text-anchor="end">55</text><line class="grid" x1="145.0" y1="277.0" x2="660.0" y2="277.0"/><text class="small" x="137.0" y="281.0" text-anchor="end">44</text><line class="grid" x1="145.0" y1="419.0" x2="660.0" y2="419.0"/><text class="small" x="137.0" y="423.0" text-anchor="end">33</text><line class="grid" x1="145.0" y1="561.0" x2="660.0" y2="561.0"/><text class="small" x="137.0" y="565.0" text-anchor="end">22</text><line class="grid" x1="145.0" y1="703.0" x2="660.0" y2="703.0"/><text class="small" x="137.0" y="707.0" text-anchor="end">11</text><line class="grid" x1="145.0" y1="845.0" x2="660.0" y2="845.0"/><text class="small" x="137.0" y="849.0" text-anchor="end">0</text><line class="axis" x1="145.0" y1="845" x2="660.0" y2="845"/><line class="axis" x1="145.0" y1="135" x2="145.0" y2="845"/><line class="grid" x1="145.0" y1="845" x2="145.0" y2="850"/><text class="small" x="145.0" y="865" text-anchor="middle">1</text><line class="grid" x1="150.42105263157896" y1="845" x2="150.42105263157896" y2="850"/><text class="small" x="150.42105263157896" y="865" text-anchor="middle">2</text><line class="grid" x1="161.26315789473685" y1="845" x2="161.26315789473685" y2="850"/><text class="small" x="161.26315789473685" y="865" text-anchor="middle">4</text><line class="grid" x1="182.94736842105263" y1="845" x2="182.94736842105263" y2="850"/><text class="small" x="182.94736842105263" y="865" text-anchor="middle">8</text><line class="grid" x1="204.6315789473684" y1="845" x2="204.6315789473684" y2="850"/><text class="small" x="204.6315789473684" y="865" text-anchor="middle">12</text><line class="grid" x1="226.31578947368422" y1="845" x2="226.31578947368422" y2="850"/><text class="small" x="226.31578947368422" y="865" text-anchor="middle">16</text><line class="grid" x1="269.6842105263158" y1="845" x2="269.6842105263158" y2="850"/><text class="small" x="269.6842105263158" y="865" text-anchor="middle">24</text><line class="grid" x1="313.0526315789474" y1="845" x2="313.0526315789474" y2="850"/><text class="small" x="313.0526315789474" y="865" text-anchor="middle">32</text><line class="grid" x1="399.7894736842105" y1="845" x2="399.7894736842105" y2="850"/><text class="small" x="399.7894736842105" y="865" text-anchor="middle">48</text><line class="grid" x1="486.5263157894737" y1="845" x2="486.5263157894737" y2="850"/><text class="small" x="486.5263157894737" y="865" text-anchor="middle">64</text><line class="grid" x1="660.0" y1="845" x2="660.0" y2="850"/><text class="small" x="660.0" y="865" text-anchor="middle">96</text><polyline fill="none" stroke="#1f77b4" stroke-width="2.5" points="145.0,262.8 150.4,318.1 161.3,377.9 182.9,460.8 204.6,544.3 226.3,611.2 269.7,682.1 313.1,721.1 399.8,756.9 486.5,776.3 660.0,798.8"/><circle cx="145.0" cy="262.8" r="2.8" fill="#1f77b4"/><circle cx="150.4" cy="318.1" r="2.8" fill="#1f77b4"/><circle cx="161.3" cy="377.9" r="2.8" fill="#1f77b4"/><circle cx="182.9" cy="460.8" r="2.8" fill="#1f77b4"/><circle cx="204.6" cy="544.3" r="2.8" fill="#1f77b4"/><circle cx="226.3" cy="611.2" r="2.8" fill="#1f77b4"/><circle cx="269.7" cy="682.1" r="2.8" fill="#1f77b4"/><circle cx="313.1" cy="721.1" r="2.8" fill="#1f77b4"/><circle cx="399.8" cy="756.9" r="2.8" fill="#1f77b4"/><circle cx="486.5" cy="776.3" r="2.8" fill="#1f77b4"/><circle cx="660.0" cy="798.8" r="2.8" fill="#1f77b4"/><polyline fill="none" stroke="#1f77b4" stroke-width="2.5" stroke-dasharray="7,4" points="145.0,262.7 150.4,477.9 161.3,654.7 182.9,747.4 204.6,720.5 226.3,750.9 269.7,756.2 313.1,761.6 399.8,771.5 486.5,780.7 660.0,798.7"/><circle cx="145.0" cy="262.7" r="2.8" fill="#1f77b4"/><circle cx="150.4" cy="477.9" r="2.8" fill="#1f77b4"/><circle cx="161.3" cy="654.7" r="2.8" fill="#1f77b4"/><circle cx="182.9" cy="747.4" r="2.8" fill="#1f77b4"/><circle cx="204.6" cy="720.5" r="2.8" fill="#1f77b4"/><circle cx="226.3" cy="750.9" r="2.8" fill="#1f77b4"/><circle cx="269.7" cy="756.2" r="2.8" fill="#1f77b4"/><circle cx="313.1" cy="761.6" r="2.8" fill="#1f77b4"/><circle cx="399.8" cy="771.5" r="2.8" fill="#1f77b4"/><circle cx="486.5" cy="780.7" r="2.8" fill="#1f77b4"/><circle cx="660.0" cy="798.7" r="2.8" fill="#1f77b4"/><polyline fill="none" stroke="#d62728" stroke-width="2.5" points="145.0,268.6 150.4,312.8 161.3,388.1 182.9,456.9 204.6,542.0 226.3,611.0 269.7,680.3 313.1,721.8 399.8,758.3 486.5,777.5 660.0,799.7"/><circle cx="145.0" cy="268.6" r="2.8" fill="#d62728"/><circle cx="150.4" cy="312.8" r="2.8" fill="#d62728"/><circle cx="161.3" cy="388.1" r="2.8" fill="#d62728"/><circle cx="182.9" cy="456.9" r="2.8" fill="#d62728"/><circle cx="204.6" cy="542.0" r="2.8" fill="#d62728"/><circle cx="226.3" cy="611.0" r="2.8" fill="#d62728"/><circle cx="269.7" cy="680.3" r="2.8" fill="#d62728"/><circle cx="313.1" cy="721.8" r="2.8" fill="#d62728"/><circle cx="399.8" cy="758.3" r="2.8" fill="#d62728"/><circle cx="486.5" cy="777.5" r="2.8" fill="#d62728"/><circle cx="660.0" cy="799.7" r="2.8" fill="#d62728"/><polyline fill="none" stroke="#d62728" stroke-width="2.5" stroke-dasharray="7,4" points="145.0,267.8 150.4,474.7 161.3,653.1 182.9,746.7 204.6,721.0 226.3,750.3 269.7,756.1 313.1,765.4 399.8,772.4 486.5,781.7 660.0,798.7"/><circle cx="145.0" cy="267.8" r="2.8" fill="#d62728"/><circle cx="150.4" cy="474.7" r="2.8" fill="#d62728"/><circle cx="161.3" cy="653.1" r="2.8" fill="#d62728"/><circle cx="182.9" cy="746.7" r="2.8" fill="#d62728"/><circle cx="204.6" cy="721.0" r="2.8" fill="#d62728"/><circle cx="226.3" cy="750.3" r="2.8" fill="#d62728"/><circle cx="269.7" cy="756.1" r="2.8" fill="#d62728"/><circle cx="313.1" cy="765.4" r="2.8" fill="#d62728"/><circle cx="399.8" cy="772.4" r="2.8" fill="#d62728"/><circle cx="486.5" cy="781.7" r="2.8" fill="#d62728"/><circle cx="660.0" cy="798.7" r="2.8" fill="#d62728"/><polyline fill="none" stroke="#2ca02c" stroke-width="2.5" points="145.0,281.0 150.4,291.3 161.3,395.9 182.9,468.9 204.6,542.0 226.3,611.9 269.7,682.6 313.1,722.0 399.8,755.1 486.5,776.8 660.0,799.7"/><circle cx="145.0" cy="281.0" r="2.8" fill="#2ca02c"/><circle cx="150.4" cy="291.3" r="2.8" fill="#2ca02c"/><circle cx="161.3" cy="395.9" r="2.8" fill="#2ca02c"/><circle cx="182.9" cy="468.9" r="2.8" fill="#2ca02c"/><circle cx="204.6" cy="542.0" r="2.8" fill="#2ca02c"/><circle cx="226.3" cy="611.9" r="2.8" fill="#2ca02c"/><circle cx="269.7" cy="682.6" r="2.8" fill="#2ca02c"/><circle cx="313.1" cy="722.0" r="2.8" fill="#2ca02c"/><circle cx="399.8" cy="755.1" r="2.8" fill="#2ca02c"/><circle cx="486.5" cy="776.8" r="2.8" fill="#2ca02c"/><circle cx="660.0" cy="799.7" r="2.8" fill="#2ca02c"/><polyline fill="none" stroke="#2ca02c" stroke-width="2.5" stroke-dasharray="7,4" points="145.0,269.8 150.4,478.4 161.3,654.4 182.9,747.1 204.6,720.4 226.3,751.2 269.7,756.3 313.1,761.8 399.8,770.9 486.5,781.0 660.0,798.5"/><circle cx="145.0" cy="269.8" r="2.8" fill="#2ca02c"/><circle cx="150.4" cy="478.4" r="2.8" fill="#2ca02c"/><circle cx="161.3" cy="654.4" r="2.8" fill="#2ca02c"/><circle cx="182.9" cy="747.1" r="2.8" fill="#2ca02c"/><circle cx="204.6" cy="720.4" r="2.8" fill="#2ca02c"/><circle cx="226.3" cy="751.2" r="2.8" fill="#2ca02c"/><circle cx="269.7" cy="756.3" r="2.8" fill="#2ca02c"/><circle cx="313.1" cy="761.8" r="2.8" fill="#2ca02c"/><circle cx="399.8" cy="770.9" r="2.8" fill="#2ca02c"/><circle cx="486.5" cy="781.0" r="2.8" fill="#2ca02c"/><circle cx="660.0" cy="798.5" r="2.8" fill="#2ca02c"/><text class="small" x="100.0" y="495.0" transform="rotate(-90 100.0,495.0)" text-anchor="middle">uProf GB/s per thread</text><text x="1027.5" y="110" text-anchor="middle" font-size="18">local numa1</text><line class="grid" x1="790.0" y1="135.0" x2="1305.0" y2="135.0"/><text class="small" x="782.0" y="139.0" text-anchor="end">55</text><line class="grid" x1="790.0" y1="277.0" x2="1305.0" y2="277.0"/><text class="small" x="782.0" y="281.0" text-anchor="end">44</text><line class="grid" x1="790.0" y1="419.0" x2="1305.0" y2="419.0"/><text class="small" x="782.0" y="423.0" text-anchor="end">33</text><line class="grid" x1="790.0" y1="561.0" x2="1305.0" y2="561.0"/><text class="small" x="782.0" y="565.0" text-anchor="end">22</text><line class="grid" x1="790.0" y1="703.0" x2="1305.0" y2="703.0"/><text class="small" x="782.0" y="707.0" text-anchor="end">11</text><line class="grid" x1="790.0" y1="845.0" x2="1305.0" y2="845.0"/><text class="small" x="782.0" y="849.0" text-anchor="end">0</text><line class="axis" x1="790.0" y1="845" x2="1305.0" y2="845"/><line class="axis" x1="790.0" y1="135" x2="790.0" y2="845"/><line class="grid" x1="790.0" y1="845" x2="790.0" y2="850"/><text class="small" x="790.0" y="865" text-anchor="middle">1</text><line class="grid" x1="795.421052631579" y1="845" x2="795.421052631579" y2="850"/><text class="small" x="795.421052631579" y="865" text-anchor="middle">2</text><line class="grid" x1="806.2631578947369" y1="845" x2="806.2631578947369" y2="850"/><text class="small" x="806.2631578947369" y="865" text-anchor="middle">4</text><line class="grid" x1="827.9473684210526" y1="845" x2="827.9473684210526" y2="850"/><text class="small" x="827.9473684210526" y="865" text-anchor="middle">8</text><line class="grid" x1="849.6315789473684" y1="845" x2="849.6315789473684" y2="850"/><text class="small" x="849.6315789473684" y="865" text-anchor="middle">12</text><line class="grid" x1="871.3157894736842" y1="845" x2="871.3157894736842" y2="850"/><text class="small" x="871.3157894736842" y="865" text-anchor="middle">16</text><line class="grid" x1="914.6842105263158" y1="845" x2="914.6842105263158" y2="850"/><text class="small" x="914.6842105263158" y="865" text-anchor="middle">24</text><line class="grid" x1="958.0526315789474" y1="845" x2="958.0526315789474" y2="850"/><text class="small" x="958.0526315789474" y="865" text-anchor="middle">32</text><line class="grid" x1="1044.7894736842104" y1="845" x2="1044.7894736842104" y2="850"/><text class="small" x="1044.7894736842104" y="865" text-anchor="middle">48</text><line class="grid" x1="1131.5263157894738" y1="845" x2="1131.5263157894738" y2="850"/><text class="small" x="1131.5263157894738" y="865" text-anchor="middle">64</text><line class="grid" x1="1305.0" y1="845" x2="1305.0" y2="850"/><text class="small" x="1305.0" y="865" text-anchor="middle">96</text><polyline fill="none" stroke="#1f77b4" stroke-width="2.5" points="790.0,257.6 795.4,313.8 806.3,386.1 827.9,456.6 849.6,542.1 871.3,611.4 914.7,682.6 958.1,722.5 1044.8,759.4 1131.5,777.3 1305.0,798.8"/><circle cx="790.0" cy="257.6" r="2.8" fill="#1f77b4"/><circle cx="795.4" cy="313.8" r="2.8" fill="#1f77b4"/><circle cx="806.3" cy="386.1" r="2.8" fill="#1f77b4"/><circle cx="827.9" cy="456.6" r="2.8" fill="#1f77b4"/><circle cx="849.6" cy="542.1" r="2.8" fill="#1f77b4"/><circle cx="871.3" cy="611.4" r="2.8" fill="#1f77b4"/><circle cx="914.7" cy="682.6" r="2.8" fill="#1f77b4"/><circle cx="958.1" cy="722.5" r="2.8" fill="#1f77b4"/><circle cx="1044.8" cy="759.4" r="2.8" fill="#1f77b4"/><circle cx="1131.5" cy="777.3" r="2.8" fill="#1f77b4"/><circle cx="1305.0" cy="798.8" r="2.8" fill="#1f77b4"/><polyline fill="none" stroke="#1f77b4" stroke-width="2.5" stroke-dasharray="7,4" points="790.0,261.1 795.4,479.1 806.3,654.1 827.9,746.9 849.6,722.2 871.3,749.2 914.7,757.2 958.1,763.8 1044.8,775.2 1131.5,780.9 1305.0,798.7"/><circle cx="790.0" cy="261.1" r="2.8" fill="#1f77b4"/><circle cx="795.4" cy="479.1" r="2.8" fill="#1f77b4"/><circle cx="806.3" cy="654.1" r="2.8" fill="#1f77b4"/><circle cx="827.9" cy="746.9" r="2.8" fill="#1f77b4"/><circle cx="849.6" cy="722.2" r="2.8" fill="#1f77b4"/><circle cx="871.3" cy="749.2" r="2.8" fill="#1f77b4"/><circle cx="914.7" cy="757.2" r="2.8" fill="#1f77b4"/><circle cx="958.1" cy="763.8" r="2.8" fill="#1f77b4"/><circle cx="1044.8" cy="775.2" r="2.8" fill="#1f77b4"/><circle cx="1131.5" cy="780.9" r="2.8" fill="#1f77b4"/><circle cx="1305.0" cy="798.7" r="2.8" fill="#1f77b4"/><polyline fill="none" stroke="#d62728" stroke-width="2.5" points="790.0,261.0 795.4,287.4 806.3,365.7 827.9,467.9 849.6,542.0 871.3,611.5 914.7,682.8 958.1,721.8 1044.8,760.6 1131.5,777.9 1305.0,798.7"/><circle cx="790.0" cy="261.0" r="2.8" fill="#d62728"/><circle cx="795.4" cy="287.4" r="2.8" fill="#d62728"/><circle cx="806.3" cy="365.7" r="2.8" fill="#d62728"/><circle cx="827.9" cy="467.9" r="2.8" fill="#d62728"/><circle cx="849.6" cy="542.0" r="2.8" fill="#d62728"/><circle cx="871.3" cy="611.5" r="2.8" fill="#d62728"/><circle cx="914.7" cy="682.8" r="2.8" fill="#d62728"/><circle cx="958.1" cy="721.8" r="2.8" fill="#d62728"/><circle cx="1044.8" cy="760.6" r="2.8" fill="#d62728"/><circle cx="1131.5" cy="777.9" r="2.8" fill="#d62728"/><circle cx="1305.0" cy="798.7" r="2.8" fill="#d62728"/><polyline fill="none" stroke="#d62728" stroke-width="2.5" stroke-dasharray="7,4" points="790.0,273.0 795.4,479.3 806.3,653.7 827.9,747.4 849.6,722.0 871.3,751.9 914.7,756.7 958.1,761.9 1044.8,771.7 1131.5,786.0 1305.0,798.9"/><circle cx="790.0" cy="273.0" r="2.8" fill="#d62728"/><circle cx="795.4" cy="479.3" r="2.8" fill="#d62728"/><circle cx="806.3" cy="653.7" r="2.8" fill="#d62728"/><circle cx="827.9" cy="747.4" r="2.8" fill="#d62728"/><circle cx="849.6" cy="722.0" r="2.8" fill="#d62728"/><circle cx="871.3" cy="751.9" r="2.8" fill="#d62728"/><circle cx="914.7" cy="756.7" r="2.8" fill="#d62728"/><circle cx="958.1" cy="761.9" r="2.8" fill="#d62728"/><circle cx="1044.8" cy="771.7" r="2.8" fill="#d62728"/><circle cx="1131.5" cy="786.0" r="2.8" fill="#d62728"/><circle cx="1305.0" cy="798.9" r="2.8" fill="#d62728"/><polyline fill="none" stroke="#2ca02c" stroke-width="2.5" points="790.0,257.2 795.4,287.5 806.3,372.0 827.9,463.6 849.6,542.5 871.3,612.3 914.7,683.0 958.1,721.6 1044.8,760.0 1131.5,776.9 1305.0,799.5"/><circle cx="790.0" cy="257.2" r="2.8" fill="#2ca02c"/><circle cx="795.4" cy="287.5" r="2.8" fill="#2ca02c"/><circle cx="806.3" cy="372.0" r="2.8" fill="#2ca02c"/><circle cx="827.9" cy="463.6" r="2.8" fill="#2ca02c"/><circle cx="849.6" cy="542.5" r="2.8" fill="#2ca02c"/><circle cx="871.3" cy="612.3" r="2.8" fill="#2ca02c"/><circle cx="914.7" cy="683.0" r="2.8" fill="#2ca02c"/><circle cx="958.1" cy="721.6" r="2.8" fill="#2ca02c"/><circle cx="1044.8" cy="760.0" r="2.8" fill="#2ca02c"/><circle cx="1131.5" cy="776.9" r="2.8" fill="#2ca02c"/><circle cx="1305.0" cy="799.5" r="2.8" fill="#2ca02c"/><polyline fill="none" stroke="#2ca02c" stroke-width="2.5" stroke-dasharray="7,4" points="790.0,268.5 795.4,479.0 806.3,650.7 827.9,747.1 849.6,720.5 871.3,751.4 914.7,757.4 958.1,764.8 1044.8,772.0 1131.5,781.0 1305.0,798.5"/><circle cx="790.0" cy="268.5" r="2.8" fill="#2ca02c"/><circle cx="795.4" cy="479.0" r="2.8" fill="#2ca02c"/><circle cx="806.3" cy="650.7" r="2.8" fill="#2ca02c"/><circle cx="827.9" cy="747.1" r="2.8" fill="#2ca02c"/><circle cx="849.6" cy="720.5" r="2.8" fill="#2ca02c"/><circle cx="871.3" cy="751.4" r="2.8" fill="#2ca02c"/><circle cx="914.7" cy="757.4" r="2.8" fill="#2ca02c"/><circle cx="958.1" cy="764.8" r="2.8" fill="#2ca02c"/><circle cx="1044.8" cy="772.0" r="2.8" fill="#2ca02c"/><circle cx="1131.5" cy="781.0" r="2.8" fill="#2ca02c"/><circle cx="1305.0" cy="798.5" r="2.8" fill="#2ca02c"/><text class="small" x="745.0" y="495.0" transform="rotate(-90 745.0,495.0)" text-anchor="middle">uProf GB/s per thread</text></svg>