<svg xmlns="http://www.w3.org/2000/svg" width="1400" height="1000" viewBox="0 0 1400 1000"><style>text{font-family:monospace;fill:#111}.small{font-size:14px}.axis{stroke:#444;stroke-width:1}.grid{stroke:#ddd;stroke-width:1}</style><rect x="0" y="0" width="1400" height="1000" fill="white"/><text x="700.0" y="40" text-anchor="middle" font-size="24">local NUMA total memory BW: interleave CCD vs dense packing (4KiB)</text><text x="700.0" y="68" text-anchor="middle" font-size="16">solid = interleave CCD, dashed = dense packing</text><line x1="1040" y1="28" x2="1068" y2="28" stroke="#1f77b4" stroke-width="3"/><text x="1076" y="33" font-size="14">1302</text><line x1="1040" y1="52" x2="1068" y2="52" stroke="#d62728" stroke-width="3"/><text x="1076" y="57" font-size="14">1306</text><line x1="1040" y1="76" x2="1068" y2="76" stroke="#2ca02c" stroke-width="3"/><text x="1076" y="81" font-size="14">1308</text><line x1="1160" y1="28" x2="1188" y2="28" stroke="#444" stroke-width="2"/><text x="1196" y="33" font-size="14">interleave CCD</text><line x1="1160" y1="52" x2="1188" y2="52" stroke="#444" stroke-width="2" stroke-dasharray="7,4"/><text x="1196" y="57" font-size="14">dense packing</text><text x="382.5" y="110" text-anchor="middle" font-size="18">local numa0</text><line class="grid" x1="145.0" y1="135.0" x2="660.0" y2="135.0"/><text class="small" x="137.0" y="139.0" text-anchor="end">450</text><line class="grid" x1="145.0" y1="277.0" x2="660.0" y2="277.0"/><text class="small" x="137.0" y="281.0" text-anchor="end">360</text><line class="grid" x1="145.0" y1="419.0" x2="660.0" y2="419.0"/><text class="small" x="137.0" y="423.0" text-anchor="end">270</text><line class="grid" x1="145.0" y1="561.0" x2="660.0" y2="561.0"/><text class="small" x="137.0" y="565.0" text-anchor="end">180</text><line class="grid" x1="145.0" y1="703.0" x2="660.0" y2="703.0"/><text class="small" x="137.0" y="707.0" text-anchor="end">90</text><line class="grid" x1="145.0" y1="845.0" x2="660.0" y2="845.0"/><text class="small" x="137.0" y="849.0" text-anchor="end">0</text><line class="axis" x1="145.0" y1="845" x2="660.0" y2="845"/><line class="axis" x1="145.0" y1="135" x2="145.0" y2="845"/><line class="grid" x1="145.0" y1="845" x2="145.0" y2="850"/><text class="small" x="145.0" y="865" text-anchor="middle">1</text><line class="grid" x1="150.42105263157896" y1="845" x2="150.42105263157896" y2="850"/><text class="small" x="150.42105263157896" y="865" text-anchor="middle">2</text><line class="grid" x1="161.26315789473685" y1="845" x2="161.26315789473685" y2="850"/><text class="small" x="161.26315789473685" y="865" text-anchor="middle">4</text><line class="grid" x1="182.94736842105263" y1="845" x2="182.94736842105263" y2="850"/><text class="small" x="182.94736842105263" y="865" text-anchor="middle">8</text><line class="grid" x1="204.6315789473684" y1="845" x2="204.6315789473684" y2="850"/><text class="small" x="204.6315789473684" y="865" text-anchor="middle">12</text><line class="grid" x1="226.31578947368422" y1="845" x2="226.31578947368422" y2="850"/><text class="small" x="226.31578947368422" y="865" text-anchor="middle">16</text><line class="grid" x1="269.6842105263158" y1="845" x2="269.6842105263158" y2="850"/><text class="small" x="269.6842105263158" y="865" text-anchor="middle">24</text><line class="grid" x1="313.0526315789474" y1="845" x2="313.0526315789474" y2="850"/><text class="small" x="313.0526315789474" y="865" text-anchor="middle">32</text><line class="grid" x1="399.7894736842105" y1="845" x2="399.7894736842105" y2="850"/><text class="small" x="399.7894736842105" y="865" text-anchor="middle">48</text><line class="grid" x1="486.5263157894737" y1="845" x2="486.5263157894737" y2="850"/><text class="small" x="486.5263157894737" y="865" text-anchor="middle">64</text><line class="grid" x1="660.0" y1="845" x2="660.0" y2="850"/><text class="small" x="660.0" y="865" text-anchor="middle">96</text><polyline fill="none" stroke="#1f77b4" stroke-width="2.5" points="145.0,773.8 150.4,716.2 161.3,616.6 182.9,469.3 204.6,404.0 226.3,387.8 269.7,367.1 313.1,360.3 399.8,328.3 486.5,307.3 660.0,303.3"/><circle cx="145.0" cy="773.8" r="2.8" fill="#1f77b4"/><circle cx="150.4" cy="716.2" r="2.8" fill="#1f77b4"/><circle cx="161.3" cy="616.6" r="2.8" fill="#1f77b4"/><circle cx="182.9" cy="469.3" r="2.8" fill="#1f77b4"/><circle cx="204.6" cy="404.0" r="2.8" fill="#1f77b4"/><circle cx="226.3" cy="387.8" r="2.8" fill="#1f77b4"/><circle cx="269.7" cy="367.1" r="2.8" fill="#1f77b4"/><circle cx="313.1" cy="360.3" r="2.8" fill="#1f77b4"/><circle cx="399.8" cy="328.3" r="2.8" fill="#1f77b4"/><circle cx="486.5" cy="307.3" r="2.8" fill="#1f77b4"/><circle cx="660.0" cy="303.3" r="2.8" fill="#1f77b4"/><polyline fill="none" stroke="#1f77b4" stroke-width="2.5" stroke-dasharray="7,4" points="145.0,773.8 150.4,755.3 161.3,751.9 182.9,749.5 204.6,662.4 226.3,661.0 269.7,584.5 313.1,518.9 399.8,414.0 486.5,342.3 660.0,301.7"/><circle cx="145.0" cy="773.8" r="2.8" fill="#1f77b4"/><circle cx="150.4" cy="755.3" r="2.8" fill="#1f77b4"/><circle cx="161.3" cy="751.9" r="2.8" fill="#1f77b4"/><circle cx="182.9" cy="749.5" r="2.8" fill="#1f77b4"/><circle cx="204.6" cy="662.4" r="2.8" fill="#1f77b4"/><circle cx="226.3" cy="661.0" r="2.8" fill="#1f77b4"/><circle cx="269.7" cy="584.5" r="2.8" fill="#1f77b4"/><circle cx="313.1" cy="518.9" r="2.8" fill="#1f77b4"/><circle cx="399.8" cy="414.0" r="2.8" fill="#1f77b4"/><circle cx="486.5" cy="342.3" r="2.8" fill="#1f77b4"/><circle cx="660.0" cy="301.7" r="2.8" fill="#1f77b4"/><polyline fill="none" stroke="#d62728" stroke-width="2.5" points="145.0,774.6 150.4,714.9 161.3,621.6 182.9,465.5 204.6,400.6 226.3,387.5 269.7,361.8 313.1,363.3 399.8,336.3 486.5,317.4 660.0,313.1"/><circle cx="145.0" cy="774.6" r="2.8" fill="#d62728"/><circle cx="150.4" cy="714.9" r="2.8" fill="#d62728"/><circle cx="161.3" cy="621.6" r="2.8" fill="#d62728"/><circle cx="182.9" cy="465.5" r="2.8" fill="#d62728"/><circle cx="204.6" cy="400.6" r="2.8" fill="#d62728"/><circle cx="226.3" cy="387.5" r="2.8" fill="#d62728"/><circle cx="269.7" cy="361.8" r="2.8" fill="#d62728"/><circle cx="313.1" cy="363.3" r="2.8" fill="#d62728"/><circle cx="399.8" cy="336.3" r="2.8" fill="#d62728"/><circle cx="486.5" cy="317.4" r="2.8" fill="#d62728"/><circle cx="660.0" cy="313.1" r="2.8" fill="#d62728"/><polyline fill="none" stroke="#d62728" stroke-width="2.5" stroke-dasharray="7,4" points="145.0,774.5 150.4,754.5 161.3,751.2 182.9,748.9 204.6,663.1 226.3,659.8 269.7,584.3 313.1,533.5 399.8,419.0 486.5,349.8 660.0,301.2"/><circle cx="145.0" cy="774.5" r="2.8" fill="#d62728"/><circle cx="150.4" cy="754.5" r="2.8" fill="#d62728"/><circle cx="161.3" cy="751.2" r="2.8" fill="#d62728"/><circle cx="182.9" cy="748.9" r="2.8" fill="#d62728"/><circle cx="204.6" cy="663.1" r="2.8" fill="#d62728"/><circle cx="226.3" cy="659.8" r="2.8" fill="#d62728"/><circle cx="269.7" cy="584.3" r="2.8" fill="#d62728"/><circle cx="313.1" cy="533.5" r="2.8" fill="#d62728"/><circle cx="399.8" cy="419.0" r="2.8" fill="#d62728"/><circle cx="486.5" cy="349.8" r="2.8" fill="#d62728"/><circle cx="660.0" cy="301.2" r="2.8" fill="#d62728"/><polyline fill="none" stroke="#2ca02c" stroke-width="2.5" points="145.0,776.1 150.4,709.6 161.3,625.5 182.9,477.2 204.6,400.6 226.3,389.1 269.7,368.6 313.1,364.0 399.8,317.7 486.5,311.7 660.0,312.9"/><circle cx="145.0" cy="776.1" r="2.8" fill="#2ca02c"/><circle cx="150.4" cy="709.6" r="2.8" fill="#2ca02c"/><circle cx="161.3" cy="625.5" r="2.8" fill="#2ca02c"/><circle cx="182.9" cy="477.2" r="2.8" fill="#2ca02c"/><circle cx="204.6" cy="400.6" r="2.8" fill="#2ca02c"/><circle cx="226.3" cy="389.1" r="2.8" fill="#2ca02c"/><circle cx="269.7" cy="368.6" r="2.8" fill="#2ca02c"/><circle cx="313.1" cy="364.0" r="2.8" fill="#2ca02c"/><circle cx="399.8" cy="317.7" r="2.8" fill="#2ca02c"/><circle cx="486.5" cy="311.7" r="2.8" fill="#2ca02c"/><circle cx="660.0" cy="312.9" r="2.8" fill="#2ca02c"/><polyline fill="none" stroke="#2ca02c" stroke-width="2.5" stroke-dasharray="7,4" points="145.0,774.7 150.4,755.4 161.3,751.8 182.9,749.3 204.6,662.3 226.3,661.5 269.7,584.8 313.1,519.6 399.8,410.4 486.5,344.7 660.0,299.0"/><circle cx="145.0" cy="774.7" r="2.8" fill="#2ca02c"/><circle cx="150.4" cy="755.4" r="2.8" fill="#2ca02c"/><circle cx="161.3" cy="751.8" r="2.8" fill="#2ca02c"/><circle cx="182.9" cy="749.3" r="2.8" fill="#2ca02c"/><circle cx="204.6" cy="662.3" r="2.8" fill="#2ca02c"/><circle cx="226.3" cy="661.5" r="2.8" fill="#2ca02c"/><circle cx="269.7" cy="584.8" r="2.8" fill="#2ca02c"/><circle cx="313.1" cy="519.6" r="2.8" fill="#2ca02c"/><circle cx="399.8" cy="410.4" r="2.8" fill="#2ca02c"/><circle cx="486.5" cy="344.7" r="2.8" fill="#2ca02c"/><circle cx="660.0" cy="299.0" r="2.8" fill="#2ca02c"/><text class="small" x="100.0" y="495.0" transform="rotate(-90 100.0,495.0)" text-anchor="middle">uProf total BW GB/s</text><text x="1027.5" y="110" text-anchor="middle" font-size="18">local numa1</text><line class="grid" x1="790.0" y1="135.0" x2="1305.0" y2="135.0"/><text class="small" x="782.0" y="139.0" text-anchor="end">450</text><line class="grid" x1="790.0" y1="277.0" x2="1305.0" y2="277.0"/><text class="small" x="782.0" y="281.0" text-anchor="end">360</text><line class="grid" x1="790.0" y1="419.0" x2="1305.0" y2="419.0"/><text class="small" x="782.0" y="423.0" text-anchor="end">270</text><line class="grid" x1="790.0" y1="561.0" x2="1305.0" y2="561.0"/><text class="small" x="782.0" y="565.0" text-anchor="end">180</text><line class="grid" x1="790.0" y1="703.0" x2="1305.0" y2="703.0"/><text class="small" x="782.0" y="707.0" text-anchor="end">90</text><line class="grid" x1="790.0" y1="845.0" x2="1305.0" y2="845.0"/><text class="small" x="782.0" y="849.0" text-anchor="end">0</text><line class="axis" x1="790.0" y1="845" x2="1305.0" y2="845"/><line class="axis" x1="790.0" y1="135" x2="790.0" y2="845"/><line class="grid" x1="790.0" y1="845" x2="790.0" y2="850"/><text class="small" x="790.0" y="865" text-anchor="middle">1</text><line class="grid" x1="795.421052631579" y1="845" x2="795.421052631579" y2="850"/><text class="small" x="795.421052631579" y="865" text-anchor="middle">2</text><line class="grid" x1="806.2631578947369" y1="845" x2="806.2631578947369" y2="850"/><text class="small" x="806.2631578947369" y="865" text-anchor="middle">4</text><line class="grid" x1="827.9473684210526" y1="845" x2="827.9473684210526" y2="850"/><text class="small" x="827.9473684210526" y="865" text-anchor="middle">8</text><line class="grid" x1="849.6315789473684" y1="845" x2="849.6315789473684" y2="850"/><text class="small" x="849.6315789473684" y="865" text-anchor="middle">12</text><line class="grid" x1="871.3157894736842" y1="845" x2="871.3157894736842" y2="850"/><text class="small" x="871.3157894736842" y="865" text-anchor="middle">16</text><line class="grid" x1="914.6842105263158" y1="845" x2="914.6842105263158" y2="850"/><text class="small" x="914.6842105263158" y="865" text-anchor="middle">24</text><line class="grid" x1="958.0526315789474" y1="845" x2="958.0526315789474" y2="850"/><text class="small" x="958.0526315789474" y="865" text-anchor="middle">32</text><line class="grid" x1="1044.7894736842104" y1="845" x2="1044.7894736842104" y2="850"/><text class="small" x="1044.7894736842104" y="865" text-anchor="middle">48</text><line class="grid" x1="1131.5263157894738" y1="845" x2="1131.5263157894738" y2="850"/><text class="small" x="1131.5263157894738" y="865" text-anchor="middle">64</text><line class="grid" x1="1305.0" y1="845" x2="1305.0" y2="850"/><text class="small" x="1305.0" y="865" text-anchor="middle">96</text><polyline fill="none" stroke="#1f77b4" stroke-width="2.5" points="790.0,773.2 795.4,715.1 806.3,620.7 827.9,465.2 849.6,400.8 871.3,388.1 914.7,368.7 958.1,366.0 1044.8,343.0 1131.5,315.8 1305.0,303.4"/><circle cx="790.0" cy="773.2" r="2.8" fill="#1f77b4"/><circle cx="795.4" cy="715.1" r="2.8" fill="#1f77b4"/><circle cx="806.3" cy="620.7" r="2.8" fill="#1f77b4"/><circle cx="827.9" cy="465.2" r="2.8" fill="#1f77b4"/><circle cx="849.6" cy="400.8" r="2.8" fill="#1f77b4"/><circle cx="871.3" cy="388.1" r="2.8" fill="#1f77b4"/><circle cx="914.7" cy="368.7" r="2.8" fill="#1f77b4"/><circle cx="958.1" cy="366.0" r="2.8" fill="#1f77b4"/><circle cx="1044.8" cy="343.0" r="2.8" fill="#1f77b4"/><circle cx="1131.5" cy="315.8" r="2.8" fill="#1f77b4"/><circle cx="1305.0" cy="303.4" r="2.8" fill="#1f77b4"/><polyline fill="none" stroke="#1f77b4" stroke-width="2.5" stroke-dasharray="7,4" points="790.0,773.6 795.4,755.6 806.3,751.7 827.9,749.1 849.6,664.9 871.3,657.7 914.7,587.5 958.1,527.3 1044.8,435.7 1131.5,343.9 1305.0,301.2"/><circle cx="790.0" cy="773.6" r="2.8" fill="#1f77b4"/><circle cx="795.4" cy="755.6" r="2.8" fill="#1f77b4"/><circle cx="806.3" cy="751.7" r="2.8" fill="#1f77b4"/><circle cx="827.9" cy="749.1" r="2.8" fill="#1f77b4"/><circle cx="849.6" cy="664.9" r="2.8" fill="#1f77b4"/><circle cx="871.3" cy="657.7" r="2.8" fill="#1f77b4"/><circle cx="914.7" cy="587.5" r="2.8" fill="#1f77b4"/><circle cx="958.1" cy="527.3" r="2.8" fill="#1f77b4"/><circle cx="1044.8" cy="435.7" r="2.8" fill="#1f77b4"/><circle cx="1131.5" cy="343.9" r="2.8" fill="#1f77b4"/><circle cx="1305.0" cy="301.2" r="2.8" fill="#1f77b4"/><polyline fill="none" stroke="#d62728" stroke-width="2.5" points="790.0,773.6 795.4,708.7 806.3,610.7 827.9,476.3 849.6,400.7 871.3,388.3 914.7,369.1 958.1,363.3 1044.8,349.8 1131.5,320.5 1305.0,301.2"/><circle cx="790.0" cy="773.6" r="2.8" fill="#d62728"/><circle cx="795.4" cy="708.7" r="2.8" fill="#d62728"/><circle cx="806.3" cy="610.7" r="2.8" fill="#d62728"/><circle cx="827.9" cy="476.3" r="2.8" fill="#d62728"/><circle cx="849.6" cy="400.7" r="2.8" fill="#d62728"/><circle cx="871.3" cy="388.3" r="2.8" fill="#d62728"/><circle cx="914.7" cy="369.1" r="2.8" fill="#d62728"/><circle cx="958.1" cy="363.3" r="2.8" fill="#d62728"/><circle cx="1044.8" cy="349.8" r="2.8" fill="#d62728"/><circle cx="1131.5" cy="320.5" r="2.8" fill="#d62728"/><circle cx="1305.0" cy="301.2" r="2.8" fill="#d62728"/><polyline fill="none" stroke="#d62728" stroke-width="2.5" stroke-dasharray="7,4" points="790.0,775.1 795.4,755.6 806.3,751.5 827.9,749.5 849.6,664.6 871.3,662.8 914.7,586.0 958.1,520.0 1044.8,414.8 1131.5,383.8 1305.0,303.9"/><circle cx="790.0" cy="775.1" r="2.8" fill="#d62728"/><circle cx="795.4" cy="755.6" r="2.8" fill="#d62728"/><circle cx="806.3" cy="751.5" r="2.8" fill="#d62728"/><circle cx="827.9" cy="749.5" r="2.8" fill="#d62728"/><circle cx="849.6" cy="664.6" r="2.8" fill="#d62728"/><circle cx="871.3" cy="662.8" r="2.8" fill="#d62728"/><circle cx="914.7" cy="586.0" r="2.8" fill="#d62728"/><circle cx="958.1" cy="520.0" r="2.8" fill="#d62728"/><circle cx="1044.8" cy="414.8" r="2.8" fill="#d62728"/><circle cx="1131.5" cy="383.8" r="2.8" fill="#d62728"/><circle cx="1305.0" cy="303.9" r="2.8" fill="#d62728"/><polyline fill="none" stroke="#2ca02c" stroke-width="2.5" points="790.0,773.2 795.4,708.7 806.3,613.8 827.9,472.1 849.6,401.3 871.3,389.9 914.7,369.9 958.1,362.5 1044.8,346.3 1131.5,312.3 1305.0,310.9"/><circle cx="790.0" cy="773.2" r="2.8" fill="#2ca02c"/><circle cx="795.4" cy="708.7" r="2.8" fill="#2ca02c"/><circle cx="806.3" cy="613.8" r="2.8" fill="#2ca02c"/><circle cx="827.9" cy="472.1" r="2.8" fill="#2ca02c"/><circle cx="849.6" cy="401.3" r="2.8" fill="#2ca02c"/><circle cx="871.3" cy="389.9" r="2.8" fill="#2ca02c"/><circle cx="914.7" cy="369.9" r="2.8" fill="#2ca02c"/><circle cx="958.1" cy="362.5" r="2.8" fill="#2ca02c"/><circle cx="1044.8" cy="346.3" r="2.8" fill="#2ca02c"/><circle cx="1131.5" cy="312.3" r="2.8" fill="#2ca02c"/><circle cx="1305.0" cy="310.9" r="2.8" fill="#2ca02c"/><polyline fill="none" stroke="#2ca02c" stroke-width="2.5" stroke-dasharray="7,4" points="790.0,774.5 795.4,755.5 806.3,750.0 827.9,749.3 849.6,662.4 871.3,661.9 914.7,588.0 958.1,531.4 1044.8,416.7 1131.5,344.6 1305.0,299.2"/><circle cx="790.0" cy="774.5" r="2.8" fill="#2ca02c"/><circle cx="795.4" cy="755.5" r="2.8" fill="#2ca02c"/><circle cx="806.3" cy="750.0" r="2.8" fill="#2ca02c"/><circle cx="827.9" cy="749.3" r="2.8" fill="#2ca02c"/><circle cx="849.6" cy="662.4" r="2.8" fill="#2ca02c"/><circle cx="871.3" cy="661.9" r="2.8" fill="#2ca02c"/><circle cx="914.7" cy="588.0" r="2.8" fill="#2ca02c"/><circle cx="958.1" cy="531.4" r="2.8" fill="#2ca02c"/><circle cx="1044.8" cy="416.7" r="2.8" fill="#2ca02c"/><circle cx="1131.5" cy="344.6" r="2.8" fill="#2ca02c"/><circle cx="1305.0" cy="299.2" r="2.8" fill="#2ca02c"/><text class="small" x="745.0" y="495.0" transform="rotate(-90 745.0,495.0)" text-anchor="middle">uProf total BW GB/s</text></svg>