<svg xmlns="http://www.w3.org/2000/svg" width="1400" height="1000" viewBox="0 0 1400 1000"><style>text{font-family:monospace;fill:#111}.small{font-size:14px}.axis{stroke:#444;stroke-width:1}.grid{stroke:#ddd;stroke-width:1}</style><rect x="0" y="0" width="1400" height="1000" fill="white"/><text x="700.0" y="40" text-anchor="middle" font-size="24">local NUMA total memory BW: interleave CCD vs dense packing (1MiB)</text><text x="700.0" y="68" text-anchor="middle" font-size="16">solid = interleave CCD, dashed = dense packing</text><line x1="1040" y1="28" x2="1068" y2="28" stroke="#1f77b4" stroke-width="3"/><text x="1076" y="33" font-size="14">1302</text><line x1="1040" y1="52" x2="1068" y2="52" stroke="#d62728" stroke-width="3"/><text x="1076" y="57" font-size="14">1306</text><line x1="1040" y1="76" x2="1068" y2="76" stroke="#2ca02c" stroke-width="3"/><text x="1076" y="81" font-size="14">1308</text><line x1="1160" y1="28" x2="1188" y2="28" stroke="#444" stroke-width="2"/><text x="1196" y="33" font-size="14">interleave CCD</text><line x1="1160" y1="52" x2="1188" y2="52" stroke="#444" stroke-width="2" stroke-dasharray="7,4"/><text x="1196" y="57" font-size="14">dense packing</text><text x="382.5" y="110" text-anchor="middle" font-size="18">local numa0</text><line class="grid" x1="145.0" y1="135.0" x2="660.0" y2="135.0"/><text class="small" x="137.0" y="139.0" text-anchor="end">450</text><line class="grid" x1="145.0" y1="277.0" x2="660.0" y2="277.0"/><text class="small" x="137.0" y="281.0" text-anchor="end">360</text><line class="grid" x1="145.0" y1="419.0" x2="660.0" y2="419.0"/><text class="small" x="137.0" y="423.0" text-anchor="end">270</text><line class="grid" x1="145.0" y1="561.0" x2="660.0" y2="561.0"/><text class="small" x="137.0" y="565.0" text-anchor="end">180</text><line class="grid" x1="145.0" y1="703.0" x2="660.0" y2="703.0"/><text class="small" x="137.0" y="707.0" text-anchor="end">90</text><line class="grid" x1="145.0" y1="845.0" x2="660.0" y2="845.0"/><text class="small" x="137.0" y="849.0" text-anchor="end">0</text><line class="axis" x1="145.0" y1="845" x2="660.0" y2="845"/><line class="axis" x1="145.0" y1="135" x2="145.0" y2="845"/><line class="grid" x1="145.0" y1="845" x2="145.0" y2="850"/><text class="small" x="145.0" y="865" text-anchor="middle">1</text><line class="grid" x1="150.42105263157896" y1="845" x2="150.42105263157896" y2="850"/><text class="small" x="150.42105263157896" y="865" text-anchor="middle">2</text><line class="grid" x1="161.26315789473685" y1="845" x2="161.26315789473685" y2="850"/><text class="small" x="161.26315789473685" y="865" text-anchor="middle">4</text><line class="grid" x1="182.94736842105263" y1="845" x2="182.94736842105263" y2="850"/><text class="small" x="182.94736842105263" y="865" text-anchor="middle">8</text><line class="grid" x1="204.6315789473684" y1="845" x2="204.6315789473684" y2="850"/><text class="small" x="204.6315789473684" y="865" text-anchor="middle">12</text><line class="grid" x1="226.31578947368422" y1="845" x2="226.31578947368422" y2="850"/><text class="small" x="226.31578947368422" y="865" text-anchor="middle">16</text><line class="grid" x1="269.6842105263158" y1="845" x2="269.6842105263158" y2="850"/><text class="small" x="269.6842105263158" y="865" text-anchor="middle">24</text><line class="grid" x1="313.0526315789474" y1="845" x2="313.0526315789474" y2="850"/><text class="small" x="313.0526315789474" y="865" text-anchor="middle">32</text><line class="grid" x1="399.7894736842105" y1="845" x2="399.7894736842105" y2="850"/><text class="small" x="399.7894736842105" y="865" text-anchor="middle">48</text><line class="grid" x1="486.5263157894737" y1="845" x2="486.5263157894737" y2="850"/><text class="small" x="486.5263157894737" y="865" text-anchor="middle">64</text><line class="grid" x1="660.0" y1="845" x2="660.0" y2="850"/><text class="small" x="660.0" y="865" text-anchor="middle">96</text><polyline fill="none" stroke="#1f77b4" stroke-width="2.5" points="145.0,769.1 150.4,697.0 161.3,586.8 182.9,465.9 204.6,412.8 226.3,389.5 269.7,371.6 313.1,367.4 399.8,327.8 486.5,305.5 660.0,294.5"/><circle cx="145.0" cy="769.1" r="2.8" fill="#1f77b4"/><circle cx="150.4" cy="697.0" r="2.8" fill="#1f77b4"/><circle cx="161.3" cy="586.8" r="2.8" fill="#1f77b4"/><circle cx="182.9" cy="465.9" r="2.8" fill="#1f77b4"/><circle cx="204.6" cy="412.8" r="2.8" fill="#1f77b4"/><circle cx="226.3" cy="389.5" r="2.8" fill="#1f77b4"/><circle cx="269.7" cy="371.6" r="2.8" fill="#1f77b4"/><circle cx="313.1" cy="367.4" r="2.8" fill="#1f77b4"/><circle cx="399.8" cy="327.8" r="2.8" fill="#1f77b4"/><circle cx="486.5" cy="305.5" r="2.8" fill="#1f77b4"/><circle cx="660.0" cy="294.5" r="2.8" fill="#1f77b4"/><polyline fill="none" stroke="#1f77b4" stroke-width="2.5" stroke-dasharray="7,4" points="145.0,769.8 150.4,754.9 161.3,751.9 182.9,749.6 204.6,666.6 226.3,660.7 269.7,586.1 313.1,518.7 399.8,412.2 486.5,344.8 660.0,295.9"/><circle cx="145.0" cy="769.8" r="2.8" fill="#1f77b4"/><circle cx="150.4" cy="754.9" r="2.8" fill="#1f77b4"/><circle cx="161.3" cy="751.9" r="2.8" fill="#1f77b4"/><circle cx="182.9" cy="749.6" r="2.8" fill="#1f77b4"/><circle cx="204.6" cy="666.6" r="2.8" fill="#1f77b4"/><circle cx="226.3" cy="660.7" r="2.8" fill="#1f77b4"/><circle cx="269.7" cy="586.1" r="2.8" fill="#1f77b4"/><circle cx="313.1" cy="518.7" r="2.8" fill="#1f77b4"/><circle cx="399.8" cy="412.2" r="2.8" fill="#1f77b4"/><circle cx="486.5" cy="344.8" r="2.8" fill="#1f77b4"/><circle cx="660.0" cy="295.9" r="2.8" fill="#1f77b4"/><polyline fill="none" stroke="#d62728" stroke-width="2.5" points="145.0,769.8 150.4,697.4 161.3,586.7 182.9,472.5 204.6,404.3 226.3,388.9 269.7,366.5 313.1,357.4 399.8,337.9 486.5,300.8 660.0,304.4"/><circle cx="145.0" cy="769.8" r="2.8" fill="#d62728"/><circle cx="150.4" cy="697.4" r="2.8" fill="#d62728"/><circle cx="161.3" cy="586.7" r="2.8" fill="#d62728"/><circle cx="182.9" cy="472.5" r="2.8" fill="#d62728"/><circle cx="204.6" cy="404.3" r="2.8" fill="#d62728"/><circle cx="226.3" cy="388.9" r="2.8" fill="#d62728"/><circle cx="269.7" cy="366.5" r="2.8" fill="#d62728"/><circle cx="313.1" cy="357.4" r="2.8" fill="#d62728"/><circle cx="399.8" cy="337.9" r="2.8" fill="#d62728"/><circle cx="486.5" cy="300.8" r="2.8" fill="#d62728"/><circle cx="660.0" cy="304.4" r="2.8" fill="#d62728"/><polyline fill="none" stroke="#d62728" stroke-width="2.5" stroke-dasharray="7,4" points="145.0,769.7 150.4,755.6 161.3,752.0 182.9,748.6 204.6,662.9 226.3,660.1 269.7,586.1 313.1,514.5 399.8,409.8 486.5,346.2 660.0,302.0"/><circle cx="145.0" cy="769.7" r="2.8" fill="#d62728"/><circle cx="150.4" cy="755.6" r="2.8" fill="#d62728"/><circle cx="161.3" cy="752.0" r="2.8" fill="#d62728"/><circle cx="182.9" cy="748.6" r="2.8" fill="#d62728"/><circle cx="204.6" cy="662.9" r="2.8" fill="#d62728"/><circle cx="226.3" cy="660.1" r="2.8" fill="#d62728"/><circle cx="269.7" cy="586.1" r="2.8" fill="#d62728"/><circle cx="313.1" cy="514.5" r="2.8" fill="#d62728"/><circle cx="399.8" cy="409.8" r="2.8" fill="#d62728"/><circle cx="486.5" cy="346.2" r="2.8" fill="#d62728"/><circle cx="660.0" cy="302.0" r="2.8" fill="#d62728"/><polyline fill="none" stroke="#2ca02c" stroke-width="2.5" points="145.0,769.7 150.4,697.2 161.3,583.6 182.9,462.8 204.6,400.9 226.3,394.9 269.7,373.3 313.1,345.1 399.8,329.2 486.5,309.2 660.0,314.2"/><circle cx="145.0" cy="769.7" r="2.8" fill="#2ca02c"/><circle cx="150.4" cy="697.2" r="2.8" fill="#2ca02c"/><circle cx="161.3" cy="583.6" r="2.8" fill="#2ca02c"/><circle cx="182.9" cy="462.8" r="2.8" fill="#2ca02c"/><circle cx="204.6" cy="400.9" r="2.8" fill="#2ca02c"/><circle cx="226.3" cy="394.9" r="2.8" fill="#2ca02c"/><circle cx="269.7" cy="373.3" r="2.8" fill="#2ca02c"/><circle cx="313.1" cy="345.1" r="2.8" fill="#2ca02c"/><circle cx="399.8" cy="329.2" r="2.8" fill="#2ca02c"/><circle cx="486.5" cy="309.2" r="2.8" fill="#2ca02c"/><circle cx="660.0" cy="314.2" r="2.8" fill="#2ca02c"/><polyline fill="none" stroke="#2ca02c" stroke-width="2.5" stroke-dasharray="7,4" points="145.0,770.0 150.4,755.5 161.3,752.3 182.9,749.6 204.6,664.2 226.3,661.4 269.7,585.0 313.1,519.2 399.8,409.3 486.5,343.0 660.0,304.2"/><circle cx="145.0" cy="770.0" r="2.8" fill="#2ca02c"/><circle cx="150.4" cy="755.5" r="2.8" fill="#2ca02c"/><circle cx="161.3" cy="752.3" r="2.8" fill="#2ca02c"/><circle cx="182.9" cy="749.6" r="2.8" fill="#2ca02c"/><circle cx="204.6" cy="664.2" r="2.8" fill="#2ca02c"/><circle cx="226.3" cy="661.4" r="2.8" fill="#2ca02c"/><circle cx="269.7" cy="585.0" r="2.8" fill="#2ca02c"/><circle cx="313.1" cy="519.2" r="2.8" fill="#2ca02c"/><circle cx="399.8" cy="409.3" r="2.8" fill="#2ca02c"/><circle cx="486.5" cy="343.0" r="2.8" fill="#2ca02c"/><circle cx="660.0" cy="304.2" r="2.8" fill="#2ca02c"/><text class="small" x="100.0" y="495.0" transform="rotate(-90 100.0,495.0)" text-anchor="middle">uProf total BW GB/s</text><text x="1027.5" y="110" text-anchor="middle" font-size="18">local numa1</text><line class="grid" x1="790.0" y1="135.0" x2="1305.0" y2="135.0"/><text class="small" x="782.0" y="139.0" text-anchor="end">450</text><line class="grid" x1="790.0" y1="277.0" x2="1305.0" y2="277.0"/><text class="small" x="782.0" y="281.0" text-anchor="end">360</text><line class="grid" x1="790.0" y1="419.0" x2="1305.0" y2="419.0"/><text class="small" x="782.0" y="423.0" text-anchor="end">270</text><line class="grid" x1="790.0" y1="561.0" x2="1305.0" y2="561.0"/><text class="small" x="782.0" y="565.0" text-anchor="end">180</text><line class="grid" x1="790.0" y1="703.0" x2="1305.0" y2="703.0"/><text class="small" x="782.0" y="707.0" text-anchor="end">90</text><line class="grid" x1="790.0" y1="845.0" x2="1305.0" y2="845.0"/><text class="small" x="782.0" y="849.0" text-anchor="end">0</text><line class="axis" x1="790.0" y1="845" x2="1305.0" y2="845"/><line class="axis" x1="790.0" y1="135" x2="790.0" y2="845"/><line class="grid" x1="790.0" y1="845" x2="790.0" y2="850"/><text class="small" x="790.0" y="865" text-anchor="middle">1</text><line class="grid" x1="795.421052631579" y1="845" x2="795.421052631579" y2="850"/><text class="small" x="795.421052631579" y="865" text-anchor="middle">2</text><line class="grid" x1="806.2631578947369" y1="845" x2="806.2631578947369" y2="850"/><text class="small" x="806.2631578947369" y="865" text-anchor="middle">4</text><line class="grid" x1="827.9473684210526" y1="845" x2="827.9473684210526" y2="850"/><text class="small" x="827.9473684210526" y="865" text-anchor="middle">8</text><line class="grid" x1="849.6315789473684" y1="845" x2="849.6315789473684" y2="850"/><text class="small" x="849.6315789473684" y="865" text-anchor="middle">12</text><line class="grid" x1="871.3157894736842" y1="845" x2="871.3157894736842" y2="850"/><text class="small" x="871.3157894736842" y="865" text-anchor="middle">16</text><line class="grid" x1="914.6842105263158" y1="845" x2="914.6842105263158" y2="850"/><text class="small" x="914.6842105263158" y="865" text-anchor="middle">24</text><line class="grid" x1="958.0526315789474" y1="845" x2="958.0526315789474" y2="850"/><text class="small" x="958.0526315789474" y="865" text-anchor="middle">32</text><line class="grid" x1="1044.7894736842104" y1="845" x2="1044.7894736842104" y2="850"/><text class="small" x="1044.7894736842104" y="865" text-anchor="middle">48</text><line class="grid" x1="1131.5263157894738" y1="845" x2="1131.5263157894738" y2="850"/><text class="small" x="1131.5263157894738" y="865" text-anchor="middle">64</text><line class="grid" x1="1305.0" y1="845" x2="1305.0" y2="850"/><text class="small" x="1305.0" y="865" text-anchor="middle">96</text><polyline fill="none" stroke="#1f77b4" stroke-width="2.5" points="790.0,769.4 795.4,695.5 806.3,588.3 827.9,463.4 849.6,402.6 871.3,389.5 914.7,370.4 958.1,367.5 1044.8,342.7 1131.5,317.6 1305.0,306.1"/><circle cx="790.0" cy="769.4" r="2.8" fill="#1f77b4"/><circle cx="795.4" cy="695.5" r="2.8" fill="#1f77b4"/><circle cx="806.3" cy="588.3" r="2.8" fill="#1f77b4"/><circle cx="827.9" cy="463.4" r="2.8" fill="#1f77b4"/><circle cx="849.6" cy="402.6" r="2.8" fill="#1f77b4"/><circle cx="871.3" cy="389.5" r="2.8" fill="#1f77b4"/><circle cx="914.7" cy="370.4" r="2.8" fill="#1f77b4"/><circle cx="958.1" cy="367.5" r="2.8" fill="#1f77b4"/><circle cx="1044.8" cy="342.7" r="2.8" fill="#1f77b4"/><circle cx="1131.5" cy="317.6" r="2.8" fill="#1f77b4"/><circle cx="1305.0" cy="306.1" r="2.8" fill="#1f77b4"/><polyline fill="none" stroke="#1f77b4" stroke-width="2.5" stroke-dasharray="7,4" points="790.0,768.3 795.4,754.2 806.3,751.5 827.9,748.7 849.6,658.9 871.3,661.1 914.7,587.5 958.1,517.8 1044.8,416.6 1131.5,383.0 1305.0,303.6"/><circle cx="790.0" cy="768.3" r="2.8" fill="#1f77b4"/><circle cx="795.4" cy="754.2" r="2.8" fill="#1f77b4"/><circle cx="806.3" cy="751.5" r="2.8" fill="#1f77b4"/><circle cx="827.9" cy="748.7" r="2.8" fill="#1f77b4"/><circle cx="849.6" cy="658.9" r="2.8" fill="#1f77b4"/><circle cx="871.3" cy="661.1" r="2.8" fill="#1f77b4"/><circle cx="914.7" cy="587.5" r="2.8" fill="#1f77b4"/><circle cx="958.1" cy="517.8" r="2.8" fill="#1f77b4"/><circle cx="1044.8" cy="416.6" r="2.8" fill="#1f77b4"/><circle cx="1131.5" cy="383.0" r="2.8" fill="#1f77b4"/><circle cx="1305.0" cy="303.6" r="2.8" fill="#1f77b4"/><polyline fill="none" stroke="#d62728" stroke-width="2.5" points="790.0,769.3 795.4,696.8 806.3,586.1 827.9,464.2 849.6,404.3 871.3,389.4 914.7,371.4 958.1,364.5 1044.8,343.0 1131.5,318.4 1305.0,307.6"/><circle cx="790.0" cy="769.3" r="2.8" fill="#d62728"/><circle cx="795.4" cy="696.8" r="2.8" fill="#d62728"/><circle cx="806.3" cy="586.1" r="2.8" fill="#d62728"/><circle cx="827.9" cy="464.2" r="2.8" fill="#d62728"/><circle cx="849.6" cy="404.3" r="2.8" fill="#d62728"/><circle cx="871.3" cy="389.4" r="2.8" fill="#d62728"/><circle cx="914.7" cy="371.4" r="2.8" fill="#d62728"/><circle cx="958.1" cy="364.5" r="2.8" fill="#d62728"/><circle cx="1044.8" cy="343.0" r="2.8" fill="#d62728"/><circle cx="1131.5" cy="318.4" r="2.8" fill="#d62728"/><circle cx="1305.0" cy="307.6" r="2.8" fill="#d62728"/><polyline fill="none" stroke="#d62728" stroke-width="2.5" stroke-dasharray="7,4" points="790.0,768.8 795.4,755.4 806.3,752.0 827.9,746.7 849.6,665.2 871.3,665.0 914.7,594.3 958.1,530.6 1044.8,415.2 1131.5,384.3 1305.0,302.0"/><circle cx="790.0" cy="768.8" r="2.8" fill="#d62728"/><circle cx="795.4" cy="755.4" r="2.8" fill="#d62728"/><circle cx="806.3" cy="752.0" r="2.8" fill="#d62728"/><circle cx="827.9" cy="746.7" r="2.8" fill="#d62728"/><circle cx="849.6" cy="665.2" r="2.8" fill="#d62728"/><circle cx="871.3" cy="665.0" r="2.8" fill="#d62728"/><circle cx="914.7" cy="594.3" r="2.8" fill="#d62728"/><circle cx="958.1" cy="530.6" r="2.8" fill="#d62728"/><circle cx="1044.8" cy="415.2" r="2.8" fill="#d62728"/><circle cx="1131.5" cy="384.3" r="2.8" fill="#d62728"/><circle cx="1305.0" cy="302.0" r="2.8" fill="#d62728"/><polyline fill="none" stroke="#2ca02c" stroke-width="2.5" points="790.0,769.1 795.4,696.0 806.3,584.2 827.9,465.0 849.6,404.2 871.3,388.2 914.7,370.9 958.1,367.2 1044.8,343.9 1131.5,331.1 1305.0,303.2"/><circle cx="790.0" cy="769.1" r="2.8" fill="#2ca02c"/><circle cx="795.4" cy="696.0" r="2.8" fill="#2ca02c"/><circle cx="806.3" cy="584.2" r="2.8" fill="#2ca02c"/><circle cx="827.9" cy="465.0" r="2.8" fill="#2ca02c"/><circle cx="849.6" cy="404.2" r="2.8" fill="#2ca02c"/><circle cx="871.3" cy="388.2" r="2.8" fill="#2ca02c"/><circle cx="914.7" cy="370.9" r="2.8" fill="#2ca02c"/><circle cx="958.1" cy="367.2" r="2.8" fill="#2ca02c"/><circle cx="1044.8" cy="343.9" r="2.8" fill="#2ca02c"/><circle cx="1131.5" cy="331.1" r="2.8" fill="#2ca02c"/><circle cx="1305.0" cy="303.2" r="2.8" fill="#2ca02c"/><polyline fill="none" stroke="#2ca02c" stroke-width="2.5" stroke-dasharray="7,4" points="790.0,769.4 795.4,755.5 806.3,751.0 827.9,749.6 849.6,666.1 871.3,661.9 914.7,587.8 958.1,512.8 1044.8,413.7 1131.5,385.8 1305.0,299.9"/><circle cx="790.0" cy="769.4" r="2.8" fill="#2ca02c"/><circle cx="795.4" cy="755.5" r="2.8" fill="#2ca02c"/><circle cx="806.3" cy="751.0" r="2.8" fill="#2ca02c"/><circle cx="827.9" cy="749.6" r="2.8" fill="#2ca02c"/><circle cx="849.6" cy="666.1" r="2.8" fill="#2ca02c"/><circle cx="871.3" cy="661.9" r="2.8" fill="#2ca02c"/><circle cx="914.7" cy="587.8" r="2.8" fill="#2ca02c"/><circle cx="958.1" cy="512.8" r="2.8" fill="#2ca02c"/><circle cx="1044.8" cy="413.7" r="2.8" fill="#2ca02c"/><circle cx="1131.5" cy="385.8" r="2.8" fill="#2ca02c"/><circle cx="1305.0" cy="299.9" r="2.8" fill="#2ca02c"/><text class="small" x="745.0" y="495.0" transform="rotate(-90 745.0,495.0)" text-anchor="middle">uProf total BW GB/s</text></svg>